# source: models.blend / Military_Assets / 13_Base_Air
# generated by tools/export_builtin_obj.py (Task69) - do not hand-edit
mtllib Building_AirBase.mtl
v -32.0000 0.0000 -48.0000
v -32.0000 0.3000 -48.0000
v 32.0000 0.0000 -48.0000
v 32.0000 0.3000 -48.0000
v -32.0000 0.0000 48.0000
v -32.0000 0.3000 48.0000
v 32.0000 0.0000 48.0000
v 32.0000 0.3000 48.0000
v -30.0000 0.3000 -4.0000
v -30.0000 0.3800 -4.0000
v 30.0000 0.3000 -4.0000
v 30.0000 0.3800 -4.0000
v -30.0000 0.3000 48.0000
v -30.0000 0.3800 48.0000
v 30.0000 0.3000 48.0000
v 30.0000 0.3800 48.0000
v -30.0000 0.3350 39.5000
v -30.0000 0.4450 39.5000
v 30.0000 0.3350 39.5000
v 30.0000 0.4450 39.5000
v -30.0000 0.3350 40.5000
v -30.0000 0.4450 40.5000
v 30.0000 0.3350 40.5000
v 30.0000 0.4450 40.5000
v 3.0000 0.3000 -34.0000
v 29.0000 0.3000 -34.0000
v 29.0000 4.3000 -34.0000
v 27.2583 8.3000 -34.0000
v 22.5000 11.2282 -34.0000
v 16.0000 12.3000 -34.0000
v 9.5000 11.2282 -34.0000
v 4.7417 8.3000 -34.0000
v 3.0000 4.3000 -34.0000
v 3.0000 0.3000 -6.0000
v 29.0000 0.3000 -6.0000
v 29.0000 4.3000 -6.0000
v 27.2583 8.3000 -6.0000
v 22.5000 11.2282 -6.0000
v 16.0000 12.3000 -6.0000
v 9.5000 11.2282 -6.0000
v 4.7417 8.3000 -6.0000
v 3.0000 4.3000 -6.0000
v 5.0000 0.3000 -6.5500
v 5.0000 10.3000 -6.5500
v 27.0000 0.3000 -6.5500
v 27.0000 10.3000 -6.5500
v 5.0000 0.3000 -5.8500
v 5.0000 10.3000 -5.8500
v 27.0000 0.3000 -5.8500
v 27.0000 10.3000 -5.8500
v 7.0000 0.3000 -6.7500
v 7.0000 10.3000 -6.7500
v 7.4000 0.3000 -6.7500
v 7.4000 10.3000 -6.7500
v 7.0000 0.3000 -6.4500
v 7.0000 10.3000 -6.4500
v 7.4000 0.3000 -6.4500
v 7.4000 10.3000 -6.4500
v 11.4000 0.3000 -6.7500
v 11.4000 10.3000 -6.7500
v 11.8000 0.3000 -6.7500
v 11.8000 10.3000 -6.7500
v 11.4000 0.3000 -6.4500
v 11.4000 10.3000 -6.4500
v 11.8000 0.3000 -6.4500
v 11.8000 10.3000 -6.4500
v 15.8000 0.3000 -6.7500
v 15.8000 10.3000 -6.7500
v 16.2000 0.3000 -6.7500
v 16.2000 10.3000 -6.7500
v 15.8000 0.3000 -6.4500
v 15.8000 10.3000 -6.4500
v 16.2000 0.3000 -6.4500
v 16.2000 10.3000 -6.4500
v 20.2000 0.3000 -6.7500
v 20.2000 10.3000 -6.7500
v 20.6000 0.3000 -6.7500
v 20.6000 10.3000 -6.7500
v 20.2000 0.3000 -6.4500
v 20.2000 10.3000 -6.4500
v 20.6000 0.3000 -6.4500
v 20.6000 10.3000 -6.4500
v 24.6000 0.3000 -6.7500
v 24.6000 10.3000 -6.7500
v 25.0000 0.3000 -6.7500
v 25.0000 10.3000 -6.7500
v 24.6000 0.3000 -6.4500
v 24.6000 10.3000 -6.4500
v 25.0000 0.3000 -6.4500
v 25.0000 10.3000 -6.4500
v 2.8000 10.3000 -7.1000
v 2.8000 11.1000 -7.1000
v 29.2000 10.3000 -7.1000
v 29.2000 11.1000 -7.1000
v 2.8000 10.3000 -5.7000
v 2.8000 11.1000 -5.7000
v 29.2000 10.3000 -5.7000
v 29.2000 11.1000 -5.7000
v 15.5500 0.3350 -4.0000
v 15.5500 0.4450 -4.0000
v 16.4500 0.3350 -4.0000
v 16.4500 0.4450 -4.0000
v 15.5500 0.3350 40.0000
v 15.5500 0.4450 40.0000
v 16.4500 0.3350 40.0000
v 16.4500 0.4450 40.0000
v 10.0000 0.3350 29.5500
v 10.0000 0.4450 29.5500
v 22.0000 0.3350 29.5500
v 22.0000 0.4450 29.5500
v 10.0000 0.3350 30.4500
v 10.0000 0.4450 30.4500
v 22.0000 0.3350 30.4500
v 22.0000 0.4450 30.4500
v 5.9000 0.3000 -47.6500
v 5.9000 1.8000 -47.6500
v 16.5000 0.3000 -41.8000
v 16.5000 9.3000 -41.8000
v 15.8971 0.3000 -39.5500
v 15.8971 9.3000 -39.5500
v 14.2500 0.3000 -37.9029
v 14.2500 9.3000 -37.9029
v 12.0000 0.3000 -37.3000
v 12.0000 9.3000 -37.3000
v 9.7500 0.3000 -37.9029
v 9.7500 9.3000 -37.9029
v 8.1029 0.3000 -39.5500
v 8.1029 9.3000 -39.5500
v 7.5000 0.3000 -41.8000
v 7.5000 9.3000 -41.8000
v 8.1029 0.3000 -44.0500
v 8.1029 9.3000 -44.0500
v 9.7500 0.3000 -45.6971
v 9.7500 9.3000 -45.6971
v 12.0000 0.3000 -46.3000
v 12.0000 9.3000 -46.3000
v 14.2500 0.3000 -45.6971
v 14.2500 9.3000 -45.6971
v 15.8971 0.3000 -44.0500
v 15.8971 9.3000 -44.0500
v 16.6350 9.0500 -41.8000
v 16.6350 9.5500 -41.8000
v 16.0140 9.0500 -39.4825
v 16.0140 9.5500 -39.4825
v 14.3175 9.0500 -37.7860
v 14.3175 9.5500 -37.7860
v 12.0000 9.0500 -37.1650
v 12.0000 9.5500 -37.1650
v 9.6825 9.0500 -37.7860
v 9.6825 9.5500 -37.7860
v 7.9860 9.0500 -39.4825
v 7.9860 9.5500 -39.4825
v 7.3650 9.0500 -41.8000
v 7.3650 9.5500 -41.8000
v 7.9860 9.0500 -44.1175
v 7.9860 9.5500 -44.1175
v 9.6825 9.0500 -45.8140
v 9.6825 9.5500 -45.8140
v 12.0000 9.0500 -46.4350
v 12.0000 9.5500 -46.4350
v 14.3175 9.0500 -45.8140
v 14.3175 9.5500 -45.8140
v 16.0140 9.0500 -44.1175
v 16.0140 9.5500 -44.1175
v 13.3500 9.4500 -41.8000
v 13.3500 10.1500 -41.8000
v 12.9546 9.4500 -40.8454
v 12.9546 10.1500 -40.8454
v 12.0000 9.4500 -40.4500
v 12.0000 10.1500 -40.4500
v 11.0454 9.4500 -40.8454
v 11.0454 10.1500 -40.8454
v 10.6500 9.4500 -41.8000
v 10.6500 10.1500 -41.8000
v 11.0454 9.4500 -42.7546
v 11.0454 10.1500 -42.7546
v 12.0000 9.4500 -43.1500
v 12.0000 10.1500 -43.1500
v 12.9546 9.4500 -42.7546
v 12.9546 10.1500 -42.7546
v 6.4000 0.3000 -47.6500
v 6.4000 1.8000 -47.6500
v 5.9000 0.3000 -35.9500
v 5.9000 1.8000 -35.9500
v 6.4000 0.3000 -35.9500
v 6.4000 1.8000 -35.9500
v 17.6000 0.3000 -47.6500
v 17.6000 1.8000 -47.6500
v 18.1000 0.3000 -47.6500
v 18.1000 1.8000 -47.6500
v 17.6000 0.3000 -35.9500
v 17.6000 1.8000 -35.9500
v 18.1000 0.3000 -35.9500
v 18.1000 1.8000 -35.9500
v 6.1500 0.3000 -47.9000
v 6.1500 1.8000 -47.9000
v 17.8500 0.3000 -47.9000
v 17.8500 1.8000 -47.9000
v 6.1500 0.3000 -47.4000
v 6.1500 1.8000 -47.4000
v 17.8500 0.3000 -47.4000
v 17.8500 1.8000 -47.4000
v 6.1500 0.3000 -36.2000
v 6.1500 1.8000 -36.2000
v 17.8500 0.3000 -36.2000
v 17.8500 1.8000 -36.2000
v 6.1500 0.3000 -35.7000
v 6.1500 1.8000 -35.7000
v 17.8500 0.3000 -35.7000
v 17.8500 1.8000 -35.7000
v -29.0000 0.3000 -34.0000
v -3.0000 0.3000 -34.0000
v -3.0000 4.3000 -34.0000
v -4.7417 8.3000 -34.0000
v -9.5000 11.2282 -34.0000
v -16.0000 12.3000 -34.0000
v -22.5000 11.2282 -34.0000
v -27.2583 8.3000 -34.0000
v -29.0000 4.3000 -34.0000
v -29.0000 0.3000 -6.0000
v -3.0000 0.3000 -6.0000
v -3.0000 4.3000 -6.0000
v -4.7417 8.3000 -6.0000
v -9.5000 11.2282 -6.0000
v -16.0000 12.3000 -6.0000
v -22.5000 11.2282 -6.0000
v -27.2583 8.3000 -6.0000
v -29.0000 4.3000 -6.0000
v -27.0000 0.3000 -6.5500
v -27.0000 10.3000 -6.5500
v -5.0000 0.3000 -6.5500
v -5.0000 10.3000 -6.5500
v -27.0000 0.3000 -5.8500
v -27.0000 10.3000 -5.8500
v -5.0000 0.3000 -5.8500
v -5.0000 10.3000 -5.8500
v -25.0000 0.3000 -6.7500
v -25.0000 10.3000 -6.7500
v -24.6000 0.3000 -6.7500
v -24.6000 10.3000 -6.7500
v -25.0000 0.3000 -6.4500
v -25.0000 10.3000 -6.4500
v -24.6000 0.3000 -6.4500
v -24.6000 10.3000 -6.4500
v -20.6000 0.3000 -6.7500
v -20.6000 10.3000 -6.7500
v -20.2000 0.3000 -6.7500
v -20.2000 10.3000 -6.7500
v -20.6000 0.3000 -6.4500
v -20.6000 10.3000 -6.4500
v -20.2000 0.3000 -6.4500
v -20.2000 10.3000 -6.4500
v -16.2000 0.3000 -6.7500
v -16.2000 10.3000 -6.7500
v -15.8000 0.3000 -6.7500
v -15.8000 10.3000 -6.7500
v -16.2000 0.3000 -6.4500
v -16.2000 10.3000 -6.4500
v -15.8000 0.3000 -6.4500
v -15.8000 10.3000 -6.4500
v -11.8000 0.3000 -6.7500
v -11.8000 10.3000 -6.7500
v -11.4000 0.3000 -6.7500
v -11.4000 10.3000 -6.7500
v -11.8000 0.3000 -6.4500
v -11.8000 10.3000 -6.4500
v -11.4000 0.3000 -6.4500
v -11.4000 10.3000 -6.4500
v -7.4000 0.3000 -6.7500
v -7.4000 10.3000 -6.7500
v -7.0000 0.3000 -6.7500
v -7.0000 10.3000 -6.7500
v -7.4000 0.3000 -6.4500
v -7.4000 10.3000 -6.4500
v -7.0000 0.3000 -6.4500
v -7.0000 10.3000 -6.4500
v -29.2000 10.3000 -7.1000
v -29.2000 11.1000 -7.1000
v -2.8000 10.3000 -7.1000
v -2.8000 11.1000 -7.1000
v -29.2000 10.3000 -5.7000
v -29.2000 11.1000 -5.7000
v -2.8000 10.3000 -5.7000
v -2.8000 11.1000 -5.7000
v -16.4500 0.3350 -4.0000
v -16.4500 0.4450 -4.0000
v -15.5500 0.3350 -4.0000
v -15.5500 0.4450 -4.0000
v -16.4500 0.3350 40.0000
v -16.4500 0.4450 40.0000
v -15.5500 0.3350 40.0000
v -15.5500 0.4450 40.0000
v -22.0000 0.3350 29.5500
v -22.0000 0.4450 29.5500
v -10.0000 0.3350 29.5500
v -10.0000 0.4450 29.5500
v -22.0000 0.3350 30.4500
v -22.0000 0.4450 30.4500
v -10.0000 0.3350 30.4500
v -10.0000 0.4450 30.4500
v -18.1000 0.3000 -47.6500
v -18.1000 1.8000 -47.6500
v -7.5000 0.3000 -41.8000
v -7.5000 9.3000 -41.8000
v -8.1029 0.3000 -39.5500
v -8.1029 9.3000 -39.5500
v -9.7500 0.3000 -37.9029
v -9.7500 9.3000 -37.9029
v -12.0000 0.3000 -37.3000
v -12.0000 9.3000 -37.3000
v -14.2500 0.3000 -37.9029
v -14.2500 9.3000 -37.9029
v -15.8971 0.3000 -39.5500
v -15.8971 9.3000 -39.5500
v -16.5000 0.3000 -41.8000
v -16.5000 9.3000 -41.8000
v -15.8971 0.3000 -44.0500
v -15.8971 9.3000 -44.0500
v -14.2500 0.3000 -45.6971
v -14.2500 9.3000 -45.6971
v -12.0000 0.3000 -46.3000
v -12.0000 9.3000 -46.3000
v -9.7500 0.3000 -45.6971
v -9.7500 9.3000 -45.6971
v -8.1029 0.3000 -44.0500
v -8.1029 9.3000 -44.0500
v -7.3650 9.0500 -41.8000
v -7.3650 9.5500 -41.8000
v -7.9860 9.0500 -39.4825
v -7.9860 9.5500 -39.4825
v -9.6825 9.0500 -37.7860
v -9.6825 9.5500 -37.7860
v -12.0000 9.0500 -37.1650
v -12.0000 9.5500 -37.1650
v -14.3175 9.0500 -37.7860
v -14.3175 9.5500 -37.7860
v -16.0140 9.0500 -39.4825
v -16.0140 9.5500 -39.4825
v -16.6350 9.0500 -41.8000
v -16.6350 9.5500 -41.8000
v -16.0140 9.0500 -44.1175
v -16.0140 9.5500 -44.1175
v -14.3175 9.0500 -45.8140
v -14.3175 9.5500 -45.8140
v -12.0000 9.0500 -46.4350
v -12.0000 9.5500 -46.4350
v -9.6825 9.0500 -45.8140
v -9.6825 9.5500 -45.8140
v -7.9860 9.0500 -44.1175
v -7.9860 9.5500 -44.1175
v -10.6500 9.4500 -41.8000
v -10.6500 10.1500 -41.8000
v -11.0454 9.4500 -40.8454
v -11.0454 10.1500 -40.8454
v -12.0000 9.4500 -40.4500
v -12.0000 10.1500 -40.4500
v -12.9546 9.4500 -40.8454
v -12.9546 10.1500 -40.8454
v -13.3500 9.4500 -41.8000
v -13.3500 10.1500 -41.8000
v -12.9546 9.4500 -42.7546
v -12.9546 10.1500 -42.7546
v -12.0000 9.4500 -43.1500
v -12.0000 10.1500 -43.1500
v -11.0454 9.4500 -42.7546
v -11.0454 10.1500 -42.7546
v -17.6000 0.3000 -47.6500
v -17.6000 1.8000 -47.6500
v -18.1000 0.3000 -35.9500
v -18.1000 1.8000 -35.9500
v -17.6000 0.3000 -35.9500
v -17.6000 1.8000 -35.9500
v -6.4000 0.3000 -47.6500
v -6.4000 1.8000 -47.6500
v -5.9000 0.3000 -47.6500
v -5.9000 1.8000 -47.6500
v -6.4000 0.3000 -35.9500
v -6.4000 1.8000 -35.9500
v -5.9000 0.3000 -35.9500
v -5.9000 1.8000 -35.9500
v -17.8500 0.3000 -47.9000
v -17.8500 1.8000 -47.9000
v -6.1500 0.3000 -47.9000
v -6.1500 1.8000 -47.9000
v -17.8500 0.3000 -47.4000
v -17.8500 1.8000 -47.4000
v -6.1500 0.3000 -47.4000
v -6.1500 1.8000 -47.4000
v -17.8500 0.3000 -36.2000
v -17.8500 1.8000 -36.2000
v -6.1500 0.3000 -36.2000
v -6.1500 1.8000 -36.2000
v -17.8500 0.3000 -35.7000
v -17.8500 1.8000 -35.7000
v -6.1500 0.3000 -35.7000
v -6.1500 1.8000 -35.7000
v 19.0000 0.3000 7.0000
v 19.0000 16.3000 7.0000
v 29.0000 0.3000 7.0000
v 29.0000 16.3000 7.0000
v 19.0000 0.3000 17.0000
v 19.0000 16.3000 17.0000
v 29.0000 0.3000 17.0000
v 29.0000 16.3000 17.0000
v 18.5000 16.3050 6.5000
v 18.5000 16.8550 6.5000
v 29.5000 16.3050 6.5000
v 29.5000 16.8550 6.5000
v 18.5000 16.3050 17.5000
v 18.5000 16.8550 17.5000
v 29.5000 16.3050 17.5000
v 29.5000 16.8550 17.5000
v 18.9000 3.6500 7.8000
v 18.9000 4.9500 7.8000
v 29.1000 3.6500 7.8000
v 29.1000 4.9500 7.8000
v 18.9000 3.6500 16.2000
v 18.9000 4.9500 16.2000
v 29.1000 3.6500 16.2000
v 29.1000 4.9500 16.2000
v 19.8000 3.6500 6.9000
v 19.8000 4.9500 6.9000
v 28.2000 3.6500 6.9000
v 28.2000 4.9500 6.9000
v 19.8000 3.6500 17.1000
v 19.8000 4.9500 17.1000
v 28.2000 3.6500 17.1000
v 28.2000 4.9500 17.1000
v 18.9000 7.6500 7.8000
v 18.9000 8.9500 7.8000
v 29.1000 7.6500 7.8000
v 29.1000 8.9500 7.8000
v 18.9000 7.6500 16.2000
v 18.9000 8.9500 16.2000
v 29.1000 7.6500 16.2000
v 29.1000 8.9500 16.2000
v 19.8000 7.6500 6.9000
v 19.8000 8.9500 6.9000
v 28.2000 7.6500 6.9000
v 28.2000 8.9500 6.9000
v 19.8000 7.6500 17.1000
v 19.8000 8.9500 17.1000
v 28.2000 7.6500 17.1000
v 28.2000 8.9500 17.1000
v 18.9000 11.6500 7.8000
v 18.9000 12.9500 7.8000
v 29.1000 11.6500 7.8000
v 29.1000 12.9500 7.8000
v 18.9000 11.6500 16.2000
v 18.9000 12.9500 16.2000
v 29.1000 11.6500 16.2000
v 29.1000 12.9500 16.2000
v 19.8000 11.6500 6.9000
v 19.8000 12.9500 6.9000
v 28.2000 11.6500 6.9000
v 28.2000 12.9500 6.9000
v 19.8000 11.6500 17.1000
v 19.8000 12.9500 17.1000
v 28.2000 11.6500 17.1000
v 28.2000 12.9500 17.1000
v 17.5000 16.3000 5.5000
v 17.5000 20.5000 5.5000
v 30.5000 16.3000 5.5000
v 30.5000 20.5000 5.5000
v 17.5000 16.3000 18.5000
v 17.5000 20.5000 18.5000
v 30.5000 16.3000 18.5000
v 30.5000 20.5000 18.5000
v 17.3000 17.1000 5.3000
v 17.3000 19.7000 5.3000
v 30.7000 17.1000 5.3000
v 30.7000 19.7000 5.3000
v 17.3000 17.1000 18.7000
v 17.3000 19.7000 18.7000
v 30.7000 17.1000 18.7000
v 30.7000 19.7000 18.7000
v 16.9000 20.5000 4.9000
v 16.9000 21.1000 4.9000
v 31.1000 20.5000 4.9000
v 31.1000 21.1000 4.9000
v 16.9000 20.5000 19.1000
v 16.9000 21.1000 19.1000
v 31.1000 20.5000 19.1000
v 31.1000 21.1000 19.1000
v 20.0000 8.3000 -47.0000
v 20.0000 0.3000 -47.0000
v 24.2200 21.1000 12.0000
v 24.2200 29.1000 12.0000
v 24.1100 21.1000 12.1905
v 24.1100 29.1000 12.1905
v 23.8900 21.1000 12.1905
v 23.8900 29.1000 12.1905
v 23.7800 21.1000 12.0000
v 23.7800 29.1000 12.0000
v 23.8900 21.1000 11.8095
v 23.8900 29.1000 11.8095
v 24.1100 21.1000 11.8095
v 24.1100 29.1000 11.8095
v 30.0000 0.3000 -47.0000
v 30.0000 8.3000 -47.0000
v 20.0000 0.3000 -35.0000
v 20.0000 8.3000 -35.0000
v 30.0000 0.3000 -35.0000
v 30.0000 8.3000 -35.0000
v 19.5000 8.3050 -47.5000
v 19.5000 8.8550 -47.5000
v 30.5000 8.3050 -47.5000
v 30.5000 8.8550 -47.5000
v 19.5000 8.3050 -34.5000
v 19.5000 8.8550 -34.5000
v 30.5000 8.3050 -34.5000
v 30.5000 8.8550 -34.5000
v 19.9000 2.6500 -46.0400
v 19.9000 3.9500 -46.0400
v 30.1000 2.6500 -46.0400
v 30.1000 3.9500 -46.0400
v 19.9000 2.6500 -35.9600
v 19.9000 3.9500 -35.9600
v 30.1000 2.6500 -35.9600
v 30.1000 3.9500 -35.9600
v 20.8000 2.6500 -47.1000
v 20.8000 3.9500 -47.1000
v 29.2000 2.6500 -47.1000
v 29.2000 3.9500 -47.1000
v 20.8000 2.6500 -34.9000
v 20.8000 3.9500 -34.9000
v 29.2000 2.6500 -34.9000
v 29.2000 3.9500 -34.9000
v 19.9000 5.6500 -46.0400
v 19.9000 6.9500 -46.0400
v 30.1000 5.6500 -46.0400
v 30.1000 6.9500 -46.0400
v 19.9000 5.6500 -35.9600
v 19.9000 6.9500 -35.9600
v 30.1000 5.6500 -35.9600
v 30.1000 6.9500 -35.9600
v 20.8000 5.6500 -47.1000
v 20.8000 6.9500 -47.1000
v 29.2000 5.6500 -47.1000
v 29.2000 6.9500 -47.1000
v 20.8000 5.6500 -34.9000
v 20.8000 6.9500 -34.9000
v 29.2000 5.6500 -34.9000
v 29.2000 6.9500 -34.9000
v -30.0000 0.3000 -47.0000
v -30.0000 6.3000 -47.0000
v -20.0000 0.3000 -47.0000
v -20.0000 6.3000 -47.0000
v -30.0000 0.3000 -35.0000
v -30.0000 6.3000 -35.0000
v -20.0000 0.3000 -35.0000
v -20.0000 6.3000 -35.0000
v -30.5000 6.3050 -47.5000
v -30.5000 6.8550 -47.5000
v -19.5000 6.3050 -47.5000
v -19.5000 6.8550 -47.5000
v -30.5000 6.3050 -34.5000
v -30.5000 6.8550 -34.5000
v -19.5000 6.3050 -34.5000
v -19.5000 6.8550 -34.5000
v -30.1000 2.2500 -46.0400
v -30.1000 3.5500 -46.0400
v -19.9000 2.2500 -46.0400
v -19.9000 3.5500 -46.0400
v -30.1000 2.2500 -35.9600
v -30.1000 3.5500 -35.9600
v -19.9000 2.2500 -35.9600
v -19.9000 3.5500 -35.9600
v -29.2000 2.2500 -47.1000
v -29.2000 3.5500 -47.1000
v -20.8000 2.2500 -47.1000
v -20.8000 3.5500 -47.1000
v -29.2000 2.2500 -34.9000
v -29.2000 3.5500 -34.9000
v -20.8000 2.2500 -34.9000
v -20.8000 3.5500 -34.9000
v -1.2200 0.3000 -43.2200
v -1.2200 15.3000 -43.2200
v -0.9800 0.3000 -43.2200
v -0.9800 15.3000 -43.2200
v -1.2200 0.3000 -42.9800
v -1.2200 15.3000 -42.9800
v -0.9800 0.3000 -42.9800
v -0.9800 15.3000 -42.9800
v 0.9800 0.3000 -43.2200
v 0.9800 15.3000 -43.2200
v 1.2200 0.3000 -43.2200
v 1.2200 15.3000 -43.2200
v 0.9800 0.3000 -42.9800
v 0.9800 15.3000 -42.9800
v 1.2200 0.3000 -42.9800
v 1.2200 15.3000 -42.9800
v -1.2200 0.3000 -41.0200
v -1.2200 15.3000 -41.0200
v -0.9800 0.3000 -41.0200
v -0.9800 15.3000 -41.0200
v -1.2200 0.3000 -40.7800
v -1.2200 15.3000 -40.7800
v -0.9800 0.3000 -40.7800
v -0.9800 15.3000 -40.7800
v 0.9800 0.3000 -41.0200
v 0.9800 15.3000 -41.0200
v 1.2200 0.3000 -41.0200
v 1.2200 15.3000 -41.0200
v 0.9800 0.3000 -40.7800
v 0.9800 15.3000 -40.7800
v 1.2200 0.3000 -40.7800
v 1.2200 15.3000 -40.7800
v -1.2100 2.2100 -43.2100
v -1.2100 2.3900 -43.2100
v 1.2100 2.2100 -43.2100
v 1.2100 2.3900 -43.2100
v -1.2100 2.2100 -40.7900
v -1.2100 2.3900 -40.7900
v 1.2100 2.2100 -40.7900
v 1.2100 2.3900 -40.7900
v -1.2100 5.2100 -43.2100
v -1.2100 5.3900 -43.2100
v 1.2100 5.2100 -43.2100
v 1.2100 5.3900 -43.2100
v -1.2100 5.2100 -40.7900
v -1.2100 5.3900 -40.7900
v 1.2100 5.2100 -40.7900
v 1.2100 5.3900 -40.7900
v -1.2100 8.2100 -43.2100
v -1.2100 8.3900 -43.2100
v 1.2100 8.2100 -43.2100
v 1.2100 8.3900 -43.2100
v -1.2100 8.2100 -40.7900
v -1.2100 8.3900 -40.7900
v 1.2100 8.2100 -40.7900
v 1.2100 8.3900 -40.7900
v -1.2100 11.2100 -43.2100
v -1.2100 11.3900 -43.2100
v 1.2100 11.2100 -43.2100
v 1.2100 11.3900 -43.2100
v -1.2100 11.2100 -40.7900
v -1.2100 11.3900 -40.7900
v 1.2100 11.2100 -40.7900
v 1.2100 11.3900 -40.7900
v -1.2100 14.2100 -43.2100
v -1.2100 14.3900 -43.2100
v 1.2100 14.2100 -43.2100
v 1.2100 14.3900 -43.2100
v -1.2100 14.2100 -40.7900
v -1.2100 14.3900 -40.7900
v 1.2100 14.2100 -40.7900
v 1.2100 14.3900 -40.7900
v -1.5000 15.3000 -43.5000
v -1.5000 16.7000 -43.5000
v 1.5000 15.3000 -43.5000
v 1.5000 16.7000 -43.5000
v -1.5000 15.3000 -40.5000
v -1.5000 16.7000 -40.5000
v 1.5000 15.3000 -40.5000
v 1.5000 16.7000 -40.5000
v -3.8112 16.6326 -39.6012
v -4.1702 19.7688 -40.1259
v 3.6168 16.6326 -44.6830
v 3.2578 19.7688 -45.2077
v -3.2578 16.8312 -38.7923
v -3.6168 19.9674 -39.3170
v 4.1702 16.8312 -43.8741
v 3.8112 19.9674 -44.3988
v 28.0000 11.8500 25.9600
v 28.0000 10.3500 25.9600
v 28.9000 0.3000 26.0000
v 28.9000 0.8000 26.0000
v 28.6364 0.3000 26.6364
v 28.6364 0.8000 26.6364
v 28.0000 0.3000 26.9000
v 28.0000 0.8000 26.9000
v 27.3636 0.3000 26.6364
v 27.3636 0.8000 26.6364
v 27.1000 0.3000 26.0000
v 27.1000 0.8000 26.0000
v 27.3636 0.3000 25.3636
v 27.3636 0.8000 25.3636
v 28.0000 0.3000 25.1000
v 28.0000 0.8000 25.1000
v 28.6364 0.3000 25.3636
v 28.6364 0.8000 25.3636
v 28.1400 0.3000 26.0000
v 28.1400 12.3000 26.0000
v 28.0700 0.3000 26.1212
v 28.0700 12.3000 26.1212
v 27.9300 0.3000 26.1212
v 27.9300 12.3000 26.1212
v 27.8600 0.3000 26.0000
v 27.8600 12.3000 26.0000
v 27.9300 0.3000 25.8788
v 27.9300 12.3000 25.8788
v 28.0700 0.3000 25.8788
v 28.0700 12.3000 25.8788
v 30.6000 10.3500 25.9600
v 30.6000 11.8500 25.9600
v 28.0000 10.3500 26.0400
v 28.0000 11.8500 26.0400
v 30.6000 10.3500 26.0400
v 30.6000 11.8500 26.0400
v 31.5000 0.3000 -48.0000
v 31.5000 2.5000 -48.0000
v 32.0000 0.3000 -48.0000
v 32.0000 2.5000 -48.0000
v 31.5000 0.3000 48.0000
v 31.5000 2.5000 48.0000
v 32.0000 0.3000 48.0000
v 32.0000 2.5000 48.0000
v -32.0000 0.3000 -48.0000
v -32.0000 2.5000 -48.0000
v -31.5000 0.3000 -48.0000
v -31.5000 2.5000 -48.0000
v -32.0000 0.3000 48.0000
v -32.0000 2.5000 48.0000
v -31.5000 0.3000 48.0000
v -31.5000 2.5000 48.0000
v -31.7500 0.3000 -48.0000
v -31.7500 2.5000 -48.0000
v 31.7500 0.3000 -48.0000
v 31.7500 2.5000 -48.0000
v -31.7500 0.3000 -47.5000
v -31.7500 2.5000 -47.5000
v 31.7500 0.3000 -47.5000
v 31.7500 2.5000 -47.5000
v 9.7500 0.3000 47.5000
v 9.7500 2.5000 47.5000
v 31.7500 0.3000 47.5000
v 31.7500 2.5000 47.5000
v 9.7500 0.3000 48.0000
v 9.7500 2.5000 48.0000
v 31.7500 0.3000 48.0000
v 31.7500 2.5000 48.0000
v -31.7500 0.3000 47.5000
v -31.7500 2.5000 47.5000
v -9.7500 0.3000 47.5000
v -9.7500 2.5000 47.5000
v -31.7500 0.3000 48.0000
v -31.7500 2.5000 48.0000
v -9.7500 0.3000 48.0000
v -9.7500 2.5000 48.0000
usemtl Mat0
f 2 3 1
f 4 7 3
f 8 5 7
f 6 1 5
f 7 1 3
f 4 6 8
f 190 192 194
f 190 193 189
f 116 181 115
f 196 197 195
f 182 185 181
f 194 191 193
f 184 115 183
f 202 199 201
f 185 115 181
f 193 187 189
f 182 184 186
f 192 187 191
f 186 183 185
f 198 201 197
f 188 189 187
f 200 195 199
f 201 195 197
f 198 200 202
f 204 205 203
f 206 209 205
f 210 207 209
f 208 203 207
f 209 203 205
f 206 208 210
f 376 378 380
f 376 379 375
f 302 367 301
f 382 383 381
f 368 371 367
f 380 377 379
f 370 301 369
f 388 385 387
f 371 301 367
f 379 373 375
f 368 370 372
f 378 373 377
f 372 369 371
f 384 387 383
f 374 375 373
f 386 381 385
f 387 381 383
f 384 386 388
f 390 391 389
f 392 395 391
f 396 393 395
f 394 389 393
f 395 389 391
f 392 394 396
f 398 399 397
f 400 403 399
f 404 401 403
f 402 397 401
f 403 397 399
f 400 402 404
f 462 463 461
f 464 467 463
f 468 465 467
f 466 461 465
f 467 461 463
f 464 466 468
f 503 486 499
f 502 486 501
f 504 501 503
f 500 503 499
f 485 499 486
f 500 502 504
f 668 669 667
f 670 671 669
f 708 705 707
f 672 673 671
f 702 703 701
f 674 675 673
f 676 677 675
f 706 701 705
f 678 679 677
f 680 676 672
f 680 681 679
f 704 707 703
f 682 667 681
f 679 681 673
f 707 701 703
f 704 706 708
f 710 711 709
f 712 715 711
f 716 713 715
f 714 709 713
f 715 709 711
f 712 714 716
f 718 719 717
f 720 723 719
f 724 721 723
f 722 717 721
f 723 717 719
f 720 722 724
f 726 727 725
f 728 731 727
f 732 729 731
f 730 725 729
f 731 725 727
f 728 730 732
f 734 735 733
f 736 739 735
f 740 737 739
f 738 733 737
f 739 733 735
f 736 738 740
f 672 670 668
f 668 682 680
f 680 678 676
f 676 674 672
f 672 668 680
f 681 667 669
f 669 671 681
f 671 673 681
f 673 675 677
f 677 679 673
f 2 4 3
f 4 8 7
f 8 6 5
f 6 2 1
f 7 5 1
f 4 2 6
f 190 188 192
f 190 194 193
f 116 182 181
f 196 198 197
f 182 186 185
f 194 192 191
f 184 116 115
f 202 200 199
f 185 183 115
f 193 191 187
f 182 116 184
f 192 188 187
f 186 184 183
f 198 202 201
f 188 190 189
f 200 196 195
f 201 199 195
f 198 196 200
f 204 206 205
f 206 210 209
f 210 208 207
f 208 204 203
f 209 207 203
f 206 204 208
f 376 374 378
f 376 380 379
f 302 368 367
f 382 384 383
f 368 372 371
f 380 378 377
f 370 302 301
f 388 386 385
f 371 369 301
f 379 377 373
f 368 302 370
f 378 374 373
f 372 370 369
f 384 388 387
f 374 376 375
f 386 382 381
f 387 385 381
f 384 382 386
f 390 392 391
f 392 396 395
f 396 394 393
f 394 390 389
f 395 393 389
f 392 390 394
f 398 400 399
f 400 404 403
f 404 402 401
f 402 398 397
f 403 401 397
f 400 398 402
f 462 464 463
f 464 468 467
f 468 466 465
f 466 462 461
f 467 465 461
f 464 462 466
f 503 501 486
f 502 485 486
f 504 502 501
f 500 504 503
f 485 500 499
f 500 485 502
f 668 670 669
f 670 672 671
f 708 706 705
f 672 674 673
f 702 704 703
f 674 676 675
f 676 678 677
f 706 702 701
f 678 680 679
f 680 682 681
f 704 708 707
f 682 668 667
f 707 705 701
f 704 702 706
f 710 712 711
f 712 716 715
f 716 714 713
f 714 710 709
f 715 713 709
f 712 710 714
f 718 720 719
f 720 724 723
f 724 722 721
f 722 718 717
f 723 721 717
f 720 718 722
f 726 728 727
f 728 732 731
f 732 730 729
f 730 726 725
f 731 729 725
f 728 726 730
f 734 736 735
f 736 740 739
f 740 738 737
f 738 734 733
f 739 737 733
f 736 734 738
usemtl Mat1
f 10 11 9
f 12 15 11
f 16 13 15
f 14 9 13
f 15 9 11
f 12 14 16
f 10 12 11
f 12 16 15
f 16 14 13
f 14 10 9
f 15 13 9
f 12 10 14
usemtl Mat2
f 18 19 17
f 20 23 19
f 24 21 23
f 22 17 21
f 23 17 19
f 20 22 24
f 100 101 99
f 102 105 101
f 106 103 105
f 104 99 103
f 105 99 101
f 102 104 106
f 108 109 107
f 110 113 109
f 114 111 113
f 112 107 111
f 113 107 109
f 110 112 114
f 286 287 285
f 288 291 287
f 292 289 291
f 290 285 289
f 291 285 287
f 288 290 292
f 294 295 293
f 296 299 295
f 300 297 299
f 298 293 297
f 299 293 295
f 296 298 300
f 18 20 19
f 20 24 23
f 24 22 21
f 22 18 17
f 23 21 17
f 20 18 22
f 100 102 101
f 102 106 105
f 106 104 103
f 104 100 99
f 105 103 99
f 102 100 104
f 108 110 109
f 110 114 113
f 114 112 111
f 112 108 107
f 113 111 107
f 110 108 112
f 286 288 287
f 288 292 291
f 292 290 289
f 290 286 285
f 291 289 285
f 288 286 290
f 294 296 295
f 296 300 299
f 300 298 297
f 298 294 293
f 299 297 293
f 296 294 298
usemtl Mat3
f 31 33 32
f 35 39 34
f 26 34 25
f 27 35 26
f 28 36 27
f 29 37 28
f 30 38 29
f 31 39 30
f 32 40 31
f 33 41 32
f 25 42 33
f 52 53 51
f 54 57 53
f 58 55 57
f 56 51 55
f 57 51 53
f 54 56 58
f 60 61 59
f 62 65 61
f 66 63 65
f 64 59 63
f 65 59 61
f 62 64 66
f 68 69 67
f 70 73 69
f 74 71 73
f 72 67 71
f 73 67 69
f 70 72 74
f 76 77 75
f 78 81 77
f 82 79 81
f 80 75 79
f 81 75 77
f 78 80 82
f 84 85 83
f 86 89 85
f 90 87 89
f 88 83 87
f 89 83 85
f 86 88 90
f 174 175 173
f 146 147 145
f 170 171 169
f 152 153 151
f 169 173 177
f 168 169 167
f 144 145 143
f 150 151 149
f 142 143 141
f 176 177 175
f 154 155 153
f 148 149 147
f 156 157 155
f 166 167 165
f 158 159 157
f 160 161 159
f 148 144 160
f 162 163 161
f 178 179 177
f 172 173 171
f 164 141 163
f 161 145 153
f 180 165 179
f 170 166 178
f 217 219 218
f 221 225 220
f 212 220 211
f 213 221 212
f 214 222 213
f 215 223 214
f 216 224 215
f 217 225 216
f 218 226 217
f 219 227 218
f 211 228 219
f 238 239 237
f 240 243 239
f 244 241 243
f 242 237 241
f 243 237 239
f 240 242 244
f 246 247 245
f 248 251 247
f 252 249 251
f 250 245 249
f 251 245 247
f 248 250 252
f 254 255 253
f 256 259 255
f 260 257 259
f 258 253 257
f 259 253 255
f 256 258 260
f 262 263 261
f 264 267 263
f 268 265 267
f 266 261 265
f 267 261 263
f 264 266 268
f 270 271 269
f 272 275 271
f 276 273 275
f 274 269 273
f 275 269 271
f 272 274 276
f 360 361 359
f 332 333 331
f 356 357 355
f 338 339 337
f 355 359 363
f 354 355 353
f 330 331 329
f 336 337 335
f 328 329 327
f 362 363 361
f 340 341 339
f 334 335 333
f 342 343 341
f 352 353 351
f 344 345 343
f 346 347 345
f 334 330 346
f 348 349 347
f 364 365 363
f 358 359 357
f 350 327 349
f 347 331 339
f 366 351 365
f 356 352 364
f 488 489 487
f 490 491 489
f 492 493 491
f 494 495 493
f 494 492 488
f 496 497 495
f 498 487 497
f 493 495 497
f 578 579 577
f 580 583 579
f 584 581 583
f 582 577 581
f 583 577 579
f 580 582 584
f 586 587 585
f 588 591 587
f 592 589 591
f 590 585 589
f 591 585 587
f 588 590 592
f 594 595 593
f 596 599 595
f 600 597 599
f 598 593 597
f 599 593 595
f 596 598 600
f 602 603 601
f 604 607 603
f 608 605 607
f 606 601 605
f 607 601 603
f 604 606 608
f 610 611 609
f 612 615 611
f 616 613 615
f 614 609 613
f 615 609 611
f 612 614 616
f 618 619 617
f 620 623 619
f 624 621 623
f 622 617 621
f 623 617 619
f 620 622 624
f 626 627 625
f 628 631 627
f 632 629 631
f 630 625 629
f 631 625 627
f 628 630 632
f 634 635 633
f 636 639 635
f 640 637 639
f 638 633 637
f 639 633 635
f 636 638 640
f 642 643 641
f 644 647 643
f 648 645 647
f 646 641 645
f 647 641 643
f 644 646 648
f 650 651 649
f 652 655 651
f 656 653 655
f 654 649 653
f 655 649 651
f 652 654 656
f 683 685 689
f 692 693 691
f 686 687 685
f 690 691 689
f 684 685 683
f 688 689 687
f 694 683 693
f 688 686 684
f 33 31 25
f 25 30 26
f 26 29 27
f 27 29 28
f 29 26 30
f 30 25 31
f 34 40 42
f 42 40 41
f 40 34 39
f 39 35 38
f 38 36 37
f 35 36 38
f 165 167 169
f 169 171 173
f 173 175 177
f 177 179 165
f 165 169 177
f 152 150 148
f 148 146 144
f 144 142 160
f 142 164 160
f 164 162 160
f 160 158 156
f 156 154 160
f 154 152 160
f 152 148 160
f 153 155 157
f 157 159 153
f 159 161 153
f 161 163 141
f 141 143 145
f 145 147 153
f 147 149 153
f 149 151 153
f 161 141 145
f 174 172 170
f 170 168 166
f 166 180 178
f 178 176 174
f 174 170 178
f 219 217 211
f 211 216 212
f 212 215 213
f 213 215 214
f 215 212 216
f 216 211 217
f 220 226 228
f 228 226 227
f 226 220 225
f 225 221 224
f 224 222 223
f 221 222 224
f 351 353 355
f 355 357 359
f 359 361 363
f 363 365 351
f 351 355 363
f 338 336 334
f 334 332 330
f 330 328 346
f 328 350 346
f 350 348 346
f 346 344 338
f 344 342 338
f 342 340 338
f 338 334 346
f 339 341 343
f 343 345 339
f 345 347 339
f 347 349 327
f 327 329 331
f 331 333 339
f 333 335 339
f 335 337 339
f 347 327 331
f 360 358 356
f 356 354 352
f 352 366 364
f 364 362 360
f 360 356 364
f 492 490 488
f 488 498 496
f 496 494 488
f 497 487 493
f 487 489 493
f 489 491 493
f 685 687 689
f 689 691 693
f 693 683 689
f 684 694 692
f 692 690 684
f 690 688 684
f 26 35 34
f 27 36 35
f 28 37 36
f 29 38 37
f 30 39 38
f 31 40 39
f 32 41 40
f 33 42 41
f 25 34 42
f 52 54 53
f 54 58 57
f 58 56 55
f 56 52 51
f 57 55 51
f 54 52 56
f 60 62 61
f 62 66 65
f 66 64 63
f 64 60 59
f 65 63 59
f 62 60 64
f 68 70 69
f 70 74 73
f 74 72 71
f 72 68 67
f 73 71 67
f 70 68 72
f 76 78 77
f 78 82 81
f 82 80 79
f 80 76 75
f 81 79 75
f 78 76 80
f 84 86 85
f 86 90 89
f 90 88 87
f 88 84 83
f 89 87 83
f 86 84 88
f 174 176 175
f 146 148 147
f 170 172 171
f 152 154 153
f 168 170 169
f 144 146 145
f 150 152 151
f 142 144 143
f 176 178 177
f 154 156 155
f 148 150 149
f 156 158 157
f 166 168 167
f 158 160 159
f 160 162 161
f 162 164 163
f 178 180 179
f 172 174 173
f 164 142 141
f 180 166 165
f 212 221 220
f 213 222 221
f 214 223 222
f 215 224 223
f 216 225 224
f 217 226 225
f 218 227 226
f 219 228 227
f 211 220 228
f 238 240 239
f 240 244 243
f 244 242 241
f 242 238 237
f 243 241 237
f 240 238 242
f 246 248 247
f 248 252 251
f 252 250 249
f 250 246 245
f 251 249 245
f 248 246 250
f 254 256 255
f 256 260 259
f 260 258 257
f 258 254 253
f 259 257 253
f 256 254 258
f 262 264 263
f 264 268 267
f 268 266 265
f 266 262 261
f 267 265 261
f 264 262 266
f 270 272 271
f 272 276 275
f 276 274 273
f 274 270 269
f 275 273 269
f 272 270 274
f 360 362 361
f 332 334 333
f 356 358 357
f 338 340 339
f 354 356 355
f 330 332 331
f 336 338 337
f 328 330 329
f 362 364 363
f 340 342 341
f 334 336 335
f 342 344 343
f 352 354 353
f 344 346 345
f 346 348 347
f 348 350 349
f 364 366 365
f 358 360 359
f 350 328 327
f 366 352 351
f 488 490 489
f 490 492 491
f 492 494 493
f 494 496 495
f 496 498 497
f 498 488 487
f 578 580 579
f 580 584 583
f 584 582 581
f 582 578 577
f 583 581 577
f 580 578 582
f 586 588 587
f 588 592 591
f 592 590 589
f 590 586 585
f 591 589 585
f 588 586 590
f 594 596 595
f 596 600 599
f 600 598 597
f 598 594 593
f 599 597 593
f 596 594 598
f 602 604 603
f 604 608 607
f 608 606 605
f 606 602 601
f 607 605 601
f 604 602 606
f 610 612 611
f 612 616 615
f 616 614 613
f 614 610 609
f 615 613 609
f 612 610 614
f 618 620 619
f 620 624 623
f 624 622 621
f 622 618 617
f 623 621 617
f 620 618 622
f 626 628 627
f 628 632 631
f 632 630 629
f 630 626 625
f 631 629 625
f 628 626 630
f 634 636 635
f 636 640 639
f 640 638 637
f 638 634 633
f 639 637 633
f 636 634 638
f 642 644 643
f 644 648 647
f 648 646 645
f 646 642 641
f 647 645 641
f 644 642 646
f 650 652 651
f 652 656 655
f 656 654 653
f 654 650 649
f 655 653 649
f 652 650 654
f 692 694 693
f 686 688 687
f 690 692 691
f 684 686 685
f 688 690 689
f 694 684 683
usemtl Mat4
f 44 45 43
f 46 49 45
f 50 47 49
f 48 43 47
f 49 43 45
f 46 48 50
f 230 231 229
f 232 235 231
f 236 233 235
f 234 229 233
f 235 229 231
f 232 234 236
f 44 46 45
f 46 50 49
f 50 48 47
f 48 44 43
f 49 47 43
f 46 44 48
f 230 232 231
f 232 236 235
f 236 234 233
f 234 230 229
f 235 233 229
f 232 230 234
usemtl Mat5
f 92 93 91
f 94 97 93
f 98 95 97
f 96 91 95
f 97 91 93
f 94 96 98
f 278 279 277
f 280 283 279
f 284 281 283
f 282 277 281
f 283 277 279
f 280 282 284
f 406 407 405
f 408 411 407
f 412 409 411
f 410 405 409
f 411 405 407
f 408 410 412
f 478 479 477
f 480 483 479
f 484 481 483
f 482 477 481
f 483 477 479
f 480 482 484
f 510 505 509
f 511 505 507
f 508 511 507
f 506 507 505
f 512 509 511
f 508 510 512
f 554 555 553
f 556 559 555
f 560 557 559
f 558 553 557
f 559 553 555
f 556 558 560
f 92 94 93
f 94 98 97
f 98 96 95
f 96 92 91
f 97 95 91
f 94 92 96
f 278 280 279
f 280 284 283
f 284 282 281
f 282 278 277
f 283 281 277
f 280 278 282
f 406 408 407
f 408 412 411
f 412 410 409
f 410 406 405
f 411 409 405
f 408 406 410
f 478 480 479
f 480 484 483
f 484 482 481
f 482 478 477
f 483 481 477
f 480 478 482
f 510 506 505
f 511 509 505
f 508 512 511
f 506 508 507
f 512 510 509
f 508 506 510
f 554 556 555
f 556 560 559
f 560 558 557
f 558 554 553
f 559 557 553
f 556 554 558
usemtl Mat6
f 118 119 117
f 120 121 119
f 122 123 121
f 124 125 123
f 126 127 125
f 128 129 127
f 130 131 129
f 132 133 131
f 134 135 133
f 136 137 135
f 138 130 122
f 138 139 137
f 140 117 139
f 123 131 139
f 304 305 303
f 306 307 305
f 308 309 307
f 310 311 309
f 312 313 311
f 314 315 313
f 316 317 315
f 318 319 317
f 320 321 319
f 322 323 321
f 324 316 308
f 324 325 323
f 326 303 325
f 309 317 325
f 658 659 657
f 660 663 659
f 663 662 661
f 661 658 657
f 659 661 657
f 660 662 664
f 700 697 699
f 696 698 700
f 696 699 695
f 699 666 695
f 665 695 666
f 698 666 697
f 122 120 138
f 120 118 138
f 118 140 138
f 138 136 134
f 134 132 138
f 132 130 138
f 130 128 122
f 128 126 122
f 126 124 122
f 139 117 119
f 119 121 139
f 121 123 139
f 123 125 131
f 125 127 131
f 127 129 131
f 131 133 135
f 135 137 131
f 137 139 131
f 308 306 324
f 306 304 324
f 304 326 324
f 324 322 320
f 320 318 324
f 318 316 324
f 316 314 308
f 314 312 308
f 312 310 308
f 325 303 305
f 305 307 325
f 307 309 325
f 309 311 317
f 311 313 317
f 313 315 317
f 317 319 321
f 321 323 317
f 323 325 317
f 118 120 119
f 120 122 121
f 122 124 123
f 124 126 125
f 126 128 127
f 128 130 129
f 130 132 131
f 132 134 133
f 134 136 135
f 136 138 137
f 138 140 139
f 140 118 117
f 304 306 305
f 306 308 307
f 308 310 309
f 310 312 311
f 312 314 313
f 314 316 315
f 316 318 317
f 318 320 319
f 320 322 321
f 322 324 323
f 324 326 325
f 326 304 303
f 658 660 659
f 660 664 663
f 663 664 662
f 661 662 658
f 659 663 661
f 660 658 662
f 700 698 697
f 696 665 698
f 696 700 699
f 699 697 666
f 665 696 695
f 698 665 666
usemtl Mat7
f 414 415 413
f 416 419 415
f 420 417 419
f 418 413 417
f 419 413 415
f 416 418 420
f 422 423 421
f 424 427 423
f 428 425 427
f 426 421 425
f 427 421 423
f 424 426 428
f 430 431 429
f 432 435 431
f 436 433 435
f 434 429 433
f 435 429 431
f 432 434 436
f 438 439 437
f 440 443 439
f 444 441 443
f 442 437 441
f 443 437 439
f 440 442 444
f 446 447 445
f 448 451 447
f 452 449 451
f 450 445 449
f 451 445 447
f 448 450 452
f 454 455 453
f 456 459 455
f 460 457 459
f 458 453 457
f 459 453 455
f 456 458 460
f 470 471 469
f 472 475 471
f 476 473 475
f 474 469 473
f 475 469 471
f 472 474 476
f 514 515 513
f 516 519 515
f 520 517 519
f 518 513 517
f 519 513 515
f 516 518 520
f 522 523 521
f 524 527 523
f 528 525 527
f 526 521 525
f 527 521 523
f 524 526 528
f 530 531 529
f 532 535 531
f 536 533 535
f 534 529 533
f 535 529 531
f 532 534 536
f 538 539 537
f 540 543 539
f 544 541 543
f 542 537 541
f 543 537 539
f 540 542 544
f 562 563 561
f 564 567 563
f 568 565 567
f 566 561 565
f 567 561 563
f 564 566 568
f 570 571 569
f 572 575 571
f 576 573 575
f 574 569 573
f 575 569 571
f 572 574 576
f 414 416 415
f 416 420 419
f 420 418 417
f 418 414 413
f 419 417 413
f 416 414 418
f 422 424 423
f 424 428 427
f 428 426 425
f 426 422 421
f 427 425 421
f 424 422 426
f 430 432 431
f 432 436 435
f 436 434 433
f 434 430 429
f 435 433 429
f 432 430 434
f 438 440 439
f 440 444 443
f 444 442 441
f 442 438 437
f 443 441 437
f 440 438 442
f 446 448 447
f 448 452 451
f 452 450 449
f 450 446 445
f 451 449 445
f 448 446 450
f 454 456 455
f 456 460 459
f 460 458 457
f 458 454 453
f 459 457 453
f 456 454 458
f 470 472 471
f 472 476 475
f 476 474 473
f 474 470 469
f 475 473 469
f 472 470 474
f 514 516 515
f 516 520 519
f 520 518 517
f 518 514 513
f 519 517 513
f 516 514 518
f 522 524 523
f 524 528 527
f 528 526 525
f 526 522 521
f 527 525 521
f 524 522 526
f 530 532 531
f 532 536 535
f 536 534 533
f 534 530 529
f 535 533 529
f 532 530 534
f 538 540 539
f 540 544 543
f 544 542 541
f 542 538 537
f 543 541 537
f 540 538 542
f 562 564 563
f 564 568 567
f 568 566 565
f 566 562 561
f 567 565 561
f 564 562 566
f 570 572 571
f 572 576 575
f 576 574 573
f 574 570 569
f 575 573 569
f 572 570 574
usemtl Mat8
f 546 547 545
f 548 551 547
f 552 549 551
f 550 545 549
f 551 545 547
f 548 550 552
f 546 548 547
f 548 552 551
f 552 550 549
f 550 546 545
f 551 549 545
f 548 546 550
