# Missile base: bunker+2 silo tubes, ~30x24x10m
# generated by tools/gen_models.py (Task57) - do not hand-edit
mtllib Building_MissileBase.mtl
v -15.0000 0.0000 -10.0000
v 3.0000 0.0000 -10.0000
v -15.0000 6.5000 -10.0000
v 3.0000 6.5000 -10.0000
v -15.0000 0.0000 10.0000
v 3.0000 0.0000 10.0000
v -15.0000 6.5000 10.0000
v 3.0000 6.5000 10.0000
v -14.0000 6.5000 -9.0000
v 2.0000 6.5000 -9.0000
v -14.0000 7.1000 -9.0000
v 2.0000 7.1000 -9.0000
v -14.0000 6.5000 9.0000
v 2.0000 6.5000 9.0000
v -14.0000 7.1000 9.0000
v 2.0000 7.1000 9.0000
v 12.7000 0.0000 7.0000
v 12.7000 9.0000 7.0000
v 11.9092 0.0000 5.0908
v 11.9092 9.0000 5.0908
v 10.0000 0.0000 4.3000
v 10.0000 9.0000 4.3000
v 8.0908 0.0000 5.0908
v 8.0908 9.0000 5.0908
v 7.3000 0.0000 7.0000
v 7.3000 9.0000 7.0000
v 8.0908 0.0000 8.9092
v 8.0908 9.0000 8.9092
v 10.0000 0.0000 9.7000
v 10.0000 9.0000 9.7000
v 11.9092 0.0000 8.9092
v 11.9092 9.0000 8.9092
v 13.0000 8.6000 7.0000
v 13.0000 9.0000 7.0000
v 12.1213 8.6000 4.8787
v 12.1213 9.0000 4.8787
v 10.0000 8.6000 4.0000
v 10.0000 9.0000 4.0000
v 7.8787 8.6000 4.8787
v 7.8787 9.0000 4.8787
v 7.0000 8.6000 7.0000
v 7.0000 9.0000 7.0000
v 7.8787 8.6000 9.1213
v 7.8787 9.0000 9.1213
v 10.0000 8.6000 10.0000
v 10.0000 9.0000 10.0000
v 12.1213 8.6000 9.1213
v 12.1213 9.0000 9.1213
v 12.7000 0.0000 -7.0000
v 12.7000 9.0000 -7.0000
v 11.9092 0.0000 -8.9092
v 11.9092 9.0000 -8.9092
v 10.0000 0.0000 -9.7000
v 10.0000 9.0000 -9.7000
v 8.0908 0.0000 -8.9092
v 8.0908 9.0000 -8.9092
v 7.3000 0.0000 -7.0000
v 7.3000 9.0000 -7.0000
v 8.0908 0.0000 -5.0908
v 8.0908 9.0000 -5.0908
v 10.0000 0.0000 -4.3000
v 10.0000 9.0000 -4.3000
v 11.9092 0.0000 -5.0908
v 11.9092 9.0000 -5.0908
v 13.0000 8.6000 -7.0000
v 13.0000 9.0000 -7.0000
v 12.1213 8.6000 -9.1213
v 12.1213 9.0000 -9.1213
v 10.0000 8.6000 -10.0000
v 10.0000 9.0000 -10.0000
v 7.8787 8.6000 -9.1213
v 7.8787 9.0000 -9.1213
v 7.0000 8.6000 -7.0000
v 7.0000 9.0000 -7.0000
v 7.8787 8.6000 -4.8787
v 7.8787 9.0000 -4.8787
v 10.0000 8.6000 -4.0000
v 10.0000 9.0000 -4.0000
v 12.1213 8.6000 -4.8787
v 12.1213 9.0000 -4.8787
usemtl Mat
f 1 3 4 2
f 5 6 8 7
f 1 5 7 3
f 2 4 8 6
f 1 2 6 5
f 3 7 8 4
f 9 11 12 10
f 13 14 16 15
f 9 13 15 11
f 10 12 16 14
f 9 10 14 13
f 11 15 16 12
f 31 29 27 25 23 21 19 17
f 18 20 22 24 26 28 30 32
f 19 20 18 17
f 21 22 20 19
f 23 24 22 21
f 25 26 24 23
f 27 28 26 25
f 29 30 28 27
f 31 32 30 29
f 17 18 32 31
f 47 45 43 41 39 37 35 33
f 34 36 38 40 42 44 46 48
f 35 36 34 33
f 37 38 36 35
f 39 40 38 37
f 41 42 40 39
f 43 44 42 41
f 45 46 44 43
f 47 48 46 45
f 33 34 48 47
f 63 61 59 57 55 53 51 49
f 50 52 54 56 58 60 62 64
f 51 52 50 49
f 53 54 52 51
f 55 56 54 53
f 57 58 56 55
f 59 60 58 57
f 61 62 60 59
f 63 64 62 61
f 49 50 64 63
f 79 77 75 73 71 69 67 65
f 66 68 70 72 74 76 78 80
f 67 68 66 65
f 69 70 68 67
f 71 72 70 69
f 73 74 72 71
f 75 76 74 73
f 77 78 76 75
f 79 80 78 77
f 65 66 80 79
