# source: models.blend / Military_Assets / 11_Base_Army
# generated by tools/export_builtin_obj.py (Task69) - do not hand-edit
mtllib Building_MilitaryBase.mtl
v -24.0000 0.0000 -32.0000
v -24.0000 0.3000 -32.0000
v -19.0000 0.0000 -32.0000
v -19.0000 0.3000 -32.0000
v -24.0000 0.0000 32.0000
v -24.0000 0.3000 32.0000
v -19.0000 0.0000 32.0000
v -19.0000 0.3000 32.0000
v -19.0000 0.0000 -32.0000
v -19.0000 0.3000 -32.0000
v 24.0000 0.0000 -32.0000
v 24.0000 0.3000 -32.0000
v -19.0000 0.0000 -14.0000
v -19.0000 0.3000 -14.0000
v 24.0000 0.0000 -14.0000
v 24.0000 0.3000 -14.0000
v -19.0000 0.0000 -14.0000
v -19.0000 0.3000 -14.0000
v -18.6800 0.0000 -14.0000
v -18.6800 0.3000 -14.0000
v -19.0000 0.0000 30.0000
v -19.0000 0.3000 30.0000
v -18.6800 0.0000 30.0000
v -18.6800 0.3000 30.0000
v -19.0000 0.0000 30.0000
v -19.0000 0.3000 30.0000
v -4.0000 0.0000 30.0000
v -4.0000 0.3000 30.0000
v -19.0000 0.0000 32.0000
v -19.0000 0.3000 32.0000
v -4.0000 0.0000 32.0000
v -4.0000 0.3000 32.0000
v -18.6800 0.0000 -14.0000
v -18.6800 0.3000 -14.0000
v 15.0000 0.0000 -14.0000
v 15.0000 0.3000 -14.0000
v -18.6800 0.0000 11.0000
v -18.6800 0.3000 11.0000
v 15.0000 0.0000 11.0000
v 15.0000 0.3000 11.0000
v -18.6800 0.0000 11.0000
v -18.6800 0.3000 11.0000
v -18.3200 0.0000 11.0000
v -18.3200 0.3000 11.0000
v -18.6800 0.0000 21.0000
v -18.6800 0.3000 21.0000
v -18.3200 0.0000 21.0000
v -18.3200 0.3000 21.0000
v -18.6800 0.0000 21.0000
v -18.6800 0.3000 21.0000
v 15.0000 0.0000 21.0000
v 15.0000 0.3000 21.0000
v -18.6800 0.0000 30.0000
v -18.6800 0.3000 30.0000
v 15.0000 0.0000 30.0000
v 15.0000 0.3000 30.0000
v -18.3200 0.0000 11.0000
v -18.3200 0.3000 11.0000
v -14.2800 0.0000 11.0000
v -14.2800 0.3000 11.0000
v -18.3200 0.0000 21.0000
v -18.3200 0.3000 21.0000
v -14.2800 0.0000 21.0000
v -14.2800 0.3000 21.0000
v -14.2800 0.0000 11.0000
v -14.2800 0.3000 11.0000
v -13.9200 0.0000 11.0000
v -13.9200 0.3000 11.0000
v -14.2800 0.0000 21.0000
v -14.2800 0.3000 21.0000
v -13.9200 0.0000 21.0000
v -13.9200 0.3000 21.0000
v -13.9200 0.0000 11.0000
v -13.9200 0.3000 11.0000
v -9.8800 0.0000 11.0000
v -9.8800 0.3000 11.0000
v -13.9200 0.0000 21.0000
v -13.9200 0.3000 21.0000
v -9.8800 0.0000 21.0000
v -9.8800 0.3000 21.0000
v -9.8800 0.0000 11.0000
v -9.8800 0.3000 11.0000
v -9.5200 0.0000 11.0000
v -9.5200 0.3000 11.0000
v -9.8800 0.0000 21.0000
v -9.8800 0.3000 21.0000
v -9.5200 0.0000 21.0000
v -9.5200 0.3000 21.0000
v -9.5200 0.0000 11.0000
v -9.5200 0.3000 11.0000
v -5.4800 0.0000 11.0000
v -5.4800 0.3000 11.0000
v -9.5200 0.0000 21.0000
v -9.5200 0.3000 21.0000
v -5.4800 0.0000 21.0000
v -5.4800 0.3000 21.0000
v -5.4800 0.0000 11.0000
v -5.4800 0.3000 11.0000
v -5.1200 0.0000 11.0000
v -5.1200 0.3000 11.0000
v -5.4800 0.0000 21.0000
v -5.4800 0.3000 21.0000
v -5.1200 0.0000 21.0000
v -5.1200 0.3000 21.0000
v -5.1200 0.0000 11.0000
v -5.1200 0.3000 11.0000
v 15.0000 0.0000 11.0000
v 15.0000 0.3000 11.0000
v -5.1200 0.0000 21.0000
v -5.1200 0.3000 21.0000
v 15.0000 0.0000 21.0000
v 15.0000 0.3000 21.0000
v -4.0000 0.0000 30.0000
v -4.0000 0.3000 30.0000
v 4.0000 0.0000 30.0000
v 4.0000 0.3000 30.0000
v -4.0000 0.0000 31.0000
v -4.0000 0.3000 31.0000
v 4.0000 0.0000 31.0000
v 4.0000 0.3000 31.0000
v -4.0000 0.0000 31.0000
v -4.0000 0.3000 31.0000
v 24.0000 0.0000 31.0000
v 24.0000 0.3000 31.0000
v -4.0000 0.0000 32.0000
v -4.0000 0.3000 32.0000
v 24.0000 0.0000 32.0000
v 24.0000 0.3000 32.0000
v 4.0000 0.0000 30.0000
v 4.0000 0.3000 30.0000
v 24.0000 0.0000 30.0000
v 24.0000 0.3000 30.0000
v 4.0000 0.0000 31.0000
v 4.0000 0.3000 31.0000
v 24.0000 0.0000 31.0000
v 24.0000 0.3000 31.0000
v 15.0000 0.0000 -14.0000
v 15.0000 0.3000 -14.0000
v 24.0000 0.0000 -14.0000
v 24.0000 0.3000 -14.0000
v 15.0000 0.0000 30.0000
v 15.0000 0.3000 30.0000
v 24.0000 0.0000 30.0000
v 24.0000 0.3000 30.0000
v 5.0000 0.3000 6.0000
v 5.0000 9.8000 6.0000
v 19.0000 0.3000 6.0000
v 19.0000 9.8000 6.0000
v 5.0000 0.3000 26.0000
v 5.0000 9.8000 26.0000
v 19.0000 0.3000 26.0000
v 19.0000 9.8000 26.0000
v 4.5000 9.8050 5.5000
v 4.5000 10.3550 5.5000
v 19.5000 9.8050 5.5000
v 19.5000 10.3550 5.5000
v 4.5000 9.8050 26.5000
v 4.5000 10.3550 26.5000
v 19.5000 9.8050 26.5000
v 19.5000 10.3550 26.5000
v 4.9000 2.8500 7.6000
v 4.9000 4.1500 7.6000
v 19.1000 2.8500 7.6000
v 19.1000 4.1500 7.6000
v 4.9000 2.8500 24.4000
v 4.9000 4.1500 24.4000
v 19.1000 2.8500 24.4000
v 19.1000 4.1500 24.4000
v 6.1200 2.8500 5.9000
v 6.1200 4.1500 5.9000
v 17.8800 2.8500 5.9000
v 17.8800 4.1500 5.9000
v 6.1200 2.8500 26.1000
v 6.1200 4.1500 26.1000
v 17.8800 2.8500 26.1000
v 17.8800 4.1500 26.1000
v 4.9000 6.4500 7.6000
v 4.9000 7.7500 7.6000
v 19.1000 6.4500 7.6000
v 19.1000 7.7500 7.6000
v 4.9000 6.4500 24.4000
v 4.9000 7.7500 24.4000
v 19.1000 6.4500 24.4000
v 19.1000 7.7500 24.4000
v 6.1200 6.4500 5.9000
v 6.1200 7.7500 5.9000
v 17.8800 6.4500 5.9000
v 17.8800 7.7500 5.9000
v 6.1200 6.4500 26.1000
v 6.1200 7.7500 26.1000
v 17.8800 6.4500 26.1000
v 17.8800 7.7500 26.1000
v 10.0000 3.7000 23.0000
v 10.0000 4.1000 23.0000
v 14.0000 3.7000 23.0000
v 14.0000 4.1000 23.0000
v 10.0000 3.7000 30.0000
v 10.0000 4.1000 30.0000
v 14.0000 3.7000 30.0000
v 14.0000 4.1000 30.0000
v 11.0000 0.3000 -26.0000
v 11.0000 6.3000 -26.0000
v 19.0000 0.3000 -26.0000
v 19.0000 6.3000 -26.0000
v 11.0000 0.3000 -2.0000
v 11.0000 6.3000 -2.0000
v 19.0000 0.3000 -2.0000
v 19.0000 6.3000 -2.0000
v 10.5000 6.3050 -26.5000
v 10.5000 6.8550 -26.5000
v 19.5000 6.3050 -26.5000
v 19.5000 6.8550 -26.5000
v 10.5000 6.3050 -1.5000
v 10.5000 6.8550 -1.5000
v 19.5000 6.3050 -1.5000
v 19.5000 6.8550 -1.5000
v 10.9000 1.8500 -24.0800
v 10.9000 3.1500 -24.0800
v 19.1000 1.8500 -24.0800
v 19.1000 3.1500 -24.0800
v 10.9000 1.8500 -3.9200
v 10.9000 3.1500 -3.9200
v 19.1000 1.8500 -3.9200
v 19.1000 3.1500 -3.9200
v 11.6400 1.8500 -26.1000
v 11.6400 3.1500 -26.1000
v 18.3600 1.8500 -26.1000
v 18.3600 3.1500 -26.1000
v 11.6400 1.8500 -1.9000
v 11.6400 3.1500 -1.9000
v 18.3600 1.8500 -1.9000
v 18.3600 3.1500 -1.9000
v 10.9000 4.0500 -24.0800
v 10.9000 5.3500 -24.0800
v 19.1000 4.0500 -24.0800
v 19.1000 5.3500 -24.0800
v 10.9000 4.0500 -3.9200
v 10.9000 5.3500 -3.9200
v 19.1000 4.0500 -3.9200
v 19.1000 5.3500 -3.9200
v 11.6400 4.0500 -26.1000
v 11.6400 5.3500 -26.1000
v 18.3600 4.0500 -26.1000
v 18.3600 5.3500 -26.1000
v 11.6400 4.0500 -1.9000
v 11.6400 5.3500 -1.9000
v 18.3600 4.0500 -1.9000
v 18.3600 5.3500 -1.9000
v -19.0000 0.3000 -26.0000
v -19.0000 6.3000 -26.0000
v -11.0000 0.3000 -26.0000
v -11.0000 6.3000 -26.0000
v -19.0000 0.3000 -2.0000
v -19.0000 6.3000 -2.0000
v -11.0000 0.3000 -2.0000
v -11.0000 6.3000 -2.0000
v -19.5000 6.3050 -26.5000
v -19.5000 6.8550 -26.5000
v -10.5000 6.3050 -26.5000
v -10.5000 6.8550 -26.5000
v -19.5000 6.3050 -1.5000
v -19.5000 6.8550 -1.5000
v -10.5000 6.3050 -1.5000
v -10.5000 6.8550 -1.5000
v -19.1000 1.8500 -24.0800
v -19.1000 3.1500 -24.0800
v -10.9000 1.8500 -24.0800
v -10.9000 3.1500 -24.0800
v -19.1000 1.8500 -3.9200
v -19.1000 3.1500 -3.9200
v -10.9000 1.8500 -3.9200
v -10.9000 3.1500 -3.9200
v -18.3600 1.8500 -26.1000
v -18.3600 3.1500 -26.1000
v -11.6400 1.8500 -26.1000
v -11.6400 3.1500 -26.1000
v -18.3600 1.8500 -1.9000
v -18.3600 3.1500 -1.9000
v -11.6400 1.8500 -1.9000
v -11.6400 3.1500 -1.9000
v -19.1000 4.0500 -24.0800
v -19.1000 5.3500 -24.0800
v -10.9000 4.0500 -24.0800
v -10.9000 5.3500 -24.0800
v -19.1000 4.0500 -3.9200
v -19.1000 5.3500 -3.9200
v -10.9000 4.0500 -3.9200
v -10.9000 5.3500 -3.9200
v -18.3600 4.0500 -26.1000
v -18.3600 5.3500 -26.1000
v -11.6400 4.0500 -26.1000
v -11.6400 5.3500 -26.1000
v -18.3600 4.0500 -1.9000
v -18.3600 5.3500 -1.9000
v -11.6400 4.0500 -1.9000
v -11.6400 5.3500 -1.9000
v -5.0000 0.3000 -15.0000
v -5.0000 7.3000 -15.0000
v 5.0000 0.3000 -15.0000
v 5.0000 7.3000 -15.0000
v -5.0000 0.3000 -1.0000
v -5.0000 7.3000 -1.0000
v 5.0000 0.3000 -1.0000
v 5.0000 7.3000 -1.0000
v -5.5000 7.3050 -15.5000
v -5.5000 7.8550 -15.5000
v 5.5000 7.3050 -15.5000
v 5.5000 7.8550 -15.5000
v -5.5000 7.3050 -0.5000
v -5.5000 7.8550 -0.5000
v 5.5000 7.3050 -0.5000
v 5.5000 7.8550 -0.5000
v -5.1000 3.0500 -13.8800
v -5.1000 4.3500 -13.8800
v 5.1000 3.0500 -13.8800
v 5.1000 4.3500 -13.8800
v -5.1000 3.0500 -2.1200
v -5.1000 4.3500 -2.1200
v 5.1000 3.0500 -2.1200
v 5.1000 4.3500 -2.1200
v -4.2000 3.0500 -15.1000
v -4.2000 4.3500 -15.1000
v 4.2000 3.0500 -15.1000
v 4.2000 4.3500 -15.1000
v -4.2000 3.0500 -0.9000
v -4.2000 4.3500 -0.9000
v 4.2000 3.0500 -0.9000
v 4.2000 4.3500 -0.9000
v -23.0000 0.3000 -9.0000
v -23.0000 3.9000 -9.0000
v -17.0000 0.3000 -9.0000
v -17.0000 3.9000 -9.0000
v -23.0000 0.3000 1.0000
v -23.0000 3.9000 1.0000
v -17.0000 0.3000 1.0000
v -17.0000 3.9000 1.0000
v -23.5000 3.9000 -9.5000
v -23.5000 4.5000 -9.5000
v -16.5000 3.9000 -9.5000
v -16.5000 4.5000 -9.5000
v -23.5000 3.9000 1.5000
v -23.5000 4.5000 1.5000
v -16.5000 3.9000 1.5000
v -16.5000 4.5000 1.5000
v -19.3000 0.3000 6.2000
v -19.3000 6.5000 6.2000
v -18.7000 0.3000 6.2000
v -18.7000 6.5000 6.2000
v -19.3000 0.3000 6.8000
v -19.3000 6.5000 6.8000
v -18.7000 0.3000 6.8000
v -18.7000 6.5000 6.8000
v -5.3000 0.3000 6.2000
v -5.3000 6.5000 6.2000
v -4.7000 0.3000 6.2000
v -4.7000 6.5000 6.2000
v -5.3000 0.3000 6.8000
v -5.3000 6.5000 6.8000
v -4.7000 0.3000 6.8000
v -4.7000 6.5000 6.8000
v -19.3000 0.3000 25.2000
v -19.3000 6.5000 25.2000
v -18.7000 0.3000 25.2000
v -18.7000 6.5000 25.2000
v -19.3000 0.3000 25.8000
v -19.3000 6.5000 25.8000
v -18.7000 0.3000 25.8000
v -18.7000 6.5000 25.8000
v -5.3000 0.3000 25.2000
v -5.3000 6.5000 25.2000
v -4.7000 0.3000 25.2000
v -4.7000 6.5000 25.2000
v -5.3000 0.3000 25.8000
v -5.3000 6.5000 25.8000
v -4.7000 0.3000 25.8000
v -4.7000 6.5000 25.8000
v -20.5000 6.5000 4.5000
v -20.5000 7.1000 4.5000
v -3.5000 6.5000 4.5000
v -3.5000 7.1000 4.5000
v -20.5000 6.5000 27.5000
v -20.5000 7.1000 27.5000
v -3.5000 6.5000 27.5000
v -3.5000 7.1000 27.5000
v -20.5500 5.7500 4.5000
v -20.5500 6.8500 4.5000
v -20.0500 5.7500 4.5000
v -20.0500 6.8500 4.5000
v -20.5500 5.7500 27.5000
v -20.5500 6.8500 27.5000
v -20.0500 5.7500 27.5000
v -20.0500 6.8500 27.5000
v 2.8700 0.3000 -29.3800
v 2.8700 1.8000 -29.3800
v 9.1000 0.3000 -26.0000
v 9.1000 6.3000 -26.0000
v 8.7517 0.3000 -24.7000
v 8.7517 6.3000 -24.7000
v 7.8000 0.3000 -23.7483
v 7.8000 6.3000 -23.7483
v 6.5000 0.3000 -23.4000
v 6.5000 6.3000 -23.4000
v 5.2000 0.3000 -23.7483
v 5.2000 6.3000 -23.7483
v 4.2483 0.3000 -24.7000
v 4.2483 6.3000 -24.7000
v 3.9000 0.3000 -26.0000
v 3.9000 6.3000 -26.0000
v 4.2483 0.3000 -27.3000
v 4.2483 6.3000 -27.3000
v 5.2000 0.3000 -28.2517
v 5.2000 6.3000 -28.2517
v 6.5000 0.3000 -28.6000
v 6.5000 6.3000 -28.6000
v 7.8000 0.3000 -28.2517
v 7.8000 6.3000 -28.2517
v 8.7517 0.3000 -27.3000
v 8.7517 6.3000 -27.3000
v 9.1780 6.0500 -26.0000
v 9.1780 6.5500 -26.0000
v 8.8192 6.0500 -24.6610
v 8.8192 6.5500 -24.6610
v 7.8390 6.0500 -23.6808
v 7.8390 6.5500 -23.6808
v 6.5000 6.0500 -23.3220
v 6.5000 6.5500 -23.3220
v 5.1610 6.0500 -23.6808
v 5.1610 6.5500 -23.6808
v 4.1808 6.0500 -24.6610
v 4.1808 6.5500 -24.6610
v 3.8220 6.0500 -26.0000
v 3.8220 6.5500 -26.0000
v 4.1808 6.0500 -27.3390
v 4.1808 6.5500 -27.3390
v 5.1610 6.0500 -28.3192
v 5.1610 6.5500 -28.3192
v 6.5000 6.0500 -28.6780
v 6.5000 6.5500 -28.6780
v 7.8390 6.0500 -28.3192
v 7.8390 6.5500 -28.3192
v 8.8192 6.0500 -27.3390
v 8.8192 6.5500 -27.3390
v 7.2800 6.4500 -26.0000
v 7.2800 7.1500 -26.0000
v 7.0515 6.4500 -25.4485
v 7.0515 7.1500 -25.4485
v 6.5000 6.4500 -25.2200
v 6.5000 7.1500 -25.2200
v 5.9485 6.4500 -25.4485
v 5.9485 7.1500 -25.4485
v 5.7200 6.4500 -26.0000
v 5.7200 7.1500 -26.0000
v 5.9485 6.4500 -26.5515
v 5.9485 7.1500 -26.5515
v 6.5000 6.4500 -26.7800
v 6.5000 7.1500 -26.7800
v 7.0515 6.4500 -26.5515
v 7.0515 7.1500 -26.5515
v 3.3700 0.3000 -29.3800
v 3.3700 1.8000 -29.3800
v 2.8700 0.3000 -22.6200
v 2.8700 1.8000 -22.6200
v 3.3700 0.3000 -22.6200
v 3.3700 1.8000 -22.6200
v 9.6300 0.3000 -29.3800
v 9.6300 1.8000 -29.3800
v 10.1300 0.3000 -29.3800
v 10.1300 1.8000 -29.3800
v 9.6300 0.3000 -22.6200
v 9.6300 1.8000 -22.6200
v 10.1300 0.3000 -22.6200
v 10.1300 1.8000 -22.6200
v 3.1200 0.3000 -29.6300
v 3.1200 1.8000 -29.6300
v 9.8800 0.3000 -29.6300
v 9.8800 1.8000 -29.6300
v 3.1200 0.3000 -29.1300
v 3.1200 1.8000 -29.1300
v 9.8800 0.3000 -29.1300
v 9.8800 1.8000 -29.1300
v 3.1200 0.3000 -22.8700
v 3.1200 1.8000 -22.8700
v 9.8800 0.3000 -22.8700
v 9.8800 1.8000 -22.8700
v 3.1200 0.3000 -22.3700
v 3.1200 1.8000 -22.3700
v 9.8800 0.3000 -22.3700
v 9.8800 1.8000 -22.3700
v -10.1300 0.3000 -29.3800
v -10.1300 1.8000 -29.3800
v -3.9000 0.3000 -26.0000
v -3.9000 6.3000 -26.0000
v -4.2483 0.3000 -24.7000
v -4.2483 6.3000 -24.7000
v -5.2000 0.3000 -23.7483
v -5.2000 6.3000 -23.7483
v -6.5000 0.3000 -23.4000
v -6.5000 6.3000 -23.4000
v -7.8000 0.3000 -23.7483
v -7.8000 6.3000 -23.7483
v -8.7517 0.3000 -24.7000
v -8.7517 6.3000 -24.7000
v -9.1000 0.3000 -26.0000
v -9.1000 6.3000 -26.0000
v -8.7517 0.3000 -27.3000
v -8.7517 6.3000 -27.3000
v -7.8000 0.3000 -28.2517
v -7.8000 6.3000 -28.2517
v -6.5000 0.3000 -28.6000
v -6.5000 6.3000 -28.6000
v -5.2000 0.3000 -28.2517
v -5.2000 6.3000 -28.2517
v -4.2483 0.3000 -27.3000
v -4.2483 6.3000 -27.3000
v -3.8220 6.0500 -26.0000
v -3.8220 6.5500 -26.0000
v -4.1808 6.0500 -24.6610
v -4.1808 6.5500 -24.6610
v -5.1610 6.0500 -23.6808
v -5.1610 6.5500 -23.6808
v -6.5000 6.0500 -23.3220
v -6.5000 6.5500 -23.3220
v -7.8390 6.0500 -23.6808
v -7.8390 6.5500 -23.6808
v -8.8192 6.0500 -24.6610
v -8.8192 6.5500 -24.6610
v -9.1780 6.0500 -26.0000
v -9.1780 6.5500 -26.0000
v -8.8192 6.0500 -27.3390
v -8.8192 6.5500 -27.3390
v -7.8390 6.0500 -28.3192
v -7.8390 6.5500 -28.3192
v -6.5000 6.0500 -28.6780
v -6.5000 6.5500 -28.6780
v -5.1610 6.0500 -28.3192
v -5.1610 6.5500 -28.3192
v -4.1808 6.0500 -27.3390
v -4.1808 6.5500 -27.3390
v -5.7200 6.4500 -26.0000
v -5.7200 7.1500 -26.0000
v -5.9485 6.4500 -25.4485
v -5.9485 7.1500 -25.4485
v -6.5000 6.4500 -25.2200
v -6.5000 7.1500 -25.2200
v -7.0515 6.4500 -25.4485
v -7.0515 7.1500 -25.4485
v -7.2800 6.4500 -26.0000
v -7.2800 7.1500 -26.0000
v -7.0515 6.4500 -26.5515
v -7.0515 7.1500 -26.5515
v -6.5000 6.4500 -26.7800
v -6.5000 7.1500 -26.7800
v -5.9485 6.4500 -26.5515
v -5.9485 7.1500 -26.5515
v -9.6300 0.3000 -29.3800
v -9.6300 1.8000 -29.3800
v -10.1300 0.3000 -22.6200
v -10.1300 1.8000 -22.6200
v -9.6300 0.3000 -22.6200
v -9.6300 1.8000 -22.6200
v -3.3700 0.3000 -29.3800
v -3.3700 1.8000 -29.3800
v -2.8700 0.3000 -29.3800
v -2.8700 1.8000 -29.3800
v -3.3700 0.3000 -22.6200
v -3.3700 1.8000 -22.6200
v -2.8700 0.3000 -22.6200
v -2.8700 1.8000 -22.6200
v -9.8800 0.3000 -29.6300
v -9.8800 1.8000 -29.6300
v -3.1200 0.3000 -29.6300
v -3.1200 1.8000 -29.6300
v -9.8800 0.3000 -29.1300
v -9.8800 1.8000 -29.1300
v -3.1200 0.3000 -29.1300
v -3.1200 1.8000 -29.1300
v -9.8800 0.3000 -22.8700
v -9.8800 1.8000 -22.8700
v -3.1200 0.3000 -22.8700
v -3.1200 1.8000 -22.8700
v -9.8800 0.3000 -22.3700
v -9.8800 1.8000 -22.3700
v -3.1200 0.3000 -22.3700
v -3.1200 1.8000 -22.3700
v -0.9200 0.3000 -30.9200
v -0.9200 17.3000 -30.9200
v -0.6800 0.3000 -30.9200
v -0.6800 17.3000 -30.9200
v -0.9200 0.3000 -30.6800
v -0.9200 17.3000 -30.6800
v -0.6800 0.3000 -30.6800
v -0.6800 17.3000 -30.6800
v 0.6800 0.3000 -30.9200
v 0.6800 17.3000 -30.9200
v 0.9200 0.3000 -30.9200
v 0.9200 17.3000 -30.9200
v 0.6800 0.3000 -30.6800
v 0.6800 17.3000 -30.6800
v 0.9200 0.3000 -30.6800
v 0.9200 17.3000 -30.6800
v -0.9200 0.3000 -29.3200
v -0.9200 17.3000 -29.3200
v -0.6800 0.3000 -29.3200
v -0.6800 17.3000 -29.3200
v -0.9200 0.3000 -29.0800
v -0.9200 17.3000 -29.0800
v -0.6800 0.3000 -29.0800
v -0.6800 17.3000 -29.0800
v 0.6800 0.3000 -29.3200
v 0.6800 17.3000 -29.3200
v 0.9200 0.3000 -29.3200
v 0.9200 17.3000 -29.3200
v 0.6800 0.3000 -29.0800
v 0.6800 17.3000 -29.0800
v 0.9200 0.3000 -29.0800
v 0.9200 17.3000 -29.0800
v -0.8800 2.2100 -30.8800
v -0.8800 2.3900 -30.8800
v 0.8800 2.2100 -30.8800
v 0.8800 2.3900 -30.8800
v -0.8800 2.2100 -29.1200
v -0.8800 2.3900 -29.1200
v 0.8800 2.2100 -29.1200
v 0.8800 2.3900 -29.1200
v -0.8800 5.2100 -30.8800
v -0.8800 5.3900 -30.8800
v 0.8800 5.2100 -30.8800
v 0.8800 5.3900 -30.8800
v -0.8800 5.2100 -29.1200
v -0.8800 5.3900 -29.1200
v 0.8800 5.2100 -29.1200
v 0.8800 5.3900 -29.1200
v -0.8800 8.2100 -30.8800
v -0.8800 8.3900 -30.8800
v 0.8800 8.2100 -30.8800
v 0.8800 8.3900 -30.8800
v -0.8800 8.2100 -29.1200
v -0.8800 8.3900 -29.1200
v 0.8800 8.2100 -29.1200
v 0.8800 8.3900 -29.1200
v -0.8800 11.2100 -30.8800
v -0.8800 11.3900 -30.8800
v 0.8800 11.2100 -30.8800
v 0.8800 11.3900 -30.8800
v -0.8800 11.2100 -29.1200
v -0.8800 11.3900 -29.1200
v 0.8800 11.2100 -29.1200
v 0.8800 11.3900 -29.1200
v -0.8800 14.2100 -30.8800
v -0.8800 14.3900 -30.8800
v 0.8800 14.2100 -30.8800
v 0.8800 14.3900 -30.8800
v -0.8800 14.2100 -29.1200
v -0.8800 14.3900 -29.1200
v 0.8800 14.2100 -29.1200
v 0.8800 14.3900 -29.1200
v 1.0000 11.8500 1.9600
v 1.0000 10.3500 1.9600
v 1.9000 0.3000 2.0000
v 1.9000 0.8000 2.0000
v 1.6364 0.3000 2.6364
v 1.6364 0.8000 2.6364
v 1.0000 0.3000 2.9000
v 1.0000 0.8000 2.9000
v 0.3636 0.3000 2.6364
v 0.3636 0.8000 2.6364
v 0.1000 0.3000 2.0000
v 0.1000 0.8000 2.0000
v 0.3636 0.3000 1.3636
v 0.3636 0.8000 1.3636
v 1.0000 0.3000 1.1000
v 1.0000 0.8000 1.1000
v 1.6364 0.3000 1.3636
v 1.6364 0.8000 1.3636
v 1.1400 0.3000 2.0000
v 1.1400 12.3000 2.0000
v 1.0700 0.3000 2.1212
v 1.0700 12.3000 2.1212
v 0.9300 0.3000 2.1212
v 0.9300 12.3000 2.1212
v 0.8600 0.3000 2.0000
v 0.8600 12.3000 2.0000
v 0.9300 0.3000 1.8788
v 0.9300 12.3000 1.8788
v 1.0700 0.3000 1.8788
v 1.0700 12.3000 1.8788
v 3.6000 10.3500 1.9600
v 3.6000 11.8500 1.9600
v 1.0000 10.3500 2.0400
v 1.0000 11.8500 2.0400
v 3.6000 10.3500 2.0400
v 3.6000 11.8500 2.0400
v 22.4000 0.3000 -32.0000
v 22.4000 2.3000 -32.0000
v 24.0000 0.3000 -32.0000
v 24.0000 2.3000 -32.0000
v 22.4000 0.3000 32.0000
v 22.4000 2.3000 32.0000
v 24.0000 0.3000 32.0000
v 24.0000 2.3000 32.0000
v 5.8000 0.3000 30.4000
v 5.8000 2.3000 30.4000
v 23.2000 0.3000 30.4000
v 23.2000 2.3000 30.4000
v 5.8000 0.3000 32.0000
v 5.8000 2.3000 32.0000
v 23.2000 0.3000 32.0000
v 23.2000 2.3000 32.0000
v -24.0000 0.3000 -32.0000
v -24.0000 2.3000 -32.0000
v -22.4000 0.3000 -32.0000
v -22.4000 2.3000 -32.0000
v -24.0000 0.3000 32.0000
v -24.0000 2.3000 32.0000
v -22.4000 0.3000 32.0000
v -22.4000 2.3000 32.0000
v -23.2000 0.3000 30.4000
v -23.2000 2.3000 30.4000
v -5.8000 0.3000 30.4000
v -5.8000 2.3000 30.4000
v -23.2000 0.3000 32.0000
v -23.2000 2.3000 32.0000
v -5.8000 0.3000 32.0000
v -5.8000 2.3000 32.0000
v -23.2000 0.3000 -32.0000
v -23.2000 2.3000 -32.0000
v 23.2000 0.3000 -32.0000
v 23.2000 2.3000 -32.0000
v -23.2000 0.3000 -30.4000
v -23.2000 2.3000 -30.4000
v 23.2000 0.3000 -30.4000
v 23.2000 2.3000 -30.4000
v 4.4000 0.3000 30.6000
v 4.4000 4.7000 30.6000
v 5.6000 0.3000 30.6000
v 5.6000 4.7000 30.6000
v 4.4000 0.3000 31.8000
v 4.4000 4.7000 31.8000
v 5.6000 0.3000 31.8000
v 5.6000 4.7000 31.8000
v -5.6000 0.3000 30.6000
v -5.6000 4.7000 30.6000
v -4.4000 0.3000 30.6000
v -4.4000 4.7000 30.6000
v -5.6000 0.3000 31.8000
v -5.6000 4.7000 31.8000
v -4.4000 0.3000 31.8000
v -4.4000 4.7000 31.8000
v -5.5000 4.4500 30.6000
v -5.5000 5.3500 30.6000
v 5.5000 4.4500 30.6000
v 5.5000 5.3500 30.6000
v -5.5000 4.4500 31.8000
v -5.5000 5.3500 31.8000
v 5.5000 4.4500 31.8000
v 5.5000 5.3500 31.8000
v -2.0000 1.6500 30.3250
v -2.0000 1.9500 30.3250
v 6.0000 1.6500 30.3250
v 6.0000 1.9500 30.3250
v -2.0000 1.6500 30.6750
v -2.0000 1.9500 30.6750
v 6.0000 1.6500 30.6750
v 6.0000 1.9500 30.6750
v 6.8000 0.3000 26.8000
v 6.8000 3.5000 26.8000
v 10.2000 0.3000 26.8000
v 10.2000 3.5000 26.8000
v 6.8000 0.3000 30.2000
v 6.8000 3.5000 30.2000
v 10.2000 0.3000 30.2000
v 10.2000 3.5000 30.2000
v 6.3000 3.5050 26.3000
v 6.3000 4.0550 26.3000
v 10.7000 3.5050 26.3000
v 10.7000 4.0550 26.3000
v 6.3000 3.5050 30.7000
v 6.3000 4.0550 30.7000
v 10.7000 3.5050 30.7000
v 10.7000 4.0550 30.7000
v 6.7000 1.6500 27.0720
v 6.7000 2.9500 27.0720
v 10.3000 1.6500 27.0720
v 10.3000 2.9500 27.0720
v 6.7000 1.6500 29.9280
v 6.7000 2.9500 29.9280
v 10.3000 1.6500 29.9280
v 10.3000 2.9500 29.9280
v 7.0720 1.6500 26.7000
v 7.0720 2.9500 26.7000
v 9.9280 1.6500 26.7000
v 9.9280 2.9500 26.7000
v 7.0720 1.6500 30.3000
v 7.0720 2.9500 30.3000
v 9.9280 1.6500 30.3000
v 9.9280 2.9500 30.3000
v 19.4800 0.3000 27.4800
v 19.4800 7.3000 27.4800
v 19.8200 0.3000 27.4800
v 19.8200 7.3000 27.4800
v 19.4800 0.3000 27.8200
v 19.4800 7.3000 27.8200
v 19.8200 0.3000 27.8200
v 19.8200 7.3000 27.8200
v 22.1800 0.3000 27.4800
v 22.1800 7.3000 27.4800
v 22.5200 0.3000 27.4800
v 22.5200 7.3000 27.4800
v 22.1800 0.3000 27.8200
v 22.1800 7.3000 27.8200
v 22.5200 0.3000 27.8200
v 22.5200 7.3000 27.8200
v 19.4800 0.3000 30.1800
v 19.4800 7.3000 30.1800
v 19.8200 0.3000 30.1800
v 19.8200 7.3000 30.1800
v 19.4800 0.3000 30.5200
v 19.4800 7.3000 30.5200
v 19.8200 0.3000 30.5200
v 19.8200 7.3000 30.5200
v 22.1800 0.3000 30.1800
v 22.1800 7.3000 30.1800
v 22.5200 0.3000 30.1800
v 22.5200 7.3000 30.1800
v 22.1800 0.3000 30.5200
v 22.1800 7.3000 30.5200
v 22.5200 0.3000 30.5200
v 22.5200 7.3000 30.5200
v 18.9000 7.1600 26.9000
v 18.9000 7.4400 26.9000
v 23.1000 7.1600 26.9000
v 23.1000 7.4400 26.9000
v 18.9000 7.1600 31.1000
v 18.9000 7.4400 31.1000
v 23.1000 7.1600 31.1000
v 23.1000 7.4400 31.1000
v 19.3000 7.4500 27.3000
v 19.3000 9.6500 27.3000
v 22.7000 7.4500 27.3000
v 22.7000 9.6500 27.3000
v 19.3000 7.4500 30.7000
v 19.3000 9.6500 30.7000
v 22.7000 7.4500 30.7000
v 22.7000 9.6500 30.7000
v 19.2000 8.5500 27.2000
v 19.2000 9.5500 27.2000
v 22.8000 8.5500 27.2000
v 22.8000 9.5500 27.2000
v 19.2000 8.5500 30.8000
v 19.2000 9.5500 30.8000
v 22.8000 8.5500 30.8000
v 22.8000 9.5500 30.8000
v 18.7000 9.6500 26.7000
v 18.7000 9.9500 26.7000
v 23.3000 9.6500 26.7000
v 23.3000 9.9500 26.7000
v 18.7000 9.6500 31.3000
v 18.7000 9.9500 31.3000
v 23.3000 9.6500 31.3000
v 23.3000 9.9500 31.3000
v -22.5200 0.3000 27.4800
v -22.5200 7.3000 27.4800
v -22.1800 0.3000 27.4800
v -22.1800 7.3000 27.4800
v -22.5200 0.3000 27.8200
v -22.5200 7.3000 27.8200
v -22.1800 0.3000 27.8200
v -22.1800 7.3000 27.8200
v -19.8200 0.3000 27.4800
v -19.8200 7.3000 27.4800
v -19.4800 0.3000 27.4800
v -19.4800 7.3000 27.4800
v -19.8200 0.3000 27.8200
v -19.8200 7.3000 27.8200
v -19.4800 0.3000 27.8200
v -19.4800 7.3000 27.8200
v -22.5200 0.3000 30.1800
v -22.5200 7.3000 30.1800
v -22.1800 0.3000 30.1800
v -22.1800 7.3000 30.1800
v -22.5200 0.3000 30.5200
v -22.5200 7.3000 30.5200
v -22.1800 0.3000 30.5200
v -22.1800 7.3000 30.5200
v -19.8200 0.3000 30.1800
v -19.8200 7.3000 30.1800
v -19.4800 0.3000 30.1800
v -19.4800 7.3000 30.1800
v -19.8200 0.3000 30.5200
v -19.8200 7.3000 30.5200
v -19.4800 0.3000 30.5200
v -19.4800 7.3000 30.5200
v -23.1000 7.1600 26.9000
v -23.1000 7.4400 26.9000
v -18.9000 7.1600 26.9000
v -18.9000 7.4400 26.9000
v -23.1000 7.1600 31.1000
v -23.1000 7.4400 31.1000
v -18.9000 7.1600 31.1000
v -18.9000 7.4400 31.1000
v -22.7000 7.4500 27.3000
v -22.7000 9.6500 27.3000
v -19.3000 7.4500 27.3000
v -19.3000 9.6500 27.3000
v -22.7000 7.4500 30.7000
v -22.7000 9.6500 30.7000
v -19.3000 7.4500 30.7000
v -19.3000 9.6500 30.7000
v -22.8000 8.5500 27.2000
v -22.8000 9.5500 27.2000
v -19.2000 8.5500 27.2000
v -19.2000 9.5500 27.2000
v -22.8000 8.5500 30.8000
v -22.8000 9.5500 30.8000
v -19.2000 8.5500 30.8000
v -19.2000 9.5500 30.8000
v -23.3000 9.6500 26.7000
v -23.3000 9.9500 26.7000
v -18.7000 9.6500 26.7000
v -18.7000 9.9500 26.7000
v -23.3000 9.6500 31.3000
v -23.3000 9.9500 31.3000
v -18.7000 9.6500 31.3000
v -18.7000 9.9500 31.3000
v 19.4800 0.3000 -30.5200
v 19.4800 7.3000 -30.5200
v 19.8200 0.3000 -30.5200
v 19.8200 7.3000 -30.5200
v 19.4800 0.3000 -30.1800
v 19.4800 7.3000 -30.1800
v 19.8200 0.3000 -30.1800
v 19.8200 7.3000 -30.1800
v 22.1800 0.3000 -30.5200
v 22.1800 7.3000 -30.5200
v 22.5200 0.3000 -30.5200
v 22.5200 7.3000 -30.5200
v 22.1800 0.3000 -30.1800
v 22.1800 7.3000 -30.1800
v 22.5200 0.3000 -30.1800
v 22.5200 7.3000 -30.1800
v 19.4800 0.3000 -27.8200
v 19.4800 7.3000 -27.8200
v 19.8200 0.3000 -27.8200
v 19.8200 7.3000 -27.8200
v 19.4800 0.3000 -27.4800
v 19.4800 7.3000 -27.4800
v 19.8200 0.3000 -27.4800
v 19.8200 7.3000 -27.4800
v 22.1800 0.3000 -27.8200
v 22.1800 7.3000 -27.8200
v 22.5200 0.3000 -27.8200
v 22.5200 7.3000 -27.8200
v 22.1800 0.3000 -27.4800
v 22.1800 7.3000 -27.4800
v 22.5200 0.3000 -27.4800
v 22.5200 7.3000 -27.4800
v 18.9000 7.1600 -31.1000
v 18.9000 7.4400 -31.1000
v 23.1000 7.1600 -31.1000
v 23.1000 7.4400 -31.1000
v 18.9000 7.1600 -26.9000
v 18.9000 7.4400 -26.9000
v 23.1000 7.1600 -26.9000
v 23.1000 7.4400 -26.9000
v 19.3000 7.4500 -30.7000
v 19.3000 9.6500 -30.7000
v 22.7000 7.4500 -30.7000
v 22.7000 9.6500 -30.7000
v 19.3000 7.4500 -27.3000
v 19.3000 9.6500 -27.3000
v 22.7000 7.4500 -27.3000
v 22.7000 9.6500 -27.3000
v 19.2000 8.5500 -30.8000
v 19.2000 9.5500 -30.8000
v 22.8000 8.5500 -30.8000
v 22.8000 9.5500 -30.8000
v 19.2000 8.5500 -27.2000
v 19.2000 9.5500 -27.2000
v 22.8000 8.5500 -27.2000
v 22.8000 9.5500 -27.2000
v 18.7000 9.6500 -31.3000
v 18.7000 9.9500 -31.3000
v 23.3000 9.6500 -31.3000
v 23.3000 9.9500 -31.3000
v 18.7000 9.6500 -26.7000
v 18.7000 9.9500 -26.7000
v 23.3000 9.6500 -26.7000
v 23.3000 9.9500 -26.7000
v -22.5200 0.3000 -30.5200
v -22.5200 7.3000 -30.5200
v -22.1800 0.3000 -30.5200
v -22.1800 7.3000 -30.5200
v -22.5200 0.3000 -30.1800
v -22.5200 7.3000 -30.1800
v -22.1800 0.3000 -30.1800
v -22.1800 7.3000 -30.1800
v -19.8200 0.3000 -30.5200
v -19.8200 7.3000 -30.5200
v -19.4800 0.3000 -30.5200
v -19.4800 7.3000 -30.5200
v -19.8200 0.3000 -30.1800
v -19.8200 7.3000 -30.1800
v -19.4800 0.3000 -30.1800
v -19.4800 7.3000 -30.1800
v -22.5200 0.3000 -27.8200
v -22.5200 7.3000 -27.8200
v -22.1800 0.3000 -27.8200
v -22.1800 7.3000 -27.8200
v -22.5200 0.3000 -27.4800
v -22.5200 7.3000 -27.4800
v -22.1800 0.3000 -27.4800
v -22.1800 7.3000 -27.4800
v -19.8200 0.3000 -27.8200
v -19.8200 7.3000 -27.8200
v -19.4800 0.3000 -27.8200
v -19.4800 7.3000 -27.8200
v -19.8200 0.3000 -27.4800
v -19.8200 7.3000 -27.4800
v -19.4800 0.3000 -27.4800
v -19.4800 7.3000 -27.4800
v -23.1000 7.1600 -31.1000
v -23.1000 7.4400 -31.1000
v -18.9000 7.1600 -31.1000
v -18.9000 7.4400 -31.1000
v -23.1000 7.1600 -26.9000
v -23.1000 7.4400 -26.9000
v -18.9000 7.1600 -26.9000
v -18.9000 7.4400 -26.9000
v -22.7000 7.4500 -30.7000
v -22.7000 9.6500 -30.7000
v -19.3000 7.4500 -30.7000
v -19.3000 9.6500 -30.7000
v -22.7000 7.4500 -27.3000
v -22.7000 9.6500 -27.3000
v -19.3000 7.4500 -27.3000
v -19.3000 9.6500 -27.3000
v -22.8000 8.5500 -30.8000
v -22.8000 9.5500 -30.8000
v -19.2000 8.5500 -30.8000
v -19.2000 9.5500 -30.8000
v -22.8000 8.5500 -27.2000
v -22.8000 9.5500 -27.2000
v -19.2000 8.5500 -27.2000
v -19.2000 9.5500 -27.2000
v -23.3000 9.6500 -31.3000
v -23.3000 9.9500 -31.3000
v -18.7000 9.6500 -31.3000
v -18.7000 9.9500 -31.3000
v -23.3000 9.6500 -26.7000
v -23.3000 9.9500 -26.7000
v -18.7000 9.6500 -26.7000
v -18.7000 9.9500 -26.7000
usemtl Mat0
f 2 3 1
f 4 7 3
f 8 5 7
f 6 1 5
f 7 1 3
f 4 6 8
f 10 11 9
f 12 15 11
f 16 13 15
f 14 9 13
f 15 9 11
f 12 14 16
f 26 27 25
f 28 31 27
f 32 29 31
f 30 25 29
f 31 25 27
f 28 30 32
f 122 123 121
f 124 127 123
f 128 125 127
f 126 121 125
f 127 121 123
f 124 126 128
f 130 131 129
f 132 135 131
f 136 133 135
f 134 129 133
f 135 129 131
f 132 134 136
f 138 139 137
f 140 143 139
f 144 141 143
f 142 137 141
f 143 137 139
f 140 142 144
f 146 147 145
f 148 151 147
f 152 149 151
f 150 145 149
f 151 145 147
f 148 150 152
f 202 203 201
f 204 207 203
f 208 205 207
f 206 201 205
f 207 201 203
f 204 206 208
f 250 251 249
f 252 255 251
f 256 253 255
f 254 249 253
f 255 249 251
f 252 254 256
f 468 470 472
f 468 471 467
f 394 459 393
f 474 475 473
f 460 463 459
f 472 469 471
f 462 393 461
f 480 477 479
f 463 393 459
f 471 465 467
f 460 462 464
f 470 465 469
f 464 461 463
f 476 479 475
f 466 467 465
f 478 473 477
f 479 473 475
f 476 478 480
f 482 483 481
f 484 487 483
f 488 485 487
f 486 481 485
f 487 481 483
f 484 486 488
f 564 566 568
f 564 567 563
f 490 555 489
f 570 571 569
f 556 559 555
f 568 565 567
f 558 489 557
f 576 573 575
f 559 489 555
f 567 561 563
f 556 558 560
f 566 561 565
f 560 557 559
f 572 575 571
f 562 563 561
f 574 569 573
f 575 569 571
f 572 574 576
f 578 579 577
f 580 583 579
f 584 581 583
f 582 577 581
f 583 577 579
f 580 582 584
f 660 661 659
f 662 663 661
f 664 665 663
f 666 667 665
f 668 669 667
f 670 671 669
f 666 664 672
f 672 673 671
f 674 659 673
f 665 669 673
f 734 735 733
f 736 739 735
f 740 737 739
f 738 733 737
f 739 733 735
f 736 738 740
f 742 743 741
f 744 747 743
f 748 745 747
f 746 741 745
f 747 741 743
f 744 746 748
f 750 751 749
f 752 755 751
f 756 753 755
f 754 749 753
f 755 749 751
f 752 754 756
f 766 767 765
f 768 771 767
f 772 769 771
f 770 765 769
f 771 765 767
f 768 770 772
f 664 662 672
f 662 660 672
f 660 674 672
f 672 670 668
f 668 666 672
f 673 659 661
f 661 663 665
f 665 667 669
f 669 671 673
f 673 661 665
f 2 4 3
f 4 8 7
f 8 6 5
f 6 2 1
f 7 5 1
f 4 2 6
f 10 12 11
f 12 16 15
f 16 14 13
f 14 10 9
f 15 13 9
f 12 10 14
f 26 28 27
f 28 32 31
f 32 30 29
f 30 26 25
f 31 29 25
f 28 26 30
f 122 124 123
f 124 128 127
f 128 126 125
f 126 122 121
f 127 125 121
f 124 122 126
f 130 132 131
f 132 136 135
f 136 134 133
f 134 130 129
f 135 133 129
f 132 130 134
f 138 140 139
f 140 144 143
f 144 142 141
f 142 138 137
f 143 141 137
f 140 138 142
f 146 148 147
f 148 152 151
f 152 150 149
f 150 146 145
f 151 149 145
f 148 146 150
f 202 204 203
f 204 208 207
f 208 206 205
f 206 202 201
f 207 205 201
f 204 202 206
f 250 252 251
f 252 256 255
f 256 254 253
f 254 250 249
f 255 253 249
f 252 250 254
f 468 466 470
f 468 472 471
f 394 460 459
f 474 476 475
f 460 464 463
f 472 470 469
f 462 394 393
f 480 478 477
f 463 461 393
f 471 469 465
f 460 394 462
f 470 466 465
f 464 462 461
f 476 480 479
f 466 468 467
f 478 474 473
f 479 477 473
f 476 474 478
f 482 484 483
f 484 488 487
f 488 486 485
f 486 482 481
f 487 485 481
f 484 482 486
f 564 562 566
f 564 568 567
f 490 556 555
f 570 572 571
f 556 560 559
f 568 566 565
f 558 490 489
f 576 574 573
f 559 557 489
f 567 565 561
f 556 490 558
f 566 562 561
f 560 558 557
f 572 576 575
f 562 564 563
f 574 570 569
f 575 573 569
f 572 570 574
f 578 580 579
f 580 584 583
f 584 582 581
f 582 578 577
f 583 581 577
f 580 578 582
f 660 662 661
f 662 664 663
f 664 666 665
f 666 668 667
f 668 670 669
f 670 672 671
f 672 674 673
f 674 660 659
f 734 736 735
f 736 740 739
f 740 738 737
f 738 734 733
f 739 737 733
f 736 734 738
f 742 744 743
f 744 748 747
f 748 746 745
f 746 742 741
f 747 745 741
f 744 742 746
f 750 752 751
f 752 756 755
f 756 754 753
f 754 750 749
f 755 753 749
f 752 750 754
f 766 768 767
f 768 772 771
f 772 770 769
f 770 766 765
f 771 769 765
f 768 766 770
usemtl Mat1
f 18 19 17
f 20 23 19
f 24 21 23
f 22 17 21
f 23 17 19
f 20 22 24
f 34 35 33
f 36 39 35
f 40 37 39
f 38 33 37
f 39 33 35
f 36 38 40
f 50 51 49
f 52 55 51
f 56 53 55
f 54 49 53
f 55 49 51
f 52 54 56
f 58 59 57
f 60 63 59
f 64 61 63
f 62 57 61
f 63 57 59
f 60 62 64
f 74 75 73
f 76 79 75
f 80 77 79
f 78 73 77
f 79 73 75
f 76 78 80
f 90 91 89
f 92 95 91
f 96 93 95
f 94 89 93
f 95 89 91
f 92 94 96
f 106 107 105
f 108 111 107
f 112 109 111
f 110 105 109
f 111 105 107
f 108 110 112
f 114 115 113
f 116 119 115
f 120 117 119
f 118 113 117
f 119 113 115
f 116 118 120
f 18 20 19
f 20 24 23
f 24 22 21
f 22 18 17
f 23 21 17
f 20 18 22
f 34 36 35
f 36 40 39
f 40 38 37
f 38 34 33
f 39 37 33
f 36 34 38
f 50 52 51
f 52 56 55
f 56 54 53
f 54 50 49
f 55 53 49
f 52 50 54
f 58 60 59
f 60 64 63
f 64 62 61
f 62 58 57
f 63 61 57
f 60 58 62
f 74 76 75
f 76 80 79
f 80 78 77
f 78 74 73
f 79 77 73
f 76 74 78
f 90 92 91
f 92 96 95
f 96 94 93
f 94 90 89
f 95 93 89
f 92 90 94
f 106 108 107
f 108 112 111
f 112 110 109
f 110 106 105
f 111 109 105
f 108 106 110
f 114 116 115
f 116 120 119
f 120 118 117
f 118 114 113
f 119 117 113
f 116 114 118
usemtl Mat2
f 42 43 41
f 44 47 43
f 48 45 47
f 46 41 45
f 47 41 43
f 44 46 48
f 66 67 65
f 68 71 67
f 72 69 71
f 70 65 69
f 71 65 67
f 68 70 72
f 82 83 81
f 84 87 83
f 88 85 87
f 86 81 85
f 87 81 83
f 84 86 88
f 98 99 97
f 100 103 99
f 104 101 103
f 102 97 101
f 103 97 99
f 100 102 104
f 396 397 395
f 398 399 397
f 400 401 399
f 402 403 401
f 404 405 403
f 406 407 405
f 408 409 407
f 410 411 409
f 412 413 411
f 414 415 413
f 416 408 400
f 416 417 415
f 418 395 417
f 397 401 409
f 492 493 491
f 494 495 493
f 496 497 495
f 498 499 497
f 500 501 499
f 502 503 501
f 504 505 503
f 506 507 505
f 508 509 507
f 510 511 509
f 500 496 512
f 512 513 511
f 514 491 513
f 493 497 505
f 692 689 691
f 688 690 692
f 688 691 687
f 691 658 687
f 657 687 658
f 690 658 689
f 758 759 757
f 760 763 759
f 764 761 763
f 762 757 761
f 763 757 759
f 760 762 764
f 400 398 396
f 396 418 400
f 418 416 400
f 416 414 412
f 412 410 416
f 410 408 416
f 408 406 404
f 404 402 400
f 408 404 400
f 417 395 397
f 397 399 401
f 401 403 409
f 403 405 409
f 405 407 409
f 409 411 413
f 413 415 409
f 415 417 409
f 417 397 409
f 496 494 512
f 494 492 512
f 492 514 512
f 512 510 508
f 508 506 512
f 506 504 512
f 504 502 500
f 500 498 496
f 504 500 512
f 513 491 493
f 493 495 497
f 497 499 505
f 499 501 505
f 501 503 505
f 505 507 509
f 509 511 505
f 511 513 505
f 513 493 505
f 42 44 43
f 44 48 47
f 48 46 45
f 46 42 41
f 47 45 41
f 44 42 46
f 66 68 67
f 68 72 71
f 72 70 69
f 70 66 65
f 71 69 65
f 68 66 70
f 82 84 83
f 84 88 87
f 88 86 85
f 86 82 81
f 87 85 81
f 84 82 86
f 98 100 99
f 100 104 103
f 104 102 101
f 102 98 97
f 103 101 97
f 100 98 102
f 396 398 397
f 398 400 399
f 400 402 401
f 402 404 403
f 404 406 405
f 406 408 407
f 408 410 409
f 410 412 411
f 412 414 413
f 414 416 415
f 416 418 417
f 418 396 395
f 492 494 493
f 494 496 495
f 496 498 497
f 498 500 499
f 500 502 501
f 502 504 503
f 504 506 505
f 506 508 507
f 508 510 509
f 510 512 511
f 512 514 513
f 514 492 491
f 692 690 689
f 688 657 690
f 688 692 691
f 691 689 658
f 657 688 687
f 690 657 658
f 758 760 759
f 760 764 763
f 764 762 761
f 762 758 757
f 763 761 757
f 760 758 762
usemtl Mat3
f 154 155 153
f 156 159 155
f 160 157 159
f 158 153 157
f 159 153 155
f 156 158 160
f 194 195 193
f 196 199 195
f 200 197 199
f 198 193 197
f 199 193 195
f 196 198 200
f 210 211 209
f 212 215 211
f 216 213 215
f 214 209 213
f 215 209 211
f 212 214 216
f 258 259 257
f 260 263 259
f 264 261 263
f 262 257 261
f 263 257 259
f 260 262 264
f 306 307 305
f 308 311 307
f 312 309 311
f 310 305 309
f 311 305 307
f 308 310 312
f 378 379 377
f 380 383 379
f 384 381 383
f 382 377 381
f 383 377 379
f 380 382 384
f 774 775 773
f 776 779 775
f 780 777 779
f 778 773 777
f 779 773 775
f 776 778 780
f 154 156 155
f 156 160 159
f 160 158 157
f 158 154 153
f 159 157 153
f 156 154 158
f 194 196 195
f 196 200 199
f 200 198 197
f 198 194 193
f 199 197 193
f 196 194 198
f 210 212 211
f 212 216 215
f 216 214 213
f 214 210 209
f 215 213 209
f 212 210 214
f 258 260 259
f 260 264 263
f 264 262 261
f 262 258 257
f 263 261 257
f 260 258 262
f 306 308 307
f 308 312 311
f 312 310 309
f 310 306 305
f 311 309 305
f 308 306 310
f 378 380 379
f 380 384 383
f 384 382 381
f 382 378 377
f 383 381 377
f 380 378 382
f 774 776 775
f 776 780 779
f 780 778 777
f 778 774 773
f 779 777 773
f 776 774 778
usemtl Mat4
f 162 163 161
f 164 167 163
f 168 165 167
f 166 161 165
f 167 161 163
f 164 166 168
f 170 171 169
f 172 175 171
f 176 173 175
f 174 169 173
f 175 169 171
f 172 174 176
f 178 179 177
f 180 183 179
f 184 181 183
f 182 177 181
f 183 177 179
f 180 182 184
f 186 187 185
f 188 191 187
f 192 189 191
f 190 185 189
f 191 185 187
f 188 190 192
f 218 219 217
f 220 223 219
f 224 221 223
f 222 217 221
f 223 217 219
f 220 222 224
f 226 227 225
f 228 231 227
f 232 229 231
f 230 225 229
f 231 225 227
f 228 230 232
f 234 235 233
f 236 239 235
f 240 237 239
f 238 233 237
f 239 233 235
f 236 238 240
f 242 243 241
f 244 247 243
f 248 245 247
f 246 241 245
f 247 241 243
f 244 246 248
f 266 267 265
f 268 271 267
f 272 269 271
f 270 265 269
f 271 265 267
f 268 270 272
f 274 275 273
f 276 279 275
f 280 277 279
f 278 273 277
f 279 273 275
f 276 278 280
f 282 283 281
f 284 287 283
f 288 285 287
f 286 281 285
f 287 281 283
f 284 286 288
f 290 291 289
f 292 295 291
f 296 293 295
f 294 289 293
f 295 289 291
f 292 294 296
f 314 315 313
f 316 319 315
f 320 317 319
f 318 313 317
f 319 313 315
f 316 318 320
f 322 323 321
f 324 327 323
f 328 325 327
f 326 321 325
f 327 321 323
f 324 326 328
f 782 783 781
f 784 787 783
f 788 785 787
f 786 781 785
f 787 781 783
f 784 786 788
f 790 791 789
f 792 795 791
f 796 793 795
f 794 789 793
f 795 789 791
f 792 794 796
f 846 847 845
f 848 851 847
f 852 849 851
f 850 845 849
f 851 845 847
f 848 850 852
f 910 911 909
f 912 915 911
f 916 913 915
f 914 909 913
f 915 909 911
f 912 914 916
f 974 975 973
f 976 979 975
f 980 977 979
f 978 973 977
f 979 973 975
f 976 978 980
f 1038 1039 1037
f 1040 1043 1039
f 1044 1041 1043
f 1042 1037 1041
f 1043 1037 1039
f 1040 1042 1044
f 162 164 163
f 164 168 167
f 168 166 165
f 166 162 161
f 167 165 161
f 164 162 166
f 170 172 171
f 172 176 175
f 176 174 173
f 174 170 169
f 175 173 169
f 172 170 174
f 178 180 179
f 180 184 183
f 184 182 181
f 182 178 177
f 183 181 177
f 180 178 182
f 186 188 187
f 188 192 191
f 192 190 189
f 190 186 185
f 191 189 185
f 188 186 190
f 218 220 219
f 220 224 223
f 224 222 221
f 222 218 217
f 223 221 217
f 220 218 222
f 226 228 227
f 228 232 231
f 232 230 229
f 230 226 225
f 231 229 225
f 228 226 230
f 234 236 235
f 236 240 239
f 240 238 237
f 238 234 233
f 239 237 233
f 236 234 238
f 242 244 243
f 244 248 247
f 248 246 245
f 246 242 241
f 247 245 241
f 244 242 246
f 266 268 267
f 268 272 271
f 272 270 269
f 270 266 265
f 271 269 265
f 268 266 270
f 274 276 275
f 276 280 279
f 280 278 277
f 278 274 273
f 279 277 273
f 276 274 278
f 282 284 283
f 284 288 287
f 288 286 285
f 286 282 281
f 287 285 281
f 284 282 286
f 290 292 291
f 292 296 295
f 296 294 293
f 294 290 289
f 295 293 289
f 292 290 294
f 314 316 315
f 316 320 319
f 320 318 317
f 318 314 313
f 319 317 313
f 316 314 318
f 322 324 323
f 324 328 327
f 328 326 325
f 326 322 321
f 327 325 321
f 324 322 326
f 782 784 783
f 784 788 787
f 788 786 785
f 786 782 781
f 787 785 781
f 784 782 786
f 790 792 791
f 792 796 795
f 796 794 793
f 794 790 789
f 795 793 789
f 792 790 794
f 846 848 847
f 848 852 851
f 852 850 849
f 850 846 845
f 851 849 845
f 848 846 850
f 910 912 911
f 912 916 915
f 916 914 913
f 914 910 909
f 915 913 909
f 912 910 914
f 974 976 975
f 976 980 979
f 980 978 977
f 978 974 973
f 979 977 973
f 976 974 978
f 1038 1040 1039
f 1040 1044 1043
f 1044 1042 1041
f 1042 1038 1037
f 1043 1041 1037
f 1040 1038 1042
usemtl Mat5
f 298 299 297
f 300 303 299
f 304 301 303
f 302 297 301
f 303 297 299
f 300 302 304
f 330 331 329
f 332 335 331
f 336 333 335
f 334 329 333
f 335 329 331
f 332 334 336
f 798 799 797
f 800 803 799
f 804 801 803
f 802 797 801
f 803 797 799
f 800 802 804
f 806 807 805
f 808 811 807
f 812 809 811
f 810 805 809
f 811 805 807
f 808 810 812
f 814 815 813
f 816 819 815
f 820 817 819
f 818 813 817
f 819 813 815
f 816 818 820
f 822 823 821
f 824 827 823
f 828 825 827
f 826 821 825
f 827 821 823
f 824 826 828
f 830 831 829
f 832 835 831
f 836 833 835
f 834 829 833
f 835 829 831
f 832 834 836
f 854 855 853
f 856 859 855
f 860 857 859
f 858 853 857
f 859 853 855
f 856 858 860
f 862 863 861
f 864 867 863
f 868 865 867
f 866 861 865
f 867 861 863
f 864 866 868
f 870 871 869
f 872 875 871
f 876 873 875
f 874 869 873
f 875 869 871
f 872 874 876
f 878 879 877
f 880 883 879
f 884 881 883
f 882 877 881
f 883 877 879
f 880 882 884
f 886 887 885
f 888 891 887
f 892 889 891
f 890 885 889
f 891 885 887
f 888 890 892
f 894 895 893
f 896 899 895
f 900 897 899
f 898 893 897
f 899 893 895
f 896 898 900
f 918 919 917
f 920 923 919
f 924 921 923
f 922 917 921
f 923 917 919
f 920 922 924
f 926 927 925
f 928 931 927
f 932 929 931
f 930 925 929
f 931 925 927
f 928 930 932
f 934 935 933
f 936 939 935
f 940 937 939
f 938 933 937
f 939 933 935
f 936 938 940
f 942 943 941
f 944 947 943
f 948 945 947
f 946 941 945
f 947 941 943
f 944 946 948
f 950 951 949
f 952 955 951
f 956 953 955
f 954 949 953
f 955 949 951
f 952 954 956
f 958 959 957
f 960 963 959
f 964 961 963
f 962 957 961
f 963 957 959
f 960 962 964
f 982 983 981
f 984 987 983
f 988 985 987
f 986 981 985
f 987 981 983
f 984 986 988
f 990 991 989
f 992 995 991
f 996 993 995
f 994 989 993
f 995 989 991
f 992 994 996
f 998 999 997
f 1000 1003 999
f 1004 1001 1003
f 1002 997 1001
f 1003 997 999
f 1000 1002 1004
f 1006 1007 1005
f 1008 1011 1007
f 1012 1009 1011
f 1010 1005 1009
f 1011 1005 1007
f 1008 1010 1012
f 1014 1015 1013
f 1016 1019 1015
f 1020 1017 1019
f 1018 1013 1017
f 1019 1013 1015
f 1016 1018 1020
f 1022 1023 1021
f 1024 1027 1023
f 1028 1025 1027
f 1026 1021 1025
f 1027 1021 1023
f 1024 1026 1028
f 1046 1047 1045
f 1048 1051 1047
f 1052 1049 1051
f 1050 1045 1049
f 1051 1045 1047
f 1048 1050 1052
f 298 300 299
f 300 304 303
f 304 302 301
f 302 298 297
f 303 301 297
f 300 298 302
f 330 332 331
f 332 336 335
f 336 334 333
f 334 330 329
f 335 333 329
f 332 330 334
f 798 800 799
f 800 804 803
f 804 802 801
f 802 798 797
f 803 801 797
f 800 798 802
f 806 808 807
f 808 812 811
f 812 810 809
f 810 806 805
f 811 809 805
f 808 806 810
f 814 816 815
f 816 820 819
f 820 818 817
f 818 814 813
f 819 817 813
f 816 814 818
f 822 824 823
f 824 828 827
f 828 826 825
f 826 822 821
f 827 825 821
f 824 822 826
f 830 832 831
f 832 836 835
f 836 834 833
f 834 830 829
f 835 833 829
f 832 830 834
f 854 856 855
f 856 860 859
f 860 858 857
f 858 854 853
f 859 857 853
f 856 854 858
f 862 864 863
f 864 868 867
f 868 866 865
f 866 862 861
f 867 865 861
f 864 862 866
f 870 872 871
f 872 876 875
f 876 874 873
f 874 870 869
f 875 873 869
f 872 870 874
f 878 880 879
f 880 884 883
f 884 882 881
f 882 878 877
f 883 881 877
f 880 878 882
f 886 888 887
f 888 892 891
f 892 890 889
f 890 886 885
f 891 889 885
f 888 886 890
f 894 896 895
f 896 900 899
f 900 898 897
f 898 894 893
f 899 897 893
f 896 894 898
f 918 920 919
f 920 924 923
f 924 922 921
f 922 918 917
f 923 921 917
f 920 918 922
f 926 928 927
f 928 932 931
f 932 930 929
f 930 926 925
f 931 929 925
f 928 926 930
f 934 936 935
f 936 940 939
f 940 938 937
f 938 934 933
f 939 937 933
f 936 934 938
f 942 944 943
f 944 948 947
f 948 946 945
f 946 942 941
f 947 945 941
f 944 942 946
f 950 952 951
f 952 956 955
f 956 954 953
f 954 950 949
f 955 953 949
f 952 950 954
f 958 960 959
f 960 964 963
f 964 962 961
f 962 958 957
f 963 961 957
f 960 958 962
f 982 984 983
f 984 988 987
f 988 986 985
f 986 982 981
f 987 985 981
f 984 982 986
f 990 992 991
f 992 996 995
f 996 994 993
f 994 990 989
f 995 993 989
f 992 990 994
f 998 1000 999
f 1000 1004 1003
f 1004 1002 1001
f 1002 998 997
f 1003 1001 997
f 1000 998 1002
f 1006 1008 1007
f 1008 1012 1011
f 1012 1010 1009
f 1010 1006 1005
f 1011 1009 1005
f 1008 1006 1010
f 1014 1016 1015
f 1016 1020 1019
f 1020 1018 1017
f 1018 1014 1013
f 1019 1017 1013
f 1016 1014 1018
f 1022 1024 1023
f 1024 1028 1027
f 1028 1026 1025
f 1026 1022 1021
f 1027 1025 1021
f 1024 1022 1026
f 1046 1048 1047
f 1048 1052 1051
f 1052 1050 1049
f 1050 1046 1045
f 1051 1049 1045
f 1048 1046 1050
usemtl Mat6
f 338 339 337
f 340 343 339
f 344 341 343
f 342 337 341
f 343 337 339
f 340 342 344
f 838 839 837
f 840 843 839
f 844 841 843
f 842 837 841
f 843 837 839
f 840 842 844
f 902 903 901
f 904 907 903
f 908 905 907
f 906 901 905
f 907 901 903
f 904 906 908
f 966 967 965
f 968 971 967
f 972 969 971
f 970 965 969
f 971 965 967
f 968 970 972
f 1030 1031 1029
f 1032 1035 1031
f 1036 1033 1035
f 1034 1029 1033
f 1035 1029 1031
f 1032 1034 1036
f 338 340 339
f 340 344 343
f 344 342 341
f 342 338 337
f 343 341 337
f 340 338 342
f 838 840 839
f 840 844 843
f 844 842 841
f 842 838 837
f 843 841 837
f 840 838 842
f 902 904 903
f 904 908 907
f 908 906 905
f 906 902 901
f 907 905 901
f 904 902 906
f 966 968 967
f 968 972 971
f 972 970 969
f 970 966 965
f 971 969 965
f 968 966 970
f 1030 1032 1031
f 1032 1036 1035
f 1036 1034 1033
f 1034 1030 1029
f 1035 1033 1029
f 1032 1030 1034
usemtl Mat7
f 346 347 345
f 348 351 347
f 352 349 351
f 350 345 349
f 351 345 347
f 348 350 352
f 354 355 353
f 356 359 355
f 360 357 359
f 358 353 357
f 359 353 355
f 356 358 360
f 362 363 361
f 364 367 363
f 368 365 367
f 366 361 365
f 367 361 363
f 364 366 368
f 370 371 369
f 372 375 371
f 376 373 375
f 374 369 373
f 375 369 371
f 372 374 376
f 386 387 385
f 388 391 387
f 392 389 391
f 390 385 389
f 391 385 387
f 388 390 392
f 452 453 451
f 424 425 423
f 448 449 447
f 430 431 429
f 451 455 443
f 446 447 445
f 422 423 421
f 428 429 427
f 420 421 419
f 454 455 453
f 432 433 431
f 426 427 425
f 434 435 433
f 444 445 443
f 436 437 435
f 438 439 437
f 426 422 438
f 440 441 439
f 456 457 455
f 450 451 449
f 442 419 441
f 423 427 431
f 458 443 457
f 444 456 452
f 548 549 547
f 520 521 519
f 544 545 543
f 526 527 525
f 547 551 539
f 542 543 541
f 518 519 517
f 524 525 523
f 516 517 515
f 550 551 549
f 528 529 527
f 522 523 521
f 530 531 529
f 540 541 539
f 532 533 531
f 534 535 533
f 522 518 534
f 536 537 535
f 552 553 551
f 546 547 545
f 538 515 537
f 535 519 527
f 554 539 553
f 540 552 548
f 586 587 585
f 588 591 587
f 592 589 591
f 590 585 589
f 591 585 587
f 588 590 592
f 594 595 593
f 596 599 595
f 600 597 599
f 598 593 597
f 599 593 595
f 596 598 600
f 602 603 601
f 604 607 603
f 608 605 607
f 606 601 605
f 607 601 603
f 604 606 608
f 610 611 609
f 612 615 611
f 616 613 615
f 614 609 613
f 615 609 611
f 612 614 616
f 618 619 617
f 620 623 619
f 624 621 623
f 622 617 621
f 623 617 619
f 620 622 624
f 626 627 625
f 628 631 627
f 632 629 631
f 630 625 629
f 631 625 627
f 628 630 632
f 634 635 633
f 636 639 635
f 640 637 639
f 638 633 637
f 639 633 635
f 636 638 640
f 642 643 641
f 644 647 643
f 648 645 647
f 646 641 645
f 647 641 643
f 644 646 648
f 650 651 649
f 652 655 651
f 656 653 655
f 654 649 653
f 655 649 651
f 652 654 656
f 675 677 681
f 684 685 683
f 678 679 677
f 682 683 681
f 676 677 675
f 680 681 679
f 686 675 685
f 684 680 676
f 443 445 447
f 447 449 451
f 451 453 455
f 455 457 443
f 443 447 451
f 430 428 426
f 426 424 422
f 422 420 438
f 420 442 438
f 442 440 438
f 438 436 434
f 434 432 438
f 432 430 438
f 430 426 438
f 431 433 435
f 435 437 439
f 439 441 419
f 419 421 423
f 423 425 427
f 427 429 431
f 431 435 439
f 439 419 431
f 419 423 431
f 452 450 448
f 448 446 444
f 444 458 456
f 456 454 452
f 452 448 444
f 539 541 543
f 543 545 547
f 547 549 551
f 551 553 539
f 539 543 547
f 526 524 522
f 522 520 518
f 518 516 534
f 516 538 534
f 538 536 534
f 534 532 530
f 530 528 534
f 528 526 534
f 526 522 534
f 527 529 531
f 531 533 535
f 535 537 515
f 515 517 519
f 519 521 523
f 523 525 527
f 527 531 535
f 535 515 519
f 519 523 527
f 548 546 544
f 544 542 540
f 540 554 552
f 552 550 548
f 548 544 540
f 677 679 681
f 681 683 685
f 685 675 681
f 676 686 684
f 684 682 680
f 680 678 676
f 346 348 347
f 348 352 351
f 352 350 349
f 350 346 345
f 351 349 345
f 348 346 350
f 354 356 355
f 356 360 359
f 360 358 357
f 358 354 353
f 359 357 353
f 356 354 358
f 362 364 363
f 364 368 367
f 368 366 365
f 366 362 361
f 367 365 361
f 364 362 366
f 370 372 371
f 372 376 375
f 376 374 373
f 374 370 369
f 375 373 369
f 372 370 374
f 386 388 387
f 388 392 391
f 392 390 389
f 390 386 385
f 391 389 385
f 388 386 390
f 452 454 453
f 424 426 425
f 448 450 449
f 430 432 431
f 446 448 447
f 422 424 423
f 428 430 429
f 420 422 421
f 454 456 455
f 432 434 433
f 426 428 427
f 434 436 435
f 444 446 445
f 436 438 437
f 438 440 439
f 440 442 441
f 456 458 457
f 450 452 451
f 442 420 419
f 458 444 443
f 548 550 549
f 520 522 521
f 544 546 545
f 526 528 527
f 542 544 543
f 518 520 519
f 524 526 525
f 516 518 517
f 550 552 551
f 528 530 529
f 522 524 523
f 530 532 531
f 540 542 541
f 532 534 533
f 534 536 535
f 536 538 537
f 552 554 553
f 546 548 547
f 538 516 515
f 554 540 539
f 586 588 587
f 588 592 591
f 592 590 589
f 590 586 585
f 591 589 585
f 588 586 590
f 594 596 595
f 596 600 599
f 600 598 597
f 598 594 593
f 599 597 593
f 596 594 598
f 602 604 603
f 604 608 607
f 608 606 605
f 606 602 601
f 607 605 601
f 604 602 606
f 610 612 611
f 612 616 615
f 616 614 613
f 614 610 609
f 615 613 609
f 612 610 614
f 618 620 619
f 620 624 623
f 624 622 621
f 622 618 617
f 623 621 617
f 620 618 622
f 626 628 627
f 628 632 631
f 632 630 629
f 630 626 625
f 631 629 625
f 628 626 630
f 634 636 635
f 636 640 639
f 640 638 637
f 638 634 633
f 639 637 633
f 636 634 638
f 642 644 643
f 644 648 647
f 648 646 645
f 646 642 641
f 647 645 641
f 644 642 646
f 650 652 651
f 652 656 655
f 656 654 653
f 654 650 649
f 655 653 649
f 652 650 654
f 684 686 685
f 678 680 679
f 682 684 683
f 676 678 677
f 680 682 681
f 686 676 675
usemtl Mat8
f 700 697 699
f 694 695 693
f 698 693 697
f 696 699 695
f 699 693 695
f 696 698 700
f 702 703 701
f 704 707 703
f 708 705 707
f 706 701 705
f 707 701 703
f 704 706 708
f 710 711 709
f 712 715 711
f 716 713 715
f 714 709 713
f 715 709 711
f 712 714 716
f 718 719 717
f 720 723 719
f 724 721 723
f 722 717 721
f 723 717 719
f 720 722 724
f 726 727 725
f 728 731 727
f 732 729 731
f 730 725 729
f 731 725 727
f 728 730 732
f 700 698 697
f 694 696 695
f 698 694 693
f 696 700 699
f 699 697 693
f 696 694 698
f 702 704 703
f 704 708 707
f 708 706 705
f 706 702 701
f 707 705 701
f 704 702 706
f 710 712 711
f 712 716 715
f 716 714 713
f 714 710 709
f 715 713 709
f 712 710 714
f 718 720 719
f 720 724 723
f 724 722 721
f 722 718 717
f 723 721 717
f 720 718 722
f 726 728 727
f 728 732 731
f 732 730 729
f 730 726 725
f 731 729 725
f 728 726 730
