# Naval base: warehouse+quay+crane, ~40x30x14m
# generated by tools/gen_models.py (Task57) - do not hand-edit
mtllib Building_NavalBase.mtl
v -20.0000 0.0000 -17.0000
v 4.0000 0.0000 -17.0000
v -20.0000 10.0000 -17.0000
v 4.0000 10.0000 -17.0000
v -20.0000 0.0000 -3.0000
v 4.0000 0.0000 -3.0000
v -20.0000 10.0000 -3.0000
v 4.0000 10.0000 -3.0000
v -15.0000 0.0000 0.0000
v 15.0000 0.0000 0.0000
v -15.0000 2.0000 0.0000
v 15.0000 2.0000 0.0000
v -15.0000 0.0000 16.0000
v 15.0000 0.0000 16.0000
v -15.0000 2.0000 16.0000
v 15.0000 2.0000 16.0000
v 10.8000 1.0000 10.0000
v 10.8000 13.0000 10.0000
v 10.4000 1.0000 9.3072
v 10.4000 13.0000 9.3072
v 9.6000 1.0000 9.3072
v 9.6000 13.0000 9.3072
v 9.2000 1.0000 10.0000
v 9.2000 13.0000 10.0000
v 9.6000 1.0000 10.6928
v 9.6000 13.0000 10.6928
v 10.4000 1.0000 10.6928
v 10.4000 13.0000 10.6928
v 9.4000 12.4000 11.0000
v 10.6000 12.4000 11.0000
v 9.4000 13.6000 11.0000
v 10.6000 13.6000 11.0000
v 9.4000 12.4000 23.0000
v 10.6000 12.4000 23.0000
v 9.4000 13.6000 23.0000
v 10.6000 13.6000 23.0000
v 9.4000 12.4000 2.0000
v 10.6000 12.4000 2.0000
v 9.4000 13.6000 2.0000
v 10.6000 13.6000 2.0000
v 9.4000 12.4000 6.0000
v 10.6000 12.4000 6.0000
v 9.4000 13.6000 6.0000
v 10.6000 13.6000 6.0000
usemtl Mat
f 1 3 4 2
f 5 6 8 7
f 1 5 7 3
f 2 4 8 6
f 1 2 6 5
f 3 7 8 4
f 9 11 12 10
f 13 14 16 15
f 9 13 15 11
f 10 12 16 14
f 9 10 14 13
f 11 15 16 12
f 27 25 23 21 19 17
f 18 20 22 24 26 28
f 19 20 18 17
f 21 22 20 19
f 23 24 22 21
f 25 26 24 23
f 27 28 26 25
f 17 18 28 27
f 29 31 32 30
f 33 34 36 35
f 29 33 35 31
f 30 32 36 34
f 29 30 34 33
f 31 35 36 32
f 37 39 40 38
f 41 42 44 43
f 37 41 43 39
f 38 40 44 42
f 37 38 42 41
f 39 43 44 40
