# source: models.blend / Military_Assets / 21_Bunker
# generated by tools/export_builtin_obj.py (Task69) - do not hand-edit
mtllib Fort_Bunker.mtl
v -8.0000 0.0000 -8.0000
v -8.0000 0.9000 -8.0000
v -7.6000 0.0000 -8.0000
v -7.6000 0.9000 -8.0000
v -8.0000 0.0000 8.0000
v -8.0000 0.9000 8.0000
v -7.6000 0.0000 8.0000
v -7.6000 0.9000 8.0000
v -7.6000 0.0000 -8.0000
v -7.6000 0.9000 -8.0000
v -7.0000 0.0000 -8.0000
v -7.0000 0.9000 -8.0000
v -7.6000 0.0000 -6.5000
v -7.6000 0.9000 -6.5000
v -7.0000 0.0000 -6.5000
v -7.0000 0.9000 -6.5000
v -7.6000 0.0000 -6.5000
v -7.6000 0.3500 -6.5000
v -4.0000 0.0000 -6.5000
v -4.0000 0.3500 -6.5000
v -7.6000 0.0000 -1.5000
v -7.6000 0.3500 -1.5000
v -4.0000 0.0000 -1.5000
v -4.0000 0.3500 -1.5000
v -7.6000 0.0000 -1.5000
v -7.6000 0.9000 -1.5000
v -7.0000 0.0000 -1.5000
v -7.0000 0.9000 -1.5000
v -7.6000 0.0000 8.0000
v -7.6000 0.9000 8.0000
v -7.0000 0.0000 8.0000
v -7.0000 0.9000 8.0000
v -7.0000 0.0000 -8.0000
v -7.0000 0.9000 -8.0000
v 8.0000 0.0000 -8.0000
v 8.0000 0.9000 -8.0000
v -7.0000 0.0000 -7.0000
v -7.0000 0.9000 -7.0000
v 8.0000 0.0000 -7.0000
v 8.0000 0.9000 -7.0000
v -7.0000 0.0000 -7.0000
v -7.0000 0.9000 -7.0000
v 7.0000 0.0000 -7.0000
v 7.0000 0.9000 -7.0000
v -7.0000 0.0000 -6.5000
v -7.0000 0.9000 -6.5000
v 7.0000 0.0000 -6.5000
v 7.0000 0.9000 -6.5000
v -7.0000 0.0000 -1.5000
v -7.0000 0.9000 -1.5000
v 7.0000 0.0000 -1.5000
v 7.0000 0.9000 -1.5000
v -7.0000 0.0000 6.0000
v -7.0000 0.9000 6.0000
v 7.0000 0.0000 6.0000
v 7.0000 0.9000 6.0000
v -7.0000 0.0000 6.0000
v -7.0000 0.9000 6.0000
v 8.0000 0.0000 6.0000
v 8.0000 0.9000 6.0000
v -7.0000 0.0000 8.0000
v -7.0000 0.9000 8.0000
v 8.0000 0.0000 8.0000
v 8.0000 0.9000 8.0000
v -4.0000 0.0000 -6.5000
v -4.0000 0.9000 -6.5000
v 7.0000 0.0000 -6.5000
v 7.0000 0.9000 -6.5000
v -4.0000 0.0000 -1.5000
v -4.0000 0.9000 -1.5000
v 7.0000 0.0000 -1.5000
v 7.0000 0.9000 -1.5000
v 7.0000 0.0000 -7.0000
v 7.0000 0.9000 -7.0000
v 8.0000 0.0000 -7.0000
v 8.0000 0.9000 -7.0000
v 7.0000 0.0000 6.0000
v 7.0000 0.9000 6.0000
v 8.0000 0.0000 6.0000
v 8.0000 0.9000 6.0000
v -3.5000 0.9000 -4.9000
v -3.5000 3.7000 -4.9000
v 3.5000 0.9000 -4.9000
v 3.5000 3.7000 -4.9000
v -3.5000 0.9000 4.1000
v -3.5000 3.7000 4.1000
v 3.5000 0.9000 4.1000
v 3.5000 3.7000 4.1000
v -4.6000 0.9000 4.1000
v -4.6000 0.9000 -6.4000
v 4.6000 0.9000 -6.4000
v 4.6000 0.9000 4.1000
v -2.9000 4.5000 2.6000
v -2.9000 4.5000 -5.2000
v 2.9000 4.5000 -5.2000
v 2.9000 4.5000 2.6000
v 0.7000 2.4000 3.9150
v 0.7000 2.9000 3.9150
v 2.8000 2.4000 3.9150
v 2.8000 2.9000 3.9150
v 0.7000 2.4000 4.3650
v 0.7000 2.9000 4.3650
v 2.8000 2.4000 4.3650
v 2.8000 2.9000 4.3650
v 0.5000 2.9000 3.9050
v 0.5000 3.1800 3.9050
v 3.0000 2.9000 3.9050
v 3.0000 3.1800 3.9050
v 0.5000 2.9000 4.4550
v 0.5000 3.1800 4.4550
v 3.0000 2.9000 4.4550
v 3.0000 3.1800 4.4550
v 0.4500 2.1500 3.9050
v 0.4500 3.0500 3.9050
v 0.7500 2.1500 3.9050
v 0.7500 3.0500 3.9050
v 0.4500 2.1500 4.4550
v 0.4500 3.0500 4.4550
v 0.7500 2.1500 4.4550
v 0.7500 3.0500 4.4550
v -2.8000 2.4000 3.9150
v -2.8000 2.9000 3.9150
v -0.7000 2.4000 3.9150
v -0.7000 2.9000 3.9150
v -2.8000 2.4000 4.3650
v -2.8000 2.9000 4.3650
v -0.7000 2.4000 4.3650
v -0.7000 2.9000 4.3650
v -3.0000 2.9000 3.9050
v -3.0000 3.1800 3.9050
v -0.5000 2.9000 3.9050
v -0.5000 3.1800 3.9050
v -3.0000 2.9000 4.4550
v -3.0000 3.1800 4.4550
v -0.5000 2.9000 4.4550
v -0.5000 3.1800 4.4550
v -0.7500 2.1500 3.9050
v -0.7500 3.0500 3.9050
v -0.4500 2.1500 3.9050
v -0.4500 3.0500 3.9050
v -0.7500 2.1500 4.4550
v -0.7500 3.0500 4.4550
v -0.4500 2.1500 4.4550
v -0.4500 3.0500 4.4550
v -3.7000 3.3250 3.7500
v -3.7000 3.8750 3.7500
v 3.7000 3.3250 3.7500
v 3.7000 3.8750 3.7500
v -3.7000 3.3250 4.3500
v -3.7000 3.8750 4.3500
v 3.7000 3.3250 4.3500
v 3.7000 3.8750 4.3500
v -3.8250 0.9000 -5.1000
v -3.8250 3.0000 -5.1000
v -3.2750 0.9000 -5.1000
v -3.2750 3.0000 -5.1000
v -3.8250 0.9000 -2.9000
v -3.8250 3.0000 -2.9000
v -3.2750 0.9000 -2.9000
v -3.2750 3.0000 -2.9000
v -4.0500 0.9000 -5.4000
v -4.0500 3.5000 -5.4000
v -3.6500 0.9000 -5.4000
v -3.6500 3.5000 -5.4000
v -4.0500 0.9000 -2.6000
v -4.0500 3.5000 -2.6000
v -3.6500 0.9000 -2.6000
v -3.6500 3.5000 -2.6000
v -7.0000 0.3500 -2.2000
v -7.0000 2.9500 -2.2000
v -3.6000 0.3500 -2.2000
v -3.6000 2.9500 -2.2000
v -7.0000 0.3500 -1.6000
v -7.0000 2.9500 -1.6000
v -3.6000 0.3500 -1.6000
v -3.6000 2.9500 -1.6000
v -4.3400 0.3500 -6.5748
v -4.3400 0.5900 -6.5748
v -3.9600 0.3500 -6.5748
v -3.9600 0.5900 -6.5748
v -4.3400 0.3500 -5.9052
v -4.3400 0.5900 -5.9052
v -3.9600 0.3500 -5.9052
v -3.9600 0.5900 -5.9052
v -4.3400 0.3500 -5.8548
v -4.3400 0.5900 -5.8548
v -3.9600 0.3500 -5.8548
v -3.9600 0.5900 -5.8548
v -4.3400 0.3500 -5.1852
v -4.3400 0.5900 -5.1852
v -3.9600 0.3500 -5.1852
v -3.9600 0.5900 -5.1852
v -4.3400 0.3500 -5.1348
v -4.3400 0.5900 -5.1348
v -3.9600 0.3500 -5.1348
v -3.9600 0.5900 -5.1348
v -4.3400 0.3500 -4.4652
v -4.3400 0.5900 -4.4652
v -3.9600 0.3500 -4.4652
v -3.9600 0.5900 -4.4652
v -4.3400 0.3500 -4.4148
v -4.3400 0.5900 -4.4148
v -3.9600 0.3500 -4.4148
v -3.9600 0.5900 -4.4148
v -4.3400 0.3500 -3.7452
v -4.3400 0.5900 -3.7452
v -3.9600 0.3500 -3.7452
v -3.9600 0.5900 -3.7452
v -4.3400 0.3500 -3.6948
v -4.3400 0.5900 -3.6948
v -3.9600 0.3500 -3.6948
v -3.9600 0.5900 -3.6948
v -4.3400 0.3500 -3.0252
v -4.3400 0.5900 -3.0252
v -3.9600 0.3500 -3.0252
v -3.9600 0.5900 -3.0252
v -4.3400 0.3500 -2.9748
v -4.3400 0.5900 -2.9748
v -3.9600 0.3500 -2.9748
v -3.9600 0.5900 -2.9748
v -4.3400 0.3500 -2.3052
v -4.3400 0.5900 -2.3052
v -3.9600 0.3500 -2.3052
v -3.9600 0.5900 -2.3052
v -4.3400 0.3500 -2.2548
v -4.3400 0.5900 -2.2548
v -3.9600 0.3500 -2.2548
v -3.9600 0.5900 -2.2548
v -4.3400 0.3500 -1.5852
v -4.3400 0.5900 -1.5852
v -3.9600 0.3500 -1.5852
v -3.9600 0.5900 -1.5852
v -4.3400 0.5900 -6.2148
v -4.3400 0.8300 -6.2148
v -3.9600 0.5900 -6.2148
v -3.9600 0.8300 -6.2148
v -4.3400 0.5900 -5.5452
v -4.3400 0.8300 -5.5452
v -3.9600 0.5900 -5.5452
v -3.9600 0.8300 -5.5452
v -4.3400 0.5900 -5.4948
v -4.3400 0.8300 -5.4948
v -3.9600 0.5900 -5.4948
v -3.9600 0.8300 -5.4948
v -4.3400 0.5900 -4.8252
v -4.3400 0.8300 -4.8252
v -3.9600 0.5900 -4.8252
v -3.9600 0.8300 -4.8252
v -4.3400 0.5900 -4.7748
v -4.3400 0.8300 -4.7748
v -3.9600 0.5900 -4.7748
v -3.9600 0.8300 -4.7748
v -4.3400 0.5900 -4.1052
v -4.3400 0.8300 -4.1052
v -3.9600 0.5900 -4.1052
v -3.9600 0.8300 -4.1052
v -4.3400 0.5900 -4.0548
v -4.3400 0.8300 -4.0548
v -3.9600 0.5900 -4.0548
v -3.9600 0.8300 -4.0548
v -4.3400 0.5900 -3.3852
v -4.3400 0.8300 -3.3852
v -3.9600 0.5900 -3.3852
v -3.9600 0.8300 -3.3852
v -4.3400 0.5900 -3.3348
v -4.3400 0.8300 -3.3348
v -3.9600 0.5900 -3.3348
v -3.9600 0.8300 -3.3348
v -4.3400 0.5900 -2.6652
v -4.3400 0.8300 -2.6652
v -3.9600 0.5900 -2.6652
v -3.9600 0.8300 -2.6652
v -4.3400 0.5900 -2.6148
v -4.3400 0.8300 -2.6148
v -3.9600 0.5900 -2.6148
v -3.9600 0.8300 -2.6148
v -4.3400 0.5900 -1.9452
v -4.3400 0.8300 -1.9452
v -3.9600 0.5900 -1.9452
v -3.9600 0.8300 -1.9452
v -6.3748 0.9000 4.7900
v -6.3748 1.1400 4.7900
v -6.3748 0.9000 4.4100
v -6.3748 1.1400 4.4100
v -5.7052 0.9000 4.7900
v -5.7052 1.1400 4.7900
v -5.7052 0.9000 4.4100
v -5.7052 1.1400 4.4100
v -5.6548 0.9000 4.7900
v -5.6548 1.1400 4.7900
v -5.6548 0.9000 4.4100
v -5.6548 1.1400 4.4100
v -4.9852 0.9000 4.7900
v -4.9852 1.1400 4.7900
v -4.9852 0.9000 4.4100
v -4.9852 1.1400 4.4100
v -4.9348 0.9000 4.7900
v -4.9348 1.1400 4.7900
v -4.9348 0.9000 4.4100
v -4.9348 1.1400 4.4100
v -4.2652 0.9000 4.7900
v -4.2652 1.1400 4.7900
v -4.2652 0.9000 4.4100
v -4.2652 1.1400 4.4100
v -4.2148 0.9000 4.7900
v -4.2148 1.1400 4.7900
v -4.2148 0.9000 4.4100
v -4.2148 1.1400 4.4100
v -3.5452 0.9000 4.7900
v -3.5452 1.1400 4.7900
v -3.5452 0.9000 4.4100
v -3.5452 1.1400 4.4100
v -3.4948 0.9000 4.7900
v -3.4948 1.1400 4.7900
v -3.4948 0.9000 4.4100
v -3.4948 1.1400 4.4100
v -2.8252 0.9000 4.7900
v -2.8252 1.1400 4.7900
v -2.8252 0.9000 4.4100
v -2.8252 1.1400 4.4100
v -6.0148 1.1400 4.7900
v -6.0148 1.3800 4.7900
v -6.0148 1.1400 4.4100
v -6.0148 1.3800 4.4100
v -5.3452 1.1400 4.7900
v -5.3452 1.3800 4.7900
v -5.3452 1.1400 4.4100
v -5.3452 1.3800 4.4100
v -5.2948 1.1400 4.7900
v -5.2948 1.3800 4.7900
v -5.2948 1.1400 4.4100
v -5.2948 1.3800 4.4100
v -4.6252 1.1400 4.7900
v -4.6252 1.3800 4.7900
v -4.6252 1.1400 4.4100
v -4.6252 1.3800 4.4100
v -4.5748 1.1400 4.7900
v -4.5748 1.3800 4.7900
v -4.5748 1.1400 4.4100
v -4.5748 1.3800 4.4100
v -3.9052 1.1400 4.7900
v -3.9052 1.3800 4.7900
v -3.9052 1.1400 4.4100
v -3.9052 1.3800 4.4100
v -3.8548 1.1400 4.7900
v -3.8548 1.3800 4.7900
v -3.8548 1.1400 4.4100
v -3.8548 1.3800 4.4100
v -3.1852 1.1400 4.7900
v -3.1852 1.3800 4.7900
v -3.1852 1.1400 4.4100
v -3.1852 1.3800 4.4100
v -6.3748 1.3800 4.7900
v -6.3748 1.6200 4.7900
v -6.3748 1.3800 4.4100
v -6.3748 1.6200 4.4100
v -5.7052 1.3800 4.7900
v -5.7052 1.6200 4.7900
v -5.7052 1.3800 4.4100
v -5.7052 1.6200 4.4100
v -5.6548 1.3800 4.7900
v -5.6548 1.6200 4.7900
v -5.6548 1.3800 4.4100
v -5.6548 1.6200 4.4100
v -4.9852 1.3800 4.7900
v -4.9852 1.6200 4.7900
v -4.9852 1.3800 4.4100
v -4.9852 1.6200 4.4100
v -4.9348 1.3800 4.7900
v -4.9348 1.6200 4.7900
v -4.9348 1.3800 4.4100
v -4.9348 1.6200 4.4100
v -4.2652 1.3800 4.7900
v -4.2652 1.6200 4.7900
v -4.2652 1.3800 4.4100
v -4.2652 1.6200 4.4100
v -4.2148 1.3800 4.7900
v -4.2148 1.6200 4.7900
v -4.2148 1.3800 4.4100
v -4.2148 1.6200 4.4100
v -3.5452 1.3800 4.7900
v -3.5452 1.6200 4.7900
v -3.5452 1.3800 4.4100
v -3.5452 1.6200 4.4100
v -3.4948 1.3800 4.7900
v -3.4948 1.6200 4.7900
v -3.4948 1.3800 4.4100
v -3.4948 1.6200 4.4100
v -2.8252 1.3800 4.7900
v -2.8252 1.6200 4.7900
v -2.8252 1.3800 4.4100
v -2.8252 1.6200 4.4100
v 2.6252 0.9000 4.7900
v 2.6252 1.1400 4.7900
v 2.6252 0.9000 4.4100
v 2.6252 1.1400 4.4100
v 3.2948 0.9000 4.7900
v 3.2948 1.1400 4.7900
v 3.2948 0.9000 4.4100
v 3.2948 1.1400 4.4100
v 3.3452 0.9000 4.7900
v 3.3452 1.1400 4.7900
v 3.3452 0.9000 4.4100
v 3.3452 1.1400 4.4100
v 4.0148 0.9000 4.7900
v 4.0148 1.1400 4.7900
v 4.0148 0.9000 4.4100
v 4.0148 1.1400 4.4100
v 4.0652 0.9000 4.7900
v 4.0652 1.1400 4.7900
v 4.0652 0.9000 4.4100
v 4.0652 1.1400 4.4100
v 4.7348 0.9000 4.7900
v 4.7348 1.1400 4.7900
v 4.7348 0.9000 4.4100
v 4.7348 1.1400 4.4100
v 4.7852 0.9000 4.7900
v 4.7852 1.1400 4.7900
v 4.7852 0.9000 4.4100
v 4.7852 1.1400 4.4100
v 5.4548 0.9000 4.7900
v 5.4548 1.1400 4.7900
v 5.4548 0.9000 4.4100
v 5.4548 1.1400 4.4100
v 5.5052 0.9000 4.7900
v 5.5052 1.1400 4.7900
v 5.5052 0.9000 4.4100
v 5.5052 1.1400 4.4100
v 6.1748 0.9000 4.7900
v 6.1748 1.1400 4.7900
v 6.1748 0.9000 4.4100
v 6.1748 1.1400 4.4100
v 2.9852 1.1400 4.7900
v 2.9852 1.3800 4.7900
v 2.9852 1.1400 4.4100
v 2.9852 1.3800 4.4100
v 3.6548 1.1400 4.7900
v 3.6548 1.3800 4.7900
v 3.6548 1.1400 4.4100
v 3.6548 1.3800 4.4100
v 3.7052 1.1400 4.7900
v 3.7052 1.3800 4.7900
v 3.7052 1.1400 4.4100
v 3.7052 1.3800 4.4100
v 4.3748 1.1400 4.7900
v 4.3748 1.3800 4.7900
v 4.3748 1.1400 4.4100
v 4.3748 1.3800 4.4100
v 4.4252 1.1400 4.7900
v 4.4252 1.3800 4.7900
v 4.4252 1.1400 4.4100
v 4.4252 1.3800 4.4100
v 5.0948 1.1400 4.7900
v 5.0948 1.3800 4.7900
v 5.0948 1.1400 4.4100
v 5.0948 1.3800 4.4100
v 5.1452 1.1400 4.7900
v 5.1452 1.3800 4.7900
v 5.1452 1.1400 4.4100
v 5.1452 1.3800 4.4100
v 5.8148 1.1400 4.7900
v 5.8148 1.3800 4.7900
v 5.8148 1.1400 4.4100
v 5.8148 1.3800 4.4100
v 2.6252 1.3800 4.7900
v 2.6252 1.6200 4.7900
v 2.6252 1.3800 4.4100
v 2.6252 1.6200 4.4100
v 3.2948 1.3800 4.7900
v 3.2948 1.6200 4.7900
v 3.2948 1.3800 4.4100
v 3.2948 1.6200 4.4100
v 3.3452 1.3800 4.7900
v 3.3452 1.6200 4.7900
v 3.3452 1.3800 4.4100
v 3.3452 1.6200 4.4100
v 4.0148 1.3800 4.7900
v 4.0148 1.6200 4.7900
v 4.0148 1.3800 4.4100
v 4.0148 1.6200 4.4100
v 4.0652 1.3800 4.7900
v 4.0652 1.6200 4.7900
v 4.0652 1.3800 4.4100
v 4.0652 1.6200 4.4100
v 4.7348 1.3800 4.7900
v 4.7348 1.6200 4.7900
v 4.7348 1.3800 4.4100
v 4.7348 1.6200 4.4100
v 4.7852 1.3800 4.7900
v 4.7852 1.6200 4.7900
v 4.7852 1.3800 4.4100
v 4.7852 1.6200 4.4100
v 5.4548 1.3800 4.7900
v 5.4548 1.6200 4.7900
v 5.4548 1.3800 4.4100
v 5.4548 1.6200 4.4100
v 5.5052 1.3800 4.7900
v 5.5052 1.6200 4.7900
v 5.5052 1.3800 4.4100
v 5.5052 1.6200 4.4100
v 6.1748 1.3800 4.7900
v 6.1748 1.6200 4.7900
v 6.1748 1.3800 4.4100
v 6.1748 1.6200 4.4100
v -0.0800 5.1000 -0.5000
v -0.0800 5.3000 -0.5000
v 1.7600 3.8500 -3.2000
v 1.7600 5.1500 -3.2000
v 1.7131 3.8500 -3.0869
v 1.7131 5.1500 -3.0869
v 1.6000 3.8500 -3.0400
v 1.6000 5.1500 -3.0400
v 1.4869 3.8500 -3.0869
v 1.4869 5.1500 -3.0869
v 1.4400 3.8500 -3.2000
v 1.4400 5.1500 -3.2000
v 1.4869 3.8500 -3.3131
v 1.4869 5.1500 -3.3131
v 1.6000 3.8500 -3.3600
v 1.6000 5.1500 -3.3600
v 1.7131 3.8500 -3.3131
v 1.7131 5.1500 -3.3131
v -1.4400 3.8500 -3.2000
v -1.4400 5.1500 -3.2000
v -1.4869 3.8500 -3.0869
v -1.4869 5.1500 -3.0869
v -1.6000 3.8500 -3.0400
v -1.6000 5.1500 -3.0400
v -1.7131 3.8500 -3.0869
v -1.7131 5.1500 -3.0869
v -1.7600 3.8500 -3.2000
v -1.7600 5.1500 -3.2000
v -1.7131 3.8500 -3.3131
v -1.7131 5.1500 -3.3131
v -1.6000 3.8500 -3.3600
v -1.6000 5.1500 -3.3600
v -1.4869 3.8500 -3.3131
v -1.4869 5.1500 -3.3131
v 0.0900 4.3500 -0.5000
v 0.0900 5.2500 -0.5000
v 0.0450 4.3500 -0.4221
v 0.0450 5.2500 -0.4221
v -0.0450 4.3500 -0.4221
v -0.0450 5.2500 -0.4221
v -0.0900 4.3500 -0.5000
v -0.0900 5.2500 -0.5000
v -0.0450 4.3500 -0.5779
v -0.0450 5.2500 -0.5779
v 0.0450 4.3500 -0.5779
v 0.0450 5.2500 -0.5779
v 0.0800 5.1000 -0.5000
v 0.0800 5.3000 -0.5000
v -0.0800 5.1000 -0.2000
v -0.0800 5.3000 -0.2000
v 0.0800 5.1000 -0.2000
v 0.0800 5.3000 -0.2000
v 2.2250 3.1000 -4.6000
v 2.2250 5.1000 -4.6000
v 2.2000 3.1000 -4.5750
v 2.2000 5.1000 -4.5750
v 2.1750 3.1000 -4.6000
v 2.1750 5.1000 -4.6000
v 2.2000 3.1000 -4.6250
v 2.2000 5.1000 -4.6250
usemtl Mat0
f 2 3 1
f 4 7 3
f 8 5 7
f 6 1 5
f 7 1 3
f 4 6 8
f 10 11 9
f 12 15 11
f 16 13 15
f 14 9 13
f 15 9 11
f 12 14 16
f 26 27 25
f 28 31 27
f 32 29 31
f 30 25 29
f 31 25 27
f 28 30 32
f 34 35 33
f 36 39 35
f 40 37 39
f 38 33 37
f 39 33 35
f 36 38 40
f 58 59 57
f 60 63 59
f 64 61 63
f 62 57 61
f 63 57 59
f 60 62 64
f 74 75 73
f 76 79 75
f 80 77 79
f 78 73 77
f 79 73 75
f 76 78 80
f 178 179 177
f 180 183 179
f 184 181 183
f 182 177 181
f 183 177 179
f 180 182 184
f 186 187 185
f 188 191 187
f 192 189 191
f 190 185 189
f 191 185 187
f 188 190 192
f 194 195 193
f 196 199 195
f 200 197 199
f 198 193 197
f 199 193 195
f 196 198 200
f 202 203 201
f 204 207 203
f 208 205 207
f 206 201 205
f 207 201 203
f 204 206 208
f 210 211 209
f 212 215 211
f 216 213 215
f 214 209 213
f 215 209 211
f 212 214 216
f 218 219 217
f 220 223 219
f 224 221 223
f 222 217 221
f 223 217 219
f 220 222 224
f 226 227 225
f 228 231 227
f 232 229 231
f 230 225 229
f 231 225 227
f 228 230 232
f 234 235 233
f 236 239 235
f 240 237 239
f 238 233 237
f 239 233 235
f 236 238 240
f 242 243 241
f 244 247 243
f 248 245 247
f 246 241 245
f 247 241 243
f 244 246 248
f 250 251 249
f 252 255 251
f 256 253 255
f 254 249 253
f 255 249 251
f 252 254 256
f 258 259 257
f 260 263 259
f 264 261 263
f 262 257 261
f 263 257 259
f 260 262 264
f 266 267 265
f 268 271 267
f 272 269 271
f 270 265 269
f 271 265 267
f 268 270 272
f 274 275 273
f 276 279 275
f 280 277 279
f 278 273 277
f 279 273 275
f 276 278 280
f 282 283 281
f 284 287 283
f 288 285 287
f 286 281 285
f 287 281 283
f 284 286 288
f 290 291 289
f 292 295 291
f 296 293 295
f 294 289 293
f 295 289 291
f 292 294 296
f 298 299 297
f 300 303 299
f 304 301 303
f 302 297 301
f 303 297 299
f 300 302 304
f 306 307 305
f 308 311 307
f 312 309 311
f 310 305 309
f 311 305 307
f 308 310 312
f 314 315 313
f 316 319 315
f 320 317 319
f 318 313 317
f 319 313 315
f 316 318 320
f 322 323 321
f 324 327 323
f 328 325 327
f 326 321 325
f 327 321 323
f 324 326 328
f 330 331 329
f 332 335 331
f 336 333 335
f 334 329 333
f 335 329 331
f 332 334 336
f 338 339 337
f 340 343 339
f 344 341 343
f 342 337 341
f 343 337 339
f 340 342 344
f 346 347 345
f 348 351 347
f 352 349 351
f 350 345 349
f 351 345 347
f 348 350 352
f 354 355 353
f 356 359 355
f 360 357 359
f 358 353 357
f 359 353 355
f 356 358 360
f 362 363 361
f 364 367 363
f 368 365 367
f 366 361 365
f 367 361 363
f 364 366 368
f 370 371 369
f 372 375 371
f 376 373 375
f 374 369 373
f 375 369 371
f 372 374 376
f 378 379 377
f 380 383 379
f 384 381 383
f 382 377 381
f 383 377 379
f 380 382 384
f 386 387 385
f 388 391 387
f 392 389 391
f 390 385 389
f 391 385 387
f 388 390 392
f 394 395 393
f 396 399 395
f 400 397 399
f 398 393 397
f 399 393 395
f 396 398 400
f 402 403 401
f 404 407 403
f 408 405 407
f 406 401 405
f 407 401 403
f 404 406 408
f 410 411 409
f 412 415 411
f 416 413 415
f 414 409 413
f 415 409 411
f 412 414 416
f 418 419 417
f 420 423 419
f 424 421 423
f 422 417 421
f 423 417 419
f 420 422 424
f 426 427 425
f 428 431 427
f 432 429 431
f 430 425 429
f 431 425 427
f 428 430 432
f 434 435 433
f 436 439 435
f 440 437 439
f 438 433 437
f 439 433 435
f 436 438 440
f 442 443 441
f 444 447 443
f 448 445 447
f 446 441 445
f 447 441 443
f 444 446 448
f 450 451 449
f 452 455 451
f 456 453 455
f 454 449 453
f 455 449 451
f 452 454 456
f 458 459 457
f 460 463 459
f 464 461 463
f 462 457 461
f 463 457 459
f 460 462 464
f 466 467 465
f 468 471 467
f 472 469 471
f 470 465 469
f 471 465 467
f 468 470 472
f 474 475 473
f 476 479 475
f 480 477 479
f 478 473 477
f 479 473 475
f 476 478 480
f 482 483 481
f 484 487 483
f 488 485 487
f 486 481 485
f 487 481 483
f 484 486 488
f 490 491 489
f 492 495 491
f 496 493 495
f 494 489 493
f 495 489 491
f 492 494 496
f 498 499 497
f 500 503 499
f 504 501 503
f 502 497 501
f 503 497 499
f 500 502 504
f 2 4 3
f 4 8 7
f 8 6 5
f 6 2 1
f 7 5 1
f 4 2 6
f 10 12 11
f 12 16 15
f 16 14 13
f 14 10 9
f 15 13 9
f 12 10 14
f 26 28 27
f 28 32 31
f 32 30 29
f 30 26 25
f 31 29 25
f 28 26 30
f 34 36 35
f 36 40 39
f 40 38 37
f 38 34 33
f 39 37 33
f 36 34 38
f 58 60 59
f 60 64 63
f 64 62 61
f 62 58 57
f 63 61 57
f 60 58 62
f 74 76 75
f 76 80 79
f 80 78 77
f 78 74 73
f 79 77 73
f 76 74 78
f 178 180 179
f 180 184 183
f 184 182 181
f 182 178 177
f 183 181 177
f 180 178 182
f 186 188 187
f 188 192 191
f 192 190 189
f 190 186 185
f 191 189 185
f 188 186 190
f 194 196 195
f 196 200 199
f 200 198 197
f 198 194 193
f 199 197 193
f 196 194 198
f 202 204 203
f 204 208 207
f 208 206 205
f 206 202 201
f 207 205 201
f 204 202 206
f 210 212 211
f 212 216 215
f 216 214 213
f 214 210 209
f 215 213 209
f 212 210 214
f 218 220 219
f 220 224 223
f 224 222 221
f 222 218 217
f 223 221 217
f 220 218 222
f 226 228 227
f 228 232 231
f 232 230 229
f 230 226 225
f 231 229 225
f 228 226 230
f 234 236 235
f 236 240 239
f 240 238 237
f 238 234 233
f 239 237 233
f 236 234 238
f 242 244 243
f 244 248 247
f 248 246 245
f 246 242 241
f 247 245 241
f 244 242 246
f 250 252 251
f 252 256 255
f 256 254 253
f 254 250 249
f 255 253 249
f 252 250 254
f 258 260 259
f 260 264 263
f 264 262 261
f 262 258 257
f 263 261 257
f 260 258 262
f 266 268 267
f 268 272 271
f 272 270 269
f 270 266 265
f 271 269 265
f 268 266 270
f 274 276 275
f 276 280 279
f 280 278 277
f 278 274 273
f 279 277 273
f 276 274 278
f 282 284 283
f 284 288 287
f 288 286 285
f 286 282 281
f 287 285 281
f 284 282 286
f 290 292 291
f 292 296 295
f 296 294 293
f 294 290 289
f 295 293 289
f 292 290 294
f 298 300 299
f 300 304 303
f 304 302 301
f 302 298 297
f 303 301 297
f 300 298 302
f 306 308 307
f 308 312 311
f 312 310 309
f 310 306 305
f 311 309 305
f 308 306 310
f 314 316 315
f 316 320 319
f 320 318 317
f 318 314 313
f 319 317 313
f 316 314 318
f 322 324 323
f 324 328 327
f 328 326 325
f 326 322 321
f 327 325 321
f 324 322 326
f 330 332 331
f 332 336 335
f 336 334 333
f 334 330 329
f 335 333 329
f 332 330 334
f 338 340 339
f 340 344 343
f 344 342 341
f 342 338 337
f 343 341 337
f 340 338 342
f 346 348 347
f 348 352 351
f 352 350 349
f 350 346 345
f 351 349 345
f 348 346 350
f 354 356 355
f 356 360 359
f 360 358 357
f 358 354 353
f 359 357 353
f 356 354 358
f 362 364 363
f 364 368 367
f 368 366 365
f 366 362 361
f 367 365 361
f 364 362 366
f 370 372 371
f 372 376 375
f 376 374 373
f 374 370 369
f 375 373 369
f 372 370 374
f 378 380 379
f 380 384 383
f 384 382 381
f 382 378 377
f 383 381 377
f 380 378 382
f 386 388 387
f 388 392 391
f 392 390 389
f 390 386 385
f 391 389 385
f 388 386 390
f 394 396 395
f 396 400 399
f 400 398 397
f 398 394 393
f 399 397 393
f 396 394 398
f 402 404 403
f 404 408 407
f 408 406 405
f 406 402 401
f 407 405 401
f 404 402 406
f 410 412 411
f 412 416 415
f 416 414 413
f 414 410 409
f 415 413 409
f 412 410 414
f 418 420 419
f 420 424 423
f 424 422 421
f 422 418 417
f 423 421 417
f 420 418 422
f 426 428 427
f 428 432 431
f 432 430 429
f 430 426 425
f 431 429 425
f 428 426 430
f 434 436 435
f 436 440 439
f 440 438 437
f 438 434 433
f 439 437 433
f 436 434 438
f 442 444 443
f 444 448 447
f 448 446 445
f 446 442 441
f 447 445 441
f 444 442 446
f 450 452 451
f 452 456 455
f 456 454 453
f 454 450 449
f 455 453 449
f 452 450 454
f 458 460 459
f 460 464 463
f 464 462 461
f 462 458 457
f 463 461 457
f 460 458 462
f 466 468 467
f 468 472 471
f 472 470 469
f 470 466 465
f 471 469 465
f 468 466 470
f 474 476 475
f 476 480 479
f 480 478 477
f 478 474 473
f 479 477 473
f 476 474 478
f 482 484 483
f 484 488 487
f 488 486 485
f 486 482 481
f 487 485 481
f 484 482 486
f 490 492 491
f 492 496 495
f 496 494 493
f 494 490 489
f 495 493 489
f 492 490 494
f 498 500 499
f 500 504 503
f 504 502 501
f 502 498 497
f 503 501 497
f 500 498 502
usemtl Mat1
f 18 19 17
f 20 23 19
f 24 21 23
f 22 17 21
f 23 17 19
f 20 22 24
f 82 83 81
f 84 87 83
f 88 85 87
f 86 81 85
f 87 81 83
f 84 86 88
f 106 107 105
f 108 111 107
f 112 109 111
f 110 105 109
f 111 105 107
f 108 110 112
f 114 115 113
f 116 119 115
f 120 117 119
f 118 113 117
f 119 113 115
f 116 118 120
f 130 131 129
f 132 135 131
f 136 133 135
f 134 129 133
f 135 129 131
f 132 134 136
f 138 139 137
f 140 143 139
f 144 141 143
f 142 137 141
f 143 137 139
f 140 142 144
f 146 147 145
f 148 151 147
f 152 149 151
f 150 145 149
f 151 145 147
f 148 150 152
f 162 163 161
f 164 167 163
f 168 165 167
f 166 161 165
f 167 161 163
f 164 166 168
f 170 171 169
f 172 175 171
f 176 173 175
f 174 169 173
f 175 169 171
f 172 174 176
f 18 20 19
f 20 24 23
f 24 22 21
f 22 18 17
f 23 21 17
f 20 18 22
f 82 84 83
f 84 88 87
f 88 86 85
f 86 82 81
f 87 85 81
f 84 82 86
f 106 108 107
f 108 112 111
f 112 110 109
f 110 106 105
f 111 109 105
f 108 106 110
f 114 116 115
f 116 120 119
f 120 118 117
f 118 114 113
f 119 117 113
f 116 114 118
f 130 132 131
f 132 136 135
f 136 134 133
f 134 130 129
f 135 133 129
f 132 130 134
f 138 140 139
f 140 144 143
f 144 142 141
f 142 138 137
f 143 141 137
f 140 138 142
f 146 148 147
f 148 152 151
f 152 150 149
f 150 146 145
f 151 149 145
f 148 146 150
f 162 164 163
f 164 168 167
f 168 166 165
f 166 162 161
f 167 165 161
f 164 162 166
f 170 172 171
f 172 176 175
f 176 174 173
f 174 170 169
f 175 173 169
f 172 170 174
usemtl Mat2
f 42 43 41
f 44 47 43
f 48 45 47
f 46 41 45
f 47 41 43
f 44 46 48
f 50 51 49
f 52 55 51
f 56 53 55
f 54 49 53
f 55 49 51
f 52 54 56
f 66 67 65
f 68 71 67
f 72 69 71
f 70 65 69
f 71 65 67
f 68 70 72
f 90 92 89
f 95 93 96
f 93 90 89
f 94 91 90
f 91 96 92
f 96 89 92
f 42 44 43
f 44 48 47
f 48 46 45
f 46 42 41
f 47 45 41
f 44 42 46
f 50 52 51
f 52 56 55
f 56 54 53
f 54 50 49
f 55 53 49
f 52 50 54
f 66 68 67
f 68 72 71
f 72 70 69
f 70 66 65
f 71 69 65
f 68 66 70
f 90 91 92
f 95 94 93
f 93 94 90
f 94 95 91
f 91 95 96
f 96 93 89
usemtl Mat3
f 98 99 97
f 100 103 99
f 104 101 103
f 102 97 101
f 103 97 99
f 100 102 104
f 122 123 121
f 124 127 123
f 128 125 127
f 126 121 125
f 127 121 123
f 124 126 128
f 558 559 557
f 560 561 559
f 560 564 562
f 562 563 561
f 564 557 563
f 559 563 557
f 98 100 99
f 100 104 103
f 104 102 101
f 102 98 97
f 103 101 97
f 100 98 102
f 122 124 123
f 124 128 127
f 128 126 125
f 126 122 121
f 127 125 121
f 124 122 126
f 558 560 559
f 560 562 561
f 560 558 564
f 562 564 563
f 564 558 557
f 559 561 563
usemtl Mat4
f 154 155 153
f 156 159 155
f 160 157 159
f 158 153 157
f 159 153 155
f 156 158 160
f 520 518 516
f 554 505 553
f 508 509 507
f 532 533 531
f 526 527 525
f 510 511 509
f 530 531 529
f 542 550 546
f 512 513 511
f 552 555 551
f 556 553 555
f 514 515 513
f 542 540 550
f 524 525 523
f 516 517 515
f 528 529 527
f 506 551 505
f 518 519 517
f 508 520 516
f 550 548 546
f 520 521 519
f 540 541 539
f 546 547 545
f 522 507 521
f 517 519 521
f 555 505 551
f 544 545 543
f 534 535 533
f 516 514 512
f 523 525 533
f 536 537 535
f 542 543 541
f 548 549 547
f 538 523 537
f 532 528 524
f 552 554 556
f 550 539 549
f 547 539 543
f 546 544 542
f 508 522 520
f 512 510 508
f 512 508 516
f 521 507 513
f 507 509 513
f 509 511 513
f 513 515 521
f 515 517 521
f 525 527 529
f 529 531 525
f 531 533 525
f 533 535 537
f 537 523 533
f 536 534 532
f 532 530 528
f 528 526 524
f 524 538 536
f 536 532 524
f 543 545 547
f 547 549 539
f 539 541 543
f 154 156 155
f 156 160 159
f 160 158 157
f 158 154 153
f 159 157 153
f 156 154 158
f 554 506 505
f 508 510 509
f 532 534 533
f 526 528 527
f 510 512 511
f 530 532 531
f 512 514 513
f 552 556 555
f 556 554 553
f 514 516 515
f 524 526 525
f 516 518 517
f 528 530 529
f 506 552 551
f 518 520 519
f 520 522 521
f 540 542 541
f 546 548 547
f 522 508 507
f 555 553 505
f 544 546 545
f 534 536 535
f 536 538 537
f 542 544 543
f 548 550 549
f 538 524 523
f 552 506 554
f 550 540 539
