# source: models.blend / Military_Assets / 34_AA_Position
# generated by tools/export_builtin_obj.py (Task69) - do not hand-edit
mtllib Fort_AaPosition.mtl
v -12.0000 0.0000 -12.0000
v -12.0000 0.8000 -12.0000
v -10.6000 0.0000 -12.0000
v -10.6000 0.8000 -12.0000
v -12.0000 0.0000 12.0000
v -12.0000 0.8000 12.0000
v -10.6000 0.0000 12.0000
v -10.6000 0.8000 12.0000
v -10.6000 0.0000 -12.0000
v -10.6000 0.8000 -12.0000
v -1.6000 0.0000 -12.0000
v -1.6000 0.8000 -12.0000
v -10.6000 0.0000 -9.4000
v -10.6000 0.8000 -9.4000
v -1.6000 0.0000 -9.4000
v -1.6000 0.8000 -9.4000
v -10.6000 0.0000 -9.4000
v -10.6000 0.1000 -9.4000
v -5.6000 0.0000 -9.4000
v -5.6000 0.1000 -9.4000
v -10.6000 0.0000 -6.6000
v -10.6000 0.1000 -6.6000
v -5.6000 0.0000 -6.6000
v -5.6000 0.1000 -6.6000
v -10.6000 0.0000 -6.6000
v -10.6000 0.8000 -6.6000
v -5.6000 0.0000 -6.6000
v -5.6000 0.8000 -6.6000
v -10.6000 0.0000 12.0000
v -10.6000 0.8000 12.0000
v -5.6000 0.0000 12.0000
v -5.6000 0.8000 12.0000
v -5.6000 0.0000 -9.4000
v -5.6000 0.8000 -9.4000
v -1.6000 0.0000 -9.4000
v -1.6000 0.8000 -9.4000
v -5.6000 0.0000 -5.6000
v -5.6000 0.8000 -5.6000
v -1.6000 0.0000 -5.6000
v -1.6000 0.8000 -5.6000
v -5.6000 0.0000 -5.6000
v -5.6000 0.3500 -5.6000
v 5.6000 0.0000 -5.6000
v 5.6000 0.3500 -5.6000
v -5.6000 0.0000 5.6000
v -5.6000 0.3500 5.6000
v 5.6000 0.0000 5.6000
v 5.6000 0.3500 5.6000
v -5.6000 0.0000 5.6000
v -5.6000 0.8000 5.6000
v 5.6000 0.0000 5.6000
v 5.6000 0.8000 5.6000
v -5.6000 0.0000 12.0000
v -5.6000 0.8000 12.0000
v 5.6000 0.0000 12.0000
v 5.6000 0.8000 12.0000
v -1.6000 0.0000 -12.0000
v -1.6000 0.8000 -12.0000
v 12.0000 0.0000 -12.0000
v 12.0000 0.8000 -12.0000
v -1.6000 0.0000 -11.0000
v -1.6000 0.8000 -11.0000
v 12.0000 0.0000 -11.0000
v 12.0000 0.8000 -11.0000
v -1.6000 0.0000 -11.0000
v -1.6000 0.2500 -11.0000
v 1.6000 0.0000 -11.0000
v 1.6000 0.2500 -11.0000
v -1.6000 0.0000 -7.4000
v -1.6000 0.2500 -7.4000
v 1.6000 0.0000 -7.4000
v 1.6000 0.2500 -7.4000
v -1.6000 0.0000 -7.4000
v -1.6000 0.8000 -7.4000
v 12.0000 0.0000 -7.4000
v 12.0000 0.8000 -7.4000
v -1.6000 0.0000 -5.6000
v -1.6000 0.8000 -5.6000
v 12.0000 0.0000 -5.6000
v 12.0000 0.8000 -5.6000
v 1.6000 0.0000 -11.0000
v 1.6000 0.8000 -11.0000
v 12.0000 0.0000 -11.0000
v 12.0000 0.8000 -11.0000
v 1.6000 0.0000 -7.4000
v 1.6000 0.8000 -7.4000
v 12.0000 0.0000 -7.4000
v 12.0000 0.8000 -7.4000
v 5.6000 0.0000 -5.6000
v 5.6000 0.8000 -5.6000
v 12.0000 0.0000 -5.6000
v 12.0000 0.8000 -5.6000
v 5.6000 0.0000 6.6000
v 5.6000 0.8000 6.6000
v 12.0000 0.0000 6.6000
v 12.0000 0.8000 6.6000
v 5.6000 0.0000 6.6000
v 5.6000 0.1000 6.6000
v 10.6000 0.0000 6.6000
v 10.6000 0.1000 6.6000
v 5.6000 0.0000 9.4000
v 5.6000 0.1000 9.4000
v 10.6000 0.0000 9.4000
v 10.6000 0.1000 9.4000
v 5.6000 0.0000 9.4000
v 5.6000 0.8000 9.4000
v 12.0000 0.0000 9.4000
v 12.0000 0.8000 9.4000
v 5.6000 0.0000 12.0000
v 5.6000 0.8000 12.0000
v 12.0000 0.0000 12.0000
v 12.0000 0.8000 12.0000
v 10.6000 0.0000 6.6000
v 10.6000 0.8000 6.6000
v 12.0000 0.0000 6.6000
v 12.0000 0.8000 6.6000
v 10.6000 0.0000 9.4000
v 10.6000 0.8000 9.4000
v 12.0000 0.0000 9.4000
v 12.0000 0.8000 9.4000
v -0.6127 0.8000 -6.2153
v -1.4677 0.8000 -8.5645
v -4.3808 0.8000 -7.5042
v -3.5257 0.8000 -5.1550
v -1.1981 2.5000 -6.8003
v -1.5401 2.5000 -7.7400
v -3.7954 2.5000 -6.9192
v -3.4534 2.5000 -5.9795
v -2.5853 0.8000 -5.6852
v -4.1526 0.8000 -7.6329
v -6.5678 0.8000 -5.6894
v -5.0005 0.8000 -3.7417
v -3.3282 2.5000 -6.0501
v -3.9551 2.5000 -6.8291
v -5.8249 2.5000 -5.3245
v -5.1980 2.5000 -4.5454
v -4.2814 0.8000 -4.5469
v -6.3933 0.8000 -5.8848
v -8.0522 0.8000 -3.2660
v -5.9403 0.8000 -1.9282
v -5.1023 2.5000 -4.6526
v -5.9470 2.5000 -5.1878
v -7.2313 2.5000 -3.1603
v -6.3866 2.5000 -2.6252
v -5.5195 0.8000 -2.9224
v -7.9501 0.8000 -3.5072
v -8.6754 0.8000 -0.4932
v -6.2447 0.8000 0.0916
v -6.3306 2.5000 -2.7575
v -7.3028 2.5000 -2.9915
v -7.8643 2.5000 -0.6581
v -6.8920 2.5000 -0.4241
v -6.1672 0.8000 -0.9852
v -8.6565 0.8000 -0.7545
v -8.3705 0.8000 2.3323
v -5.8812 0.8000 2.1016
v -6.8817 2.5000 -0.5675
v -7.8774 2.5000 -0.4752
v -7.6560 2.5000 1.9146
v -6.6603 2.5000 1.8223
v -6.1552 0.8000 1.0574
v -8.4370 0.8000 2.0789
v -7.1703 0.8000 4.9083
v -4.8885 0.8000 3.8868
v -6.6968 2.5000 1.6833
v -7.6095 2.5000 2.0919
v -6.6288 2.5000 4.2824
v -5.7161 2.5000 3.8738
v -5.4849 0.8000 2.9869
v -7.3150 0.8000 4.6900
v -5.2031 0.8000 6.9593
v -3.3730 0.8000 5.2562
v -5.7955 2.5000 3.7540
v -6.5275 2.5000 4.4353
v -4.8925 2.5000 6.1922
v -4.1605 2.5000 5.5109
v -4.2278 0.8000 4.5968
v -5.4105 0.8000 6.7994
v -2.6794 0.8000 8.2659
v -1.4966 0.8000 6.0634
v -4.2743 2.5000 5.4232
v -4.7473 2.5000 6.3042
v -2.6329 2.5000 7.4396
v -2.1598 2.5000 6.5586
v -2.5185 0.8000 5.7151
v -2.9273 0.8000 8.1814
v 0.1310 0.8000 8.6884
v 0.5398 0.8000 6.2220
v -2.2958 2.5000 6.5122
v -2.4594 2.5000 7.4988
v -0.0917 2.5000 7.8912
v 0.0719 2.5000 6.9047
v -0.5398 0.8000 6.2220
v -0.1310 0.8000 8.6884
v 2.9273 0.8000 8.1814
v 2.5185 0.8000 5.7151
v -0.0719 2.5000 6.9047
v 0.0917 2.5000 7.8912
v 2.4594 2.5000 7.4988
v 2.2958 2.5000 6.5122
v 1.4966 0.8000 6.0634
v 2.6794 0.8000 8.2659
v 5.4105 0.8000 6.7994
v 4.2278 0.8000 4.5968
v 2.1598 2.5000 6.5586
v 2.6329 2.5000 7.4396
v 4.7473 2.5000 6.3042
v 4.2743 2.5000 5.4232
v 3.3730 0.8000 5.2562
v 5.2031 0.8000 6.9593
v 7.3150 0.8000 4.6900
v 5.4849 0.8000 2.9869
v 4.1605 2.5000 5.5109
v 4.8925 2.5000 6.1922
v 6.5275 2.5000 4.4353
v 5.7955 2.5000 3.7540
v 4.8885 0.8000 3.8868
v 7.1703 0.8000 4.9083
v 8.4370 0.8000 2.0789
v 6.1552 0.8000 1.0574
v 5.7161 2.5000 3.8738
v 6.6288 2.5000 4.2824
v 7.6095 2.5000 2.0919
v 6.6968 2.5000 1.6833
v 5.8812 0.8000 2.1016
v 8.3705 0.8000 2.3323
v 8.6565 0.8000 -0.7545
v 6.1672 0.8000 -0.9852
v 6.6603 2.5000 1.8223
v 7.6560 2.5000 1.9146
v 7.8774 2.5000 -0.4752
v 6.8817 2.5000 -0.5675
v 6.2447 0.8000 0.0916
v 8.6754 0.8000 -0.4932
v 7.9501 0.8000 -3.5072
v 5.5195 0.8000 -2.9224
v 6.8920 2.5000 -0.4241
v 7.8643 2.5000 -0.6581
v 7.3028 2.5000 -2.9915
v 6.3306 2.5000 -2.7575
v 5.9403 0.8000 -1.9282
v 8.0522 0.8000 -3.2660
v 6.3933 0.8000 -5.8848
v 4.2814 0.8000 -4.5469
v 6.3866 2.5000 -2.6252
v 7.2313 2.5000 -3.1603
v 5.9470 2.5000 -5.1878
v 5.1023 2.5000 -4.6526
v 5.0005 0.8000 -3.7417
v 6.5678 0.8000 -5.6894
v 4.1526 0.8000 -7.6329
v 2.5853 0.8000 -5.6852
v 5.1980 2.5000 -4.5454
v 5.8249 2.5000 -5.3245
v 3.9551 2.5000 -6.8291
v 3.3282 2.5000 -6.0501
v 3.5257 0.8000 -5.1550
v 4.3808 0.8000 -7.5042
v 1.4677 0.8000 -8.5645
v 0.6127 0.8000 -6.2153
v 3.4534 2.5000 -5.9795
v 3.7954 2.5000 -6.9192
v 1.5401 2.5000 -7.7400
v 1.1981 2.5000 -6.8003
v -3.8324 0.3450 -2.7250
v -3.8324 1.3950 -2.7250
v -4.5509 0.3450 -1.1842
v -4.5509 1.3950 -1.1842
v -4.6028 0.3450 -3.0842
v -4.6028 1.3950 -3.0842
v -5.3213 0.3450 -1.5435
v -5.3213 1.3950 -1.5435
v -3.7554 1.3700 -2.7718
v -3.7554 1.5300 -2.7718
v -4.5373 1.3700 -1.0951
v -4.5373 1.5300 -1.0951
v -4.6164 1.3700 -3.1733
v -4.6164 1.5300 -3.1733
v -5.3983 1.3700 -1.4966
v -5.3983 1.5300 -1.4966
v -3.5712 0.3450 3.0594
v -3.5712 1.3950 3.0594
v -2.2500 0.3450 4.1292
v -2.2500 1.3950 4.1292
v -4.1061 0.3450 3.7200
v -4.1061 1.3950 3.7200
v -2.7850 0.3450 4.7898
v -2.7850 1.3950 4.7898
v -3.5980 1.3700 2.9733
v -3.5980 1.5300 2.9733
v -2.1603 1.3700 4.1376
v -2.1603 1.5300 4.1376
v -4.1959 1.3700 3.7116
v -4.1959 1.5300 3.7116
v -2.7581 1.3700 4.8759
v -2.7581 1.5300 4.8759
v 2.1046 0.3450 4.2052
v 2.1046 1.3950 4.2052
v 3.4622 0.3450 3.1821
v 3.4622 1.3950 3.1821
v 2.6161 0.3450 4.8841
v 2.6161 1.3950 4.8841
v 3.9738 0.3450 3.8610
v 3.9738 1.3950 3.8610
v 2.0146 1.3700 4.2104
v 2.0146 1.5300 4.2104
v 3.4920 1.3700 3.0971
v 3.4920 1.5300 3.0971
v 2.5863 1.3700 4.9691
v 2.5863 1.5300 4.9691
v 4.0638 1.3700 3.8558
v 4.0638 1.5300 3.8558
v 4.5895 0.3450 -1.0247
v 4.5895 1.3950 -1.0247
v 3.9252 0.3450 -2.5896
v 3.9252 1.3950 -2.5896
v 5.3719 0.3450 -1.3568
v 5.3719 1.3950 -1.3568
v 4.7076 0.3450 -2.9217
v 4.7076 1.3950 -2.9217
v 4.5727 1.3700 -0.9361
v 4.5727 1.5300 -0.9361
v 3.8499 1.3700 -2.6391
v 3.8499 1.5300 -2.6391
v 5.4472 1.3700 -1.3073
v 5.4472 1.5300 -1.3073
v 4.7244 1.3700 -3.0103
v 4.7244 1.5300 -3.0103
v -1.3000 1.1250 -1.1500
v -1.3000 1.9750 -1.1500
v 2.1000 0.3500 0.0000
v 2.1000 0.6500 0.0000
v 1.8187 0.3500 1.0500
v 1.8187 0.6500 1.0500
v 1.0500 0.3500 1.8187
v 1.0500 0.6500 1.8187
v 0.0000 0.3500 2.1000
v 0.0000 0.6500 2.1000
v -1.0500 0.3500 1.8187
v -1.0500 0.6500 1.8187
v -1.8187 0.3500 1.0500
v -1.8187 0.6500 1.0500
v -2.1000 0.3500 0.0000
v -2.1000 0.6500 0.0000
v -1.8187 0.3500 -1.0500
v -1.8187 0.6500 -1.0500
v -1.0500 0.3500 -1.8187
v -1.0500 0.6500 -1.8187
v 0.0000 0.3500 -2.1000
v 0.0000 0.6500 -2.1000
v 1.0500 0.3500 -1.8187
v 1.0500 0.6500 -1.8187
v 1.8187 0.3500 -1.0500
v 1.8187 0.6500 -1.0500
v 1.5500 0.6250 0.0000
v 1.5500 1.1750 0.0000
v 1.3423 0.6250 0.7750
v 1.3423 1.1750 0.7750
v 0.7750 0.6250 1.3423
v 0.7750 1.1750 1.3423
v 0.0000 0.6250 1.5500
v 0.0000 1.1750 1.5500
v -0.7750 0.6250 1.3423
v -0.7750 1.1750 1.3423
v -1.3423 0.6250 0.7750
v -1.3423 1.1750 0.7750
v -1.5500 0.6250 0.0000
v -1.5500 1.1750 0.0000
v -1.3423 0.6250 -0.7750
v -1.3423 1.1750 -0.7750
v -0.7750 0.6250 -1.3423
v -0.7750 1.1750 -1.3423
v 0.0000 0.6250 -1.5500
v 0.0000 1.1750 -1.5500
v 0.7750 0.6250 -1.3423
v 0.7750 1.1750 -1.3423
v 1.3423 0.6250 -0.7750
v 1.3423 1.1750 -0.7750
v 1.3000 1.1250 -1.1500
v 1.3000 1.9750 -1.1500
v -1.3000 1.1250 1.1500
v -1.3000 1.9750 1.1500
v 1.3000 1.1250 1.1500
v 1.3000 1.9750 1.1500
v 1.1500 1.3500 -0.5500
v 1.1500 2.7500 -0.5500
v 1.4500 1.3500 -0.5500
v 1.4500 2.7500 -0.5500
v 1.1500 1.3500 0.7500
v 1.1500 2.7500 0.7500
v 1.4500 1.3500 0.7500
v 1.4500 2.7500 0.7500
v 0.5750 1.2250 -1.5000
v 0.5750 2.1750 -1.5000
v 1.3250 1.2250 -1.5000
v 1.3250 2.1750 -1.5000
v 0.5750 1.2250 -0.6000
v 0.5750 2.1750 -0.6000
v 1.3250 1.2250 -0.6000
v 1.3250 2.1750 -0.6000
v -1.4500 2.7500 -0.5500
v -1.4500 1.3500 -0.5500
v 1.6000 2.0700 -0.5900
v 1.6000 2.0700 -0.5100
v 1.5427 1.8937 -0.5900
v 1.5427 1.8937 -0.5100
v 1.3927 1.7847 -0.5900
v 1.3927 1.7847 -0.5100
v 1.2073 1.7847 -0.5900
v 1.2073 1.7847 -0.5100
v 1.0573 1.8937 -0.5900
v 1.0573 1.8937 -0.5100
v 1.0000 2.0700 -0.5900
v 1.0000 2.0700 -0.5100
v 1.0573 2.2463 -0.5900
v 1.0573 2.2463 -0.5100
v 1.2073 2.3553 -0.5900
v 1.2073 2.3553 -0.5100
v 1.3927 2.3553 -0.5900
v 1.3927 2.3553 -0.5100
v 1.5427 2.2463 -0.5900
v 1.5427 2.2463 -0.5100
v -1.1500 1.3500 -0.5500
v -1.1500 2.7500 -0.5500
v -1.4500 1.3500 0.7500
v -1.4500 2.7500 0.7500
v -1.1500 1.3500 0.7500
v -1.1500 2.7500 0.7500
v -1.3250 1.2250 -1.5000
v -1.3250 2.1750 -1.5000
v -0.5750 1.2250 -1.5000
v -0.5750 2.1750 -1.5000
v -1.3250 1.2250 -0.6000
v -1.3250 2.1750 -0.6000
v -0.5750 1.2250 -0.6000
v -0.5750 2.1750 -0.6000
v -1.5000 2.7525 1.0379
v -1.5000 1.5741 1.4547
v -1.0000 2.0700 -0.5900
v -1.0000 2.0700 -0.5100
v -1.0573 1.8937 -0.5900
v -1.0573 1.8937 -0.5100
v -1.2073 1.7847 -0.5900
v -1.2073 1.7847 -0.5100
v -1.3927 1.7847 -0.5900
v -1.3927 1.7847 -0.5100
v -1.5427 1.8937 -0.5900
v -1.5427 1.8937 -0.5100
v -1.6000 2.0700 -0.5900
v -1.6000 2.0700 -0.5100
v -1.5427 2.2463 -0.5900
v -1.5427 2.2463 -0.5100
v -1.3927 2.3553 -0.5900
v -1.3927 2.3553 -0.5100
v -1.2073 2.3553 -0.5900
v -1.2073 2.3553 -0.5100
v -1.0573 2.2463 -0.5900
v -1.0573 2.2463 -0.5100
v 1.5000 1.5741 1.4547
v 1.5000 2.7525 1.0379
v -1.5000 1.6475 1.6621
v -1.5000 2.8259 1.2453
v 1.5000 1.6475 1.6621
v 1.5000 2.8259 1.2453
v 0.1300 2.4529 0.0944
v 0.1300 2.2749 0.3841
v 0.3750 2.3426 0.2262
v 0.3750 5.2398 2.0056
v 0.3530 2.3148 0.2714
v 0.3530 5.2120 2.0508
v 0.3000 2.3034 0.2901
v 0.3000 5.2005 2.0695
v 0.2470 2.3148 0.2714
v 0.2470 5.2120 2.0508
v 0.2250 2.3426 0.2262
v 0.2250 5.2398 2.0056
v 0.2470 2.3704 0.1810
v 0.2470 5.2675 1.9604
v 0.3000 2.3819 0.1623
v 0.3000 5.2790 1.9417
v 0.3530 2.3704 0.1810
v 0.3530 5.2675 1.9604
v 0.4150 4.9202 1.8094
v 0.4150 5.3037 2.0449
v 0.3813 4.8777 1.8786
v 0.3813 5.2611 2.1142
v 0.3000 4.8600 1.9073
v 0.3000 5.2435 2.1429
v 0.2187 4.8777 1.8786
v 0.2187 5.2611 2.1142
v 0.1850 4.9202 1.8094
v 0.1850 5.3037 2.0449
v 0.2187 4.9628 1.7401
v 0.2187 5.3462 1.9756
v 0.3000 4.9804 1.7114
v 0.3000 5.3639 1.9469
v 0.3813 4.9628 1.7401
v 0.3813 5.3462 1.9756
v 0.4700 2.2749 0.3841
v 0.4700 2.4529 0.0944
v 0.1300 2.7436 0.6720
v 0.1300 2.9215 0.3822
v 0.4700 2.7436 0.6720
v 0.4700 2.9215 0.3822
v 0.5100 2.2900 -0.4000
v 0.5100 2.9100 -0.4000
v 0.9300 2.2900 -0.4000
v 0.9300 2.9100 -0.4000
v 0.5100 2.2900 0.1000
v 0.5100 2.9100 0.1000
v 0.9300 2.2900 0.1000
v 0.9300 2.9100 0.1000
v -0.4700 2.4529 0.0944
v -0.4700 2.2749 0.3841
v -0.2250 2.3426 0.2262
v -0.2250 5.2398 2.0056
v -0.2470 2.3148 0.2714
v -0.2470 5.2120 2.0508
v -0.3000 2.3034 0.2901
v -0.3000 5.2005 2.0695
v -0.3530 2.3148 0.2714
v -0.3530 5.2120 2.0508
v -0.3750 2.3426 0.2262
v -0.3750 5.2398 2.0056
v -0.3530 2.3704 0.1810
v -0.3530 5.2675 1.9604
v -0.3000 2.3819 0.1623
v -0.3000 5.2790 1.9417
v -0.2470 2.3704 0.1810
v -0.2470 5.2675 1.9604
v -0.1850 4.9202 1.8094
v -0.1850 5.3037 2.0449
v -0.2187 4.8777 1.8786
v -0.2187 5.2611 2.1142
v -0.3000 4.8600 1.9073
v -0.3000 5.2435 2.1429
v -0.3813 4.8777 1.8786
v -0.3813 5.2611 2.1142
v -0.4150 4.9202 1.8094
v -0.4150 5.3037 2.0449
v -0.3813 4.9628 1.7401
v -0.3813 5.3462 1.9756
v -0.3000 4.9804 1.7114
v -0.3000 5.3639 1.9469
v -0.2187 4.9628 1.7401
v -0.2187 5.3462 1.9756
v -0.1300 2.2749 0.3841
v -0.1300 2.4529 0.0944
v -0.4700 2.7436 0.6720
v -0.4700 2.9215 0.3822
v -0.1300 2.7436 0.6720
v -0.1300 2.9215 0.3822
v -0.9300 2.2900 -0.4000
v -0.9300 2.9100 -0.4000
v -0.5100 2.2900 -0.4000
v -0.5100 2.9100 -0.4000
v -0.9300 2.2900 0.1000
v -0.9300 2.9100 0.1000
v -0.5100 2.2900 0.1000
v -0.5100 2.9100 0.1000
v 7.4900 0.8000 -8.5100
v 7.4900 4.0000 -8.5100
v 7.7100 0.8000 -8.5100
v 7.7100 4.0000 -8.5100
v 7.4900 0.8000 -8.2900
v 7.4900 4.0000 -8.2900
v 7.7100 0.8000 -8.2900
v 7.7100 4.0000 -8.2900
v 7.4900 0.8000 -7.6100
v 7.4900 4.0000 -7.6100
v 7.7100 0.8000 -7.6100
v 7.7100 4.0000 -7.6100
v 7.4900 0.8000 -7.3900
v 7.4900 4.0000 -7.3900
v 7.7100 0.8000 -7.3900
v 7.7100 4.0000 -7.3900
v 8.3900 0.8000 -8.5100
v 8.3900 4.0000 -8.5100
v 8.6100 0.8000 -8.5100
v 8.6100 4.0000 -8.5100
v 8.3900 0.8000 -8.2900
v 8.3900 4.0000 -8.2900
v 8.6100 0.8000 -8.2900
v 8.6100 4.0000 -8.2900
v 8.3900 0.8000 -7.6100
v 8.3900 4.0000 -7.6100
v 8.6100 0.8000 -7.6100
v 8.6100 4.0000 -7.6100
v 8.3900 0.8000 -7.3900
v 8.3900 4.0000 -7.3900
v 8.6100 0.8000 -7.3900
v 8.6100 4.0000 -7.3900
v 7.1000 3.9750 -8.9000
v 7.1000 4.4250 -8.9000
v 9.0000 3.9750 -8.9000
v 9.0000 4.4250 -8.9000
v 7.1000 3.9750 -7.0000
v 7.1000 4.4250 -7.0000
v 9.0000 3.9750 -7.0000
v 9.0000 4.4250 -7.0000
v -8.1500 0.7950 7.2000
v -8.1500 1.8450 7.2000
v 9.6000 4.7768 -7.6182
v 9.6000 4.9232 -7.4818
v 9.3923 4.2486 -7.0511
v 9.3923 4.3949 -6.9148
v 8.8250 3.8618 -6.6360
v 8.8250 4.0082 -6.4997
v 8.0500 3.7203 -6.4840
v 8.0500 3.8666 -6.3477
v 7.2750 3.8618 -6.6360
v 7.2750 4.0082 -6.4997
v 6.7077 4.2486 -7.0511
v 6.7077 4.3949 -6.9148
v 6.5000 4.7768 -7.6182
v 6.5000 4.9232 -7.4818
v 6.7077 5.3051 -8.1852
v 6.7077 5.4514 -8.0489
v 7.2750 5.6918 -8.6003
v 7.2750 5.8382 -8.4640
v 8.0500 5.8334 -8.7523
v 8.0500 5.9797 -8.6160
v 8.8250 5.6918 -8.6003
v 8.8250 5.8382 -8.4640
v 9.3923 5.3051 -8.1852
v 9.3923 5.4514 -8.0489
v 9.6500 4.5963 -7.8931
v 9.2500 4.9037 -7.6069
v 9.4356 4.0510 -7.3078
v 9.0892 4.4947 -7.1678
v 8.8500 3.6518 -6.8793
v 8.6500 4.1953 -6.8465
v 8.0500 3.5057 -6.7224
v 8.0500 4.0857 -6.7288
v 7.2500 3.6518 -6.8793
v 7.4500 4.1953 -6.8465
v 6.6644 4.0510 -7.3078
v 7.0108 4.4947 -7.1678
v 6.4500 4.5963 -7.8931
v 6.8500 4.9037 -7.6069
v 6.6644 5.1417 -8.4785
v 7.0108 5.3126 -8.0459
v 7.2500 5.5409 -8.9070
v 7.4500 5.6120 -8.3672
v 8.0500 5.6870 -9.0638
v 8.0500 5.7216 -8.4849
v 8.8500 5.5409 -8.9070
v 8.6500 5.6120 -8.3672
v 9.4356 5.1417 -8.4785
v 9.0892 5.3126 -8.0459
v -7.0500 0.7950 7.2000
v -7.0500 1.8450 7.2000
v -8.1500 0.7950 8.6000
v -8.1500 1.8450 8.6000
v -7.0500 0.7950 8.6000
v -7.0500 1.8450 8.6000
v 3.0975 0.3500 -4.8750
v 3.0975 0.4700 -4.8750
v -7.5500 0.7950 8.4500
v -7.5500 1.8450 8.4500
v -7.6000 0.7950 8.5000
v -7.6000 1.8450 8.5000
v -7.6500 0.7950 8.4500
v -7.6500 1.8450 8.4500
v -7.6000 0.7950 8.4000
v -7.6000 1.8450 8.4000
v -7.0725 0.7950 7.6271
v -7.0725 1.8450 7.6271
v -7.1225 0.7950 7.6771
v -7.1225 1.8450 7.6771
v -7.1725 0.7950 7.6271
v -7.1725 1.8450 7.6271
v -7.1225 0.7950 7.5771
v -7.1225 1.8450 7.5771
v -8.0239 0.7950 7.6208
v -8.0239 1.8450 7.6208
v -8.0739 0.7950 7.6708
v -8.0739 1.8450 7.6708
v -8.1239 0.7950 7.6208
v -8.1239 1.8450 7.6208
v -8.0739 0.7950 7.5708
v -8.0739 1.8450 7.5708
v 3.3550 0.3500 -3.3000
v 3.3550 0.8500 -3.3000
v 3.3275 0.3500 -3.2524
v 3.3275 0.8500 -3.2524
v 3.2725 0.3500 -3.2524
v 3.2725 0.8500 -3.2524
v 3.2450 0.3500 -3.3000
v 3.2450 0.8500 -3.3000
v 3.2725 0.3500 -3.3476
v 3.2725 0.8500 -3.3476
v 3.3275 0.3500 -3.3476
v 3.3275 0.8500 -3.3476
v 3.3550 0.3500 -3.0600
v 3.3550 0.8500 -3.0600
v 3.3275 0.3500 -3.0124
v 3.3275 0.8500 -3.0124
v 3.2725 0.3500 -3.0124
v 3.2725 0.8500 -3.0124
v 3.2450 0.3500 -3.0600
v 3.2450 0.8500 -3.0600
v 3.2725 0.3500 -3.1076
v 3.2725 0.8500 -3.1076
v 3.3275 0.3500 -3.1076
v 3.3275 0.8500 -3.1076
v 3.3550 0.3500 -2.8200
v 3.3550 0.8500 -2.8200
v 3.3275 0.3500 -2.7724
v 3.3275 0.8500 -2.7724
v 3.2725 0.3500 -2.7724
v 3.2725 0.8500 -2.7724
v 3.2450 0.3500 -2.8200
v 3.2450 0.8500 -2.8200
v 3.2725 0.3500 -2.8676
v 3.2725 0.8500 -2.8676
v 3.3275 0.3500 -2.8676
v 3.3275 0.8500 -2.8676
v 3.3550 0.3500 -2.5800
v 3.3550 0.8500 -2.5800
v 3.3275 0.3500 -2.5324
v 3.3275 0.8500 -2.5324
v 3.2725 0.3500 -2.5324
v 3.2725 0.8500 -2.5324
v 3.2450 0.3500 -2.5800
v 3.2450 0.8500 -2.5800
v 3.2725 0.3500 -2.6276
v 3.2725 0.8500 -2.6276
v 3.3275 0.3500 -2.6276
v 3.3275 0.8500 -2.6276
v 3.3550 0.3500 -2.3400
v 3.3550 0.8500 -2.3400
v 3.3275 0.3500 -2.2924
v 3.3275 0.8500 -2.2924
v 3.2725 0.3500 -2.2924
v 3.2725 0.8500 -2.2924
v 3.2450 0.3500 -2.3400
v 3.2450 0.8500 -2.3400
v 3.2725 0.3500 -2.3876
v 3.2725 0.8500 -2.3876
v 3.3275 0.3500 -2.3876
v 3.3275 0.8500 -2.3876
v 3.3550 0.3500 -2.1000
v 3.3550 0.8500 -2.1000
v 3.3275 0.3500 -2.0524
v 3.3275 0.8500 -2.0524
v 3.2725 0.3500 -2.0524
v 3.2725 0.8500 -2.0524
v 3.2450 0.3500 -2.1000
v 3.2450 0.8500 -2.1000
v 3.2725 0.3500 -2.1476
v 3.2725 0.8500 -2.1476
v 3.3275 0.3500 -2.1476
v 3.3275 0.8500 -2.1476
v 3.6350 0.3500 -3.3000
v 3.6350 0.8500 -3.3000
v 3.6075 0.3500 -3.2524
v 3.6075 0.8500 -3.2524
v 3.5525 0.3500 -3.2524
v 3.5525 0.8500 -3.2524
v 3.5250 0.3500 -3.3000
v 3.5250 0.8500 -3.3000
v 3.5525 0.3500 -3.3476
v 3.5525 0.8500 -3.3476
v 3.6075 0.3500 -3.3476
v 3.6075 0.8500 -3.3476
v 3.6350 0.3500 -3.0600
v 3.6350 0.8500 -3.0600
v 3.6075 0.3500 -3.0124
v 3.6075 0.8500 -3.0124
v 3.5525 0.3500 -3.0124
v 3.5525 0.8500 -3.0124
v 3.5250 0.3500 -3.0600
v 3.5250 0.8500 -3.0600
v 3.5525 0.3500 -3.1076
v 3.5525 0.8500 -3.1076
v 3.6075 0.3500 -3.1076
v 3.6075 0.8500 -3.1076
v 3.6350 0.3500 -2.8200
v 3.6350 0.8500 -2.8200
v 3.6075 0.3500 -2.7724
v 3.6075 0.8500 -2.7724
v 3.5525 0.3500 -2.7724
v 3.5525 0.8500 -2.7724
v 3.5250 0.3500 -2.8200
v 3.5250 0.8500 -2.8200
v 3.5525 0.3500 -2.8676
v 3.5525 0.8500 -2.8676
v 3.6075 0.3500 -2.8676
v 3.6075 0.8500 -2.8676
v 3.6350 0.3500 -2.5800
v 3.6350 0.8500 -2.5800
v 3.6075 0.3500 -2.5324
v 3.6075 0.8500 -2.5324
v 3.5525 0.3500 -2.5324
v 3.5525 0.8500 -2.5324
v 3.5250 0.3500 -2.5800
v 3.5250 0.8500 -2.5800
v 3.5525 0.3500 -2.6276
v 3.5525 0.8500 -2.6276
v 3.6075 0.3500 -2.6276
v 3.6075 0.8500 -2.6276
v 3.6350 0.3500 -2.3400
v 3.6350 0.8500 -2.3400
v 3.6075 0.3500 -2.2924
v 3.6075 0.8500 -2.2924
v 3.5525 0.3500 -2.2924
v 3.5525 0.8500 -2.2924
v 3.5250 0.3500 -2.3400
v 3.5250 0.8500 -2.3400
v 3.5525 0.3500 -2.3876
v 3.5525 0.8500 -2.3876
v 3.6075 0.3500 -2.3876
v 3.6075 0.8500 -2.3876
v 3.6350 0.3500 -2.1000
v 3.6350 0.8500 -2.1000
v 3.6075 0.3500 -2.0524
v 3.6075 0.8500 -2.0524
v 3.5525 0.3500 -2.0524
v 3.5525 0.8500 -2.0524
v 3.5250 0.3500 -2.1000
v 3.5250 0.8500 -2.1000
v 3.5525 0.3500 -2.1476
v 3.5525 0.8500 -2.1476
v 3.6075 0.3500 -2.1476
v 3.6075 0.8500 -2.1476
v 3.9025 0.3500 -4.8750
v 3.9025 0.4700 -4.8750
v 3.0975 0.3500 -3.7250
v 3.0975 0.4700 -3.7250
v 3.9025 0.3500 -3.7250
v 3.9025 0.4700 -3.7250
v 3.2100 0.4700 -4.9000
v 3.2100 0.8700 -4.9000
v 3.9100 0.4700 -4.9000
v 3.9100 0.8700 -4.9000
v 3.2100 0.4700 -3.9000
v 3.2100 0.8700 -3.9000
v 3.9100 0.4700 -3.9000
v 3.9100 0.8700 -3.9000
v 3.0900 0.8700 -4.7000
v 3.0900 1.2700 -4.7000
v 3.7900 0.8700 -4.7000
v 3.7900 1.2700 -4.7000
v 3.0900 0.8700 -3.7000
v 3.0900 1.2700 -3.7000
v 3.7900 0.8700 -3.7000
v 3.7900 1.2700 -3.7000
v -5.1500 0.3450 -5.9000
v -5.1500 1.7950 -5.9000
v -2.8500 0.3450 -5.9000
v -2.8500 1.7950 -5.9000
v -5.1500 0.3450 -2.7000
v -5.1500 1.7950 -2.7000
v -2.8500 0.3450 -2.7000
v -2.8500 1.7950 -2.7000
v -5.4000 1.6050 -6.1500
v -5.4000 2.4550 -6.1500
v -2.6000 1.6050 -6.1500
v -2.6000 2.4550 -6.1500
v -5.4000 1.6050 -2.4500
v -5.4000 2.4550 -2.4500
v -2.6000 1.6050 -2.4500
v -2.6000 2.4550 -2.4500
v -4.1000 0.3450 -3.2250
v -4.1000 1.3950 -3.2250
v -3.9000 0.3450 -3.2250
v -3.9000 1.3950 -3.2250
v -4.1000 0.3450 -2.1750
v -4.1000 1.3950 -2.1750
v -3.9000 0.3450 -2.1750
v -3.9000 1.3950 -2.1750
v 2.0000 2.8500 -2.0000
v 2.0000 2.8500 -6.0000
v 2.0700 0.3500 -6.0000
v 2.0700 2.8500 -6.0000
v 2.0350 0.3500 -5.9394
v 2.0350 2.8500 -5.9394
v 1.9650 0.3500 -5.9394
v 1.9650 2.8500 -5.9394
v 1.9300 0.3500 -6.0000
v 1.9300 2.8500 -6.0000
v 1.9650 0.3500 -6.0606
v 1.9650 2.8500 -6.0606
v 2.0350 0.3500 -6.0606
v 2.0350 2.8500 -6.0606
v 5.2700 0.3500 -6.0000
v 5.2700 2.8500 -6.0000
v 5.2350 0.3500 -5.9394
v 5.2350 2.8500 -5.9394
v 5.1650 0.3500 -5.9394
v 5.1650 2.8500 -5.9394
v 5.1300 0.3500 -6.0000
v 5.1300 2.8500 -6.0000
v 5.1650 0.3500 -6.0606
v 5.1650 2.8500 -6.0606
v 5.2350 0.3500 -6.0606
v 5.2350 2.8500 -6.0606
v 2.0700 0.3500 -2.0000
v 2.0700 2.8500 -2.0000
v 2.0350 0.3500 -1.9394
v 2.0350 2.8500 -1.9394
v 1.9650 0.3500 -1.9394
v 1.9650 2.8500 -1.9394
v 1.9300 0.3500 -2.0000
v 1.9300 2.8500 -2.0000
v 1.9650 0.3500 -2.0606
v 1.9650 2.8500 -2.0606
v 2.0350 0.3500 -2.0606
v 2.0350 2.8500 -2.0606
v 5.2700 0.3500 -2.0000
v 5.2700 2.8500 -2.0000
v 5.2350 0.3500 -1.9394
v 5.2350 2.8500 -1.9394
v 5.1650 0.3500 -1.9394
v 5.1650 2.8500 -1.9394
v 5.1300 0.3500 -2.0000
v 5.1300 2.8500 -2.0000
v 5.1650 0.3500 -2.0606
v 5.1650 2.8500 -2.0606
v 5.2350 0.3500 -2.0606
v 5.2350 2.8500 -2.0606
v 5.2000 2.8500 -2.0000
v 5.2000 2.8500 -6.0000
v 2.0000 2.9100 -6.0000
v 2.0000 2.9100 -2.0000
v 5.2000 2.9100 -2.0000
v 5.2000 2.9100 -6.0000
v 1.8080 2.4000 -5.6000
v 1.8080 2.8500 -5.6000
v 2.1920 2.4000 -5.6000
v 2.1920 2.8500 -5.6000
v 1.8080 2.4000 -2.4000
v 1.8080 2.8500 -2.4000
v 2.1920 2.4000 -2.4000
v 2.1920 2.8500 -2.4000
v 5.0080 2.4000 -5.6000
v 5.0080 2.8500 -5.6000
v 5.3920 2.4000 -5.6000
v 5.3920 2.8500 -5.6000
v 5.0080 2.4000 -2.4000
v 5.0080 2.8500 -2.4000
v 5.3920 2.4000 -2.4000
v 5.3920 2.8500 -2.4000
v 2.3200 2.4000 -6.2400
v 2.3200 2.8500 -6.2400
v 4.8800 2.4000 -6.2400
v 4.8800 2.8500 -6.2400
v 2.3200 2.4000 -5.7600
v 2.3200 2.8500 -5.7600
v 4.8800 2.4000 -5.7600
v 4.8800 2.8500 -5.7600
v 2.3200 2.4000 -2.2400
v 2.3200 2.8500 -2.2400
v 4.8800 2.4000 -2.2400
v 4.8800 2.8500 -2.2400
v 2.3200 2.4000 -1.7600
v 2.3200 2.8500 -1.7600
v 4.8800 2.4000 -1.7600
v 4.8800 2.8500 -1.7600
v -5.3750 0.8000 -5.2000
v -5.3750 3.6000 -5.2000
v -5.4000 0.8000 -5.1750
v -5.4000 3.6000 -5.1750
v -5.4250 0.8000 -5.2000
v -5.4250 3.6000 -5.2000
v -5.4000 0.8000 -5.2250
v -5.4000 3.6000 -5.2250
usemtl Mat0
f 2 3 1
f 4 7 3
f 8 5 7
f 6 1 5
f 7 1 3
f 4 6 8
f 10 11 9
f 12 15 11
f 16 13 15
f 14 9 13
f 15 9 11
f 12 14 16
f 26 27 25
f 28 31 27
f 32 29 31
f 30 25 29
f 31 25 27
f 28 30 32
f 34 35 33
f 36 39 35
f 40 37 39
f 38 33 37
f 39 33 35
f 36 38 40
f 50 51 49
f 52 55 51
f 56 53 55
f 54 49 53
f 55 49 51
f 52 54 56
f 58 59 57
f 60 63 59
f 64 61 63
f 62 57 61
f 63 57 59
f 60 62 64
f 74 75 73
f 76 79 75
f 80 77 79
f 78 73 77
f 79 73 75
f 76 78 80
f 82 83 81
f 84 87 83
f 88 85 87
f 86 81 85
f 87 81 83
f 84 86 88
f 90 91 89
f 92 95 91
f 96 93 95
f 94 89 93
f 95 89 91
f 92 94 96
f 106 107 105
f 108 111 107
f 112 109 111
f 110 105 109
f 111 105 107
f 108 110 112
f 114 115 113
f 116 119 115
f 120 117 119
f 118 113 117
f 119 113 115
f 116 118 120
f 124 122 121
f 125 127 128
f 122 125 121
f 123 126 122
f 124 127 123
f 121 128 124
f 129 131 130
f 133 135 136
f 130 133 129
f 131 134 130
f 132 135 131
f 129 136 132
f 140 138 137
f 141 143 144
f 138 141 137
f 139 142 138
f 140 143 139
f 137 144 140
f 148 146 145
f 152 150 151
f 146 149 145
f 147 150 146
f 148 151 147
f 148 149 152
f 156 154 153
f 157 159 160
f 154 157 153
f 155 158 154
f 156 159 155
f 156 157 160
f 164 162 161
f 165 167 168
f 162 165 161
f 163 166 162
f 164 167 163
f 161 168 164
f 172 170 169
f 176 174 175
f 169 174 173
f 171 174 170
f 172 175 171
f 169 176 172
f 180 178 177
f 181 183 184
f 177 182 181
f 179 182 178
f 180 183 179
f 177 184 180
f 188 186 185
f 189 191 192
f 186 189 185
f 187 190 186
f 187 192 191
f 185 192 188
f 196 194 193
f 197 199 200
f 194 197 193
f 195 198 194
f 195 200 199
f 193 200 196
f 204 202 201
f 205 207 208
f 202 205 201
f 203 206 202
f 204 207 203
f 201 208 204
f 212 210 209
f 213 215 216
f 210 213 209
f 211 214 210
f 212 215 211
f 209 216 212
f 220 218 217
f 224 222 223
f 217 222 221
f 219 222 218
f 220 223 219
f 217 224 220
f 228 226 225
f 229 231 232
f 226 229 225
f 227 230 226
f 227 232 231
f 225 232 228
f 233 235 234
f 237 239 240
f 234 237 233
f 235 238 234
f 236 239 235
f 233 240 236
f 244 242 241
f 245 247 248
f 241 246 245
f 242 247 246
f 244 247 243
f 241 248 244
f 252 250 249
f 253 255 256
f 249 254 253
f 251 254 250
f 252 255 251
f 249 256 252
f 260 258 257
f 261 263 264
f 258 261 257
f 259 262 258
f 260 263 259
f 257 264 260
f 858 859 857
f 860 863 859
f 864 861 863
f 862 857 861
f 863 857 859
f 860 862 864
f 2 4 3
f 4 8 7
f 8 6 5
f 6 2 1
f 7 5 1
f 4 2 6
f 10 12 11
f 12 16 15
f 16 14 13
f 14 10 9
f 15 13 9
f 12 10 14
f 26 28 27
f 28 32 31
f 32 30 29
f 30 26 25
f 31 29 25
f 28 26 30
f 34 36 35
f 36 40 39
f 40 38 37
f 38 34 33
f 39 37 33
f 36 34 38
f 50 52 51
f 52 56 55
f 56 54 53
f 54 50 49
f 55 53 49
f 52 50 54
f 58 60 59
f 60 64 63
f 64 62 61
f 62 58 57
f 63 61 57
f 60 58 62
f 74 76 75
f 76 80 79
f 80 78 77
f 78 74 73
f 79 77 73
f 76 74 78
f 82 84 83
f 84 88 87
f 88 86 85
f 86 82 81
f 87 85 81
f 84 82 86
f 90 92 91
f 92 96 95
f 96 94 93
f 94 90 89
f 95 93 89
f 92 90 94
f 106 108 107
f 108 112 111
f 112 110 109
f 110 106 105
f 111 109 105
f 108 106 110
f 114 116 115
f 116 120 119
f 120 118 117
f 118 114 113
f 119 117 113
f 116 114 118
f 124 123 122
f 125 126 127
f 122 126 125
f 123 127 126
f 124 128 127
f 121 125 128
f 129 132 131
f 133 134 135
f 130 134 133
f 131 135 134
f 132 136 135
f 129 133 136
f 140 139 138
f 141 142 143
f 138 142 141
f 139 143 142
f 140 144 143
f 137 141 144
f 148 147 146
f 152 149 150
f 146 150 149
f 147 151 150
f 148 152 151
f 148 145 149
f 156 155 154
f 157 158 159
f 154 158 157
f 155 159 158
f 156 160 159
f 156 153 157
f 164 163 162
f 165 166 167
f 162 166 165
f 163 167 166
f 164 168 167
f 161 165 168
f 172 171 170
f 176 173 174
f 169 170 174
f 171 175 174
f 172 176 175
f 169 173 176
f 180 179 178
f 181 182 183
f 177 178 182
f 179 183 182
f 180 184 183
f 177 181 184
f 188 187 186
f 189 190 191
f 186 190 189
f 187 191 190
f 187 188 192
f 185 189 192
f 196 195 194
f 197 198 199
f 194 198 197
f 195 199 198
f 195 196 200
f 193 197 200
f 204 203 202
f 205 206 207
f 202 206 205
f 203 207 206
f 204 208 207
f 201 205 208
f 212 211 210
f 213 214 215
f 210 214 213
f 211 215 214
f 212 216 215
f 209 213 216
f 220 219 218
f 224 221 222
f 217 218 222
f 219 223 222
f 220 224 223
f 217 221 224
f 228 227 226
f 229 230 231
f 226 230 229
f 227 231 230
f 227 228 232
f 225 229 232
f 233 236 235
f 237 238 239
f 234 238 237
f 235 239 238
f 236 240 239
f 233 237 240
f 244 243 242
f 245 246 247
f 241 242 246
f 242 243 247
f 244 248 247
f 241 245 248
f 252 251 250
f 253 254 255
f 249 250 254
f 251 255 254
f 252 256 255
f 249 253 256
f 260 259 258
f 261 262 263
f 258 262 261
f 259 263 262
f 260 264 263
f 257 261 264
f 858 860 859
f 860 864 863
f 864 862 861
f 862 858 857
f 863 861 857
f 860 858 862
usemtl Mat1
f 18 19 17
f 20 23 19
f 24 21 23
f 22 17 21
f 23 17 19
f 20 22 24
f 42 43 41
f 44 47 43
f 48 45 47
f 46 41 45
f 47 41 43
f 44 46 48
f 66 67 65
f 68 71 67
f 72 69 71
f 70 65 69
f 71 65 67
f 68 70 72
f 98 99 97
f 100 103 99
f 104 101 103
f 102 97 101
f 103 97 99
f 100 102 104
f 18 20 19
f 20 24 23
f 24 22 21
f 22 18 17
f 23 21 17
f 20 18 22
f 42 44 43
f 44 48 47
f 48 46 45
f 46 42 41
f 47 45 41
f 44 42 46
f 66 68 67
f 68 72 71
f 72 70 69
f 70 66 65
f 71 69 65
f 68 66 70
f 98 100 99
f 100 104 103
f 104 102 101
f 102 98 97
f 103 101 97
f 100 98 102
usemtl Mat2
f 266 267 265
f 268 271 267
f 272 269 271
f 270 265 269
f 271 265 267
f 268 270 272
f 282 283 281
f 284 287 283
f 288 285 287
f 286 281 285
f 283 285 281
f 284 286 288
f 298 299 297
f 300 303 299
f 304 301 303
f 302 297 301
f 303 297 299
f 304 298 302
f 314 315 313
f 316 319 315
f 320 317 319
f 318 313 317
f 319 313 315
f 320 314 318
f 400 397 399
f 360 361 359
f 398 393 397
f 366 367 365
f 436 433 435
f 358 359 357
f 399 393 395
f 364 365 363
f 432 435 431
f 356 357 355
f 396 398 400
f 511 505 507
f 368 369 367
f 362 363 361
f 370 371 369
f 396 399 395
f 372 373 371
f 394 395 393
f 374 375 373
f 358 374 366
f 376 377 375
f 378 355 377
f 375 359 367
f 430 431 429
f 432 434 436
f 435 429 431
f 434 429 433
f 510 505 509
f 558 553 557
f 508 511 507
f 506 507 505
f 508 510 512
f 512 509 511
f 559 553 555
f 556 559 555
f 554 555 553
f 556 558 560
f 560 557 559
f 654 601 653
f 655 601 651
f 652 654 656
f 836 839 835
f 656 653 655
f 652 655 651
f 602 651 601
f 838 833 837
f 840 837 839
f 834 835 833
f 839 833 835
f 836 838 840
f 842 843 841
f 844 847 843
f 848 845 847
f 846 841 845
f 847 841 843
f 844 846 848
f 850 851 849
f 852 855 851
f 856 853 855
f 854 849 853
f 855 849 851
f 852 854 856
f 366 364 362
f 362 360 366
f 360 358 366
f 358 356 378
f 378 376 358
f 376 374 358
f 374 372 370
f 370 368 366
f 374 370 366
f 367 369 371
f 371 373 375
f 375 377 355
f 355 357 375
f 357 359 375
f 359 361 363
f 363 365 359
f 365 367 359
f 367 371 375
f 266 268 267
f 268 272 271
f 272 270 269
f 270 266 265
f 271 269 265
f 268 266 270
f 282 284 283
f 284 288 287
f 288 286 285
f 286 282 281
f 283 287 285
f 284 282 286
f 298 300 299
f 300 304 303
f 304 302 301
f 302 298 297
f 303 301 297
f 304 300 298
f 314 316 315
f 316 320 319
f 320 318 317
f 318 314 313
f 319 317 313
f 320 316 314
f 400 398 397
f 360 362 361
f 398 394 393
f 366 368 367
f 436 434 433
f 358 360 359
f 399 397 393
f 364 366 365
f 432 436 435
f 356 358 357
f 396 394 398
f 511 509 505
f 368 370 369
f 362 364 363
f 370 372 371
f 396 400 399
f 372 374 373
f 394 396 395
f 374 376 375
f 376 378 377
f 378 356 355
f 430 432 431
f 432 430 434
f 435 433 429
f 434 430 429
f 510 506 505
f 558 554 553
f 508 512 511
f 506 508 507
f 508 506 510
f 512 510 509
f 559 557 553
f 556 560 559
f 554 556 555
f 556 554 558
f 560 558 557
f 654 602 601
f 655 653 601
f 652 602 654
f 836 840 839
f 656 654 653
f 652 656 655
f 602 652 651
f 838 834 833
f 840 838 837
f 834 836 835
f 839 837 833
f 836 834 838
f 842 844 843
f 844 848 847
f 848 846 845
f 846 842 841
f 847 845 841
f 844 842 846
f 850 852 851
f 852 856 855
f 856 854 853
f 854 850 849
f 855 853 849
f 852 850 854
usemtl Mat3
f 274 275 273
f 276 279 275
f 280 277 279
f 278 273 277
f 275 277 273
f 276 278 280
f 290 291 289
f 292 295 291
f 296 293 295
f 294 289 293
f 295 289 291
f 296 290 294
f 306 307 305
f 308 311 307
f 312 309 311
f 310 305 309
f 311 305 307
f 308 310 312
f 322 323 321
f 324 327 323
f 328 325 327
f 326 321 325
f 327 321 323
f 328 322 326
f 442 443 441
f 404 405 403
f 406 407 405
f 501 465 466
f 408 409 407
f 440 441 439
f 410 411 409
f 467 470 469
f 412 413 411
f 474 475 473
f 414 415 413
f 416 417 415
f 418 419 417
f 420 412 408
f 420 421 419
f 503 466 499
f 422 403 421
f 409 417 421
f 444 445 443
f 472 473 471
f 446 447 445
f 448 449 447
f 490 491 489
f 450 451 449
f 469 472 471
f 452 453 451
f 486 487 485
f 454 455 453
f 440 456 448
f 456 457 455
f 492 493 491
f 458 439 457
f 445 449 457
f 484 485 483
f 476 477 475
f 488 489 487
f 551 514 547
f 477 480 479
f 476 474 472
f 480 481 479
f 504 501 503
f 482 467 481
f 467 469 471
f 500 503 499
f 493 496 495
f 465 499 466
f 483 485 487
f 496 497 495
f 500 502 504
f 515 518 517
f 497 484 483
f 496 494 486
f 540 541 539
f 533 536 535
f 518 519 517
f 537 540 539
f 520 521 519
f 522 523 521
f 549 513 514
f 531 534 533
f 523 526 525
f 535 538 537
f 525 528 527
f 522 520 528
f 527 530 529
f 552 549 551
f 530 515 529
f 521 525 529
f 548 551 547
f 541 544 543
f 513 547 514
f 545 531 533
f 544 545 543
f 548 550 552
f 545 532 531
f 536 532 544
f 664 665 663
f 670 671 669
f 660 664 662
f 678 679 677
f 660 661 659
f 673 669 671
f 678 682 680
f 668 669 667
f 666 659 665
f 659 663 665
f 676 677 675
f 672 673 671
f 662 663 661
f 674 667 673
f 668 672 670
f 680 681 679
f 682 675 681
f 677 681 675
f 408 406 404
f 404 422 420
f 420 418 416
f 416 414 412
f 412 410 408
f 408 404 420
f 420 416 412
f 421 403 409
f 403 405 409
f 405 407 409
f 409 411 417
f 411 413 417
f 413 415 417
f 417 419 421
f 444 442 440
f 440 458 456
f 456 454 452
f 452 450 456
f 450 448 456
f 448 446 444
f 444 440 448
f 441 443 445
f 445 447 449
f 449 451 453
f 453 455 449
f 455 457 449
f 457 439 441
f 441 445 457
f 472 470 468
f 468 482 472
f 482 480 472
f 480 478 472
f 478 476 472
f 471 473 475
f 475 477 471
f 477 479 471
f 479 481 471
f 481 467 471
f 487 489 491
f 491 493 487
f 493 495 487
f 495 497 487
f 497 483 487
f 494 492 490
f 490 488 494
f 488 486 494
f 486 484 498
f 498 496 486
f 520 518 516
f 516 530 520
f 530 528 520
f 528 526 524
f 524 522 528
f 529 515 517
f 517 519 521
f 521 523 525
f 525 527 529
f 529 517 521
f 533 535 537
f 537 539 533
f 539 541 533
f 541 543 533
f 543 545 533
f 544 542 536
f 542 540 536
f 540 538 536
f 536 534 532
f 532 546 544
f 274 276 275
f 276 280 279
f 280 278 277
f 278 274 273
f 275 279 277
f 276 274 278
f 290 292 291
f 292 296 295
f 296 294 293
f 294 290 289
f 295 293 289
f 296 292 290
f 306 308 307
f 308 312 311
f 312 310 309
f 310 306 305
f 311 309 305
f 308 306 310
f 322 324 323
f 324 328 327
f 328 326 325
f 326 322 321
f 327 325 321
f 328 324 322
f 442 444 443
f 404 406 405
f 406 408 407
f 501 502 465
f 408 410 409
f 440 442 441
f 410 412 411
f 467 468 470
f 412 414 413
f 474 476 475
f 414 416 415
f 416 418 417
f 418 420 419
f 420 422 421
f 503 501 466
f 422 404 403
f 444 446 445
f 472 474 473
f 446 448 447
f 448 450 449
f 490 492 491
f 450 452 451
f 469 470 472
f 452 454 453
f 486 488 487
f 454 456 455
f 456 458 457
f 492 494 493
f 458 440 439
f 484 486 485
f 476 478 477
f 488 490 489
f 551 549 514
f 477 478 480
f 480 482 481
f 504 502 501
f 482 468 467
f 500 504 503
f 493 494 496
f 465 500 499
f 496 498 497
f 500 465 502
f 515 516 518
f 497 498 484
f 540 542 541
f 533 534 536
f 518 520 519
f 537 538 540
f 520 522 521
f 522 524 523
f 549 550 513
f 531 532 534
f 523 524 526
f 535 536 538
f 525 526 528
f 527 528 530
f 552 550 549
f 530 516 515
f 548 552 551
f 541 542 544
f 513 548 547
f 544 546 545
f 548 513 550
f 545 546 532
f 664 666 665
f 670 672 671
f 660 666 664
f 678 680 679
f 660 662 661
f 673 667 669
f 678 676 682
f 668 670 669
f 666 660 659
f 659 661 663
f 676 678 677
f 672 674 673
f 662 664 663
f 674 668 667
f 668 674 672
f 680 682 681
f 682 676 675
f 677 679 681
usemtl Mat4
f 332 333 331
f 334 335 333
f 336 337 335
f 338 339 337
f 340 341 339
f 342 343 341
f 344 345 343
f 346 347 345
f 348 349 347
f 350 351 349
f 352 344 336
f 352 353 351
f 354 331 353
f 337 345 353
f 346 344 352
f 332 354 352
f 344 342 336
f 334 332 352
f 336 334 352
f 348 346 352
f 352 350 348
f 342 340 336
f 340 338 336
f 353 331 333
f 333 335 353
f 335 337 353
f 337 339 345
f 339 341 345
f 341 343 345
f 345 347 353
f 347 349 353
f 349 351 353
f 332 334 333
f 334 336 335
f 336 338 337
f 338 340 339
f 340 342 341
f 342 344 343
f 344 346 345
f 346 348 347
f 348 350 349
f 350 352 351
f 352 354 353
f 354 332 331
usemtl Mat5
f 388 391 387
f 382 329 381
f 383 329 379
f 392 389 391
f 380 382 384
f 390 385 389
f 386 387 385
f 391 385 387
f 384 381 383
f 380 383 379
f 330 379 329
f 388 390 392
f 424 426 428
f 427 402 423
f 426 402 425
f 428 425 427
f 424 427 423
f 401 423 402
f 460 462 464
f 463 438 459
f 462 438 461
f 464 461 463
f 460 463 459
f 437 459 438
f 388 392 391
f 382 330 329
f 383 381 329
f 392 390 389
f 380 330 382
f 390 386 385
f 386 388 387
f 391 389 385
f 384 382 381
f 380 384 383
f 330 380 379
f 388 386 390
f 424 401 426
f 427 425 402
f 426 401 402
f 428 426 425
f 424 428 427
f 401 424 423
f 460 437 462
f 463 461 438
f 462 437 438
f 464 462 461
f 460 464 463
f 437 460 459
usemtl Mat6
f 562 563 561
f 564 567 563
f 568 565 567
f 566 561 565
f 567 561 563
f 564 566 568
f 570 571 569
f 572 575 571
f 576 573 575
f 574 569 573
f 575 569 571
f 572 574 576
f 578 579 577
f 580 583 579
f 584 581 583
f 582 577 581
f 583 577 579
f 580 582 584
f 586 587 585
f 588 591 587
f 592 589 591
f 590 585 589
f 591 585 587
f 588 590 592
f 594 595 593
f 596 599 595
f 600 597 599
f 598 593 597
f 599 593 595
f 596 598 600
f 562 564 563
f 564 568 567
f 568 566 565
f 566 562 561
f 567 565 561
f 564 562 566
f 570 572 571
f 572 576 575
f 576 574 573
f 574 570 569
f 575 573 569
f 572 570 574
f 578 580 579
f 580 584 583
f 584 582 581
f 582 578 577
f 583 581 577
f 580 578 582
f 586 588 587
f 588 592 591
f 592 590 589
f 590 586 585
f 591 589 585
f 588 586 590
f 594 596 595
f 596 600 599
f 600 598 597
f 598 594 593
f 599 597 593
f 596 594 598
usemtl Mat7
f 604 605 603
f 605 608 607
f 632 633 631
f 607 610 609
f 610 611 609
f 637 640 639
f 612 613 611
f 630 631 629
f 613 616 615
f 615 618 617
f 635 638 637
f 617 620 619
f 628 629 627
f 620 621 619
f 622 623 621
f 616 612 608
f 624 625 623
f 640 641 639
f 634 635 633
f 626 603 625
f 609 617 625
f 642 643 641
f 644 645 643
f 645 648 647
f 642 638 630
f 648 649 647
f 650 627 649
f 647 631 639
f 608 606 604
f 604 626 624
f 624 622 620
f 620 618 616
f 616 614 612
f 612 610 608
f 608 604 624
f 624 620 608
f 620 616 608
f 625 603 605
f 605 607 625
f 607 609 625
f 609 611 617
f 611 613 617
f 613 615 617
f 617 619 621
f 621 623 617
f 623 625 617
f 638 636 630
f 636 634 630
f 634 632 630
f 630 628 646
f 628 650 646
f 650 648 646
f 646 644 642
f 642 640 638
f 646 642 630
f 639 641 643
f 643 645 639
f 645 647 639
f 647 649 627
f 627 629 647
f 629 631 647
f 631 633 635
f 635 637 631
f 637 639 631
f 604 606 605
f 605 606 608
f 632 634 633
f 607 608 610
f 610 612 611
f 637 638 640
f 612 614 613
f 630 632 631
f 613 614 616
f 615 616 618
f 635 636 638
f 617 618 620
f 628 630 629
f 620 622 621
f 622 624 623
f 624 626 625
f 640 642 641
f 634 636 635
f 626 604 603
f 642 644 643
f 644 646 645
f 645 646 648
f 648 650 649
f 650 628 627
usemtl Mat8
f 686 687 685
f 712 713 711
f 684 685 683
f 710 711 709
f 720 721 719
f 696 697 695
f 688 689 687
f 708 709 707
f 690 691 689
f 692 690 688
f 724 725 723
f 692 693 691
f 700 701 699
f 698 699 697
f 694 683 693
f 693 683 685
f 702 703 701
f 736 737 735
f 697 699 703
f 704 705 703
f 722 723 721
f 732 733 731
f 706 695 705
f 706 704 700
f 714 715 713
f 748 749 747
f 717 707 709
f 716 717 715
f 734 735 733
f 744 745 743
f 718 707 717
f 718 716 712
f 726 727 725
f 760 761 759
f 721 723 727
f 728 729 727
f 746 747 745
f 756 757 755
f 730 719 729
f 730 728 724
f 738 739 737
f 772 773 771
f 733 735 739
f 740 741 739
f 758 759 757
f 768 769 767
f 742 731 741
f 742 740 736
f 750 751 749
f 784 785 783
f 745 747 751
f 752 753 751
f 770 771 769
f 780 781 779
f 754 743 753
f 754 752 748
f 762 763 761
f 796 797 795
f 757 759 763
f 764 765 763
f 782 783 781
f 792 793 791
f 766 755 765
f 766 764 760
f 774 775 773
f 808 809 807
f 769 771 775
f 776 777 775
f 794 795 793
f 804 805 803
f 778 767 777
f 778 776 772
f 786 787 785
f 820 821 819
f 781 783 787
f 788 789 787
f 806 807 805
f 816 817 815
f 790 779 789
f 790 788 784
f 798 799 797
f 793 795 799
f 800 801 799
f 818 819 817
f 802 791 801
f 802 800 796
f 810 811 809
f 805 807 811
f 812 813 811
f 814 803 813
f 814 812 808
f 822 823 821
f 817 819 823
f 824 825 823
f 826 815 825
f 826 824 820
f 688 686 692
f 686 684 692
f 684 694 692
f 685 687 693
f 687 689 693
f 689 691 693
f 699 701 703
f 703 705 695
f 695 697 703
f 704 702 700
f 700 698 696
f 696 706 700
f 709 711 717
f 711 713 717
f 713 715 717
f 716 714 712
f 712 710 708
f 708 718 712
f 723 725 727
f 727 729 719
f 719 721 727
f 728 726 724
f 724 722 720
f 720 730 724
f 735 737 739
f 739 741 731
f 731 733 739
f 740 738 736
f 736 734 732
f 732 742 736
f 747 749 751
f 751 753 743
f 743 745 751
f 752 750 748
f 748 746 744
f 744 754 748
f 759 761 763
f 763 765 755
f 755 757 763
f 764 762 760
f 760 758 756
f 756 766 760
f 771 773 775
f 775 777 767
f 767 769 775
f 776 774 772
f 772 770 768
f 768 778 772
f 783 785 787
f 787 789 779
f 779 781 787
f 788 786 784
f 784 782 780
f 780 790 784
f 795 797 799
f 799 801 791
f 791 793 799
f 800 798 796
f 796 794 792
f 792 802 796
f 807 809 811
f 811 813 803
f 803 805 811
f 812 810 808
f 808 806 804
f 804 814 808
f 819 821 823
f 823 825 815
f 815 817 823
f 824 822 820
f 820 818 816
f 816 826 820
f 686 688 687
f 712 714 713
f 684 686 685
f 710 712 711
f 720 722 721
f 696 698 697
f 688 690 689
f 708 710 709
f 690 692 691
f 724 726 725
f 692 694 693
f 700 702 701
f 698 700 699
f 694 684 683
f 702 704 703
f 736 738 737
f 704 706 705
f 722 724 723
f 732 734 733
f 706 696 695
f 714 716 715
f 748 750 749
f 716 718 717
f 734 736 735
f 744 746 745
f 718 708 707
f 726 728 727
f 760 762 761
f 728 730 729
f 746 748 747
f 756 758 757
f 730 720 719
f 738 740 739
f 772 774 773
f 740 742 741
f 758 760 759
f 768 770 769
f 742 732 731
f 750 752 751
f 784 786 785
f 752 754 753
f 770 772 771
f 780 782 781
f 754 744 743
f 762 764 763
f 796 798 797
f 764 766 765
f 782 784 783
f 792 794 793
f 766 756 755
f 774 776 775
f 808 810 809
f 776 778 777
f 794 796 795
f 804 806 805
f 778 768 767
f 786 788 787
f 820 822 821
f 788 790 789
f 806 808 807
f 816 818 817
f 790 780 779
f 798 800 799
f 800 802 801
f 818 820 819
f 802 792 791
f 810 812 811
f 812 814 813
f 814 804 803
f 822 824 823
f 824 826 825
f 826 816 815
usemtl Mat9
f 828 831 827
f 832 829 831
f 831 657 827
f 828 830 832
f 658 827 657
f 830 657 829
f 876 877 875
f 878 879 877
f 900 901 899
f 888 889 887
f 880 881 879
f 912 913 911
f 882 883 881
f 876 884 880
f 884 885 883
f 892 893 891
f 890 891 889
f 886 875 885
f 883 885 877
f 894 895 893
f 898 896 894
f 896 897 895
f 904 905 903
f 902 903 901
f 898 887 897
f 889 891 895
f 906 907 905
f 900 908 904
f 908 909 907
f 916 917 915
f 914 915 913
f 910 899 909
f 909 899 901
f 918 919 917
f 919 921 911
f 920 921 919
f 922 911 921
f 922 920 916
f 880 878 876
f 876 886 884
f 884 882 880
f 885 875 877
f 877 879 881
f 881 883 877
f 894 892 898
f 892 890 898
f 890 888 898
f 891 893 895
f 895 897 887
f 887 889 895
f 904 902 900
f 900 910 908
f 908 906 904
f 901 903 909
f 903 905 909
f 905 907 909
f 911 913 919
f 913 915 919
f 915 917 919
f 920 918 916
f 916 914 912
f 912 922 916
f 828 832 831
f 832 830 829
f 831 829 657
f 828 658 830
f 658 828 827
f 830 658 657
f 876 878 877
f 878 880 879
f 900 902 901
f 888 890 889
f 880 882 881
f 912 914 913
f 882 884 883
f 884 886 885
f 892 894 893
f 890 892 891
f 886 876 875
f 894 896 895
f 896 898 897
f 904 906 905
f 902 904 903
f 898 888 887
f 906 908 907
f 908 910 909
f 916 918 917
f 914 916 915
f 910 900 899
f 918 920 919
f 920 922 921
f 922 912 911
usemtl Mat10
f 866 867 865
f 868 871 867
f 872 869 871
f 870 865 869
f 871 865 867
f 868 870 872
f 962 963 961
f 964 965 963
f 962 966 964
f 966 967 965
f 968 961 967
f 963 967 961
f 866 868 867
f 868 872 871
f 872 870 869
f 870 866 865
f 871 869 865
f 868 866 870
f 962 964 963
f 964 966 965
f 962 968 966
f 966 968 967
f 968 962 961
f 963 965 967
usemtl Mat11
f 932 935 931
f 930 931 929
f 936 933 935
f 934 929 933
f 874 928 924
f 873 925 874
f 925 927 928
f 924 927 923
f 924 873 874
f 923 926 873
f 935 929 931
f 932 934 936
f 938 939 937
f 940 943 939
f 944 941 943
f 942 937 941
f 943 937 939
f 940 942 944
f 946 947 945
f 948 951 947
f 952 949 951
f 950 945 949
f 951 945 947
f 948 950 952
f 954 955 953
f 956 959 955
f 960 957 959
f 958 953 957
f 959 953 955
f 956 958 960
f 932 936 935
f 930 932 931
f 936 934 933
f 934 930 929
f 874 925 928
f 873 926 925
f 925 926 927
f 924 928 927
f 924 923 873
f 923 927 926
f 935 933 929
f 932 930 934
f 938 940 939
f 940 944 943
f 944 942 941
f 942 938 937
f 943 941 937
f 940 938 942
f 946 948 947
f 948 952 951
f 952 950 949
f 950 946 945
f 951 949 945
f 948 946 950
f 954 956 955
f 956 960 959
f 960 958 957
f 958 954 953
f 959 957 953
f 956 954 958
