# source: models.blend / Military_Assets / 27_Rail_Yard
# generated by tools/export_builtin_obj.py (Task69) - do not hand-edit
mtllib Fort_CargoStation.mtl
v -24.0000 0.0000 -48.0000
v -24.0000 0.3000 -48.0000
v -21.0000 0.0000 -48.0000
v -21.0000 0.3000 -48.0000
v -24.0000 0.0000 48.0000
v -24.0000 0.3000 48.0000
v -21.0000 0.0000 48.0000
v -21.0000 0.3000 48.0000
v -21.0000 0.0000 -48.0000
v -21.0000 0.3000 -48.0000
v -4.4000 0.0000 -48.0000
v -4.4000 0.3000 -48.0000
v -21.0000 0.0000 -40.0000
v -21.0000 0.3000 -40.0000
v -4.4000 0.0000 -40.0000
v -4.4000 0.3000 -40.0000
v -21.0000 0.0000 -40.0000
v -21.0000 0.3000 -40.0000
v -20.0000 0.0000 -40.0000
v -20.0000 0.3000 -40.0000
v -21.0000 0.0000 24.0000
v -21.0000 0.3000 24.0000
v -20.0000 0.0000 24.0000
v -20.0000 0.3000 24.0000
v -21.0000 0.0000 24.0000
v -21.0000 0.3000 24.0000
v -8.0000 0.0000 24.0000
v -8.0000 0.3000 24.0000
v -21.0000 0.0000 48.0000
v -21.0000 0.3000 48.0000
v -8.0000 0.0000 48.0000
v -8.0000 0.3000 48.0000
v -20.0000 0.0000 -40.0000
v -20.0000 0.3000 -40.0000
v -8.0000 0.0000 -40.0000
v -8.0000 0.3000 -40.0000
v -20.0000 0.0000 -36.0000
v -20.0000 0.3000 -36.0000
v -8.0000 0.0000 -36.0000
v -8.0000 0.3000 -36.0000
v -20.0000 0.0000 -36.0000
v -20.0000 0.3000 -36.0000
v -9.0000 0.0000 -36.0000
v -9.0000 0.3000 -36.0000
v -20.0000 0.0000 -35.6000
v -20.0000 0.3000 -35.6000
v -9.0000 0.0000 -35.6000
v -9.0000 0.3000 -35.6000
v -20.0000 0.0000 -35.6000
v -20.0000 0.3000 -35.6000
v -8.0000 0.0000 -35.6000
v -8.0000 0.3000 -35.6000
v -20.0000 0.0000 -30.0000
v -20.0000 0.3000 -30.0000
v -8.0000 0.0000 -30.0000
v -8.0000 0.3000 -30.0000
v -20.0000 0.0000 -30.0000
v -20.0000 0.3000 -30.0000
v -9.0000 0.0000 -30.0000
v -9.0000 0.3000 -30.0000
v -20.0000 0.0000 -29.6000
v -20.0000 0.3000 -29.6000
v -9.0000 0.0000 -29.6000
v -9.0000 0.3000 -29.6000
v -20.0000 0.0000 -29.6000
v -20.0000 0.3000 -29.6000
v -8.0000 0.0000 -29.6000
v -8.0000 0.3000 -29.6000
v -20.0000 0.0000 -24.0000
v -20.0000 0.3000 -24.0000
v -8.0000 0.0000 -24.0000
v -8.0000 0.3000 -24.0000
v -20.0000 0.0000 -24.0000
v -20.0000 0.3000 -24.0000
v -9.0000 0.0000 -24.0000
v -9.0000 0.3000 -24.0000
v -20.0000 0.0000 -23.6000
v -20.0000 0.3000 -23.6000
v -9.0000 0.0000 -23.6000
v -9.0000 0.3000 -23.6000
v -20.0000 0.0000 -23.6000
v -20.0000 0.3000 -23.6000
v -8.0000 0.0000 -23.6000
v -8.0000 0.3000 -23.6000
v -20.0000 0.0000 -18.0000
v -20.0000 0.3000 -18.0000
v -8.0000 0.0000 -18.0000
v -8.0000 0.3000 -18.0000
v -20.0000 0.0000 -18.0000
v -20.0000 0.3000 -18.0000
v -9.0000 0.0000 -18.0000
v -9.0000 0.3000 -18.0000
v -20.0000 0.0000 -17.6000
v -20.0000 0.3000 -17.6000
v -9.0000 0.0000 -17.6000
v -9.0000 0.3000 -17.6000
v -20.0000 0.0000 -17.6000
v -20.0000 0.3000 -17.6000
v -8.0000 0.0000 -17.6000
v -8.0000 0.3000 -17.6000
v -20.0000 0.0000 -12.0000
v -20.0000 0.3000 -12.0000
v -8.0000 0.0000 -12.0000
v -8.0000 0.3000 -12.0000
v -20.0000 0.0000 -12.0000
v -20.0000 0.3000 -12.0000
v -9.0000 0.0000 -12.0000
v -9.0000 0.3000 -12.0000
v -20.0000 0.0000 -11.6000
v -20.0000 0.3000 -11.6000
v -9.0000 0.0000 -11.6000
v -9.0000 0.3000 -11.6000
v -20.0000 0.0000 -11.6000
v -20.0000 0.3000 -11.6000
v -8.0000 0.0000 -11.6000
v -8.0000 0.3000 -11.6000
v -20.0000 0.0000 -6.0000
v -20.0000 0.3000 -6.0000
v -8.0000 0.0000 -6.0000
v -8.0000 0.3000 -6.0000
v -20.0000 0.0000 -6.0000
v -20.0000 0.3000 -6.0000
v -9.0000 0.0000 -6.0000
v -9.0000 0.3000 -6.0000
v -20.0000 0.0000 -5.6000
v -20.0000 0.3000 -5.6000
v -9.0000 0.0000 -5.6000
v -9.0000 0.3000 -5.6000
v -20.0000 0.0000 -5.6000
v -20.0000 0.3000 -5.6000
v -8.0000 0.0000 -5.6000
v -8.0000 0.3000 -5.6000
v -20.0000 0.0000 0.0000
v -20.0000 0.3000 0.0000
v -8.0000 0.0000 0.0000
v -8.0000 0.3000 0.0000
v -20.0000 0.0000 0.0000
v -20.0000 0.3000 0.0000
v -9.0000 0.0000 0.0000
v -9.0000 0.3000 0.0000
v -20.0000 0.0000 0.4000
v -20.0000 0.3000 0.4000
v -9.0000 0.0000 0.4000
v -9.0000 0.3000 0.4000
v -20.0000 0.0000 0.4000
v -20.0000 0.3000 0.4000
v -8.0000 0.0000 0.4000
v -8.0000 0.3000 0.4000
v -20.0000 0.0000 6.0000
v -20.0000 0.3000 6.0000
v -8.0000 0.0000 6.0000
v -8.0000 0.3000 6.0000
v -20.0000 0.0000 6.0000
v -20.0000 0.3000 6.0000
v -9.0000 0.0000 6.0000
v -9.0000 0.3000 6.0000
v -20.0000 0.0000 6.4000
v -20.0000 0.3000 6.4000
v -9.0000 0.0000 6.4000
v -9.0000 0.3000 6.4000
v -20.0000 0.0000 6.4000
v -20.0000 0.3000 6.4000
v -8.0000 0.0000 6.4000
v -8.0000 0.3000 6.4000
v -20.0000 0.0000 12.0000
v -20.0000 0.3000 12.0000
v -8.0000 0.0000 12.0000
v -8.0000 0.3000 12.0000
v -20.0000 0.0000 12.0000
v -20.0000 0.3000 12.0000
v -9.0000 0.0000 12.0000
v -9.0000 0.3000 12.0000
v -20.0000 0.0000 12.4000
v -20.0000 0.3000 12.4000
v -9.0000 0.0000 12.4000
v -9.0000 0.3000 12.4000
v -20.0000 0.0000 12.4000
v -20.0000 0.3000 12.4000
v -8.0000 0.0000 12.4000
v -8.0000 0.3000 12.4000
v -20.0000 0.0000 18.0000
v -20.0000 0.3000 18.0000
v -8.0000 0.0000 18.0000
v -8.0000 0.3000 18.0000
v -20.0000 0.0000 18.0000
v -20.0000 0.3000 18.0000
v -9.0000 0.0000 18.0000
v -9.0000 0.3000 18.0000
v -20.0000 0.0000 18.4000
v -20.0000 0.3000 18.4000
v -9.0000 0.0000 18.4000
v -9.0000 0.3000 18.4000
v -20.0000 0.0000 18.4000
v -20.0000 0.3000 18.4000
v -8.0000 0.0000 18.4000
v -8.0000 0.3000 18.4000
v -20.0000 0.0000 24.0000
v -20.0000 0.3000 24.0000
v -8.0000 0.0000 24.0000
v -8.0000 0.3000 24.0000
v -9.0000 0.0000 -36.0000
v -9.0000 0.3000 -36.0000
v -8.0000 0.0000 -36.0000
v -8.0000 0.3000 -36.0000
v -9.0000 0.0000 -35.6000
v -9.0000 0.3000 -35.6000
v -8.0000 0.0000 -35.6000
v -8.0000 0.3000 -35.6000
v -9.0000 0.0000 -30.0000
v -9.0000 0.3000 -30.0000
v -8.0000 0.0000 -30.0000
v -8.0000 0.3000 -30.0000
v -9.0000 0.0000 -29.6000
v -9.0000 0.3000 -29.6000
v -8.0000 0.0000 -29.6000
v -8.0000 0.3000 -29.6000
v -9.0000 0.0000 -24.0000
v -9.0000 0.3000 -24.0000
v -8.0000 0.0000 -24.0000
v -8.0000 0.3000 -24.0000
v -9.0000 0.0000 -23.6000
v -9.0000 0.3000 -23.6000
v -8.0000 0.0000 -23.6000
v -8.0000 0.3000 -23.6000
v -9.0000 0.0000 -18.0000
v -9.0000 0.3000 -18.0000
v -8.0000 0.0000 -18.0000
v -8.0000 0.3000 -18.0000
v -9.0000 0.0000 -17.6000
v -9.0000 0.3000 -17.6000
v -8.0000 0.0000 -17.6000
v -8.0000 0.3000 -17.6000
v -9.0000 0.0000 -12.0000
v -9.0000 0.3000 -12.0000
v -8.0000 0.0000 -12.0000
v -8.0000 0.3000 -12.0000
v -9.0000 0.0000 -11.6000
v -9.0000 0.3000 -11.6000
v -8.0000 0.0000 -11.6000
v -8.0000 0.3000 -11.6000
v -9.0000 0.0000 -6.0000
v -9.0000 0.3000 -6.0000
v -8.0000 0.0000 -6.0000
v -8.0000 0.3000 -6.0000
v -9.0000 0.0000 -5.6000
v -9.0000 0.3000 -5.6000
v -8.0000 0.0000 -5.6000
v -8.0000 0.3000 -5.6000
v -9.0000 0.0000 0.0000
v -9.0000 0.3000 0.0000
v -8.0000 0.0000 0.0000
v -8.0000 0.3000 0.0000
v -9.0000 0.0000 0.4000
v -9.0000 0.3000 0.4000
v -8.0000 0.0000 0.4000
v -8.0000 0.3000 0.4000
v -9.0000 0.0000 6.0000
v -9.0000 0.3000 6.0000
v -8.0000 0.0000 6.0000
v -8.0000 0.3000 6.0000
v -9.0000 0.0000 6.4000
v -9.0000 0.3000 6.4000
v -8.0000 0.0000 6.4000
v -8.0000 0.3000 6.4000
v -9.0000 0.0000 12.0000
v -9.0000 0.3000 12.0000
v -8.0000 0.0000 12.0000
v -8.0000 0.3000 12.0000
v -9.0000 0.0000 12.4000
v -9.0000 0.3000 12.4000
v -8.0000 0.0000 12.4000
v -8.0000 0.3000 12.4000
v -9.0000 0.0000 18.0000
v -9.0000 0.3000 18.0000
v -8.0000 0.0000 18.0000
v -8.0000 0.3000 18.0000
v -9.0000 0.0000 18.4000
v -9.0000 0.3000 18.4000
v -8.0000 0.0000 18.4000
v -8.0000 0.3000 18.4000
v -8.0000 0.0000 -40.0000
v -8.0000 0.3000 -40.0000
v -4.4000 0.0000 -40.0000
v -4.4000 0.3000 -40.0000
v -8.0000 0.0000 28.0000
v -8.0000 0.3000 28.0000
v -4.4000 0.0000 28.0000
v -4.4000 0.3000 28.0000
v -8.0000 0.0000 28.0000
v -8.0000 0.3000 28.0000
v 2.0000 0.0000 28.0000
v 2.0000 0.3000 28.0000
v -8.0000 0.0000 44.0000
v -8.0000 0.3000 44.0000
v 2.0000 0.0000 44.0000
v 2.0000 0.3000 44.0000
v -8.0000 0.0000 44.0000
v -8.0000 0.3000 44.0000
v -4.4000 0.0000 44.0000
v -4.4000 0.3000 44.0000
v -8.0000 0.0000 48.0000
v -8.0000 0.3000 48.0000
v -4.4000 0.0000 48.0000
v -4.4000 0.3000 48.0000
v -4.4000 0.0000 -48.0000
v -4.4000 0.3000 -48.0000
v 24.0000 0.0000 -48.0000
v 24.0000 0.3000 -48.0000
v -4.4000 0.0000 -46.0000
v -4.4000 0.3000 -46.0000
v 24.0000 0.0000 -46.0000
v 24.0000 0.3000 -46.0000
v -4.4000 0.0000 -46.0000
v -4.4000 0.7200 -46.0000
v 0.4000 0.0000 -46.0000
v 0.4000 0.7200 -46.0000
v -4.4000 0.0000 28.0000
v -4.4000 0.7200 28.0000
v 0.4000 0.0000 28.0000
v 0.4000 0.7200 28.0000
v -4.4000 0.0000 44.0000
v -4.4000 0.7200 44.0000
v 0.4000 0.0000 44.0000
v 0.4000 0.7200 44.0000
v -4.4000 0.0000 46.0000
v -4.4000 0.7200 46.0000
v 0.4000 0.0000 46.0000
v 0.4000 0.7200 46.0000
v -4.4000 0.0000 46.0000
v -4.4000 0.3000 46.0000
v 24.0000 0.0000 46.0000
v 24.0000 0.3000 46.0000
v -4.4000 0.0000 48.0000
v -4.4000 0.3000 48.0000
v 24.0000 0.0000 48.0000
v 24.0000 0.3000 48.0000
v 0.4000 0.0000 -46.0000
v 0.4000 0.3000 -46.0000
v 3.6000 0.0000 -46.0000
v 3.6000 0.3000 -46.0000
v 0.4000 0.0000 28.0000
v 0.4000 0.3000 28.0000
v 3.6000 0.0000 28.0000
v 3.6000 0.3000 28.0000
v 0.4000 0.0000 44.0000
v 0.4000 0.3000 44.0000
v 3.6000 0.0000 44.0000
v 3.6000 0.3000 44.0000
v 0.4000 0.0000 46.0000
v 0.4000 0.3000 46.0000
v 3.6000 0.0000 46.0000
v 3.6000 0.3000 46.0000
v 2.0000 0.0000 28.0000
v 2.0000 0.3000 28.0000
v 3.6000 0.0000 28.0000
v 3.6000 0.3000 28.0000
v 2.0000 0.0000 44.0000
v 2.0000 0.3000 44.0000
v 3.6000 0.0000 44.0000
v 3.6000 0.3000 44.0000
v 3.6000 0.0000 -46.0000
v 3.6000 0.7200 -46.0000
v 8.4000 0.0000 -46.0000
v 8.4000 0.7200 -46.0000
v 3.6000 0.0000 46.0000
v 3.6000 0.7200 46.0000
v 8.4000 0.0000 46.0000
v 8.4000 0.7200 46.0000
v 8.4000 0.0000 -46.0000
v 8.4000 0.3000 -46.0000
v 9.6000 0.0000 -46.0000
v 9.6000 0.3000 -46.0000
v 8.4000 0.0000 46.0000
v 8.4000 0.3000 46.0000
v 9.6000 0.0000 46.0000
v 9.6000 0.3000 46.0000
v 9.6000 0.0000 -46.0000
v 9.6000 0.3000 -46.0000
v 24.0000 0.0000 -46.0000
v 24.0000 0.3000 -46.0000
v 9.6000 0.0000 -40.0000
v 9.6000 0.3000 -40.0000
v 24.0000 0.0000 -40.0000
v 24.0000 0.3000 -40.0000
v 9.6000 0.0000 -40.0000
v 9.6000 0.3000 -40.0000
v 23.0000 0.0000 -40.0000
v 23.0000 0.3000 -40.0000
v 9.6000 0.0000 -30.0000
v 9.6000 0.3000 -30.0000
v 23.0000 0.0000 -30.0000
v 23.0000 0.3000 -30.0000
v 9.6000 0.0000 -30.0000
v 9.6000 1.4000 -30.0000
v 15.0000 0.0000 -30.0000
v 15.0000 1.4000 -30.0000
v 9.6000 0.0000 30.0000
v 9.6000 1.4000 30.0000
v 15.0000 0.0000 30.0000
v 15.0000 1.4000 30.0000
v 9.6000 0.0000 30.0000
v 9.6000 0.3000 30.0000
v 23.0000 0.0000 30.0000
v 23.0000 0.3000 30.0000
v 9.6000 0.0000 40.0000
v 9.6000 0.3000 40.0000
v 23.0000 0.0000 40.0000
v 23.0000 0.3000 40.0000
v 9.6000 0.0000 40.0000
v 9.6000 0.3000 40.0000
v 24.0000 0.0000 40.0000
v 24.0000 0.3000 40.0000
v 9.6000 0.0000 46.0000
v 9.6000 0.3000 46.0000
v 24.0000 0.0000 46.0000
v 24.0000 0.3000 46.0000
v 15.0000 0.0000 -30.0000
v 15.0000 0.3000 -30.0000
v 23.0000 0.0000 -30.0000
v 23.0000 0.3000 -30.0000
v 15.0000 0.0000 30.0000
v 15.0000 0.3000 30.0000
v 23.0000 0.0000 30.0000
v 23.0000 0.3000 30.0000
v 23.0000 0.0000 -40.0000
v 23.0000 0.3000 -40.0000
v 24.0000 0.0000 -40.0000
v 24.0000 0.3000 -40.0000
v 23.0000 0.0000 40.0000
v 23.0000 0.3000 40.0000
v 24.0000 0.0000 40.0000
v 24.0000 0.3000 40.0000
v 4.7500 0.6600 -44.9295
v 4.7500 0.8800 -44.9295
v 7.2500 0.6600 -44.9295
v 7.2500 0.8800 -44.9295
v 4.7500 0.6600 -44.6495
v 4.7500 0.8800 -44.6495
v 7.2500 0.6600 -44.6495
v 7.2500 0.8800 -44.6495
v 4.7500 0.6600 -42.5084
v 4.7500 0.8800 -42.5084
v 7.2500 0.6600 -42.5084
v 7.2500 0.8800 -42.5084
v 4.7500 0.6600 -42.2284
v 4.7500 0.8800 -42.2284
v 7.2500 0.6600 -42.2284
v 7.2500 0.8800 -42.2284
v 4.7500 0.6600 -40.0874
v 4.7500 0.8800 -40.0874
v 7.2500 0.6600 -40.0874
v 7.2500 0.8800 -40.0874
v 4.7500 0.6600 -39.8074
v 4.7500 0.8800 -39.8074
v 7.2500 0.6600 -39.8074
v 7.2500 0.8800 -39.8074
v 4.7500 0.6600 -37.6663
v 4.7500 0.8800 -37.6663
v 7.2500 0.6600 -37.6663
v 7.2500 0.8800 -37.6663
v 4.7500 0.6600 -37.3863
v 4.7500 0.8800 -37.3863
v 7.2500 0.6600 -37.3863
v 7.2500 0.8800 -37.3863
v 4.7500 0.6600 -35.2453
v 4.7500 0.8800 -35.2453
v 7.2500 0.6600 -35.2453
v 7.2500 0.8800 -35.2453
v 4.7500 0.6600 -34.9653
v 4.7500 0.8800 -34.9653
v 7.2500 0.6600 -34.9653
v 7.2500 0.8800 -34.9653
v 4.7500 0.6600 -32.8242
v 4.7500 0.8800 -32.8242
v 7.2500 0.6600 -32.8242
v 7.2500 0.8800 -32.8242
v 4.7500 0.6600 -32.5442
v 4.7500 0.8800 -32.5442
v 7.2500 0.6600 -32.5442
v 7.2500 0.8800 -32.5442
v 4.7500 0.6600 -30.4032
v 4.7500 0.8800 -30.4032
v 7.2500 0.6600 -30.4032
v 7.2500 0.8800 -30.4032
v 4.7500 0.6600 -30.1232
v 4.7500 0.8800 -30.1232
v 7.2500 0.6600 -30.1232
v 7.2500 0.8800 -30.1232
v 4.7500 0.6600 -27.9821
v 4.7500 0.8800 -27.9821
v 7.2500 0.6600 -27.9821
v 7.2500 0.8800 -27.9821
v 4.7500 0.6600 -27.7021
v 4.7500 0.8800 -27.7021
v 7.2500 0.6600 -27.7021
v 7.2500 0.8800 -27.7021
v 4.7500 0.6600 -25.5611
v 4.7500 0.8800 -25.5611
v 7.2500 0.6600 -25.5611
v 7.2500 0.8800 -25.5611
v 4.7500 0.6600 -25.2811
v 4.7500 0.8800 -25.2811
v 7.2500 0.6600 -25.2811
v 7.2500 0.8800 -25.2811
v 4.7500 0.6600 -23.1400
v 4.7500 0.8800 -23.1400
v 7.2500 0.6600 -23.1400
v 7.2500 0.8800 -23.1400
v 4.7500 0.6600 -22.8600
v 4.7500 0.8800 -22.8600
v 7.2500 0.6600 -22.8600
v 7.2500 0.8800 -22.8600
v 4.7500 0.6600 -20.7189
v 4.7500 0.8800 -20.7189
v 7.2500 0.6600 -20.7189
v 7.2500 0.8800 -20.7189
v 4.7500 0.6600 -20.4389
v 4.7500 0.8800 -20.4389
v 7.2500 0.6600 -20.4389
v 7.2500 0.8800 -20.4389
v 4.7500 0.6600 -18.2979
v 4.7500 0.8800 -18.2979
v 7.2500 0.6600 -18.2979
v 7.2500 0.8800 -18.2979
v 4.7500 0.6600 -18.0179
v 4.7500 0.8800 -18.0179
v 7.2500 0.6600 -18.0179
v 7.2500 0.8800 -18.0179
v 4.7500 0.6600 -15.8768
v 4.7500 0.8800 -15.8768
v 7.2500 0.6600 -15.8768
v 7.2500 0.8800 -15.8768
v 4.7500 0.6600 -15.5968
v 4.7500 0.8800 -15.5968
v 7.2500 0.6600 -15.5968
v 7.2500 0.8800 -15.5968
v 4.7500 0.6600 -13.4558
v 4.7500 0.8800 -13.4558
v 7.2500 0.6600 -13.4558
v 7.2500 0.8800 -13.4558
v 4.7500 0.6600 -13.1758
v 4.7500 0.8800 -13.1758
v 7.2500 0.6600 -13.1758
v 7.2500 0.8800 -13.1758
v 4.7500 0.6600 -11.0347
v 4.7500 0.8800 -11.0347
v 7.2500 0.6600 -11.0347
v 7.2500 0.8800 -11.0347
v 4.7500 0.6600 -10.7547
v 4.7500 0.8800 -10.7547
v 7.2500 0.6600 -10.7547
v 7.2500 0.8800 -10.7547
v 4.7500 0.6600 -8.6137
v 4.7500 0.8800 -8.6137
v 7.2500 0.6600 -8.6137
v 7.2500 0.8800 -8.6137
v 4.7500 0.6600 -8.3337
v 4.7500 0.8800 -8.3337
v 7.2500 0.6600 -8.3337
v 7.2500 0.8800 -8.3337
v 4.7500 0.6600 -6.1926
v 4.7500 0.8800 -6.1926
v 7.2500 0.6600 -6.1926
v 7.2500 0.8800 -6.1926
v 4.7500 0.6600 -5.9126
v 4.7500 0.8800 -5.9126
v 7.2500 0.6600 -5.9126
v 7.2500 0.8800 -5.9126
v 4.7500 0.6600 -3.7716
v 4.7500 0.8800 -3.7716
v 7.2500 0.6600 -3.7716
v 7.2500 0.8800 -3.7716
v 4.7500 0.6600 -3.4916
v 4.7500 0.8800 -3.4916
v 7.2500 0.6600 -3.4916
v 7.2500 0.8800 -3.4916
v 4.7500 0.6600 -1.3505
v 4.7500 0.8800 -1.3505
v 7.2500 0.6600 -1.3505
v 7.2500 0.8800 -1.3505
v 4.7500 0.6600 -1.0705
v 4.7500 0.8800 -1.0705
v 7.2500 0.6600 -1.0705
v 7.2500 0.8800 -1.0705
v 4.7500 0.6600 1.0705
v 4.7500 0.8800 1.0705
v 7.2500 0.6600 1.0705
v 7.2500 0.8800 1.0705
v 4.7500 0.6600 1.3505
v 4.7500 0.8800 1.3505
v 7.2500 0.6600 1.3505
v 7.2500 0.8800 1.3505
v 4.7500 0.6600 3.4916
v 4.7500 0.8800 3.4916
v 7.2500 0.6600 3.4916
v 7.2500 0.8800 3.4916
v 4.7500 0.6600 3.7716
v 4.7500 0.8800 3.7716
v 7.2500 0.6600 3.7716
v 7.2500 0.8800 3.7716
v 4.7500 0.6600 5.9126
v 4.7500 0.8800 5.9126
v 7.2500 0.6600 5.9126
v 7.2500 0.8800 5.9126
v 4.7500 0.6600 6.1926
v 4.7500 0.8800 6.1926
v 7.2500 0.6600 6.1926
v 7.2500 0.8800 6.1926
v 4.7500 0.6600 8.3337
v 4.7500 0.8800 8.3337
v 7.2500 0.6600 8.3337
v 7.2500 0.8800 8.3337
v 4.7500 0.6600 8.6137
v 4.7500 0.8800 8.6137
v 7.2500 0.6600 8.6137
v 7.2500 0.8800 8.6137
v 4.7500 0.6600 10.7547
v 4.7500 0.8800 10.7547
v 7.2500 0.6600 10.7547
v 7.2500 0.8800 10.7547
v 4.7500 0.6600 11.0347
v 4.7500 0.8800 11.0347
v 7.2500 0.6600 11.0347
v 7.2500 0.8800 11.0347
v 4.7500 0.6600 13.1758
v 4.7500 0.8800 13.1758
v 7.2500 0.6600 13.1758
v 7.2500 0.8800 13.1758
v 4.7500 0.6600 13.4558
v 4.7500 0.8800 13.4558
v 7.2500 0.6600 13.4558
v 7.2500 0.8800 13.4558
v 4.7500 0.6600 15.5968
v 4.7500 0.8800 15.5968
v 7.2500 0.6600 15.5968
v 7.2500 0.8800 15.5968
v 4.7500 0.6600 15.8768
v 4.7500 0.8800 15.8768
v 7.2500 0.6600 15.8768
v 7.2500 0.8800 15.8768
v 4.7500 0.6600 18.0179
v 4.7500 0.8800 18.0179
v 7.2500 0.6600 18.0179
v 7.2500 0.8800 18.0179
v 4.7500 0.6600 18.2979
v 4.7500 0.8800 18.2979
v 7.2500 0.6600 18.2979
v 7.2500 0.8800 18.2979
v 4.7500 0.6600 20.4389
v 4.7500 0.8800 20.4389
v 7.2500 0.6600 20.4389
v 7.2500 0.8800 20.4389
v 4.7500 0.6600 20.7189
v 4.7500 0.8800 20.7189
v 7.2500 0.6600 20.7189
v 7.2500 0.8800 20.7189
v 4.7500 0.6600 22.8600
v 4.7500 0.8800 22.8600
v 7.2500 0.6600 22.8600
v 7.2500 0.8800 22.8600
v 4.7500 0.6600 23.1400
v 4.7500 0.8800 23.1400
v 7.2500 0.6600 23.1400
v 7.2500 0.8800 23.1400
v 4.7500 0.6600 25.2811
v 4.7500 0.8800 25.2811
v 7.2500 0.6600 25.2811
v 7.2500 0.8800 25.2811
v 4.7500 0.6600 25.5611
v 4.7500 0.8800 25.5611
v 7.2500 0.6600 25.5611
v 7.2500 0.8800 25.5611
v 4.7500 0.6600 27.7021
v 4.7500 0.8800 27.7021
v 7.2500 0.6600 27.7021
v 7.2500 0.8800 27.7021
v 4.7500 0.6600 27.9821
v 4.7500 0.8800 27.9821
v 7.2500 0.6600 27.9821
v 7.2500 0.8800 27.9821
v 4.7500 0.6600 30.1232
v 4.7500 0.8800 30.1232
v 7.2500 0.6600 30.1232
v 7.2500 0.8800 30.1232
v 4.7500 0.6600 30.4032
v 4.7500 0.8800 30.4032
v 7.2500 0.6600 30.4032
v 7.2500 0.8800 30.4032
v 4.7500 0.6600 32.5442
v 4.7500 0.8800 32.5442
v 7.2500 0.6600 32.5442
v 7.2500 0.8800 32.5442
v 4.7500 0.6600 32.8242
v 4.7500 0.8800 32.8242
v 7.2500 0.6600 32.8242
v 7.2500 0.8800 32.8242
v 4.7500 0.6600 34.9653
v 4.7500 0.8800 34.9653
v 7.2500 0.6600 34.9653
v 7.2500 0.8800 34.9653
v 4.7500 0.6600 35.2453
v 4.7500 0.8800 35.2453
v 7.2500 0.6600 35.2453
v 7.2500 0.8800 35.2453
v 4.7500 0.6600 37.3863
v 4.7500 0.8800 37.3863
v 7.2500 0.6600 37.3863
v 7.2500 0.8800 37.3863
v 4.7500 0.6600 37.6663
v 4.7500 0.8800 37.6663
v 7.2500 0.6600 37.6663
v 7.2500 0.8800 37.6663
v 4.7500 0.6600 39.8074
v 4.7500 0.8800 39.8074
v 7.2500 0.6600 39.8074
v 7.2500 0.8800 39.8074
v 4.7500 0.6600 40.0874
v 4.7500 0.8800 40.0874
v 7.2500 0.6600 40.0874
v 7.2500 0.8800 40.0874
v 4.7500 0.6600 42.2284
v 4.7500 0.8800 42.2284
v 7.2500 0.6600 42.2284
v 7.2500 0.8800 42.2284
v 4.7500 0.6600 42.5084
v 4.7500 0.8800 42.5084
v 7.2500 0.6600 42.5084
v 7.2500 0.8800 42.5084
v 4.7500 0.6600 44.6495
v 4.7500 0.8800 44.6495
v 7.2500 0.6600 44.6495
v 7.2500 0.8800 44.6495
v 4.7500 0.6600 44.9295
v 4.7500 0.8800 44.9295
v 7.2500 0.6600 44.9295
v 7.2500 0.8800 44.9295
v 6.6675 0.8300 -46.0000
v 6.6675 1.0100 -46.0000
v 6.7675 0.8300 -46.0000
v 6.7675 1.0100 -46.0000
v 6.6675 0.8300 46.0000
v 6.6675 1.0100 46.0000
v 6.7675 0.8300 46.0000
v 6.7675 1.0100 46.0000
v 5.2325 0.8300 -46.0000
v 5.2325 1.0100 -46.0000
v 5.3325 0.8300 -46.0000
v 5.3325 1.0100 -46.0000
v 5.2325 0.8300 46.0000
v 5.2325 1.0100 46.0000
v 5.3325 0.8300 46.0000
v 5.3325 1.0100 46.0000
v -3.2500 0.6600 -44.9295
v -3.2500 0.8800 -44.9295
v -0.7500 0.6600 -44.9295
v -0.7500 0.8800 -44.9295
v -3.2500 0.6600 -44.6495
v -3.2500 0.8800 -44.6495
v -0.7500 0.6600 -44.6495
v -0.7500 0.8800 -44.6495
v -3.2500 0.6600 -42.5084
v -3.2500 0.8800 -42.5084
v -0.7500 0.6600 -42.5084
v -0.7500 0.8800 -42.5084
v -3.2500 0.6600 -42.2284
v -3.2500 0.8800 -42.2284
v -0.7500 0.6600 -42.2284
v -0.7500 0.8800 -42.2284
v -3.2500 0.6600 -40.0874
v -3.2500 0.8800 -40.0874
v -0.7500 0.6600 -40.0874
v -0.7500 0.8800 -40.0874
v -3.2500 0.6600 -39.8074
v -3.2500 0.8800 -39.8074
v -0.7500 0.6600 -39.8074
v -0.7500 0.8800 -39.8074
v -3.2500 0.6600 -37.6663
v -3.2500 0.8800 -37.6663
v -0.7500 0.6600 -37.6663
v -0.7500 0.8800 -37.6663
v -3.2500 0.6600 -37.3863
v -3.2500 0.8800 -37.3863
v -0.7500 0.6600 -37.3863
v -0.7500 0.8800 -37.3863
v -3.2500 0.6600 -35.2453
v -3.2500 0.8800 -35.2453
v -0.7500 0.6600 -35.2453
v -0.7500 0.8800 -35.2453
v -3.2500 0.6600 -34.9653
v -3.2500 0.8800 -34.9653
v -0.7500 0.6600 -34.9653
v -0.7500 0.8800 -34.9653
v -3.2500 0.6600 -32.8242
v -3.2500 0.8800 -32.8242
v -0.7500 0.6600 -32.8242
v -0.7500 0.8800 -32.8242
v -3.2500 0.6600 -32.5442
v -3.2500 0.8800 -32.5442
v -0.7500 0.6600 -32.5442
v -0.7500 0.8800 -32.5442
v -3.2500 0.6600 -30.4032
v -3.2500 0.8800 -30.4032
v -0.7500 0.6600 -30.4032
v -0.7500 0.8800 -30.4032
v -3.2500 0.6600 -30.1232
v -3.2500 0.8800 -30.1232
v -0.7500 0.6600 -30.1232
v -0.7500 0.8800 -30.1232
v -3.2500 0.6600 -27.9821
v -3.2500 0.8800 -27.9821
v -0.7500 0.6600 -27.9821
v -0.7500 0.8800 -27.9821
v -3.2500 0.6600 -27.7021
v -3.2500 0.8800 -27.7021
v -0.7500 0.6600 -27.7021
v -0.7500 0.8800 -27.7021
v -3.2500 0.6600 -25.5611
v -3.2500 0.8800 -25.5611
v -0.7500 0.6600 -25.5611
v -0.7500 0.8800 -25.5611
v -3.2500 0.6600 -25.2811
v -3.2500 0.8800 -25.2811
v -0.7500 0.6600 -25.2811
v -0.7500 0.8800 -25.2811
v -3.2500 0.6600 -23.1400
v -3.2500 0.8800 -23.1400
v -0.7500 0.6600 -23.1400
v -0.7500 0.8800 -23.1400
v -3.2500 0.6600 -22.8600
v -3.2500 0.8800 -22.8600
v -0.7500 0.6600 -22.8600
v -0.7500 0.8800 -22.8600
v -3.2500 0.6600 -20.7189
v -3.2500 0.8800 -20.7189
v -0.7500 0.6600 -20.7189
v -0.7500 0.8800 -20.7189
v -3.2500 0.6600 -20.4389
v -3.2500 0.8800 -20.4389
v -0.7500 0.6600 -20.4389
v -0.7500 0.8800 -20.4389
v -3.2500 0.6600 -18.2979
v -3.2500 0.8800 -18.2979
v -0.7500 0.6600 -18.2979
v -0.7500 0.8800 -18.2979
v -3.2500 0.6600 -18.0179
v -3.2500 0.8800 -18.0179
v -0.7500 0.6600 -18.0179
v -0.7500 0.8800 -18.0179
v -3.2500 0.6600 -15.8768
v -3.2500 0.8800 -15.8768
v -0.7500 0.6600 -15.8768
v -0.7500 0.8800 -15.8768
v -3.2500 0.6600 -15.5968
v -3.2500 0.8800 -15.5968
v -0.7500 0.6600 -15.5968
v -0.7500 0.8800 -15.5968
v -3.2500 0.6600 -13.4558
v -3.2500 0.8800 -13.4558
v -0.7500 0.6600 -13.4558
v -0.7500 0.8800 -13.4558
v -3.2500 0.6600 -13.1758
v -3.2500 0.8800 -13.1758
v -0.7500 0.6600 -13.1758
v -0.7500 0.8800 -13.1758
v -3.2500 0.6600 -11.0347
v -3.2500 0.8800 -11.0347
v -0.7500 0.6600 -11.0347
v -0.7500 0.8800 -11.0347
v -3.2500 0.6600 -10.7547
v -3.2500 0.8800 -10.7547
v -0.7500 0.6600 -10.7547
v -0.7500 0.8800 -10.7547
v -3.2500 0.6600 -8.6137
v -3.2500 0.8800 -8.6137
v -0.7500 0.6600 -8.6137
v -0.7500 0.8800 -8.6137
v -3.2500 0.6600 -8.3337
v -3.2500 0.8800 -8.3337
v -0.7500 0.6600 -8.3337
v -0.7500 0.8800 -8.3337
v -3.2500 0.6600 -6.1926
v -3.2500 0.8800 -6.1926
v -0.7500 0.6600 -6.1926
v -0.7500 0.8800 -6.1926
v -3.2500 0.6600 -5.9126
v -3.2500 0.8800 -5.9126
v -0.7500 0.6600 -5.9126
v -0.7500 0.8800 -5.9126
v -3.2500 0.6600 -3.7716
v -3.2500 0.8800 -3.7716
v -0.7500 0.6600 -3.7716
v -0.7500 0.8800 -3.7716
v -3.2500 0.6600 -3.4916
v -3.2500 0.8800 -3.4916
v -0.7500 0.6600 -3.4916
v -0.7500 0.8800 -3.4916
v -3.2500 0.6600 -1.3505
v -3.2500 0.8800 -1.3505
v -0.7500 0.6600 -1.3505
v -0.7500 0.8800 -1.3505
v -3.2500 0.6600 -1.0705
v -3.2500 0.8800 -1.0705
v -0.7500 0.6600 -1.0705
v -0.7500 0.8800 -1.0705
v -3.2500 0.6600 1.0705
v -3.2500 0.8800 1.0705
v -0.7500 0.6600 1.0705
v -0.7500 0.8800 1.0705
v -3.2500 0.6600 1.3505
v -3.2500 0.8800 1.3505
v -0.7500 0.6600 1.3505
v -0.7500 0.8800 1.3505
v -3.2500 0.6600 3.4916
v -3.2500 0.8800 3.4916
v -0.7500 0.6600 3.4916
v -0.7500 0.8800 3.4916
v -3.2500 0.6600 3.7716
v -3.2500 0.8800 3.7716
v -0.7500 0.6600 3.7716
v -0.7500 0.8800 3.7716
v -3.2500 0.6600 5.9126
v -3.2500 0.8800 5.9126
v -0.7500 0.6600 5.9126
v -0.7500 0.8800 5.9126
v -3.2500 0.6600 6.1926
v -3.2500 0.8800 6.1926
v -0.7500 0.6600 6.1926
v -0.7500 0.8800 6.1926
v -3.2500 0.6600 8.3337
v -3.2500 0.8800 8.3337
v -0.7500 0.6600 8.3337
v -0.7500 0.8800 8.3337
v -3.2500 0.6600 8.6137
v -3.2500 0.8800 8.6137
v -0.7500 0.6600 8.6137
v -0.7500 0.8800 8.6137
v -3.2500 0.6600 10.7547
v -3.2500 0.8800 10.7547
v -0.7500 0.6600 10.7547
v -0.7500 0.8800 10.7547
v -3.2500 0.6600 11.0347
v -3.2500 0.8800 11.0347
v -0.7500 0.6600 11.0347
v -0.7500 0.8800 11.0347
v -3.2500 0.6600 13.1758
v -3.2500 0.8800 13.1758
v -0.7500 0.6600 13.1758
v -0.7500 0.8800 13.1758
v -3.2500 0.6600 13.4558
v -3.2500 0.8800 13.4558
v -0.7500 0.6600 13.4558
v -0.7500 0.8800 13.4558
v -3.2500 0.6600 15.5968
v -3.2500 0.8800 15.5968
v -0.7500 0.6600 15.5968
v -0.7500 0.8800 15.5968
v -3.2500 0.6600 15.8768
v -3.2500 0.8800 15.8768
v -0.7500 0.6600 15.8768
v -0.7500 0.8800 15.8768
v -3.2500 0.6600 18.0179
v -3.2500 0.8800 18.0179
v -0.7500 0.6600 18.0179
v -0.7500 0.8800 18.0179
v -3.2500 0.6600 18.2979
v -3.2500 0.8800 18.2979
v -0.7500 0.6600 18.2979
v -0.7500 0.8800 18.2979
v -3.2500 0.6600 20.4389
v -3.2500 0.8800 20.4389
v -0.7500 0.6600 20.4389
v -0.7500 0.8800 20.4389
v -3.2500 0.6600 20.7189
v -3.2500 0.8800 20.7189
v -0.7500 0.6600 20.7189
v -0.7500 0.8800 20.7189
v -3.2500 0.6600 22.8600
v -3.2500 0.8800 22.8600
v -0.7500 0.6600 22.8600
v -0.7500 0.8800 22.8600
v -3.2500 0.6600 23.1400
v -3.2500 0.8800 23.1400
v -0.7500 0.6600 23.1400
v -0.7500 0.8800 23.1400
v -3.2500 0.6600 25.2811
v -3.2500 0.8800 25.2811
v -0.7500 0.6600 25.2811
v -0.7500 0.8800 25.2811
v -3.2500 0.6600 25.5611
v -3.2500 0.8800 25.5611
v -0.7500 0.6600 25.5611
v -0.7500 0.8800 25.5611
v -3.2500 0.6600 27.7021
v -3.2500 0.8800 27.7021
v -0.7500 0.6600 27.7021
v -0.7500 0.8800 27.7021
v -3.2500 0.6600 27.9821
v -3.2500 0.8800 27.9821
v -0.7500 0.6600 27.9821
v -0.7500 0.8800 27.9821
v -3.2500 0.6600 30.1232
v -3.2500 0.8800 30.1232
v -0.7500 0.6600 30.1232
v -0.7500 0.8800 30.1232
v -3.2500 0.6600 30.4032
v -3.2500 0.8800 30.4032
v -0.7500 0.6600 30.4032
v -0.7500 0.8800 30.4032
v -3.2500 0.6600 32.5442
v -3.2500 0.8800 32.5442
v -0.7500 0.6600 32.5442
v -0.7500 0.8800 32.5442
v -3.2500 0.6600 32.8242
v -3.2500 0.8800 32.8242
v -0.7500 0.6600 32.8242
v -0.7500 0.8800 32.8242
v -3.2500 0.6600 34.9653
v -3.2500 0.8800 34.9653
v -0.7500 0.6600 34.9653
v -0.7500 0.8800 34.9653
v -3.2500 0.6600 35.2453
v -3.2500 0.8800 35.2453
v -0.7500 0.6600 35.2453
v -0.7500 0.8800 35.2453
v -3.2500 0.6600 37.3863
v -3.2500 0.8800 37.3863
v -0.7500 0.6600 37.3863
v -0.7500 0.8800 37.3863
v -3.2500 0.6600 37.6663
v -3.2500 0.8800 37.6663
v -0.7500 0.6600 37.6663
v -0.7500 0.8800 37.6663
v -3.2500 0.6600 39.8074
v -3.2500 0.8800 39.8074
v -0.7500 0.6600 39.8074
v -0.7500 0.8800 39.8074
v -3.2500 0.6600 40.0874
v -3.2500 0.8800 40.0874
v -0.7500 0.6600 40.0874
v -0.7500 0.8800 40.0874
v -3.2500 0.6600 42.2284
v -3.2500 0.8800 42.2284
v -0.7500 0.6600 42.2284
v -0.7500 0.8800 42.2284
v -3.2500 0.6600 42.5084
v -3.2500 0.8800 42.5084
v -0.7500 0.6600 42.5084
v -0.7500 0.8800 42.5084
v -3.2500 0.6600 44.6495
v -3.2500 0.8800 44.6495
v -0.7500 0.6600 44.6495
v -0.7500 0.8800 44.6495
v -3.2500 0.6600 44.9295
v -3.2500 0.8800 44.9295
v -0.7500 0.6600 44.9295
v -0.7500 0.8800 44.9295
v -1.3325 0.8300 -46.0000
v -1.3325 1.0100 -46.0000
v -1.2325 0.8300 -46.0000
v -1.2325 1.0100 -46.0000
v -1.3325 0.8300 46.0000
v -1.3325 1.0100 46.0000
v -1.2325 0.8300 46.0000
v -1.2325 1.0100 46.0000
v -2.7675 0.8300 -46.0000
v -2.7675 1.0100 -46.0000
v -2.6675 0.8300 -46.0000
v -2.6675 1.0100 -46.0000
v -2.7675 0.8300 46.0000
v -2.7675 1.0100 46.0000
v -2.6675 0.8300 46.0000
v -2.6675 1.0100 46.0000
v -6.6000 0.3000 44.0000
v -6.6000 1.8500 44.0000
v -6.6000 1.8500 30.0000
v -6.6000 0.3000 30.0000
v 0.4000 0.3000 44.0000
v 0.4000 1.8500 44.0000
v 0.4000 1.8500 30.0000
v 0.4000 0.3000 30.0000
v -6.6000 0.3000 30.0000
v -6.6000 1.8500 30.0000
v -6.6000 0.3000 22.0000
v 0.4000 0.3000 30.0000
v 0.4000 1.8500 30.0000
v 0.4000 0.3000 22.0000
v -6.8000 1.8450 43.7000
v -6.8000 2.3950 43.7000
v 0.6000 1.8450 43.7000
v 0.6000 2.3950 43.7000
v -6.8000 1.8450 44.1000
v -6.8000 2.3950 44.1000
v 0.6000 1.8450 44.1000
v 0.6000 2.3950 44.1000
v 9.6000 1.4000 -30.0000
v 9.6000 1.5400 -30.0000
v 10.1000 1.4000 -30.0000
v 10.1000 1.5400 -30.0000
v 9.6000 1.4000 30.0000
v 9.6000 1.5400 30.0000
v 10.1000 1.4000 30.0000
v 10.1000 1.5400 30.0000
v 9.4000 5.1000 -29.0000
v 9.4000 4.8000 -29.0000
v 13.7300 1.4000 -27.0000
v 13.7300 4.8000 -27.0000
v 13.6650 1.4000 -26.8874
v 13.6650 4.8000 -26.8874
v 13.5350 1.4000 -26.8874
v 13.5350 4.8000 -26.8874
v 13.4700 1.4000 -27.0000
v 13.4700 4.8000 -27.0000
v 13.5350 1.4000 -27.1126
v 13.5350 4.8000 -27.1126
v 13.6650 1.4000 -27.1126
v 13.6650 4.8000 -27.1126
v 13.7300 1.4000 -18.0000
v 13.7300 4.8000 -18.0000
v 13.6650 1.4000 -17.8874
v 13.6650 4.8000 -17.8874
v 13.5350 1.4000 -17.8874
v 13.5350 4.8000 -17.8874
v 13.4700 1.4000 -18.0000
v 13.4700 4.8000 -18.0000
v 13.5350 1.4000 -18.1126
v 13.5350 4.8000 -18.1126
v 13.6650 1.4000 -18.1126
v 13.6650 4.8000 -18.1126
v 13.7300 1.4000 -9.0000
v 13.7300 4.8000 -9.0000
v 13.6650 1.4000 -8.8874
v 13.6650 4.8000 -8.8874
v 13.5350 1.4000 -8.8874
v 13.5350 4.8000 -8.8874
v 13.4700 1.4000 -9.0000
v 13.4700 4.8000 -9.0000
v 13.5350 1.4000 -9.1126
v 13.5350 4.8000 -9.1126
v 13.6650 1.4000 -9.1126
v 13.6650 4.8000 -9.1126
v 13.7300 1.4000 0.0000
v 13.7300 4.8000 0.0000
v 13.6650 1.4000 0.1126
v 13.6650 4.8000 0.1126
v 13.5350 1.4000 0.1126
v 13.5350 4.8000 0.1126
v 13.4700 1.4000 0.0000
v 13.4700 4.8000 0.0000
v 13.5350 1.4000 -0.1126
v 13.5350 4.8000 -0.1126
v 13.6650 1.4000 -0.1126
v 13.6650 4.8000 -0.1126
v 13.7300 1.4000 9.0000
v 13.7300 4.8000 9.0000
v 13.6650 1.4000 9.1126
v 13.6650 4.8000 9.1126
v 13.5350 1.4000 9.1126
v 13.5350 4.8000 9.1126
v 13.4700 1.4000 9.0000
v 13.4700 4.8000 9.0000
v 13.5350 1.4000 8.8874
v 13.5350 4.8000 8.8874
v 13.6650 1.4000 8.8874
v 13.6650 4.8000 8.8874
v 13.7300 1.4000 18.0000
v 13.7300 4.8000 18.0000
v 13.6650 1.4000 18.1126
v 13.6650 4.8000 18.1126
v 13.5350 1.4000 18.1126
v 13.5350 4.8000 18.1126
v 13.4700 1.4000 18.0000
v 13.4700 4.8000 18.0000
v 13.5350 1.4000 17.8874
v 13.5350 4.8000 17.8874
v 13.6650 1.4000 17.8874
v 13.6650 4.8000 17.8874
v 13.7300 1.4000 27.0000
v 13.7300 4.8000 27.0000
v 13.6650 1.4000 27.1126
v 13.6650 4.8000 27.1126
v 13.5350 1.4000 27.1126
v 13.5350 4.8000 27.1126
v 13.4700 1.4000 27.0000
v 13.4700 4.8000 27.0000
v 13.5350 1.4000 26.8874
v 13.5350 4.8000 26.8874
v 13.6650 1.4000 26.8874
v 13.6650 4.8000 26.8874
v 15.4000 4.8000 -29.0000
v 15.4000 5.1000 -29.0000
v 9.4000 4.8000 29.0000
v 9.4000 5.1000 29.0000
v 15.4000 4.8000 29.0000
v 15.4000 5.1000 29.0000
v 10.6200 1.4000 -23.2650
v 10.6200 1.5200 -23.2650
v 13.3800 1.4000 -23.2650
v 13.3800 1.5200 -23.2650
v 10.6200 1.4000 -20.7350
v 10.6200 1.5200 -20.7350
v 13.3800 1.4000 -20.7350
v 13.3800 1.5200 -20.7350
v 10.8600 1.5200 -23.2000
v 10.8600 2.3200 -23.2000
v 13.2600 1.5200 -23.2000
v 13.2600 2.3200 -23.2000
v 10.8600 1.5200 -21.0000
v 10.8600 2.3200 -21.0000
v 13.2600 1.5200 -21.0000
v 13.2600 2.3200 -21.0000
v 10.7400 2.3200 -23.0000
v 10.7400 3.1200 -23.0000
v 13.1400 2.3200 -23.0000
v 13.1400 3.1200 -23.0000
v 10.7400 2.3200 -20.8000
v 10.7400 3.1200 -20.8000
v 13.1400 2.3200 -20.8000
v 13.1400 3.1200 -20.8000
v 10.6200 1.4000 -12.2650
v 10.6200 1.5200 -12.2650
v 13.3800 1.4000 -12.2650
v 13.3800 1.5200 -12.2650
v 10.6200 1.4000 -9.7350
v 10.6200 1.5200 -9.7350
v 13.3800 1.4000 -9.7350
v 13.3800 1.5200 -9.7350
v 10.8600 1.5200 -12.2000
v 10.8600 2.3200 -12.2000
v 13.2600 1.5200 -12.2000
v 13.2600 2.3200 -12.2000
v 10.8600 1.5200 -10.0000
v 10.8600 2.3200 -10.0000
v 13.2600 1.5200 -10.0000
v 13.2600 2.3200 -10.0000
v 10.7400 2.3200 -12.0000
v 10.7400 3.1200 -12.0000
v 13.1400 2.3200 -12.0000
v 13.1400 3.1200 -12.0000
v 10.7400 2.3200 -9.8000
v 10.7400 3.1200 -9.8000
v 13.1400 2.3200 -9.8000
v 13.1400 3.1200 -9.8000
v 10.6200 1.4000 -1.2650
v 10.6200 1.5200 -1.2650
v 13.3800 1.4000 -1.2650
v 13.3800 1.5200 -1.2650
v 10.6200 1.4000 1.2650
v 10.6200 1.5200 1.2650
v 13.3800 1.4000 1.2650
v 13.3800 1.5200 1.2650
v 10.8600 1.5200 -1.2000
v 10.8600 2.3200 -1.2000
v 13.2600 1.5200 -1.2000
v 13.2600 2.3200 -1.2000
v 10.8600 1.5200 1.0000
v 10.8600 2.3200 1.0000
v 13.2600 1.5200 1.0000
v 13.2600 2.3200 1.0000
v 10.7400 2.3200 -1.0000
v 10.7400 3.1200 -1.0000
v 13.1400 2.3200 -1.0000
v 13.1400 3.1200 -1.0000
v 10.7400 2.3200 1.2000
v 10.7400 3.1200 1.2000
v 13.1400 2.3200 1.2000
v 13.1400 3.1200 1.2000
v 10.6200 1.4000 9.7350
v 10.6200 1.5200 9.7350
v 13.3800 1.4000 9.7350
v 13.3800 1.5200 9.7350
v 10.6200 1.4000 12.2650
v 10.6200 1.5200 12.2650
v 13.3800 1.4000 12.2650
v 13.3800 1.5200 12.2650
v 10.8600 1.5200 9.8000
v 10.8600 2.3200 9.8000
v 13.2600 1.5200 9.8000
v 13.2600 2.3200 9.8000
v 10.8600 1.5200 12.0000
v 10.8600 2.3200 12.0000
v 13.2600 1.5200 12.0000
v 13.2600 2.3200 12.0000
v 10.7400 2.3200 10.0000
v 10.7400 3.1200 10.0000
v 13.1400 2.3200 10.0000
v 13.1400 3.1200 10.0000
v 10.7400 2.3200 12.2000
v 10.7400 3.1200 12.2000
v 13.1400 2.3200 12.2000
v 13.1400 3.1200 12.2000
v 10.6200 1.4000 20.7350
v 10.6200 1.5200 20.7350
v 13.3800 1.4000 20.7350
v 13.3800 1.5200 20.7350
v 10.6200 1.4000 23.2650
v 10.6200 1.5200 23.2650
v 13.3800 1.4000 23.2650
v 13.3800 1.5200 23.2650
v 10.8600 1.5200 20.8000
v 10.8600 2.3200 20.8000
v 13.2600 1.5200 20.8000
v 13.2600 2.3200 20.8000
v 10.8600 1.5200 23.0000
v 10.8600 2.3200 23.0000
v 13.2600 1.5200 23.0000
v 13.2600 2.3200 23.0000
v 10.7400 2.3200 21.0000
v 10.7400 3.1200 21.0000
v 13.1400 2.3200 21.0000
v 13.1400 3.1200 21.0000
v 10.7400 2.3200 23.2000
v 10.7400 3.1200 23.2000
v 13.1400 2.3200 23.2000
v 13.1400 3.1200 23.2000
v -7.4250 0.3000 10.5750
v -7.4250 11.3000 10.5750
v -6.5750 0.3000 10.5750
v -6.5750 11.3000 10.5750
v -7.4250 0.3000 11.4250
v -7.4250 11.3000 11.4250
v -6.5750 0.3000 11.4250
v -6.5750 11.3000 11.4250
v -7.4250 0.3000 16.5750
v -7.4250 11.3000 16.5750
v -6.5750 0.3000 16.5750
v -6.5750 11.3000 16.5750
v -7.4250 0.3000 17.4250
v -7.4250 11.3000 17.4250
v -6.5750 0.3000 17.4250
v -6.5750 11.3000 17.4250
v -7.5500 11.1500 10.3000
v -7.5500 12.2500 10.3000
v -6.4500 11.1500 10.3000
v -6.4500 12.2500 10.3000
v -7.5500 11.1500 17.7000
v -7.5500 12.2500 17.7000
v -6.4500 11.1500 17.7000
v -6.4500 12.2500 17.7000
v -7.1500 0.3100 -30.0000
v -7.1500 0.5300 -30.0000
v -6.8500 0.3100 -30.0000
v -6.8500 0.5300 -30.0000
v -7.1500 0.3100 30.0000
v -7.1500 0.5300 30.0000
v -6.8500 0.3100 30.0000
v -6.8500 0.5300 30.0000
v 10.5750 0.3000 10.5750
v 10.5750 11.3000 10.5750
v 11.4250 0.3000 10.5750
v 11.4250 11.3000 10.5750
v 10.5750 0.3000 11.4250
v 10.5750 11.3000 11.4250
v 11.4250 0.3000 11.4250
v 11.4250 11.3000 11.4250
v 10.5750 0.3000 16.5750
v 10.5750 11.3000 16.5750
v 11.4250 0.3000 16.5750
v 11.4250 11.3000 16.5750
v 10.5750 0.3000 17.4250
v 10.5750 11.3000 17.4250
v 11.4250 0.3000 17.4250
v 11.4250 11.3000 17.4250
v 10.4500 11.1500 10.3000
v 10.4500 12.2500 10.3000
v 11.5500 11.1500 10.3000
v 11.5500 12.2500 10.3000
v 10.4500 11.1500 17.7000
v 10.4500 12.2500 17.7000
v 11.5500 11.1500 17.7000
v 11.5500 12.2500 17.7000
v 10.8500 0.3100 -30.0000
v 10.8500 0.5300 -30.0000
v 11.1500 0.3100 -30.0000
v 11.1500 0.5300 -30.0000
v 10.8500 0.3100 30.0000
v 10.8500 0.5300 30.0000
v 11.1500 0.3100 30.0000
v 11.1500 0.5300 30.0000
v -7.7000 12.1000 12.4000
v -7.7000 13.7000 12.4000
v 11.7000 12.1000 12.4000
v 11.7000 13.7000 12.4000
v -7.7000 12.1000 15.6000
v -7.7000 13.7000 15.6000
v 11.7000 12.1000 15.6000
v 11.7000 13.7000 15.6000
v -2.8000 10.9500 12.2000
v -2.8000 12.8500 12.2000
v 0.8000 10.9500 12.2000
v 0.8000 12.8500 12.2000
v -2.8000 10.9500 15.8000
v -2.8000 12.8500 15.8000
v 0.8000 10.9500 15.8000
v 0.8000 12.8500 15.8000
v -2.1000 4.5500 12.7000
v -2.1000 3.6500 12.7000
v -0.9100 4.5000 14.0000
v -0.9100 10.9000 14.0000
v -0.9550 4.5000 14.0779
v -0.9550 10.9000 14.0779
v -1.0450 4.5000 14.0779
v -1.0450 10.9000 14.0779
v -1.0900 4.5000 14.0000
v -1.0900 10.9000 14.0000
v -1.0450 4.5000 13.9221
v -1.0450 10.9000 13.9221
v -0.9550 4.5000 13.9221
v -0.9550 10.9000 13.9221
v 0.1000 3.6500 12.7000
v 0.1000 4.5500 12.7000
v -2.1000 3.6500 15.3000
v -2.1000 4.5500 15.3000
v 0.1000 3.6500 15.3000
v 0.1000 4.5500 15.3000
v 12.5000 0.3000 -33.0000
v 12.5000 7.3000 -33.0000
v 23.5000 0.3000 -33.0000
v 23.5000 7.3000 -33.0000
v 12.5000 0.3000 1.0000
v 12.5000 7.3000 1.0000
v 23.5000 0.3000 1.0000
v 23.5000 7.3000 1.0000
v 12.0000 7.3000 -33.5000
v 12.0000 7.8000 -33.5000
v 24.0000 7.3000 -33.5000
v 24.0000 7.8000 -33.5000
v 12.0000 7.3000 1.5000
v 12.0000 7.8000 1.5000
v 24.0000 7.3000 1.5000
v 24.0000 7.8000 1.5000
v 10.8500 0.3000 -33.1500
v 10.8500 4.7000 -33.1500
v 14.2500 0.3000 -33.1500
v 14.2500 4.7000 -33.1500
v 10.8500 0.3000 -32.8500
v 10.8500 4.7000 -32.8500
v 14.2500 0.3000 -32.8500
v 14.2500 4.7000 -32.8500
v 10.8500 0.3000 -21.1500
v 10.8500 4.7000 -21.1500
v 14.2500 0.3000 -21.1500
v 14.2500 4.7000 -21.1500
v 10.8500 0.3000 -20.8500
v 10.8500 4.7000 -20.8500
v 14.2500 0.3000 -20.8500
v 14.2500 4.7000 -20.8500
v 10.8500 0.3000 -9.1500
v 10.8500 4.7000 -9.1500
v 14.2500 0.3000 -9.1500
v 14.2500 4.7000 -9.1500
v 10.8500 0.3000 -8.8500
v 10.8500 4.7000 -8.8500
v 14.2500 0.3000 -8.8500
v 14.2500 4.7000 -8.8500
v 18.5300 0.3000 42.5300
v 18.5300 7.3000 42.5300
v 20.2000 0.3000 -42.0000
v 20.2000 6.3000 -42.0000
v 19.9053 0.3000 -40.9000
v 19.9053 6.3000 -40.9000
v 19.1000 0.3000 -40.0947
v 19.1000 6.3000 -40.0947
v 18.0000 0.3000 -39.8000
v 18.0000 6.3000 -39.8000
v 16.9000 0.3000 -40.0947
v 16.9000 6.3000 -40.0947
v 16.0947 0.3000 -40.9000
v 16.0947 6.3000 -40.9000
v 15.8000 0.3000 -42.0000
v 15.8000 6.3000 -42.0000
v 16.0947 0.3000 -43.1000
v 16.0947 6.3000 -43.1000
v 16.9000 0.3000 -43.9053
v 16.9000 6.3000 -43.9053
v 18.0000 0.3000 -44.2000
v 18.0000 6.3000 -44.2000
v 19.1000 0.3000 -43.9053
v 19.1000 6.3000 -43.9053
v 19.9053 0.3000 -43.1000
v 19.9053 6.3000 -43.1000
v 20.3000 6.3000 -42.0000
v 20.3000 6.7000 -42.0000
v 19.9919 6.3000 -40.8500
v 19.9919 6.7000 -40.8500
v 19.1500 6.3000 -40.0081
v 19.1500 6.7000 -40.0081
v 18.0000 6.3000 -39.7000
v 18.0000 6.7000 -39.7000
v 16.8500 6.3000 -40.0081
v 16.8500 6.7000 -40.0081
v 16.0081 6.3000 -40.8500
v 16.0081 6.7000 -40.8500
v 15.7000 6.3000 -42.0000
v 15.7000 6.7000 -42.0000
v 16.0081 6.3000 -43.1500
v 16.0081 6.7000 -43.1500
v 16.8500 6.3000 -43.9919
v 16.8500 6.7000 -43.9919
v 18.0000 6.3000 -44.3000
v 18.0000 6.7000 -44.3000
v 19.1500 6.3000 -43.9919
v 19.1500 6.7000 -43.9919
v 19.9919 6.3000 -43.1500
v 19.9919 6.7000 -43.1500
v 18.8700 0.3000 42.5300
v 18.8700 7.3000 42.5300
v 18.5300 0.3000 42.8700
v 18.5300 7.3000 42.8700
v 18.8700 0.3000 42.8700
v 18.8700 7.3000 42.8700
v 21.1300 0.3000 42.5300
v 21.1300 7.3000 42.5300
v 21.4700 0.3000 42.5300
v 21.4700 7.3000 42.5300
v 21.1300 0.3000 42.8700
v 21.1300 7.3000 42.8700
v 21.4700 0.3000 42.8700
v 21.4700 7.3000 42.8700
v 18.5300 0.3000 45.1300
v 18.5300 7.3000 45.1300
v 18.8700 0.3000 45.1300
v 18.8700 7.3000 45.1300
v 18.5300 0.3000 45.4700
v 18.5300 7.3000 45.4700
v 18.8700 0.3000 45.4700
v 18.8700 7.3000 45.4700
v 21.1300 0.3000 45.1300
v 21.1300 7.3000 45.1300
v 21.4700 0.3000 45.1300
v 21.4700 7.3000 45.1300
v 21.1300 0.3000 45.4700
v 21.1300 7.3000 45.4700
v 21.4700 0.3000 45.4700
v 21.4700 7.3000 45.4700
v 17.9000 7.1600 41.9000
v 17.9000 7.4400 41.9000
v 22.1000 7.1600 41.9000
v 22.1000 7.4400 41.9000
v 17.9000 7.1600 46.1000
v 17.9000 7.4400 46.1000
v 22.1000 7.1600 46.1000
v 22.1000 7.4400 46.1000
v 18.3000 7.4500 42.3000
v 18.3000 9.6500 42.3000
v 21.7000 7.4500 42.3000
v 21.7000 9.6500 42.3000
v 18.3000 7.4500 45.7000
v 18.3000 9.6500 45.7000
v 21.7000 7.4500 45.7000
v 21.7000 9.6500 45.7000
v 18.2000 8.5500 42.2000
v 18.2000 9.5500 42.2000
v 21.8000 8.5500 42.2000
v 21.8000 9.5500 42.2000
v 18.2000 8.5500 45.8000
v 18.2000 9.5500 45.8000
v 21.8000 8.5500 45.8000
v 21.8000 9.5500 45.8000
v 17.7000 9.6500 41.7000
v 17.7000 9.9500 41.7000
v 22.3000 9.6500 41.7000
v 22.3000 9.9500 41.7000
v 17.7000 9.6500 46.3000
v 17.7000 9.9500 46.3000
v 22.3000 9.6500 46.3000
v 22.3000 9.9500 46.3000
v -21.4700 0.3000 -45.4700
v -21.4700 7.3000 -45.4700
v -21.1300 0.3000 -45.4700
v -21.1300 7.3000 -45.4700
v -21.4700 0.3000 -45.1300
v -21.4700 7.3000 -45.1300
v -21.1300 0.3000 -45.1300
v -21.1300 7.3000 -45.1300
v -18.8700 0.3000 -45.4700
v -18.8700 7.3000 -45.4700
v -18.5300 0.3000 -45.4700
v -18.5300 7.3000 -45.4700
v -18.8700 0.3000 -45.1300
v -18.8700 7.3000 -45.1300
v -18.5300 0.3000 -45.1300
v -18.5300 7.3000 -45.1300
v -21.4700 0.3000 -42.8700
v -21.4700 7.3000 -42.8700
v -21.1300 0.3000 -42.8700
v -21.1300 7.3000 -42.8700
v -21.4700 0.3000 -42.5300
v -21.4700 7.3000 -42.5300
v -21.1300 0.3000 -42.5300
v -21.1300 7.3000 -42.5300
v -18.8700 0.3000 -42.8700
v -18.8700 7.3000 -42.8700
v -18.5300 0.3000 -42.8700
v -18.5300 7.3000 -42.8700
v -18.8700 0.3000 -42.5300
v -18.8700 7.3000 -42.5300
v -18.5300 0.3000 -42.5300
v -18.5300 7.3000 -42.5300
v -22.1000 7.1600 -46.1000
v -22.1000 7.4400 -46.1000
v -17.9000 7.1600 -46.1000
v -17.9000 7.4400 -46.1000
v -22.1000 7.1600 -41.9000
v -22.1000 7.4400 -41.9000
v -17.9000 7.1600 -41.9000
v -17.9000 7.4400 -41.9000
v -21.7000 7.4500 -45.7000
v -21.7000 9.6500 -45.7000
v -18.3000 7.4500 -45.7000
v -18.3000 9.6500 -45.7000
v -21.7000 7.4500 -42.3000
v -21.7000 9.6500 -42.3000
v -18.3000 7.4500 -42.3000
v -18.3000 9.6500 -42.3000
v -21.8000 8.5500 -45.8000
v -21.8000 9.5500 -45.8000
v -18.2000 8.5500 -45.8000
v -18.2000 9.5500 -45.8000
v -21.8000 8.5500 -42.2000
v -21.8000 9.5500 -42.2000
v -18.2000 8.5500 -42.2000
v -18.2000 9.5500 -42.2000
v -22.3000 9.6500 -46.3000
v -22.3000 9.9500 -46.3000
v -17.7000 9.6500 -46.3000
v -17.7000 9.9500 -46.3000
v -22.3000 9.6500 -41.7000
v -22.3000 9.9500 -41.7000
v -17.7000 9.6500 -41.7000
v -17.7000 9.9500 -41.7000
v -22.3000 12.6000 -36.5500
v -22.3000 12.2000 -36.5500
v -20.8400 0.3000 -36.0000
v -20.8400 12.3000 -36.0000
v -20.9200 0.3000 -35.8614
v -20.9200 12.3000 -35.8614
v -21.0800 0.3000 -35.8614
v -21.0800 12.3000 -35.8614
v -21.1600 0.3000 -36.0000
v -21.1600 12.3000 -36.0000
v -21.0800 0.3000 -36.1386
v -21.0800 12.3000 -36.1386
v -20.9200 0.3000 -36.1386
v -20.9200 12.3000 -36.1386
v -19.7000 12.2000 -36.5500
v -19.7000 12.6000 -36.5500
v -22.3000 12.2000 -35.4500
v -22.3000 12.6000 -35.4500
v -19.7000 12.2000 -35.4500
v -19.7000 12.6000 -35.4500
v -22.3000 12.6000 -12.5500
v -22.3000 12.2000 -12.5500
v -20.8400 0.3000 -12.0000
v -20.8400 12.3000 -12.0000
v -20.9200 0.3000 -11.8614
v -20.9200 12.3000 -11.8614
v -21.0800 0.3000 -11.8614
v -21.0800 12.3000 -11.8614
v -21.1600 0.3000 -12.0000
v -21.1600 12.3000 -12.0000
v -21.0800 0.3000 -12.1386
v -21.0800 12.3000 -12.1386
v -20.9200 0.3000 -12.1386
v -20.9200 12.3000 -12.1386
v -19.7000 12.2000 -12.5500
v -19.7000 12.6000 -12.5500
v -22.3000 12.2000 -11.4500
v -22.3000 12.6000 -11.4500
v -19.7000 12.2000 -11.4500
v -19.7000 12.6000 -11.4500
v -22.3000 12.2000 11.4500
v -22.3000 12.6000 11.4500
v -20.8400 0.3000 12.0000
v -20.8400 12.3000 12.0000
v -20.9200 0.3000 12.1386
v -20.9200 12.3000 12.1386
v -21.0800 0.3000 12.1386
v -21.0800 12.3000 12.1386
v -21.1600 0.3000 12.0000
v -21.1600 12.3000 12.0000
v -21.0800 0.3000 11.8614
v -21.0800 12.3000 11.8614
v -20.9200 0.3000 11.8614
v -20.9200 12.3000 11.8614
v -19.7000 12.2000 11.4500
v -19.7000 12.6000 11.4500
v -22.3000 12.2000 12.5500
v -22.3000 12.6000 12.5500
v -19.7000 12.2000 12.5500
v -19.7000 12.6000 12.5500
v -22.3000 12.6000 35.4500
v -22.3000 12.2000 35.4500
v -20.8400 0.3000 36.0000
v -20.8400 12.3000 36.0000
v -20.9200 0.3000 36.1386
v -20.9200 12.3000 36.1386
v -21.0800 0.3000 36.1386
v -21.0800 12.3000 36.1386
v -21.1600 0.3000 36.0000
v -21.1600 12.3000 36.0000
v -21.0800 0.3000 35.8614
v -21.0800 12.3000 35.8614
v -20.9200 0.3000 35.8614
v -20.9200 12.3000 35.8614
v -19.7000 12.2000 35.4500
v -19.7000 12.6000 35.4500
v -22.3000 12.2000 36.5500
v -22.3000 12.6000 36.5500
v -19.7000 12.2000 36.5500
v -19.7000 12.6000 36.5500
v -3.4000 0.6100 -47.3000
v -3.4000 2.5100 -47.3000
v -0.6000 0.6100 -47.3000
v -0.6000 2.5100 -47.3000
v -3.4000 0.6100 -45.9000
v -3.4000 2.5100 -45.9000
v -0.6000 0.6100 -45.9000
v -0.6000 2.5100 -45.9000
usemtl Mat0
f 2 3 1
f 4 7 3
f 8 5 7
f 6 1 5
f 7 1 3
f 4 6 8
f 10 11 9
f 12 15 11
f 16 13 15
f 14 9 13
f 15 9 11
f 12 14 16
f 26 27 25
f 28 31 27
f 32 29 31
f 30 25 29
f 31 25 27
f 28 30 32
f 282 283 281
f 284 287 283
f 288 285 287
f 286 281 285
f 287 281 283
f 284 286 288
f 298 299 297
f 300 303 299
f 304 301 303
f 302 297 301
f 303 297 299
f 300 302 304
f 306 307 305
f 308 311 307
f 312 309 311
f 310 305 309
f 311 305 307
f 308 310 312
f 330 331 329
f 332 335 331
f 336 333 335
f 334 329 333
f 335 329 331
f 332 334 336
f 338 339 337
f 340 343 339
f 344 341 343
f 342 337 341
f 343 337 339
f 340 342 344
f 346 347 345
f 348 351 347
f 352 349 351
f 350 345 349
f 351 345 347
f 348 350 352
f 354 355 353
f 356 359 355
f 360 357 359
f 358 353 357
f 359 353 355
f 356 358 360
f 370 371 369
f 372 375 371
f 376 373 375
f 374 369 373
f 375 369 371
f 372 374 376
f 378 379 377
f 380 383 379
f 384 381 383
f 382 377 381
f 383 377 379
f 380 382 384
f 410 411 409
f 412 415 411
f 416 413 415
f 414 409 413
f 415 409 411
f 412 414 416
f 426 427 425
f 428 431 427
f 432 429 431
f 430 425 429
f 431 425 427
f 428 430 432
f 2 4 3
f 4 8 7
f 8 6 5
f 6 2 1
f 7 5 1
f 4 2 6
f 10 12 11
f 12 16 15
f 16 14 13
f 14 10 9
f 15 13 9
f 12 10 14
f 26 28 27
f 28 32 31
f 32 30 29
f 30 26 25
f 31 29 25
f 28 26 30
f 282 284 283
f 284 288 287
f 288 286 285
f 286 282 281
f 287 285 281
f 284 282 286
f 298 300 299
f 300 304 303
f 304 302 301
f 302 298 297
f 303 301 297
f 300 298 302
f 306 308 307
f 308 312 311
f 312 310 309
f 310 306 305
f 311 309 305
f 308 306 310
f 330 332 331
f 332 336 335
f 336 334 333
f 334 330 329
f 335 333 329
f 332 330 334
f 338 340 339
f 340 344 343
f 344 342 341
f 342 338 337
f 343 341 337
f 340 338 342
f 346 348 347
f 348 352 351
f 352 350 349
f 350 346 345
f 351 349 345
f 348 346 350
f 354 356 355
f 356 360 359
f 360 358 357
f 358 354 353
f 359 357 353
f 356 354 358
f 370 372 371
f 372 376 375
f 376 374 373
f 374 370 369
f 375 373 369
f 372 370 374
f 378 380 379
f 380 384 383
f 384 382 381
f 382 378 377
f 383 381 377
f 380 378 382
f 410 412 411
f 412 416 415
f 416 414 413
f 414 410 409
f 415 413 409
f 412 410 414
f 426 428 427
f 428 432 431
f 432 430 429
f 430 426 425
f 431 429 425
f 428 426 430
usemtl Mat1
f 18 19 17
f 20 23 19
f 24 21 23
f 22 17 21
f 23 17 19
f 20 22 24
f 34 35 33
f 36 39 35
f 40 37 39
f 38 33 37
f 39 33 35
f 36 38 40
f 50 51 49
f 52 55 51
f 56 53 55
f 54 49 53
f 55 49 51
f 52 54 56
f 66 67 65
f 68 71 67
f 72 69 71
f 70 65 69
f 71 65 67
f 68 70 72
f 82 83 81
f 84 87 83
f 88 85 87
f 86 81 85
f 87 81 83
f 84 86 88
f 98 99 97
f 100 103 99
f 104 101 103
f 102 97 101
f 103 97 99
f 100 102 104
f 114 115 113
f 116 119 115
f 120 117 119
f 118 113 117
f 119 113 115
f 116 118 120
f 130 131 129
f 132 135 131
f 136 133 135
f 134 129 133
f 135 129 131
f 132 134 136
f 146 147 145
f 148 151 147
f 152 149 151
f 150 145 149
f 151 145 147
f 148 150 152
f 162 163 161
f 164 167 163
f 168 165 167
f 166 161 165
f 167 161 163
f 164 166 168
f 178 179 177
f 180 183 179
f 184 181 183
f 182 177 181
f 183 177 179
f 180 182 184
f 194 195 193
f 196 199 195
f 200 197 199
f 198 193 197
f 199 193 195
f 196 198 200
f 202 203 201
f 204 207 203
f 208 205 207
f 206 201 205
f 207 201 203
f 204 206 208
f 210 211 209
f 212 215 211
f 216 213 215
f 214 209 213
f 215 209 211
f 212 214 216
f 218 219 217
f 220 223 219
f 224 221 223
f 222 217 221
f 223 217 219
f 220 222 224
f 226 227 225
f 228 231 227
f 232 229 231
f 230 225 229
f 231 225 227
f 228 230 232
f 234 235 233
f 236 239 235
f 240 237 239
f 238 233 237
f 239 233 235
f 236 238 240
f 242 243 241
f 244 247 243
f 248 245 247
f 246 241 245
f 247 241 243
f 244 246 248
f 250 251 249
f 252 255 251
f 256 253 255
f 254 249 253
f 255 249 251
f 252 254 256
f 258 259 257
f 260 263 259
f 264 261 263
f 262 257 261
f 263 257 259
f 260 262 264
f 266 267 265
f 268 271 267
f 272 269 271
f 270 265 269
f 271 265 267
f 268 270 272
f 274 275 273
f 276 279 275
f 280 277 279
f 278 273 277
f 279 273 275
f 276 278 280
f 290 291 289
f 292 295 291
f 296 293 295
f 294 289 293
f 295 289 291
f 292 294 296
f 386 387 385
f 388 391 387
f 392 389 391
f 390 385 389
f 391 385 387
f 388 390 392
f 394 395 393
f 396 399 395
f 400 397 399
f 398 393 397
f 399 393 395
f 396 398 400
f 402 403 401
f 404 407 403
f 408 405 407
f 406 401 405
f 407 401 403
f 404 406 408
f 418 419 417
f 420 423 419
f 424 421 423
f 422 417 421
f 423 417 419
f 420 422 424
f 1074 1076 1073
f 1079 1077 1080
f 1077 1074 1073
f 1078 1075 1074
f 1079 1076 1075
f 1080 1073 1076
f 1081 1082 1083
f 1086 1085 1084
f 1084 1082 1081
f 1085 1083 1082
f 1086 1081 1083
f 18 20 19
f 20 24 23
f 24 22 21
f 22 18 17
f 23 21 17
f 20 18 22
f 34 36 35
f 36 40 39
f 40 38 37
f 38 34 33
f 39 37 33
f 36 34 38
f 50 52 51
f 52 56 55
f 56 54 53
f 54 50 49
f 55 53 49
f 52 50 54
f 66 68 67
f 68 72 71
f 72 70 69
f 70 66 65
f 71 69 65
f 68 66 70
f 82 84 83
f 84 88 87
f 88 86 85
f 86 82 81
f 87 85 81
f 84 82 86
f 98 100 99
f 100 104 103
f 104 102 101
f 102 98 97
f 103 101 97
f 100 98 102
f 114 116 115
f 116 120 119
f 120 118 117
f 118 114 113
f 119 117 113
f 116 114 118
f 130 132 131
f 132 136 135
f 136 134 133
f 134 130 129
f 135 133 129
f 132 130 134
f 146 148 147
f 148 152 151
f 152 150 149
f 150 146 145
f 151 149 145
f 148 146 150
f 162 164 163
f 164 168 167
f 168 166 165
f 166 162 161
f 167 165 161
f 164 162 166
f 178 180 179
f 180 184 183
f 184 182 181
f 182 178 177
f 183 181 177
f 180 178 182
f 194 196 195
f 196 200 199
f 200 198 197
f 198 194 193
f 199 197 193
f 196 194 198
f 202 204 203
f 204 208 207
f 208 206 205
f 206 202 201
f 207 205 201
f 204 202 206
f 210 212 211
f 212 216 215
f 216 214 213
f 214 210 209
f 215 213 209
f 212 210 214
f 218 220 219
f 220 224 223
f 224 222 221
f 222 218 217
f 223 221 217
f 220 218 222
f 226 228 227
f 228 232 231
f 232 230 229
f 230 226 225
f 231 229 225
f 228 226 230
f 234 236 235
f 236 240 239
f 240 238 237
f 238 234 233
f 239 237 233
f 236 234 238
f 242 244 243
f 244 248 247
f 248 246 245
f 246 242 241
f 247 245 241
f 244 242 246
f 250 252 251
f 252 256 255
f 256 254 253
f 254 250 249
f 255 253 249
f 252 250 254
f 258 260 259
f 260 264 263
f 264 262 261
f 262 258 257
f 263 261 257
f 260 258 262
f 266 268 267
f 268 272 271
f 272 270 269
f 270 266 265
f 271 269 265
f 268 266 270
f 274 276 275
f 276 280 279
f 280 278 277
f 278 274 273
f 279 277 273
f 276 274 278
f 290 292 291
f 292 296 295
f 296 294 293
f 294 290 289
f 295 293 289
f 292 290 294
f 386 388 387
f 388 392 391
f 392 390 389
f 390 386 385
f 391 389 385
f 388 386 390
f 394 396 395
f 396 400 399
f 400 398 397
f 398 394 393
f 399 397 393
f 396 394 398
f 402 404 403
f 404 408 407
f 408 406 405
f 406 402 401
f 407 405 401
f 404 402 406
f 418 420 419
f 420 424 423
f 424 422 421
f 422 418 417
f 423 421 417
f 420 418 422
f 1074 1075 1076
f 1079 1078 1077
f 1077 1078 1074
f 1078 1079 1075
f 1079 1080 1076
f 1080 1077 1073
f 1084 1085 1082
f 1085 1086 1083
f 1086 1084 1081
usemtl Mat2
f 42 43 41
f 44 47 43
f 48 45 47
f 46 41 45
f 47 41 43
f 44 46 48
f 58 59 57
f 60 63 59
f 64 61 63
f 62 57 61
f 63 57 59
f 60 62 64
f 74 75 73
f 76 79 75
f 80 77 79
f 78 73 77
f 79 73 75
f 76 78 80
f 90 91 89
f 92 95 91
f 96 93 95
f 94 89 93
f 95 89 91
f 92 94 96
f 106 107 105
f 108 111 107
f 112 109 111
f 110 105 109
f 111 105 107
f 108 110 112
f 122 123 121
f 124 127 123
f 128 125 127
f 126 121 125
f 127 121 123
f 124 126 128
f 138 139 137
f 140 143 139
f 144 141 143
f 142 137 141
f 143 137 139
f 140 142 144
f 154 155 153
f 156 159 155
f 160 157 159
f 158 153 157
f 159 153 155
f 156 158 160
f 170 171 169
f 172 175 171
f 176 173 175
f 174 169 173
f 175 169 171
f 172 174 176
f 186 187 185
f 188 191 187
f 192 189 191
f 190 185 189
f 191 185 187
f 188 190 192
f 1458 1459 1457
f 1460 1461 1459
f 1462 1463 1461
f 1464 1465 1463
f 1466 1467 1465
f 1468 1469 1467
f 1470 1471 1469
f 1472 1473 1471
f 1474 1475 1473
f 1476 1477 1475
f 1466 1462 1478
f 1478 1479 1477
f 1480 1457 1479
f 1463 1471 1479
f 1462 1460 1458
f 1458 1480 1462
f 1480 1478 1462
f 1478 1476 1474
f 1474 1472 1470
f 1470 1468 1466
f 1466 1464 1462
f 1478 1474 1470
f 1470 1466 1478
f 1479 1457 1459
f 1459 1461 1479
f 1461 1463 1479
f 1463 1465 1471
f 1465 1467 1471
f 1467 1469 1471
f 1471 1473 1475
f 1475 1477 1471
f 1477 1479 1471
f 42 44 43
f 44 48 47
f 48 46 45
f 46 42 41
f 47 45 41
f 44 42 46
f 58 60 59
f 60 64 63
f 64 62 61
f 62 58 57
f 63 61 57
f 60 58 62
f 74 76 75
f 76 80 79
f 80 78 77
f 78 74 73
f 79 77 73
f 76 74 78
f 90 92 91
f 92 96 95
f 96 94 93
f 94 90 89
f 95 93 89
f 92 90 94
f 106 108 107
f 108 112 111
f 112 110 109
f 110 106 105
f 111 109 105
f 108 106 110
f 122 124 123
f 124 128 127
f 128 126 125
f 126 122 121
f 127 125 121
f 124 122 126
f 138 140 139
f 140 144 143
f 144 142 141
f 142 138 137
f 143 141 137
f 140 138 142
f 154 156 155
f 156 160 159
f 160 158 157
f 158 154 153
f 159 157 153
f 156 154 158
f 170 172 171
f 172 176 175
f 176 174 173
f 174 170 169
f 175 173 169
f 172 170 174
f 186 188 187
f 188 192 191
f 192 190 189
f 190 186 185
f 191 189 185
f 188 186 190
f 1458 1460 1459
f 1460 1462 1461
f 1462 1464 1463
f 1464 1466 1465
f 1466 1468 1467
f 1468 1470 1469
f 1470 1472 1471
f 1472 1474 1473
f 1474 1476 1475
f 1476 1478 1477
f 1478 1480 1479
f 1480 1458 1457
usemtl Mat3
f 314 315 313
f 316 319 315
f 320 317 319
f 318 313 317
f 319 313 315
f 316 318 320
f 322 323 321
f 324 327 323
f 328 325 327
f 326 321 325
f 327 321 323
f 324 326 328
f 362 363 361
f 364 367 363
f 368 365 367
f 366 361 365
f 367 361 363
f 364 366 368
f 314 316 315
f 316 320 319
f 320 318 317
f 318 314 313
f 319 317 313
f 316 314 318
f 322 324 323
f 324 328 327
f 328 326 325
f 326 322 321
f 327 325 321
f 324 322 326
f 362 364 363
f 364 368 367
f 368 366 365
f 366 362 361
f 367 365 361
f 364 362 366
usemtl Mat4
f 434 435 433
f 436 439 435
f 440 437 439
f 438 433 437
f 439 433 435
f 436 438 440
f 442 443 441
f 444 447 443
f 448 445 447
f 446 441 445
f 447 441 443
f 444 446 448
f 450 451 449
f 452 455 451
f 456 453 455
f 454 449 453
f 455 449 451
f 452 454 456
f 458 459 457
f 460 463 459
f 464 461 463
f 462 457 461
f 463 457 459
f 460 462 464
f 466 467 465
f 468 471 467
f 472 469 471
f 470 465 469
f 471 465 467
f 468 470 472
f 474 475 473
f 476 479 475
f 480 477 479
f 478 473 477
f 479 473 475
f 476 478 480
f 482 483 481
f 484 487 483
f 488 485 487
f 486 481 485
f 487 481 483
f 484 486 488
f 490 491 489
f 492 495 491
f 496 493 495
f 494 489 493
f 495 489 491
f 492 494 496
f 498 499 497
f 500 503 499
f 504 501 503
f 502 497 501
f 503 497 499
f 500 502 504
f 506 507 505
f 508 511 507
f 512 509 511
f 510 505 509
f 511 505 507
f 508 510 512
f 514 515 513
f 516 519 515
f 520 517 519
f 518 513 517
f 519 513 515
f 516 518 520
f 522 523 521
f 524 527 523
f 528 525 527
f 526 521 525
f 527 521 523
f 524 526 528
f 530 531 529
f 532 535 531
f 536 533 535
f 534 529 533
f 535 529 531
f 532 534 536
f 538 539 537
f 540 543 539
f 544 541 543
f 542 537 541
f 543 537 539
f 540 542 544
f 546 547 545
f 548 551 547
f 552 549 551
f 550 545 549
f 551 545 547
f 548 550 552
f 554 555 553
f 556 559 555
f 560 557 559
f 558 553 557
f 559 553 555
f 556 558 560
f 562 563 561
f 564 567 563
f 568 565 567
f 566 561 565
f 567 561 563
f 564 566 568
f 570 571 569
f 572 575 571
f 576 573 575
f 574 569 573
f 575 569 571
f 572 574 576
f 578 579 577
f 580 583 579
f 584 581 583
f 582 577 581
f 583 577 579
f 580 582 584
f 586 587 585
f 588 591 587
f 592 589 591
f 590 585 589
f 591 585 587
f 588 590 592
f 594 595 593
f 596 599 595
f 600 597 599
f 598 593 597
f 599 593 595
f 596 598 600
f 602 603 601
f 604 607 603
f 608 605 607
f 606 601 605
f 607 601 603
f 604 606 608
f 610 611 609
f 612 615 611
f 616 613 615
f 614 609 613
f 615 609 611
f 612 614 616
f 618 619 617
f 620 623 619
f 624 621 623
f 622 617 621
f 623 617 619
f 620 622 624
f 626 627 625
f 628 631 627
f 632 629 631
f 630 625 629
f 631 625 627
f 628 630 632
f 634 635 633
f 636 639 635
f 640 637 639
f 638 633 637
f 639 633 635
f 636 638 640
f 642 643 641
f 644 647 643
f 648 645 647
f 646 641 645
f 647 641 643
f 644 646 648
f 650 651 649
f 652 655 651
f 656 653 655
f 654 649 653
f 655 649 651
f 652 654 656
f 658 659 657
f 660 663 659
f 664 661 663
f 662 657 661
f 663 657 659
f 660 662 664
f 666 667 665
f 668 671 667
f 672 669 671
f 670 665 669
f 671 665 667
f 668 670 672
f 674 675 673
f 676 679 675
f 680 677 679
f 678 673 677
f 679 673 675
f 676 678 680
f 682 683 681
f 684 687 683
f 688 685 687
f 686 681 685
f 687 681 683
f 684 686 688
f 690 691 689
f 692 695 691
f 696 693 695
f 694 689 693
f 695 689 691
f 692 694 696
f 698 699 697
f 700 703 699
f 704 701 703
f 702 697 701
f 703 697 699
f 700 702 704
f 706 707 705
f 708 711 707
f 712 709 711
f 710 705 709
f 711 705 707
f 708 710 712
f 714 715 713
f 716 719 715
f 720 717 719
f 718 713 717
f 719 713 715
f 716 718 720
f 722 723 721
f 724 727 723
f 728 725 727
f 726 721 725
f 727 721 723
f 724 726 728
f 730 731 729
f 732 735 731
f 736 733 735
f 734 729 733
f 735 729 731
f 732 734 736
f 754 755 753
f 756 759 755
f 760 757 759
f 758 753 757
f 759 753 755
f 756 758 760
f 762 763 761
f 764 767 763
f 768 765 767
f 766 761 765
f 767 761 763
f 764 766 768
f 770 771 769
f 772 775 771
f 776 773 775
f 774 769 773
f 775 769 771
f 772 774 776
f 778 779 777
f 780 783 779
f 784 781 783
f 782 777 781
f 783 777 779
f 780 782 784
f 786 787 785
f 788 791 787
f 792 789 791
f 790 785 789
f 791 785 787
f 788 790 792
f 794 795 793
f 796 799 795
f 800 797 799
f 798 793 797
f 799 793 795
f 796 798 800
f 802 803 801
f 804 807 803
f 808 805 807
f 806 801 805
f 807 801 803
f 804 806 808
f 810 811 809
f 812 815 811
f 816 813 815
f 814 809 813
f 815 809 811
f 812 814 816
f 818 819 817
f 820 823 819
f 824 821 823
f 822 817 821
f 823 817 819
f 820 822 824
f 826 827 825
f 828 831 827
f 832 829 831
f 830 825 829
f 831 825 827
f 828 830 832
f 834 835 833
f 836 839 835
f 840 837 839
f 838 833 837
f 839 833 835
f 836 838 840
f 842 843 841
f 844 847 843
f 848 845 847
f 846 841 845
f 847 841 843
f 844 846 848
f 850 851 849
f 852 855 851
f 856 853 855
f 854 849 853
f 855 849 851
f 852 854 856
f 858 859 857
f 860 863 859
f 864 861 863
f 862 857 861
f 863 857 859
f 860 862 864
f 866 867 865
f 868 871 867
f 872 869 871
f 870 865 869
f 871 865 867
f 868 870 872
f 874 875 873
f 876 879 875
f 880 877 879
f 878 873 877
f 879 873 875
f 876 878 880
f 882 883 881
f 884 887 883
f 888 885 887
f 886 881 885
f 887 881 883
f 884 886 888
f 890 891 889
f 892 895 891
f 896 893 895
f 894 889 893
f 895 889 891
f 892 894 896
f 898 899 897
f 900 903 899
f 904 901 903
f 902 897 901
f 903 897 899
f 900 902 904
f 906 907 905
f 908 911 907
f 912 909 911
f 910 905 909
f 911 905 907
f 908 910 912
f 914 915 913
f 916 919 915
f 920 917 919
f 918 913 917
f 919 913 915
f 916 918 920
f 922 923 921
f 924 927 923
f 928 925 927
f 926 921 925
f 927 921 923
f 924 926 928
f 930 931 929
f 932 935 931
f 936 933 935
f 934 929 933
f 935 929 931
f 932 934 936
f 938 939 937
f 940 943 939
f 944 941 943
f 942 937 941
f 943 937 939
f 940 942 944
f 946 947 945
f 948 951 947
f 952 949 951
f 950 945 949
f 951 945 947
f 948 950 952
f 954 955 953
f 956 959 955
f 960 957 959
f 958 953 957
f 959 953 955
f 956 958 960
f 962 963 961
f 964 967 963
f 968 965 967
f 966 961 965
f 967 961 963
f 964 966 968
f 970 971 969
f 972 975 971
f 976 973 975
f 974 969 973
f 975 969 971
f 972 974 976
f 978 979 977
f 980 983 979
f 984 981 983
f 982 977 981
f 983 977 979
f 980 982 984
f 986 987 985
f 988 991 987
f 992 989 991
f 990 985 989
f 991 985 987
f 988 990 992
f 994 995 993
f 996 999 995
f 1000 997 999
f 998 993 997
f 999 993 995
f 996 998 1000
f 1002 1003 1001
f 1004 1007 1003
f 1008 1005 1007
f 1006 1001 1005
f 1007 1001 1003
f 1004 1006 1008
f 1010 1011 1009
f 1012 1015 1011
f 1016 1013 1015
f 1014 1009 1013
f 1015 1009 1011
f 1012 1014 1016
f 1018 1019 1017
f 1020 1023 1019
f 1024 1021 1023
f 1022 1017 1021
f 1023 1017 1019
f 1020 1022 1024
f 1026 1027 1025
f 1028 1031 1027
f 1032 1029 1031
f 1030 1025 1029
f 1031 1025 1027
f 1028 1030 1032
f 1034 1035 1033
f 1036 1039 1035
f 1040 1037 1039
f 1038 1033 1037
f 1039 1033 1035
f 1036 1038 1040
f 1042 1043 1041
f 1044 1047 1043
f 1048 1045 1047
f 1046 1041 1045
f 1047 1041 1043
f 1044 1046 1048
f 1050 1051 1049
f 1052 1055 1051
f 1056 1053 1055
f 1054 1049 1053
f 1055 1049 1051
f 1052 1054 1056
f 1198 1201 1197
f 1200 1195 1199
f 1202 1199 1201
f 1196 1197 1195
f 1201 1195 1197
f 1198 1200 1202
f 1220 1221 1219
f 1222 1225 1221
f 1226 1223 1225
f 1224 1219 1223
f 1225 1219 1221
f 1222 1224 1226
f 1244 1245 1243
f 1246 1249 1245
f 1250 1247 1249
f 1248 1243 1247
f 1249 1243 1245
f 1246 1248 1250
f 1268 1269 1267
f 1270 1273 1269
f 1274 1271 1273
f 1272 1267 1271
f 1273 1267 1269
f 1270 1272 1274
f 1292 1293 1291
f 1294 1297 1293
f 1298 1295 1297
f 1296 1291 1295
f 1297 1291 1293
f 1294 1296 1298
f 434 436 435
f 436 440 439
f 440 438 437
f 438 434 433
f 439 437 433
f 436 434 438
f 442 444 443
f 444 448 447
f 448 446 445
f 446 442 441
f 447 445 441
f 444 442 446
f 450 452 451
f 452 456 455
f 456 454 453
f 454 450 449
f 455 453 449
f 452 450 454
f 458 460 459
f 460 464 463
f 464 462 461
f 462 458 457
f 463 461 457
f 460 458 462
f 466 468 467
f 468 472 471
f 472 470 469
f 470 466 465
f 471 469 465
f 468 466 470
f 474 476 475
f 476 480 479
f 480 478 477
f 478 474 473
f 479 477 473
f 476 474 478
f 482 484 483
f 484 488 487
f 488 486 485
f 486 482 481
f 487 485 481
f 484 482 486
f 490 492 491
f 492 496 495
f 496 494 493
f 494 490 489
f 495 493 489
f 492 490 494
f 498 500 499
f 500 504 503
f 504 502 501
f 502 498 497
f 503 501 497
f 500 498 502
f 506 508 507
f 508 512 511
f 512 510 509
f 510 506 505
f 511 509 505
f 508 506 510
f 514 516 515
f 516 520 519
f 520 518 517
f 518 514 513
f 519 517 513
f 516 514 518
f 522 524 523
f 524 528 527
f 528 526 525
f 526 522 521
f 527 525 521
f 524 522 526
f 530 532 531
f 532 536 535
f 536 534 533
f 534 530 529
f 535 533 529
f 532 530 534
f 538 540 539
f 540 544 543
f 544 542 541
f 542 538 537
f 543 541 537
f 540 538 542
f 546 548 547
f 548 552 551
f 552 550 549
f 550 546 545
f 551 549 545
f 548 546 550
f 554 556 555
f 556 560 559
f 560 558 557
f 558 554 553
f 559 557 553
f 556 554 558
f 562 564 563
f 564 568 567
f 568 566 565
f 566 562 561
f 567 565 561
f 564 562 566
f 570 572 571
f 572 576 575
f 576 574 573
f 574 570 569
f 575 573 569
f 572 570 574
f 578 580 579
f 580 584 583
f 584 582 581
f 582 578 577
f 583 581 577
f 580 578 582
f 586 588 587
f 588 592 591
f 592 590 589
f 590 586 585
f 591 589 585
f 588 586 590
f 594 596 595
f 596 600 599
f 600 598 597
f 598 594 593
f 599 597 593
f 596 594 598
f 602 604 603
f 604 608 607
f 608 606 605
f 606 602 601
f 607 605 601
f 604 602 606
f 610 612 611
f 612 616 615
f 616 614 613
f 614 610 609
f 615 613 609
f 612 610 614
f 618 620 619
f 620 624 623
f 624 622 621
f 622 618 617
f 623 621 617
f 620 618 622
f 626 628 627
f 628 632 631
f 632 630 629
f 630 626 625
f 631 629 625
f 628 626 630
f 634 636 635
f 636 640 639
f 640 638 637
f 638 634 633
f 639 637 633
f 636 634 638
f 642 644 643
f 644 648 647
f 648 646 645
f 646 642 641
f 647 645 641
f 644 642 646
f 650 652 651
f 652 656 655
f 656 654 653
f 654 650 649
f 655 653 649
f 652 650 654
f 658 660 659
f 660 664 663
f 664 662 661
f 662 658 657
f 663 661 657
f 660 658 662
f 666 668 667
f 668 672 671
f 672 670 669
f 670 666 665
f 671 669 665
f 668 666 670
f 674 676 675
f 676 680 679
f 680 678 677
f 678 674 673
f 679 677 673
f 676 674 678
f 682 684 683
f 684 688 687
f 688 686 685
f 686 682 681
f 687 685 681
f 684 682 686
f 690 692 691
f 692 696 695
f 696 694 693
f 694 690 689
f 695 693 689
f 692 690 694
f 698 700 699
f 700 704 703
f 704 702 701
f 702 698 697
f 703 701 697
f 700 698 702
f 706 708 707
f 708 712 711
f 712 710 709
f 710 706 705
f 711 709 705
f 708 706 710
f 714 716 715
f 716 720 719
f 720 718 717
f 718 714 713
f 719 717 713
f 716 714 718
f 722 724 723
f 724 728 727
f 728 726 725
f 726 722 721
f 727 725 721
f 724 722 726
f 730 732 731
f 732 736 735
f 736 734 733
f 734 730 729
f 735 733 729
f 732 730 734
f 754 756 755
f 756 760 759
f 760 758 757
f 758 754 753
f 759 757 753
f 756 754 758
f 762 764 763
f 764 768 767
f 768 766 765
f 766 762 761
f 767 765 761
f 764 762 766
f 770 772 771
f 772 776 775
f 776 774 773
f 774 770 769
f 775 773 769
f 772 770 774
f 778 780 779
f 780 784 783
f 784 782 781
f 782 778 777
f 783 781 777
f 780 778 782
f 786 788 787
f 788 792 791
f 792 790 789
f 790 786 785
f 791 789 785
f 788 786 790
f 794 796 795
f 796 800 799
f 800 798 797
f 798 794 793
f 799 797 793
f 796 794 798
f 802 804 803
f 804 808 807
f 808 806 805
f 806 802 801
f 807 805 801
f 804 802 806
f 810 812 811
f 812 816 815
f 816 814 813
f 814 810 809
f 815 813 809
f 812 810 814
f 818 820 819
f 820 824 823
f 824 822 821
f 822 818 817
f 823 821 817
f 820 818 822
f 826 828 827
f 828 832 831
f 832 830 829
f 830 826 825
f 831 829 825
f 828 826 830
f 834 836 835
f 836 840 839
f 840 838 837
f 838 834 833
f 839 837 833
f 836 834 838
f 842 844 843
f 844 848 847
f 848 846 845
f 846 842 841
f 847 845 841
f 844 842 846
f 850 852 851
f 852 856 855
f 856 854 853
f 854 850 849
f 855 853 849
f 852 850 854
f 858 860 859
f 860 864 863
f 864 862 861
f 862 858 857
f 863 861 857
f 860 858 862
f 866 868 867
f 868 872 871
f 872 870 869
f 870 866 865
f 871 869 865
f 868 866 870
f 874 876 875
f 876 880 879
f 880 878 877
f 878 874 873
f 879 877 873
f 876 874 878
f 882 884 883
f 884 888 887
f 888 886 885
f 886 882 881
f 887 885 881
f 884 882 886
f 890 892 891
f 892 896 895
f 896 894 893
f 894 890 889
f 895 893 889
f 892 890 894
f 898 900 899
f 900 904 903
f 904 902 901
f 902 898 897
f 903 901 897
f 900 898 902
f 906 908 907
f 908 912 911
f 912 910 909
f 910 906 905
f 911 909 905
f 908 906 910
f 914 916 915
f 916 920 919
f 920 918 917
f 918 914 913
f 919 917 913
f 916 914 918
f 922 924 923
f 924 928 927
f 928 926 925
f 926 922 921
f 927 925 921
f 924 922 926
f 930 932 931
f 932 936 935
f 936 934 933
f 934 930 929
f 935 933 929
f 932 930 934
f 938 940 939
f 940 944 943
f 944 942 941
f 942 938 937
f 943 941 937
f 940 938 942
f 946 948 947
f 948 952 951
f 952 950 949
f 950 946 945
f 951 949 945
f 948 946 950
f 954 956 955
f 956 960 959
f 960 958 957
f 958 954 953
f 959 957 953
f 956 954 958
f 962 964 963
f 964 968 967
f 968 966 965
f 966 962 961
f 967 965 961
f 964 962 966
f 970 972 971
f 972 976 975
f 976 974 973
f 974 970 969
f 975 973 969
f 972 970 974
f 978 980 979
f 980 984 983
f 984 982 981
f 982 978 977
f 983 981 977
f 980 978 982
f 986 988 987
f 988 992 991
f 992 990 989
f 990 986 985
f 991 989 985
f 988 986 990
f 994 996 995
f 996 1000 999
f 1000 998 997
f 998 994 993
f 999 997 993
f 996 994 998
f 1002 1004 1003
f 1004 1008 1007
f 1008 1006 1005
f 1006 1002 1001
f 1007 1005 1001
f 1004 1002 1006
f 1010 1012 1011
f 1012 1016 1015
f 1016 1014 1013
f 1014 1010 1009
f 1015 1013 1009
f 1012 1010 1014
f 1018 1020 1019
f 1020 1024 1023
f 1024 1022 1021
f 1022 1018 1017
f 1023 1021 1017
f 1020 1018 1022
f 1026 1028 1027
f 1028 1032 1031
f 1032 1030 1029
f 1030 1026 1025
f 1031 1029 1025
f 1028 1026 1030
f 1034 1036 1035
f 1036 1040 1039
f 1040 1038 1037
f 1038 1034 1033
f 1039 1037 1033
f 1036 1034 1038
f 1042 1044 1043
f 1044 1048 1047
f 1048 1046 1045
f 1046 1042 1041
f 1047 1045 1041
f 1044 1042 1046
f 1050 1052 1051
f 1052 1056 1055
f 1056 1054 1053
f 1054 1050 1049
f 1055 1053 1049
f 1052 1050 1054
f 1198 1202 1201
f 1200 1196 1195
f 1202 1200 1199
f 1196 1198 1197
f 1201 1199 1195
f 1198 1196 1200
f 1220 1222 1221
f 1222 1226 1225
f 1226 1224 1223
f 1224 1220 1219
f 1225 1223 1219
f 1222 1220 1224
f 1244 1246 1245
f 1246 1250 1249
f 1250 1248 1247
f 1248 1244 1243
f 1249 1247 1243
f 1246 1244 1248
f 1268 1270 1269
f 1270 1274 1273
f 1274 1272 1271
f 1272 1268 1267
f 1273 1271 1267
f 1270 1268 1272
f 1292 1294 1293
f 1294 1298 1297
f 1298 1296 1295
f 1296 1292 1291
f 1297 1295 1291
f 1294 1292 1296
usemtl Mat5
f 738 739 737
f 740 743 739
f 744 741 743
f 742 737 741
f 743 737 739
f 740 742 744
f 746 747 745
f 748 751 747
f 752 749 751
f 750 745 749
f 751 745 747
f 748 750 752
f 1058 1059 1057
f 1060 1063 1059
f 1064 1061 1063
f 1062 1057 1061
f 1063 1057 1059
f 1060 1062 1064
f 1066 1067 1065
f 1068 1071 1067
f 1072 1069 1071
f 1070 1065 1069
f 1071 1065 1067
f 1068 1070 1072
f 1166 1167 1165
f 1106 1107 1105
f 1158 1159 1157
f 1108 1109 1107
f 1130 1131 1129
f 1118 1119 1117
f 1110 1111 1109
f 1142 1143 1141
f 1156 1157 1155
f 1112 1113 1111
f 1114 1112 1110
f 1154 1155 1153
f 1114 1115 1113
f 1122 1123 1121
f 1120 1121 1119
f 1116 1105 1115
f 1113 1115 1107
f 1124 1125 1123
f 1128 1126 1124
f 1126 1127 1125
f 1134 1135 1133
f 1132 1133 1131
f 1128 1117 1127
f 1119 1121 1125
f 1136 1137 1135
f 1138 1136 1134
f 1170 1171 1169
f 1138 1139 1137
f 1146 1147 1145
f 1144 1145 1143
f 1140 1129 1139
f 1139 1129 1131
f 1148 1149 1147
f 1182 1183 1181
f 1151 1141 1145
f 1150 1151 1149
f 1168 1169 1167
f 1178 1179 1177
f 1152 1141 1151
f 1142 1152 1150
f 1160 1161 1159
f 1163 1153 1155
f 1162 1163 1161
f 1180 1181 1179
f 1164 1153 1163
f 1164 1162 1158
f 1172 1173 1171
f 1167 1169 1173
f 1174 1175 1173
f 1176 1165 1175
f 1176 1174 1170
f 1184 1185 1183
f 1179 1181 1185
f 1186 1187 1185
f 1188 1177 1187
f 1188 1186 1182
f 1340 1341 1339
f 1342 1345 1341
f 1346 1343 1345
f 1344 1339 1343
f 1345 1339 1341
f 1342 1344 1346
f 1372 1373 1371
f 1374 1377 1373
f 1378 1375 1377
f 1376 1371 1375
f 1377 1371 1373
f 1374 1376 1378
f 1388 1389 1387
f 1390 1393 1389
f 1394 1391 1393
f 1392 1387 1391
f 1393 1387 1389
f 1390 1392 1394
f 1420 1415 1419
f 1421 1415 1417
f 1418 1421 1417
f 1416 1417 1415
f 1422 1419 1421
f 1418 1420 1422
f 1694 1695 1693
f 1649 1632 1645
f 1634 1635 1633
f 1668 1652 1667
f 1648 1632 1647
f 1636 1637 1635
f 1669 1652 1665
f 1650 1647 1649
f 1638 1639 1637
f 1686 1688 1690
f 1646 1649 1645
f 1640 1641 1639
f 1640 1638 1634
f 1631 1645 1632
f 1642 1643 1641
f 1654 1655 1653
f 1646 1648 1650
f 1644 1633 1643
f 1639 1641 1643
f 1656 1657 1655
f 1670 1667 1669
f 1658 1659 1657
f 1689 1671 1685
f 1666 1669 1665
f 1660 1661 1659
f 1664 1662 1660
f 1651 1665 1652
f 1662 1663 1661
f 1674 1675 1673
f 1666 1668 1670
f 1664 1653 1663
f 1661 1663 1653
f 1676 1677 1675
f 1690 1687 1689
f 1709 1692 1705
f 1678 1679 1677
f 1686 1689 1685
f 1680 1681 1679
f 1672 1685 1671
f 1681 1683 1673
f 1682 1683 1681
f 1688 1671 1687
f 1708 1692 1707
f 1684 1673 1683
f 1684 1682 1680
f 1696 1697 1695
f 1710 1707 1709
f 1698 1699 1697
f 1706 1709 1705
f 1700 1701 1699
f 1700 1698 1694
f 1691 1705 1692
f 1702 1703 1701
f 1706 1708 1710
f 1704 1693 1703
f 1701 1703 1693
f 1110 1108 1114
f 1108 1106 1114
f 1106 1116 1114
f 1115 1105 1107
f 1107 1109 1111
f 1111 1113 1107
f 1124 1122 1128
f 1122 1120 1128
f 1120 1118 1128
f 1121 1123 1125
f 1125 1127 1117
f 1117 1119 1125
f 1134 1132 1138
f 1132 1130 1138
f 1130 1140 1138
f 1131 1133 1139
f 1133 1135 1139
f 1135 1137 1139
f 1141 1143 1145
f 1145 1147 1149
f 1149 1151 1145
f 1150 1148 1146
f 1146 1144 1150
f 1144 1142 1150
f 1155 1157 1163
f 1157 1159 1163
f 1159 1161 1163
f 1162 1160 1158
f 1158 1156 1154
f 1154 1164 1158
f 1169 1171 1173
f 1173 1175 1165
f 1165 1167 1173
f 1174 1172 1170
f 1170 1168 1166
f 1166 1176 1170
f 1181 1183 1185
f 1185 1187 1177
f 1177 1179 1185
f 1186 1184 1182
f 1182 1180 1178
f 1178 1188 1182
f 1638 1636 1634
f 1634 1644 1642
f 1642 1640 1634
f 1643 1633 1639
f 1633 1635 1639
f 1635 1637 1639
f 1660 1658 1656
f 1656 1654 1660
f 1654 1664 1660
f 1653 1655 1657
f 1657 1659 1653
f 1659 1661 1653
f 1673 1675 1677
f 1677 1679 1673
f 1679 1681 1673
f 1680 1678 1676
f 1676 1674 1680
f 1674 1684 1680
f 1698 1696 1694
f 1694 1704 1702
f 1702 1700 1694
f 1693 1695 1697
f 1697 1699 1693
f 1699 1701 1693
f 738 740 739
f 740 744 743
f 744 742 741
f 742 738 737
f 743 741 737
f 740 738 742
f 746 748 747
f 748 752 751
f 752 750 749
f 750 746 745
f 751 749 745
f 748 746 750
f 1058 1060 1059
f 1060 1064 1063
f 1064 1062 1061
f 1062 1058 1057
f 1063 1061 1057
f 1060 1058 1062
f 1066 1068 1067
f 1068 1072 1071
f 1072 1070 1069
f 1070 1066 1065
f 1071 1069 1065
f 1068 1066 1070
f 1166 1168 1167
f 1106 1108 1107
f 1158 1160 1159
f 1108 1110 1109
f 1130 1132 1131
f 1118 1120 1119
f 1110 1112 1111
f 1142 1144 1143
f 1156 1158 1157
f 1112 1114 1113
f 1154 1156 1155
f 1114 1116 1115
f 1122 1124 1123
f 1120 1122 1121
f 1116 1106 1105
f 1124 1126 1125
f 1126 1128 1127
f 1134 1136 1135
f 1132 1134 1133
f 1128 1118 1117
f 1136 1138 1137
f 1170 1172 1171
f 1138 1140 1139
f 1146 1148 1147
f 1144 1146 1145
f 1140 1130 1129
f 1148 1150 1149
f 1182 1184 1183
f 1150 1152 1151
f 1168 1170 1169
f 1178 1180 1179
f 1152 1142 1141
f 1160 1162 1161
f 1162 1164 1163
f 1180 1182 1181
f 1164 1154 1153
f 1172 1174 1173
f 1174 1176 1175
f 1176 1166 1165
f 1184 1186 1185
f 1186 1188 1187
f 1188 1178 1177
f 1340 1342 1341
f 1342 1346 1345
f 1346 1344 1343
f 1344 1340 1339
f 1345 1343 1339
f 1342 1340 1344
f 1372 1374 1373
f 1374 1378 1377
f 1378 1376 1375
f 1376 1372 1371
f 1377 1375 1371
f 1374 1372 1376
f 1388 1390 1389
f 1390 1394 1393
f 1394 1392 1391
f 1392 1388 1387
f 1393 1391 1387
f 1390 1388 1392
f 1420 1416 1415
f 1421 1419 1415
f 1418 1422 1421
f 1416 1418 1417
f 1422 1420 1419
f 1418 1416 1420
f 1694 1696 1695
f 1649 1647 1632
f 1634 1636 1635
f 1668 1651 1652
f 1648 1631 1632
f 1636 1638 1637
f 1669 1667 1652
f 1650 1648 1647
f 1638 1640 1639
f 1686 1672 1688
f 1646 1650 1649
f 1640 1642 1641
f 1631 1646 1645
f 1642 1644 1643
f 1654 1656 1655
f 1646 1631 1648
f 1644 1634 1633
f 1656 1658 1657
f 1670 1668 1667
f 1658 1660 1659
f 1689 1687 1671
f 1666 1670 1669
f 1660 1662 1661
f 1651 1666 1665
f 1662 1664 1663
f 1674 1676 1675
f 1666 1651 1668
f 1664 1654 1653
f 1676 1678 1677
f 1690 1688 1687
f 1709 1707 1692
f 1678 1680 1679
f 1686 1690 1689
f 1680 1682 1681
f 1672 1686 1685
f 1682 1684 1683
f 1688 1672 1671
f 1708 1691 1692
f 1684 1674 1673
f 1696 1698 1697
f 1710 1708 1707
f 1698 1700 1699
f 1706 1710 1709
f 1700 1702 1701
f 1691 1706 1705
f 1702 1704 1703
f 1706 1691 1708
f 1704 1694 1693
usemtl Mat6
f 1088 1089 1087
f 1090 1093 1089
f 1094 1091 1093
f 1092 1087 1091
f 1093 1087 1089
f 1090 1092 1094
f 1413 1396 1409
f 1412 1396 1411
f 1414 1411 1413
f 1410 1413 1409
f 1395 1409 1396
f 1410 1412 1414
f 1432 1433 1431
f 1434 1437 1433
f 1438 1435 1437
f 1436 1431 1435
f 1437 1431 1433
f 1434 1436 1438
f 1440 1441 1439
f 1442 1445 1441
f 1446 1443 1445
f 1444 1439 1443
f 1445 1439 1441
f 1442 1444 1446
f 1448 1449 1447
f 1450 1453 1449
f 1454 1451 1453
f 1452 1447 1451
f 1453 1447 1449
f 1450 1452 1454
f 1486 1487 1485
f 1492 1493 1491
f 1484 1485 1483
f 1490 1491 1489
f 1482 1483 1481
f 1494 1495 1493
f 1488 1489 1487
f 1496 1497 1495
f 1498 1499 1497
f 1500 1501 1499
f 1500 1496 1492
f 1502 1503 1501
f 1504 1481 1503
f 1481 1485 1493
f 1492 1490 1488
f 1488 1486 1484
f 1484 1482 1500
f 1482 1504 1500
f 1504 1502 1500
f 1500 1498 1496
f 1496 1494 1492
f 1492 1488 1500
f 1488 1484 1500
f 1493 1495 1497
f 1497 1499 1493
f 1499 1501 1493
f 1501 1503 1481
f 1481 1483 1485
f 1485 1487 1493
f 1487 1489 1493
f 1489 1491 1493
f 1501 1481 1493
f 1088 1090 1089
f 1090 1094 1093
f 1094 1092 1091
f 1092 1088 1087
f 1093 1091 1087
f 1090 1088 1092
f 1413 1411 1396
f 1412 1395 1396
f 1414 1412 1411
f 1410 1414 1413
f 1395 1410 1409
f 1410 1395 1412
f 1432 1434 1433
f 1434 1438 1437
f 1438 1436 1435
f 1436 1432 1431
f 1437 1435 1431
f 1434 1432 1436
f 1440 1442 1441
f 1442 1446 1445
f 1446 1444 1443
f 1444 1440 1439
f 1445 1443 1439
f 1442 1440 1444
f 1448 1450 1449
f 1450 1454 1453
f 1454 1452 1451
f 1452 1448 1447
f 1453 1451 1447
f 1450 1448 1452
f 1486 1488 1487
f 1492 1494 1493
f 1484 1486 1485
f 1490 1492 1491
f 1482 1484 1483
f 1494 1496 1495
f 1488 1490 1489
f 1496 1498 1497
f 1498 1500 1499
f 1500 1502 1501
f 1502 1504 1503
f 1504 1482 1481
usemtl Mat7
f 1096 1097 1095
f 1098 1101 1097
f 1102 1099 1101
f 1100 1095 1099
f 1101 1095 1097
f 1098 1100 1102
f 1316 1317 1315
f 1318 1321 1317
f 1322 1319 1321
f 1320 1315 1319
f 1321 1315 1317
f 1318 1320 1322
f 1324 1325 1323
f 1326 1329 1325
f 1330 1327 1329
f 1328 1323 1327
f 1329 1323 1325
f 1326 1328 1330
f 1332 1333 1331
f 1334 1337 1333
f 1338 1335 1337
f 1336 1331 1335
f 1337 1331 1333
f 1334 1336 1338
f 1348 1349 1347
f 1350 1353 1349
f 1354 1351 1353
f 1352 1347 1351
f 1353 1347 1349
f 1350 1352 1354
f 1356 1357 1355
f 1358 1361 1357
f 1362 1359 1361
f 1360 1355 1359
f 1361 1355 1357
f 1358 1360 1362
f 1364 1365 1363
f 1366 1369 1365
f 1370 1367 1369
f 1368 1363 1367
f 1369 1363 1365
f 1366 1368 1370
f 1380 1381 1379
f 1382 1385 1381
f 1386 1383 1385
f 1384 1379 1383
f 1385 1379 1381
f 1382 1384 1386
f 1096 1098 1097
f 1098 1102 1101
f 1102 1100 1099
f 1100 1096 1095
f 1101 1099 1095
f 1098 1096 1100
f 1316 1318 1317
f 1318 1322 1321
f 1322 1320 1319
f 1320 1316 1315
f 1321 1319 1315
f 1318 1316 1320
f 1324 1326 1325
f 1326 1330 1329
f 1330 1328 1327
f 1328 1324 1323
f 1329 1327 1323
f 1326 1324 1328
f 1332 1334 1333
f 1334 1338 1337
f 1338 1336 1335
f 1336 1332 1331
f 1337 1335 1331
f 1334 1332 1336
f 1348 1350 1349
f 1350 1354 1353
f 1354 1352 1351
f 1352 1348 1347
f 1353 1351 1347
f 1350 1348 1352
f 1356 1358 1357
f 1358 1362 1361
f 1362 1360 1359
f 1360 1356 1355
f 1361 1359 1355
f 1358 1356 1360
f 1364 1366 1365
f 1366 1370 1369
f 1370 1368 1367
f 1368 1364 1363
f 1369 1367 1363
f 1366 1364 1368
f 1380 1382 1381
f 1382 1386 1385
f 1386 1384 1383
f 1384 1380 1379
f 1385 1383 1379
f 1382 1380 1384
usemtl Mat8
f 1190 1193 1189
f 1194 1191 1193
f 1193 1104 1189
f 1190 1192 1194
f 1103 1189 1104
f 1192 1104 1191
f 1424 1425 1423
f 1426 1429 1425
f 1430 1427 1429
f 1428 1423 1427
f 1429 1423 1425
f 1426 1428 1430
f 1190 1194 1193
f 1194 1192 1191
f 1193 1191 1104
f 1190 1103 1192
f 1103 1190 1189
f 1192 1103 1104
f 1424 1426 1425
f 1426 1430 1429
f 1430 1428 1427
f 1428 1424 1423
f 1429 1427 1423
f 1426 1424 1428
usemtl Mat9
f 1204 1205 1203
f 1206 1209 1205
f 1210 1207 1209
f 1208 1203 1207
f 1209 1203 1205
f 1206 1208 1210
f 1212 1213 1211
f 1214 1217 1213
f 1218 1215 1217
f 1216 1211 1215
f 1217 1211 1213
f 1214 1216 1218
f 1228 1229 1227
f 1230 1233 1229
f 1234 1231 1233
f 1232 1227 1231
f 1233 1227 1229
f 1230 1232 1234
f 1236 1237 1235
f 1238 1241 1237
f 1242 1239 1241
f 1240 1235 1239
f 1241 1235 1237
f 1238 1240 1242
f 1252 1253 1251
f 1254 1257 1253
f 1258 1255 1257
f 1256 1251 1255
f 1257 1251 1253
f 1254 1256 1258
f 1260 1261 1259
f 1262 1265 1261
f 1266 1263 1265
f 1264 1259 1263
f 1265 1259 1261
f 1262 1264 1266
f 1276 1277 1275
f 1278 1281 1277
f 1282 1279 1281
f 1280 1275 1279
f 1281 1275 1277
f 1278 1280 1282
f 1284 1285 1283
f 1286 1289 1285
f 1290 1287 1289
f 1288 1283 1287
f 1289 1283 1285
f 1286 1288 1290
f 1300 1301 1299
f 1302 1305 1301
f 1306 1303 1305
f 1304 1299 1303
f 1305 1299 1301
f 1302 1304 1306
f 1308 1309 1307
f 1310 1313 1309
f 1314 1311 1313
f 1312 1307 1311
f 1313 1307 1309
f 1310 1312 1314
f 1526 1523 1525
f 1514 1517 1513
f 1508 1455 1507
f 1528 1529 1527
f 1509 1455 1505
f 1524 1519 1523
f 1518 1515 1517
f 1530 1533 1529
f 1506 1508 1510
f 1525 1519 1521
f 1516 1511 1515
f 1533 1527 1529
f 1512 1513 1511
f 1522 1524 1526
f 1517 1511 1513
f 1532 1527 1531
f 1522 1525 1521
f 1510 1507 1509
f 1520 1521 1519
f 1506 1509 1505
f 1456 1505 1455
f 1534 1531 1533
f 1514 1516 1518
f 1530 1532 1534
f 1536 1537 1535
f 1538 1541 1537
f 1542 1539 1541
f 1540 1535 1539
f 1541 1535 1537
f 1538 1540 1542
f 1560 1561 1559
f 1562 1565 1561
f 1566 1563 1565
f 1564 1559 1563
f 1565 1559 1561
f 1562 1564 1566
f 1568 1569 1567
f 1570 1573 1569
f 1574 1571 1573
f 1572 1567 1571
f 1573 1567 1569
f 1570 1572 1574
f 1576 1577 1575
f 1578 1581 1577
f 1582 1579 1581
f 1580 1575 1579
f 1581 1575 1577
f 1578 1580 1582
f 1584 1585 1583
f 1586 1589 1585
f 1590 1587 1589
f 1588 1583 1587
f 1589 1583 1585
f 1586 1588 1590
f 1592 1593 1591
f 1594 1597 1593
f 1598 1595 1597
f 1596 1591 1595
f 1597 1591 1593
f 1594 1596 1598
f 1600 1601 1599
f 1602 1605 1601
f 1606 1603 1605
f 1604 1599 1603
f 1605 1599 1601
f 1602 1604 1606
f 1624 1625 1623
f 1626 1629 1625
f 1630 1627 1629
f 1628 1623 1627
f 1629 1623 1625
f 1626 1628 1630
f 1204 1206 1205
f 1206 1210 1209
f 1210 1208 1207
f 1208 1204 1203
f 1209 1207 1203
f 1206 1204 1208
f 1212 1214 1213
f 1214 1218 1217
f 1218 1216 1215
f 1216 1212 1211
f 1217 1215 1211
f 1214 1212 1216
f 1228 1230 1229
f 1230 1234 1233
f 1234 1232 1231
f 1232 1228 1227
f 1233 1231 1227
f 1230 1228 1232
f 1236 1238 1237
f 1238 1242 1241
f 1242 1240 1239
f 1240 1236 1235
f 1241 1239 1235
f 1238 1236 1240
f 1252 1254 1253
f 1254 1258 1257
f 1258 1256 1255
f 1256 1252 1251
f 1257 1255 1251
f 1254 1252 1256
f 1260 1262 1261
f 1262 1266 1265
f 1266 1264 1263
f 1264 1260 1259
f 1265 1263 1259
f 1262 1260 1264
f 1276 1278 1277
f 1278 1282 1281
f 1282 1280 1279
f 1280 1276 1275
f 1281 1279 1275
f 1278 1276 1280
f 1284 1286 1285
f 1286 1290 1289
f 1290 1288 1287
f 1288 1284 1283
f 1289 1287 1283
f 1286 1284 1288
f 1300 1302 1301
f 1302 1306 1305
f 1306 1304 1303
f 1304 1300 1299
f 1305 1303 1299
f 1302 1300 1304
f 1308 1310 1309
f 1310 1314 1313
f 1314 1312 1311
f 1312 1308 1307
f 1313 1311 1307
f 1310 1308 1312
f 1526 1524 1523
f 1514 1518 1517
f 1508 1456 1455
f 1528 1530 1529
f 1509 1507 1455
f 1524 1520 1519
f 1518 1516 1515
f 1530 1534 1533
f 1506 1456 1508
f 1525 1523 1519
f 1516 1512 1511
f 1533 1531 1527
f 1512 1514 1513
f 1522 1520 1524
f 1517 1515 1511
f 1532 1528 1527
f 1522 1526 1525
f 1510 1508 1507
f 1520 1522 1521
f 1506 1510 1509
f 1456 1506 1505
f 1534 1532 1531
f 1514 1512 1516
f 1530 1528 1532
f 1536 1538 1537
f 1538 1542 1541
f 1542 1540 1539
f 1540 1536 1535
f 1541 1539 1535
f 1538 1536 1540
f 1560 1562 1561
f 1562 1566 1565
f 1566 1564 1563
f 1564 1560 1559
f 1565 1563 1559
f 1562 1560 1564
f 1568 1570 1569
f 1570 1574 1573
f 1574 1572 1571
f 1572 1568 1567
f 1573 1571 1567
f 1570 1568 1572
f 1576 1578 1577
f 1578 1582 1581
f 1582 1580 1579
f 1580 1576 1575
f 1581 1579 1575
f 1578 1576 1580
f 1584 1586 1585
f 1586 1590 1589
f 1590 1588 1587
f 1588 1584 1583
f 1589 1587 1583
f 1586 1584 1588
f 1592 1594 1593
f 1594 1598 1597
f 1598 1596 1595
f 1596 1592 1591
f 1597 1595 1591
f 1594 1592 1596
f 1600 1602 1601
f 1602 1606 1605
f 1606 1604 1603
f 1604 1600 1599
f 1605 1603 1599
f 1602 1600 1604
f 1624 1626 1625
f 1626 1630 1629
f 1630 1628 1627
f 1628 1624 1623
f 1629 1627 1623
f 1626 1624 1628
usemtl Mat10
f 1398 1399 1397
f 1400 1401 1399
f 1402 1403 1401
f 1404 1405 1403
f 1406 1404 1402
f 1406 1407 1405
f 1408 1397 1407
f 1405 1407 1399
f 1402 1400 1406
f 1400 1398 1406
f 1398 1408 1406
f 1407 1397 1399
f 1399 1401 1403
f 1403 1405 1399
f 1398 1400 1399
f 1400 1402 1401
f 1402 1404 1403
f 1404 1406 1405
f 1406 1408 1407
f 1408 1398 1397
usemtl Mat11
f 1544 1545 1543
f 1546 1549 1545
f 1550 1547 1549
f 1548 1543 1547
f 1549 1543 1545
f 1546 1548 1550
f 1608 1609 1607
f 1610 1613 1609
f 1614 1611 1613
f 1612 1607 1611
f 1613 1607 1609
f 1610 1612 1614
f 1544 1546 1545
f 1546 1550 1549
f 1550 1548 1547
f 1548 1544 1543
f 1549 1547 1543
f 1546 1544 1548
f 1608 1610 1609
f 1610 1614 1613
f 1614 1612 1611
f 1612 1608 1607
f 1613 1611 1607
f 1610 1608 1612
usemtl Mat12
f 1552 1553 1551
f 1554 1557 1553
f 1558 1555 1557
f 1556 1551 1555
f 1557 1551 1553
f 1554 1556 1558
f 1616 1617 1615
f 1618 1621 1617
f 1622 1619 1621
f 1620 1615 1619
f 1621 1615 1617
f 1618 1620 1622
f 1552 1554 1553
f 1554 1558 1557
f 1558 1556 1555
f 1556 1552 1551
f 1557 1555 1551
f 1554 1552 1556
f 1616 1618 1617
f 1618 1622 1621
f 1622 1620 1619
f 1620 1616 1615
f 1621 1619 1615
f 1618 1616 1620
usemtl Mat13
f 1717 1711 1713
f 1716 1711 1715
f 1714 1717 1713
f 1712 1713 1711
f 1718 1715 1717
f 1714 1716 1718
f 1717 1715 1711
f 1716 1712 1711
f 1714 1718 1717
f 1712 1714 1713
f 1718 1716 1715
f 1714 1712 1716
