# source: models.blend / Military_Assets / 22_Artillery_Position
# generated by tools/export_builtin_obj.py (Task69) - do not hand-edit
mtllib Fort_ArtilleryPost.mtl
v -12.0000 0.0000 -12.0000
v -12.0000 0.8000 -12.0000
v -6.2000 0.0000 -12.0000
v -6.2000 0.8000 -12.0000
v -12.0000 0.0000 12.0000
v -12.0000 0.8000 12.0000
v -6.2000 0.0000 12.0000
v -6.2000 0.8000 12.0000
v -6.2000 0.0000 -12.0000
v -6.2000 0.8000 -12.0000
v 12.0000 0.0000 -12.0000
v 12.0000 0.8000 -12.0000
v -6.2000 0.0000 -6.2000
v -6.2000 0.8000 -6.2000
v 12.0000 0.0000 -6.2000
v 12.0000 0.8000 -6.2000
v -6.2000 0.0000 -6.2000
v -6.2000 0.3500 -6.2000
v 6.2000 0.0000 -6.2000
v 6.2000 0.3500 -6.2000
v -6.2000 0.0000 6.2000
v -6.2000 0.3500 6.2000
v 6.2000 0.0000 6.2000
v 6.2000 0.3500 6.2000
v -6.2000 0.0000 6.2000
v -6.2000 0.8000 6.2000
v 12.0000 0.0000 6.2000
v 12.0000 0.8000 6.2000
v -6.2000 0.0000 12.0000
v -6.2000 0.8000 12.0000
v 12.0000 0.0000 12.0000
v 12.0000 0.8000 12.0000
v 6.2000 0.0000 -6.2000
v 6.2000 0.8000 -6.2000
v 12.0000 0.0000 -6.2000
v 12.0000 0.8000 -6.2000
v 6.2000 0.0000 6.2000
v 6.2000 0.8000 6.2000
v 12.0000 0.0000 6.2000
v 12.0000 0.8000 6.2000
v 2.3297 0.8000 6.5553
v 3.9305 0.8000 8.6042
v 7.3977 0.8000 5.8952
v 5.7970 0.8000 3.8464
v 3.1855 2.6500 6.8385
v 3.8627 2.6500 7.7053
v 6.5420 2.6500 5.6121
v 5.8647 2.6500 4.7453
v 4.0956 0.8000 5.6237
v 6.2123 0.8000 7.1335
v 8.7674 0.8000 3.5514
v 6.6507 0.8000 2.0416
v 4.9966 2.6500 5.6522
v 5.8921 2.6500 6.2909
v 7.8665 2.6500 3.5229
v 6.9709 2.6500 2.8842
v 5.5242 0.8000 4.2289
v 7.9825 0.8000 5.0754
v 9.4150 0.8000 0.9151
v 6.9567 0.8000 0.0686
v 6.3961 2.6500 4.0003
v 7.4362 2.6500 4.3584
v 8.5431 2.6500 1.1437
v 7.5030 2.6500 0.7855
v 6.4978 0.8000 2.4858
v 9.0953 0.8000 2.5992
v 9.2872 0.8000 -1.7966
v 6.6897 0.8000 -1.9100
v 7.2689 2.6500 2.0190
v 8.3678 2.6500 2.0670
v 8.5161 2.6500 -1.3298
v 7.4172 2.6500 -1.3778
v 6.9362 0.8000 0.5380
v 9.4589 0.8000 -0.0910
v 8.3945 0.8000 -4.3603
v 5.8717 0.8000 -3.7313
v 7.5429 2.6500 -0.1286
v 8.6103 2.6500 -0.3947
v 7.7877 2.6500 -3.6937
v 6.7204 2.6500 -3.4276
v 6.8033 0.8000 -1.4542
v 9.0436 0.8000 -2.7738
v 6.8104 0.8000 -6.5649
v 4.5702 0.8000 -5.2453
v 7.1958 2.6500 -2.2656
v 8.1436 2.6500 -2.8239
v 6.4180 2.6500 -5.7535
v 5.4702 2.6500 -5.1952
v 6.1102 0.8000 -3.3265
v 7.8834 0.8000 -5.2281
v 4.6654 0.8000 -8.2289
v 2.8922 0.8000 -6.3273
v 6.2560 2.6500 -4.2161
v 7.0062 2.6500 -5.0205
v 4.5196 2.6500 -7.3393
v 3.7694 2.6500 -6.5348
v 4.9138 0.8000 -4.9249
v 6.0739 0.8000 -7.2518
v 2.1362 0.8000 -9.2150
v 0.9760 0.8000 -6.8882
v 4.8009 2.6500 -5.8192
v 5.2918 2.6500 -6.8037
v 2.2490 2.6500 -8.3207
v 1.7582 2.6500 -7.3363
v 3.3127 0.8000 -6.1177
v 3.7641 0.8000 -8.6782
v -0.5690 0.8000 -9.4423
v -1.0205 0.8000 -6.8818
v 2.9505 2.6500 -6.9431
v 3.1415 2.6500 -8.0264
v -0.2068 2.6500 -8.6168
v -0.3979 2.6500 -7.5335
v 1.4387 0.8000 -6.8066
v 1.1444 0.8000 -9.3899
v -3.2273 0.8000 -8.8918
v -2.9330 0.8000 -6.3085
v 0.8570 2.6500 -7.4952
v 0.7325 2.6500 -8.5881
v -2.6456 2.6500 -8.2032
v -2.5211 2.6500 -7.1103
v -0.5537 0.8000 -6.9349
v -1.5696 0.8000 -9.3283
v -5.6198 0.8000 -7.6090
v -4.6039 0.8000 -5.2157
v -1.3070 2.6500 -7.4300
v -1.7368 2.6500 -8.4425
v -4.8665 2.6500 -7.1140
v -4.4367 2.6500 -6.1015
v -2.5005 0.8000 -6.4921
v -4.1543 0.8000 -8.4983
v -7.5495 0.8000 -5.6996
v -5.8957 0.8000 -3.6934
v -3.3634 2.6500 -6.7528
v -4.0631 2.6500 -7.6016
v -6.6866 2.6500 -5.4389
v -5.9869 2.6500 -4.5901
v -4.2414 0.8000 -5.5146
v -6.3969 0.8000 -6.9685
v -8.8574 0.8000 -3.3207
v -6.7019 0.8000 -1.8668
v -5.1428 2.6500 -5.5194
v -6.0547 2.6500 -6.1345
v -7.9560 2.6500 -3.3158
v -7.0441 2.6500 -2.7007
v -5.6330 0.8000 -4.0828
v -8.1126 0.8000 -4.8647
v -9.4357 0.8000 -0.6683
v -6.9561 0.8000 0.1135
v -6.4986 2.6500 -3.8315
v -7.5477 2.6500 -4.1623
v -8.5701 2.6500 -0.9196
v -7.5210 2.6500 -0.5889
v -6.5606 0.8000 -2.3149
v -9.1602 0.8000 -2.3602
v -9.2370 0.8000 2.0391
v -6.6374 0.8000 2.0845
v -7.3192 2.6500 -1.8280
v -8.4190 2.6500 -1.8472
v -8.4784 2.6500 1.5523
v -7.3785 2.6500 1.5715
v -6.9479 0.8000 -0.3562
v -9.4533 0.8000 0.3386
v -8.2775 0.8000 4.5786
v -5.7720 0.8000 3.8838
v -7.5370 2.6500 0.3260
v -8.5970 2.6500 0.6200
v -7.6884 2.6500 3.8963
v -6.6284 2.6500 3.6024
v -6.7629 0.8000 1.6318
v -8.9679 0.8000 3.0096
v -6.6362 0.8000 6.7410
v -4.4313 0.8000 5.3632
v -7.1340 2.6500 2.4532
v -8.0669 2.6500 3.0361
v -6.2651 2.6500 5.9195
v -5.3323 2.6500 5.3366
v 4.4538 0.8000 5.5239
v 4.4538 1.0400 5.5239
v 4.7735 0.8000 5.3185
v 4.7735 1.0400 5.3185
v 4.8159 0.8000 6.0872
v 4.8159 1.0400 6.0872
v 5.1355 0.8000 5.8817
v 5.1355 1.0400 5.8817
v 4.8431 0.8000 6.1296
v 4.8431 1.0400 6.1296
v 5.1628 0.8000 5.9241
v 5.1628 1.0400 5.9241
v 5.2052 0.8000 6.6928
v 5.2052 1.0400 6.6928
v 5.5249 0.8000 6.4874
v 5.5249 1.0400 6.4874
v 5.2325 0.8000 6.7352
v 5.2325 1.0400 6.7352
v 5.5521 0.8000 6.5298
v 5.5521 1.0400 6.5298
v 5.5946 0.8000 7.2985
v 5.5946 1.0400 7.2985
v 5.9142 0.8000 7.0930
v 5.9142 1.0400 7.0930
v 5.6218 0.8000 7.3409
v 5.6218 1.0400 7.3409
v 5.9415 0.8000 7.1354
v 5.9415 1.0400 7.1354
v 5.9839 0.8000 7.9041
v 5.9839 1.0400 7.9041
v 6.3036 0.8000 7.6987
v 6.3036 1.0400 7.6987
v 4.6485 1.0400 5.8268
v 4.6485 1.2800 5.8268
v 4.9681 1.0400 5.6213
v 4.9681 1.2800 5.6213
v 5.0106 1.0400 6.3900
v 5.0106 1.2800 6.3900
v 5.3302 1.0400 6.1845
v 5.3302 1.2800 6.1845
v 5.0378 1.0400 6.4324
v 5.0378 1.2800 6.4324
v 5.3575 1.0400 6.2269
v 5.3575 1.2800 6.2269
v 5.3999 1.0400 6.9957
v 5.3999 1.2800 6.9957
v 5.7196 1.0400 6.7902
v 5.7196 1.2800 6.7902
v 5.4272 1.0400 7.0381
v 5.4272 1.2800 7.0381
v 5.7468 1.0400 6.8326
v 5.7468 1.2800 6.8326
v 5.7893 1.0400 7.6013
v 5.7893 1.2800 7.6013
v 6.1089 1.0400 7.3958
v 6.1089 1.2800 7.3958
v 4.4538 1.2800 5.5239
v 4.4538 1.5200 5.5239
v 4.7735 1.2800 5.3185
v 4.7735 1.5200 5.3185
v 4.8159 1.2800 6.0872
v 4.8159 1.5200 6.0872
v 5.1355 1.2800 5.8817
v 5.1355 1.5200 5.8817
v 4.8431 1.2800 6.1296
v 4.8431 1.5200 6.1296
v 5.1628 1.2800 5.9241
v 5.1628 1.5200 5.9241
v 5.2052 1.2800 6.6928
v 5.2052 1.5200 6.6928
v 5.5249 1.2800 6.4874
v 5.5249 1.5200 6.4874
v 5.2325 1.2800 6.7352
v 5.2325 1.5200 6.7352
v 5.5521 1.2800 6.5298
v 5.5521 1.5200 6.5298
v 5.5946 1.2800 7.2985
v 5.5946 1.5200 7.2985
v 5.9142 1.2800 7.0930
v 5.9142 1.5200 7.0930
v 5.6218 1.2800 7.3409
v 5.6218 1.5200 7.3409
v 5.9415 1.2800 7.1354
v 5.9415 1.5200 7.1354
v 5.9839 1.2800 7.9041
v 5.9839 1.5200 7.9041
v 6.3036 1.2800 7.6987
v 6.3036 1.5200 7.6987
v -4.7735 0.8000 5.3185
v -4.7735 1.0400 5.3185
v -4.4538 0.8000 5.5239
v -4.4538 1.0400 5.5239
v -5.1355 0.8000 5.8817
v -5.1355 1.0400 5.8817
v -4.8159 0.8000 6.0872
v -4.8159 1.0400 6.0872
v -5.1628 0.8000 5.9241
v -5.1628 1.0400 5.9241
v -4.8431 0.8000 6.1296
v -4.8431 1.0400 6.1296
v -5.5249 0.8000 6.4874
v -5.5249 1.0400 6.4874
v -5.2052 0.8000 6.6928
v -5.2052 1.0400 6.6928
v -5.5521 0.8000 6.5298
v -5.5521 1.0400 6.5298
v -5.2325 0.8000 6.7352
v -5.2325 1.0400 6.7352
v -5.9142 0.8000 7.0930
v -5.9142 1.0400 7.0930
v -5.5946 0.8000 7.2985
v -5.5946 1.0400 7.2985
v -5.9415 0.8000 7.1354
v -5.9415 1.0400 7.1354
v -5.6218 0.8000 7.3409
v -5.6218 1.0400 7.3409
v -6.3036 0.8000 7.6987
v -6.3036 1.0400 7.6987
v -5.9839 0.8000 7.9041
v -5.9839 1.0400 7.9041
v -4.9681 1.0400 5.6213
v -4.9681 1.2800 5.6213
v -4.6485 1.0400 5.8268
v -4.6485 1.2800 5.8268
v -5.3302 1.0400 6.1845
v -5.3302 1.2800 6.1845
v -5.0106 1.0400 6.3900
v -5.0106 1.2800 6.3900
v -5.3575 1.0400 6.2269
v -5.3575 1.2800 6.2269
v -5.0378 1.0400 6.4324
v -5.0378 1.2800 6.4324
v -5.7196 1.0400 6.7902
v -5.7196 1.2800 6.7902
v -5.3999 1.0400 6.9957
v -5.3999 1.2800 6.9957
v -5.7468 1.0400 6.8326
v -5.7468 1.2800 6.8326
v -5.4272 1.0400 7.0381
v -5.4272 1.2800 7.0381
v -6.1089 1.0400 7.3958
v -6.1089 1.2800 7.3958
v -5.7893 1.0400 7.6013
v -5.7893 1.2800 7.6013
v -4.7735 1.2800 5.3185
v -4.7735 1.5200 5.3185
v -4.4538 1.2800 5.5239
v -4.4538 1.5200 5.5239
v -5.1355 1.2800 5.8817
v -5.1355 1.5200 5.8817
v -4.8159 1.2800 6.0872
v -4.8159 1.5200 6.0872
v -5.1628 1.2800 5.9241
v -5.1628 1.5200 5.9241
v -4.8431 1.2800 6.1296
v -4.8431 1.5200 6.1296
v -5.5249 1.2800 6.4874
v -5.5249 1.5200 6.4874
v -5.2052 1.2800 6.6928
v -5.2052 1.5200 6.6928
v -5.5521 1.2800 6.5298
v -5.5521 1.5200 6.5298
v -5.2325 1.2800 6.7352
v -5.2325 1.5200 6.7352
v -5.9142 1.2800 7.0930
v -5.9142 1.5200 7.0930
v -5.5946 1.2800 7.2985
v -5.5946 1.5200 7.2985
v -5.9415 1.2800 7.1354
v -5.9415 1.5200 7.1354
v -5.6218 1.2800 7.3409
v -5.6218 1.5200 7.3409
v -6.3036 1.2800 7.6987
v -6.3036 1.5200 7.6987
v -5.9839 1.2800 7.9041
v -5.9839 1.5200 7.9041
v -0.6500 1.3750 -0.5500
v -0.6500 0.8250 -0.5500
v 3.4000 0.3500 0.6000
v 3.4000 0.5700 0.6000
v 2.9445 0.3500 2.3000
v 2.9445 0.5700 2.3000
v 1.7000 0.3500 3.5445
v 1.7000 0.5700 3.5445
v 0.0000 0.3500 4.0000
v 0.0000 0.5700 4.0000
v -1.7000 0.3500 3.5445
v -1.7000 0.5700 3.5445
v -2.9445 0.3500 2.3000
v -2.9445 0.5700 2.3000
v -3.4000 0.3500 0.6000
v -3.4000 0.5700 0.6000
v -2.9445 0.3500 -1.1000
v -2.9445 0.5700 -1.1000
v -1.7000 0.3500 -2.3445
v -1.7000 0.5700 -2.3445
v 0.0000 0.3500 -2.8000
v 0.0000 0.5700 -2.8000
v 1.7000 0.3500 -2.3445
v 1.7000 0.5700 -2.3445
v 2.9445 0.3500 -1.1000
v 2.9445 0.5700 -1.1000
v 0.6500 0.8250 -0.5500
v 0.6500 1.3750 -0.5500
v -0.6500 0.8250 1.3500
v -0.6500 1.3750 1.3500
v 0.6500 0.8250 1.3500
v 0.6500 1.3750 1.3500
v 0.4873 0.7500 -3.4929
v 0.4873 1.0500 -3.4929
v 1.1700 1.4500 0.1500
v 0.9300 1.4500 0.1500
v 1.1700 1.3450 0.4733
v 0.9300 1.3450 0.4733
v 1.1700 1.0700 0.6731
v 0.9300 1.0700 0.6731
v 1.1700 0.7300 0.6731
v 0.9300 0.7300 0.6731
v 1.1700 0.4550 0.4733
v 0.9300 0.4550 0.4733
v 1.1700 0.3500 0.1500
v 0.9300 0.3500 0.1500
v 1.1700 0.4550 -0.1733
v 0.9300 0.4550 -0.1733
v 1.1700 0.7300 -0.3731
v 0.9300 0.7300 -0.3731
v 1.1700 1.0700 -0.3731
v 0.9300 1.0700 -0.3731
v 1.1700 1.3450 -0.1733
v 0.9300 1.3450 -0.1733
v 1.1928 1.1860 0.1500
v 1.1088 1.1860 0.1500
v 1.1928 1.1314 0.3181
v 1.1088 1.1314 0.3181
v 1.1928 0.9884 0.4220
v 1.1088 0.9884 0.4220
v 1.1928 0.8116 0.4220
v 1.1088 0.8116 0.4220
v 1.1928 0.6686 0.3181
v 1.1088 0.6686 0.3181
v 1.1928 0.6140 0.1500
v 1.1088 0.6140 0.1500
v 1.1928 0.6686 -0.0181
v 1.1088 0.6686 -0.0181
v 1.1928 0.8116 -0.1220
v 1.1088 0.8116 -0.1220
v 1.1928 0.9884 -0.1220
v 1.1088 0.9884 -0.1220
v 1.1928 1.1314 -0.0181
v 1.1088 1.1314 -0.0181
v 0.8219 0.7500 -3.5538
v 0.8219 1.0500 -3.5538
v 1.0781 0.7500 -0.2462
v 1.0781 1.0500 -0.2462
v 1.4127 0.7500 -0.3071
v 1.4127 1.0500 -0.3071
v 1.3500 0.4750 -3.8250
v 1.3500 0.8250 -3.8250
v 1.7500 0.4750 -3.8250
v 1.7500 0.8250 -3.8250
v 1.3500 0.4750 -3.3750
v 1.3500 0.8250 -3.3750
v 1.7500 0.4750 -3.3750
v 1.7500 0.8250 -3.3750
v -0.8219 1.0500 -3.5538
v -0.8219 0.7500 -3.5538
v -0.9300 1.4500 0.1500
v -1.1700 1.4500 0.1500
v -0.9300 1.3450 0.4733
v -1.1700 1.3450 0.4733
v -0.9300 1.0700 0.6731
v -1.1700 1.0700 0.6731
v -0.9300 0.7300 0.6731
v -1.1700 0.7300 0.6731
v -0.9300 0.4550 0.4733
v -1.1700 0.4550 0.4733
v -0.9300 0.3500 0.1500
v -1.1700 0.3500 0.1500
v -0.9300 0.4550 -0.1733
v -1.1700 0.4550 -0.1733
v -0.9300 0.7300 -0.3731
v -1.1700 0.7300 -0.3731
v -0.9300 1.0700 -0.3731
v -1.1700 1.0700 -0.3731
v -0.9300 1.3450 -0.1733
v -1.1700 1.3450 -0.1733
v -1.1088 1.1860 0.1500
v -1.1928 1.1860 0.1500
v -1.1088 1.1314 0.3181
v -1.1928 1.1314 0.3181
v -1.1088 0.9884 0.4220
v -1.1928 0.9884 0.4220
v -1.1088 0.8116 0.4220
v -1.1928 0.8116 0.4220
v -1.1088 0.6686 0.3181
v -1.1928 0.6686 0.3181
v -1.1088 0.6140 0.1500
v -1.1928 0.6140 0.1500
v -1.1088 0.6686 -0.0181
v -1.1928 0.6686 -0.0181
v -1.1088 0.8116 -0.1220
v -1.1928 0.8116 -0.1220
v -1.1088 0.9884 -0.1220
v -1.1928 0.9884 -0.1220
v -1.1088 1.1314 -0.0181
v -1.1928 1.1314 -0.0181
v -0.4873 0.7500 -3.4929
v -0.4873 1.0500 -3.4929
v -1.4127 0.7500 -0.3071
v -1.4127 1.0500 -0.3071
v -1.0781 0.7500 -0.2462
v -1.0781 1.0500 -0.2462
v -1.7500 0.4750 -3.8250
v -1.7500 0.8250 -3.8250
v -1.3500 0.4750 -3.8250
v -1.3500 0.8250 -3.8250
v -1.7500 0.4750 -3.3750
v -1.7500 0.8250 -3.3750
v -1.3500 0.4750 -3.3750
v -1.3500 0.8250 -3.3750
v -1.2000 1.0698 1.4128
v -1.2000 2.1750 1.0950
v 1.2000 1.0698 1.4128
v 1.2000 2.1750 1.0950
v -1.2000 1.1250 1.6050
v -1.2000 2.2302 1.2872
v 1.2000 1.1250 1.6050
v 1.2000 2.2302 1.2872
v -0.2750 1.9750 0.2250
v -0.2750 1.4250 0.2250
v 0.1150 1.7000 0.9500
v 0.1150 3.0003 5.1535
v 0.0930 1.6354 0.9700
v 0.0930 2.9357 5.1735
v 0.0355 1.5955 0.9823
v 0.0355 2.8958 5.1858
v -0.0355 1.5955 0.9823
v -0.0355 2.8958 5.1858
v -0.0930 1.6354 0.9700
v -0.0930 2.9357 5.1735
v -0.1150 1.7000 0.9500
v -0.1150 3.0003 5.1535
v -0.0930 1.7646 0.9300
v -0.0930 3.0649 5.1335
v -0.0355 1.8045 0.9177
v -0.0355 3.1048 5.1212
v 0.0355 1.8045 0.9177
v 0.0355 3.1048 5.1212
v 0.0930 1.7646 0.9300
v 0.0930 3.0649 5.1335
v 0.1900 1.7443 1.0933
v 0.1900 2.0694 2.1442
v 0.1537 1.6376 1.1263
v 0.1537 1.9627 2.1772
v 0.0587 1.5717 1.1467
v 0.0587 1.8968 2.1976
v -0.0587 1.5717 1.1467
v -0.0587 1.8968 2.1976
v -0.1537 1.6376 1.1263
v -0.1537 1.9627 2.1772
v -0.1900 1.7443 1.0933
v -0.1900 2.0694 2.1442
v -0.1537 1.8510 1.0603
v -0.1537 2.1761 2.1112
v -0.0587 1.9170 1.0399
v -0.0587 2.2420 2.0908
v 0.0587 1.9170 1.0399
v 0.0587 2.2420 2.0908
v 0.1537 1.8510 1.0603
v 0.1537 2.1761 2.1112
v 0.2000 2.8747 4.7475
v 0.2000 3.0372 5.2729
v 0.1618 2.7624 4.7822
v 0.1618 2.9249 5.3076
v 0.0618 2.6930 4.8037
v 0.0618 2.8555 5.3291
v -0.0618 2.6930 4.8037
v -0.0618 2.8555 5.3291
v -0.1618 2.7624 4.7822
v -0.1618 2.9249 5.3076
v -0.2000 2.8747 4.7475
v -0.2000 3.0372 5.2729
v -0.1618 2.9870 4.7127
v -0.1618 3.1495 5.2382
v -0.0618 3.0564 4.6913
v -0.0618 3.2189 5.2167
v 0.0618 3.0564 4.6913
v 0.0618 3.2189 5.2167
v 0.1618 2.9870 4.7127
v 0.1618 3.1495 5.2382
v 0.2750 1.4250 0.2250
v 0.2750 1.9750 0.2250
v -0.2750 1.4250 0.8750
v -0.2750 1.9750 0.8750
v 0.2750 1.4250 0.8750
v 0.2750 1.9750 0.8750
v 3.7975 0.3500 -4.4750
v 3.7975 0.4700 -4.4750
v 3.6850 0.3500 -2.6000
v 3.6850 0.9700 -2.6000
v 3.6425 0.3500 -2.5264
v 3.6425 0.9700 -2.5264
v 3.5575 0.3500 -2.5264
v 3.5575 0.9700 -2.5264
v 3.5150 0.3500 -2.6000
v 3.5150 0.9700 -2.6000
v 3.5575 0.3500 -2.6736
v 3.5575 0.9700 -2.6736
v 3.6425 0.3500 -2.6736
v 3.6425 0.9700 -2.6736
v 3.6850 0.3500 -2.3000
v 3.6850 0.9700 -2.3000
v 3.6425 0.3500 -2.2264
v 3.6425 0.9700 -2.2264
v 3.5575 0.3500 -2.2264
v 3.5575 0.9700 -2.2264
v 3.5150 0.3500 -2.3000
v 3.5150 0.9700 -2.3000
v 3.5575 0.3500 -2.3736
v 3.5575 0.9700 -2.3736
v 3.6425 0.3500 -2.3736
v 3.6425 0.9700 -2.3736
v 3.6850 0.3500 -2.0000
v 3.6850 0.9700 -2.0000
v 3.6425 0.3500 -1.9264
v 3.6425 0.9700 -1.9264
v 3.5575 0.3500 -1.9264
v 3.5575 0.9700 -1.9264
v 3.5150 0.3500 -2.0000
v 3.5150 0.9700 -2.0000
v 3.5575 0.3500 -2.0736
v 3.5575 0.9700 -2.0736
v 3.6425 0.3500 -2.0736
v 3.6425 0.9700 -2.0736
v 3.6850 0.3500 -1.7000
v 3.6850 0.9700 -1.7000
v 3.6425 0.3500 -1.6264
v 3.6425 0.9700 -1.6264
v 3.5575 0.3500 -1.6264
v 3.5575 0.9700 -1.6264
v 3.5150 0.3500 -1.7000
v 3.5150 0.9700 -1.7000
v 3.5575 0.3500 -1.7736
v 3.5575 0.9700 -1.7736
v 3.6425 0.3500 -1.7736
v 3.6425 0.9700 -1.7736
v 4.0250 0.3500 -2.6000
v 4.0250 0.9700 -2.6000
v 3.9825 0.3500 -2.5264
v 3.9825 0.9700 -2.5264
v 3.8975 0.3500 -2.5264
v 3.8975 0.9700 -2.5264
v 3.8550 0.3500 -2.6000
v 3.8550 0.9700 -2.6000
v 3.8975 0.3500 -2.6736
v 3.8975 0.9700 -2.6736
v 3.9825 0.3500 -2.6736
v 3.9825 0.9700 -2.6736
v 4.0250 0.3500 -2.3000
v 4.0250 0.9700 -2.3000
v 3.9825 0.3500 -2.2264
v 3.9825 0.9700 -2.2264
v 3.8975 0.3500 -2.2264
v 3.8975 0.9700 -2.2264
v 3.8550 0.3500 -2.3000
v 3.8550 0.9700 -2.3000
v 3.8975 0.3500 -2.3736
v 3.8975 0.9700 -2.3736
v 3.9825 0.3500 -2.3736
v 3.9825 0.9700 -2.3736
v 4.0250 0.3500 -2.0000
v 4.0250 0.9700 -2.0000
v 3.9825 0.3500 -1.9264
v 3.9825 0.9700 -1.9264
v 3.8975 0.3500 -1.9264
v 3.8975 0.9700 -1.9264
v 3.8550 0.3500 -2.0000
v 3.8550 0.9700 -2.0000
v 3.8975 0.3500 -2.0736
v 3.8975 0.9700 -2.0736
v 3.9825 0.3500 -2.0736
v 3.9825 0.9700 -2.0736
v 4.0250 0.3500 -1.7000
v 4.0250 0.9700 -1.7000
v 3.9825 0.3500 -1.6264
v 3.9825 0.9700 -1.6264
v 3.8975 0.3500 -1.6264
v 3.8975 0.9700 -1.6264
v 3.8550 0.3500 -1.7000
v 3.8550 0.9700 -1.7000
v 3.8975 0.3500 -1.7736
v 3.8975 0.9700 -1.7736
v 3.9825 0.3500 -1.7736
v 3.9825 0.9700 -1.7736
v 4.6025 0.3500 -4.4750
v 4.6025 0.4700 -4.4750
v 3.7975 0.3500 -3.3250
v 3.7975 0.4700 -3.3250
v 4.6025 0.3500 -3.3250
v 4.6025 0.4700 -3.3250
v 3.9100 0.4700 -4.5000
v 3.9100 0.8900 -4.5000
v 4.6100 0.4700 -4.5000
v 4.6100 0.8900 -4.5000
v 3.9100 0.4700 -3.5000
v 3.9100 0.8900 -3.5000
v 4.6100 0.4700 -3.5000
v 4.6100 0.8900 -3.5000
v 3.7900 0.8900 -4.3000
v 3.7900 1.3100 -4.3000
v 4.4900 0.8900 -4.3000
v 4.4900 1.3100 -4.3000
v 3.7900 0.8900 -3.3000
v 3.7900 1.3100 -3.3000
v 4.4900 0.8900 -3.3000
v 4.4900 1.3100 -3.3000
v -5.6000 0.3500 -6.3000
v -5.6000 1.8500 -6.3000
v -3.2000 0.3500 -6.3000
v -3.2000 1.8500 -6.3000
v -5.6000 0.3500 -2.9000
v -5.6000 1.8500 -2.9000
v -3.2000 0.3500 -2.9000
v -3.2000 1.8500 -2.9000
v -5.8500 1.6500 -6.5500
v -5.8500 2.5500 -6.5500
v -2.9500 1.6500 -6.5500
v -2.9500 2.5500 -6.5500
v -5.8500 1.6500 -2.6500
v -5.8500 2.5500 -2.6500
v -2.9500 1.6500 -2.6500
v -2.9500 2.5500 -2.6500
v -4.5000 0.3500 -3.4500
v -4.5000 1.4500 -3.4500
v -4.3000 0.3500 -3.4500
v -4.3000 1.4500 -3.4500
v -4.5000 0.3500 -2.3500
v -4.5000 1.4500 -2.3500
v -4.3000 0.3500 -2.3500
v -4.3000 1.4500 -2.3500
v 1.7000 3.3500 -1.0000
v 1.7000 3.3500 -6.2000
v 1.7700 0.3500 -6.2000
v 1.7700 3.3500 -6.2000
v 1.7350 0.3500 -6.1394
v 1.7350 3.3500 -6.1394
v 1.6650 0.3500 -6.1394
v 1.6650 3.3500 -6.1394
v 1.6300 0.3500 -6.2000
v 1.6300 3.3500 -6.2000
v 1.6650 0.3500 -6.2606
v 1.6650 3.3500 -6.2606
v 1.7350 0.3500 -6.2606
v 1.7350 3.3500 -6.2606
v 6.1700 0.3500 -6.2000
v 6.1700 3.3500 -6.2000
v 6.1350 0.3500 -6.1394
v 6.1350 3.3500 -6.1394
v 6.0650 0.3500 -6.1394
v 6.0650 3.3500 -6.1394
v 6.0300 0.3500 -6.2000
v 6.0300 3.3500 -6.2000
v 6.0650 0.3500 -6.2606
v 6.0650 3.3500 -6.2606
v 6.1350 0.3500 -6.2606
v 6.1350 3.3500 -6.2606
v 1.7700 0.3500 -1.0000
v 1.7700 3.3500 -1.0000
v 1.7350 0.3500 -0.9394
v 1.7350 3.3500 -0.9394
v 1.6650 0.3500 -0.9394
v 1.6650 3.3500 -0.9394
v 1.6300 0.3500 -1.0000
v 1.6300 3.3500 -1.0000
v 1.6650 0.3500 -1.0606
v 1.6650 3.3500 -1.0606
v 1.7350 0.3500 -1.0606
v 1.7350 3.3500 -1.0606
v 6.1700 0.3500 -1.0000
v 6.1700 3.3500 -1.0000
v 6.1350 0.3500 -0.9394
v 6.1350 3.3500 -0.9394
v 6.0650 0.3500 -0.9394
v 6.0650 3.3500 -0.9394
v 6.0300 0.3500 -1.0000
v 6.0300 3.3500 -1.0000
v 6.0650 0.3500 -1.0606
v 6.0650 3.3500 -1.0606
v 6.1350 0.3500 -1.0606
v 6.1350 3.3500 -1.0606
v 6.1000 3.3500 -1.0000
v 6.1000 3.3500 -6.2000
v 1.7000 3.4100 -6.2000
v 1.7000 3.4100 -1.0000
v 6.1000 3.4100 -1.0000
v 6.1000 3.4100 -6.2000
v 1.4360 2.9000 -5.6800
v 1.4360 3.3500 -5.6800
v 1.9640 2.9000 -5.6800
v 1.9640 3.3500 -5.6800
v 1.4360 2.9000 -1.5200
v 1.4360 3.3500 -1.5200
v 1.9640 2.9000 -1.5200
v 1.9640 3.3500 -1.5200
v 5.8360 2.9000 -5.6800
v 5.8360 3.3500 -5.6800
v 6.3640 2.9000 -5.6800
v 6.3640 3.3500 -5.6800
v 5.8360 2.9000 -1.5200
v 5.8360 3.3500 -1.5200
v 6.3640 2.9000 -1.5200
v 6.3640 3.3500 -1.5200
v 2.1400 2.9000 -6.5120
v 2.1400 3.3500 -6.5120
v 5.6600 2.9000 -6.5120
v 5.6600 3.3500 -6.5120
v 2.1400 2.9000 -5.8880
v 2.1400 3.3500 -5.8880
v 5.6600 2.9000 -5.8880
v 5.6600 3.3500 -5.8880
v 2.1400 2.9000 -1.3120
v 2.1400 3.3500 -1.3120
v 5.6600 2.9000 -1.3120
v 5.6600 3.3500 -1.3120
v 2.1400 2.9000 -0.6880
v 2.1400 3.3500 -0.6880
v 5.6600 2.9000 -0.6880
v 5.6600 3.3500 -0.6880
v -5.3750 0.8000 -5.8000
v -5.3750 3.6000 -5.8000
v -5.4000 0.8000 -5.7750
v -5.4000 3.6000 -5.7750
v -5.4250 0.8000 -5.8000
v -5.4250 3.6000 -5.8000
v -5.4000 0.8000 -5.8250
v -5.4000 3.6000 -5.8250
usemtl Mat0
f 2 3 1
f 4 7 3
f 8 5 7
f 6 1 5
f 7 1 3
f 4 6 8
f 10 11 9
f 12 15 11
f 16 13 15
f 14 9 13
f 15 9 11
f 12 14 16
f 26 27 25
f 28 31 27
f 32 29 31
f 30 25 29
f 31 25 27
f 28 30 32
f 34 35 33
f 36 39 35
f 40 37 39
f 38 33 37
f 39 33 35
f 36 38 40
f 41 43 42
f 45 47 48
f 42 45 41
f 43 46 42
f 44 47 43
f 44 45 48
f 52 50 49
f 53 55 56
f 49 54 53
f 51 54 50
f 51 56 55
f 49 56 52
f 57 59 58
f 61 63 64
f 58 61 57
f 59 62 58
f 60 63 59
f 57 64 60
f 68 66 65
f 69 71 72
f 65 70 69
f 66 71 70
f 67 72 71
f 68 69 72
f 76 74 73
f 77 79 80
f 73 78 77
f 74 79 78
f 75 80 79
f 76 77 80
f 84 82 81
f 85 87 88
f 82 85 81
f 83 86 82
f 84 87 83
f 81 88 84
f 92 90 89
f 93 95 96
f 90 93 89
f 90 95 94
f 91 96 95
f 92 93 96
f 100 98 97
f 104 102 103
f 98 101 97
f 98 103 102
f 99 104 103
f 97 104 100
f 108 106 105
f 109 111 112
f 105 110 109
f 107 110 106
f 108 111 107
f 108 109 112
f 113 115 114
f 117 119 120
f 113 118 117
f 114 119 118
f 115 120 119
f 116 117 120
f 124 122 121
f 128 126 127
f 121 126 125
f 122 127 126
f 124 127 123
f 124 125 128
f 132 130 129
f 136 134 135
f 130 133 129
f 130 135 134
f 132 135 131
f 132 133 136
f 137 139 138
f 144 142 143
f 138 141 137
f 138 143 142
f 139 144 143
f 140 141 144
f 145 147 146
f 152 150 151
f 146 149 145
f 147 150 146
f 148 151 147
f 145 152 148
f 156 154 153
f 157 159 160
f 154 157 153
f 155 158 154
f 156 159 155
f 153 160 156
f 164 162 161
f 168 166 167
f 161 166 165
f 162 167 166
f 164 167 163
f 164 165 168
f 172 170 169
f 173 175 176
f 170 173 169
f 171 174 170
f 171 176 175
f 169 176 172
f 702 703 701
f 704 707 703
f 708 705 707
f 706 701 705
f 707 701 703
f 704 706 708
f 2 4 3
f 4 8 7
f 8 6 5
f 6 2 1
f 7 5 1
f 4 2 6
f 10 12 11
f 12 16 15
f 16 14 13
f 14 10 9
f 15 13 9
f 12 10 14
f 26 28 27
f 28 32 31
f 32 30 29
f 30 26 25
f 31 29 25
f 28 26 30
f 34 36 35
f 36 40 39
f 40 38 37
f 38 34 33
f 39 37 33
f 36 34 38
f 41 44 43
f 45 46 47
f 42 46 45
f 43 47 46
f 44 48 47
f 44 41 45
f 52 51 50
f 53 54 55
f 49 50 54
f 51 55 54
f 51 52 56
f 49 53 56
f 57 60 59
f 61 62 63
f 58 62 61
f 59 63 62
f 60 64 63
f 57 61 64
f 68 67 66
f 69 70 71
f 65 66 70
f 66 67 71
f 67 68 72
f 68 65 69
f 76 75 74
f 77 78 79
f 73 74 78
f 74 75 79
f 75 76 80
f 76 73 77
f 84 83 82
f 85 86 87
f 82 86 85
f 83 87 86
f 84 88 87
f 81 85 88
f 92 91 90
f 93 94 95
f 90 94 93
f 90 91 95
f 91 92 96
f 92 89 93
f 100 99 98
f 104 101 102
f 98 102 101
f 98 99 103
f 99 100 104
f 97 101 104
f 108 107 106
f 109 110 111
f 105 106 110
f 107 111 110
f 108 112 111
f 108 105 109
f 113 116 115
f 117 118 119
f 113 114 118
f 114 115 119
f 115 116 120
f 116 113 117
f 124 123 122
f 128 125 126
f 121 122 126
f 122 123 127
f 124 128 127
f 124 121 125
f 132 131 130
f 136 133 134
f 130 134 133
f 130 131 135
f 132 136 135
f 132 129 133
f 137 140 139
f 144 141 142
f 138 142 141
f 138 139 143
f 139 140 144
f 140 137 141
f 145 148 147
f 152 149 150
f 146 150 149
f 147 151 150
f 148 152 151
f 145 149 152
f 156 155 154
f 157 158 159
f 154 158 157
f 155 159 158
f 156 160 159
f 153 157 160
f 164 163 162
f 168 165 166
f 161 162 166
f 162 163 167
f 164 168 167
f 164 161 165
f 172 171 170
f 173 174 175
f 170 174 173
f 171 175 174
f 171 172 176
f 169 173 176
f 702 704 703
f 704 708 707
f 708 706 705
f 706 702 701
f 707 705 701
f 704 702 706
usemtl Mat1
f 18 19 17
f 20 23 19
f 24 21 23
f 22 17 21
f 23 17 19
f 20 22 24
f 178 179 177
f 180 183 179
f 184 181 183
f 182 177 181
f 183 177 179
f 180 182 184
f 186 187 185
f 188 191 187
f 192 189 191
f 190 185 189
f 191 185 187
f 188 190 192
f 194 195 193
f 196 199 195
f 200 197 199
f 198 193 197
f 199 193 195
f 196 198 200
f 202 203 201
f 204 207 203
f 208 205 207
f 206 201 205
f 207 201 203
f 204 206 208
f 210 211 209
f 212 215 211
f 216 213 215
f 214 209 213
f 215 209 211
f 212 214 216
f 218 219 217
f 220 223 219
f 224 221 223
f 222 217 221
f 223 217 219
f 220 222 224
f 226 227 225
f 228 231 227
f 232 229 231
f 230 225 229
f 231 225 227
f 228 230 232
f 234 235 233
f 236 239 235
f 240 237 239
f 238 233 237
f 239 233 235
f 236 238 240
f 242 243 241
f 244 247 243
f 248 245 247
f 246 241 245
f 247 241 243
f 244 246 248
f 250 251 249
f 252 255 251
f 256 253 255
f 254 249 253
f 255 249 251
f 252 254 256
f 258 259 257
f 260 263 259
f 264 261 263
f 262 257 261
f 263 257 259
f 260 262 264
f 266 267 265
f 268 271 267
f 272 269 271
f 270 265 269
f 271 265 267
f 268 270 272
f 274 275 273
f 276 279 275
f 280 277 279
f 278 273 277
f 279 273 275
f 276 278 280
f 282 283 281
f 284 287 283
f 288 285 287
f 286 281 285
f 287 281 283
f 284 286 288
f 290 291 289
f 292 295 291
f 296 293 295
f 294 289 293
f 295 289 291
f 292 294 296
f 298 299 297
f 300 303 299
f 304 301 303
f 302 297 301
f 303 297 299
f 300 302 304
f 306 307 305
f 308 311 307
f 312 309 311
f 310 305 309
f 311 305 307
f 308 310 312
f 314 315 313
f 316 319 315
f 320 317 319
f 318 313 317
f 319 313 315
f 316 318 320
f 322 323 321
f 324 327 323
f 328 325 327
f 326 321 325
f 327 321 323
f 324 326 328
f 330 331 329
f 332 335 331
f 336 333 335
f 334 329 333
f 335 329 331
f 332 334 336
f 338 339 337
f 340 343 339
f 344 341 343
f 342 337 341
f 343 337 339
f 340 342 344
f 346 347 345
f 348 351 347
f 352 349 351
f 350 345 349
f 351 345 347
f 348 350 352
f 18 20 19
f 20 24 23
f 24 22 21
f 22 18 17
f 23 21 17
f 20 18 22
f 178 180 179
f 180 184 183
f 184 182 181
f 182 178 177
f 183 181 177
f 180 178 182
f 186 188 187
f 188 192 191
f 192 190 189
f 190 186 185
f 191 189 185
f 188 186 190
f 194 196 195
f 196 200 199
f 200 198 197
f 198 194 193
f 199 197 193
f 196 194 198
f 202 204 203
f 204 208 207
f 208 206 205
f 206 202 201
f 207 205 201
f 204 202 206
f 210 212 211
f 212 216 215
f 216 214 213
f 214 210 209
f 215 213 209
f 212 210 214
f 218 220 219
f 220 224 223
f 224 222 221
f 222 218 217
f 223 221 217
f 220 218 222
f 226 228 227
f 228 232 231
f 232 230 229
f 230 226 225
f 231 229 225
f 228 226 230
f 234 236 235
f 236 240 239
f 240 238 237
f 238 234 233
f 239 237 233
f 236 234 238
f 242 244 243
f 244 248 247
f 248 246 245
f 246 242 241
f 247 245 241
f 244 242 246
f 250 252 251
f 252 256 255
f 256 254 253
f 254 250 249
f 255 253 249
f 252 250 254
f 258 260 259
f 260 264 263
f 264 262 261
f 262 258 257
f 263 261 257
f 260 258 262
f 266 268 267
f 268 272 271
f 272 270 269
f 270 266 265
f 271 269 265
f 268 266 270
f 274 276 275
f 276 280 279
f 280 278 277
f 278 274 273
f 279 277 273
f 276 274 278
f 282 284 283
f 284 288 287
f 288 286 285
f 286 282 281
f 287 285 281
f 284 282 286
f 290 292 291
f 292 296 295
f 296 294 293
f 294 290 289
f 295 293 289
f 292 290 294
f 298 300 299
f 300 304 303
f 304 302 301
f 302 298 297
f 303 301 297
f 300 298 302
f 306 308 307
f 308 312 311
f 312 310 309
f 310 306 305
f 311 309 305
f 308 306 310
f 314 316 315
f 316 320 319
f 320 318 317
f 318 314 313
f 319 317 313
f 316 314 318
f 322 324 323
f 324 328 327
f 328 326 325
f 326 322 321
f 327 325 321
f 324 322 326
f 330 332 331
f 332 336 335
f 336 334 333
f 334 330 329
f 335 333 329
f 332 330 334
f 338 340 339
f 340 344 343
f 344 342 341
f 342 338 337
f 343 341 337
f 340 338 342
f 346 348 347
f 348 352 351
f 352 350 349
f 350 346 345
f 351 349 345
f 348 346 350
usemtl Mat2
f 356 357 355
f 358 359 357
f 360 361 359
f 362 363 361
f 364 365 363
f 366 367 365
f 368 369 367
f 370 371 369
f 372 373 371
f 374 375 373
f 376 368 360
f 376 377 375
f 378 355 377
f 361 369 377
f 368 366 364
f 356 378 376
f 364 362 360
f 358 356 376
f 360 358 376
f 372 370 368
f 376 374 372
f 376 372 368
f 368 364 360
f 377 355 357
f 357 359 377
f 359 361 377
f 361 363 365
f 365 367 369
f 369 371 373
f 373 375 369
f 375 377 369
f 361 365 369
f 356 358 357
f 358 360 359
f 360 362 361
f 362 364 363
f 364 366 365
f 366 368 367
f 368 370 369
f 370 372 371
f 372 374 373
f 374 376 375
f 376 378 377
f 378 356 355
usemtl Mat3
f 502 497 501
f 431 385 427
f 380 382 384
f 383 354 379
f 382 354 381
f 504 501 503
f 384 381 383
f 380 383 379
f 353 379 354
f 428 430 432
f 430 385 429
f 432 429 431
f 428 431 427
f 386 427 385
f 486 442 485
f 498 499 497
f 487 442 483
f 500 503 499
f 484 486 488
f 500 502 504
f 488 485 487
f 484 487 483
f 441 483 442
f 503 497 499
f 502 498 497
f 431 429 385
f 380 353 382
f 383 381 354
f 382 353 354
f 504 502 501
f 384 382 381
f 380 384 383
f 353 380 379
f 428 386 430
f 430 386 385
f 432 430 429
f 428 432 431
f 386 428 427
f 486 441 442
f 498 500 499
f 487 485 442
f 500 504 503
f 484 441 486
f 500 498 502
f 488 486 485
f 484 488 487
f 441 484 483
f 503 501 497
usemtl Mat4
f 388 389 387
f 394 395 393
f 392 393 391
f 396 397 395
f 390 391 389
f 398 399 397
f 400 401 399
f 402 403 401
f 390 406 398
f 446 447 445
f 404 405 403
f 444 445 443
f 406 387 405
f 403 391 395
f 448 449 447
f 450 451 449
f 452 453 451
f 454 455 453
f 456 457 455
f 458 459 457
f 457 461 445
f 460 461 459
f 462 443 461
f 444 460 452
f 394 392 390
f 390 388 406
f 406 404 398
f 404 402 398
f 402 400 398
f 398 396 394
f 394 390 398
f 395 397 399
f 399 401 403
f 403 405 387
f 387 389 403
f 389 391 403
f 391 393 395
f 395 399 403
f 445 447 453
f 447 449 453
f 449 451 453
f 453 455 457
f 457 459 461
f 461 443 445
f 453 457 445
f 448 446 444
f 444 462 460
f 460 458 456
f 456 454 460
f 454 452 460
f 452 450 448
f 448 444 452
f 388 390 389
f 394 396 395
f 392 394 393
f 396 398 397
f 390 392 391
f 398 400 399
f 400 402 401
f 402 404 403
f 446 448 447
f 404 406 405
f 444 446 445
f 406 388 387
f 448 450 449
f 450 452 451
f 452 454 453
f 454 456 455
f 456 458 457
f 458 460 459
f 460 462 461
f 462 444 443
usemtl Mat5
f 474 475 473
f 412 413 411
f 418 419 417
f 409 412 411
f 416 417 415
f 468 469 467
f 413 416 415
f 408 409 407
f 420 421 419
f 422 423 421
f 408 420 416
f 424 425 423
f 426 407 425
f 411 413 421
f 465 468 467
f 472 473 471
f 464 465 463
f 469 472 471
f 476 477 475
f 478 479 477
f 480 478 470
f 480 481 479
f 482 463 481
f 463 465 473
f 416 414 412
f 412 410 408
f 408 426 424
f 424 422 420
f 420 418 416
f 416 412 408
f 408 424 420
f 413 415 421
f 415 417 421
f 417 419 421
f 421 423 409
f 423 425 409
f 425 407 409
f 409 411 421
f 478 476 474
f 474 472 478
f 472 470 478
f 470 468 466
f 466 464 470
f 464 482 470
f 482 480 470
f 465 467 469
f 469 471 465
f 471 473 465
f 473 475 481
f 475 477 481
f 477 479 481
f 481 463 473
f 474 476 475
f 412 414 413
f 418 420 419
f 409 410 412
f 416 418 417
f 468 470 469
f 413 414 416
f 408 410 409
f 420 422 421
f 422 424 423
f 424 426 425
f 426 408 407
f 465 466 468
f 472 474 473
f 464 466 465
f 469 470 472
f 476 478 477
f 478 480 479
f 480 482 481
f 482 464 463
usemtl Mat6
f 434 435 433
f 436 438 440
f 436 439 435
f 440 437 439
f 439 433 435
f 438 433 437
f 492 495 491
f 538 539 537
f 496 493 495
f 490 491 489
f 492 494 496
f 495 489 491
f 494 489 493
f 532 533 531
f 507 510 509
f 553 556 555
f 510 511 509
f 512 513 511
f 536 537 535
f 529 532 531
f 514 515 513
f 515 518 517
f 571 506 567
f 517 520 519
f 534 535 533
f 528 529 527
f 520 521 519
f 550 551 549
f 552 553 551
f 522 523 521
f 512 508 524
f 557 560 559
f 524 525 523
f 556 557 555
f 526 507 525
f 513 517 521
f 547 550 549
f 540 541 539
f 568 570 572
f 542 543 541
f 532 528 540
f 543 546 545
f 570 506 569
f 545 528 527
f 541 545 533
f 572 569 571
f 560 561 559
f 568 571 567
f 562 563 561
f 562 558 554
f 505 567 506
f 563 566 565
f 566 547 565
f 557 561 565
f 512 510 508
f 508 526 524
f 524 522 516
f 522 520 516
f 520 518 516
f 516 514 524
f 514 512 524
f 525 507 509
f 509 511 513
f 513 515 517
f 517 519 521
f 521 523 525
f 525 509 521
f 509 513 521
f 536 534 532
f 532 530 528
f 528 546 540
f 546 544 540
f 544 542 540
f 540 538 536
f 536 532 540
f 537 539 541
f 541 543 545
f 545 527 529
f 529 531 545
f 531 533 545
f 533 535 537
f 537 541 533
f 554 552 566
f 552 550 566
f 550 548 566
f 566 564 562
f 562 560 558
f 558 556 554
f 566 562 554
f 549 551 553
f 553 555 557
f 557 559 561
f 561 563 565
f 565 547 549
f 549 553 565
f 553 557 565
f 434 436 435
f 436 434 438
f 436 440 439
f 440 438 437
f 439 437 433
f 438 434 433
f 492 496 495
f 538 540 539
f 496 494 493
f 490 492 491
f 492 490 494
f 495 493 489
f 494 490 489
f 532 534 533
f 507 508 510
f 553 554 556
f 510 512 511
f 512 514 513
f 536 538 537
f 529 530 532
f 514 516 515
f 515 516 518
f 571 569 506
f 517 518 520
f 534 536 535
f 528 530 529
f 520 522 521
f 550 552 551
f 552 554 553
f 522 524 523
f 557 558 560
f 524 526 525
f 556 558 557
f 526 508 507
f 547 548 550
f 540 542 541
f 568 505 570
f 542 544 543
f 543 544 546
f 570 505 506
f 545 546 528
f 572 570 569
f 560 562 561
f 568 572 571
f 562 564 563
f 505 568 567
f 563 564 566
f 566 548 547
usemtl Mat7
f 588 589 587
f 600 601 599
f 614 615 613
f 612 613 611
f 578 579 577
f 576 586 584
f 576 577 575
f 582 583 581
f 580 581 579
f 624 625 623
f 616 617 615
f 584 585 583
f 592 593 591
f 590 591 589
f 586 575 585
f 575 577 579
f 594 595 593
f 588 598 596
f 628 629 627
f 596 597 595
f 604 605 603
f 602 603 601
f 598 587 597
f 587 589 593
f 606 607 605
f 640 641 639
f 607 609 599
f 608 609 607
f 626 627 625
f 636 637 635
f 610 599 609
f 600 610 608
f 618 619 617
f 652 653 651
f 611 613 617
f 620 621 619
f 638 639 637
f 648 649 647
f 622 611 621
f 612 622 620
f 630 631 629
f 664 665 663
f 623 625 627
f 632 633 631
f 650 651 649
f 660 661 659
f 634 623 633
f 624 634 632
f 642 643 641
f 635 637 639
f 644 645 643
f 662 663 661
f 646 635 645
f 636 646 644
f 654 655 653
f 647 649 651
f 656 657 655
f 658 647 657
f 648 658 656
f 666 667 665
f 659 661 663
f 668 669 667
f 670 659 669
f 660 670 668
f 584 582 576
f 582 580 576
f 580 578 576
f 579 581 575
f 581 583 575
f 583 585 575
f 596 594 588
f 594 592 588
f 592 590 588
f 589 591 593
f 593 595 597
f 597 587 593
f 599 601 603
f 603 605 599
f 605 607 599
f 608 606 600
f 606 604 600
f 604 602 600
f 613 615 617
f 617 619 621
f 621 611 617
f 620 618 612
f 618 616 612
f 616 614 612
f 627 629 623
f 629 631 623
f 631 633 623
f 632 630 624
f 630 628 624
f 628 626 624
f 639 641 635
f 641 643 635
f 643 645 635
f 644 642 636
f 642 640 636
f 640 638 636
f 651 653 647
f 653 655 647
f 655 657 647
f 656 654 648
f 654 652 648
f 652 650 648
f 663 665 659
f 665 667 659
f 667 669 659
f 668 666 660
f 666 664 660
f 664 662 660
f 588 590 589
f 600 602 601
f 614 616 615
f 612 614 613
f 578 580 579
f 576 578 577
f 582 584 583
f 580 582 581
f 624 626 625
f 616 618 617
f 584 586 585
f 592 594 593
f 590 592 591
f 586 576 575
f 594 596 595
f 628 630 629
f 596 598 597
f 604 606 605
f 602 604 603
f 598 588 587
f 606 608 607
f 640 642 641
f 608 610 609
f 626 628 627
f 636 638 637
f 610 600 599
f 618 620 619
f 652 654 653
f 620 622 621
f 638 640 639
f 648 650 649
f 622 612 611
f 630 632 631
f 664 666 665
f 632 634 633
f 650 652 651
f 660 662 661
f 634 624 623
f 642 644 643
f 644 646 645
f 662 664 663
f 646 636 635
f 654 656 655
f 656 658 657
f 658 648 647
f 666 668 667
f 668 670 669
f 670 660 659
usemtl Mat8
f 672 675 671
f 676 673 675
f 675 573 671
f 672 674 676
f 574 671 573
f 674 573 673
f 720 721 719
f 722 723 721
f 744 745 743
f 732 733 731
f 724 725 723
f 756 757 755
f 726 727 725
f 728 726 724
f 728 729 727
f 736 737 735
f 734 735 733
f 730 719 729
f 727 729 721
f 738 739 737
f 742 740 738
f 740 741 739
f 748 749 747
f 746 747 745
f 742 731 741
f 733 735 739
f 750 751 749
f 752 750 748
f 752 753 751
f 760 761 759
f 758 759 757
f 754 743 753
f 753 743 745
f 762 763 761
f 763 765 755
f 764 765 763
f 766 755 765
f 766 764 760
f 724 722 728
f 722 720 728
f 720 730 728
f 729 719 721
f 721 723 725
f 725 727 721
f 738 736 742
f 736 734 742
f 734 732 742
f 735 737 739
f 739 741 731
f 731 733 739
f 748 746 744
f 744 754 748
f 754 752 748
f 745 747 749
f 749 751 745
f 751 753 745
f 755 757 763
f 757 759 763
f 759 761 763
f 764 762 760
f 760 758 756
f 756 766 760
f 672 676 675
f 676 674 673
f 675 673 573
f 672 574 674
f 574 672 671
f 674 574 573
f 720 722 721
f 722 724 723
f 744 746 745
f 732 734 733
f 724 726 725
f 756 758 757
f 726 728 727
f 728 730 729
f 736 738 737
f 734 736 735
f 730 720 719
f 738 740 739
f 740 742 741
f 748 750 749
f 746 748 747
f 742 732 731
f 750 752 751
f 752 754 753
f 760 762 761
f 758 760 759
f 754 744 743
f 762 764 763
f 764 766 765
f 766 756 755
usemtl Mat9
f 680 683 679
f 682 677 681
f 684 681 683
f 678 679 677
f 683 677 679
f 680 682 684
f 686 687 685
f 688 691 687
f 692 689 691
f 690 685 689
f 691 685 687
f 688 690 692
f 694 695 693
f 696 699 695
f 700 697 699
f 698 693 697
f 699 693 695
f 696 698 700
f 680 684 683
f 682 678 677
f 684 682 681
f 678 680 679
f 683 681 677
f 680 678 682
f 686 688 687
f 688 692 691
f 692 690 689
f 690 686 685
f 691 689 685
f 688 686 690
f 694 696 695
f 696 700 699
f 700 698 697
f 698 694 693
f 699 697 693
f 696 694 698
usemtl Mat10
f 710 711 709
f 712 715 711
f 716 713 715
f 714 709 713
f 715 709 711
f 712 714 716
f 806 807 805
f 808 809 807
f 806 810 808
f 810 811 809
f 812 805 811
f 807 811 805
f 710 712 711
f 712 716 715
f 716 714 713
f 714 710 709
f 715 713 709
f 712 710 714
f 806 808 807
f 808 810 809
f 806 812 810
f 810 812 811
f 812 806 805
f 807 809 811
usemtl Mat11
f 776 779 775
f 774 775 773
f 780 777 779
f 778 773 777
f 718 772 768
f 717 769 718
f 769 771 772
f 768 771 767
f 768 717 718
f 767 770 717
f 779 773 775
f 776 778 780
f 782 783 781
f 784 787 783
f 788 785 787
f 786 781 785
f 787 781 783
f 784 786 788
f 790 791 789
f 792 795 791
f 796 793 795
f 794 789 793
f 795 789 791
f 792 794 796
f 798 799 797
f 800 803 799
f 804 801 803
f 802 797 801
f 803 797 799
f 800 802 804
f 776 780 779
f 774 776 775
f 780 778 777
f 778 774 773
f 718 769 772
f 717 770 769
f 769 770 771
f 768 772 771
f 768 767 717
f 767 771 770
f 779 777 773
f 776 774 778
f 782 784 783
f 784 788 787
f 788 786 785
f 786 782 781
f 787 785 781
f 784 782 786
f 790 792 791
f 792 796 795
f 796 794 793
f 794 790 789
f 795 793 789
f 792 790 794
f 798 800 799
f 800 804 803
f 804 802 801
f 802 798 797
f 803 801 797
f 800 798 802
