# source: models.blend / Military_Assets / 23_Supply_Point
# generated by tools/export_builtin_obj.py (Task69) - do not hand-edit
mtllib Fort_SupplyDepot.mtl
v -12.0000 0.0000 -16.0000
v -12.0000 0.3000 -16.0000
v -6.0000 0.0000 -16.0000
v -6.0000 0.3000 -16.0000
v -12.0000 0.0000 16.0000
v -12.0000 0.3000 16.0000
v -6.0000 0.0000 16.0000
v -6.0000 0.3000 16.0000
v -6.0000 0.0000 -16.0000
v -6.0000 0.3000 -16.0000
v 12.0000 0.0000 -16.0000
v 12.0000 0.3000 -16.0000
v -6.0000 0.0000 -13.0000
v -6.0000 0.3000 -13.0000
v 12.0000 0.0000 -13.0000
v 12.0000 0.3000 -13.0000
v -6.0000 0.0000 -13.0000
v -6.0000 0.3000 -13.0000
v -3.0000 0.0000 -13.0000
v -3.0000 0.3000 -13.0000
v -6.0000 0.0000 13.0000
v -6.0000 0.3000 13.0000
v -3.0000 0.0000 13.0000
v -3.0000 0.3000 13.0000
v -6.0000 0.0000 13.0000
v -6.0000 0.3000 13.0000
v -3.0000 0.0000 13.0000
v -3.0000 0.3000 13.0000
v -6.0000 0.0000 16.0000
v -6.0000 0.3000 16.0000
v -3.0000 0.0000 16.0000
v -3.0000 0.3000 16.0000
v -3.0000 0.0000 -13.0000
v -3.0000 0.3000 -13.0000
v 6.5000 0.0000 -13.0000
v 6.5000 0.3000 -13.0000
v -3.0000 0.0000 2.0000
v -3.0000 0.3000 2.0000
v 6.5000 0.0000 2.0000
v 6.5000 0.3000 2.0000
v -3.0000 0.0000 2.0000
v -3.0000 0.3000 2.0000
v 3.0000 0.0000 2.0000
v 3.0000 0.3000 2.0000
v -3.0000 0.0000 16.0000
v -3.0000 0.3000 16.0000
v 3.0000 0.0000 16.0000
v 3.0000 0.3000 16.0000
v 3.0000 0.0000 2.0000
v 3.0000 0.3000 2.0000
v 6.5000 0.0000 2.0000
v 6.5000 0.3000 2.0000
v 3.0000 0.0000 13.0000
v 3.0000 0.3000 13.0000
v 6.5000 0.0000 13.0000
v 6.5000 0.3000 13.0000
v 3.0000 0.0000 13.0000
v 3.0000 0.3000 13.0000
v 12.0000 0.0000 13.0000
v 12.0000 0.3000 13.0000
v 3.0000 0.0000 16.0000
v 3.0000 0.3000 16.0000
v 12.0000 0.0000 16.0000
v 12.0000 0.3000 16.0000
v 6.5000 0.0000 -13.0000
v 6.5000 0.3000 -13.0000
v 12.0000 0.0000 -13.0000
v 12.0000 0.3000 -13.0000
v 6.5000 0.0000 13.0000
v 6.5000 0.3000 13.0000
v 12.0000 0.0000 13.0000
v 12.0000 0.3000 13.0000
v 3.6000 2.6000 -13.0000
v 3.6000 2.6000 1.0000
v 7.4000 3.7000 1.0000
v 7.4000 3.7000 -13.0000
v 3.6000 2.7200 -13.0000
v 3.6000 2.7200 1.0000
v 7.4000 3.8200 1.0000
v 7.4000 3.8200 -13.0000
v 11.2000 2.6000 -13.0000
v 11.2000 2.6000 1.0000
v 7.4000 3.7000 1.0000
v 7.4000 3.7000 -13.0000
v 11.2000 2.7200 -13.0000
v 11.2000 2.7200 1.0000
v 7.4000 3.8200 1.0000
v 7.4000 3.8200 -13.0000
v 7.2700 3.6300 -13.0000
v 7.2700 3.8900 -13.0000
v 7.5300 3.6300 -13.0000
v 7.5300 3.8900 -13.0000
v 7.2700 3.6300 1.0000
v 7.2700 3.8900 1.0000
v 7.5300 3.6300 1.0000
v 7.5300 3.8900 1.0000
v -11.4000 2.6000 1.0000
v -11.4000 2.6000 -13.0000
v 3.6900 0.3000 -12.3000
v 3.6900 2.6000 -12.3000
v 3.6450 0.3000 -12.2221
v 3.6450 2.6000 -12.2221
v 3.5550 0.3000 -12.2221
v 3.5550 2.6000 -12.2221
v 3.5100 0.3000 -12.3000
v 3.5100 2.6000 -12.3000
v 3.5550 0.3000 -12.3779
v 3.5550 2.6000 -12.3779
v 3.6450 0.3000 -12.3779
v 3.6450 2.6000 -12.3779
v 11.2900 0.3000 -12.3000
v 11.2900 2.6000 -12.3000
v 11.2450 0.3000 -12.2221
v 11.2450 2.6000 -12.2221
v 11.1550 0.3000 -12.2221
v 11.1550 2.6000 -12.2221
v 11.1100 0.3000 -12.3000
v 11.1100 2.6000 -12.3000
v 11.1550 0.3000 -12.3779
v 11.1550 2.6000 -12.3779
v 11.2450 0.3000 -12.3779
v 11.2450 2.6000 -12.3779
v 3.6900 0.3000 -6.0000
v 3.6900 2.6000 -6.0000
v 3.6450 0.3000 -5.9221
v 3.6450 2.6000 -5.9221
v 3.5550 0.3000 -5.9221
v 3.5550 2.6000 -5.9221
v 3.5100 0.3000 -6.0000
v 3.5100 2.6000 -6.0000
v 3.5550 0.3000 -6.0779
v 3.5550 2.6000 -6.0779
v 3.6450 0.3000 -6.0779
v 3.6450 2.6000 -6.0779
v 11.2900 0.3000 -6.0000
v 11.2900 2.6000 -6.0000
v 11.2450 0.3000 -5.9221
v 11.2450 2.6000 -5.9221
v 11.1550 0.3000 -5.9221
v 11.1550 2.6000 -5.9221
v 11.1100 0.3000 -6.0000
v 11.1100 2.6000 -6.0000
v 11.1550 0.3000 -6.0779
v 11.1550 2.6000 -6.0779
v 11.2450 0.3000 -6.0779
v 11.2450 2.6000 -6.0779
v 3.6900 0.3000 0.3000
v 3.6900 2.6000 0.3000
v 3.6450 0.3000 0.3779
v 3.6450 2.6000 0.3779
v 3.5550 0.3000 0.3779
v 3.5550 2.6000 0.3779
v 3.5100 0.3000 0.3000
v 3.5100 2.6000 0.3000
v 3.5550 0.3000 0.2221
v 3.5550 2.6000 0.2221
v 3.6450 0.3000 0.2221
v 3.6450 2.6000 0.2221
v 11.2900 0.3000 0.3000
v 11.2900 2.6000 0.3000
v 11.2450 0.3000 0.3779
v 11.2450 2.6000 0.3779
v 11.1550 0.3000 0.3779
v 11.1550 2.6000 0.3779
v 11.1100 0.3000 0.3000
v 11.1100 2.6000 0.3000
v 11.1550 0.3000 0.2221
v 11.1550 2.6000 0.2221
v 11.2450 0.3000 0.2221
v 11.2450 2.6000 0.2221
v -7.6000 3.7000 1.0000
v -7.6000 3.7000 -13.0000
v -11.4000 2.7200 -13.0000
v -11.4000 2.7200 1.0000
v -7.6000 3.8200 1.0000
v -7.6000 3.8200 -13.0000
v -3.8000 2.6000 -13.0000
v -3.8000 2.6000 1.0000
v -7.6000 3.7000 1.0000
v -7.6000 3.7000 -13.0000
v -3.8000 2.7200 -13.0000
v -3.8000 2.7200 1.0000
v -7.6000 3.8200 1.0000
v -7.6000 3.8200 -13.0000
v -7.7300 3.6300 -13.0000
v -7.7300 3.8900 -13.0000
v -7.4700 3.6300 -13.0000
v -7.4700 3.8900 -13.0000
v -7.7300 3.6300 1.0000
v -7.7300 3.8900 1.0000
v -7.4700 3.6300 1.0000
v -7.4700 3.8900 1.0000
v 5.7050 0.4200 -12.1500
v 5.7050 0.3000 -12.1500
v -11.3100 0.3000 -12.3000
v -11.3100 2.6000 -12.3000
v -11.3550 0.3000 -12.2221
v -11.3550 2.6000 -12.2221
v -11.4450 0.3000 -12.2221
v -11.4450 2.6000 -12.2221
v -11.4900 0.3000 -12.3000
v -11.4900 2.6000 -12.3000
v -11.4450 0.3000 -12.3779
v -11.4450 2.6000 -12.3779
v -11.3550 0.3000 -12.3779
v -11.3550 2.6000 -12.3779
v -3.7100 0.3000 -12.3000
v -3.7100 2.6000 -12.3000
v -3.7550 0.3000 -12.2221
v -3.7550 2.6000 -12.2221
v -3.8450 0.3000 -12.2221
v -3.8450 2.6000 -12.2221
v -3.8900 0.3000 -12.3000
v -3.8900 2.6000 -12.3000
v -3.8450 0.3000 -12.3779
v -3.8450 2.6000 -12.3779
v -3.7550 0.3000 -12.3779
v -3.7550 2.6000 -12.3779
v -11.3100 0.3000 -6.0000
v -11.3100 2.6000 -6.0000
v -11.3550 0.3000 -5.9221
v -11.3550 2.6000 -5.9221
v -11.4450 0.3000 -5.9221
v -11.4450 2.6000 -5.9221
v -11.4900 0.3000 -6.0000
v -11.4900 2.6000 -6.0000
v -11.4450 0.3000 -6.0779
v -11.4450 2.6000 -6.0779
v -11.3550 0.3000 -6.0779
v -11.3550 2.6000 -6.0779
v -3.7100 0.3000 -6.0000
v -3.7100 2.6000 -6.0000
v -3.7550 0.3000 -5.9221
v -3.7550 2.6000 -5.9221
v -3.8450 0.3000 -5.9221
v -3.8450 2.6000 -5.9221
v -3.8900 0.3000 -6.0000
v -3.8900 2.6000 -6.0000
v -3.8450 0.3000 -6.0779
v -3.8450 2.6000 -6.0779
v -3.7550 0.3000 -6.0779
v -3.7550 2.6000 -6.0779
v -11.3100 0.3000 0.3000
v -11.3100 2.6000 0.3000
v -11.3550 0.3000 0.3779
v -11.3550 2.6000 0.3779
v -11.4450 0.3000 0.3779
v -11.4450 2.6000 0.3779
v -11.4900 0.3000 0.3000
v -11.4900 2.6000 0.3000
v -11.4450 0.3000 0.2221
v -11.4450 2.6000 0.2221
v -11.3550 0.3000 0.2221
v -11.3550 2.6000 0.2221
v -3.7100 0.3000 0.3000
v -3.7100 2.6000 0.3000
v -3.7550 0.3000 0.3779
v -3.7550 2.6000 0.3779
v -3.8450 0.3000 0.3779
v -3.8450 2.6000 0.3779
v -3.8900 0.3000 0.3000
v -3.8900 2.6000 0.3000
v -3.8450 0.3000 0.2221
v -3.8450 2.6000 0.2221
v -3.7550 0.3000 0.2221
v -3.7550 2.6000 0.2221
v 8.6950 0.3000 -12.1500
v 8.6950 0.4200 -12.1500
v 5.7050 0.3000 -9.8500
v 5.7050 0.4200 -9.8500
v 8.6950 0.3000 -9.8500
v 8.6950 0.4200 -9.8500
v 5.9600 0.4200 -12.1000
v 5.9600 1.1200 -12.1000
v 8.5600 0.4200 -12.1000
v 8.5600 1.1200 -12.1000
v 5.9600 0.4200 -10.1000
v 5.9600 1.1200 -10.1000
v 8.5600 0.4200 -10.1000
v 8.5600 1.1200 -10.1000
v 5.8400 1.1200 -11.9000
v 5.8400 1.8200 -11.9000
v 8.4400 1.1200 -11.9000
v 8.4400 1.8200 -11.9000
v 5.8400 1.1200 -9.9000
v 5.8400 1.8200 -9.9000
v 8.4400 1.1200 -9.9000
v 8.4400 1.8200 -9.9000
v 5.9600 1.8200 -12.1000
v 5.9600 2.5200 -12.1000
v 8.5600 1.8200 -12.1000
v 8.5600 2.5200 -12.1000
v 5.9600 1.8200 -10.1000
v 5.9600 2.5200 -10.1000
v 8.5600 1.8200 -10.1000
v 8.5600 2.5200 -10.1000
v 5.7050 0.3000 -7.5500
v 5.7050 0.4200 -7.5500
v 8.6950 0.3000 -7.5500
v 8.6950 0.4200 -7.5500
v 5.7050 0.3000 -5.2500
v 5.7050 0.4200 -5.2500
v 8.6950 0.3000 -5.2500
v 8.6950 0.4200 -5.2500
v 5.9600 0.4200 -7.5000
v 5.9600 1.1200 -7.5000
v 8.5600 0.4200 -7.5000
v 8.5600 1.1200 -7.5000
v 5.9600 0.4200 -5.5000
v 5.9600 1.1200 -5.5000
v 8.5600 0.4200 -5.5000
v 8.5600 1.1200 -5.5000
v 5.8400 1.1200 -7.3000
v 5.8400 1.8200 -7.3000
v 8.4400 1.1200 -7.3000
v 8.4400 1.8200 -7.3000
v 5.8400 1.1200 -5.3000
v 5.8400 1.8200 -5.3000
v 8.4400 1.1200 -5.3000
v 8.4400 1.8200 -5.3000
v 5.9600 1.8200 -7.5000
v 5.9600 2.5200 -7.5000
v 8.5600 1.8200 -7.5000
v 8.5600 2.5200 -7.5000
v 5.9600 1.8200 -5.5000
v 5.9600 2.5200 -5.5000
v 8.5600 1.8200 -5.5000
v 8.5600 2.5200 -5.5000
v 5.7050 0.3000 -2.9500
v 5.7050 0.4200 -2.9500
v 8.6950 0.3000 -2.9500
v 8.6950 0.4200 -2.9500
v 5.7050 0.3000 -0.6500
v 5.7050 0.4200 -0.6500
v 8.6950 0.3000 -0.6500
v 8.6950 0.4200 -0.6500
v 5.9600 0.4200 -2.9000
v 5.9600 1.1200 -2.9000
v 8.5600 0.4200 -2.9000
v 8.5600 1.1200 -2.9000
v 5.9600 0.4200 -0.9000
v 5.9600 1.1200 -0.9000
v 8.5600 0.4200 -0.9000
v 8.5600 1.1200 -0.9000
v 5.8400 1.1200 -2.7000
v 5.8400 1.8200 -2.7000
v 8.4400 1.1200 -2.7000
v 8.4400 1.8200 -2.7000
v 5.8400 1.1200 -0.7000
v 5.8400 1.8200 -0.7000
v 8.4400 1.1200 -0.7000
v 8.4400 1.8200 -0.7000
v 5.9600 1.8200 -2.9000
v 5.9600 2.5200 -2.9000
v 8.5600 1.8200 -2.9000
v 8.5600 2.5200 -2.9000
v 5.9600 1.8200 -0.9000
v 5.9600 2.5200 -0.9000
v 8.5600 1.8200 -0.9000
v 8.5600 2.5200 -0.9000
v -9.0950 0.3000 -12.1500
v -9.0950 0.4200 -12.1500
v -6.1050 0.3000 -12.1500
v -6.1050 0.4200 -12.1500
v -9.0950 0.3000 -9.8500
v -9.0950 0.4200 -9.8500
v -6.1050 0.3000 -9.8500
v -6.1050 0.4200 -9.8500
v -8.8400 0.4200 -12.1000
v -8.8400 1.1200 -12.1000
v -6.2400 0.4200 -12.1000
v -6.2400 1.1200 -12.1000
v -8.8400 0.4200 -10.1000
v -8.8400 1.1200 -10.1000
v -6.2400 0.4200 -10.1000
v -6.2400 1.1200 -10.1000
v -8.9600 1.1200 -11.9000
v -8.9600 1.8200 -11.9000
v -6.3600 1.1200 -11.9000
v -6.3600 1.8200 -11.9000
v -8.9600 1.1200 -9.9000
v -8.9600 1.8200 -9.9000
v -6.3600 1.1200 -9.9000
v -6.3600 1.8200 -9.9000
v -8.8400 1.8200 -12.1000
v -8.8400 2.5200 -12.1000
v -6.2400 1.8200 -12.1000
v -6.2400 2.5200 -12.1000
v -8.8400 1.8200 -10.1000
v -8.8400 2.5200 -10.1000
v -6.2400 1.8200 -10.1000
v -6.2400 2.5200 -10.1000
v -9.0950 0.3000 -7.5500
v -9.0950 0.4200 -7.5500
v -6.1050 0.3000 -7.5500
v -6.1050 0.4200 -7.5500
v -9.0950 0.3000 -5.2500
v -9.0950 0.4200 -5.2500
v -6.1050 0.3000 -5.2500
v -6.1050 0.4200 -5.2500
v -8.8400 0.4200 -7.5000
v -8.8400 1.1200 -7.5000
v -6.2400 0.4200 -7.5000
v -6.2400 1.1200 -7.5000
v -8.8400 0.4200 -5.5000
v -8.8400 1.1200 -5.5000
v -6.2400 0.4200 -5.5000
v -6.2400 1.1200 -5.5000
v -8.9600 1.1200 -7.3000
v -8.9600 1.8200 -7.3000
v -6.3600 1.1200 -7.3000
v -6.3600 1.8200 -7.3000
v -8.9600 1.1200 -5.3000
v -8.9600 1.8200 -5.3000
v -6.3600 1.1200 -5.3000
v -6.3600 1.8200 -5.3000
v -8.8400 1.8200 -7.5000
v -8.8400 2.5200 -7.5000
v -6.2400 1.8200 -7.5000
v -6.2400 2.5200 -7.5000
v -8.8400 1.8200 -5.5000
v -8.8400 2.5200 -5.5000
v -6.2400 1.8200 -5.5000
v -6.2400 2.5200 -5.5000
v -9.0950 0.3000 -2.9500
v -9.0950 0.4200 -2.9500
v -6.1050 0.3000 -2.9500
v -6.1050 0.4200 -2.9500
v -9.0950 0.3000 -0.6500
v -9.0950 0.4200 -0.6500
v -6.1050 0.3000 -0.6500
v -6.1050 0.4200 -0.6500
v -8.8400 0.4200 -2.9000
v -8.8400 1.1200 -2.9000
v -6.2400 0.4200 -2.9000
v -6.2400 1.1200 -2.9000
v -8.8400 0.4200 -0.9000
v -8.8400 1.1200 -0.9000
v -6.2400 0.4200 -0.9000
v -6.2400 1.1200 -0.9000
v -8.9600 1.1200 -2.7000
v -8.9600 1.8200 -2.7000
v -6.3600 1.1200 -2.7000
v -6.3600 1.8200 -2.7000
v -8.9600 1.1200 -0.7000
v -8.9600 1.8200 -0.7000
v -6.3600 1.1200 -0.7000
v -6.3600 1.8200 -0.7000
v -8.8400 1.8200 -2.9000
v -8.8400 2.5200 -2.9000
v -6.2400 1.8200 -2.9000
v -6.2400 2.5200 -2.9000
v -8.8400 1.8200 -0.9000
v -8.8400 2.5200 -0.9000
v -6.2400 1.8200 -0.9000
v -6.2400 2.5200 -0.9000
v 7.7525 0.3000 0.9650
v 7.7525 0.4200 0.9650
v 9.2475 0.3000 0.9650
v 9.2475 0.4200 0.9650
v 7.7525 0.3000 3.0350
v 7.7525 0.4200 3.0350
v 9.2475 0.3000 3.0350
v 9.2475 0.4200 3.0350
v 7.9100 0.4200 1.0000
v 7.9100 1.0700 1.0000
v 9.2100 0.4200 1.0000
v 9.2100 1.0700 1.0000
v 7.9100 0.4200 2.8000
v 7.9100 1.0700 2.8000
v 9.2100 0.4200 2.8000
v 9.2100 1.0700 2.8000
v 7.7900 1.0700 1.2000
v 7.7900 1.7200 1.2000
v 9.0900 1.0700 1.2000
v 9.0900 1.7200 1.2000
v 7.7900 1.0700 3.0000
v 7.7900 1.7200 3.0000
v 9.0900 1.0700 3.0000
v 9.0900 1.7200 3.0000
v 7.9100 1.7200 1.0000
v 7.9100 2.3700 1.0000
v 9.2100 1.7200 1.0000
v 9.2100 2.3700 1.0000
v 7.9100 1.7200 2.8000
v 7.9100 2.3700 2.8000
v 9.2100 1.7200 2.8000
v 9.2100 2.3700 2.8000
v 7.7525 0.3000 3.5650
v 7.7525 0.4200 3.5650
v 9.2475 0.3000 3.5650
v 9.2475 0.4200 3.5650
v 7.7525 0.3000 5.6350
v 7.7525 0.4200 5.6350
v 9.2475 0.3000 5.6350
v 9.2475 0.4200 5.6350
v 7.9100 0.4200 3.6000
v 7.9100 1.0700 3.6000
v 9.2100 0.4200 3.6000
v 9.2100 1.0700 3.6000
v 7.9100 0.4200 5.4000
v 7.9100 1.0700 5.4000
v 9.2100 0.4200 5.4000
v 9.2100 1.0700 5.4000
v 7.7900 1.0700 3.8000
v 7.7900 1.7200 3.8000
v 9.0900 1.0700 3.8000
v 9.0900 1.7200 3.8000
v 7.7900 1.0700 5.6000
v 7.7900 1.7200 5.6000
v 9.0900 1.0700 5.6000
v 9.0900 1.7200 5.6000
v -9.7475 0.3000 0.9650
v -9.7475 0.4200 0.9650
v -8.2525 0.3000 0.9650
v -8.2525 0.4200 0.9650
v -9.7475 0.3000 3.0350
v -9.7475 0.4200 3.0350
v -8.2525 0.3000 3.0350
v -8.2525 0.4200 3.0350
v -9.5900 0.4200 1.0000
v -9.5900 1.0700 1.0000
v -8.2900 0.4200 1.0000
v -8.2900 1.0700 1.0000
v -9.5900 0.4200 2.8000
v -9.5900 1.0700 2.8000
v -8.2900 0.4200 2.8000
v -8.2900 1.0700 2.8000
v -9.7100 1.0700 1.2000
v -9.7100 1.7200 1.2000
v -8.4100 1.0700 1.2000
v -8.4100 1.7200 1.2000
v -9.7100 1.0700 3.0000
v -9.7100 1.7200 3.0000
v -8.4100 1.0700 3.0000
v -8.4100 1.7200 3.0000
v 6.0000 3.3000 6.9000
v 6.0000 3.3000 -0.1000
v 7.8200 0.3000 7.5800
v 7.8200 1.1800 7.5800
v 7.7321 0.3000 7.7921
v 7.7321 1.1800 7.7921
v 7.5200 0.3000 7.8800
v 7.5200 1.1800 7.8800
v 7.3079 0.3000 7.7921
v 7.3079 1.1800 7.7921
v 7.2200 0.3000 7.5800
v 7.2200 1.1800 7.5800
v 7.3079 0.3000 7.3679
v 7.3079 1.1800 7.3679
v 7.5200 0.3000 7.2800
v 7.5200 1.1800 7.2800
v 7.7321 0.3000 7.3679
v 7.7321 1.1800 7.3679
v 7.8380 0.8156 7.5800
v 7.8380 0.8756 7.5800
v 7.7449 0.8156 7.8049
v 7.7449 0.8756 7.8049
v 7.5200 0.8156 7.8980
v 7.5200 0.8756 7.8980
v 7.2951 0.8156 7.8049
v 7.2951 0.8756 7.8049
v 7.2020 0.8156 7.5800
v 7.2020 0.8756 7.5800
v 7.2951 0.8156 7.3551
v 7.2951 0.8756 7.3551
v 7.5200 0.8156 7.2620
v 7.5200 0.8756 7.2620
v 7.7449 0.8156 7.3551
v 7.7449 0.8756 7.3551
v 8.5000 0.3000 7.5800
v 8.5000 1.1800 7.5800
v 8.4121 0.3000 7.7921
v 8.4121 1.1800 7.7921
v 8.2000 0.3000 7.8800
v 8.2000 1.1800 7.8800
v 7.9879 0.3000 7.7921
v 7.9879 1.1800 7.7921
v 7.9000 0.3000 7.5800
v 7.9000 1.1800 7.5800
v 7.9879 0.3000 7.3679
v 7.9879 1.1800 7.3679
v 8.2000 0.3000 7.2800
v 8.2000 1.1800 7.2800
v 8.4121 0.3000 7.3679
v 8.4121 1.1800 7.3679
v 8.5180 0.8156 7.5800
v 8.5180 0.8756 7.5800
v 8.4249 0.8156 7.8049
v 8.4249 0.8756 7.8049
v 8.2000 0.8156 7.8980
v 8.2000 0.8756 7.8980
v 7.9751 0.8156 7.8049
v 7.9751 0.8756 7.8049
v 7.8820 0.8156 7.5800
v 7.8820 0.8756 7.5800
v 7.9751 0.8156 7.3551
v 7.9751 0.8756 7.3551
v 8.2000 0.8156 7.2620
v 8.2000 0.8756 7.2620
v 8.4249 0.8156 7.3551
v 8.4249 0.8756 7.3551
v 9.1800 0.3000 7.5800
v 9.1800 1.1800 7.5800
v 9.0921 0.3000 7.7921
v 9.0921 1.1800 7.7921
v 8.8800 0.3000 7.8800
v 8.8800 1.1800 7.8800
v 8.6679 0.3000 7.7921
v 8.6679 1.1800 7.7921
v 8.5800 0.3000 7.5800
v 8.5800 1.1800 7.5800
v 8.6679 0.3000 7.3679
v 8.6679 1.1800 7.3679
v 8.8800 0.3000 7.2800
v 8.8800 1.1800 7.2800
v 9.0921 0.3000 7.3679
v 9.0921 1.1800 7.3679
v 9.1980 0.8156 7.5800
v 9.1980 0.8756 7.5800
v 9.1049 0.8156 7.8049
v 9.1049 0.8756 7.8049
v 8.8800 0.8156 7.8980
v 8.8800 0.8756 7.8980
v 8.6551 0.8156 7.8049
v 8.6551 0.8756 7.8049
v 8.5620 0.8156 7.5800
v 8.5620 0.8756 7.5800
v 8.6551 0.8156 7.3551
v 8.6551 0.8756 7.3551
v 8.8800 0.8156 7.2620
v 8.8800 0.8756 7.2620
v 9.1049 0.8156 7.3551
v 9.1049 0.8756 7.3551
v 7.8200 0.3000 8.2600
v 7.8200 1.1800 8.2600
v 7.7321 0.3000 8.4721
v 7.7321 1.1800 8.4721
v 7.5200 0.3000 8.5600
v 7.5200 1.1800 8.5600
v 7.3079 0.3000 8.4721
v 7.3079 1.1800 8.4721
v 7.2200 0.3000 8.2600
v 7.2200 1.1800 8.2600
v 7.3079 0.3000 8.0479
v 7.3079 1.1800 8.0479
v 7.5200 0.3000 7.9600
v 7.5200 1.1800 7.9600
v 7.7321 0.3000 8.0479
v 7.7321 1.1800 8.0479
v 7.8380 0.8156 8.2600
v 7.8380 0.8756 8.2600
v 7.7449 0.8156 8.4849
v 7.7449 0.8756 8.4849
v 7.5200 0.8156 8.5780
v 7.5200 0.8756 8.5780
v 7.2951 0.8156 8.4849
v 7.2951 0.8756 8.4849
v 7.2020 0.8156 8.2600
v 7.2020 0.8756 8.2600
v 7.2951 0.8156 8.0351
v 7.2951 0.8756 8.0351
v 7.5200 0.8156 7.9420
v 7.5200 0.8756 7.9420
v 7.7449 0.8156 8.0351
v 7.7449 0.8756 8.0351
v 8.5000 0.3000 8.2600
v 8.5000 1.1800 8.2600
v 8.4121 0.3000 8.4721
v 8.4121 1.1800 8.4721
v 8.2000 0.3000 8.5600
v 8.2000 1.1800 8.5600
v 7.9879 0.3000 8.4721
v 7.9879 1.1800 8.4721
v 7.9000 0.3000 8.2600
v 7.9000 1.1800 8.2600
v 7.9879 0.3000 8.0479
v 7.9879 1.1800 8.0479
v 8.2000 0.3000 7.9600
v 8.2000 1.1800 7.9600
v 8.4121 0.3000 8.0479
v 8.4121 1.1800 8.0479
v 8.5180 0.8156 8.2600
v 8.5180 0.8756 8.2600
v 8.4249 0.8156 8.4849
v 8.4249 0.8756 8.4849
v 8.2000 0.8156 8.5780
v 8.2000 0.8756 8.5780
v 7.9751 0.8156 8.4849
v 7.9751 0.8756 8.4849
v 7.8820 0.8156 8.2600
v 7.8820 0.8756 8.2600
v 7.9751 0.8156 8.0351
v 7.9751 0.8756 8.0351
v 8.2000 0.8156 7.9420
v 8.2000 0.8756 7.9420
v 8.4249 0.8156 8.0351
v 8.4249 0.8756 8.0351
v 9.1800 0.3000 8.2600
v 9.1800 1.1800 8.2600
v 9.0921 0.3000 8.4721
v 9.0921 1.1800 8.4721
v 8.8800 0.3000 8.5600
v 8.8800 1.1800 8.5600
v 8.6679 0.3000 8.4721
v 8.6679 1.1800 8.4721
v 8.5800 0.3000 8.2600
v 8.5800 1.1800 8.2600
v 8.6679 0.3000 8.0479
v 8.6679 1.1800 8.0479
v 8.8800 0.3000 7.9600
v 8.8800 1.1800 7.9600
v 9.0921 0.3000 8.0479
v 9.0921 1.1800 8.0479
v 9.1980 0.8156 8.2600
v 9.1980 0.8756 8.2600
v 9.1049 0.8156 8.4849
v 9.1049 0.8756 8.4849
v 8.8800 0.8156 8.5780
v 8.8800 0.8756 8.5780
v 8.6551 0.8156 8.4849
v 8.6551 0.8756 8.4849
v 8.5620 0.8156 8.2600
v 8.5620 0.8756 8.2600
v 8.6551 0.8156 8.0351
v 8.6551 0.8756 8.0351
v 8.8800 0.8156 7.9420
v 8.8800 0.8756 7.9420
v 9.1049 0.8156 8.0351
v 9.1049 0.8756 8.0351
v 7.8200 0.3000 8.9400
v 7.8200 1.1800 8.9400
v 7.7321 0.3000 9.1521
v 7.7321 1.1800 9.1521
v 7.5200 0.3000 9.2400
v 7.5200 1.1800 9.2400
v 7.3079 0.3000 9.1521
v 7.3079 1.1800 9.1521
v 7.2200 0.3000 8.9400
v 7.2200 1.1800 8.9400
v 7.3079 0.3000 8.7279
v 7.3079 1.1800 8.7279
v 7.5200 0.3000 8.6400
v 7.5200 1.1800 8.6400
v 7.7321 0.3000 8.7279
v 7.7321 1.1800 8.7279
v 7.8380 0.8156 8.9400
v 7.8380 0.8756 8.9400
v 7.7449 0.8156 9.1649
v 7.7449 0.8756 9.1649
v 7.5200 0.8156 9.2580
v 7.5200 0.8756 9.2580
v 7.2951 0.8156 9.1649
v 7.2951 0.8756 9.1649
v 7.2020 0.8156 8.9400
v 7.2020 0.8756 8.9400
v 7.2951 0.8156 8.7151
v 7.2951 0.8756 8.7151
v 7.5200 0.8156 8.6220
v 7.5200 0.8756 8.6220
v 7.7449 0.8156 8.7151
v 7.7449 0.8756 8.7151
v 8.5000 0.3000 8.9400
v 8.5000 1.1800 8.9400
v 8.4121 0.3000 9.1521
v 8.4121 1.1800 9.1521
v 8.2000 0.3000 9.2400
v 8.2000 1.1800 9.2400
v 7.9879 0.3000 9.1521
v 7.9879 1.1800 9.1521
v 7.9000 0.3000 8.9400
v 7.9000 1.1800 8.9400
v 7.9879 0.3000 8.7279
v 7.9879 1.1800 8.7279
v 8.2000 0.3000 8.6400
v 8.2000 1.1800 8.6400
v 8.4121 0.3000 8.7279
v 8.4121 1.1800 8.7279
v 8.5180 0.8156 8.9400
v 8.5180 0.8756 8.9400
v 8.4249 0.8156 9.1649
v 8.4249 0.8756 9.1649
v 8.2000 0.8156 9.2580
v 8.2000 0.8756 9.2580
v 7.9751 0.8156 9.1649
v 7.9751 0.8756 9.1649
v 7.8820 0.8156 8.9400
v 7.8820 0.8756 8.9400
v 7.9751 0.8156 8.7151
v 7.9751 0.8756 8.7151
v 8.2000 0.8156 8.6220
v 8.2000 0.8756 8.6220
v 8.4249 0.8156 8.7151
v 8.4249 0.8756 8.7151
v 9.1800 0.3000 8.9400
v 9.1800 1.1800 8.9400
v 9.0921 0.3000 9.1521
v 9.0921 1.1800 9.1521
v 8.8800 0.3000 9.2400
v 8.8800 1.1800 9.2400
v 8.6679 0.3000 9.1521
v 8.6679 1.1800 9.1521
v 8.5800 0.3000 8.9400
v 8.5800 1.1800 8.9400
v 8.6679 0.3000 8.7279
v 8.6679 1.1800 8.7279
v 8.8800 0.3000 8.6400
v 8.8800 1.1800 8.6400
v 9.0921 0.3000 8.7279
v 9.0921 1.1800 8.7279
v 9.1980 0.8156 8.9400
v 9.1980 0.8756 8.9400
v 9.1049 0.8156 9.1649
v 9.1049 0.8756 9.1649
v 8.8800 0.8156 9.2580
v 8.8800 0.8756 9.2580
v 8.6551 0.8156 9.1649
v 8.6551 0.8756 9.1649
v 8.5620 0.8156 8.9400
v 8.5620 0.8756 8.9400
v 8.6551 0.8156 8.7151
v 8.6551 0.8756 8.7151
v 8.8800 0.8156 8.6220
v 8.8800 0.8756 8.6220
v 9.1049 0.8156 8.7151
v 9.1049 0.8756 8.7151
v 7.8200 0.3000 9.6200
v 7.8200 1.1800 9.6200
v 7.7321 0.3000 9.8321
v 7.7321 1.1800 9.8321
v 7.5200 0.3000 9.9200
v 7.5200 1.1800 9.9200
v 7.3079 0.3000 9.8321
v 7.3079 1.1800 9.8321
v 7.2200 0.3000 9.6200
v 7.2200 1.1800 9.6200
v 7.3079 0.3000 9.4079
v 7.3079 1.1800 9.4079
v 7.5200 0.3000 9.3200
v 7.5200 1.1800 9.3200
v 7.7321 0.3000 9.4079
v 7.7321 1.1800 9.4079
v 7.8380 0.8156 9.6200
v 7.8380 0.8756 9.6200
v 7.7449 0.8156 9.8449
v 7.7449 0.8756 9.8449
v 7.5200 0.8156 9.9380
v 7.5200 0.8756 9.9380
v 7.2951 0.8156 9.8449
v 7.2951 0.8756 9.8449
v 7.2020 0.8156 9.6200
v 7.2020 0.8756 9.6200
v 7.2951 0.8156 9.3951
v 7.2951 0.8756 9.3951
v 7.5200 0.8156 9.3020
v 7.5200 0.8756 9.3020
v 7.7449 0.8156 9.3951
v 7.7449 0.8756 9.3951
v 8.5000 0.3000 9.6200
v 8.5000 1.1800 9.6200
v 8.4121 0.3000 9.8321
v 8.4121 1.1800 9.8321
v 8.2000 0.3000 9.9200
v 8.2000 1.1800 9.9200
v 7.9879 0.3000 9.8321
v 7.9879 1.1800 9.8321
v 7.9000 0.3000 9.6200
v 7.9000 1.1800 9.6200
v 7.9879 0.3000 9.4079
v 7.9879 1.1800 9.4079
v 8.2000 0.3000 9.3200
v 8.2000 1.1800 9.3200
v 8.4121 0.3000 9.4079
v 8.4121 1.1800 9.4079
v 8.5180 0.8156 9.6200
v 8.5180 0.8756 9.6200
v 8.4249 0.8156 9.8449
v 8.4249 0.8756 9.8449
v 8.2000 0.8156 9.9380
v 8.2000 0.8756 9.9380
v 7.9751 0.8156 9.8449
v 7.9751 0.8756 9.8449
v 7.8820 0.8156 9.6200
v 7.8820 0.8756 9.6200
v 7.9751 0.8156 9.3951
v 7.9751 0.8756 9.3951
v 8.2000 0.8156 9.3020
v 8.2000 0.8756 9.3020
v 8.4249 0.8156 9.3951
v 8.4249 0.8756 9.3951
v 9.1800 0.3000 9.6200
v 9.1800 1.1800 9.6200
v 9.0921 0.3000 9.8321
v 9.0921 1.1800 9.8321
v 8.8800 0.3000 9.9200
v 8.8800 1.1800 9.9200
v 8.6679 0.3000 9.8321
v 8.6679 1.1800 9.8321
v 8.5800 0.3000 9.6200
v 8.5800 1.1800 9.6200
v 8.6679 0.3000 9.4079
v 8.6679 1.1800 9.4079
v 8.8800 0.3000 9.3200
v 8.8800 1.1800 9.3200
v 9.0921 0.3000 9.4079
v 9.0921 1.1800 9.4079
v 9.1980 0.8156 9.6200
v 9.1980 0.8756 9.6200
v 9.1049 0.8156 9.8449
v 9.1049 0.8756 9.8449
v 8.8800 0.8156 9.9380
v 8.8800 0.8756 9.9380
v 8.6551 0.8156 9.8449
v 8.6551 0.8756 9.8449
v 8.5620 0.8156 9.6200
v 8.5620 0.8756 9.6200
v 8.6551 0.8156 9.3951
v 8.6551 0.8756 9.3951
v 8.8800 0.8156 9.3020
v 8.8800 0.8756 9.3020
v 9.1049 0.8156 9.3951
v 9.1049 0.8756 9.3951
v -8.6400 0.3000 7.5800
v -8.6400 1.1800 7.5800
v -8.7279 0.3000 7.7921
v -8.7279 1.1800 7.7921
v -8.9400 0.3000 7.8800
v -8.9400 1.1800 7.8800
v -9.1521 0.3000 7.7921
v -9.1521 1.1800 7.7921
v -9.2400 0.3000 7.5800
v -9.2400 1.1800 7.5800
v -9.1521 0.3000 7.3679
v -9.1521 1.1800 7.3679
v -8.9400 0.3000 7.2800
v -8.9400 1.1800 7.2800
v -8.7279 0.3000 7.3679
v -8.7279 1.1800 7.3679
v -8.6220 0.8156 7.5800
v -8.6220 0.8756 7.5800
v -8.7151 0.8156 7.8049
v -8.7151 0.8756 7.8049
v -8.9400 0.8156 7.8980
v -8.9400 0.8756 7.8980
v -9.1649 0.8156 7.8049
v -9.1649 0.8756 7.8049
v -9.2580 0.8156 7.5800
v -9.2580 0.8756 7.5800
v -9.1649 0.8156 7.3551
v -9.1649 0.8756 7.3551
v -8.9400 0.8156 7.2620
v -8.9400 0.8756 7.2620
v -8.7151 0.8156 7.3551
v -8.7151 0.8756 7.3551
v -7.9600 0.3000 7.5800
v -7.9600 1.1800 7.5800
v -8.0479 0.3000 7.7921
v -8.0479 1.1800 7.7921
v -8.2600 0.3000 7.8800
v -8.2600 1.1800 7.8800
v -8.4721 0.3000 7.7921
v -8.4721 1.1800 7.7921
v -8.5600 0.3000 7.5800
v -8.5600 1.1800 7.5800
v -8.4721 0.3000 7.3679
v -8.4721 1.1800 7.3679
v -8.2600 0.3000 7.2800
v -8.2600 1.1800 7.2800
v -8.0479 0.3000 7.3679
v -8.0479 1.1800 7.3679
v -7.9420 0.8156 7.5800
v -7.9420 0.8756 7.5800
v -8.0351 0.8156 7.8049
v -8.0351 0.8756 7.8049
v -8.2600 0.8156 7.8980
v -8.2600 0.8756 7.8980
v -8.4849 0.8156 7.8049
v -8.4849 0.8756 7.8049
v -8.5780 0.8156 7.5800
v -8.5780 0.8756 7.5800
v -8.4849 0.8156 7.3551
v -8.4849 0.8756 7.3551
v -8.2600 0.8156 7.2620
v -8.2600 0.8756 7.2620
v -8.0351 0.8156 7.3551
v -8.0351 0.8756 7.3551
v -8.6400 0.3000 8.2600
v -8.6400 1.1800 8.2600
v -8.7279 0.3000 8.4721
v -8.7279 1.1800 8.4721
v -8.9400 0.3000 8.5600
v -8.9400 1.1800 8.5600
v -9.1521 0.3000 8.4721
v -9.1521 1.1800 8.4721
v -9.2400 0.3000 8.2600
v -9.2400 1.1800 8.2600
v -9.1521 0.3000 8.0479
v -9.1521 1.1800 8.0479
v -8.9400 0.3000 7.9600
v -8.9400 1.1800 7.9600
v -8.7279 0.3000 8.0479
v -8.7279 1.1800 8.0479
v -8.6220 0.8156 8.2600
v -8.6220 0.8756 8.2600
v -8.7151 0.8156 8.4849
v -8.7151 0.8756 8.4849
v -8.9400 0.8156 8.5780
v -8.9400 0.8756 8.5780
v -9.1649 0.8156 8.4849
v -9.1649 0.8756 8.4849
v -9.2580 0.8156 8.2600
v -9.2580 0.8756 8.2600
v -9.1649 0.8156 8.0351
v -9.1649 0.8756 8.0351
v -8.9400 0.8156 7.9420
v -8.9400 0.8756 7.9420
v -8.7151 0.8156 8.0351
v -8.7151 0.8756 8.0351
v -7.9600 0.3000 8.2600
v -7.9600 1.1800 8.2600
v -8.0479 0.3000 8.4721
v -8.0479 1.1800 8.4721
v -8.2600 0.3000 8.5600
v -8.2600 1.1800 8.5600
v -8.4721 0.3000 8.4721
v -8.4721 1.1800 8.4721
v -8.5600 0.3000 8.2600
v -8.5600 1.1800 8.2600
v -8.4721 0.3000 8.0479
v -8.4721 1.1800 8.0479
v -8.2600 0.3000 7.9600
v -8.2600 1.1800 7.9600
v -8.0479 0.3000 8.0479
v -8.0479 1.1800 8.0479
v -7.9420 0.8156 8.2600
v -7.9420 0.8756 8.2600
v -8.0351 0.8156 8.4849
v -8.0351 0.8756 8.4849
v -8.2600 0.8156 8.5780
v -8.2600 0.8756 8.5780
v -8.4849 0.8156 8.4849
v -8.4849 0.8756 8.4849
v -8.5780 0.8156 8.2600
v -8.5780 0.8756 8.2600
v -8.4849 0.8156 8.0351
v -8.4849 0.8756 8.0351
v -8.2600 0.8156 7.9420
v -8.2600 0.8756 7.9420
v -8.0351 0.8156 8.0351
v -8.0351 0.8756 8.0351
v -8.6400 0.3000 8.9400
v -8.6400 1.1800 8.9400
v -8.7279 0.3000 9.1521
v -8.7279 1.1800 9.1521
v -8.9400 0.3000 9.2400
v -8.9400 1.1800 9.2400
v -9.1521 0.3000 9.1521
v -9.1521 1.1800 9.1521
v -9.2400 0.3000 8.9400
v -9.2400 1.1800 8.9400
v -9.1521 0.3000 8.7279
v -9.1521 1.1800 8.7279
v -8.9400 0.3000 8.6400
v -8.9400 1.1800 8.6400
v -8.7279 0.3000 8.7279
v -8.7279 1.1800 8.7279
v -8.6220 0.8156 8.9400
v -8.6220 0.8756 8.9400
v -8.7151 0.8156 9.1649
v -8.7151 0.8756 9.1649
v -8.9400 0.8156 9.2580
v -8.9400 0.8756 9.2580
v -9.1649 0.8156 9.1649
v -9.1649 0.8756 9.1649
v -9.2580 0.8156 8.9400
v -9.2580 0.8756 8.9400
v -9.1649 0.8156 8.7151
v -9.1649 0.8756 8.7151
v -8.9400 0.8156 8.6220
v -8.9400 0.8756 8.6220
v -8.7151 0.8156 8.7151
v -8.7151 0.8756 8.7151
v -7.9600 0.3000 8.9400
v -7.9600 1.1800 8.9400
v -8.0479 0.3000 9.1521
v -8.0479 1.1800 9.1521
v -8.2600 0.3000 9.2400
v -8.2600 1.1800 9.2400
v -8.4721 0.3000 9.1521
v -8.4721 1.1800 9.1521
v -8.5600 0.3000 8.9400
v -8.5600 1.1800 8.9400
v -8.4721 0.3000 8.7279
v -8.4721 1.1800 8.7279
v -8.2600 0.3000 8.6400
v -8.2600 1.1800 8.6400
v -8.0479 0.3000 8.7279
v -8.0479 1.1800 8.7279
v -7.9420 0.8156 8.9400
v -7.9420 0.8756 8.9400
v -8.0351 0.8156 9.1649
v -8.0351 0.8756 9.1649
v -8.2600 0.8156 9.2580
v -8.2600 0.8756 9.2580
v -8.4849 0.8156 9.1649
v -8.4849 0.8756 9.1649
v -8.5780 0.8156 8.9400
v -8.5780 0.8756 8.9400
v -8.4849 0.8156 8.7151
v -8.4849 0.8756 8.7151
v -8.2600 0.8156 8.6220
v -8.2600 0.8756 8.6220
v -8.0351 0.8156 8.7151
v -8.0351 0.8756 8.7151
v -8.6400 0.3000 9.6200
v -8.6400 1.1800 9.6200
v -8.7279 0.3000 9.8321
v -8.7279 1.1800 9.8321
v -8.9400 0.3000 9.9200
v -8.9400 1.1800 9.9200
v -9.1521 0.3000 9.8321
v -9.1521 1.1800 9.8321
v -9.2400 0.3000 9.6200
v -9.2400 1.1800 9.6200
v -9.1521 0.3000 9.4079
v -9.1521 1.1800 9.4079
v -8.9400 0.3000 9.3200
v -8.9400 1.1800 9.3200
v -8.7279 0.3000 9.4079
v -8.7279 1.1800 9.4079
v -8.6220 0.8156 9.6200
v -8.6220 0.8756 9.6200
v -8.7151 0.8156 9.8449
v -8.7151 0.8756 9.8449
v -8.9400 0.8156 9.9380
v -8.9400 0.8756 9.9380
v -9.1649 0.8156 9.8449
v -9.1649 0.8756 9.8449
v -9.2580 0.8156 9.6200
v -9.2580 0.8756 9.6200
v -9.1649 0.8156 9.3951
v -9.1649 0.8756 9.3951
v -8.9400 0.8156 9.3020
v -8.9400 0.8756 9.3020
v -8.7151 0.8156 9.3951
v -8.7151 0.8756 9.3951
v -7.9600 0.3000 9.6200
v -7.9600 1.1800 9.6200
v -8.0479 0.3000 9.8321
v -8.0479 1.1800 9.8321
v -8.2600 0.3000 9.9200
v -8.2600 1.1800 9.9200
v -8.4721 0.3000 9.8321
v -8.4721 1.1800 9.8321
v -8.5600 0.3000 9.6200
v -8.5600 1.1800 9.6200
v -8.4721 0.3000 9.4079
v -8.4721 1.1800 9.4079
v -8.2600 0.3000 9.3200
v -8.2600 1.1800 9.3200
v -8.0479 0.3000 9.4079
v -8.0479 1.1800 9.4079
v -7.9420 0.8156 9.6200
v -7.9420 0.8756 9.6200
v -8.0351 0.8156 9.8449
v -8.0351 0.8756 9.8449
v -8.2600 0.8156 9.9380
v -8.2600 0.8756 9.9380
v -8.4849 0.8156 9.8449
v -8.4849 0.8756 9.8449
v -8.5780 0.8156 9.6200
v -8.5780 0.8756 9.6200
v -8.4849 0.8156 9.3951
v -8.4849 0.8756 9.3951
v -8.2600 0.8156 9.3020
v -8.2600 0.8756 9.3020
v -8.0351 0.8156 9.3951
v -8.0351 0.8756 9.3951
v 6.0700 0.3000 -0.1000
v 6.0700 3.3000 -0.1000
v 6.0350 0.3000 -0.0394
v 6.0350 3.3000 -0.0394
v 5.9650 0.3000 -0.0394
v 5.9650 3.3000 -0.0394
v 5.9300 0.3000 -0.1000
v 5.9300 3.3000 -0.1000
v 5.9650 0.3000 -0.1606
v 5.9650 3.3000 -0.1606
v 6.0350 0.3000 -0.1606
v 6.0350 3.3000 -0.1606
v 11.0700 0.3000 -0.1000
v 11.0700 3.3000 -0.1000
v 11.0350 0.3000 -0.0394
v 11.0350 3.3000 -0.0394
v 10.9650 0.3000 -0.0394
v 10.9650 3.3000 -0.0394
v 10.9300 0.3000 -0.1000
v 10.9300 3.3000 -0.1000
v 10.9650 0.3000 -0.1606
v 10.9650 3.3000 -0.1606
v 11.0350 0.3000 -0.1606
v 11.0350 3.3000 -0.1606
v 6.0700 0.3000 6.9000
v 6.0700 3.3000 6.9000
v 6.0350 0.3000 6.9606
v 6.0350 3.3000 6.9606
v 5.9650 0.3000 6.9606
v 5.9650 3.3000 6.9606
v 5.9300 0.3000 6.9000
v 5.9300 3.3000 6.9000
v 5.9650 0.3000 6.8394
v 5.9650 3.3000 6.8394
v 6.0350 0.3000 6.8394
v 6.0350 3.3000 6.8394
v 11.0700 0.3000 6.9000
v 11.0700 3.3000 6.9000
v 11.0350 0.3000 6.9606
v 11.0350 3.3000 6.9606
v 10.9650 0.3000 6.9606
v 10.9650 3.3000 6.9606
v 10.9300 0.3000 6.9000
v 10.9300 3.3000 6.9000
v 10.9650 0.3000 6.8394
v 10.9650 3.3000 6.8394
v 11.0350 0.3000 6.8394
v 11.0350 3.3000 6.8394
v 11.0000 3.3000 6.9000
v 11.0000 3.3000 -0.1000
v 6.0000 3.3600 -0.1000
v 6.0000 3.3600 6.9000
v 11.0000 3.3600 6.9000
v 11.0000 3.3600 -0.1000
v 5.7000 2.8500 0.6000
v 5.7000 3.3000 0.6000
v 6.3000 2.8500 0.6000
v 6.3000 3.3000 0.6000
v 5.7000 2.8500 6.2000
v 5.7000 3.3000 6.2000
v 6.3000 2.8500 6.2000
v 6.3000 3.3000 6.2000
v 10.7000 2.8500 0.6000
v 10.7000 3.3000 0.6000
v 11.3000 2.8500 0.6000
v 11.3000 3.3000 0.6000
v 10.7000 2.8500 6.2000
v 10.7000 3.3000 6.2000
v 11.3000 2.8500 6.2000
v 11.3000 3.3000 6.2000
v 6.5000 2.8500 -0.5200
v 6.5000 3.3000 -0.5200
v 10.5000 2.8500 -0.5200
v 10.5000 3.3000 -0.5200
v 6.5000 2.8500 0.3200
v 6.5000 3.3000 0.3200
v 10.5000 2.8500 0.3200
v 10.5000 3.3000 0.3200
v 6.5000 2.8500 6.4800
v 6.5000 3.3000 6.4800
v 10.5000 2.8500 6.4800
v 10.5000 3.3000 6.4800
v 6.5000 2.8500 7.3200
v 6.5000 3.3000 7.3200
v 10.5000 2.8500 7.3200
v 10.5000 3.3000 7.3200
v -1.2000 0.3000 -8.9000
v -1.2000 2.9000 -8.9000
v 2.3000 0.3000 -13.0000
v 2.3000 2.9000 -13.0000
v 2.0722 0.3000 -12.1500
v 2.0722 2.9000 -12.1500
v 1.4500 0.3000 -11.5278
v 1.4500 2.9000 -11.5278
v 0.6000 0.3000 -11.3000
v 0.6000 2.9000 -11.3000
v -0.2500 0.3000 -11.5278
v -0.2500 2.9000 -11.5278
v -0.8722 0.3000 -12.1500
v -0.8722 2.9000 -12.1500
v -1.1000 0.3000 -13.0000
v -1.1000 2.9000 -13.0000
v -0.8722 0.3000 -13.8500
v -0.8722 2.9000 -13.8500
v -0.2500 0.3000 -14.4722
v -0.2500 2.9000 -14.4722
v 0.6000 0.3000 -14.7000
v 0.6000 2.9000 -14.7000
v 1.4500 0.3000 -14.4722
v 1.4500 2.9000 -14.4722
v 2.0722 0.3000 -13.8500
v 2.0722 2.9000 -13.8500
v 2.4000 2.8500 -13.0000
v 2.4000 3.1500 -13.0000
v 2.1588 2.8500 -12.1000
v 2.1588 3.1500 -12.1000
v 1.5000 2.8500 -11.4412
v 1.5000 3.1500 -11.4412
v 0.6000 2.8500 -11.2000
v 0.6000 3.1500 -11.2000
v -0.3000 2.8500 -11.4412
v -0.3000 3.1500 -11.4412
v -0.9588 2.8500 -12.1000
v -0.9588 3.1500 -12.1000
v -1.2000 2.8500 -13.0000
v -1.2000 3.1500 -13.0000
v -0.9588 2.8500 -13.9000
v -0.9588 3.1500 -13.9000
v -0.3000 2.8500 -14.5588
v -0.3000 3.1500 -14.5588
v 0.6000 2.8500 -14.8000
v 0.6000 3.1500 -14.8000
v 1.5000 2.8500 -14.5588
v 1.5000 3.1500 -14.5588
v 2.1588 2.8500 -13.9000
v 2.1588 3.1500 -13.9000
v 2.0000 0.3000 -8.9000
v 2.0000 2.9000 -8.9000
v -1.2000 0.3000 -3.9000
v -1.2000 2.9000 -3.9000
v 2.0000 0.3000 -3.9000
v 2.0000 2.9000 -3.9000
v -1.5000 2.8750 -9.2000
v -1.5000 3.2250 -9.2000
v 2.3000 2.8750 -9.2000
v 2.3000 3.2250 -9.2000
v -1.5000 2.8750 -3.6000
v -1.5000 3.2250 -3.6000
v 2.3000 2.8750 -3.6000
v 2.3000 3.2250 -3.6000
v -0.1500 0.6000 -3.9800
v -0.1500 1.8000 -3.9800
v 0.9500 0.6000 -3.9800
v 0.9500 1.8000 -3.9800
v -0.1500 0.6000 -3.8600
v -0.1500 1.8000 -3.8600
v 0.9500 0.6000 -3.8600
v 0.9500 1.8000 -3.8600
v 1.9800 1.8000 -9.0000
v 1.9800 2.5000 -9.0000
v 2.1200 1.8000 -9.0000
v 2.1200 2.5000 -9.0000
v 1.9800 1.8000 -3.8000
v 1.9800 2.5000 -3.8000
v 2.1200 1.8000 -3.8000
v 2.1200 2.5000 -3.8000
v -5.5748 0.3000 -14.4100
v -5.5748 0.5400 -14.4100
v -5.5748 0.3000 -14.7900
v -5.5748 0.5400 -14.7900
v -4.9052 0.3000 -14.4100
v -4.9052 0.5400 -14.4100
v -4.9052 0.3000 -14.7900
v -4.9052 0.5400 -14.7900
v -4.8548 0.3000 -14.4100
v -4.8548 0.5400 -14.4100
v -4.8548 0.3000 -14.7900
v -4.8548 0.5400 -14.7900
v -4.1852 0.3000 -14.4100
v -4.1852 0.5400 -14.4100
v -4.1852 0.3000 -14.7900
v -4.1852 0.5400 -14.7900
v -4.1348 0.3000 -14.4100
v -4.1348 0.5400 -14.4100
v -4.1348 0.3000 -14.7900
v -4.1348 0.5400 -14.7900
v -3.4652 0.3000 -14.4100
v -3.4652 0.5400 -14.4100
v -3.4652 0.3000 -14.7900
v -3.4652 0.5400 -14.7900
v -3.4148 0.3000 -14.4100
v -3.4148 0.5400 -14.4100
v -3.4148 0.3000 -14.7900
v -3.4148 0.5400 -14.7900
v -2.7452 0.3000 -14.4100
v -2.7452 0.5400 -14.4100
v -2.7452 0.3000 -14.7900
v -2.7452 0.5400 -14.7900
v -2.6948 0.3000 -14.4100
v -2.6948 0.5400 -14.4100
v -2.6948 0.3000 -14.7900
v -2.6948 0.5400 -14.7900
v -2.0252 0.3000 -14.4100
v -2.0252 0.5400 -14.4100
v -2.0252 0.3000 -14.7900
v -2.0252 0.5400 -14.7900
v -1.9748 0.3000 -14.4100
v -1.9748 0.5400 -14.4100
v -1.9748 0.3000 -14.7900
v -1.9748 0.5400 -14.7900
v -1.3052 0.3000 -14.4100
v -1.3052 0.5400 -14.4100
v -1.3052 0.3000 -14.7900
v -1.3052 0.5400 -14.7900
v -1.2548 0.3000 -14.4100
v -1.2548 0.5400 -14.4100
v -1.2548 0.3000 -14.7900
v -1.2548 0.5400 -14.7900
v -0.5852 0.3000 -14.4100
v -0.5852 0.5400 -14.4100
v -0.5852 0.3000 -14.7900
v -0.5852 0.5400 -14.7900
v -0.5348 0.3000 -14.4100
v -0.5348 0.5400 -14.4100
v -0.5348 0.3000 -14.7900
v -0.5348 0.5400 -14.7900
v 0.1348 0.3000 -14.4100
v 0.1348 0.5400 -14.4100
v 0.1348 0.3000 -14.7900
v 0.1348 0.5400 -14.7900
v 0.1852 0.3000 -14.4100
v 0.1852 0.5400 -14.4100
v 0.1852 0.3000 -14.7900
v 0.1852 0.5400 -14.7900
v 0.8548 0.3000 -14.4100
v 0.8548 0.5400 -14.4100
v 0.8548 0.3000 -14.7900
v 0.8548 0.5400 -14.7900
v 0.9052 0.3000 -14.4100
v 0.9052 0.5400 -14.4100
v 0.9052 0.3000 -14.7900
v 0.9052 0.5400 -14.7900
v 1.5748 0.3000 -14.4100
v 1.5748 0.5400 -14.4100
v 1.5748 0.3000 -14.7900
v 1.5748 0.5400 -14.7900
v 1.6252 0.3000 -14.4100
v 1.6252 0.5400 -14.4100
v 1.6252 0.3000 -14.7900
v 1.6252 0.5400 -14.7900
v 2.2948 0.3000 -14.4100
v 2.2948 0.5400 -14.4100
v 2.2948 0.3000 -14.7900
v 2.2948 0.5400 -14.7900
v 2.3452 0.3000 -14.4100
v 2.3452 0.5400 -14.4100
v 2.3452 0.3000 -14.7900
v 2.3452 0.5400 -14.7900
v 3.0148 0.3000 -14.4100
v 3.0148 0.5400 -14.4100
v 3.0148 0.3000 -14.7900
v 3.0148 0.5400 -14.7900
v 3.0652 0.3000 -14.4100
v 3.0652 0.5400 -14.4100
v 3.0652 0.3000 -14.7900
v 3.0652 0.5400 -14.7900
v 3.7348 0.3000 -14.4100
v 3.7348 0.5400 -14.4100
v 3.7348 0.3000 -14.7900
v 3.7348 0.5400 -14.7900
v 3.7852 0.3000 -14.4100
v 3.7852 0.5400 -14.4100
v 3.7852 0.3000 -14.7900
v 3.7852 0.5400 -14.7900
v 4.4548 0.3000 -14.4100
v 4.4548 0.5400 -14.4100
v 4.4548 0.3000 -14.7900
v 4.4548 0.5400 -14.7900
v 4.5052 0.3000 -14.4100
v 4.5052 0.5400 -14.4100
v 4.5052 0.3000 -14.7900
v 4.5052 0.5400 -14.7900
v 5.1748 0.3000 -14.4100
v 5.1748 0.5400 -14.4100
v 5.1748 0.3000 -14.7900
v 5.1748 0.5400 -14.7900
v -5.2148 0.5400 -14.4100
v -5.2148 0.7800 -14.4100
v -5.2148 0.5400 -14.7900
v -5.2148 0.7800 -14.7900
v -4.5452 0.5400 -14.4100
v -4.5452 0.7800 -14.4100
v -4.5452 0.5400 -14.7900
v -4.5452 0.7800 -14.7900
v -4.4948 0.5400 -14.4100
v -4.4948 0.7800 -14.4100
v -4.4948 0.5400 -14.7900
v -4.4948 0.7800 -14.7900
v -3.8252 0.5400 -14.4100
v -3.8252 0.7800 -14.4100
v -3.8252 0.5400 -14.7900
v -3.8252 0.7800 -14.7900
v -3.7748 0.5400 -14.4100
v -3.7748 0.7800 -14.4100
v -3.7748 0.5400 -14.7900
v -3.7748 0.7800 -14.7900
v -3.1052 0.5400 -14.4100
v -3.1052 0.7800 -14.4100
v -3.1052 0.5400 -14.7900
v -3.1052 0.7800 -14.7900
v -3.0548 0.5400 -14.4100
v -3.0548 0.7800 -14.4100
v -3.0548 0.5400 -14.7900
v -3.0548 0.7800 -14.7900
v -2.3852 0.5400 -14.4100
v -2.3852 0.7800 -14.4100
v -2.3852 0.5400 -14.7900
v -2.3852 0.7800 -14.7900
v -2.3348 0.5400 -14.4100
v -2.3348 0.7800 -14.4100
v -2.3348 0.5400 -14.7900
v -2.3348 0.7800 -14.7900
v -1.6652 0.5400 -14.4100
v -1.6652 0.7800 -14.4100
v -1.6652 0.5400 -14.7900
v -1.6652 0.7800 -14.7900
v -1.6148 0.5400 -14.4100
v -1.6148 0.7800 -14.4100
v -1.6148 0.5400 -14.7900
v -1.6148 0.7800 -14.7900
v -0.9452 0.5400 -14.4100
v -0.9452 0.7800 -14.4100
v -0.9452 0.5400 -14.7900
v -0.9452 0.7800 -14.7900
v -0.8948 0.5400 -14.4100
v -0.8948 0.7800 -14.4100
v -0.8948 0.5400 -14.7900
v -0.8948 0.7800 -14.7900
v -0.2252 0.5400 -14.4100
v -0.2252 0.7800 -14.4100
v -0.2252 0.5400 -14.7900
v -0.2252 0.7800 -14.7900
v -0.1748 0.5400 -14.4100
v -0.1748 0.7800 -14.4100
v -0.1748 0.5400 -14.7900
v -0.1748 0.7800 -14.7900
v 0.4948 0.5400 -14.4100
v 0.4948 0.7800 -14.4100
v 0.4948 0.5400 -14.7900
v 0.4948 0.7800 -14.7900
v 0.5452 0.5400 -14.4100
v 0.5452 0.7800 -14.4100
v 0.5452 0.5400 -14.7900
v 0.5452 0.7800 -14.7900
v 1.2148 0.5400 -14.4100
v 1.2148 0.7800 -14.4100
v 1.2148 0.5400 -14.7900
v 1.2148 0.7800 -14.7900
v 1.2652 0.5400 -14.4100
v 1.2652 0.7800 -14.4100
v 1.2652 0.5400 -14.7900
v 1.2652 0.7800 -14.7900
v 1.9348 0.5400 -14.4100
v 1.9348 0.7800 -14.4100
v 1.9348 0.5400 -14.7900
v 1.9348 0.7800 -14.7900
v 1.9852 0.5400 -14.4100
v 1.9852 0.7800 -14.4100
v 1.9852 0.5400 -14.7900
v 1.9852 0.7800 -14.7900
v 2.6548 0.5400 -14.4100
v 2.6548 0.7800 -14.4100
v 2.6548 0.5400 -14.7900
v 2.6548 0.7800 -14.7900
v 2.7052 0.5400 -14.4100
v 2.7052 0.7800 -14.4100
v 2.7052 0.5400 -14.7900
v 2.7052 0.7800 -14.7900
v 3.3748 0.5400 -14.4100
v 3.3748 0.7800 -14.4100
v 3.3748 0.5400 -14.7900
v 3.3748 0.7800 -14.7900
v 3.4252 0.5400 -14.4100
v 3.4252 0.7800 -14.4100
v 3.4252 0.5400 -14.7900
v 3.4252 0.7800 -14.7900
v 4.0948 0.5400 -14.4100
v 4.0948 0.7800 -14.4100
v 4.0948 0.5400 -14.7900
v 4.0948 0.7800 -14.7900
v 4.1452 0.5400 -14.4100
v 4.1452 0.7800 -14.4100
v 4.1452 0.5400 -14.7900
v 4.1452 0.7800 -14.7900
v 4.8148 0.5400 -14.4100
v 4.8148 0.7800 -14.4100
v 4.8148 0.5400 -14.7900
v 4.8148 0.7800 -14.7900
v -5.5748 0.7800 -14.4100
v -5.5748 1.0200 -14.4100
v -5.5748 0.7800 -14.7900
v -5.5748 1.0200 -14.7900
v -4.9052 0.7800 -14.4100
v -4.9052 1.0200 -14.4100
v -4.9052 0.7800 -14.7900
v -4.9052 1.0200 -14.7900
v -4.8548 0.7800 -14.4100
v -4.8548 1.0200 -14.4100
v -4.8548 0.7800 -14.7900
v -4.8548 1.0200 -14.7900
v -4.1852 0.7800 -14.4100
v -4.1852 1.0200 -14.4100
v -4.1852 0.7800 -14.7900
v -4.1852 1.0200 -14.7900
v -4.1348 0.7800 -14.4100
v -4.1348 1.0200 -14.4100
v -4.1348 0.7800 -14.7900
v -4.1348 1.0200 -14.7900
v -3.4652 0.7800 -14.4100
v -3.4652 1.0200 -14.4100
v -3.4652 0.7800 -14.7900
v -3.4652 1.0200 -14.7900
v -3.4148 0.7800 -14.4100
v -3.4148 1.0200 -14.4100
v -3.4148 0.7800 -14.7900
v -3.4148 1.0200 -14.7900
v -2.7452 0.7800 -14.4100
v -2.7452 1.0200 -14.4100
v -2.7452 0.7800 -14.7900
v -2.7452 1.0200 -14.7900
v -2.6948 0.7800 -14.4100
v -2.6948 1.0200 -14.4100
v -2.6948 0.7800 -14.7900
v -2.6948 1.0200 -14.7900
v -2.0252 0.7800 -14.4100
v -2.0252 1.0200 -14.4100
v -2.0252 0.7800 -14.7900
v -2.0252 1.0200 -14.7900
v -1.9748 0.7800 -14.4100
v -1.9748 1.0200 -14.4100
v -1.9748 0.7800 -14.7900
v -1.9748 1.0200 -14.7900
v -1.3052 0.7800 -14.4100
v -1.3052 1.0200 -14.4100
v -1.3052 0.7800 -14.7900
v -1.3052 1.0200 -14.7900
v -1.2548 0.7800 -14.4100
v -1.2548 1.0200 -14.4100
v -1.2548 0.7800 -14.7900
v -1.2548 1.0200 -14.7900
v -0.5852 0.7800 -14.4100
v -0.5852 1.0200 -14.4100
v -0.5852 0.7800 -14.7900
v -0.5852 1.0200 -14.7900
v -0.5348 0.7800 -14.4100
v -0.5348 1.0200 -14.4100
v -0.5348 0.7800 -14.7900
v -0.5348 1.0200 -14.7900
v 0.1348 0.7800 -14.4100
v 0.1348 1.0200 -14.4100
v 0.1348 0.7800 -14.7900
v 0.1348 1.0200 -14.7900
v 0.1852 0.7800 -14.4100
v 0.1852 1.0200 -14.4100
v 0.1852 0.7800 -14.7900
v 0.1852 1.0200 -14.7900
v 0.8548 0.7800 -14.4100
v 0.8548 1.0200 -14.4100
v 0.8548 0.7800 -14.7900
v 0.8548 1.0200 -14.7900
v 0.9052 0.7800 -14.4100
v 0.9052 1.0200 -14.4100
v 0.9052 0.7800 -14.7900
v 0.9052 1.0200 -14.7900
v 1.5748 0.7800 -14.4100
v 1.5748 1.0200 -14.4100
v 1.5748 0.7800 -14.7900
v 1.5748 1.0200 -14.7900
v 1.6252 0.7800 -14.4100
v 1.6252 1.0200 -14.4100
v 1.6252 0.7800 -14.7900
v 1.6252 1.0200 -14.7900
v 2.2948 0.7800 -14.4100
v 2.2948 1.0200 -14.4100
v 2.2948 0.7800 -14.7900
v 2.2948 1.0200 -14.7900
v 2.3452 0.7800 -14.4100
v 2.3452 1.0200 -14.4100
v 2.3452 0.7800 -14.7900
v 2.3452 1.0200 -14.7900
v 3.0148 0.7800 -14.4100
v 3.0148 1.0200 -14.4100
v 3.0148 0.7800 -14.7900
v 3.0148 1.0200 -14.7900
v 3.0652 0.7800 -14.4100
v 3.0652 1.0200 -14.4100
v 3.0652 0.7800 -14.7900
v 3.0652 1.0200 -14.7900
v 3.7348 0.7800 -14.4100
v 3.7348 1.0200 -14.4100
v 3.7348 0.7800 -14.7900
v 3.7348 1.0200 -14.7900
v 3.7852 0.7800 -14.4100
v 3.7852 1.0200 -14.4100
v 3.7852 0.7800 -14.7900
v 3.7852 1.0200 -14.7900
v 4.4548 0.7800 -14.4100
v 4.4548 1.0200 -14.4100
v 4.4548 0.7800 -14.7900
v 4.4548 1.0200 -14.7900
v 4.5052 0.7800 -14.4100
v 4.5052 1.0200 -14.4100
v 4.5052 0.7800 -14.7900
v 4.5052 1.0200 -14.7900
v 5.1748 0.7800 -14.4100
v 5.1748 1.0200 -14.4100
v 5.1748 0.7800 -14.7900
v 5.1748 1.0200 -14.7900
v -10.6000 0.6750 15.2250
v -10.6000 0.6250 15.2250
v -10.5550 0.3000 15.2000
v -10.5550 1.4500 15.2000
v -10.6000 0.3000 15.2450
v -10.6000 1.4500 15.2450
v -10.6450 0.3000 15.2000
v -10.6450 1.4500 15.2000
v -10.6000 0.3000 15.1550
v -10.6000 1.4500 15.1550
v -9.6800 0.3000 15.2000
v -9.6800 1.4500 15.2000
v -9.7250 0.3000 15.2450
v -9.7250 1.4500 15.2450
v -9.7700 0.3000 15.2000
v -9.7700 1.4500 15.2000
v -9.7250 0.3000 15.1550
v -9.7250 1.4500 15.1550
v -8.8050 0.3000 15.2000
v -8.8050 1.4500 15.2000
v -8.8500 0.3000 15.2450
v -8.8500 1.4500 15.2450
v -8.8950 0.3000 15.2000
v -8.8950 1.4500 15.2000
v -8.8500 0.3000 15.1550
v -8.8500 1.4500 15.1550
v -7.9300 0.3000 15.2000
v -7.9300 1.4500 15.2000
v -7.9750 0.3000 15.2450
v -7.9750 1.4500 15.2450
v -8.0200 0.3000 15.2000
v -8.0200 1.4500 15.2000
v -7.9750 0.3000 15.1550
v -7.9750 1.4500 15.1550
v -7.0550 0.3000 15.2000
v -7.0550 1.4500 15.2000
v -7.1000 0.3000 15.2450
v -7.1000 1.4500 15.2450
v -7.1450 0.3000 15.2000
v -7.1450 1.4500 15.2000
v -7.1000 0.3000 15.1550
v -7.1000 1.4500 15.1550
v -6.1800 0.3000 15.2000
v -6.1800 1.4500 15.2000
v -6.2250 0.3000 15.2450
v -6.2250 1.4500 15.2450
v -6.2700 0.3000 15.2000
v -6.2700 1.4500 15.2000
v -6.2250 0.3000 15.1550
v -6.2250 1.4500 15.1550
v -5.3050 0.3000 15.2000
v -5.3050 1.4500 15.2000
v -5.3500 0.3000 15.2450
v -5.3500 1.4500 15.2450
v -5.3950 0.3000 15.2000
v -5.3950 1.4500 15.2000
v -5.3500 0.3000 15.1550
v -5.3500 1.4500 15.1550
v -4.4300 0.3000 15.2000
v -4.4300 1.4500 15.2000
v -4.4750 0.3000 15.2450
v -4.4750 1.4500 15.2450
v -4.5200 0.3000 15.2000
v -4.5200 1.4500 15.2000
v -4.4750 0.3000 15.1550
v -4.4750 1.4500 15.1550
v -3.5550 0.3000 15.2000
v -3.5550 1.4500 15.2000
v -3.6000 0.3000 15.2450
v -3.6000 1.4500 15.2450
v -3.6450 0.3000 15.2000
v -3.6450 1.4500 15.2000
v -3.6000 0.3000 15.1550
v -3.6000 1.4500 15.1550
v -10.6000 0.6250 15.1750
v -10.6000 0.6750 15.1750
v -3.6000 0.6250 15.2250
v -3.6000 0.6750 15.2250
v -3.6000 0.6250 15.1750
v -3.6000 0.6750 15.1750
v -10.6000 0.9750 15.1650
v -10.6000 1.0250 15.1650
v -10.6000 0.9750 15.1150
v -10.6000 1.0250 15.1150
v -3.6000 0.9750 15.1650
v -3.6000 1.0250 15.1650
v -3.6000 0.9750 15.1150
v -3.6000 1.0250 15.1150
v -10.6000 1.3250 15.2250
v -10.6000 1.3750 15.2250
v -10.6000 1.3250 15.1750
v -10.6000 1.3750 15.1750
v -3.6000 1.3250 15.2250
v -3.6000 1.3750 15.2250
v -3.6000 1.3250 15.1750
v -3.6000 1.3750 15.1750
v 3.6000 0.6750 15.2250
v 3.6000 0.6250 15.2250
v 3.6450 0.3000 15.2000
v 3.6450 1.4500 15.2000
v 3.6000 0.3000 15.2450
v 3.6000 1.4500 15.2450
v 3.5550 0.3000 15.2000
v 3.5550 1.4500 15.2000
v 3.6000 0.3000 15.1550
v 3.6000 1.4500 15.1550
v 4.5200 0.3000 15.2000
v 4.5200 1.4500 15.2000
v 4.4750 0.3000 15.2450
v 4.4750 1.4500 15.2450
v 4.4300 0.3000 15.2000
v 4.4300 1.4500 15.2000
v 4.4750 0.3000 15.1550
v 4.4750 1.4500 15.1550
v 5.3950 0.3000 15.2000
v 5.3950 1.4500 15.2000
v 5.3500 0.3000 15.2450
v 5.3500 1.4500 15.2450
v 5.3050 0.3000 15.2000
v 5.3050 1.4500 15.2000
v 5.3500 0.3000 15.1550
v 5.3500 1.4500 15.1550
v 6.2700 0.3000 15.2000
v 6.2700 1.4500 15.2000
v 6.2250 0.3000 15.2450
v 6.2250 1.4500 15.2450
v 6.1800 0.3000 15.2000
v 6.1800 1.4500 15.2000
v 6.2250 0.3000 15.1550
v 6.2250 1.4500 15.1550
v 7.1450 0.3000 15.2000
v 7.1450 1.4500 15.2000
v 7.1000 0.3000 15.2450
v 7.1000 1.4500 15.2450
v 7.0550 0.3000 15.2000
v 7.0550 1.4500 15.2000
v 7.1000 0.3000 15.1550
v 7.1000 1.4500 15.1550
v 8.0200 0.3000 15.2000
v 8.0200 1.4500 15.2000
v 7.9750 0.3000 15.2450
v 7.9750 1.4500 15.2450
v 7.9300 0.3000 15.2000
v 7.9300 1.4500 15.2000
v 7.9750 0.3000 15.1550
v 7.9750 1.4500 15.1550
v 8.8950 0.3000 15.2000
v 8.8950 1.4500 15.2000
v 8.8500 0.3000 15.2450
v 8.8500 1.4500 15.2450
v 8.8050 0.3000 15.2000
v 8.8050 1.4500 15.2000
v 8.8500 0.3000 15.1550
v 8.8500 1.4500 15.1550
v 9.7700 0.3000 15.2000
v 9.7700 1.4500 15.2000
v 9.7250 0.3000 15.2450
v 9.7250 1.4500 15.2450
v 9.6800 0.3000 15.2000
v 9.6800 1.4500 15.2000
v 9.7250 0.3000 15.1550
v 9.7250 1.4500 15.1550
v 10.6450 0.3000 15.2000
v 10.6450 1.4500 15.2000
v 10.6000 0.3000 15.2450
v 10.6000 1.4500 15.2450
v 10.5550 0.3000 15.2000
v 10.5550 1.4500 15.2000
v 10.6000 0.3000 15.1550
v 10.6000 1.4500 15.1550
v 3.6000 0.6250 15.1750
v 3.6000 0.6750 15.1750
v 10.6000 0.6250 15.2250
v 10.6000 0.6750 15.2250
v 10.6000 0.6250 15.1750
v 10.6000 0.6750 15.1750
v 3.6000 0.9750 15.1650
v 3.6000 1.0250 15.1650
v 3.6000 0.9750 15.1150
v 3.6000 1.0250 15.1150
v 10.6000 0.9750 15.1650
v 10.6000 1.0250 15.1650
v 10.6000 0.9750 15.1150
v 10.6000 1.0250 15.1150
v 3.6000 1.3250 15.2250
v 3.6000 1.3750 15.2250
v 3.6000 1.3250 15.1750
v 3.6000 1.3750 15.1750
v 10.6000 1.3250 15.2250
v 10.6000 1.3750 15.2250
v 10.6000 1.3250 15.1750
v 10.6000 1.3750 15.1750
v -1.2000 0.9000 -0.4500
v -1.2000 0.3000 -0.4500
v 8.8900 0.3000 -14.4000
v 8.8900 6.3000 -14.4000
v 8.8450 0.3000 -14.3221
v 8.8450 6.3000 -14.3221
v 8.7550 0.3000 -14.3221
v 8.7550 6.3000 -14.3221
v 8.7100 0.3000 -14.4000
v 8.7100 6.3000 -14.4000
v 8.7550 0.3000 -14.4779
v 8.7550 6.3000 -14.4779
v 8.8450 0.3000 -14.4779
v 8.8450 6.3000 -14.4779
v 1.2000 0.3000 -0.4500
v 1.2000 0.9000 -0.4500
v -1.2000 0.3000 0.4500
v -1.2000 0.9000 0.4500
v 1.2000 0.3000 0.4500
v 1.2000 0.9000 0.4500
usemtl Mat0
f 2 3 1
f 4 7 3
f 8 5 7
f 6 1 5
f 7 1 3
f 4 6 8
f 10 11 9
f 12 15 11
f 16 13 15
f 14 9 13
f 15 9 11
f 12 14 16
f 26 27 25
f 28 31 27
f 32 29 31
f 30 25 29
f 31 25 27
f 28 30 32
f 58 59 57
f 60 63 59
f 64 61 63
f 62 57 61
f 63 57 59
f 60 62 64
f 66 67 65
f 68 71 67
f 72 69 71
f 70 65 69
f 71 65 67
f 68 70 72
f 2 4 3
f 4 8 7
f 8 6 5
f 6 2 1
f 7 5 1
f 4 2 6
f 10 12 11
f 12 16 15
f 16 14 13
f 14 10 9
f 15 13 9
f 12 10 14
f 26 28 27
f 28 32 31
f 32 30 29
f 30 26 25
f 31 29 25
f 28 26 30
f 58 60 59
f 60 64 63
f 64 62 61
f 62 58 57
f 63 61 57
f 60 58 62
f 66 68 67
f 68 72 71
f 72 70 69
f 70 66 65
f 71 69 65
f 68 66 70
usemtl Mat1
f 18 19 17
f 20 23 19
f 24 21 23
f 22 17 21
f 23 17 19
f 20 22 24
f 34 35 33
f 36 39 35
f 40 37 39
f 38 33 37
f 39 33 35
f 36 38 40
f 50 51 49
f 52 55 51
f 56 53 55
f 54 49 53
f 55 49 51
f 52 54 56
f 18 20 19
f 20 24 23
f 24 22 21
f 22 18 17
f 23 21 17
f 20 18 22
f 34 36 35
f 36 40 39
f 40 38 37
f 38 34 33
f 39 37 33
f 36 34 38
f 50 52 51
f 52 56 55
f 56 54 53
f 54 50 49
f 55 53 49
f 52 50 54
usemtl Mat2
f 42 43 41
f 44 47 43
f 48 45 47
f 46 41 45
f 47 41 43
f 44 46 48
f 42 44 43
f 44 48 47
f 48 46 45
f 46 42 41
f 47 45 41
f 44 42 46
usemtl Mat3
f 76 74 73
f 77 79 80
f 74 77 73
f 75 78 74
f 76 79 75
f 76 77 80
f 82 84 81
f 87 85 88
f 85 82 81
f 86 83 82
f 87 84 83
f 84 85 81
f 183 181 184
f 182 179 178
f 173 175 176
f 181 178 177
f 97 173 98
f 172 175 171
f 172 173 176
f 178 180 177
f 172 97 98
f 171 174 97
f 183 180 179
f 180 181 177
f 1236 1239 1235
f 1238 1233 1237
f 537 1229 538
f 1229 1231 1232
f 1240 1237 1239
f 1228 1231 1227
f 538 1232 1228
f 1234 1235 1233
f 1228 537 538
f 1227 1230 537
f 1239 1233 1235
f 1236 1238 1240
f 1242 1243 1241
f 1244 1247 1243
f 1248 1245 1247
f 1246 1241 1245
f 1247 1241 1243
f 1244 1246 1248
f 1250 1251 1249
f 1252 1255 1251
f 1256 1253 1255
f 1254 1249 1253
f 1255 1249 1251
f 1252 1254 1256
f 1258 1259 1257
f 1260 1263 1259
f 1264 1261 1263
f 1262 1257 1261
f 1263 1257 1259
f 1260 1262 1264
f 76 75 74
f 77 78 79
f 74 78 77
f 75 79 78
f 76 80 79
f 76 73 77
f 82 83 84
f 87 86 85
f 85 86 82
f 86 87 83
f 87 88 84
f 84 88 85
f 183 182 181
f 182 183 179
f 173 174 175
f 181 182 178
f 97 174 173
f 172 176 175
f 172 98 173
f 178 179 180
f 172 171 97
f 171 175 174
f 183 184 180
f 180 184 181
f 1236 1240 1239
f 1238 1234 1233
f 537 1230 1229
f 1229 1230 1231
f 1240 1238 1237
f 1228 1232 1231
f 538 1229 1232
f 1234 1236 1235
f 1228 1227 537
f 1227 1231 1230
f 1239 1237 1233
f 1236 1234 1238
f 1242 1244 1243
f 1244 1248 1247
f 1248 1246 1245
f 1246 1242 1241
f 1247 1245 1241
f 1244 1242 1246
f 1250 1252 1251
f 1252 1256 1255
f 1256 1254 1253
f 1254 1250 1249
f 1255 1253 1249
f 1252 1250 1254
f 1258 1260 1259
f 1260 1264 1263
f 1264 1262 1261
f 1262 1258 1257
f 1263 1261 1257
f 1260 1258 1262
usemtl Mat4
f 90 91 89
f 92 95 91
f 96 93 95
f 94 89 93
f 95 89 91
f 92 94 96
f 160 161 159
f 100 101 99
f 152 153 151
f 102 103 101
f 124 125 123
f 112 113 111
f 104 105 103
f 136 137 135
f 150 151 149
f 106 107 105
f 108 106 104
f 148 149 147
f 108 109 107
f 116 117 115
f 114 115 113
f 110 99 109
f 107 109 101
f 118 119 117
f 122 120 118
f 120 121 119
f 128 129 127
f 126 127 125
f 122 111 121
f 113 115 119
f 130 131 129
f 130 128 124
f 164 165 163
f 132 133 131
f 140 141 139
f 138 139 137
f 134 123 133
f 123 125 129
f 142 143 141
f 143 145 135
f 144 145 143
f 162 163 161
f 146 135 145
f 146 144 140
f 154 155 153
f 147 149 153
f 156 157 155
f 158 147 157
f 148 158 156
f 166 167 165
f 161 163 167
f 168 169 167
f 170 159 169
f 170 168 164
f 186 187 185
f 188 191 187
f 192 189 191
f 190 185 189
f 191 185 187
f 188 190 192
f 256 257 255
f 196 197 195
f 248 249 247
f 198 199 197
f 220 221 219
f 208 209 207
f 200 201 199
f 232 233 231
f 246 247 245
f 202 203 201
f 204 202 200
f 244 245 243
f 204 205 203
f 212 213 211
f 210 211 209
f 206 195 205
f 203 205 197
f 214 215 213
f 218 216 214
f 268 271 267
f 216 217 215
f 224 225 223
f 222 223 221
f 218 207 217
f 209 211 215
f 226 227 225
f 228 226 224
f 260 261 259
f 228 229 227
f 236 237 235
f 234 235 233
f 230 219 229
f 229 219 221
f 238 239 237
f 239 241 231
f 240 241 239
f 258 259 257
f 272 269 271
f 242 231 241
f 232 242 240
f 250 251 249
f 271 194 267
f 253 243 245
f 252 253 251
f 268 270 272
f 254 243 253
f 254 252 248
f 262 263 261
f 193 267 194
f 255 257 259
f 264 265 263
f 270 194 269
f 266 255 265
f 256 266 264
f 298 299 297
f 300 303 299
f 304 301 303
f 302 297 301
f 303 297 299
f 300 302 304
f 330 331 329
f 332 335 331
f 336 333 335
f 334 329 333
f 335 329 331
f 332 334 336
f 362 363 361
f 364 367 363
f 368 365 367
f 366 361 365
f 367 361 363
f 364 366 368
f 394 395 393
f 396 399 395
f 400 397 399
f 398 393 397
f 399 393 395
f 396 398 400
f 426 427 425
f 428 431 427
f 432 429 431
f 430 425 429
f 431 425 427
f 428 430 432
f 458 459 457
f 460 463 459
f 464 461 463
f 462 457 461
f 463 457 459
f 460 462 464
f 490 491 489
f 492 495 491
f 496 493 495
f 494 489 493
f 495 489 491
f 492 494 496
f 514 515 513
f 516 519 515
f 520 517 519
f 518 513 517
f 519 513 515
f 516 518 520
f 1186 1187 1185
f 1204 1205 1203
f 1180 1181 1179
f 1194 1195 1193
f 1220 1221 1219
f 1196 1197 1195
f 1187 1189 1179
f 1192 1193 1191
f 1216 1217 1215
f 1184 1185 1183
f 1218 1219 1217
f 1182 1183 1181
f 1188 1189 1187
f 1190 1179 1189
f 1182 1180 1190
f 1198 1199 1197
f 1192 1202 1200
f 1200 1201 1199
f 1208 1209 1207
f 1206 1207 1205
f 1202 1191 1201
f 1191 1193 1197
f 1210 1211 1209
f 1205 1207 1211
f 1212 1213 1211
f 1214 1203 1213
f 1214 1212 1208
f 1222 1223 1221
f 1215 1217 1221
f 1224 1225 1223
f 1226 1215 1225
f 1216 1226 1224
f 109 99 101
f 1907 1890 1903
f 1892 1893 1891
f 101 103 105
f 1906 1890 1905
f 1894 1895 1893
f 102 100 108
f 1908 1905 1907
f 1896 1897 1895
f 104 102 108
f 1904 1907 1903
f 1898 1899 1897
f 1900 1898 1896
f 1889 1903 1890
f 1900 1901 1899
f 100 110 108
f 1904 1906 1908
f 1902 1891 1901
f 1899 1901 1893
f 105 107 101
f 118 116 122
f 116 114 122
f 114 112 122
f 115 117 119
f 119 121 111
f 111 113 119
f 128 126 124
f 124 134 132
f 132 130 124
f 125 127 129
f 129 131 133
f 133 123 129
f 135 137 143
f 137 139 143
f 139 141 143
f 144 142 140
f 140 138 136
f 136 146 140
f 149 151 153
f 153 155 157
f 157 147 153
f 156 154 148
f 154 152 148
f 152 150 148
f 163 165 167
f 167 169 159
f 159 161 167
f 168 166 164
f 164 162 160
f 160 170 164
f 200 198 204
f 198 196 204
f 196 206 204
f 205 195 197
f 197 199 201
f 201 203 197
f 214 212 218
f 212 210 218
f 210 208 218
f 211 213 215
f 215 217 207
f 207 209 215
f 224 222 228
f 222 220 228
f 220 230 228
f 221 223 229
f 223 225 229
f 225 227 229
f 231 233 235
f 235 237 231
f 237 239 231
f 240 238 232
f 238 236 232
f 236 234 232
f 245 247 253
f 247 249 253
f 249 251 253
f 252 250 248
f 248 246 244
f 244 254 248
f 259 261 255
f 261 263 255
f 263 265 255
f 264 262 256
f 262 260 256
f 260 258 256
f 1179 1181 1187
f 1181 1183 1187
f 1183 1185 1187
f 1190 1188 1182
f 1188 1186 1182
f 1186 1184 1182
f 1200 1198 1192
f 1198 1196 1192
f 1196 1194 1192
f 1193 1195 1197
f 1197 1199 1201
f 1201 1191 1197
f 1207 1209 1211
f 1211 1213 1203
f 1203 1205 1211
f 1212 1210 1208
f 1208 1206 1204
f 1204 1214 1208
f 1217 1219 1221
f 1221 1223 1225
f 1225 1215 1221
f 1224 1222 1216
f 1222 1220 1216
f 1220 1218 1216
f 1896 1894 1900
f 1894 1892 1900
f 1892 1902 1900
f 1901 1891 1893
f 1893 1895 1897
f 1897 1899 1893
f 90 92 91
f 92 96 95
f 96 94 93
f 94 90 89
f 95 93 89
f 92 90 94
f 160 162 161
f 100 102 101
f 152 154 153
f 102 104 103
f 124 126 125
f 112 114 113
f 104 106 105
f 136 138 137
f 150 152 151
f 106 108 107
f 148 150 149
f 108 110 109
f 116 118 117
f 114 116 115
f 110 100 99
f 118 120 119
f 120 122 121
f 128 130 129
f 126 128 127
f 122 112 111
f 130 132 131
f 164 166 165
f 132 134 133
f 140 142 141
f 138 140 139
f 134 124 123
f 142 144 143
f 144 146 145
f 162 164 163
f 146 136 135
f 154 156 155
f 156 158 157
f 158 148 147
f 166 168 167
f 168 170 169
f 170 160 159
f 186 188 187
f 188 192 191
f 192 190 189
f 190 186 185
f 191 189 185
f 188 186 190
f 256 258 257
f 196 198 197
f 248 250 249
f 198 200 199
f 220 222 221
f 208 210 209
f 200 202 201
f 232 234 233
f 246 248 247
f 202 204 203
f 244 246 245
f 204 206 205
f 212 214 213
f 210 212 211
f 206 196 195
f 214 216 215
f 268 272 271
f 216 218 217
f 224 226 225
f 222 224 223
f 218 208 207
f 226 228 227
f 260 262 261
f 228 230 229
f 236 238 237
f 234 236 235
f 230 220 219
f 238 240 239
f 240 242 241
f 258 260 259
f 272 270 269
f 242 232 231
f 250 252 251
f 271 269 194
f 252 254 253
f 268 193 270
f 254 244 243
f 262 264 263
f 193 268 267
f 264 266 265
f 270 193 194
f 266 256 255
f 298 300 299
f 300 304 303
f 304 302 301
f 302 298 297
f 303 301 297
f 300 298 302
f 330 332 331
f 332 336 335
f 336 334 333
f 334 330 329
f 335 333 329
f 332 330 334
f 362 364 363
f 364 368 367
f 368 366 365
f 366 362 361
f 367 365 361
f 364 362 366
f 394 396 395
f 396 400 399
f 400 398 397
f 398 394 393
f 399 397 393
f 396 394 398
f 426 428 427
f 428 432 431
f 432 430 429
f 430 426 425
f 431 429 425
f 428 426 430
f 458 460 459
f 460 464 463
f 464 462 461
f 462 458 457
f 463 461 457
f 460 458 462
f 490 492 491
f 492 496 495
f 496 494 493
f 494 490 489
f 495 493 489
f 492 490 494
f 514 516 515
f 516 520 519
f 520 518 517
f 518 514 513
f 519 517 513
f 516 514 518
f 1186 1188 1187
f 1204 1206 1205
f 1180 1182 1181
f 1194 1196 1195
f 1220 1222 1221
f 1196 1198 1197
f 1192 1194 1193
f 1216 1218 1217
f 1184 1186 1185
f 1218 1220 1219
f 1182 1184 1183
f 1188 1190 1189
f 1190 1180 1179
f 1198 1200 1199
f 1200 1202 1201
f 1208 1210 1209
f 1206 1208 1207
f 1202 1192 1191
f 1210 1212 1211
f 1212 1214 1213
f 1214 1204 1203
f 1222 1224 1223
f 1224 1226 1225
f 1226 1216 1215
f 1907 1905 1890
f 1892 1894 1893
f 1906 1889 1890
f 1894 1896 1895
f 1908 1906 1905
f 1896 1898 1897
f 1904 1908 1907
f 1898 1900 1899
f 1889 1904 1903
f 1900 1902 1901
f 1904 1889 1906
f 1902 1892 1891
usemtl Mat5
f 276 279 275
f 278 273 277
f 280 277 279
f 274 275 273
f 279 273 275
f 276 278 280
f 282 283 281
f 284 287 283
f 288 285 287
f 286 281 285
f 287 281 283
f 284 286 288
f 290 291 289
f 292 295 291
f 296 293 295
f 294 289 293
f 295 289 291
f 292 294 296
f 306 307 305
f 308 311 307
f 312 309 311
f 310 305 309
f 311 305 307
f 308 310 312
f 314 315 313
f 316 319 315
f 320 317 319
f 318 313 317
f 319 313 315
f 316 318 320
f 322 323 321
f 324 327 323
f 328 325 327
f 326 321 325
f 327 321 323
f 324 326 328
f 338 339 337
f 340 343 339
f 344 341 343
f 342 337 341
f 343 337 339
f 340 342 344
f 346 347 345
f 348 351 347
f 352 349 351
f 350 345 349
f 351 345 347
f 348 350 352
f 354 355 353
f 356 359 355
f 360 357 359
f 358 353 357
f 359 353 355
f 356 358 360
f 370 371 369
f 372 375 371
f 376 373 375
f 374 369 373
f 375 369 371
f 372 374 376
f 378 379 377
f 380 383 379
f 384 381 383
f 382 377 381
f 383 377 379
f 380 382 384
f 386 387 385
f 388 391 387
f 392 389 391
f 390 385 389
f 391 385 387
f 388 390 392
f 402 403 401
f 404 407 403
f 408 405 407
f 406 401 405
f 407 401 403
f 404 406 408
f 410 411 409
f 412 415 411
f 416 413 415
f 414 409 413
f 415 409 411
f 412 414 416
f 418 419 417
f 420 423 419
f 424 421 423
f 422 417 421
f 423 417 419
f 420 422 424
f 434 435 433
f 436 439 435
f 440 437 439
f 438 433 437
f 439 433 435
f 436 438 440
f 442 443 441
f 444 447 443
f 448 445 447
f 446 441 445
f 447 441 443
f 444 446 448
f 450 451 449
f 452 455 451
f 456 453 455
f 454 449 453
f 455 449 451
f 452 454 456
f 466 467 465
f 468 471 467
f 472 469 471
f 470 465 469
f 471 465 467
f 468 470 472
f 474 475 473
f 476 479 475
f 480 477 479
f 478 473 477
f 479 473 475
f 476 478 480
f 482 483 481
f 484 487 483
f 488 485 487
f 486 481 485
f 487 481 483
f 484 486 488
f 498 499 497
f 500 503 499
f 504 501 503
f 502 497 501
f 503 497 499
f 500 502 504
f 506 507 505
f 508 511 507
f 512 509 511
f 510 505 509
f 511 505 507
f 508 510 512
f 1318 1265 1317
f 1319 1265 1315
f 1316 1318 1320
f 1320 1317 1319
f 1316 1319 1315
f 1266 1315 1265
f 276 280 279
f 278 274 273
f 280 278 277
f 274 276 275
f 279 277 273
f 276 274 278
f 282 284 283
f 284 288 287
f 288 286 285
f 286 282 281
f 287 285 281
f 284 282 286
f 290 292 291
f 292 296 295
f 296 294 293
f 294 290 289
f 295 293 289
f 292 290 294
f 306 308 307
f 308 312 311
f 312 310 309
f 310 306 305
f 311 309 305
f 308 306 310
f 314 316 315
f 316 320 319
f 320 318 317
f 318 314 313
f 319 317 313
f 316 314 318
f 322 324 323
f 324 328 327
f 328 326 325
f 326 322 321
f 327 325 321
f 324 322 326
f 338 340 339
f 340 344 343
f 344 342 341
f 342 338 337
f 343 341 337
f 340 338 342
f 346 348 347
f 348 352 351
f 352 350 349
f 350 346 345
f 351 349 345
f 348 346 350
f 354 356 355
f 356 360 359
f 360 358 357
f 358 354 353
f 359 357 353
f 356 354 358
f 370 372 371
f 372 376 375
f 376 374 373
f 374 370 369
f 375 373 369
f 372 370 374
f 378 380 379
f 380 384 383
f 384 382 381
f 382 378 377
f 383 381 377
f 380 378 382
f 386 388 387
f 388 392 391
f 392 390 389
f 390 386 385
f 391 389 385
f 388 386 390
f 402 404 403
f 404 408 407
f 408 406 405
f 406 402 401
f 407 405 401
f 404 402 406
f 410 412 411
f 412 416 415
f 416 414 413
f 414 410 409
f 415 413 409
f 412 410 414
f 418 420 419
f 420 424 423
f 424 422 421
f 422 418 417
f 423 421 417
f 420 418 422
f 434 436 435
f 436 440 439
f 440 438 437
f 438 434 433
f 439 437 433
f 436 434 438
f 442 444 443
f 444 448 447
f 448 446 445
f 446 442 441
f 447 445 441
f 444 442 446
f 450 452 451
f 452 456 455
f 456 454 453
f 454 450 449
f 455 453 449
f 452 450 454
f 466 468 467
f 468 472 471
f 472 470 469
f 470 466 465
f 471 469 465
f 468 466 470
f 474 476 475
f 476 480 479
f 480 478 477
f 478 474 473
f 479 477 473
f 476 474 478
f 482 484 483
f 484 488 487
f 488 486 485
f 486 482 481
f 487 485 481
f 484 482 486
f 498 500 499
f 500 504 503
f 504 502 501
f 502 498 497
f 503 501 497
f 500 498 502
f 506 508 507
f 508 512 511
f 512 510 509
f 510 506 505
f 511 509 505
f 508 506 510
f 1318 1266 1265
f 1319 1317 1265
f 1316 1266 1318
f 1320 1318 1317
f 1316 1320 1319
f 1266 1316 1315
usemtl Mat6
f 522 523 521
f 524 527 523
f 528 525 527
f 526 521 525
f 527 521 523
f 524 526 528
f 530 531 529
f 532 535 531
f 536 533 535
f 534 529 533
f 535 529 531
f 532 534 536
f 540 541 539
f 542 543 541
f 642 643 641
f 544 545 543
f 546 547 545
f 548 549 547
f 550 551 549
f 546 544 552
f 552 553 551
f 572 573 571
f 578 579 577
f 554 539 553
f 545 549 553
f 636 637 635
f 576 577 575
f 574 575 573
f 580 581 579
f 674 675 673
f 582 583 581
f 586 582 578
f 584 585 583
f 604 605 603
f 610 611 609
f 586 571 585
f 583 571 575
f 608 609 607
f 668 669 667
f 606 607 605
f 612 613 611
f 706 707 705
f 614 615 613
f 611 615 603
f 616 617 615
f 618 603 617
f 618 616 614
f 640 641 639
f 700 701 699
f 638 639 637
f 644 645 643
f 738 739 737
f 646 647 645
f 643 647 635
f 648 649 647
f 650 635 649
f 648 646 638
f 672 673 671
f 732 733 731
f 670 671 669
f 676 677 675
f 770 771 769
f 678 679 677
f 675 679 667
f 680 681 679
f 682 667 681
f 682 680 678
f 704 705 703
f 764 765 763
f 702 703 701
f 708 709 707
f 802 803 801
f 710 711 709
f 707 711 699
f 712 713 711
f 714 699 713
f 712 710 702
f 736 737 735
f 796 797 795
f 734 735 733
f 740 741 739
f 834 835 833
f 742 743 741
f 739 743 731
f 744 745 743
f 746 731 745
f 744 742 734
f 768 769 767
f 828 829 827
f 766 767 765
f 772 773 771
f 866 867 865
f 774 775 773
f 771 775 763
f 776 777 775
f 778 763 777
f 778 776 774
f 800 801 799
f 860 861 859
f 798 799 797
f 804 805 803
f 898 899 897
f 806 807 805
f 803 807 795
f 808 809 807
f 810 795 809
f 808 806 798
f 832 833 831
f 892 893 891
f 830 831 829
f 836 837 835
f 838 839 837
f 835 839 827
f 840 841 839
f 842 827 841
f 840 838 830
f 864 865 863
f 862 863 861
f 868 869 867
f 870 871 869
f 867 871 859
f 872 873 871
f 874 859 873
f 874 872 870
f 896 897 895
f 894 895 893
f 900 901 899
f 902 903 901
f 899 903 891
f 904 905 903
f 906 891 905
f 904 902 894
f 544 542 540
f 540 554 544
f 554 552 544
f 552 550 548
f 548 546 552
f 553 539 541
f 541 543 545
f 545 547 549
f 549 551 553
f 553 541 545
f 578 576 574
f 574 572 578
f 572 586 578
f 586 584 582
f 582 580 578
f 575 577 579
f 579 581 575
f 581 583 575
f 583 585 571
f 571 573 575
f 603 605 607
f 607 609 611
f 611 613 615
f 615 617 603
f 603 607 611
f 614 612 606
f 612 610 606
f 610 608 606
f 606 604 614
f 604 618 614
f 635 637 639
f 639 641 643
f 643 645 647
f 647 649 635
f 635 639 643
f 646 644 642
f 642 640 646
f 640 638 646
f 638 636 650
f 650 648 638
f 667 669 671
f 671 673 675
f 675 677 679
f 679 681 667
f 667 671 675
f 678 676 674
f 674 672 678
f 672 670 678
f 670 668 678
f 668 682 678
f 699 701 703
f 703 705 707
f 707 709 711
f 711 713 699
f 699 703 707
f 710 708 706
f 706 704 710
f 704 702 710
f 702 700 714
f 714 712 702
f 731 733 735
f 735 737 739
f 739 741 743
f 743 745 731
f 731 735 739
f 742 740 738
f 738 736 742
f 736 734 742
f 734 732 746
f 746 744 734
f 763 765 767
f 767 769 771
f 771 773 775
f 775 777 763
f 763 767 771
f 774 772 770
f 770 768 774
f 768 766 774
f 766 764 774
f 764 778 774
f 795 797 799
f 799 801 803
f 803 805 807
f 807 809 795
f 795 799 803
f 806 804 802
f 802 800 806
f 800 798 806
f 798 796 810
f 810 808 798
f 827 829 831
f 831 833 835
f 835 837 839
f 839 841 827
f 827 831 835
f 838 836 834
f 834 832 838
f 832 830 838
f 830 828 842
f 842 840 830
f 859 861 863
f 863 865 867
f 867 869 871
f 871 873 859
f 859 863 867
f 870 868 866
f 866 864 870
f 864 862 870
f 862 860 870
f 860 874 870
f 891 893 895
f 895 897 899
f 899 901 903
f 903 905 891
f 891 895 899
f 902 900 898
f 898 896 902
f 896 894 902
f 894 892 906
f 906 904 894
f 522 524 523
f 524 528 527
f 528 526 525
f 526 522 521
f 527 525 521
f 524 522 526
f 530 532 531
f 532 536 535
f 536 534 533
f 534 530 529
f 535 533 529
f 532 530 534
f 540 542 541
f 542 544 543
f 642 644 643
f 544 546 545
f 546 548 547
f 548 550 549
f 550 552 551
f 552 554 553
f 572 574 573
f 578 580 579
f 554 540 539
f 636 638 637
f 576 578 577
f 574 576 575
f 580 582 581
f 674 676 675
f 582 584 583
f 584 586 585
f 604 606 605
f 610 612 611
f 586 572 571
f 608 610 609
f 668 670 669
f 606 608 607
f 612 614 613
f 706 708 707
f 614 616 615
f 616 618 617
f 618 604 603
f 640 642 641
f 700 702 701
f 638 640 639
f 644 646 645
f 738 740 739
f 646 648 647
f 648 650 649
f 650 636 635
f 672 674 673
f 732 734 733
f 670 672 671
f 676 678 677
f 770 772 771
f 678 680 679
f 680 682 681
f 682 668 667
f 704 706 705
f 764 766 765
f 702 704 703
f 708 710 709
f 802 804 803
f 710 712 711
f 712 714 713
f 714 700 699
f 736 738 737
f 796 798 797
f 734 736 735
f 740 742 741
f 834 836 835
f 742 744 743
f 744 746 745
f 746 732 731
f 768 770 769
f 828 830 829
f 766 768 767
f 772 774 773
f 866 868 867
f 774 776 775
f 776 778 777
f 778 764 763
f 800 802 801
f 860 862 861
f 798 800 799
f 804 806 805
f 898 900 899
f 806 808 807
f 808 810 809
f 810 796 795
f 832 834 833
f 892 894 893
f 830 832 831
f 836 838 837
f 838 840 839
f 840 842 841
f 842 828 827
f 864 866 865
f 862 864 863
f 868 870 869
f 870 872 871
f 872 874 873
f 874 860 859
f 896 898 897
f 894 896 895
f 900 902 901
f 902 904 903
f 904 906 905
f 906 892 891
usemtl Mat7
f 590 591 589
f 564 565 563
f 558 559 557
f 562 563 561
f 626 627 625
f 620 621 619
f 596 597 595
f 556 557 555
f 560 561 559
f 588 589 587
f 594 595 593
f 566 567 565
f 658 659 657
f 565 569 557
f 568 569 567
f 570 555 569
f 570 568 560
f 592 593 591
f 652 653 651
f 690 691 689
f 598 599 597
f 599 587 591
f 600 601 599
f 602 587 601
f 598 594 590
f 624 625 623
f 684 685 683
f 622 623 621
f 628 629 627
f 722 723 721
f 630 631 629
f 621 623 625
f 632 633 631
f 634 619 633
f 634 632 630
f 656 657 655
f 716 717 715
f 654 655 653
f 660 661 659
f 754 755 753
f 662 663 661
f 659 663 651
f 664 665 663
f 666 651 665
f 664 662 654
f 688 689 687
f 748 749 747
f 686 687 685
f 692 693 691
f 786 787 785
f 694 695 693
f 691 695 683
f 696 697 695
f 698 683 697
f 698 696 694
f 720 721 719
f 780 781 779
f 718 719 717
f 724 725 723
f 818 819 817
f 726 727 725
f 723 727 715
f 728 729 727
f 730 715 729
f 728 726 718
f 752 753 751
f 812 813 811
f 750 751 749
f 756 757 755
f 850 851 849
f 758 759 757
f 755 759 747
f 760 761 759
f 762 747 761
f 760 758 750
f 784 785 783
f 844 845 843
f 782 783 781
f 788 789 787
f 882 883 881
f 790 791 789
f 787 791 779
f 792 793 791
f 794 779 793
f 794 792 790
f 816 817 815
f 876 877 875
f 814 815 813
f 820 821 819
f 914 915 913
f 822 823 821
f 819 823 811
f 824 825 823
f 826 811 825
f 824 822 814
f 848 849 847
f 908 909 907
f 846 847 845
f 852 853 851
f 946 947 945
f 854 855 853
f 851 855 843
f 856 857 855
f 858 843 857
f 856 854 846
f 880 881 879
f 940 941 939
f 878 879 877
f 884 885 883
f 978 979 977
f 886 887 885
f 883 887 875
f 888 889 887
f 890 875 889
f 890 888 886
f 912 913 911
f 972 973 971
f 910 911 909
f 916 917 915
f 1010 1011 1009
f 918 919 917
f 915 919 907
f 920 921 919
f 922 907 921
f 920 918 910
f 944 945 943
f 1004 1005 1003
f 942 943 941
f 948 949 947
f 1042 1043 1041
f 950 951 949
f 947 951 939
f 952 953 951
f 954 939 953
f 954 952 950
f 976 977 975
f 1036 1037 1035
f 974 975 973
f 980 981 979
f 1074 1075 1073
f 982 983 981
f 979 983 971
f 984 985 983
f 986 971 985
f 986 984 982
f 1008 1009 1007
f 1068 1069 1067
f 1006 1007 1005
f 1012 1013 1011
f 1106 1107 1105
f 1014 1015 1013
f 1011 1015 1003
f 1016 1017 1015
f 1018 1003 1017
f 1016 1014 1006
f 1040 1041 1039
f 1100 1101 1099
f 1038 1039 1037
f 1044 1045 1043
f 1138 1139 1137
f 1046 1047 1045
f 1043 1047 1035
f 1048 1049 1047
f 1050 1035 1049
f 1048 1046 1038
f 1072 1073 1071
f 1132 1133 1131
f 1070 1071 1069
f 1076 1077 1075
f 1170 1171 1169
f 1078 1079 1077
f 1075 1079 1067
f 1080 1081 1079
f 1082 1067 1081
f 1080 1078 1070
f 1104 1105 1103
f 1164 1165 1163
f 1102 1103 1101
f 1108 1109 1107
f 1110 1111 1109
f 1107 1111 1099
f 1112 1113 1111
f 1114 1099 1113
f 1112 1110 1102
f 1136 1137 1135
f 1134 1135 1133
f 1140 1141 1139
f 1142 1143 1141
f 1139 1143 1131
f 1144 1145 1143
f 1146 1131 1145
f 1144 1142 1134
f 1168 1169 1167
f 1166 1167 1165
f 1172 1173 1171
f 1174 1175 1173
f 1171 1175 1163
f 1176 1177 1175
f 1178 1163 1177
f 1176 1174 1166
f 1336 1333 1335
f 1296 1297 1295
f 1334 1329 1333
f 1302 1303 1301
f 1294 1295 1293
f 1335 1329 1331
f 1300 1301 1299
f 1292 1293 1291
f 1332 1334 1336
f 1304 1305 1303
f 1298 1299 1297
f 1306 1307 1305
f 1332 1335 1331
f 1308 1309 1307
f 1330 1331 1329
f 1310 1311 1309
f 1306 1302 1294
f 1312 1313 1311
f 1314 1291 1313
f 1311 1295 1303
f 1710 1711 1709
f 1708 1709 1707
f 1700 1701 1699
f 1708 1712 1710
f 1716 1717 1715
f 1702 1703 1701
f 1700 1704 1702
f 1718 1719 1717
f 1704 1705 1703
f 1726 1727 1725
f 1734 1735 1733
f 1706 1699 1705
f 1701 1705 1699
f 1724 1725 1723
f 1712 1713 1711
f 1742 1743 1741
f 1750 1751 1749
f 1714 1707 1713
f 1713 1709 1711
f 1721 1717 1719
f 1720 1721 1719
f 1732 1733 1731
f 1728 1724 1730
f 1722 1715 1721
f 1716 1720 1718
f 1740 1741 1739
f 1728 1729 1727
f 1758 1759 1757
f 1766 1767 1765
f 1730 1723 1729
f 1723 1727 1729
f 1737 1733 1735
f 1736 1737 1735
f 1748 1749 1747
f 1742 1746 1744
f 1738 1731 1737
f 1732 1736 1734
f 1756 1757 1755
f 1744 1745 1743
f 1772 1774 1776
f 1697 1771 1698
f 1746 1739 1745
f 1741 1745 1739
f 1753 1749 1751
f 1752 1753 1751
f 1764 1765 1763
f 1758 1762 1760
f 1754 1747 1753
f 1748 1752 1750
f 1776 1773 1775
f 1760 1761 1759
f 1775 1698 1771
f 1774 1698 1773
f 1762 1755 1761
f 1757 1761 1755
f 1769 1765 1767
f 1768 1769 1767
f 1772 1775 1771
f 1778 1779 1777
f 1770 1763 1769
f 1764 1768 1766
f 1780 1783 1779
f 1784 1781 1783
f 1782 1777 1781
f 1783 1777 1779
f 1780 1782 1784
f 1786 1787 1785
f 1788 1791 1787
f 1792 1789 1791
f 1790 1785 1789
f 1791 1785 1787
f 1788 1790 1792
f 1806 1807 1805
f 1804 1805 1803
f 1796 1797 1795
f 1804 1808 1806
f 1812 1813 1811
f 1798 1799 1797
f 1796 1800 1798
f 1814 1815 1813
f 1800 1801 1799
f 1822 1823 1821
f 1830 1831 1829
f 1802 1795 1801
f 1797 1801 1795
f 1820 1821 1819
f 1808 1809 1807
f 1838 1839 1837
f 1846 1847 1845
f 1810 1803 1809
f 1809 1805 1807
f 1817 1813 1815
f 1816 1817 1815
f 1828 1829 1827
f 1822 1826 1824
f 1818 1811 1817
f 1812 1816 1814
f 1836 1837 1835
f 1824 1825 1823
f 1854 1855 1853
f 1862 1863 1861
f 1826 1819 1825
f 1821 1825 1819
f 1833 1829 1831
f 1832 1833 1831
f 1844 1845 1843
f 1840 1836 1842
f 1834 1827 1833
f 1828 1832 1830
f 1852 1853 1851
f 1840 1841 1839
f 1868 1870 1872
f 1793 1867 1794
f 1842 1835 1841
f 1835 1839 1841
f 1849 1845 1847
f 1848 1849 1847
f 1860 1861 1859
f 1854 1858 1856
f 1850 1843 1849
f 1844 1848 1846
f 1872 1869 1871
f 1856 1857 1855
f 1871 1794 1867
f 1870 1794 1869
f 1858 1851 1857
f 1853 1857 1851
f 1865 1861 1863
f 1864 1865 1863
f 1868 1871 1867
f 1874 1875 1873
f 1866 1859 1865
f 1860 1864 1862
f 1876 1879 1875
f 1880 1877 1879
f 1878 1873 1877
f 1879 1873 1875
f 1876 1878 1880
f 1882 1883 1881
f 1884 1887 1883
f 1888 1885 1887
f 1886 1881 1885
f 1887 1881 1883
f 1884 1886 1888
f 557 559 561
f 561 563 565
f 565 567 569
f 569 555 557
f 557 561 565
f 568 566 564
f 564 562 568
f 562 560 568
f 560 558 556
f 556 570 560
f 591 593 595
f 595 597 591
f 597 599 591
f 599 601 587
f 587 589 591
f 598 596 594
f 594 592 590
f 590 588 598
f 588 602 598
f 602 600 598
f 625 627 633
f 627 629 633
f 629 631 633
f 633 619 625
f 619 621 625
f 630 628 622
f 628 626 622
f 626 624 622
f 622 620 630
f 620 634 630
f 651 653 655
f 655 657 659
f 659 661 663
f 663 665 651
f 651 655 659
f 662 660 658
f 658 656 662
f 656 654 662
f 654 652 666
f 666 664 654
f 683 685 687
f 687 689 691
f 691 693 695
f 695 697 683
f 683 687 691
f 694 692 690
f 690 688 694
f 688 686 694
f 686 684 694
f 684 698 694
f 715 717 719
f 719 721 723
f 723 725 727
f 727 729 715
f 715 719 723
f 726 724 722
f 722 720 726
f 720 718 726
f 718 716 730
f 730 728 718
f 747 749 751
f 751 753 755
f 755 757 759
f 759 761 747
f 747 751 755
f 758 756 754
f 754 752 758
f 752 750 758
f 750 748 762
f 762 760 750
f 779 781 783
f 783 785 787
f 787 789 791
f 791 793 779
f 779 783 787
f 790 788 786
f 786 784 790
f 784 782 790
f 782 780 790
f 780 794 790
f 811 813 815
f 815 817 819
f 819 821 823
f 823 825 811
f 811 815 819
f 822 820 818
f 818 816 822
f 816 814 822
f 814 812 826
f 826 824 814
f 843 845 847
f 847 849 851
f 851 853 855
f 855 857 843
f 843 847 851
f 854 852 850
f 850 848 854
f 848 846 854
f 846 844 858
f 858 856 846
f 875 877 879
f 879 881 883
f 883 885 887
f 887 889 875
f 875 879 883
f 886 884 882
f 882 880 886
f 880 878 886
f 878 876 886
f 876 890 886
f 907 909 911
f 911 913 915
f 915 917 919
f 919 921 907
f 907 911 915
f 918 916 914
f 914 912 918
f 912 910 918
f 910 908 922
f 922 920 910
f 939 941 943
f 943 945 947
f 947 949 951
f 951 953 939
f 939 943 947
f 950 948 942
f 948 946 942
f 946 944 942
f 942 940 950
f 940 954 950
f 971 973 975
f 975 977 979
f 979 981 983
f 983 985 971
f 971 975 979
f 982 980 974
f 980 978 974
f 978 976 974
f 974 972 982
f 972 986 982
f 1003 1005 1007
f 1007 1009 1011
f 1011 1013 1015
f 1015 1017 1003
f 1003 1007 1011
f 1014 1012 1010
f 1010 1008 1014
f 1008 1006 1014
f 1006 1004 1018
f 1018 1016 1006
f 1035 1037 1039
f 1039 1041 1043
f 1043 1045 1047
f 1047 1049 1035
f 1035 1039 1043
f 1046 1044 1042
f 1042 1040 1046
f 1040 1038 1046
f 1038 1036 1050
f 1050 1048 1038
f 1067 1069 1071
f 1071 1073 1075
f 1075 1077 1079
f 1079 1081 1067
f 1067 1071 1075
f 1078 1076 1074
f 1074 1072 1078
f 1072 1070 1078
f 1070 1068 1082
f 1082 1080 1070
f 1099 1101 1103
f 1103 1105 1107
f 1107 1109 1111
f 1111 1113 1099
f 1099 1103 1107
f 1110 1108 1106
f 1106 1104 1110
f 1104 1102 1110
f 1102 1100 1114
f 1114 1112 1102
f 1131 1133 1135
f 1135 1137 1139
f 1139 1141 1143
f 1143 1145 1131
f 1131 1135 1139
f 1142 1140 1138
f 1138 1136 1142
f 1136 1134 1142
f 1134 1132 1146
f 1146 1144 1134
f 1163 1165 1167
f 1167 1169 1171
f 1171 1173 1175
f 1175 1177 1163
f 1163 1167 1171
f 1174 1172 1170
f 1170 1168 1174
f 1168 1166 1174
f 1166 1164 1178
f 1178 1176 1166
f 1302 1300 1298
f 1298 1296 1294
f 1294 1292 1314
f 1314 1312 1310
f 1310 1308 1306
f 1306 1304 1302
f 1302 1298 1294
f 1294 1314 1310
f 1310 1306 1294
f 1303 1305 1307
f 1307 1309 1311
f 1311 1313 1291
f 1291 1293 1311
f 1293 1295 1311
f 1295 1297 1299
f 1299 1301 1303
f 1303 1307 1311
f 1295 1299 1303
f 590 592 591
f 564 566 565
f 558 560 559
f 562 564 563
f 626 628 627
f 620 622 621
f 596 598 597
f 556 558 557
f 560 562 561
f 588 590 589
f 594 596 595
f 566 568 567
f 658 660 659
f 568 570 569
f 570 556 555
f 592 594 593
f 652 654 653
f 690 692 691
f 598 600 599
f 600 602 601
f 602 588 587
f 624 626 625
f 684 686 685
f 622 624 623
f 628 630 629
f 722 724 723
f 630 632 631
f 632 634 633
f 634 620 619
f 656 658 657
f 716 718 717
f 654 656 655
f 660 662 661
f 754 756 755
f 662 664 663
f 664 666 665
f 666 652 651
f 688 690 689
f 748 750 749
f 686 688 687
f 692 694 693
f 786 788 787
f 694 696 695
f 696 698 697
f 698 684 683
f 720 722 721
f 780 782 781
f 718 720 719
f 724 726 725
f 818 820 819
f 726 728 727
f 728 730 729
f 730 716 715
f 752 754 753
f 812 814 813
f 750 752 751
f 756 758 757
f 850 852 851
f 758 760 759
f 760 762 761
f 762 748 747
f 784 786 785
f 844 846 845
f 782 784 783
f 788 790 789
f 882 884 883
f 790 792 791
f 792 794 793
f 794 780 779
f 816 818 817
f 876 878 877
f 814 816 815
f 820 822 821
f 914 916 915
f 822 824 823
f 824 826 825
f 826 812 811
f 848 850 849
f 908 910 909
f 846 848 847
f 852 854 853
f 946 948 947
f 854 856 855
f 856 858 857
f 858 844 843
f 880 882 881
f 940 942 941
f 878 880 879
f 884 886 885
f 978 980 979
f 886 888 887
f 888 890 889
f 890 876 875
f 912 914 913
f 972 974 973
f 910 912 911
f 916 918 917
f 1010 1012 1011
f 918 920 919
f 920 922 921
f 922 908 907
f 944 946 945
f 1004 1006 1005
f 942 944 943
f 948 950 949
f 1042 1044 1043
f 950 952 951
f 952 954 953
f 954 940 939
f 976 978 977
f 1036 1038 1037
f 974 976 975
f 980 982 981
f 1074 1076 1075
f 982 984 983
f 984 986 985
f 986 972 971
f 1008 1010 1009
f 1068 1070 1069
f 1006 1008 1007
f 1012 1014 1013
f 1106 1108 1107
f 1014 1016 1015
f 1016 1018 1017
f 1018 1004 1003
f 1040 1042 1041
f 1100 1102 1101
f 1038 1040 1039
f 1044 1046 1045
f 1138 1140 1139
f 1046 1048 1047
f 1048 1050 1049
f 1050 1036 1035
f 1072 1074 1073
f 1132 1134 1133
f 1070 1072 1071
f 1076 1078 1077
f 1170 1172 1171
f 1078 1080 1079
f 1080 1082 1081
f 1082 1068 1067
f 1104 1106 1105
f 1164 1166 1165
f 1102 1104 1103
f 1108 1110 1109
f 1110 1112 1111
f 1112 1114 1113
f 1114 1100 1099
f 1136 1138 1137
f 1134 1136 1135
f 1140 1142 1141
f 1142 1144 1143
f 1144 1146 1145
f 1146 1132 1131
f 1168 1170 1169
f 1166 1168 1167
f 1172 1174 1173
f 1174 1176 1175
f 1176 1178 1177
f 1178 1164 1163
f 1336 1334 1333
f 1296 1298 1297
f 1334 1330 1329
f 1302 1304 1303
f 1294 1296 1295
f 1335 1333 1329
f 1300 1302 1301
f 1292 1294 1293
f 1332 1330 1334
f 1304 1306 1305
f 1298 1300 1299
f 1306 1308 1307
f 1332 1336 1335
f 1308 1310 1309
f 1330 1332 1331
f 1310 1312 1311
f 1312 1314 1313
f 1314 1292 1291
f 1710 1712 1711
f 1708 1710 1709
f 1700 1702 1701
f 1708 1714 1712
f 1716 1718 1717
f 1702 1704 1703
f 1700 1706 1704
f 1718 1720 1719
f 1704 1706 1705
f 1726 1728 1727
f 1734 1736 1735
f 1706 1700 1699
f 1701 1703 1705
f 1724 1726 1725
f 1712 1714 1713
f 1742 1744 1743
f 1750 1752 1751
f 1714 1708 1707
f 1713 1707 1709
f 1721 1715 1717
f 1720 1722 1721
f 1732 1734 1733
f 1728 1726 1724
f 1722 1716 1715
f 1716 1722 1720
f 1740 1742 1741
f 1728 1730 1729
f 1758 1760 1759
f 1766 1768 1767
f 1730 1724 1723
f 1723 1725 1727
f 1737 1731 1733
f 1736 1738 1737
f 1748 1750 1749
f 1742 1740 1746
f 1738 1732 1731
f 1732 1738 1736
f 1756 1758 1757
f 1744 1746 1745
f 1772 1697 1774
f 1697 1772 1771
f 1746 1740 1739
f 1741 1743 1745
f 1753 1747 1749
f 1752 1754 1753
f 1764 1766 1765
f 1758 1756 1762
f 1754 1748 1747
f 1748 1754 1752
f 1776 1774 1773
f 1760 1762 1761
f 1775 1773 1698
f 1774 1697 1698
f 1762 1756 1755
f 1757 1759 1761
f 1769 1763 1765
f 1768 1770 1769
f 1772 1776 1775
f 1778 1780 1779
f 1770 1764 1763
f 1764 1770 1768
f 1780 1784 1783
f 1784 1782 1781
f 1782 1778 1777
f 1783 1781 1777
f 1780 1778 1782
f 1786 1788 1787
f 1788 1792 1791
f 1792 1790 1789
f 1790 1786 1785
f 1791 1789 1785
f 1788 1786 1790
f 1806 1808 1807
f 1804 1806 1805
f 1796 1798 1797
f 1804 1810 1808
f 1812 1814 1813
f 1798 1800 1799
f 1796 1802 1800
f 1814 1816 1815
f 1800 1802 1801
f 1822 1824 1823
f 1830 1832 1831
f 1802 1796 1795
f 1797 1799 1801
f 1820 1822 1821
f 1808 1810 1809
f 1838 1840 1839
f 1846 1848 1847
f 1810 1804 1803
f 1809 1803 1805
f 1817 1811 1813
f 1816 1818 1817
f 1828 1830 1829
f 1822 1820 1826
f 1818 1812 1811
f 1812 1818 1816
f 1836 1838 1837
f 1824 1826 1825
f 1854 1856 1855
f 1862 1864 1863
f 1826 1820 1819
f 1821 1823 1825
f 1833 1827 1829
f 1832 1834 1833
f 1844 1846 1845
f 1840 1838 1836
f 1834 1828 1827
f 1828 1834 1832
f 1852 1854 1853
f 1840 1842 1841
f 1868 1793 1870
f 1793 1868 1867
f 1842 1836 1835
f 1835 1837 1839
f 1849 1843 1845
f 1848 1850 1849
f 1860 1862 1861
f 1854 1852 1858
f 1850 1844 1843
f 1844 1850 1848
f 1872 1870 1869
f 1856 1858 1857
f 1871 1869 1794
f 1870 1793 1794
f 1858 1852 1851
f 1853 1855 1857
f 1865 1859 1861
f 1864 1866 1865
f 1868 1872 1871
f 1874 1876 1875
f 1866 1860 1859
f 1860 1866 1864
f 1876 1880 1879
f 1880 1878 1877
f 1878 1874 1873
f 1879 1877 1873
f 1876 1874 1878
f 1882 1884 1883
f 1884 1888 1887
f 1888 1886 1885
f 1886 1882 1881
f 1887 1885 1881
f 1884 1882 1886
usemtl Mat8
f 930 931 929
f 924 925 923
f 962 963 961
f 956 957 955
f 994 995 993
f 928 929 927
f 988 989 987
f 926 927 925
f 932 933 931
f 1026 1027 1025
f 934 935 933
f 931 935 923
f 936 937 935
f 938 923 937
f 938 936 934
f 960 961 959
f 1020 1021 1019
f 958 959 957
f 964 965 963
f 1058 1059 1057
f 966 967 965
f 963 967 955
f 968 969 967
f 970 955 969
f 970 968 966
f 992 993 991
f 1052 1053 1051
f 990 991 989
f 996 997 995
f 1090 1091 1089
f 998 999 997
f 995 999 987
f 1000 1001 999
f 1002 987 1001
f 1000 998 990
f 1024 1025 1023
f 1084 1085 1083
f 1022 1023 1021
f 1028 1029 1027
f 1122 1123 1121
f 1030 1031 1029
f 1027 1031 1019
f 1032 1033 1031
f 1034 1019 1033
f 1032 1030 1022
f 1056 1057 1055
f 1116 1117 1115
f 1054 1055 1053
f 1060 1061 1059
f 1154 1155 1153
f 1062 1063 1061
f 1059 1063 1051
f 1064 1065 1063
f 1066 1051 1065
f 1064 1062 1054
f 1088 1089 1087
f 1148 1149 1147
f 1086 1087 1085
f 1092 1093 1091
f 1094 1095 1093
f 1091 1095 1083
f 1096 1097 1095
f 1098 1083 1097
f 1096 1094 1086
f 1120 1121 1119
f 1118 1119 1117
f 1124 1125 1123
f 1126 1127 1125
f 1123 1127 1115
f 1128 1129 1127
f 1130 1115 1129
f 1128 1126 1118
f 1152 1153 1151
f 1150 1151 1149
f 1156 1157 1155
f 1158 1159 1157
f 1155 1159 1147
f 1160 1161 1159
f 1162 1147 1161
f 1160 1158 1150
f 923 925 927
f 927 929 931
f 931 933 935
f 935 937 923
f 923 927 931
f 934 932 926
f 932 930 926
f 930 928 926
f 926 924 934
f 924 938 934
f 955 957 959
f 959 961 963
f 963 965 967
f 967 969 955
f 955 959 963
f 966 964 958
f 964 962 958
f 962 960 958
f 958 956 966
f 956 970 966
f 987 989 991
f 991 993 995
f 995 997 999
f 999 1001 987
f 987 991 995
f 998 996 994
f 994 992 998
f 992 990 998
f 990 988 1002
f 1002 1000 990
f 1019 1021 1023
f 1023 1025 1027
f 1027 1029 1031
f 1031 1033 1019
f 1019 1023 1027
f 1030 1028 1026
f 1026 1024 1030
f 1024 1022 1030
f 1022 1020 1034
f 1034 1032 1022
f 1051 1053 1055
f 1055 1057 1059
f 1059 1061 1063
f 1063 1065 1051
f 1051 1055 1059
f 1062 1060 1058
f 1058 1056 1062
f 1056 1054 1062
f 1054 1052 1066
f 1066 1064 1054
f 1083 1085 1087
f 1087 1089 1091
f 1091 1093 1095
f 1095 1097 1083
f 1083 1087 1091
f 1094 1092 1090
f 1090 1088 1094
f 1088 1086 1094
f 1086 1084 1098
f 1098 1096 1086
f 1115 1117 1119
f 1119 1121 1123
f 1123 1125 1127
f 1127 1129 1115
f 1115 1119 1123
f 1126 1124 1122
f 1122 1120 1126
f 1120 1118 1126
f 1118 1116 1130
f 1130 1128 1118
f 1147 1149 1151
f 1151 1153 1155
f 1155 1157 1159
f 1159 1161 1147
f 1147 1151 1155
f 1158 1156 1154
f 1154 1152 1158
f 1152 1150 1158
f 1150 1148 1162
f 1162 1160 1150
f 930 932 931
f 924 926 925
f 962 964 963
f 956 958 957
f 994 996 995
f 928 930 929
f 988 990 989
f 926 928 927
f 932 934 933
f 1026 1028 1027
f 934 936 935
f 936 938 937
f 938 924 923
f 960 962 961
f 1020 1022 1021
f 958 960 959
f 964 966 965
f 1058 1060 1059
f 966 968 967
f 968 970 969
f 970 956 955
f 992 994 993
f 1052 1054 1053
f 990 992 991
f 996 998 997
f 1090 1092 1091
f 998 1000 999
f 1000 1002 1001
f 1002 988 987
f 1024 1026 1025
f 1084 1086 1085
f 1022 1024 1023
f 1028 1030 1029
f 1122 1124 1123
f 1030 1032 1031
f 1032 1034 1033
f 1034 1020 1019
f 1056 1058 1057
f 1116 1118 1117
f 1054 1056 1055
f 1060 1062 1061
f 1154 1156 1155
f 1062 1064 1063
f 1064 1066 1065
f 1066 1052 1051
f 1088 1090 1089
f 1148 1150 1149
f 1086 1088 1087
f 1092 1094 1093
f 1094 1096 1095
f 1096 1098 1097
f 1098 1084 1083
f 1120 1122 1121
f 1118 1120 1119
f 1124 1126 1125
f 1126 1128 1127
f 1128 1130 1129
f 1130 1116 1115
f 1152 1154 1153
f 1150 1152 1151
f 1156 1158 1157
f 1158 1160 1159
f 1160 1162 1161
f 1162 1148 1147
usemtl Mat9
f 1268 1269 1267
f 1270 1271 1269
f 1272 1273 1271
f 1274 1275 1273
f 1276 1277 1275
f 1278 1279 1277
f 1280 1281 1279
f 1282 1283 1281
f 1284 1285 1283
f 1286 1287 1285
f 1288 1280 1272
f 1288 1289 1287
f 1290 1267 1289
f 1285 1289 1273
f 1272 1270 1268
f 1268 1290 1288
f 1288 1286 1280
f 1286 1284 1280
f 1284 1282 1280
f 1280 1278 1276
f 1276 1274 1280
f 1274 1272 1280
f 1272 1268 1288
f 1289 1267 1273
f 1267 1269 1273
f 1269 1271 1273
f 1273 1275 1277
f 1277 1279 1273
f 1279 1281 1273
f 1281 1283 1285
f 1285 1287 1289
f 1281 1285 1273
f 1268 1270 1269
f 1270 1272 1271
f 1272 1274 1273
f 1274 1276 1275
f 1276 1278 1277
f 1278 1280 1279
f 1280 1282 1281
f 1282 1284 1283
f 1284 1286 1285
f 1286 1288 1287
f 1288 1290 1289
f 1290 1268 1267
usemtl Mat10
f 1324 1327 1323
f 1328 1325 1327
f 1326 1321 1325
f 1322 1323 1321
f 1327 1321 1323
f 1324 1326 1328
f 1324 1328 1327
f 1328 1326 1325
f 1326 1322 1321
f 1322 1324 1323
f 1327 1325 1321
f 1324 1322 1326
usemtl Mat11
f 1338 1339 1337
f 1340 1343 1339
f 1343 1337 1339
f 1342 1337 1341
f 1344 1341 1343
f 1340 1342 1344
f 1338 1340 1339
f 1340 1344 1343
f 1343 1341 1337
f 1342 1338 1337
f 1344 1342 1341
f 1340 1338 1342
usemtl Mat12
f 1346 1347 1345
f 1348 1351 1347
f 1352 1349 1351
f 1350 1345 1349
f 1351 1345 1347
f 1348 1350 1352
f 1354 1355 1353
f 1356 1359 1355
f 1360 1357 1359
f 1358 1353 1357
f 1359 1353 1355
f 1356 1358 1360
f 1362 1363 1361
f 1364 1367 1363
f 1368 1365 1367
f 1366 1361 1365
f 1367 1361 1363
f 1364 1366 1368
f 1370 1371 1369
f 1372 1375 1371
f 1376 1373 1375
f 1374 1369 1373
f 1375 1369 1371
f 1372 1374 1376
f 1378 1379 1377
f 1380 1383 1379
f 1384 1381 1383
f 1382 1377 1381
f 1383 1377 1379
f 1380 1382 1384
f 1386 1387 1385
f 1388 1391 1387
f 1392 1389 1391
f 1390 1385 1389
f 1391 1385 1387
f 1388 1390 1392
f 1394 1395 1393
f 1396 1399 1395
f 1400 1397 1399
f 1398 1393 1397
f 1399 1393 1395
f 1396 1398 1400
f 1402 1403 1401
f 1404 1407 1403
f 1408 1405 1407
f 1406 1401 1405
f 1407 1401 1403
f 1404 1406 1408
f 1410 1411 1409
f 1412 1415 1411
f 1416 1413 1415
f 1414 1409 1413
f 1415 1409 1411
f 1412 1414 1416
f 1418 1419 1417
f 1420 1423 1419
f 1424 1421 1423
f 1422 1417 1421
f 1423 1417 1419
f 1420 1422 1424
f 1426 1427 1425
f 1428 1431 1427
f 1432 1429 1431
f 1430 1425 1429
f 1431 1425 1427
f 1428 1430 1432
f 1434 1435 1433
f 1436 1439 1435
f 1440 1437 1439
f 1438 1433 1437
f 1439 1433 1435
f 1436 1438 1440
f 1442 1443 1441
f 1444 1447 1443
f 1448 1445 1447
f 1446 1441 1445
f 1447 1441 1443
f 1444 1446 1448
f 1450 1451 1449
f 1452 1455 1451
f 1456 1453 1455
f 1454 1449 1453
f 1455 1449 1451
f 1452 1454 1456
f 1458 1459 1457
f 1460 1463 1459
f 1464 1461 1463
f 1462 1457 1461
f 1463 1457 1459
f 1460 1462 1464
f 1466 1467 1465
f 1468 1471 1467
f 1472 1469 1471
f 1470 1465 1469
f 1471 1465 1467
f 1468 1470 1472
f 1474 1475 1473
f 1476 1479 1475
f 1480 1477 1479
f 1478 1473 1477
f 1479 1473 1475
f 1476 1478 1480
f 1482 1483 1481
f 1484 1487 1483
f 1488 1485 1487
f 1486 1481 1485
f 1487 1481 1483
f 1484 1486 1488
f 1490 1491 1489
f 1492 1495 1491
f 1496 1493 1495
f 1494 1489 1493
f 1495 1489 1491
f 1492 1494 1496
f 1498 1499 1497
f 1500 1503 1499
f 1504 1501 1503
f 1502 1497 1501
f 1503 1497 1499
f 1500 1502 1504
f 1506 1507 1505
f 1508 1511 1507
f 1512 1509 1511
f 1510 1505 1509
f 1511 1505 1507
f 1508 1510 1512
f 1514 1515 1513
f 1516 1519 1515
f 1520 1517 1519
f 1518 1513 1517
f 1519 1513 1515
f 1516 1518 1520
f 1522 1523 1521
f 1524 1527 1523
f 1528 1525 1527
f 1526 1521 1525
f 1527 1521 1523
f 1524 1526 1528
f 1530 1531 1529
f 1532 1535 1531
f 1536 1533 1535
f 1534 1529 1533
f 1535 1529 1531
f 1532 1534 1536
f 1538 1539 1537
f 1540 1543 1539
f 1544 1541 1543
f 1542 1537 1541
f 1543 1537 1539
f 1540 1542 1544
f 1546 1547 1545
f 1548 1551 1547
f 1552 1549 1551
f 1550 1545 1549
f 1551 1545 1547
f 1548 1550 1552
f 1554 1555 1553
f 1556 1559 1555
f 1560 1557 1559
f 1558 1553 1557
f 1559 1553 1555
f 1556 1558 1560
f 1562 1563 1561
f 1564 1567 1563
f 1568 1565 1567
f 1566 1561 1565
f 1567 1561 1563
f 1564 1566 1568
f 1570 1571 1569
f 1572 1575 1571
f 1576 1573 1575
f 1574 1569 1573
f 1575 1569 1571
f 1572 1574 1576
f 1578 1579 1577
f 1580 1583 1579
f 1584 1581 1583
f 1582 1577 1581
f 1583 1577 1579
f 1580 1582 1584
f 1586 1587 1585
f 1588 1591 1587
f 1592 1589 1591
f 1590 1585 1589
f 1591 1585 1587
f 1588 1590 1592
f 1594 1595 1593
f 1596 1599 1595
f 1600 1597 1599
f 1598 1593 1597
f 1599 1593 1595
f 1596 1598 1600
f 1602 1603 1601
f 1604 1607 1603
f 1608 1605 1607
f 1606 1601 1605
f 1607 1601 1603
f 1604 1606 1608
f 1610 1611 1609
f 1612 1615 1611
f 1616 1613 1615
f 1614 1609 1613
f 1615 1609 1611
f 1612 1614 1616
f 1618 1619 1617
f 1620 1623 1619
f 1624 1621 1623
f 1622 1617 1621
f 1623 1617 1619
f 1620 1622 1624
f 1626 1627 1625
f 1628 1631 1627
f 1632 1629 1631
f 1630 1625 1629
f 1631 1625 1627
f 1628 1630 1632
f 1634 1635 1633
f 1636 1639 1635
f 1640 1637 1639
f 1638 1633 1637
f 1639 1633 1635
f 1636 1638 1640
f 1642 1643 1641
f 1644 1647 1643
f 1648 1645 1647
f 1646 1641 1645
f 1647 1641 1643
f 1644 1646 1648
f 1650 1651 1649
f 1652 1655 1651
f 1656 1653 1655
f 1654 1649 1653
f 1655 1649 1651
f 1652 1654 1656
f 1658 1659 1657
f 1660 1663 1659
f 1664 1661 1663
f 1662 1657 1661
f 1663 1657 1659
f 1660 1662 1664
f 1666 1667 1665
f 1668 1671 1667
f 1672 1669 1671
f 1670 1665 1669
f 1671 1665 1667
f 1668 1670 1672
f 1674 1675 1673
f 1676 1679 1675
f 1680 1677 1679
f 1678 1673 1677
f 1679 1673 1675
f 1676 1678 1680
f 1682 1683 1681
f 1684 1687 1683
f 1688 1685 1687
f 1686 1681 1685
f 1687 1681 1683
f 1684 1686 1688
f 1690 1691 1689
f 1692 1695 1691
f 1696 1693 1695
f 1694 1689 1693
f 1695 1689 1691
f 1692 1694 1696
f 1346 1348 1347
f 1348 1352 1351
f 1352 1350 1349
f 1350 1346 1345
f 1351 1349 1345
f 1348 1346 1350
f 1354 1356 1355
f 1356 1360 1359
f 1360 1358 1357
f 1358 1354 1353
f 1359 1357 1353
f 1356 1354 1358
f 1362 1364 1363
f 1364 1368 1367
f 1368 1366 1365
f 1366 1362 1361
f 1367 1365 1361
f 1364 1362 1366
f 1370 1372 1371
f 1372 1376 1375
f 1376 1374 1373
f 1374 1370 1369
f 1375 1373 1369
f 1372 1370 1374
f 1378 1380 1379
f 1380 1384 1383
f 1384 1382 1381
f 1382 1378 1377
f 1383 1381 1377
f 1380 1378 1382
f 1386 1388 1387
f 1388 1392 1391
f 1392 1390 1389
f 1390 1386 1385
f 1391 1389 1385
f 1388 1386 1390
f 1394 1396 1395
f 1396 1400 1399
f 1400 1398 1397
f 1398 1394 1393
f 1399 1397 1393
f 1396 1394 1398
f 1402 1404 1403
f 1404 1408 1407
f 1408 1406 1405
f 1406 1402 1401
f 1407 1405 1401
f 1404 1402 1406
f 1410 1412 1411
f 1412 1416 1415
f 1416 1414 1413
f 1414 1410 1409
f 1415 1413 1409
f 1412 1410 1414
f 1418 1420 1419
f 1420 1424 1423
f 1424 1422 1421
f 1422 1418 1417
f 1423 1421 1417
f 1420 1418 1422
f 1426 1428 1427
f 1428 1432 1431
f 1432 1430 1429
f 1430 1426 1425
f 1431 1429 1425
f 1428 1426 1430
f 1434 1436 1435
f 1436 1440 1439
f 1440 1438 1437
f 1438 1434 1433
f 1439 1437 1433
f 1436 1434 1438
f 1442 1444 1443
f 1444 1448 1447
f 1448 1446 1445
f 1446 1442 1441
f 1447 1445 1441
f 1444 1442 1446
f 1450 1452 1451
f 1452 1456 1455
f 1456 1454 1453
f 1454 1450 1449
f 1455 1453 1449
f 1452 1450 1454
f 1458 1460 1459
f 1460 1464 1463
f 1464 1462 1461
f 1462 1458 1457
f 1463 1461 1457
f 1460 1458 1462
f 1466 1468 1467
f 1468 1472 1471
f 1472 1470 1469
f 1470 1466 1465
f 1471 1469 1465
f 1468 1466 1470
f 1474 1476 1475
f 1476 1480 1479
f 1480 1478 1477
f 1478 1474 1473
f 1479 1477 1473
f 1476 1474 1478
f 1482 1484 1483
f 1484 1488 1487
f 1488 1486 1485
f 1486 1482 1481
f 1487 1485 1481
f 1484 1482 1486
f 1490 1492 1491
f 1492 1496 1495
f 1496 1494 1493
f 1494 1490 1489
f 1495 1493 1489
f 1492 1490 1494
f 1498 1500 1499
f 1500 1504 1503
f 1504 1502 1501
f 1502 1498 1497
f 1503 1501 1497
f 1500 1498 1502
f 1506 1508 1507
f 1508 1512 1511
f 1512 1510 1509
f 1510 1506 1505
f 1511 1509 1505
f 1508 1506 1510
f 1514 1516 1515
f 1516 1520 1519
f 1520 1518 1517
f 1518 1514 1513
f 1519 1517 1513
f 1516 1514 1518
f 1522 1524 1523
f 1524 1528 1527
f 1528 1526 1525
f 1526 1522 1521
f 1527 1525 1521
f 1524 1522 1526
f 1530 1532 1531
f 1532 1536 1535
f 1536 1534 1533
f 1534 1530 1529
f 1535 1533 1529
f 1532 1530 1534
f 1538 1540 1539
f 1540 1544 1543
f 1544 1542 1541
f 1542 1538 1537
f 1543 1541 1537
f 1540 1538 1542
f 1546 1548 1547
f 1548 1552 1551
f 1552 1550 1549
f 1550 1546 1545
f 1551 1549 1545
f 1548 1546 1550
f 1554 1556 1555
f 1556 1560 1559
f 1560 1558 1557
f 1558 1554 1553
f 1559 1557 1553
f 1556 1554 1558
f 1562 1564 1563
f 1564 1568 1567
f 1568 1566 1565
f 1566 1562 1561
f 1567 1565 1561
f 1564 1562 1566
f 1570 1572 1571
f 1572 1576 1575
f 1576 1574 1573
f 1574 1570 1569
f 1575 1573 1569
f 1572 1570 1574
f 1578 1580 1579
f 1580 1584 1583
f 1584 1582 1581
f 1582 1578 1577
f 1583 1581 1577
f 1580 1578 1582
f 1586 1588 1587
f 1588 1592 1591
f 1592 1590 1589
f 1590 1586 1585
f 1591 1589 1585
f 1588 1586 1590
f 1594 1596 1595
f 1596 1600 1599
f 1600 1598 1597
f 1598 1594 1593
f 1599 1597 1593
f 1596 1594 1598
f 1602 1604 1603
f 1604 1608 1607
f 1608 1606 1605
f 1606 1602 1601
f 1607 1605 1601
f 1604 1602 1606
f 1610 1612 1611
f 1612 1616 1615
f 1616 1614 1613
f 1614 1610 1609
f 1615 1613 1609
f 1612 1610 1614
f 1618 1620 1619
f 1620 1624 1623
f 1624 1622 1621
f 1622 1618 1617
f 1623 1621 1617
f 1620 1618 1622
f 1626 1628 1627
f 1628 1632 1631
f 1632 1630 1629
f 1630 1626 1625
f 1631 1629 1625
f 1628 1626 1630
f 1634 1636 1635
f 1636 1640 1639
f 1640 1638 1637
f 1638 1634 1633
f 1639 1637 1633
f 1636 1634 1638
f 1642 1644 1643
f 1644 1648 1647
f 1648 1646 1645
f 1646 1642 1641
f 1647 1645 1641
f 1644 1642 1646
f 1650 1652 1651
f 1652 1656 1655
f 1656 1654 1653
f 1654 1650 1649
f 1655 1653 1649
f 1652 1650 1654
f 1658 1660 1659
f 1660 1664 1663
f 1664 1662 1661
f 1662 1658 1657
f 1663 1661 1657
f 1660 1658 1662
f 1666 1668 1667
f 1668 1672 1671
f 1672 1670 1669
f 1670 1666 1665
f 1671 1669 1665
f 1668 1666 1670
f 1674 1676 1675
f 1676 1680 1679
f 1680 1678 1677
f 1678 1674 1673
f 1679 1677 1673
f 1676 1674 1678
f 1682 1684 1683
f 1684 1688 1687
f 1688 1686 1685
f 1686 1682 1681
f 1687 1685 1681
f 1684 1682 1686
f 1690 1692 1691
f 1692 1696 1695
f 1696 1694 1693
f 1694 1690 1689
f 1695 1693 1689
f 1692 1690 1694
