# source: models.blend / Military_Assets / 33_AT_Pillbox
# generated by tools/export_builtin_obj.py (Task69) - do not hand-edit
mtllib Fort_AtPillbox.mtl
v -8.0000 0.0000 -8.0000
v -8.0000 0.9000 -8.0000
v -7.4000 0.0000 -8.0000
v -7.4000 0.9000 -8.0000
v -8.0000 0.0000 8.0000
v -8.0000 0.9000 8.0000
v -7.4000 0.0000 8.0000
v -7.4000 0.9000 8.0000
v -7.4000 0.0000 -8.0000
v -7.4000 0.9000 -8.0000
v 8.0000 0.0000 -8.0000
v 8.0000 0.9000 -8.0000
v -7.4000 0.0000 -7.2000
v -7.4000 0.9000 -7.2000
v 8.0000 0.0000 -7.2000
v 8.0000 0.9000 -7.2000
v -7.4000 0.0000 -7.2000
v -7.4000 0.9000 -7.2000
v -2.0000 0.0000 -7.2000
v -2.0000 0.9000 -7.2000
v -7.4000 0.0000 6.2000
v -7.4000 0.9000 6.2000
v -2.0000 0.0000 6.2000
v -2.0000 0.9000 6.2000
v -7.4000 0.0000 6.2000
v -7.4000 0.0500 6.2000
v 7.4000 0.0000 6.2000
v 7.4000 0.0500 6.2000
v -7.4000 0.0000 7.7000
v -7.4000 0.0500 7.7000
v 7.4000 0.0000 7.7000
v 7.4000 0.0500 7.7000
v -7.4000 0.0000 7.7000
v -7.4000 0.9000 7.7000
v 8.0000 0.0000 7.7000
v 8.0000 0.9000 7.7000
v -7.4000 0.0000 8.0000
v -7.4000 0.9000 8.0000
v 8.0000 0.0000 8.0000
v 8.0000 0.9000 8.0000
v -2.0000 0.0000 -7.2000
v -2.0000 0.3000 -7.2000
v 2.0000 0.0000 -7.2000
v 2.0000 0.3000 -7.2000
v -2.0000 0.0000 -3.0000
v -2.0000 0.3000 -3.0000
v 2.0000 0.0000 -3.0000
v 2.0000 0.3000 -3.0000
v -2.0000 0.0000 -3.0000
v -2.0000 0.9000 -3.0000
v 7.4000 0.0000 -3.0000
v 7.4000 0.9000 -3.0000
v -2.0000 0.0000 6.2000
v -2.0000 0.9000 6.2000
v 7.4000 0.0000 6.2000
v 7.4000 0.9000 6.2000
v 2.0000 0.0000 -7.2000
v 2.0000 0.9000 -7.2000
v 7.4000 0.0000 -7.2000
v 7.4000 0.9000 -7.2000
v 2.0000 0.0000 -3.0000
v 2.0000 0.9000 -3.0000
v 7.4000 0.0000 -3.0000
v 7.4000 0.9000 -3.0000
v 7.4000 0.0000 -7.2000
v 7.4000 0.9000 -7.2000
v 8.0000 0.0000 -7.2000
v 8.0000 0.9000 -7.2000
v 7.4000 0.0000 7.7000
v 7.4000 0.9000 7.7000
v 8.0000 0.0000 7.7000
v 8.0000 0.9000 7.7000
v -4.3000 0.9000 4.3000
v -4.3000 0.9000 -5.1000
v 4.3000 0.9000 -5.1000
v 4.3000 0.9000 4.3000
v -4.3000 4.2000 2.5500
v -4.3000 4.2000 -5.1000
v 4.3000 4.2000 -5.1000
v 4.3000 4.2000 2.5500
v -4.6000 4.0000 1.2000
v -4.6000 4.0000 -5.6000
v 4.6000 4.0000 -5.6000
v 4.6000 4.0000 1.2000
v -3.1000 5.2500 -0.3000
v -3.1000 5.2500 -5.2000
v 3.1000 5.2500 -5.2000
v 3.1000 5.2500 -0.3000
v 4.2000 0.9000 4.6000
v 4.2000 0.9000 -5.6000
v 7.1000 0.9000 -5.6000
v 7.1000 0.9000 4.6000
v 4.6000 3.0000 3.4000
v 4.6000 3.0000 -5.2000
v 6.3000 3.0000 -5.2000
v 6.3000 3.0000 3.4000
v -4.2000 0.9000 4.6000
v -4.2000 0.9000 -5.6000
v -7.1000 0.9000 -5.6000
v -7.1000 0.9000 4.6000
v -4.6000 3.0000 3.4000
v -4.6000 3.0000 -5.2000
v -6.3000 3.0000 -5.2000
v -6.3000 3.0000 3.4000
v -1.6000 2.4005 3.1071
v -1.6000 3.4317 3.3054
v 1.6000 2.4005 3.1071
v 1.6000 3.4317 3.3054
v -1.6000 2.2683 3.7946
v -1.6000 3.2995 3.9929
v 1.6000 2.2683 3.7946
v 1.6000 3.2995 3.9929
v 1.4500 2.2627 2.9797
v 1.4500 3.5884 3.2347
v 2.3500 2.2627 2.9797
v 2.3500 3.5884 3.2347
v 1.4500 2.1116 3.7653
v 1.4500 3.4373 4.0203
v 2.3500 2.1116 3.7653
v 2.3500 3.4373 4.0203
v -2.3500 2.2627 2.9797
v -2.3500 3.5884 3.2347
v -1.4500 2.2627 2.9797
v -1.4500 3.5884 3.2347
v -2.3500 2.1116 3.7653
v -2.3500 3.4373 4.0203
v -1.4500 2.1116 3.7653
v -1.4500 3.4373 4.0203
v -2.5000 3.4913 2.7920
v -2.5000 4.1787 2.9242
v 2.5000 3.4913 2.7920
v 2.5000 4.1787 2.9242
v -2.5000 3.3213 3.6758
v -2.5000 4.0087 3.8080
v 2.5000 3.3213 3.6758
v 2.5000 4.0087 3.8080
v -2.5000 1.8904 3.2514
v -2.5000 2.4796 3.3648
v 2.5000 1.8904 3.2514
v 2.5000 2.4796 3.3648
v -2.5000 1.7204 4.1352
v -2.5000 2.3096 4.2486
v 2.5000 1.7204 4.1352
v 2.5000 2.3096 4.2486
v 0.0000 3.6320 3.3000
v 0.1618 2.7415 3.5295
v 0.2000 2.9050 4.6739
v 0.2000 2.8590 3.5248
v 0.1092 3.1052 7.6933
v 0.1092 2.9333 3.3967
v 0.0000 2.0680 3.3000
v 0.0417 3.1542 7.6913
v 0.3438 3.5272 3.5498
v 0.5955 3.2410 3.7327
v 0.6877 2.8500 3.7996
v 0.5955 2.4590 3.7327
v 0.3438 2.1728 3.5498
v 0.0417 2.9823 3.3948
v -0.0417 3.1542 7.6913
v 0.1313 3.5272 3.7042
v 0.2275 3.2410 4.0001
v 0.2627 2.8500 4.1084
v 0.2275 2.4590 4.0001
v 0.1313 2.1728 3.7042
v -0.0417 2.9823 3.3948
v -0.1092 3.1052 7.6933
v -0.1313 3.5272 3.7042
v -0.2275 3.2410 4.0001
v -0.2627 2.8500 4.1084
v -0.2275 2.4590 4.0001
v -0.1313 2.1728 3.7042
v -0.1092 2.9333 3.3967
v -0.1350 3.0260 7.6965
v -0.3438 3.5272 3.5498
v -0.5955 3.2410 3.7327
v -0.6877 2.8500 3.7996
v -0.5955 2.4590 3.7327
v -0.3438 2.1728 3.5498
v -0.1350 2.8540 3.3999
v -0.1092 2.9467 7.6997
v -0.4250 3.5272 3.3000
v -0.7361 3.2410 3.3000
v -0.8500 2.8500 3.3000
v -0.7361 2.4590 3.3000
v -0.4250 2.1728 3.3000
v -0.1092 2.7747 3.4031
v -0.0417 2.8977 7.7016
v -0.3438 3.5272 3.0502
v -0.5955 3.2410 2.8673
v -0.6877 2.8500 2.8004
v -0.5955 2.4590 2.8673
v -0.3438 2.1728 3.0502
v -0.0417 2.7257 3.4051
v 0.0417 2.8977 7.7016
v -0.1313 3.5272 2.8958
v -0.2275 3.2410 2.5999
v -0.2627 2.8500 2.4916
v -0.2275 2.4590 2.5999
v -0.1313 2.1728 2.8958
v 0.0417 2.7257 3.4051
v 0.1092 2.9467 7.6997
v 0.1313 3.5272 2.8958
v 0.2275 3.2410 2.5999
v 0.2627 2.8500 2.4916
v 0.2275 2.4590 2.5999
v 0.1313 2.1728 2.8958
v 0.1092 2.7747 3.4031
v 0.1350 3.0260 7.6965
v 0.3438 3.5272 3.0502
v 0.5955 3.2410 2.8673
v 0.6877 2.8500 2.8004
v 0.5955 2.4590 2.8673
v 0.3438 2.1728 3.0502
v 0.1350 2.8540 3.3999
v -0.8000 0.3000 -5.4750
v 0.4250 3.5272 3.3000
v 0.7361 3.2410 3.3000
v 0.8500 2.8500 3.3000
v 0.7361 2.4590 3.3000
v 0.4250 2.1728 3.3000
v -0.8000 2.4000 -5.4750
v 0.1618 2.7875 4.6786
v 0.0618 2.6689 3.5324
v 0.0618 2.7149 4.6815
v -0.0618 2.6689 3.5324
v -0.0618 2.7149 4.6815
v -0.1618 2.7415 3.5295
v -0.1618 2.7875 4.6786
v -0.2000 2.8590 3.5248
v -0.2000 2.9050 4.6739
v -0.1618 2.9765 3.5201
v -0.1618 3.0224 4.6692
v -0.0618 3.0491 3.5172
v -0.0618 3.0950 4.6663
v 0.0618 3.0491 3.5172
v 0.0618 3.0950 4.6663
v 0.1618 2.9765 3.5201
v 0.1618 3.0224 4.6692
v 0.2350 3.0040 7.1469
v 0.2350 3.0280 7.7464
v 0.1901 2.8659 7.1524
v 0.1901 2.8899 7.7520
v 0.0726 2.7806 7.1559
v 0.0726 2.8046 7.7554
v -0.0726 2.7806 7.1559
v -0.0726 2.8046 7.7554
v -0.1901 2.8659 7.1524
v -0.1901 2.8899 7.7520
v -0.2350 3.0040 7.1469
v -0.2350 3.0280 7.7464
v -0.1901 3.1420 7.1414
v -0.1901 3.1660 7.7409
v -0.0726 3.2273 7.1380
v -0.0726 3.2513 7.7375
v 0.0726 3.2273 7.1380
v 0.0726 3.2513 7.7375
v 0.1901 3.1420 7.1414
v 0.1901 3.1660 7.7409
v 0.8000 0.3000 -5.4750
v 0.8000 2.4000 -5.4750
v -0.8000 0.3000 -4.9250
v -0.8000 2.4000 -4.9250
v 0.8000 0.3000 -4.9250
v 0.8000 2.4000 -4.9250
v -1.2000 0.3000 -5.7750
v -1.2000 2.9000 -5.7750
v 1.2000 0.3000 -5.7750
v 1.2000 2.9000 -5.7750
v -1.2000 0.3000 -5.3250
v -1.2000 2.9000 -5.3250
v 1.2000 0.3000 -5.3250
v 1.2000 2.9000 -5.3250
v -1.0000 0.3000 -7.3000
v -1.0000 2.9000 -7.3000
v 3.2000 0.3000 -7.3000
v 3.2000 2.9000 -7.3000
v -1.0000 0.3000 -6.7000
v -1.0000 2.9000 -6.7000
v 3.2000 0.3000 -6.7000
v 3.2000 2.9000 -6.7000
v -2.3900 0.3000 -6.8748
v -2.3900 0.5400 -6.8748
v -2.0100 0.3000 -6.8748
v -2.0100 0.5400 -6.8748
v -2.3900 0.3000 -6.2052
v -2.3900 0.5400 -6.2052
v -2.0100 0.3000 -6.2052
v -2.0100 0.5400 -6.2052
v -2.3900 0.3000 -6.1548
v -2.3900 0.5400 -6.1548
v -2.0100 0.3000 -6.1548
v -2.0100 0.5400 -6.1548
v -2.3900 0.3000 -5.4852
v -2.3900 0.5400 -5.4852
v -2.0100 0.3000 -5.4852
v -2.0100 0.5400 -5.4852
v -2.3900 0.3000 -5.4348
v -2.3900 0.5400 -5.4348
v -2.0100 0.3000 -5.4348
v -2.0100 0.5400 -5.4348
v -2.3900 0.3000 -4.7652
v -2.3900 0.5400 -4.7652
v -2.0100 0.3000 -4.7652
v -2.0100 0.5400 -4.7652
v -2.3900 0.3000 -4.7148
v -2.3900 0.5400 -4.7148
v -2.0100 0.3000 -4.7148
v -2.0100 0.5400 -4.7148
v -2.3900 0.3000 -4.0452
v -2.3900 0.5400 -4.0452
v -2.0100 0.3000 -4.0452
v -2.0100 0.5400 -4.0452
v -2.3900 0.3000 -3.9948
v -2.3900 0.5400 -3.9948
v -2.0100 0.3000 -3.9948
v -2.0100 0.5400 -3.9948
v -2.3900 0.3000 -3.3252
v -2.3900 0.5400 -3.3252
v -2.0100 0.3000 -3.3252
v -2.0100 0.5400 -3.3252
v -2.3900 0.5400 -6.5148
v -2.3900 0.7800 -6.5148
v -2.0100 0.5400 -6.5148
v -2.0100 0.7800 -6.5148
v -2.3900 0.5400 -5.8452
v -2.3900 0.7800 -5.8452
v -2.0100 0.5400 -5.8452
v -2.0100 0.7800 -5.8452
v -2.3900 0.5400 -5.7948
v -2.3900 0.7800 -5.7948
v -2.0100 0.5400 -5.7948
v -2.0100 0.7800 -5.7948
v -2.3900 0.5400 -5.1252
v -2.3900 0.7800 -5.1252
v -2.0100 0.5400 -5.1252
v -2.0100 0.7800 -5.1252
v -2.3900 0.5400 -5.0748
v -2.3900 0.7800 -5.0748
v -2.0100 0.5400 -5.0748
v -2.0100 0.7800 -5.0748
v -2.3900 0.5400 -4.4052
v -2.3900 0.7800 -4.4052
v -2.0100 0.5400 -4.4052
v -2.0100 0.7800 -4.4052
v -2.3900 0.5400 -4.3548
v -2.3900 0.7800 -4.3548
v -2.0100 0.5400 -4.3548
v -2.0100 0.7800 -4.3548
v -2.3900 0.5400 -3.6852
v -2.3900 0.7800 -3.6852
v -2.0100 0.5400 -3.6852
v -2.0100 0.7800 -3.6852
v -7.1750 0.9000 4.6250
v -7.1750 0.9000 5.6750
v -6.1250 0.9000 5.6750
v -6.1250 0.9000 4.6250
v -6.8200 2.0500 4.9800
v -6.8200 2.0500 5.3200
v -6.4800 2.0500 5.3200
v -6.4800 2.0500 4.9800
v -5.2750 0.9000 4.6250
v -5.2750 0.9000 5.6750
v -4.2250 0.9000 5.6750
v -4.2250 0.9000 4.6250
v -4.9200 2.0500 4.9800
v -4.9200 2.0500 5.3200
v -4.5800 2.0500 5.3200
v -4.5800 2.0500 4.9800
v -3.3750 0.9000 4.6250
v -3.3750 0.9000 5.6750
v -2.3250 0.9000 5.6750
v -2.3250 0.9000 4.6250
v -3.0200 2.0500 4.9800
v -3.0200 2.0500 5.3200
v -2.6800 2.0500 5.3200
v -2.6800 2.0500 4.9800
v -1.4750 0.9000 4.6250
v -1.4750 0.9000 5.6750
v -0.4250 0.9000 5.6750
v -0.4250 0.9000 4.6250
v -1.1200 2.0500 4.9800
v -1.1200 2.0500 5.3200
v -0.7800 2.0500 5.3200
v -0.7800 2.0500 4.9800
v 0.4250 0.9000 4.6250
v 0.4250 0.9000 5.6750
v 1.4750 0.9000 5.6750
v 1.4750 0.9000 4.6250
v 0.7800 2.0500 4.9800
v 0.7800 2.0500 5.3200
v 1.1200 2.0500 5.3200
v 1.1200 2.0500 4.9800
v 2.3250 0.9000 4.6250
v 2.3250 0.9000 5.6750
v 3.3750 0.9000 5.6750
v 3.3750 0.9000 4.6250
v 2.6800 2.0500 4.9800
v 2.6800 2.0500 5.3200
v 3.0200 2.0500 5.3200
v 3.0200 2.0500 4.9800
v 4.2250 0.9000 4.6250
v 4.2250 0.9000 5.6750
v 5.2750 0.9000 5.6750
v 5.2750 0.9000 4.6250
v 4.5800 2.0500 4.9800
v 4.5800 2.0500 5.3200
v 4.9200 2.0500 5.3200
v 4.9200 2.0500 4.9800
v 6.1250 0.9000 4.6250
v 6.1250 0.9000 5.6750
v 7.1750 0.9000 5.6750
v 7.1750 0.9000 4.6250
v 6.4800 2.0500 4.9800
v 6.4800 2.0500 5.3200
v 6.8200 2.0500 5.3200
v 6.8200 2.0500 4.9800
v -7.4000 1.2750 7.9750
v -7.4000 1.2250 7.9750
v -7.3550 0.9000 7.9500
v -7.3550 2.0500 7.9500
v -7.4000 0.9000 7.9950
v -7.4000 2.0500 7.9950
v -7.4450 0.9000 7.9500
v -7.4450 2.0500 7.9500
v -7.4000 0.9000 7.9050
v -7.4000 2.0500 7.9050
v -5.2407 0.9000 7.9500
v -5.2407 2.0500 7.9500
v -5.2857 0.9000 7.9950
v -5.2857 2.0500 7.9950
v -5.3307 0.9000 7.9500
v -5.3307 2.0500 7.9500
v -5.2857 0.9000 7.9050
v -5.2857 2.0500 7.9050
v -3.1264 0.9000 7.9500
v -3.1264 2.0500 7.9500
v -3.1714 0.9000 7.9950
v -3.1714 2.0500 7.9950
v -3.2164 0.9000 7.9500
v -3.2164 2.0500 7.9500
v -3.1714 0.9000 7.9050
v -3.1714 2.0500 7.9050
v -1.0121 0.9000 7.9500
v -1.0121 2.0500 7.9500
v -1.0571 0.9000 7.9950
v -1.0571 2.0500 7.9950
v -1.1021 0.9000 7.9500
v -1.1021 2.0500 7.9500
v -1.0571 0.9000 7.9050
v -1.0571 2.0500 7.9050
v 1.1021 0.9000 7.9500
v 1.1021 2.0500 7.9500
v 1.0571 0.9000 7.9950
v 1.0571 2.0500 7.9950
v 1.0121 0.9000 7.9500
v 1.0121 2.0500 7.9500
v 1.0571 0.9000 7.9050
v 1.0571 2.0500 7.9050
v 3.2164 0.9000 7.9500
v 3.2164 2.0500 7.9500
v 3.1714 0.9000 7.9950
v 3.1714 2.0500 7.9950
v 3.1264 0.9000 7.9500
v 3.1264 2.0500 7.9500
v 3.1714 0.9000 7.9050
v 3.1714 2.0500 7.9050
v 5.3307 0.9000 7.9500
v 5.3307 2.0500 7.9500
v 5.2857 0.9000 7.9950
v 5.2857 2.0500 7.9950
v 5.2407 0.9000 7.9500
v 5.2407 2.0500 7.9500
v 5.2857 0.9000 7.9050
v 5.2857 2.0500 7.9050
v 7.4450 0.9000 7.9500
v 7.4450 2.0500 7.9500
v 7.4000 0.9000 7.9950
v 7.4000 2.0500 7.9950
v 7.3550 0.9000 7.9500
v 7.3550 2.0500 7.9500
v 7.4000 0.9000 7.9050
v 7.4000 2.0500 7.9050
v -7.4000 1.2250 7.9250
v -7.4000 1.2750 7.9250
v 7.4000 1.2250 7.9750
v 7.4000 1.2750 7.9750
v 7.4000 1.2250 7.9250
v 7.4000 1.2750 7.9250
v -7.4000 1.5750 7.9150
v -7.4000 1.6250 7.9150
v -7.4000 1.5750 7.8650
v -7.4000 1.6250 7.8650
v 7.4000 1.5750 7.9150
v 7.4000 1.6250 7.9150
v 7.4000 1.5750 7.8650
v 7.4000 1.6250 7.8650
v -7.4000 1.9250 7.9750
v -7.4000 1.9750 7.9750
v -7.4000 1.9250 7.9250
v -7.4000 1.9750 7.9250
v 7.4000 1.9250 7.9750
v 7.4000 1.9750 7.9750
v 7.4000 1.9250 7.9250
v 7.4000 1.9750 7.9250
v -1.2800 5.7800 -1.4000
v -1.2800 5.5800 -1.4000
v 2.2600 4.6500 -3.4000
v 2.2600 5.8500 -3.4000
v 2.2131 4.6500 -3.2869
v 2.2131 5.8500 -3.2869
v 2.1000 4.6500 -3.2400
v 2.1000 5.8500 -3.2400
v 1.9869 4.6500 -3.2869
v 1.9869 5.8500 -3.2869
v 1.9400 4.6500 -3.4000
v 1.9400 5.8500 -3.4000
v 1.9869 4.6500 -3.5131
v 1.9869 5.8500 -3.5131
v 2.1000 4.6500 -3.5600
v 2.1000 5.8500 -3.5600
v 2.2131 4.6500 -3.5131
v 2.2131 5.8500 -3.5131
v -1.1100 4.8750 -1.4000
v -1.1100 5.7250 -1.4000
v -1.1550 4.8750 -1.3221
v -1.1550 5.7250 -1.3221
v -1.2450 4.8750 -1.3221
v -1.2450 5.7250 -1.3221
v -1.2900 4.8750 -1.4000
v -1.2900 5.7250 -1.4000
v -1.2450 4.8750 -1.4779
v -1.2450 5.7250 -1.4779
v -1.1550 4.8750 -1.4779
v -1.1550 5.7250 -1.4779
v -1.1200 5.5800 -1.4000
v -1.1200 5.7800 -1.4000
v -1.2800 5.5800 -1.1000
v -1.2800 5.7800 -1.1000
v -1.1200 5.5800 -1.1000
v -1.1200 5.7800 -1.1000
v -2.3750 4.0000 -4.6000
v -2.3750 6.2000 -4.6000
v -2.4000 4.0000 -4.5750
v -2.4000 6.2000 -4.5750
v -2.4250 4.0000 -4.6000
v -2.4250 6.2000 -4.6000
v -2.4000 4.0000 -4.6250
v -2.4000 6.2000 -4.6250
usemtl Mat0
f 2 3 1
f 4 7 3
f 8 5 7
f 6 1 5
f 7 1 3
f 4 6 8
f 10 11 9
f 12 15 11
f 16 13 15
f 14 9 13
f 15 9 11
f 12 14 16
f 34 35 33
f 36 39 35
f 40 37 39
f 38 33 37
f 39 33 35
f 36 38 40
f 66 67 65
f 68 71 67
f 72 69 71
f 70 65 69
f 71 65 67
f 68 70 72
f 282 283 281
f 284 287 283
f 288 285 287
f 286 281 285
f 287 281 283
f 284 286 288
f 290 291 289
f 292 295 291
f 296 293 295
f 294 289 293
f 295 289 291
f 292 294 296
f 298 299 297
f 300 303 299
f 304 301 303
f 302 297 301
f 303 297 299
f 300 302 304
f 306 307 305
f 308 311 307
f 312 309 311
f 310 305 309
f 311 305 307
f 308 310 312
f 314 315 313
f 316 319 315
f 320 317 319
f 318 313 317
f 319 313 315
f 316 318 320
f 322 323 321
f 324 327 323
f 328 325 327
f 326 321 325
f 327 321 323
f 324 326 328
f 330 331 329
f 332 335 331
f 336 333 335
f 334 329 333
f 335 329 331
f 332 334 336
f 338 339 337
f 340 343 339
f 344 341 343
f 342 337 341
f 343 337 339
f 340 342 344
f 346 347 345
f 348 351 347
f 352 349 351
f 350 345 349
f 351 345 347
f 348 350 352
f 2 4 3
f 4 8 7
f 8 6 5
f 6 2 1
f 7 5 1
f 4 2 6
f 10 12 11
f 12 16 15
f 16 14 13
f 14 10 9
f 15 13 9
f 12 10 14
f 34 36 35
f 36 40 39
f 40 38 37
f 38 34 33
f 39 37 33
f 36 34 38
f 66 68 67
f 68 72 71
f 72 70 69
f 70 66 65
f 71 69 65
f 68 66 70
f 282 284 283
f 284 288 287
f 288 286 285
f 286 282 281
f 287 285 281
f 284 282 286
f 290 292 291
f 292 296 295
f 296 294 293
f 294 290 289
f 295 293 289
f 292 290 294
f 298 300 299
f 300 304 303
f 304 302 301
f 302 298 297
f 303 301 297
f 300 298 302
f 306 308 307
f 308 312 311
f 312 310 309
f 310 306 305
f 311 309 305
f 308 306 310
f 314 316 315
f 316 320 319
f 320 318 317
f 318 314 313
f 319 317 313
f 316 314 318
f 322 324 323
f 324 328 327
f 328 326 325
f 326 322 321
f 327 325 321
f 324 322 326
f 330 332 331
f 332 336 335
f 336 334 333
f 334 330 329
f 335 333 329
f 332 330 334
f 338 340 339
f 340 344 343
f 344 342 341
f 342 338 337
f 343 341 337
f 340 338 342
f 346 348 347
f 348 352 351
f 352 350 349
f 350 346 345
f 351 349 345
f 348 346 350
usemtl Mat1
f 18 19 17
f 20 23 19
f 24 21 23
f 22 17 21
f 23 17 19
f 20 22 24
f 26 27 25
f 28 31 27
f 32 29 31
f 30 25 29
f 31 25 27
f 28 30 32
f 50 51 49
f 52 55 51
f 56 53 55
f 54 49 53
f 55 49 51
f 52 54 56
f 58 59 57
f 60 63 59
f 64 61 63
f 62 57 61
f 63 57 59
f 60 62 64
f 82 84 81
f 87 85 88
f 85 82 81
f 86 83 82
f 83 88 84
f 88 81 84
f 90 92 89
f 95 93 96
f 93 90 89
f 90 95 91
f 91 96 92
f 96 89 92
f 100 98 97
f 101 103 104
f 98 101 97
f 98 103 102
f 99 104 103
f 97 104 100
f 18 20 19
f 20 24 23
f 24 22 21
f 22 18 17
f 23 21 17
f 20 18 22
f 26 28 27
f 28 32 31
f 32 30 29
f 30 26 25
f 31 29 25
f 28 26 30
f 50 52 51
f 52 56 55
f 56 54 53
f 54 50 49
f 55 53 49
f 52 50 54
f 58 60 59
f 60 64 63
f 64 62 61
f 62 58 57
f 63 61 57
f 60 58 62
f 82 83 84
f 87 86 85
f 85 86 82
f 86 87 83
f 83 87 88
f 88 85 81
f 90 91 92
f 95 94 93
f 93 94 90
f 90 94 95
f 91 95 96
f 96 93 89
f 100 99 98
f 101 102 103
f 98 102 101
f 98 99 103
f 99 100 104
f 97 101 104
usemtl Mat2
f 42 43 41
f 44 47 43
f 48 45 47
f 46 41 45
f 47 41 43
f 44 46 48
f 74 76 73
f 79 77 80
f 77 74 73
f 78 75 74
f 75 80 76
f 80 73 76
f 114 115 113
f 115 120 119
f 120 117 119
f 118 113 117
f 119 113 115
f 116 118 120
f 122 123 121
f 123 128 127
f 128 125 127
f 126 121 125
f 127 121 123
f 124 126 128
f 130 131 129
f 132 135 131
f 136 133 135
f 134 129 133
f 135 129 131
f 132 134 136
f 138 139 137
f 139 144 143
f 144 141 143
f 142 137 141
f 143 137 139
f 140 142 144
f 278 273 277
f 276 279 275
f 274 275 273
f 268 271 267
f 266 267 265
f 268 270 272
f 272 269 271
f 276 278 280
f 280 277 279
f 271 265 267
f 279 273 275
f 270 265 269
f 356 354 353
f 357 359 360
f 354 357 353
f 355 358 354
f 356 359 355
f 353 360 356
f 364 362 361
f 365 367 368
f 362 365 361
f 363 366 362
f 364 367 363
f 361 368 364
f 372 370 369
f 373 375 376
f 370 373 369
f 371 374 370
f 372 375 371
f 369 376 372
f 380 378 377
f 381 383 384
f 378 381 377
f 379 382 378
f 380 383 379
f 377 384 380
f 388 386 385
f 389 391 392
f 386 389 385
f 387 390 386
f 388 391 387
f 385 392 388
f 396 394 393
f 397 399 400
f 394 397 393
f 395 398 394
f 396 399 395
f 393 400 396
f 404 402 401
f 405 407 408
f 402 405 401
f 403 406 402
f 404 407 403
f 401 408 404
f 412 410 409
f 413 415 416
f 410 413 409
f 411 414 410
f 412 415 411
f 409 416 412
f 42 44 43
f 44 48 47
f 48 46 45
f 46 42 41
f 47 45 41
f 44 42 46
f 74 75 76
f 79 78 77
f 77 78 74
f 78 79 75
f 75 79 80
f 80 77 73
f 114 116 115
f 115 116 120
f 120 118 117
f 118 114 113
f 119 117 113
f 116 114 118
f 122 124 123
f 123 124 128
f 128 126 125
f 126 122 121
f 127 125 121
f 124 122 126
f 130 132 131
f 132 136 135
f 136 134 133
f 134 130 129
f 135 133 129
f 132 130 134
f 138 140 139
f 139 140 144
f 144 142 141
f 142 138 137
f 143 141 137
f 140 138 142
f 278 274 273
f 276 280 279
f 274 276 275
f 268 272 271
f 266 268 267
f 268 266 270
f 272 270 269
f 276 274 278
f 280 278 277
f 271 269 265
f 279 277 273
f 270 266 265
f 356 355 354
f 357 358 359
f 354 358 357
f 355 359 358
f 356 360 359
f 353 357 360
f 364 363 362
f 365 366 367
f 362 366 365
f 363 367 366
f 364 368 367
f 361 365 368
f 372 371 370
f 373 374 375
f 370 374 373
f 371 375 374
f 372 376 375
f 369 373 376
f 380 379 378
f 381 382 383
f 378 382 381
f 379 383 382
f 380 384 383
f 377 381 384
f 388 387 386
f 389 390 391
f 386 390 389
f 387 391 390
f 388 392 391
f 385 389 392
f 396 395 394
f 397 398 399
f 394 398 397
f 395 399 398
f 396 400 399
f 393 397 400
f 404 403 402
f 405 406 407
f 402 406 405
f 403 407 406
f 404 408 407
f 401 405 408
f 412 411 410
f 413 414 415
f 410 414 413
f 411 415 414
f 412 416 415
f 409 413 416
usemtl Mat3
f 106 107 105
f 108 111 107
f 112 109 111
f 110 105 109
f 111 105 107
f 108 110 112
f 542 543 541
f 544 545 543
f 542 546 544
f 546 547 545
f 548 541 547
f 543 547 541
f 106 108 107
f 108 112 111
f 112 110 109
f 110 106 105
f 111 109 105
f 108 106 110
f 542 544 543
f 544 546 545
f 542 548 546
f 546 548 547
f 548 542 541
f 543 545 547
usemtl Mat4
f 220 156 157
f 217 155 218
f 216 145 153
f 151 220 157
f 218 156 219
f 216 154 217
f 151 157 164
f 156 162 163
f 153 161 154
f 157 163 164
f 154 162 155
f 153 145 160
f 151 164 171
f 163 169 170
f 160 168 161
f 163 171 164
f 161 169 162
f 160 145 167
f 151 171 178
f 170 176 177
f 168 174 175
f 170 178 171
f 168 176 169
f 167 145 174
f 177 183 184
f 175 181 182
f 178 184 185
f 175 183 176
f 174 145 181
f 151 178 185
f 181 189 182
f 184 192 185
f 182 190 183
f 181 145 188
f 151 185 192
f 183 191 184
f 192 198 199
f 189 197 190
f 188 145 195
f 151 192 199
f 191 197 198
f 188 196 189
f 198 206 199
f 196 204 197
f 195 145 202
f 151 199 206
f 198 204 205
f 196 202 203
f 206 212 213
f 203 211 204
f 202 145 209
f 151 206 213
f 205 211 212
f 202 210 203
f 213 219 220
f 210 218 211
f 209 145 216
f 151 213 220
f 212 218 219
f 209 217 210
f 230 231 229
f 224 225 223
f 214 201 207
f 246 247 245
f 201 200 207
f 194 193 200
f 228 229 227
f 222 223 146
f 187 186 193
f 180 179 186
f 263 215 259
f 173 172 179
f 225 228 227
f 147 146 148
f 166 165 172
f 241 244 243
f 244 245 243
f 159 158 165
f 194 208 152
f 250 251 249
f 152 150 158
f 248 249 247
f 149 214 150
f 193 165 150
f 240 241 239
f 231 234 233
f 260 262 264
f 234 235 233
f 147 236 232
f 236 237 235
f 262 215 261
f 237 147 148
f 237 146 225
f 264 261 263
f 252 253 251
f 260 263 259
f 254 255 253
f 246 242 258
f 221 259 215
f 256 257 255
f 258 239 257
f 239 241 249
f 430 431 429
f 428 429 427
f 420 421 419
f 428 432 430
f 436 437 435
f 422 423 421
f 420 424 422
f 438 439 437
f 424 425 423
f 446 447 445
f 454 455 453
f 426 419 425
f 421 425 419
f 444 445 443
f 432 433 431
f 462 463 461
f 470 471 469
f 434 427 433
f 433 429 431
f 441 437 439
f 440 441 439
f 452 453 451
f 448 444 450
f 442 435 441
f 436 440 438
f 460 461 459
f 448 449 447
f 478 479 477
f 484 486 488
f 450 443 449
f 443 447 449
f 455 451 453
f 456 457 455
f 468 469 467
f 462 466 464
f 458 451 457
f 452 456 454
f 476 477 475
f 464 465 463
f 484 487 483
f 490 491 489
f 466 459 465
f 461 465 459
f 473 469 471
f 472 473 471
f 488 485 487
f 478 482 480
f 474 467 473
f 468 472 470
f 417 483 418
f 480 481 479
f 487 418 483
f 486 418 485
f 482 475 481
f 477 481 475
f 492 495 491
f 496 493 495
f 494 489 493
f 495 489 491
f 492 494 496
f 498 499 497
f 500 503 499
f 504 501 503
f 502 497 501
f 503 497 499
f 500 502 504
f 533 523 525
f 540 537 539
f 508 509 507
f 532 533 531
f 526 527 525
f 510 511 509
f 530 531 529
f 512 513 511
f 180 187 152
f 536 538 540
f 514 515 513
f 536 539 535
f 524 525 523
f 516 517 515
f 528 529 527
f 187 194 152
f 518 519 517
f 516 514 512
f 539 506 535
f 520 521 519
f 505 535 506
f 152 159 180
f 522 507 521
f 521 509 513
f 538 506 537
f 208 149 152
f 534 523 533
f 528 526 524
f 194 201 208
f 166 173 180
f 159 166 180
f 150 214 207
f 207 200 150
f 200 193 150
f 193 186 179
f 179 172 193
f 172 165 193
f 165 158 150
f 228 226 224
f 224 222 147
f 147 238 236
f 236 234 232
f 232 230 228
f 228 224 232
f 224 147 232
f 229 231 233
f 233 235 229
f 235 237 229
f 237 148 146
f 146 223 225
f 225 227 237
f 227 229 237
f 246 244 242
f 242 240 258
f 258 256 254
f 254 252 258
f 252 250 258
f 250 248 258
f 248 246 258
f 241 243 245
f 245 247 241
f 247 249 241
f 249 251 257
f 251 253 257
f 253 255 257
f 257 239 249
f 525 527 533
f 527 529 533
f 529 531 533
f 512 510 508
f 508 522 512
f 522 520 512
f 520 518 512
f 518 516 512
f 521 507 509
f 509 511 513
f 513 515 521
f 515 517 521
f 517 519 521
f 524 534 528
f 534 532 528
f 532 530 528
f 220 219 156
f 217 154 155
f 218 155 156
f 216 153 154
f 156 155 162
f 153 160 161
f 157 156 163
f 154 161 162
f 163 162 169
f 160 167 168
f 163 170 171
f 161 168 169
f 170 169 176
f 168 167 174
f 170 177 178
f 168 175 176
f 177 176 183
f 175 174 181
f 178 177 184
f 175 182 183
f 181 188 189
f 184 191 192
f 182 189 190
f 183 190 191
f 192 191 198
f 189 196 197
f 191 190 197
f 188 195 196
f 198 205 206
f 196 203 204
f 198 197 204
f 196 195 202
f 206 205 212
f 203 210 211
f 205 204 211
f 202 209 210
f 213 212 219
f 210 217 218
f 212 211 218
f 209 216 217
f 230 232 231
f 224 226 225
f 214 208 201
f 246 248 247
f 201 194 200
f 194 187 193
f 228 230 229
f 222 224 223
f 187 180 186
f 180 173 179
f 263 261 215
f 173 166 172
f 225 226 228
f 147 222 146
f 166 159 165
f 241 242 244
f 244 246 245
f 159 152 158
f 250 252 251
f 152 149 150
f 248 250 249
f 149 208 214
f 240 242 241
f 231 232 234
f 260 221 262
f 234 236 235
f 236 238 237
f 262 221 215
f 237 238 147
f 264 262 261
f 252 254 253
f 260 264 263
f 254 256 255
f 221 260 259
f 256 258 257
f 258 240 239
f 430 432 431
f 428 430 429
f 420 422 421
f 428 434 432
f 436 438 437
f 422 424 423
f 420 426 424
f 438 440 439
f 424 426 425
f 446 448 447
f 454 456 455
f 426 420 419
f 421 423 425
f 444 446 445
f 432 434 433
f 462 464 463
f 470 472 471
f 434 428 427
f 433 427 429
f 441 435 437
f 440 442 441
f 452 454 453
f 448 446 444
f 442 436 435
f 436 442 440
f 460 462 461
f 448 450 449
f 478 480 479
f 484 417 486
f 450 444 443
f 443 445 447
f 455 457 451
f 456 458 457
f 468 470 469
f 462 460 466
f 458 452 451
f 452 458 456
f 476 478 477
f 464 466 465
f 484 488 487
f 490 492 491
f 466 460 459
f 461 463 465
f 473 467 469
f 472 474 473
f 488 486 485
f 478 476 482
f 474 468 467
f 468 474 472
f 417 484 483
f 480 482 481
f 487 485 418
f 486 417 418
f 482 476 475
f 477 479 481
f 492 496 495
f 496 494 493
f 494 490 489
f 495 493 489
f 492 490 494
f 498 500 499
f 500 504 503
f 504 502 501
f 502 498 497
f 503 501 497
f 500 498 502
f 540 538 537
f 508 510 509
f 532 534 533
f 526 528 527
f 510 512 511
f 530 532 531
f 512 514 513
f 536 505 538
f 514 516 515
f 536 540 539
f 524 526 525
f 516 518 517
f 528 530 529
f 518 520 519
f 539 537 506
f 520 522 521
f 505 536 535
f 522 508 507
f 538 505 506
f 534 524 523
