# interim bomb model (Task87) - generated by scratchpad/gen_bomb_obj.py
# replace by adding a '17_Bomb' object to models.blend and re-running tools/export_builtin_obj.py
mtllib Prop_Bomb.mtl
v 0.8000 0.0000 -2.6000
v 0.8000 0.0000 1.6000
v 0.5657 0.5657 -2.6000
v 0.5657 0.5657 1.6000
v 0.0000 0.8000 -2.6000
v 0.0000 0.8000 1.6000
v -0.5657 0.5657 -2.6000
v -0.5657 0.5657 1.6000
v -0.8000 0.0000 -2.6000
v -0.8000 0.0000 1.6000
v -0.5657 -0.5657 -2.6000
v -0.5657 -0.5657 1.6000
v -0.0000 -0.8000 -2.6000
v -0.0000 -0.8000 1.6000
v 0.5657 -0.5657 -2.6000
v 0.5657 -0.5657 1.6000
v 0.0000 0.0000 3.2000
v 0.0000 0.0000 -3.4000
v 0.2970 0.3818 -3.2000
v 0.3818 0.2970 -3.2000
v 0.2970 0.3818 -2.0000
v 0.3818 0.2970 -2.0000
v 1.0889 1.1738 -3.2000
v 1.1738 1.0889 -3.2000
v 1.0889 1.1738 -2.0000
v 1.1738 1.0889 -2.0000
v -0.3818 0.2970 -3.2000
v -0.2970 0.3818 -3.2000
v -0.3818 0.2970 -2.0000
v -0.2970 0.3818 -2.0000
v -1.1738 1.0889 -3.2000
v -1.0889 1.1738 -3.2000
v -1.1738 1.0889 -2.0000
v -1.0889 1.1738 -2.0000
v -0.2970 -0.3818 -3.2000
v -0.3818 -0.2970 -3.2000
v -0.2970 -0.3818 -2.0000
v -0.3818 -0.2970 -2.0000
v -1.0889 -1.1738 -3.2000
v -1.1738 -1.0889 -3.2000
v -1.0889 -1.1738 -2.0000
v -1.1738 -1.0889 -2.0000
v 0.3818 -0.2970 -3.2000
v 0.2970 -0.3818 -3.2000
v 0.3818 -0.2970 -2.0000
v 0.2970 -0.3818 -2.0000
v 1.1738 -1.0889 -3.2000
v 1.0889 -1.1738 -3.2000
v 1.1738 -1.0889 -2.0000
v 1.0889 -1.1738 -2.0000
usemtl Body
f 1 3 4
f 1 4 2
f 3 5 6
f 3 6 4
f 5 7 8
f 5 8 6
f 7 9 10
f 7 10 8
f 9 11 12
f 9 12 10
f 11 13 14
f 11 14 12
f 13 15 16
f 13 16 14
f 15 1 2
f 15 2 16
f 3 1 18
f 5 3 18
f 7 5 18
f 9 7 18
f 11 9 18
f 13 11 18
f 15 13 18
f 1 15 18
usemtl Nose
f 2 4 17
f 4 6 17
f 6 8 17
f 8 10 17
f 10 12 17
f 12 14 17
f 14 16 17
f 16 2 17
usemtl Fins
f 19 23 25
f 19 25 21
f 22 26 24
f 22 24 20
f 23 24 26
f 23 26 25
f 21 25 26
f 21 26 22
f 20 24 23
f 20 23 19
f 27 31 33
f 27 33 29
f 30 34 32
f 30 32 28
f 31 32 34
f 31 34 33
f 29 33 34
f 29 34 30
f 28 32 31
f 28 31 27
f 35 39 41
f 35 41 37
f 38 42 40
f 38 40 36
f 39 40 42
f 39 42 41
f 37 41 42
f 37 42 38
f 36 40 39
f 36 39 35
f 43 47 49
f 43 49 45
f 46 50 48
f 46 48 44
f 47 48 50
f 47 50 49
f 45 49 50
f 45 50 46
f 44 48 47
f 44 47 43
