# source: models.blend / Military_Assets / 19_Interceptor_Missile
# generated by tools/export_builtin_obj.py (Task69) - do not hand-edit
mtllib Prop_Interceptor.mtl
v 0.0900 0.6200 2.7000
v 0.1600 0.6200 2.2000
v 0.0900 0.6200 2.7000
v 0.0200 0.6200 3.1000
v 0.0728 0.5671 2.7000
v 0.0162 0.6082 3.1000
v 0.0278 0.5344 2.7000
v 0.0062 0.6010 3.1000
v -0.0278 0.5344 2.7000
v -0.0062 0.6010 3.1000
v -0.0728 0.5671 2.7000
v -0.0162 0.6082 3.1000
v -0.0900 0.6200 2.7000
v -0.0200 0.6200 3.1000
v -0.0728 0.6729 2.7000
v -0.0162 0.6318 3.1000
v -0.0278 0.7056 2.7000
v -0.0062 0.6390 3.1000
v 0.0278 0.7056 2.7000
v 0.0062 0.6390 3.1000
v 0.0728 0.6729 2.7000
v 0.0162 0.6318 3.1000
v 0.1294 0.5260 2.2000
v 0.0728 0.5671 2.7000
v 0.0494 0.4678 2.2000
v 0.0278 0.5344 2.7000
v -0.0494 0.4678 2.2000
v -0.0278 0.5344 2.7000
v -0.1294 0.5260 2.2000
v -0.0728 0.5671 2.7000
v -0.1600 0.6200 2.2000
v -0.0900 0.6200 2.7000
v -0.1294 0.7140 2.2000
v -0.0728 0.6729 2.7000
v -0.0494 0.7722 2.2000
v -0.0278 0.7056 2.7000
v 0.0494 0.7722 2.2000
v 0.0278 0.7056 2.7000
v 0.1294 0.7140 2.2000
v 0.0728 0.6729 2.7000
v 0.2000 0.6200 1.9000
v 0.1600 0.6200 2.2000
v 0.1618 0.5024 1.9000
v 0.1294 0.5260 2.2000
v 0.0618 0.4298 1.9000
v 0.0494 0.4678 2.2000
v -0.0618 0.4298 1.9000
v -0.0494 0.4678 2.2000
v -0.1618 0.5024 1.9000
v -0.1294 0.5260 2.2000
v -0.2000 0.6200 1.9000
v -0.1600 0.6200 2.2000
v -0.1618 0.7376 1.9000
v -0.1294 0.7140 2.2000
v -0.0618 0.8102 1.9000
v -0.0494 0.7722 2.2000
v 0.0618 0.8102 1.9000
v 0.0494 0.7722 2.2000
v 0.1618 0.7376 1.9000
v 0.1294 0.7140 2.2000
v 0.2000 0.6200 0.9000
v 0.2000 0.6200 1.9000
v 0.1618 0.5024 0.9000
v 0.1618 0.5024 1.9000
v 0.0618 0.4298 0.9000
v 0.0618 0.4298 1.9000
v -0.0618 0.4298 0.9000
v -0.0618 0.4298 1.9000
v -0.1618 0.5024 0.9000
v -0.1618 0.5024 1.9000
v -0.2000 0.6200 0.9000
v -0.2000 0.6200 1.9000
v -0.1618 0.7376 0.9000
v -0.1618 0.7376 1.9000
v -0.0618 0.8102 0.9000
v -0.0618 0.8102 1.9000
v 0.0618 0.8102 0.9000
v 0.0618 0.8102 1.9000
v 0.1618 0.7376 0.9000
v 0.1618 0.7376 1.9000
v 0.2000 0.6200 0.6000
v 0.2000 0.6200 0.9000
v 0.1618 0.5024 0.6000
v 0.1618 0.5024 0.9000
v 0.0618 0.4298 0.6000
v 0.0618 0.4298 0.9000
v -0.0618 0.4298 0.6000
v -0.0618 0.4298 0.9000
v -0.1618 0.5024 0.6000
v -0.1618 0.5024 0.9000
v -0.2000 0.6200 0.6000
v -0.2000 0.6200 0.9000
v -0.1618 0.7376 0.6000
v -0.1618 0.7376 0.9000
v -0.0618 0.8102 0.6000
v -0.0618 0.8102 0.9000
v 0.0618 0.8102 0.6000
v 0.0618 0.8102 0.9000
v 0.1618 0.7376 0.6000
v 0.1618 0.7376 0.9000
v 0.2000 0.6200 -2.3000
v 0.2000 0.6200 0.6000
v 0.1618 0.5024 -2.3000
v 0.1618 0.5024 0.6000
v 0.0618 0.4298 -2.3000
v 0.0618 0.4298 0.6000
v -0.0618 0.4298 -2.3000
v -0.0618 0.4298 0.6000
v -0.1618 0.5024 -2.3000
v -0.1618 0.5024 0.6000
v -0.2000 0.6200 -2.3000
v -0.2000 0.6200 0.6000
v -0.1618 0.7376 -2.3000
v -0.1618 0.7376 0.6000
v -0.0618 0.8102 -2.3000
v -0.0618 0.8102 0.6000
v 0.0618 0.8102 -2.3000
v 0.0618 0.8102 0.6000
v 0.1618 0.7376 -2.3000
v 0.1618 0.7376 0.6000
v -0.0650 0.8050 1.3200
v -0.0650 0.9050 1.3200
v 0.1850 0.6200 -2.7000
v 0.2000 0.6200 -2.3000
v 0.1497 0.5113 -2.7000
v 0.1618 0.5024 -2.3000
v 0.0572 0.4441 -2.7000
v 0.0618 0.4298 -2.3000
v -0.0572 0.4441 -2.7000
v -0.0618 0.4298 -2.3000
v -0.1497 0.5113 -2.7000
v -0.1618 0.5024 -2.3000
v -0.1850 0.6200 -2.7000
v -0.2000 0.6200 -2.3000
v -0.1497 0.7287 -2.7000
v -0.1618 0.7376 -2.3000
v -0.0572 0.7959 -2.7000
v -0.0618 0.8102 -2.3000
v 0.0572 0.7959 -2.7000
v 0.0618 0.8102 -2.3000
v 0.1497 0.7287 -2.7000
v 0.1618 0.7376 -2.3000
v 0.1800 0.6200 -3.1000
v 0.1000 0.6200 -2.7000
v 0.1456 0.5142 -3.1000
v 0.0809 0.5612 -2.7000
v 0.0556 0.4488 -3.1000
v 0.0309 0.5249 -2.7000
v -0.0556 0.4488 -3.1000
v -0.0309 0.5249 -2.7000
v -0.1456 0.5142 -3.1000
v -0.0809 0.5612 -2.7000
v -0.1800 0.6200 -3.1000
v -0.1000 0.6200 -2.7000
v -0.1456 0.7258 -3.1000
v -0.0809 0.6788 -2.7000
v -0.0556 0.7912 -3.1000
v -0.0309 0.7151 -2.7000
v 0.0556 0.7912 -3.1000
v 0.0309 0.7151 -2.7000
v 0.1456 0.7258 -3.1000
v 0.0809 0.6788 -2.7000
v 0.1476 0.6200 -3.0700
v 0.0700 0.6200 -2.7700
v 0.1194 0.5332 -3.0700
v 0.0566 0.5789 -2.7700
v 0.0456 0.4796 -3.0700
v 0.0216 0.5534 -2.7700
v -0.0456 0.4796 -3.0700
v -0.0216 0.5534 -2.7700
v -0.1194 0.5332 -3.0700
v -0.0566 0.5789 -2.7700
v -0.1476 0.6200 -3.0700
v -0.0700 0.6200 -2.7700
v -0.1194 0.7068 -3.0700
v -0.0566 0.6611 -2.7700
v -0.0456 0.7604 -3.0700
v -0.0216 0.6866 -2.7700
v 0.0456 0.7604 -3.0700
v 0.0216 0.6866 -2.7700
v 0.1194 0.7068 -3.0700
v 0.0566 0.6611 -2.7700
v 0.2250 0.6200 1.2400
v 0.2250 0.6200 1.6000
v 0.1820 0.4877 1.2400
v 0.1820 0.4877 1.6000
v 0.0695 0.4060 1.2400
v 0.0695 0.4060 1.6000
v -0.0695 0.4060 1.2400
v -0.0695 0.4060 1.6000
v -0.1820 0.4877 1.2400
v -0.1820 0.4877 1.6000
v -0.2250 0.6200 1.2400
v -0.2250 0.6200 1.6000
v -0.1820 0.7523 1.2400
v -0.1820 0.7523 1.6000
v -0.0695 0.8340 1.2400
v -0.0695 0.8340 1.6000
v 0.0695 0.8340 1.2400
v 0.0695 0.8340 1.6000
v 0.1820 0.7523 1.2400
v 0.1820 0.7523 1.6000
v 0.0650 0.8050 1.3200
v 0.0650 0.9050 1.3200
v -0.0650 0.8050 1.5200
v -0.0650 0.9050 1.5200
v 0.0650 0.8050 1.5200
v 0.0650 0.9050 1.5200
v -0.1850 0.5550 1.3200
v -0.2850 0.5550 1.3200
v -0.1850 0.6850 1.3200
v -0.2850 0.6850 1.3200
v -0.1850 0.5550 1.5200
v -0.2850 0.5550 1.5200
v -0.1850 0.6850 1.5200
v -0.2850 0.6850 1.5200
v 0.0650 0.4350 1.3200
v 0.0650 0.3350 1.3200
v -0.0650 0.4350 1.3200
v -0.0650 0.3350 1.3200
v 0.0650 0.4350 1.5200
v 0.0650 0.3350 1.5200
v -0.0650 0.4350 1.5200
v -0.0650 0.3350 1.5200
v 0.1850 0.6850 1.3200
v 0.2850 0.6850 1.3200
v 0.1850 0.5550 1.3200
v 0.2850 0.5550 1.3200
v 0.1850 0.6850 1.5200
v 0.2850 0.6850 1.5200
v 0.1850 0.5550 1.5200
v 0.2850 0.5550 1.5200
v -0.1520 0.7367 1.5000
v -0.1520 0.7367 -1.3000
v -0.2369 0.8215 -1.3000
v -0.2227 0.8074 1.1000
v -0.1167 0.7720 1.5000
v -0.1167 0.7720 -1.3000
v -0.2015 0.8569 -1.3000
v -0.1874 0.8427 1.1000
v -0.1167 0.4680 1.5000
v -0.1167 0.4680 -1.3000
v -0.2015 0.3831 -1.3000
v -0.1874 0.3973 1.1000
v -0.1520 0.5033 1.5000
v -0.1520 0.5033 -1.3000
v -0.2369 0.4185 -1.3000
v -0.2227 0.4326 1.1000
v 0.1520 0.5033 1.5000
v 0.1520 0.5033 -1.3000
v 0.2369 0.4185 -1.3000
v 0.2227 0.4326 1.1000
v 0.1167 0.4680 1.5000
v 0.1167 0.4680 -1.3000
v 0.2015 0.3831 -1.3000
v 0.1874 0.3973 1.1000
v 0.1167 0.7720 1.5000
v 0.1167 0.7720 -1.3000
v 0.2015 0.8569 -1.3000
v 0.1874 0.8427 1.1000
v 0.1520 0.7367 1.5000
v 0.1520 0.7367 -1.3000
v 0.2369 0.8215 -1.3000
v 0.2227 0.8074 1.1000
v -0.0350 0.8100 -1.6000
v -0.0350 0.8100 -2.7500
v -0.0350 1.2400 -2.7500
v -0.0350 1.2400 -2.1500
v 0.0350 0.8100 -1.6000
v 0.0350 0.8100 -2.7500
v 0.0350 1.2400 -2.7500
v 0.0350 1.2400 -2.1500
v -0.1900 0.5850 -1.6000
v -0.1900 0.5850 -2.7500
v -0.6200 0.5850 -2.7500
v -0.6200 0.5850 -2.1500
v -0.1900 0.6550 -1.6000
v -0.1900 0.6550 -2.7500
v -0.6200 0.6550 -2.7500
v -0.6200 0.6550 -2.1500
v 0.0350 0.4300 -1.6000
v 0.0350 0.4300 -2.7500
v 0.0350 0.0000 -2.7500
v 0.0350 0.0000 -2.1500
v -0.0350 0.4300 -1.6000
v -0.0350 0.4300 -2.7500
v -0.0350 0.0000 -2.7500
v -0.0350 0.0000 -2.1500
v 0.1900 0.6550 -1.6000
v 0.1900 0.6550 -2.7500
v 0.6200 0.6550 -2.7500
v 0.6200 0.6550 -2.1500
v 0.1900 0.5850 -1.6000
v 0.1900 0.5850 -2.7500
v 0.6200 0.5850 -2.7500
v 0.6200 0.5850 -2.1500
usemtl Mat0
f 37 40 39
f 3 6 5
f 36 37 35
f 6 7 5
f 34 35 33
f 8 9 7
f 32 33 31
f 9 12 11
f 29 32 31
f 12 13 11
f 27 30 29
f 13 16 15
f 26 27 25
f 16 17 15
f 24 25 23
f 18 19 17
f 20 12 8
f 1 23 2
f 19 22 21
f 39 1 2
f 22 3 21
f 9 17 21
f 154 155 153
f 148 149 147
f 123 126 125
f 125 128 127
f 128 129 127
f 151 154 153
f 145 148 147
f 130 131 129
f 132 133 131
f 190 191 189
f 134 135 133
f 150 151 149
f 144 145 143
f 135 138 137
f 138 139 137
f 140 132 128
f 140 141 139
f 142 123 141
f 129 137 141
f 155 158 157
f 185 188 187
f 188 189 187
f 157 160 159
f 144 160 156
f 194 195 193
f 160 161 159
f 192 193 191
f 161 144 143
f 161 149 153
f 184 185 183
f 196 197 195
f 198 199 197
f 188 200 196
f 199 202 201
f 202 183 201
f 199 187 191
f 268 266 265
f 272 270 271
f 266 269 265
f 267 270 266
f 268 271 267
f 265 272 268
f 276 274 273
f 280 278 279
f 274 277 273
f 275 278 274
f 276 279 275
f 273 280 276
f 284 282 281
f 288 286 287
f 282 285 281
f 283 286 282
f 284 287 283
f 281 288 284
f 292 290 289
f 296 294 295
f 290 293 289
f 291 294 290
f 292 295 291
f 289 296 292
f 8 6 4
f 4 22 20
f 20 18 16
f 16 14 20
f 14 12 20
f 12 10 8
f 8 4 20
f 21 3 5
f 5 7 9
f 9 11 13
f 13 15 17
f 17 19 21
f 21 5 9
f 9 13 17
f 128 126 124
f 124 142 140
f 140 138 136
f 136 134 132
f 132 130 128
f 128 124 140
f 140 136 132
f 141 123 125
f 125 127 129
f 129 131 133
f 133 135 129
f 135 137 129
f 137 139 141
f 141 125 129
f 152 150 148
f 148 146 144
f 144 162 160
f 160 158 156
f 156 154 144
f 154 152 144
f 152 148 144
f 153 155 157
f 157 159 161
f 161 143 145
f 145 147 149
f 149 151 153
f 153 157 161
f 161 145 149
f 196 194 192
f 192 190 188
f 188 186 184
f 184 202 200
f 200 198 196
f 196 192 188
f 188 184 200
f 191 193 195
f 195 197 199
f 199 201 183
f 183 185 187
f 187 189 191
f 191 195 199
f 199 183 187
f 37 38 40
f 3 4 6
f 36 38 37
f 6 8 7
f 34 36 35
f 8 10 9
f 32 34 33
f 9 10 12
f 29 30 32
f 12 14 13
f 27 28 30
f 13 14 16
f 26 28 27
f 16 18 17
f 24 26 25
f 18 20 19
f 1 24 23
f 19 20 22
f 39 40 1
f 22 4 3
f 154 156 155
f 148 150 149
f 123 124 126
f 125 126 128
f 128 130 129
f 151 152 154
f 145 146 148
f 130 132 131
f 132 134 133
f 190 192 191
f 134 136 135
f 150 152 151
f 144 146 145
f 135 136 138
f 138 140 139
f 140 142 141
f 142 124 123
f 155 156 158
f 185 186 188
f 188 190 189
f 157 158 160
f 194 196 195
f 160 162 161
f 192 194 193
f 161 162 144
f 184 186 185
f 196 198 197
f 198 200 199
f 199 200 202
f 202 184 183
f 268 267 266
f 272 269 270
f 266 270 269
f 267 271 270
f 268 272 271
f 265 269 272
f 276 275 274
f 280 277 278
f 274 278 277
f 275 279 278
f 276 280 279
f 273 277 280
f 284 283 282
f 288 285 286
f 282 286 285
f 283 287 286
f 284 288 287
f 281 285 288
f 292 291 290
f 296 293 294
f 290 294 293
f 291 295 294
f 292 296 295
f 289 293 296
usemtl Mat1
f 56 57 55
f 57 60 59
f 52 53 51
f 50 51 49
f 47 50 49
f 45 48 47
f 44 45 43
f 42 43 41
f 54 55 53
f 60 41 59
f 62 63 61
f 64 65 63
f 66 67 65
f 67 70 69
f 70 71 69
f 72 73 71
f 74 75 73
f 76 77 75
f 78 79 77
f 80 61 79
f 102 103 101
f 104 105 103
f 106 107 105
f 108 109 107
f 110 111 109
f 112 113 111
f 114 115 113
f 116 117 115
f 118 119 117
f 120 101 119
f 236 234 233
f 240 238 239
f 234 237 233
f 235 238 234
f 236 239 235
f 233 240 236
f 244 242 241
f 248 246 247
f 242 245 241
f 243 246 242
f 244 247 243
f 244 245 248
f 252 250 249
f 256 254 255
f 250 253 249
f 251 254 250
f 252 255 251
f 249 256 252
f 260 258 257
f 264 262 263
f 258 261 257
f 258 263 262
f 260 263 259
f 257 264 260
f 56 58 57
f 57 58 60
f 52 54 53
f 50 52 51
f 47 48 50
f 45 46 48
f 44 46 45
f 42 44 43
f 54 56 55
f 60 42 41
f 62 64 63
f 64 66 65
f 66 68 67
f 67 68 70
f 70 72 71
f 72 74 73
f 74 76 75
f 76 78 77
f 78 80 79
f 80 62 61
f 102 104 103
f 104 106 105
f 106 108 107
f 108 110 109
f 110 112 111
f 112 114 113
f 114 116 115
f 116 118 117
f 118 120 119
f 120 102 101
f 236 235 234
f 240 237 238
f 234 238 237
f 235 239 238
f 236 240 239
f 233 237 240
f 244 243 242
f 248 245 246
f 242 246 245
f 243 247 246
f 244 248 247
f 244 241 245
f 252 251 250
f 256 253 254
f 250 254 253
f 251 255 254
f 252 256 255
f 249 253 256
f 260 259 258
f 264 261 262
f 258 262 261
f 258 259 263
f 260 264 263
f 257 261 264
usemtl Mat2
f 82 83 81
f 83 86 85
f 86 87 85
f 88 89 87
f 90 91 89
f 92 93 91
f 94 95 93
f 96 97 95
f 97 100 99
f 100 81 99
f 82 84 83
f 83 84 86
f 86 88 87
f 88 90 89
f 90 92 91
f 92 94 93
f 94 96 95
f 96 98 97
f 97 98 100
f 100 82 81
usemtl Mat3
f 169 172 171
f 217 220 219
f 207 121 203
f 220 223 219
f 210 211 209
f 222 217 221
f 212 215 211
f 166 167 165
f 168 169 167
f 174 175 173
f 212 214 216
f 171 174 173
f 164 165 163
f 226 227 225
f 176 177 175
f 204 206 208
f 216 213 215
f 178 179 177
f 182 174 170
f 220 222 224
f 179 182 181
f 206 121 205
f 224 221 223
f 181 164 163
f 173 181 165
f 208 205 207
f 215 209 211
f 204 207 203
f 122 203 121
f 223 217 219
f 214 209 213
f 228 231 227
f 232 229 231
f 230 225 229
f 231 225 227
f 228 230 232
f 170 168 166
f 166 164 182
f 182 180 178
f 178 176 182
f 176 174 182
f 174 172 170
f 170 166 182
f 165 167 169
f 169 171 165
f 171 173 165
f 173 175 177
f 177 179 181
f 181 163 165
f 173 177 181
f 169 170 172
f 217 218 220
f 207 205 121
f 220 224 223
f 210 212 211
f 222 218 217
f 212 216 215
f 166 168 167
f 168 170 169
f 174 176 175
f 212 210 214
f 171 172 174
f 164 166 165
f 226 228 227
f 176 178 177
f 204 122 206
f 216 214 213
f 178 180 179
f 220 218 222
f 179 180 182
f 206 122 121
f 224 222 221
f 181 182 164
f 208 206 205
f 215 213 209
f 204 208 207
f 122 204 203
f 223 221 217
f 214 210 209
f 228 232 231
f 232 230 229
f 230 226 225
f 231 229 225
f 228 226 230
