# source: models.blend / Military_Assets / 18_Ballistic_Missile
# generated by tools/export_builtin_obj.py (Task69) - do not hand-edit
mtllib Prop_BallisticMissile.mtl
v 0.2000 1.2799 6.9000
v 0.4200 1.2799 5.9000
v 0.2000 1.2799 6.9000
v 0.0300 1.2799 7.5000
v 0.1732 1.1799 6.9000
v 0.0260 1.2649 7.5000
v 0.1000 1.1067 6.9000
v 0.0150 1.2539 7.5000
v 0.0000 1.0799 6.9000
v 0.0000 1.2499 7.5000
v -0.1000 1.1067 6.9000
v -0.0150 1.2539 7.5000
v -0.1732 1.1799 6.9000
v -0.0260 1.2649 7.5000
v -0.2000 1.2799 6.9000
v -0.0300 1.2799 7.5000
v -0.1732 1.3799 6.9000
v -0.0260 1.2949 7.5000
v -0.1000 1.4531 6.9000
v -0.0150 1.3058 7.5000
v 0.0000 1.4799 6.9000
v 0.0000 1.3099 7.5000
v 0.1000 1.4531 6.9000
v 0.0150 1.3058 7.5000
v 0.1732 1.3799 6.9000
v 0.0260 1.2949 7.5000
v 0.3637 1.0699 5.9000
v 0.1732 1.1799 6.9000
v 0.2100 0.9161 5.9000
v 0.1000 1.1067 6.9000
v 0.0000 0.8599 5.9000
v 0.0000 1.0799 6.9000
v -0.2100 0.9161 5.9000
v -0.1000 1.1067 6.9000
v -0.3637 1.0699 5.9000
v -0.1732 1.1799 6.9000
v -0.4200 1.2799 5.9000
v -0.2000 1.2799 6.9000
v -0.3637 1.4899 5.9000
v -0.1732 1.3799 6.9000
v -0.2100 1.6436 5.9000
v -0.1000 1.4531 6.9000
v 0.0000 1.6999 5.9000
v 0.0000 1.4799 6.9000
v 0.2100 1.6436 5.9000
v 0.1000 1.4531 6.9000
v 0.3637 1.4899 5.9000
v 0.1732 1.3799 6.9000
v 0.7000 1.2799 4.3000
v 0.4200 1.2799 5.9000
v 0.6062 0.9299 4.3000
v 0.3637 1.0699 5.9000
v 0.3500 0.6736 4.3000
v 0.2100 0.9161 5.9000
v 0.0000 0.5799 4.3000
v 0.0000 0.8599 5.9000
v -0.3500 0.6736 4.3000
v -0.2100 0.9161 5.9000
v -0.6062 0.9299 4.3000
v -0.3637 1.0699 5.9000
v -0.7000 1.2799 4.3000
v -0.4200 1.2799 5.9000
v -0.6062 1.6299 4.3000
v -0.3637 1.4899 5.9000
v -0.3500 1.8861 4.3000
v -0.2100 1.6436 5.9000
v 0.0000 1.9799 4.3000
v 0.0000 1.6999 5.9000
v 0.3500 1.8861 4.3000
v 0.2100 1.6436 5.9000
v 0.6062 1.6299 4.3000
v 0.3637 1.4899 5.9000
v 0.7500 1.2799 4.0000
v 0.7000 1.2799 4.3000
v 0.6495 0.9049 4.0000
v 0.6062 0.9299 4.3000
v 0.3750 0.6303 4.0000
v 0.3500 0.6736 4.3000
v 0.0000 0.5299 4.0000
v 0.0000 0.5799 4.3000
v -0.3750 0.6303 4.0000
v -0.3500 0.6736 4.3000
v -0.6495 0.9049 4.0000
v -0.6062 0.9299 4.3000
v -0.7500 1.2799 4.0000
v -0.7000 1.2799 4.3000
v -0.6495 1.6549 4.0000
v -0.6062 1.6299 4.3000
v -0.3750 1.9294 4.0000
v -0.3500 1.8861 4.3000
v 0.0000 2.0299 4.0000
v 0.0000 1.9799 4.3000
v 0.3750 1.9294 4.0000
v 0.3500 1.8861 4.3000
v 0.6495 1.6549 4.0000
v 0.6062 1.6299 4.3000
v 0.7500 1.2799 3.2000
v 0.7500 1.2799 4.0000
v 0.6495 0.9049 3.2000
v 0.6495 0.9049 4.0000
v 0.3750 0.6303 3.2000
v 0.3750 0.6303 4.0000
v 0.0000 0.5299 3.2000
v 0.0000 0.5299 4.0000
v -0.3750 0.6303 3.2000
v -0.3750 0.6303 4.0000
v -0.6495 0.9049 3.2000
v -0.6495 0.9049 4.0000
v -0.7500 1.2799 3.2000
v -0.7500 1.2799 4.0000
v -0.6495 1.6549 3.2000
v -0.6495 1.6549 4.0000
v -0.3750 1.9294 3.2000
v -0.3750 1.9294 4.0000
v 0.0000 2.0299 3.2000
v 0.0000 2.0299 4.0000
v 0.3750 1.9294 3.2000
v 0.3750 1.9294 4.0000
v 0.6495 1.6549 3.2000
v 0.6495 1.6549 4.0000
v 0.7500 1.2799 2.6000
v 0.7500 1.2799 3.2000
v 0.6495 0.9049 2.6000
v 0.6495 0.9049 3.2000
v 0.3750 0.6303 2.6000
v 0.3750 0.6303 3.2000
v 0.0000 0.5299 2.6000
v 0.0000 0.5299 3.2000
v -0.3750 0.6303 2.6000
v -0.3750 0.6303 3.2000
v -0.6495 0.9049 2.6000
v -0.6495 0.9049 3.2000
v -0.7500 1.2799 2.6000
v -0.7500 1.2799 3.2000
v -0.6495 1.6549 2.6000
v -0.6495 1.6549 3.2000
v -0.3750 1.9294 2.6000
v -0.3750 1.9294 3.2000
v 0.0000 2.0299 2.6000
v 0.0000 2.0299 3.2000
v 0.3750 1.9294 2.6000
v 0.3750 1.9294 3.2000
v 0.6495 1.6549 2.6000
v 0.6495 1.6549 3.2000
v 0.7500 1.2799 -4.6000
v 0.7500 1.2799 2.6000
v 0.6495 0.9049 -4.6000
v 0.6495 0.9049 2.6000
v 0.3750 0.6303 -4.6000
v 0.3750 0.6303 2.6000
v 0.0000 0.5299 -4.6000
v 0.0000 0.5299 2.6000
v -0.3750 0.6303 -4.6000
v -0.3750 0.6303 2.6000
v -0.6495 0.9049 -4.6000
v -0.6495 0.9049 2.6000
v -0.7500 1.2799 -4.6000
v -0.7500 1.2799 2.6000
v -0.6495 1.6549 -4.6000
v -0.6495 1.6549 2.6000
v -0.3750 1.9294 -4.6000
v -0.3750 1.9294 2.6000
v 0.0000 2.0299 -4.6000
v 0.0000 2.0299 2.6000
v 0.3750 1.9294 -4.6000
v 0.3750 1.9294 2.6000
v 0.6495 1.6549 -4.6000
v 0.6495 1.6549 2.6000
v 0.7500 1.2799 -5.2000
v 0.7500 1.2799 -4.6000
v 0.6495 0.9049 -5.2000
v 0.6495 0.9049 -4.6000
v 0.3750 0.6303 -5.2000
v 0.3750 0.6303 -4.6000
v 0.0000 0.5299 -5.2000
v 0.0000 0.5299 -4.6000
v -0.3750 0.6303 -5.2000
v -0.3750 0.6303 -4.6000
v -0.6495 0.9049 -5.2000
v -0.6495 0.9049 -4.6000
v -0.7500 1.2799 -5.2000
v -0.7500 1.2799 -4.6000
v -0.6495 1.6549 -5.2000
v -0.6495 1.6549 -4.6000
v -0.3750 1.9294 -5.2000
v -0.3750 1.9294 -4.6000
v 0.0000 2.0299 -5.2000
v 0.0000 2.0299 -4.6000
v 0.3750 1.9294 -5.2000
v 0.3750 1.9294 -4.6000
v 0.6495 1.6549 -5.2000
v 0.6495 1.6549 -4.6000
v -0.5515 1.7466 -4.2000
v -0.5515 1.7466 -7.1000
v 0.6800 1.2799 -6.4000
v 0.7500 1.2799 -5.2000
v 0.5889 0.9399 -6.4000
v 0.6495 0.9049 -5.2000
v 0.3400 0.6910 -6.4000
v 0.3750 0.6303 -5.2000
v 0.0000 0.5999 -6.4000
v 0.0000 0.5299 -5.2000
v -0.3400 0.6910 -6.4000
v -0.3750 0.6303 -5.2000
v -0.5889 0.9399 -6.4000
v -0.6495 0.9049 -5.2000
v -0.6800 1.2799 -6.4000
v -0.7500 1.2799 -5.2000
v -0.5889 1.6199 -6.4000
v -0.6495 1.6549 -5.2000
v -0.3400 1.8688 -6.4000
v -0.3750 1.9294 -5.2000
v 0.0000 1.9599 -6.4000
v 0.0000 2.0299 -5.2000
v 0.3400 1.8688 -6.4000
v 0.3750 1.9294 -5.2000
v 0.5889 1.6199 -6.4000
v 0.6495 1.6549 -5.2000
v 0.6000 1.2799 -7.3000
v 0.3000 1.2799 -6.4000
v 0.5196 0.9799 -7.3000
v 0.2598 1.1299 -6.4000
v 0.3000 0.7602 -7.3000
v 0.1500 1.0201 -6.4000
v 0.0000 0.6799 -7.3000
v 0.0000 0.9799 -6.4000
v -0.3000 0.7602 -7.3000
v -0.1500 1.0201 -6.4000
v -0.5196 0.9799 -7.3000
v -0.2598 1.1299 -6.4000
v -0.6000 1.2799 -7.3000
v -0.3000 1.2799 -6.4000
v -0.5196 1.5799 -7.3000
v -0.2598 1.4299 -6.4000
v -0.3000 1.7995 -7.3000
v -0.1500 1.5397 -6.4000
v 0.0000 1.8799 -7.3000
v 0.0000 1.5799 -6.4000
v 0.3000 1.7995 -7.3000
v 0.1500 1.5397 -6.4000
v 0.5196 1.5799 -7.3000
v 0.2598 1.4299 -6.4000
v 0.4920 1.2799 -7.2075
v 0.2100 1.2799 -6.5325
v 0.4261 1.0339 -7.2075
v 0.1819 1.1749 -6.5325
v 0.2460 0.8538 -7.2075
v 0.1050 1.0980 -6.5325
v 0.0000 0.7879 -7.2075
v 0.0000 1.0699 -6.5325
v -0.2460 0.8538 -7.2075
v -0.1050 1.0980 -6.5325
v -0.4261 1.0339 -7.2075
v -0.1819 1.1749 -6.5325
v -0.4920 1.2799 -7.2075
v -0.2100 1.2799 -6.5325
v -0.4261 1.5259 -7.2075
v -0.1819 1.3849 -6.5325
v -0.2460 1.7059 -7.2075
v -0.1050 1.4617 -6.5325
v 0.0000 1.7719 -7.2075
v 0.0000 1.4899 -6.5325
v 0.2460 1.7059 -7.2075
v 0.1050 1.4617 -6.5325
v 0.4261 1.5259 -7.2075
v 0.1819 1.3849 -6.5325
v -1.2799 2.4749 -7.1000
v -1.2799 2.4749 -6.0000
v -0.4667 1.8314 -4.2000
v -0.4667 1.8314 -7.1000
v -1.1950 2.5597 -7.1000
v -1.1950 2.5597 -6.0000
v -0.4667 0.7283 -4.2000
v -0.4667 0.7283 -7.1000
v -1.1950 0.0000 -7.1000
v -1.1950 0.0000 -6.0000
v -0.5515 0.8132 -4.2000
v -0.5515 0.8132 -7.1000
v -1.2799 0.0849 -7.1000
v -1.2799 0.0849 -6.0000
v 0.5515 0.8132 -4.2000
v 0.5515 0.8132 -7.1000
v 1.2799 0.0849 -7.1000
v 1.2799 0.0849 -6.0000
v 0.4667 0.7283 -4.2000
v 0.4667 0.7283 -7.1000
v 1.1950 0.0000 -7.1000
v 1.1950 0.0000 -6.0000
v 0.4667 1.8314 -4.2000
v 0.4667 1.8314 -7.1000
v 1.1950 2.5597 -7.1000
v 1.1950 2.5597 -6.0000
v 0.5515 1.7466 -4.2000
v 0.5515 1.7466 -7.1000
v 1.2799 2.4749 -7.1000
v 1.2799 2.4749 -6.0000
v -0.1500 1.9099 -5.4000
v -0.1500 2.2099 -5.4000
v 0.1500 1.9099 -5.4000
v 0.1500 2.2099 -5.4000
v -0.1500 1.9099 4.0000
v -0.1500 2.2099 4.0000
v 0.1500 1.9099 4.0000
v 0.1500 2.2099 4.0000
v -0.2000 1.8199 3.6000
v -0.2000 2.2199 3.6000
v 0.2000 1.8199 3.6000
v 0.2000 2.2199 3.6000
v -0.2000 1.8199 4.2000
v -0.2000 2.2199 4.2000
v 0.2000 1.8199 4.2000
v 0.2000 2.2199 4.2000
v -0.5657 1.6051 -6.1500
v -0.7212 1.7607 -6.1500
v -0.3253 1.8455 -6.1500
v -0.4808 2.0011 -6.1500
v -0.5657 1.6051 -5.0500
v -0.7212 1.7607 -5.0500
v -0.3253 1.8455 -5.0500
v -0.4808 2.0011 -5.0500
v -0.3253 0.7142 -6.1500
v -0.4808 0.5586 -6.1500
v -0.5657 0.9546 -6.1500
v -0.7212 0.7990 -6.1500
v -0.3253 0.7142 -5.0500
v -0.4808 0.5586 -5.0500
v -0.5657 0.9546 -5.0500
v -0.7212 0.7990 -5.0500
v 0.5657 0.9546 -6.1500
v 0.7212 0.7990 -6.1500
v 0.3253 0.7142 -6.1500
v 0.4808 0.5586 -6.1500
v 0.5657 0.9546 -5.0500
v 0.7212 0.7990 -5.0500
v 0.3253 0.7142 -5.0500
v 0.4808 0.5586 -5.0500
v 0.3253 1.8455 -6.1500
v 0.4808 2.0011 -6.1500
v 0.5657 1.6051 -6.1500
v 0.7212 1.7607 -6.1500
v 0.3253 1.8455 -5.0500
v 0.4808 2.0011 -5.0500
v 0.5657 1.6051 -5.0500
v 0.7212 1.7607 -5.0500
usemtl Mat0
f 45 48 47
f 4 5 3
f 43 46 45
f 5 8 7
f 42 43 41
f 7 10 9
f 40 41 39
f 10 11 9
f 38 39 37
f 12 13 11
f 35 38 37
f 13 16 15
f 34 35 33
f 16 17 15
f 32 33 31
f 17 20 19
f 30 31 29
f 19 22 21
f 27 30 29
f 22 23 21
f 16 12 8
f 1 27 2
f 24 25 23
f 47 1 2
f 25 4 3
f 9 17 25
f 74 75 73
f 76 77 75
f 78 79 77
f 79 82 81
f 81 84 83
f 83 86 85
f 86 87 85
f 88 89 87
f 90 91 89
f 91 94 93
f 93 96 95
f 95 74 73
f 170 171 169
f 172 173 171
f 174 175 173
f 176 177 175
f 178 179 177
f 180 181 179
f 182 183 181
f 184 185 183
f 186 187 185
f 188 189 187
f 190 191 189
f 192 169 191
f 296 294 295
f 195 198 197
f 276 277 280
f 268 271 267
f 198 199 197
f 290 293 289
f 224 225 223
f 200 201 199
f 193 272 268
f 201 204 203
f 230 231 229
f 283 286 282
f 204 205 203
f 222 223 221
f 206 207 205
f 284 287 283
f 280 278 279
f 208 209 207
f 228 229 227
f 282 285 281
f 209 212 211
f 274 277 273
f 219 222 221
f 212 213 211
f 292 290 289
f 213 216 215
f 208 204 200
f 194 271 270
f 216 217 215
f 231 234 233
f 226 227 225
f 218 195 217
f 205 209 217
f 234 235 233
f 281 288 284
f 235 238 237
f 276 274 273
f 291 294 290
f 238 239 237
f 234 230 222
f 276 279 275
f 239 242 241
f 242 219 241
f 235 239 223
f 194 269 193
f 288 286 287
f 272 270 271
f 284 282 281
f 268 194 193
f 275 278 274
f 292 295 291
f 292 293 296
f 306 307 305
f 308 311 307
f 312 309 311
f 310 305 309
f 311 305 307
f 308 310 312
f 313 316 315
f 316 319 315
f 320 317 319
f 318 313 317
f 319 313 315
f 316 318 320
f 322 323 321
f 324 327 323
f 328 325 327
f 326 321 325
f 327 321 323
f 324 326 328
f 330 331 329
f 332 335 331
f 336 333 335
f 334 329 333
f 335 329 331
f 332 334 336
f 338 339 337
f 340 343 339
f 344 341 343
f 342 337 341
f 343 337 339
f 340 342 344
f 8 6 4
f 4 26 24
f 24 22 20
f 20 18 16
f 16 14 12
f 12 10 8
f 8 4 16
f 4 24 16
f 24 20 16
f 25 3 5
f 5 7 9
f 9 11 13
f 13 15 17
f 17 19 21
f 21 23 17
f 23 25 17
f 25 5 9
f 9 13 17
f 200 198 196
f 196 218 216
f 216 214 212
f 212 210 208
f 208 206 204
f 204 202 200
f 200 196 208
f 196 216 208
f 216 212 208
f 217 195 197
f 197 199 217
f 199 201 217
f 201 203 205
f 205 207 209
f 209 211 217
f 211 213 217
f 213 215 217
f 201 205 217
f 230 228 222
f 228 226 222
f 226 224 222
f 222 220 242
f 242 240 222
f 240 238 222
f 238 236 234
f 234 232 230
f 238 234 222
f 231 233 235
f 235 237 239
f 239 241 219
f 219 221 239
f 221 223 239
f 223 225 227
f 227 229 223
f 229 231 223
f 231 235 223
f 45 46 48
f 4 6 5
f 43 44 46
f 5 6 8
f 42 44 43
f 7 8 10
f 40 42 41
f 10 12 11
f 38 40 39
f 12 14 13
f 35 36 38
f 13 14 16
f 34 36 35
f 16 18 17
f 32 34 33
f 17 18 20
f 30 32 31
f 19 20 22
f 27 28 30
f 22 24 23
f 1 28 27
f 24 26 25
f 47 48 1
f 25 26 4
f 74 76 75
f 76 78 77
f 78 80 79
f 79 80 82
f 81 82 84
f 83 84 86
f 86 88 87
f 88 90 89
f 90 92 91
f 91 92 94
f 93 94 96
f 95 96 74
f 170 172 171
f 172 174 173
f 174 176 175
f 176 178 177
f 178 180 179
f 180 182 181
f 182 184 183
f 184 186 185
f 186 188 187
f 188 190 189
f 190 192 191
f 192 170 169
f 296 293 294
f 195 196 198
f 276 273 277
f 268 272 271
f 198 200 199
f 290 294 293
f 224 226 225
f 200 202 201
f 193 269 272
f 201 202 204
f 230 232 231
f 283 287 286
f 204 206 205
f 222 224 223
f 206 208 207
f 284 288 287
f 280 277 278
f 208 210 209
f 228 230 229
f 282 286 285
f 209 210 212
f 274 278 277
f 219 220 222
f 212 214 213
f 292 291 290
f 213 214 216
f 194 267 271
f 216 218 217
f 231 232 234
f 226 228 227
f 218 196 195
f 234 236 235
f 281 285 288
f 235 236 238
f 276 275 274
f 291 295 294
f 238 240 239
f 276 280 279
f 239 240 242
f 242 220 219
f 194 270 269
f 288 285 286
f 272 269 270
f 284 283 282
f 268 267 194
f 275 279 278
f 292 296 295
f 292 289 293
f 306 308 307
f 308 312 311
f 312 310 309
f 310 306 305
f 311 309 305
f 308 306 310
f 313 314 316
f 316 320 319
f 320 318 317
f 318 314 313
f 319 317 313
f 316 314 318
f 322 324 323
f 324 328 327
f 328 326 325
f 326 322 321
f 327 325 321
f 324 322 326
f 330 332 331
f 332 336 335
f 336 334 333
f 334 330 329
f 335 333 329
f 332 330 334
f 338 340 339
f 340 344 343
f 344 342 341
f 342 338 337
f 343 341 337
f 340 338 342
usemtl Mat1
f 67 70 69
f 69 72 71
f 64 65 63
f 62 63 61
f 59 62 61
f 58 59 57
f 56 57 55
f 53 56 55
f 52 53 51
f 50 51 49
f 66 67 65
f 72 49 71
f 122 123 121
f 124 125 123
f 126 127 125
f 128 129 127
f 130 131 129
f 132 133 131
f 134 135 133
f 136 137 135
f 138 139 137
f 140 141 139
f 142 143 141
f 144 121 143
f 67 68 70
f 69 70 72
f 64 66 65
f 62 64 63
f 59 60 62
f 58 60 59
f 56 58 57
f 53 54 56
f 52 54 53
f 50 52 51
f 66 68 67
f 72 50 49
f 122 124 123
f 124 126 125
f 126 128 127
f 128 130 129
f 130 132 131
f 132 134 133
f 134 136 135
f 136 138 137
f 138 140 139
f 140 142 141
f 142 144 143
f 144 122 121
usemtl Mat2
f 98 99 97
f 100 101 99
f 102 103 101
f 104 105 103
f 106 107 105
f 108 109 107
f 110 111 109
f 112 113 111
f 114 115 113
f 116 117 115
f 118 119 117
f 120 97 119
f 145 148 147
f 148 149 147
f 150 151 149
f 152 153 151
f 154 155 153
f 155 158 157
f 158 159 157
f 160 161 159
f 162 163 161
f 164 165 163
f 166 167 165
f 168 145 167
f 298 299 297
f 300 303 299
f 304 301 303
f 302 297 301
f 303 297 299
f 300 302 304
f 98 100 99
f 100 102 101
f 102 104 103
f 104 106 105
f 106 108 107
f 108 110 109
f 110 112 111
f 112 114 113
f 114 116 115
f 116 118 117
f 118 120 119
f 120 98 97
f 145 146 148
f 148 150 149
f 150 152 151
f 152 154 153
f 154 156 155
f 155 156 158
f 158 160 159
f 160 162 161
f 162 164 163
f 164 166 165
f 166 168 167
f 168 146 145
f 298 300 299
f 300 304 303
f 304 302 301
f 302 298 297
f 303 301 297
f 300 298 302
usemtl Mat3
f 251 254 253
f 248 249 247
f 246 247 245
f 254 255 253
f 244 245 243
f 256 257 255
f 249 252 251
f 258 259 257
f 259 262 261
f 261 264 263
f 259 263 243
f 263 266 265
f 265 244 243
f 244 260 252
f 243 245 247
f 247 249 251
f 251 253 255
f 255 257 259
f 259 261 263
f 263 265 243
f 243 247 259
f 247 251 259
f 251 255 259
f 252 250 248
f 248 246 244
f 244 266 264
f 264 262 260
f 260 258 256
f 256 254 252
f 252 248 244
f 244 264 260
f 260 256 252
f 251 252 254
f 248 250 249
f 246 248 247
f 254 256 255
f 244 246 245
f 256 258 257
f 249 250 252
f 258 260 259
f 259 260 262
f 261 262 264
f 263 264 266
f 265 266 244
