# source: models.blend / Military_Assets / 30_Train_Van
# generated by tools/export_builtin_obj.py (Task69) - do not hand-edit
mtllib Unit_MilitaryTrainVan.mtl
v -1.5500 0.9100 -8.5000
v -1.5500 1.2500 -8.5000
v 1.5500 0.9100 -8.5000
v 1.5500 1.2500 -8.5000
v -1.5500 0.9100 8.5000
v -1.5500 1.2500 8.5000
v 1.5500 0.9100 8.5000
v 1.5500 1.2500 8.5000
v -1.5500 0.6950 -8.6800
v -1.5500 1.2450 -8.6800
v 1.5500 0.6950 -8.6800
v 1.5500 1.2450 -8.6800
v -1.5500 0.6950 -8.3200
v -1.5500 1.2450 -8.3200
v 1.5500 0.6950 -8.3200
v 1.5500 1.2450 -8.3200
v -0.8190 0.8300 -7.5000
v -0.8190 1.2500 -7.5000
v 0.2200 0.9200 -9.0750
v 0.2200 0.9200 -8.5250
v 0.1556 0.7644 -9.0750
v 0.1556 0.7644 -8.5250
v 0.0000 0.7000 -9.0750
v 0.0000 0.7000 -8.5250
v -0.1556 0.7644 -9.0750
v -0.1556 0.7644 -8.5250
v -0.2200 0.9200 -9.0750
v -0.2200 0.9200 -8.5250
v -0.1556 1.0756 -9.0750
v -0.1556 1.0756 -8.5250
v 0.0000 1.1400 -9.0750
v 0.0000 1.1400 -8.5250
v 0.1556 1.0756 -9.0750
v 0.1556 1.0756 -8.5250
v 1.1200 1.0400 -6.2500
v 0.9800 1.0400 -6.2500
v 1.1200 0.9407 -5.9444
v 0.9800 0.9407 -5.9444
v 1.1200 0.6807 -5.7555
v 0.9800 0.6807 -5.7555
v 1.1200 0.3593 -5.7555
v 0.9800 0.3593 -5.7555
v 1.1200 0.0993 -5.9444
v 0.9800 0.0993 -5.9444
v 1.1200 0.0000 -6.2500
v 0.9800 0.0000 -6.2500
v 1.1200 0.0993 -6.5556
v 0.9800 0.0993 -6.5556
v 1.1200 0.3593 -6.7445
v 0.9800 0.3593 -6.7445
v 1.1200 0.6807 -6.7445
v 0.9800 0.6807 -6.7445
v 1.1200 0.9407 -6.5556
v 0.9800 0.9407 -6.5556
v -0.9800 1.0400 -6.2500
v -1.1200 1.0400 -6.2500
v -0.9800 0.9407 -5.9444
v -1.1200 0.9407 -5.9444
v -0.9800 0.6807 -5.7555
v -1.1200 0.6807 -5.7555
v -0.9800 0.3593 -5.7555
v -1.1200 0.3593 -5.7555
v -0.9800 0.0993 -5.9444
v -1.1200 0.0993 -5.9444
v -0.9800 0.0000 -6.2500
v -1.1200 0.0000 -6.2500
v -0.9800 0.0993 -6.5556
v -1.1200 0.0993 -6.5556
v -0.9800 0.3593 -6.7445
v -1.1200 0.3593 -6.7445
v -0.9800 0.6807 -6.7445
v -1.1200 0.6807 -6.7445
v -0.9800 0.9407 -6.5556
v -1.1200 0.9407 -6.5556
v 0.5250 0.6300 -6.2500
v -0.5250 0.6300 -6.2500
v 0.5250 0.5750 -6.1547
v -0.5250 0.5750 -6.1547
v 0.5250 0.4650 -6.1547
v -0.5250 0.4650 -6.1547
v 0.5250 0.4100 -6.2500
v -0.5250 0.4100 -6.2500
v 0.5250 0.4650 -6.3453
v -0.5250 0.4650 -6.3453
v 0.5250 0.5750 -6.3453
v -0.5250 0.5750 -6.3453
v 1.1200 1.0400 -4.3500
v 0.9800 1.0400 -4.3500
v 1.1200 0.9407 -4.0444
v 0.9800 0.9407 -4.0444
v 1.1200 0.6807 -3.8555
v 0.9800 0.6807 -3.8555
v 1.1200 0.3593 -3.8555
v 0.9800 0.3593 -3.8555
v 1.1200 0.0993 -4.0444
v 0.9800 0.0993 -4.0444
v 1.1200 0.0000 -4.3500
v 0.9800 0.0000 -4.3500
v 1.1200 0.0993 -4.6556
v 0.9800 0.0993 -4.6556
v 1.1200 0.3593 -4.8445
v 0.9800 0.3593 -4.8445
v 1.1200 0.6807 -4.8445
v 0.9800 0.6807 -4.8445
v 1.1200 0.9407 -4.6556
v 0.9800 0.9407 -4.6556
v -0.9800 1.0400 -4.3500
v -1.1200 1.0400 -4.3500
v -0.9800 0.9407 -4.0444
v -1.1200 0.9407 -4.0444
v -0.9800 0.6807 -3.8555
v -1.1200 0.6807 -3.8555
v -0.9800 0.3593 -3.8555
v -1.1200 0.3593 -3.8555
v -0.9800 0.0993 -4.0444
v -1.1200 0.0993 -4.0444
v -0.9800 0.0000 -4.3500
v -1.1200 0.0000 -4.3500
v -0.9800 0.0993 -4.6556
v -1.1200 0.0993 -4.6556
v -0.9800 0.3593 -4.8445
v -1.1200 0.3593 -4.8445
v -0.9800 0.6807 -4.8445
v -1.1200 0.6807 -4.8445
v -0.9800 0.9407 -4.6556
v -1.1200 0.9407 -4.6556
v 0.5250 0.6300 -4.3500
v -0.5250 0.6300 -4.3500
v 0.5250 0.5750 -4.2547
v -0.5250 0.5750 -4.2547
v 0.5250 0.4650 -4.2547
v -0.5250 0.4650 -4.2547
v 0.5250 0.4100 -4.3500
v -0.5250 0.4100 -4.3500
v 0.5250 0.4650 -4.4453
v -0.5250 0.4650 -4.4453
v 0.5250 0.5750 -4.4453
v -0.5250 0.5750 -4.4453
v 0.8190 0.8300 -7.5000
v 0.8190 1.2500 -7.5000
v -0.8190 0.8300 -3.1000
v -0.8190 1.2500 -3.1000
v 0.8190 0.8300 -3.1000
v 0.8190 1.2500 -3.1000
v 0.8020 0.5450 -7.6500
v 0.8020 1.0950 -7.6500
v 0.9620 0.5450 -7.6500
v 0.9620 1.0950 -7.6500
v 0.8020 0.5450 -2.9500
v 0.8020 1.0950 -2.9500
v 0.9620 0.5450 -2.9500
v 0.9620 1.0950 -2.9500
v -0.9620 0.5450 -7.6500
v -0.9620 1.0950 -7.6500
v -0.8020 0.5450 -7.6500
v -0.8020 1.0950 -7.6500
v -0.9620 0.5450 -2.9500
v -0.9620 1.0950 -2.9500
v -0.8020 0.5450 -2.9500
v -0.8020 1.0950 -2.9500
v -1.5500 0.6950 8.3200
v -1.5500 1.2450 8.3200
v 1.5500 0.6950 8.3200
v 1.5500 1.2450 8.3200
v -1.5500 0.6950 8.6800
v -1.5500 1.2450 8.6800
v 1.5500 0.6950 8.6800
v 1.5500 1.2450 8.6800
v -0.8190 0.8300 3.1000
v -0.8190 1.2500 3.1000
v 0.2200 0.9200 8.5250
v 0.2200 0.9200 9.0750
v 0.1556 0.7644 8.5250
v 0.1556 0.7644 9.0750
v 0.0000 0.7000 8.5250
v 0.0000 0.7000 9.0750
v -0.1556 0.7644 8.5250
v -0.1556 0.7644 9.0750
v -0.2200 0.9200 8.5250
v -0.2200 0.9200 9.0750
v -0.1556 1.0756 8.5250
v -0.1556 1.0756 9.0750
v 0.0000 1.1400 8.5250
v 0.0000 1.1400 9.0750
v 0.1556 1.0756 8.5250
v 0.1556 1.0756 9.0750
v 1.1200 1.0400 4.3500
v 0.9800 1.0400 4.3500
v 1.1200 0.9407 4.6556
v 0.9800 0.9407 4.6556
v 1.1200 0.6807 4.8445
v 0.9800 0.6807 4.8445
v 1.1200 0.3593 4.8445
v 0.9800 0.3593 4.8445
v 1.1200 0.0993 4.6556
v 0.9800 0.0993 4.6556
v 1.1200 0.0000 4.3500
v 0.9800 0.0000 4.3500
v 1.1200 0.0993 4.0444
v 0.9800 0.0993 4.0444
v 1.1200 0.3593 3.8555
v 0.9800 0.3593 3.8555
v 1.1200 0.6807 3.8555
v 0.9800 0.6807 3.8555
v 1.1200 0.9407 4.0444
v 0.9800 0.9407 4.0444
v -0.9800 1.0400 4.3500
v -1.1200 1.0400 4.3500
v -0.9800 0.9407 4.6556
v -1.1200 0.9407 4.6556
v -0.9800 0.6807 4.8445
v -1.1200 0.6807 4.8445
v -0.9800 0.3593 4.8445
v -1.1200 0.3593 4.8445
v -0.9800 0.0993 4.6556
v -1.1200 0.0993 4.6556
v -0.9800 0.0000 4.3500
v -1.1200 0.0000 4.3500
v -0.9800 0.0993 4.0444
v -1.1200 0.0993 4.0444
v -0.9800 0.3593 3.8555
v -1.1200 0.3593 3.8555
v -0.9800 0.6807 3.8555
v -1.1200 0.6807 3.8555
v -0.9800 0.9407 4.0444
v -1.1200 0.9407 4.0444
v 0.5250 0.6300 4.3500
v -0.5250 0.6300 4.3500
v 0.5250 0.5750 4.4453
v -0.5250 0.5750 4.4453
v 0.5250 0.4650 4.4453
v -0.5250 0.4650 4.4453
v 0.5250 0.4100 4.3500
v -0.5250 0.4100 4.3500
v 0.5250 0.4650 4.2547
v -0.5250 0.4650 4.2547
v 0.5250 0.5750 4.2547
v -0.5250 0.5750 4.2547
v 1.1200 1.0400 6.2500
v 0.9800 1.0400 6.2500
v 1.1200 0.9407 6.5556
v 0.9800 0.9407 6.5556
v 1.1200 0.6807 6.7445
v 0.9800 0.6807 6.7445
v 1.1200 0.3593 6.7445
v 0.9800 0.3593 6.7445
v 1.1200 0.0993 6.5556
v 0.9800 0.0993 6.5556
v 1.1200 0.0000 6.2500
v 0.9800 0.0000 6.2500
v 1.1200 0.0993 5.9444
v 0.9800 0.0993 5.9444
v 1.1200 0.3593 5.7555
v 0.9800 0.3593 5.7555
v 1.1200 0.6807 5.7555
v 0.9800 0.6807 5.7555
v 1.1200 0.9407 5.9444
v 0.9800 0.9407 5.9444
v -0.9800 1.0400 6.2500
v -1.1200 1.0400 6.2500
v -0.9800 0.9407 6.5556
v -1.1200 0.9407 6.5556
v -0.9800 0.6807 6.7445
v -1.1200 0.6807 6.7445
v -0.9800 0.3593 6.7445
v -1.1200 0.3593 6.7445
v -0.9800 0.0993 6.5556
v -1.1200 0.0993 6.5556
v -0.9800 0.0000 6.2500
v -1.1200 0.0000 6.2500
v -0.9800 0.0993 5.9444
v -1.1200 0.0993 5.9444
v -0.9800 0.3593 5.7555
v -1.1200 0.3593 5.7555
v -0.9800 0.6807 5.7555
v -1.1200 0.6807 5.7555
v -0.9800 0.9407 5.9444
v -1.1200 0.9407 5.9444
v 0.5250 0.6300 6.2500
v -0.5250 0.6300 6.2500
v 0.5250 0.5750 6.3453
v -0.5250 0.5750 6.3453
v 0.5250 0.4650 6.3453
v -0.5250 0.4650 6.3453
v 0.5250 0.4100 6.2500
v -0.5250 0.4100 6.2500
v 0.5250 0.4650 6.1547
v -0.5250 0.4650 6.1547
v 0.5250 0.5750 6.1547
v -0.5250 0.5750 6.1547
v 0.8190 0.8300 3.1000
v 0.8190 1.2500 3.1000
v -0.8190 0.8300 7.5000
v -0.8190 1.2500 7.5000
v 0.8190 0.8300 7.5000
v 0.8190 1.2500 7.5000
v 0.8020 0.5450 2.9500
v 0.8020 1.0950 2.9500
v 0.9620 0.5450 2.9500
v 0.9620 1.0950 2.9500
v 0.8020 0.5450 7.6500
v 0.8020 1.0950 7.6500
v 0.9620 0.5450 7.6500
v 0.9620 1.0950 7.6500
v -0.9620 0.5450 2.9500
v -0.9620 1.0950 2.9500
v -0.8020 0.5450 2.9500
v -0.8020 1.0950 2.9500
v -0.9620 0.5450 7.6500
v -0.9620 1.0950 7.6500
v -0.8020 0.5450 7.6500
v -0.8020 1.0950 7.6500
v -1.5000 1.3350 -8.2000
v -1.5000 4.3850 -8.2000
v 1.5000 1.3350 -8.2000
v 1.5000 4.3850 -8.2000
v -1.5000 1.3350 8.2000
v -1.5000 4.3850 8.2000
v 1.5000 1.3350 8.2000
v 1.5000 4.3850 8.2000
v -1.5300 4.3800 -8.3000
v -1.5300 4.3800 8.3000
v 1.5300 4.3800 8.3000
v 1.5300 4.3800 -8.3000
v -0.5202 4.7200 -8.3000
v -0.5202 4.7200 8.3000
v 0.5202 4.7200 8.3000
v 0.5202 4.7200 -8.3000
v 1.4500 1.4550 -1.7000
v 1.4500 3.8050 -1.7000
v 1.5900 1.4550 -1.7000
v 1.5900 3.8050 -1.7000
v 1.4500 1.4550 1.7000
v 1.4500 3.8050 1.7000
v 1.5900 1.4550 1.7000
v 1.5900 3.8050 1.7000
v 1.5000 3.8200 -1.8000
v 1.5000 3.9600 -1.8000
v 1.6000 3.8200 -1.8000
v 1.6000 3.9600 -1.8000
v 1.5000 3.8200 1.8000
v 1.5000 3.9600 1.8000
v 1.6000 3.8200 1.8000
v 1.6000 3.9600 1.8000
v 1.4700 1.4300 1.6200
v 1.4700 3.8300 1.6200
v 1.6300 1.4300 1.6200
v 1.6300 3.8300 1.6200
v 1.4700 1.4300 1.7800
v 1.4700 3.8300 1.7800
v 1.6300 1.4300 1.7800
v 1.6300 3.8300 1.7800
v 1.4700 1.4300 -1.7800
v 1.4700 3.8300 -1.7800
v 1.6300 1.4300 -1.7800
v 1.6300 3.8300 -1.7800
v 1.4700 1.4300 -1.6200
v 1.4700 3.8300 -1.6200
v 1.6300 1.4300 -1.6200
v 1.6300 3.8300 -1.6200
v 1.4800 1.4300 -7.2500
v 1.4800 4.0300 -7.2500
v 1.5800 1.4300 -7.2500
v 1.5800 4.0300 -7.2500
v 1.4800 1.4300 -6.7500
v 1.4800 4.0300 -6.7500
v 1.5800 1.4300 -6.7500
v 1.5800 4.0300 -6.7500
v 1.4800 1.4300 6.7500
v 1.4800 4.0300 6.7500
v 1.5800 1.4300 6.7500
v 1.5800 4.0300 6.7500
v 1.4800 1.4300 7.2500
v 1.4800 4.0300 7.2500
v 1.5800 1.4300 7.2500
v 1.5800 4.0300 7.2500
v -1.5900 1.4550 -1.7000
v -1.5900 3.8050 -1.7000
v -1.4500 1.4550 -1.7000
v -1.4500 3.8050 -1.7000
v -1.5900 1.4550 1.7000
v -1.5900 3.8050 1.7000
v -1.4500 1.4550 1.7000
v -1.4500 3.8050 1.7000
v -1.6000 3.8200 -1.8000
v -1.6000 3.9600 -1.8000
v -1.5000 3.8200 -1.8000
v -1.5000 3.9600 -1.8000
v -1.6000 3.8200 1.8000
v -1.6000 3.9600 1.8000
v -1.5000 3.8200 1.8000
v -1.5000 3.9600 1.8000
v -1.6300 1.4300 1.6200
v -1.6300 3.8300 1.6200
v -1.4700 1.4300 1.6200
v -1.4700 3.8300 1.6200
v -1.6300 1.4300 1.7800
v -1.6300 3.8300 1.7800
v -1.4700 1.4300 1.7800
v -1.4700 3.8300 1.7800
v -1.6300 1.4300 -1.7800
v -1.6300 3.8300 -1.7800
v -1.4700 1.4300 -1.7800
v -1.4700 3.8300 -1.7800
v -1.6300 1.4300 -1.6200
v -1.6300 3.8300 -1.6200
v -1.4700 1.4300 -1.6200
v -1.4700 3.8300 -1.6200
v -1.5800 1.4300 -7.2500
v -1.5800 4.0300 -7.2500
v -1.4800 1.4300 -7.2500
v -1.4800 4.0300 -7.2500
v -1.5800 1.4300 -6.7500
v -1.5800 4.0300 -6.7500
v -1.4800 1.4300 -6.7500
v -1.4800 4.0300 -6.7500
v -1.5800 1.4300 6.7500
v -1.5800 4.0300 6.7500
v -1.4800 1.4300 6.7500
v -1.4800 4.0300 6.7500
v -1.5800 1.4300 7.2500
v -1.5800 4.0300 7.2500
v -1.4800 1.4300 7.2500
v -1.4800 4.0300 7.2500
usemtl Mat0
f 2 3 1
f 4 7 3
f 8 5 7
f 6 1 5
f 7 1 3
f 4 6 8
f 10 11 9
f 12 15 11
f 16 13 15
f 14 9 13
f 15 9 11
f 12 14 16
f 162 163 161
f 164 167 163
f 168 165 167
f 166 161 165
f 167 161 163
f 164 166 168
f 314 315 313
f 316 319 315
f 320 317 319
f 318 313 317
f 319 313 315
f 316 318 320
f 2 4 3
f 4 8 7
f 8 6 5
f 6 2 1
f 7 5 1
f 4 2 6
f 10 12 11
f 12 16 15
f 16 14 13
f 14 10 9
f 15 13 9
f 12 10 14
f 162 164 163
f 164 168 167
f 168 166 165
f 166 162 161
f 167 165 161
f 164 162 166
f 314 316 315
f 316 320 319
f 320 318 317
f 318 314 313
f 319 317 313
f 316 314 318
usemtl Mat1
f 75 77 81
f 88 89 87
f 20 21 19
f 44 45 43
f 38 39 37
f 22 23 21
f 42 43 41
f 118 119 117
f 23 26 25
f 64 65 63
f 78 79 77
f 26 27 25
f 58 59 57
f 35 38 37
f 28 29 27
f 39 42 41
f 66 67 65
f 29 32 31
f 28 26 24
f 59 62 61
f 32 33 31
f 110 111 109
f 90 91 89
f 34 19 33
f 33 21 25
f 111 114 113
f 91 94 93
f 46 47 45
f 56 57 55
f 62 63 61
f 48 49 47
f 86 75 85
f 84 85 83
f 50 51 49
f 80 81 79
f 41 45 53
f 52 53 51
f 134 135 133
f 76 77 75
f 54 35 53
f 40 36 52
f 82 83 81
f 68 69 67
f 116 117 115
f 138 136 134
f 70 71 69
f 148 151 147
f 61 65 73
f 72 73 71
f 152 149 151
f 80 78 76
f 74 55 73
f 60 56 72
f 94 95 93
f 142 17 141
f 144 141 143
f 96 97 95
f 18 139 17
f 129 131 133
f 98 99 97
f 114 115 113
f 108 109 107
f 100 101 99
f 130 131 129
f 132 133 131
f 102 103 101
f 94 90 102
f 137 128 127
f 104 105 103
f 151 145 147
f 136 137 135
f 106 87 105
f 93 97 101
f 128 129 127
f 120 121 119
f 140 143 139
f 143 17 139
f 122 123 121
f 112 108 120
f 150 145 149
f 124 125 123
f 140 142 144
f 146 147 145
f 126 107 125
f 121 125 113
f 148 150 152
f 154 155 153
f 156 159 155
f 160 157 159
f 158 153 157
f 159 153 155
f 156 158 160
f 227 229 233
f 240 241 239
f 172 173 171
f 196 197 195
f 190 191 189
f 174 175 173
f 194 195 193
f 270 271 269
f 176 177 175
f 216 217 215
f 230 231 229
f 178 179 177
f 210 211 209
f 188 189 187
f 180 181 179
f 191 194 193
f 218 219 217
f 181 184 183
f 180 178 176
f 211 214 213
f 184 185 183
f 262 263 261
f 242 243 241
f 186 171 185
f 185 173 177
f 263 266 265
f 243 246 245
f 198 199 197
f 208 209 207
f 214 215 213
f 200 201 199
f 237 228 227
f 236 237 235
f 202 203 201
f 232 233 231
f 193 197 205
f 204 205 203
f 286 287 285
f 228 229 227
f 206 187 205
f 192 188 204
f 234 235 233
f 220 221 219
f 268 269 267
f 290 288 286
f 222 223 221
f 300 303 299
f 213 217 225
f 224 225 223
f 304 301 303
f 232 230 228
f 226 207 225
f 212 208 224
f 246 247 245
f 294 169 293
f 296 293 295
f 248 249 247
f 170 291 169
f 281 283 285
f 250 251 249
f 266 267 265
f 260 261 259
f 252 253 251
f 282 283 281
f 284 285 283
f 254 255 253
f 246 242 254
f 290 279 289
f 256 257 255
f 303 297 299
f 288 289 287
f 258 239 257
f 245 249 253
f 280 281 279
f 272 273 271
f 292 295 291
f 295 169 291
f 274 275 273
f 264 260 272
f 302 297 301
f 276 277 275
f 292 294 296
f 298 299 297
f 278 259 277
f 277 265 269
f 300 302 304
f 306 307 305
f 308 311 307
f 312 309 311
f 310 305 309
f 311 305 307
f 308 310 312
f 330 331 329
f 332 335 331
f 336 333 335
f 334 329 333
f 335 329 331
f 332 334 336
f 378 379 377
f 380 383 379
f 384 381 383
f 382 377 381
f 383 377 379
f 380 382 384
f 77 79 81
f 81 83 85
f 85 75 81
f 24 22 20
f 20 34 24
f 34 32 24
f 32 30 24
f 30 28 24
f 33 19 21
f 21 23 25
f 25 27 29
f 29 31 25
f 31 33 25
f 37 39 41
f 41 43 45
f 45 47 49
f 49 51 45
f 51 53 45
f 53 35 37
f 37 41 53
f 48 46 44
f 44 42 40
f 40 38 36
f 36 54 52
f 52 50 48
f 48 44 52
f 44 40 52
f 134 132 130
f 130 128 134
f 128 138 134
f 57 59 61
f 61 63 65
f 65 67 69
f 69 71 65
f 71 73 65
f 73 55 57
f 57 61 73
f 76 86 84
f 84 82 76
f 82 80 76
f 68 66 64
f 64 62 68
f 62 60 68
f 60 58 56
f 56 74 72
f 72 70 60
f 70 68 60
f 133 135 137
f 137 127 133
f 127 129 133
f 98 96 94
f 94 92 90
f 90 88 106
f 106 104 90
f 104 102 90
f 102 100 98
f 98 94 102
f 105 87 89
f 89 91 105
f 91 93 105
f 93 95 97
f 97 99 101
f 101 103 93
f 103 105 93
f 116 114 112
f 112 110 108
f 108 126 124
f 124 122 108
f 122 120 108
f 120 118 116
f 116 112 120
f 117 119 121
f 121 123 125
f 125 107 109
f 109 111 125
f 111 113 125
f 113 115 117
f 117 121 113
f 229 231 233
f 233 235 237
f 237 227 233
f 176 174 172
f 172 186 176
f 186 184 176
f 184 182 176
f 182 180 176
f 185 171 173
f 173 175 177
f 177 179 181
f 181 183 177
f 183 185 177
f 189 191 193
f 193 195 197
f 197 199 201
f 201 203 197
f 203 205 197
f 205 187 189
f 189 193 205
f 200 198 196
f 196 194 192
f 192 190 188
f 188 206 204
f 204 202 200
f 200 196 204
f 196 192 204
f 286 284 282
f 282 280 286
f 280 290 286
f 209 211 213
f 213 215 217
f 217 219 221
f 221 223 217
f 223 225 217
f 225 207 209
f 209 213 225
f 228 238 236
f 236 234 228
f 234 232 228
f 220 218 216
f 216 214 220
f 214 212 220
f 212 210 208
f 208 226 224
f 224 222 212
f 222 220 212
f 285 287 289
f 289 279 285
f 279 281 285
f 250 248 246
f 246 244 242
f 242 240 258
f 258 256 242
f 256 254 242
f 254 252 250
f 250 246 254
f 257 239 241
f 241 243 257
f 243 245 257
f 245 247 249
f 249 251 253
f 253 255 245
f 255 257 245
f 268 266 264
f 264 262 260
f 260 278 276
f 276 274 260
f 274 272 260
f 272 270 268
f 268 264 272
f 269 271 273
f 273 275 269
f 275 277 269
f 277 259 265
f 259 261 265
f 261 263 265
f 265 267 269
f 88 90 89
f 20 22 21
f 44 46 45
f 38 40 39
f 22 24 23
f 42 44 43
f 118 120 119
f 23 24 26
f 64 66 65
f 78 80 79
f 26 28 27
f 58 60 59
f 35 36 38
f 28 30 29
f 39 40 42
f 66 68 67
f 29 30 32
f 59 60 62
f 32 34 33
f 110 112 111
f 90 92 91
f 34 20 19
f 111 112 114
f 91 92 94
f 46 48 47
f 56 58 57
f 62 64 63
f 48 50 49
f 86 76 75
f 84 86 85
f 50 52 51
f 80 82 81
f 52 54 53
f 134 136 135
f 76 78 77
f 54 36 35
f 82 84 83
f 68 70 69
f 116 118 117
f 70 72 71
f 148 152 151
f 72 74 73
f 152 150 149
f 74 56 55
f 94 96 95
f 142 18 17
f 144 142 141
f 96 98 97
f 18 140 139
f 98 100 99
f 114 116 115
f 108 110 109
f 100 102 101
f 130 132 131
f 132 134 133
f 102 104 103
f 137 138 128
f 104 106 105
f 151 149 145
f 136 138 137
f 106 88 87
f 128 130 129
f 120 122 121
f 140 144 143
f 143 141 17
f 122 124 123
f 150 146 145
f 124 126 125
f 140 18 142
f 146 148 147
f 126 108 107
f 148 146 150
f 154 156 155
f 156 160 159
f 160 158 157
f 158 154 153
f 159 157 153
f 156 154 158
f 240 242 241
f 172 174 173
f 196 198 197
f 190 192 191
f 174 176 175
f 194 196 195
f 270 272 271
f 176 178 177
f 216 218 217
f 230 232 231
f 178 180 179
f 210 212 211
f 188 190 189
f 180 182 181
f 191 192 194
f 218 220 219
f 181 182 184
f 211 212 214
f 184 186 185
f 262 264 263
f 242 244 243
f 186 172 171
f 263 264 266
f 243 244 246
f 198 200 199
f 208 210 209
f 214 216 215
f 200 202 201
f 237 238 228
f 236 238 237
f 202 204 203
f 232 234 233
f 204 206 205
f 286 288 287
f 228 230 229
f 206 188 187
f 234 236 235
f 220 222 221
f 268 270 269
f 222 224 223
f 300 304 303
f 224 226 225
f 304 302 301
f 226 208 207
f 246 248 247
f 294 170 169
f 296 294 293
f 248 250 249
f 170 292 291
f 250 252 251
f 266 268 267
f 260 262 261
f 252 254 253
f 282 284 283
f 284 286 285
f 254 256 255
f 290 280 279
f 256 258 257
f 303 301 297
f 288 290 289
f 258 240 239
f 280 282 281
f 272 274 273
f 292 296 295
f 295 293 169
f 274 276 275
f 302 298 297
f 276 278 277
f 292 170 294
f 298 300 299
f 278 260 259
f 300 298 302
f 306 308 307
f 308 312 311
f 312 310 309
f 310 306 305
f 311 309 305
f 308 306 310
f 330 332 331
f 332 336 335
f 336 334 333
f 334 330 329
f 335 333 329
f 332 330 334
f 378 380 379
f 380 384 383
f 384 382 381
f 382 378 377
f 383 381 377
f 380 378 382
usemtl Mat2
f 324 322 321
f 325 327 328
f 322 325 321
f 323 326 322
f 324 327 323
f 321 328 324
f 324 323 322
f 325 326 327
f 322 326 325
f 323 327 326
f 324 328 327
f 321 325 328
usemtl Mat3
f 338 339 337
f 340 343 339
f 344 341 343
f 342 337 341
f 343 337 339
f 340 342 344
f 346 347 345
f 348 351 347
f 352 349 351
f 350 345 349
f 351 345 347
f 348 350 352
f 354 355 353
f 356 359 355
f 360 357 359
f 358 353 357
f 359 353 355
f 356 358 360
f 362 363 361
f 364 367 363
f 368 365 367
f 366 361 365
f 367 361 363
f 364 366 368
f 370 371 369
f 372 375 371
f 376 373 375
f 374 369 373
f 375 369 371
f 372 374 376
f 386 387 385
f 388 391 387
f 392 389 391
f 390 385 389
f 391 385 387
f 388 390 392
f 394 395 393
f 396 399 395
f 400 397 399
f 398 393 397
f 399 393 395
f 396 398 400
f 402 403 401
f 404 407 403
f 408 405 407
f 406 401 405
f 407 401 403
f 404 406 408
f 410 411 409
f 412 415 411
f 416 413 415
f 414 409 413
f 415 409 411
f 412 414 416
f 418 419 417
f 420 423 419
f 424 421 423
f 422 417 421
f 423 417 419
f 420 422 424
f 338 340 339
f 340 344 343
f 344 342 341
f 342 338 337
f 343 341 337
f 340 338 342
f 346 348 347
f 348 352 351
f 352 350 349
f 350 346 345
f 351 349 345
f 348 346 350
f 354 356 355
f 356 360 359
f 360 358 357
f 358 354 353
f 359 357 353
f 356 354 358
f 362 364 363
f 364 368 367
f 368 366 365
f 366 362 361
f 367 365 361
f 364 362 366
f 370 372 371
f 372 376 375
f 376 374 373
f 374 370 369
f 375 373 369
f 372 370 374
f 386 388 387
f 388 392 391
f 392 390 389
f 390 386 385
f 391 389 385
f 388 386 390
f 394 396 395
f 396 400 399
f 400 398 397
f 398 394 393
f 399 397 393
f 396 394 398
f 402 404 403
f 404 408 407
f 408 406 405
f 406 402 401
f 407 405 401
f 404 402 406
f 410 412 411
f 412 416 415
f 416 414 413
f 414 410 409
f 415 413 409
f 412 410 414
f 418 420 419
f 420 424 423
f 424 422 421
f 422 418 417
f 423 421 417
f 420 418 422
