# source: models.blend / Military_Assets / 10_SPG
# generated by tools/export_builtin_obj.py (Task69) - do not hand-edit
mtllib Unit_Artillery.mtl
v 1.2400 0.0000 -3.7000
v 1.2400 0.0000 3.7000
v 1.2400 0.4200 4.1000
v 1.2400 1.0000 4.1000
v 1.2400 1.4200 3.7000
v 1.2400 1.4200 -3.7000
v 1.2400 1.0000 -4.1000
v 1.2400 0.4200 -4.1000
v 1.8000 0.0000 -3.7000
v 1.8000 0.0000 3.7000
v 1.8000 0.4200 4.1000
v 1.8000 1.0000 4.1000
v 1.8000 1.4200 3.7000
v 1.8000 1.4200 -3.7000
v 1.8000 1.0000 -4.1000
v 1.8000 0.4200 -4.1000
v 1.8050 1.1800 -3.6000
v 1.8050 1.9800 -3.6000
v 1.8800 0.9900 -2.8500
v 1.7800 0.9900 -2.8500
v 1.8800 0.9193 -2.6325
v 1.7800 0.9193 -2.6325
v 1.8800 0.7343 -2.4981
v 1.7800 0.7343 -2.4981
v 1.8800 0.5057 -2.4981
v 1.7800 0.5057 -2.4981
v 1.8800 0.3207 -2.6325
v 1.7800 0.3207 -2.6325
v 1.8800 0.2500 -2.8500
v 1.7800 0.2500 -2.8500
v 1.8800 0.3207 -3.0675
v 1.7800 0.3207 -3.0675
v 1.8800 0.5057 -3.2019
v 1.7800 0.5057 -3.2019
v 1.8800 0.7343 -3.2019
v 1.7800 0.7343 -3.2019
v 1.8800 0.9193 -3.0675
v 1.7800 0.9193 -3.0675
v 1.8800 0.9900 -1.9000
v 1.7800 0.9900 -1.9000
v 1.8800 0.9193 -1.6825
v 1.7800 0.9193 -1.6825
v 1.8800 0.7343 -1.5481
v 1.7800 0.7343 -1.5481
v 1.8800 0.5057 -1.5481
v 1.7800 0.5057 -1.5481
v 1.8800 0.3207 -1.6825
v 1.7800 0.3207 -1.6825
v 1.8800 0.2500 -1.9000
v 1.7800 0.2500 -1.9000
v 1.8800 0.3207 -2.1175
v 1.7800 0.3207 -2.1175
v 1.8800 0.5057 -2.2519
v 1.7800 0.5057 -2.2519
v 1.8800 0.7343 -2.2519
v 1.7800 0.7343 -2.2519
v 1.8800 0.9193 -2.1175
v 1.7800 0.9193 -2.1175
v 1.8800 0.9900 -0.9500
v 1.7800 0.9900 -0.9500
v 1.8800 0.9193 -0.7325
v 1.7800 0.9193 -0.7325
v 1.8800 0.7343 -0.5981
v 1.7800 0.7343 -0.5981
v 1.8800 0.5057 -0.5981
v 1.7800 0.5057 -0.5981
v 1.8800 0.3207 -0.7325
v 1.7800 0.3207 -0.7325
v 1.8800 0.2500 -0.9500
v 1.7800 0.2500 -0.9500
v 1.8800 0.3207 -1.1675
v 1.7800 0.3207 -1.1675
v 1.8800 0.5057 -1.3019
v 1.7800 0.5057 -1.3019
v 1.8800 0.7343 -1.3019
v 1.7800 0.7343 -1.3019
v 1.8800 0.9193 -1.1675
v 1.7800 0.9193 -1.1675
v 1.8800 0.9900 -0.0000
v 1.7800 0.9900 -0.0000
v 1.8800 0.9193 0.2175
v 1.7800 0.9193 0.2175
v 1.8800 0.7343 0.3519
v 1.7800 0.7343 0.3519
v 1.8800 0.5057 0.3519
v 1.7800 0.5057 0.3519
v 1.8800 0.3207 0.2175
v 1.7800 0.3207 0.2175
v 1.8800 0.2500 -0.0000
v 1.7800 0.2500 -0.0000
v 1.8800 0.3207 -0.2175
v 1.7800 0.3207 -0.2175
v 1.8800 0.5057 -0.3519
v 1.7800 0.5057 -0.3519
v 1.8800 0.7343 -0.3519
v 1.7800 0.7343 -0.3519
v 1.8800 0.9193 -0.2175
v 1.7800 0.9193 -0.2175
v 1.8800 0.9900 0.9500
v 1.7800 0.9900 0.9500
v 1.8800 0.9193 1.1675
v 1.7800 0.9193 1.1675
v 1.8800 0.7343 1.3019
v 1.7800 0.7343 1.3019
v 1.8800 0.5057 1.3019
v 1.7800 0.5057 1.3019
v 1.8800 0.3207 1.1675
v 1.7800 0.3207 1.1675
v 1.8800 0.2500 0.9500
v 1.7800 0.2500 0.9500
v 1.8800 0.3207 0.7325
v 1.7800 0.3207 0.7325
v 1.8800 0.5057 0.5981
v 1.7800 0.5057 0.5981
v 1.8800 0.7343 0.5981
v 1.7800 0.7343 0.5981
v 1.8800 0.9193 0.7325
v 1.7800 0.9193 0.7325
v 1.8800 0.9900 1.9000
v 1.7800 0.9900 1.9000
v 1.8800 0.9193 2.1175
v 1.7800 0.9193 2.1175
v 1.8800 0.7343 2.2519
v 1.7800 0.7343 2.2519
v 1.8800 0.5057 2.2519
v 1.7800 0.5057 2.2519
v 1.8800 0.3207 2.1175
v 1.7800 0.3207 2.1175
v 1.8800 0.2500 1.9000
v 1.7800 0.2500 1.9000
v 1.8800 0.3207 1.6825
v 1.7800 0.3207 1.6825
v 1.8800 0.5057 1.5481
v 1.7800 0.5057 1.5481
v 1.8800 0.7343 1.5481
v 1.7800 0.7343 1.5481
v 1.8800 0.9193 1.6825
v 1.7800 0.9193 1.6825
v 1.8800 0.9900 2.8500
v 1.7800 0.9900 2.8500
v 1.8800 0.9193 3.0675
v 1.7800 0.9193 3.0675
v 1.8800 0.7343 3.2019
v 1.7800 0.7343 3.2019
v 1.8800 0.5057 3.2019
v 1.7800 0.5057 3.2019
v 1.8800 0.3207 3.0675
v 1.7800 0.3207 3.0675
v 1.8800 0.2500 2.8500
v 1.7800 0.2500 2.8500
v 1.8800 0.3207 2.6325
v 1.7800 0.3207 2.6325
v 1.8800 0.5057 2.4981
v 1.7800 0.5057 2.4981
v 1.8800 0.7343 2.4981
v 1.7800 0.7343 2.4981
v 1.8800 0.9193 2.6325
v 1.7800 0.9193 2.6325
v 1.8900 1.2300 3.5800
v 1.7700 1.2300 3.5800
v 1.8900 1.1441 3.8445
v 1.7700 1.1441 3.8445
v 1.8900 0.9191 4.0080
v 1.7700 0.9191 4.0080
v 1.8900 0.6409 4.0080
v 1.7700 0.6409 4.0080
v 1.8900 0.4159 3.8445
v 1.7700 0.4159 3.8445
v 1.8900 0.3300 3.5800
v 1.7700 0.3300 3.5800
v 1.8900 0.4159 3.3155
v 1.7700 0.4159 3.3155
v 1.8900 0.6409 3.1520
v 1.7700 0.6409 3.1520
v 1.8900 0.9191 3.1520
v 1.7700 0.9191 3.1520
v 1.8900 1.1441 3.3155
v 1.7700 1.1441 3.3155
v 1.8900 1.2300 -3.5800
v 1.7700 1.2300 -3.5800
v 1.8900 1.1441 -3.3155
v 1.7700 1.1441 -3.3155
v 1.8900 0.9191 -3.1520
v 1.7700 0.9191 -3.1520
v 1.8900 0.6409 -3.1520
v 1.7700 0.6409 -3.1520
v 1.8900 0.4159 -3.3155
v 1.7700 0.4159 -3.3155
v 1.8900 0.3300 -3.5800
v 1.7700 0.3300 -3.5800
v 1.8900 0.4159 -3.8445
v 1.7700 0.4159 -3.8445
v 1.8900 0.6409 -4.0080
v 1.7700 0.6409 -4.0080
v 1.8900 0.9191 -4.0080
v 1.7700 0.9191 -4.0080
v 1.8900 1.1441 -3.8445
v 1.7700 1.1441 -3.8445
v 1.8750 1.4800 -1.8000
v 1.7850 1.4800 -1.8000
v 1.8750 1.4331 -1.6869
v 1.7850 1.4331 -1.6869
v 1.8750 1.3200 -1.6400
v 1.7850 1.3200 -1.6400
v 1.8750 1.2069 -1.6869
v 1.7850 1.2069 -1.6869
v 1.8750 1.1600 -1.8000
v 1.7850 1.1600 -1.8000
v 1.8750 1.2069 -1.9131
v 1.7850 1.2069 -1.9131
v 1.8750 1.3200 -1.9600
v 1.7850 1.3200 -1.9600
v 1.8750 1.4331 -1.9131
v 1.7850 1.4331 -1.9131
v 1.8750 1.4800 0.0000
v 1.7850 1.4800 0.0000
v 1.8750 1.4331 0.1131
v 1.7850 1.4331 0.1131
v 1.8750 1.3200 0.1600
v 1.7850 1.3200 0.1600
v 1.8750 1.2069 0.1131
v 1.7850 1.2069 0.1131
v 1.8750 1.1600 0.0000
v 1.7850 1.1600 0.0000
v 1.8750 1.2069 -0.1131
v 1.7850 1.2069 -0.1131
v 1.8750 1.3200 -0.1600
v 1.7850 1.3200 -0.1600
v 1.8750 1.4331 -0.1131
v 1.7850 1.4331 -0.1131
v 1.8750 1.4800 1.8000
v 1.7850 1.4800 1.8000
v 1.8750 1.4331 1.9131
v 1.7850 1.4331 1.9131
v 1.8750 1.3200 1.9600
v 1.7850 1.3200 1.9600
v 1.8750 1.2069 1.9131
v 1.7850 1.2069 1.9131
v 1.8750 1.1600 1.8000
v 1.7850 1.1600 1.8000
v 1.8750 1.2069 1.6869
v 1.7850 1.2069 1.6869
v 1.8750 1.3200 1.6400
v 1.7850 1.3200 1.6400
v 1.8750 1.4331 1.6869
v 1.7850 1.4331 1.6869
v 1.8750 1.1800 -3.6000
v 1.8750 1.9800 -3.6000
v 1.8050 1.1800 3.6000
v 1.8050 1.9800 3.6000
v 1.8750 1.1800 3.6000
v 1.8750 1.9800 3.6000
v -1.8000 0.0000 -3.7000
v -1.8000 0.0000 3.7000
v -1.8000 0.4200 4.1000
v -1.8000 1.0000 4.1000
v -1.8000 1.4200 3.7000
v -1.8000 1.4200 -3.7000
v -1.8000 1.0000 -4.1000
v -1.8000 0.4200 -4.1000
v -1.2400 0.0000 -3.7000
v -1.2400 0.0000 3.7000
v -1.2400 0.4200 4.1000
v -1.2400 1.0000 4.1000
v -1.2400 1.4200 3.7000
v -1.2400 1.4200 -3.7000
v -1.2400 1.0000 -4.1000
v -1.2400 0.4200 -4.1000
v -1.8750 1.1800 -3.6000
v -1.8750 1.9800 -3.6000
v -1.7800 0.9900 -2.8500
v -1.8800 0.9900 -2.8500
v -1.7800 0.9193 -2.6325
v -1.8800 0.9193 -2.6325
v -1.7800 0.7343 -2.4981
v -1.8800 0.7343 -2.4981
v -1.7800 0.5057 -2.4981
v -1.8800 0.5057 -2.4981
v -1.7800 0.3207 -2.6325
v -1.8800 0.3207 -2.6325
v -1.7800 0.2500 -2.8500
v -1.8800 0.2500 -2.8500
v -1.7800 0.3207 -3.0675
v -1.8800 0.3207 -3.0675
v -1.7800 0.5057 -3.2019
v -1.8800 0.5057 -3.2019
v -1.7800 0.7343 -3.2019
v -1.8800 0.7343 -3.2019
v -1.7800 0.9193 -3.0675
v -1.8800 0.9193 -3.0675
v -1.7800 0.9900 -1.9000
v -1.8800 0.9900 -1.9000
v -1.7800 0.9193 -1.6825
v -1.8800 0.9193 -1.6825
v -1.7800 0.7343 -1.5481
v -1.8800 0.7343 -1.5481
v -1.7800 0.5057 -1.5481
v -1.8800 0.5057 -1.5481
v -1.7800 0.3207 -1.6825
v -1.8800 0.3207 -1.6825
v -1.7800 0.2500 -1.9000
v -1.8800 0.2500 -1.9000
v -1.7800 0.3207 -2.1175
v -1.8800 0.3207 -2.1175
v -1.7800 0.5057 -2.2519
v -1.8800 0.5057 -2.2519
v -1.7800 0.7343 -2.2519
v -1.8800 0.7343 -2.2519
v -1.7800 0.9193 -2.1175
v -1.8800 0.9193 -2.1175
v -1.7800 0.9900 -0.9500
v -1.8800 0.9900 -0.9500
v -1.7800 0.9193 -0.7325
v -1.8800 0.9193 -0.7325
v -1.7800 0.7343 -0.5981
v -1.8800 0.7343 -0.5981
v -1.7800 0.5057 -0.5981
v -1.8800 0.5057 -0.5981
v -1.7800 0.3207 -0.7325
v -1.8800 0.3207 -0.7325
v -1.7800 0.2500 -0.9500
v -1.8800 0.2500 -0.9500
v -1.7800 0.3207 -1.1675
v -1.8800 0.3207 -1.1675
v -1.7800 0.5057 -1.3019
v -1.8800 0.5057 -1.3019
v -1.7800 0.7343 -1.3019
v -1.8800 0.7343 -1.3019
v -1.7800 0.9193 -1.1675
v -1.8800 0.9193 -1.1675
v -1.7800 0.9900 -0.0000
v -1.8800 0.9900 -0.0000
v -1.7800 0.9193 0.2175
v -1.8800 0.9193 0.2175
v -1.7800 0.7343 0.3519
v -1.8800 0.7343 0.3519
v -1.7800 0.5057 0.3519
v -1.8800 0.5057 0.3519
v -1.7800 0.3207 0.2175
v -1.8800 0.3207 0.2175
v -1.7800 0.2500 -0.0000
v -1.8800 0.2500 -0.0000
v -1.7800 0.3207 -0.2175
v -1.8800 0.3207 -0.2175
v -1.7800 0.5057 -0.3519
v -1.8800 0.5057 -0.3519
v -1.7800 0.7343 -0.3519
v -1.8800 0.7343 -0.3519
v -1.7800 0.9193 -0.2175
v -1.8800 0.9193 -0.2175
v -1.7800 0.9900 0.9500
v -1.8800 0.9900 0.9500
v -1.7800 0.9193 1.1675
v -1.8800 0.9193 1.1675
v -1.7800 0.7343 1.3019
v -1.8800 0.7343 1.3019
v -1.7800 0.5057 1.3019
v -1.8800 0.5057 1.3019
v -1.7800 0.3207 1.1675
v -1.8800 0.3207 1.1675
v -1.7800 0.2500 0.9500
v -1.8800 0.2500 0.9500
v -1.7800 0.3207 0.7325
v -1.8800 0.3207 0.7325
v -1.7800 0.5057 0.5981
v -1.8800 0.5057 0.5981
v -1.7800 0.7343 0.5981
v -1.8800 0.7343 0.5981
v -1.7800 0.9193 0.7325
v -1.8800 0.9193 0.7325
v -1.7800 0.9900 1.9000
v -1.8800 0.9900 1.9000
v -1.7800 0.9193 2.1175
v -1.8800 0.9193 2.1175
v -1.7800 0.7343 2.2519
v -1.8800 0.7343 2.2519
v -1.7800 0.5057 2.2519
v -1.8800 0.5057 2.2519
v -1.7800 0.3207 2.1175
v -1.8800 0.3207 2.1175
v -1.7800 0.2500 1.9000
v -1.8800 0.2500 1.9000
v -1.7800 0.3207 1.6825
v -1.8800 0.3207 1.6825
v -1.7800 0.5057 1.5481
v -1.8800 0.5057 1.5481
v -1.7800 0.7343 1.5481
v -1.8800 0.7343 1.5481
v -1.7800 0.9193 1.6825
v -1.8800 0.9193 1.6825
v -1.7800 0.9900 2.8500
v -1.8800 0.9900 2.8500
v -1.7800 0.9193 3.0675
v -1.8800 0.9193 3.0675
v -1.7800 0.7343 3.2019
v -1.8800 0.7343 3.2019
v -1.7800 0.5057 3.2019
v -1.8800 0.5057 3.2019
v -1.7800 0.3207 3.0675
v -1.8800 0.3207 3.0675
v -1.7800 0.2500 2.8500
v -1.8800 0.2500 2.8500
v -1.7800 0.3207 2.6325
v -1.8800 0.3207 2.6325
v -1.7800 0.5057 2.4981
v -1.8800 0.5057 2.4981
v -1.7800 0.7343 2.4981
v -1.8800 0.7343 2.4981
v -1.7800 0.9193 2.6325
v -1.8800 0.9193 2.6325
v -1.7700 1.2300 3.5800
v -1.8900 1.2300 3.5800
v -1.7700 1.1441 3.8445
v -1.8900 1.1441 3.8445
v -1.7700 0.9191 4.0080
v -1.8900 0.9191 4.0080
v -1.7700 0.6409 4.0080
v -1.8900 0.6409 4.0080
v -1.7700 0.4159 3.8445
v -1.8900 0.4159 3.8445
v -1.7700 0.3300 3.5800
v -1.8900 0.3300 3.5800
v -1.7700 0.4159 3.3155
v -1.8900 0.4159 3.3155
v -1.7700 0.6409 3.1520
v -1.8900 0.6409 3.1520
v -1.7700 0.9191 3.1520
v -1.8900 0.9191 3.1520
v -1.7700 1.1441 3.3155
v -1.8900 1.1441 3.3155
v -1.7700 1.2300 -3.5800
v -1.8900 1.2300 -3.5800
v -1.7700 1.1441 -3.3155
v -1.8900 1.1441 -3.3155
v -1.7700 0.9191 -3.1520
v -1.8900 0.9191 -3.1520
v -1.7700 0.6409 -3.1520
v -1.8900 0.6409 -3.1520
v -1.7700 0.4159 -3.3155
v -1.8900 0.4159 -3.3155
v -1.7700 0.3300 -3.5800
v -1.8900 0.3300 -3.5800
v -1.7700 0.4159 -3.8445
v -1.8900 0.4159 -3.8445
v -1.7700 0.6409 -4.0080
v -1.8900 0.6409 -4.0080
v -1.7700 0.9191 -4.0080
v -1.8900 0.9191 -4.0080
v -1.7700 1.1441 -3.8445
v -1.8900 1.1441 -3.8445
v -1.7850 1.4800 -1.8000
v -1.8750 1.4800 -1.8000
v -1.7850 1.4331 -1.6869
v -1.8750 1.4331 -1.6869
v -1.7850 1.3200 -1.6400
v -1.8750 1.3200 -1.6400
v -1.7850 1.2069 -1.6869
v -1.8750 1.2069 -1.6869
v -1.7850 1.1600 -1.8000
v -1.8750 1.1600 -1.8000
v -1.7850 1.2069 -1.9131
v -1.8750 1.2069 -1.9131
v -1.7850 1.3200 -1.9600
v -1.8750 1.3200 -1.9600
v -1.7850 1.4331 -1.9131
v -1.8750 1.4331 -1.9131
v -1.7850 1.4800 0.0000
v -1.8750 1.4800 0.0000
v -1.7850 1.4331 0.1131
v -1.8750 1.4331 0.1131
v -1.7850 1.3200 0.1600
v -1.8750 1.3200 0.1600
v -1.7850 1.2069 0.1131
v -1.8750 1.2069 0.1131
v -1.7850 1.1600 0.0000
v -1.8750 1.1600 0.0000
v -1.7850 1.2069 -0.1131
v -1.8750 1.2069 -0.1131
v -1.7850 1.3200 -0.1600
v -1.8750 1.3200 -0.1600
v -1.7850 1.4331 -0.1131
v -1.8750 1.4331 -0.1131
v -1.7850 1.4800 1.8000
v -1.8750 1.4800 1.8000
v -1.7850 1.4331 1.9131
v -1.8750 1.4331 1.9131
v -1.7850 1.3200 1.9600
v -1.8750 1.3200 1.9600
v -1.7850 1.2069 1.9131
v -1.8750 1.2069 1.9131
v -1.7850 1.1600 1.8000
v -1.8750 1.1600 1.8000
v -1.7850 1.2069 1.6869
v -1.8750 1.2069 1.6869
v -1.7850 1.3200 1.6400
v -1.8750 1.3200 1.6400
v -1.7850 1.4331 1.6869
v -1.8750 1.4331 1.6869
v -1.8050 1.1800 -3.6000
v -1.8050 1.9800 -3.6000
v -1.8750 1.1800 3.6000
v -1.8750 1.9800 3.6000
v -1.8050 1.1800 3.6000
v -1.8050 1.9800 3.6000
v -1.2400 0.5000 -3.8500
v -1.2400 0.5000 2.5500
v -1.2400 0.9800 3.7800
v -1.2400 1.2800 3.7800
v -1.2400 1.7800 2.4500
v -1.2400 1.7800 -3.8500
v 1.2400 0.5000 -3.8500
v 1.2400 0.5000 2.5500
v 1.2400 0.9800 3.7800
v 1.2400 1.2800 3.7800
v 1.2400 1.7800 2.4500
v 1.2400 1.7800 -3.8500
v 0.0950 1.7600 1.8000
v 0.0950 1.9200 1.8000
v 1.1450 1.7600 1.8000
v 1.1450 1.9200 1.8000
v 0.0950 1.7600 3.3000
v 0.0950 1.9200 3.3000
v 1.1450 1.7600 3.3000
v 1.1450 1.9200 3.3000
v -1.0200 1.7600 1.7500
v -1.0200 1.9000 1.7500
v -0.4200 1.7600 1.7500
v -0.4200 1.9000 1.7500
v -1.0200 1.7600 2.8500
v -1.0200 1.9000 2.8500
v -0.4200 1.7600 2.8500
v -0.4200 1.9000 2.8500
v 0.9500 2.1200 -3.5500
v 0.9500 1.7800 -3.5500
v 1.0700 1.2000 3.6700
v 1.0700 1.2000 3.8100
v 1.0261 1.0939 3.6700
v 1.0261 1.0939 3.8100
v 0.9200 1.0500 3.6700
v 0.9200 1.0500 3.8100
v 0.8139 1.0939 3.6700
v 0.8139 1.0939 3.8100
v 0.7700 1.2000 3.6700
v 0.7700 1.2000 3.8100
v 0.8139 1.3061 3.6700
v 0.8139 1.3061 3.8100
v 0.9200 1.3500 3.6700
v 0.9200 1.3500 3.8100
v 1.0261 1.3061 3.6700
v 1.0261 1.3061 3.8100
v 1.2500 1.7800 -3.5500
v 1.2500 2.1200 -3.5500
v 0.9500 1.7800 -2.6500
v 0.9500 2.1200 -2.6500
v 1.2500 1.7800 -2.6500
v 1.2500 2.1200 -2.6500
v -1.2500 1.7800 -3.5500
v -1.2500 2.1200 -3.5500
v -0.7700 1.2000 3.6700
v -0.7700 1.2000 3.8100
v -0.8139 1.0939 3.6700
v -0.8139 1.0939 3.8100
v -0.9200 1.0500 3.6700
v -0.9200 1.0500 3.8100
v -1.0261 1.0939 3.6700
v -1.0261 1.0939 3.8100
v -1.0700 1.2000 3.6700
v -1.0700 1.2000 3.8100
v -1.0261 1.3061 3.6700
v -1.0261 1.3061 3.8100
v -0.9200 1.3500 3.6700
v -0.9200 1.3500 3.8100
v -0.8139 1.3061 3.6700
v -0.8139 1.3061 3.8100
v -0.9500 1.7800 -3.5500
v -0.9500 2.1200 -3.5500
v -1.2500 1.7800 -2.6500
v -1.2500 2.1200 -2.6500
v -0.9500 1.7800 -2.6500
v -0.9500 2.1200 -2.6500
v -1.1500 1.1000 -4.2250
v -1.1500 1.8000 -4.2250
v 1.1500 1.1000 -4.2250
v 1.1500 1.8000 -4.2250
v -1.1500 1.1000 -3.7750
v -1.1500 1.8000 -3.7750
v 1.1500 1.1000 -3.7750
v 1.1500 1.8000 -3.7750
v -1.0500 1.0500 -4.2900
v -1.0500 1.1900 -4.2900
v 1.0500 1.0500 -4.2900
v 1.0500 1.1900 -4.2900
v -1.0500 1.0500 -4.1900
v -1.0500 1.1900 -4.1900
v 1.0500 1.0500 -4.1900
v 1.0500 1.1900 -4.1900
v 0.3400 1.6945 2.9874
v 0.3400 2.7310 3.1547
v 0.5000 1.6945 2.9874
v 0.5000 2.7310 3.1547
v 0.3400 1.6690 3.1453
v 0.3400 2.7055 3.3126
v 0.5000 1.6690 3.1453
v 0.5000 2.7055 3.3126
v -0.5000 1.6945 2.9874
v -0.5000 2.7310 3.1547
v -0.3400 1.6945 2.9874
v -0.3400 2.7310 3.1547
v -0.5000 1.6690 3.1453
v -0.5000 2.7055 3.3126
v -0.3400 1.6690 3.1453
v -0.3400 2.7055 3.3126
v -0.5500 2.6200 2.8100
v -0.5500 2.8200 2.8100
v 0.5500 2.6200 2.8100
v 0.5500 2.8200 2.8100
v -0.5500 2.6200 3.1500
v -0.5500 2.8200 3.1500
v 0.5500 2.6200 3.1500
v 0.5500 2.8200 3.1500
v 0.4100 2.6900 2.8100
v 0.4100 3.0300 2.8100
v 0.6300 2.6900 2.8100
v 0.6300 3.0300 2.8100
v 0.4100 2.6900 3.1500
v 0.4100 3.0300 3.1500
v 0.6300 2.6900 3.1500
v 0.6300 3.0300 3.1500
v -0.6300 2.6900 2.8100
v -0.6300 3.0300 2.8100
v -0.4100 2.6900 2.8100
v -0.4100 3.0300 2.8100
v -0.6300 2.6900 3.1500
v -0.6300 3.0300 3.1500
v -0.4100 2.6900 3.1500
v -0.4100 3.0300 3.1500
v -1.5500 1.8000 1.5000
v -1.5500 1.8000 -3.7200
v 1.5500 1.8000 -3.7200
v 1.5500 1.8000 1.5000
v -1.4400 3.1000 1.2200
v -1.4400 3.1000 -3.6400
v 1.4400 3.1000 -3.6400
v 1.4400 3.1000 1.2200
v -1.5500 1.8000 1.5000
v -1.3000 2.0200 2.0500
v 1.3000 2.0200 2.0500
v 1.5500 1.8000 1.5000
v -1.4400 3.1000 1.2200
v -1.1800 2.7200 1.7800
v 1.1800 2.7200 1.7800
v 1.4400 3.1000 1.2200
v -1.2500 1.8450 -3.8400
v -1.2500 2.9950 -3.8400
v 1.2500 1.8450 -3.8400
v 1.2500 2.9950 -3.8400
v -1.2500 1.8450 -3.6800
v -1.2500 2.9950 -3.6800
v 1.2500 1.8450 -3.6800
v 1.2500 2.9950 -3.6800
v 0.5500 2.0000 -4.0100
v 0.5500 2.6000 -4.0100
v 1.1500 2.0000 -4.0100
v 1.1500 2.6000 -4.0100
v 0.5500 2.0000 -3.7100
v 0.5500 2.6000 -3.7100
v 1.1500 2.0000 -3.7100
v 1.1500 2.6000 -3.7100
v -1.6000 3.1300 -3.2000
v -1.6000 3.4700 -3.2000
v 1.6000 3.1300 -3.2000
v 1.6000 3.4700 -3.2000
v -1.6000 3.1300 -1.9000
v -1.6000 3.4700 -1.9000
v 1.6000 3.1300 -1.9000
v 1.6000 3.4700 -1.9000
v 1.4800 2.1500 -2.7000
v 1.4800 2.7500 -2.7000
v 1.6400 2.1500 -2.7000
v 1.6400 2.7500 -2.7000
v 1.4800 2.1500 -0.1000
v 1.4800 2.7500 -0.1000
v 1.6400 2.1500 -0.1000
v 1.6400 2.7500 -0.1000
v -1.6400 2.7500 -2.7000
v -1.6400 2.1500 -2.7000
v 1.5920 2.2146 0.4437
v 1.6643 2.3454 0.7267
v 1.5682 2.1672 0.4716
v 1.6405 2.2979 0.7546
v 1.5101 2.1672 0.4865
v 1.5823 2.2979 0.7695
v 1.4757 2.2146 0.4733
v 1.5480 2.3454 0.7563
v 1.4995 2.2621 0.4454
v 1.5718 2.3928 0.7284
v 1.5577 2.2621 0.4305
v 1.6299 2.3928 0.7135
v 1.5920 2.2146 0.2437
v 1.6643 2.3454 0.5267
v 1.5682 2.1672 0.2716
v 1.6405 2.2979 0.5546
v 1.5101 2.1672 0.2865
v 1.5823 2.2979 0.5695
v 1.4757 2.2146 0.2733
v 1.5480 2.3454 0.5563
v 1.4995 2.2621 0.2454
v 1.5718 2.3928 0.5284
v 1.5577 2.2621 0.2305
v 1.6299 2.3928 0.5135
v 1.5920 2.3946 0.4437
v 1.6643 2.5254 0.7267
v 1.5682 2.3472 0.4716
v 1.6405 2.4779 0.7546
v 1.5101 2.3472 0.4865
v 1.5823 2.4779 0.7695
v 1.4757 2.3946 0.4733
v 1.5480 2.5254 0.7563
v 1.4995 2.4421 0.4454
v 1.5718 2.5728 0.7284
v 1.5577 2.4421 0.4305
v 1.6299 2.5728 0.7135
v 1.5920 2.3946 0.2437
v 1.6643 2.5254 0.5267
v 1.5682 2.3472 0.2716
v 1.6405 2.4779 0.5546
v 1.5101 2.3472 0.2865
v 1.5823 2.4779 0.5695
v 1.4757 2.3946 0.2733
v 1.5480 2.5254 0.5563
v 1.4995 2.4421 0.2454
v 1.5718 2.5728 0.5284
v 1.5577 2.4421 0.2305
v 1.6299 2.5728 0.5135
v 1.2200 3.1500 -3.2000
v 1.2200 4.9500 -3.2000
v 1.2000 3.1500 -3.1800
v 1.2000 4.9500 -3.1800
v 1.1800 3.1500 -3.2000
v 1.1800 4.9500 -3.2000
v 1.2000 3.1500 -3.2200
v 1.2000 4.9500 -3.2200
v -1.4800 2.1500 -2.7000
v -1.4800 2.7500 -2.7000
v -1.6400 2.1500 -0.1000
v -1.6400 2.7500 -0.1000
v -1.4800 2.1500 -0.1000
v -1.4800 2.7500 -0.1000
v -0.8350 3.8300 -0.3400
v -0.8350 3.6900 -0.3400
v -1.4757 2.2146 0.4733
v -1.5480 2.3454 0.7563
v -1.5101 2.1672 0.4865
v -1.5823 2.2979 0.7695
v -1.5682 2.1672 0.4716
v -1.6405 2.2979 0.7546
v -1.5920 2.2146 0.4437
v -1.6643 2.3454 0.7267
v -1.5577 2.2621 0.4305
v -1.6299 2.3928 0.7135
v -1.4995 2.2621 0.4454
v -1.5718 2.3928 0.7284
v -1.4757 2.2146 0.2733
v -1.5480 2.3454 0.5563
v -1.5101 2.1672 0.2865
v -1.5823 2.2979 0.5695
v -1.5682 2.1672 0.2716
v -1.6405 2.2979 0.5546
v -1.5920 2.2146 0.2437
v -1.6643 2.3454 0.5267
v -1.5577 2.2621 0.2305
v -1.6299 2.3928 0.5135
v -1.4995 2.2621 0.2454
v -1.5718 2.3928 0.5284
v -1.4757 2.3946 0.4733
v -1.5480 2.5254 0.7563
v -1.5101 2.3472 0.4865
v -1.5823 2.4779 0.7695
v -1.5682 2.3472 0.4716
v -1.6405 2.4779 0.7546
v -1.5920 2.3946 0.4437
v -1.6643 2.5254 0.7267
v -1.5577 2.4421 0.4305
v -1.6299 2.5728 0.7135
v -1.4995 2.4421 0.4454
v -1.5718 2.5728 0.7284
v -1.4757 2.3946 0.2733
v -1.5480 2.5254 0.5563
v -1.5101 2.3472 0.2865
v -1.5823 2.4779 0.5695
v -1.5682 2.3472 0.2716
v -1.6405 2.4779 0.5546
v -1.5920 2.3946 0.2437
v -1.6643 2.5254 0.5267
v -1.5577 2.4421 0.2305
v -1.6299 2.5728 0.5135
v -1.4995 2.4421 0.2454
v -1.5718 2.5728 0.5284
v -1.1800 3.1500 -3.2000
v -1.1800 4.9500 -3.2000
v -1.2000 3.1500 -3.1800
v -1.2000 4.9500 -3.1800
v -1.2200 3.1500 -3.2000
v -1.2200 4.9500 -3.2000
v -1.2000 3.1500 -3.2200
v -1.2000 4.9500 -3.2200
v -0.3000 3.0800 -0.3000
v -0.3000 3.4000 -0.3000
v -0.3917 3.0800 -0.0179
v -0.3917 3.4000 -0.0179
v -0.6317 3.0800 0.1565
v -0.6317 3.4000 0.1565
v -0.9283 3.0800 0.1565
v -0.9283 3.4000 0.1565
v -1.1683 3.0800 -0.0179
v -1.1683 3.4000 -0.0179
v -1.2600 3.0800 -0.3000
v -1.2600 3.4000 -0.3000
v -1.1683 3.0800 -0.5821
v -1.1683 3.4000 -0.5821
v -0.9283 3.0800 -0.7565
v -0.9283 3.4000 -0.7565
v -0.6317 3.0800 -0.7565
v -0.6317 3.4000 -0.7565
v -0.3917 3.0800 -0.5821
v -0.3917 3.4000 -0.5821
v 1.2200 3.0900 -0.3000
v 1.2200 3.2300 -0.3000
v 1.1436 3.0900 -0.0649
v 1.1436 3.2300 -0.0649
v 0.9436 3.0900 0.0804
v 0.9436 3.2300 0.0804
v 0.6964 3.0900 0.0804
v 0.6964 3.2300 0.0804
v 0.4964 3.0900 -0.0649
v 0.4964 3.2300 -0.0649
v 0.4200 3.0900 -0.3000
v 0.4200 3.2300 -0.3000
v 0.4964 3.0900 -0.5351
v 0.4964 3.2300 -0.5351
v 0.6964 3.0900 -0.6804
v 0.6964 3.2300 -0.6804
v 0.9436 3.0900 -0.6804
v 0.9436 3.2300 -0.6804
v 1.1436 3.0900 -0.5351
v 1.1436 3.2300 -0.5351
v -0.7300 3.3800 -0.3000
v -0.7300 3.7400 -0.3000
v -0.7550 3.3800 -0.2567
v -0.7550 3.7400 -0.2567
v -0.8050 3.3800 -0.2567
v -0.8050 3.7400 -0.2567
v -0.8300 3.3800 -0.3000
v -0.8300 3.7400 -0.3000
v -0.8050 3.3800 -0.3433
v -0.8050 3.7400 -0.3433
v -0.7550 3.3800 -0.3433
v -0.7550 3.7400 -0.3433
v -0.7250 3.6900 -0.3400
v -0.7250 3.8300 -0.3400
v -0.8350 3.6900 0.1400
v -0.8350 3.8300 0.1400
v -0.7250 3.6900 0.1400
v -0.7250 3.8300 0.1400
v -0.8800 3.6000 -0.7500
v -0.8800 3.8400 -0.7500
v -0.7480 3.7700 0.0900
v -0.7480 3.7700 0.7500
v -0.7640 3.7423 0.0900
v -0.7640 3.7423 0.7500
v -0.7960 3.7423 0.0900
v -0.7960 3.7423 0.7500
v -0.8120 3.7700 0.0900
v -0.8120 3.7700 0.7500
v -0.7960 3.7977 0.0900
v -0.7960 3.7977 0.7500
v -0.7640 3.7977 0.0900
v -0.7640 3.7977 0.7500
v -0.6800 3.6000 -0.7500
v -0.6800 3.8400 -0.7500
v -0.8800 3.6000 -0.4900
v -0.8800 3.8400 -0.4900
v -0.6800 3.6000 -0.4900
v -0.6800 3.8400 -0.4900
v 0.4900 3.1700 0.4000
v 0.4900 3.4300 0.4000
v 0.7100 3.1700 0.4000
v 0.7100 3.4300 0.4000
v 0.4900 3.1700 0.7000
v 0.4900 3.4300 0.7000
v 0.7100 3.1700 0.7000
v 0.7100 3.4300 0.7000
v -0.6500 2.0186 1.1383
v -0.6500 3.0100 1.0077
v 0.6500 2.0186 1.1383
v 0.6500 3.0100 1.0077
v -0.6500 2.1100 1.8323
v -0.6500 3.1014 1.7017
v 0.6500 2.1100 1.8323
v 0.6500 3.1014 1.7017
v 0.4100 3.0222 1.5508
v 0.4100 2.7248 1.5900
v 0.3000 2.5735 1.5704
v 0.3000 2.7302 2.7601
v 0.2427 2.3986 1.5935
v 0.2427 2.5554 2.7832
v 0.0927 2.2906 1.6077
v 0.0927 2.4473 2.7974
v -0.0927 2.2906 1.6077
v -0.0927 2.4473 2.7974
v -0.2427 2.3986 1.5935
v -0.2427 2.5554 2.7832
v -0.3000 2.5735 1.5704
v -0.3000 2.7302 2.7601
v -0.2427 2.7483 1.5474
v -0.2427 2.9050 2.7371
v -0.0927 2.8563 1.5332
v -0.0927 3.0131 2.7229
v 0.0927 2.8563 1.5332
v 0.0927 3.0131 2.7229
v 0.2427 2.7483 1.5474
v 0.2427 2.9050 2.7371
v 0.6300 2.7248 1.5900
v 0.6300 3.0222 1.5508
v 0.4100 2.9729 3.4737
v 0.4100 3.2704 3.4346
v 0.6300 2.9729 3.4737
v 0.6300 3.2704 3.4346
v -0.6300 2.7248 1.5900
v -0.6300 3.0222 1.5508
v -0.4100 2.7248 1.5900
v -0.4100 3.0222 1.5508
v -0.6300 2.9729 3.4737
v -0.6300 3.2704 3.4346
v -0.4100 2.9729 3.4737
v -0.4100 3.2704 3.4346
v 0.1650 2.5800 1.6200
v 0.1650 3.4029 7.8660
v 0.1335 2.4838 1.6327
v 0.1335 3.3068 7.8787
v 0.0510 2.4244 1.6405
v 0.0510 3.2474 7.8865
v -0.0510 2.4244 1.6405
v -0.0510 3.2474 7.8865
v -0.1335 2.4838 1.6327
v -0.1335 3.3068 7.8787
v -0.1650 2.5800 1.6200
v -0.1650 3.4029 7.8660
v -0.1335 2.6762 1.6073
v -0.1335 3.4991 7.8534
v -0.0510 2.7356 1.5995
v -0.0510 3.5585 7.8455
v 0.0510 2.7356 1.5995
v 0.0510 3.5585 7.8455
v 0.1335 2.6762 1.6073
v 0.1335 3.4991 7.8534
v 0.2700 2.9723 4.5973
v 0.2700 3.1094 5.6383
v 0.2184 2.8149 4.6180
v 0.2184 2.9521 5.6590
v 0.0834 2.7177 4.6308
v 0.0834 2.8548 5.6718
v -0.0834 2.7177 4.6308
v -0.0834 2.8548 5.6718
v -0.2184 2.8149 4.6180
v -0.2184 2.9521 5.6590
v -0.2700 2.9723 4.5973
v -0.2700 3.1094 5.6383
v -0.2184 3.1296 4.5765
v -0.2184 3.2668 5.6175
v -0.0834 3.2269 4.5637
v -0.0834 3.3640 5.6047
v 0.0834 3.2269 4.5637
v 0.0834 3.3640 5.6047
v 0.2184 3.1296 4.5765
v 0.2184 3.2668 5.6175
v 0.2900 3.3202 7.2379
v 0.2900 3.4116 7.9320
v 0.2346 3.1512 7.2602
v 0.2346 3.2426 7.9542
v 0.0896 3.0467 7.2740
v 0.0896 3.1382 7.9680
v -0.0896 3.0467 7.2740
v -0.0896 3.1382 7.9680
v -0.2346 3.1512 7.2602
v -0.2346 3.2426 7.9542
v -0.2900 3.3202 7.2379
v -0.2900 3.4116 7.9320
v -0.2346 3.4892 7.2157
v -0.2346 3.5806 7.9097
v -0.0896 3.5936 7.2019
v -0.0896 3.6851 7.8959
v 0.0896 3.5936 7.2019
v 0.0896 3.6851 7.8959
v 0.2346 3.4892 7.2157
v 0.2346 3.5806 7.9097
v 0.3400 3.3122 7.1770
v 0.3400 3.3291 7.3059
v 0.2751 3.1140 7.2031
v 0.2751 3.1310 7.3320
v 0.1051 2.9916 7.2192
v 0.1051 3.0085 7.3481
v -0.1051 2.9916 7.2192
v -0.1051 3.0085 7.3481
v -0.2751 3.1140 7.2031
v -0.2751 3.1310 7.3320
v -0.3400 3.3122 7.1770
v -0.3400 3.3291 7.3059
v -0.2751 3.5103 7.1509
v -0.2751 3.5273 7.2798
v -0.1051 3.6327 7.1347
v -0.1051 3.6497 7.2636
v 0.1051 3.6327 7.1347
v 0.1051 3.6497 7.2636
v 0.2751 3.5103 7.1509
v 0.2751 3.5273 7.2798
v 0.3400 3.3739 7.6454
v 0.3400 3.3909 7.7743
v 0.2751 3.1757 7.6715
v 0.2751 3.1927 7.8004
v 0.1051 3.0533 7.6877
v 0.1051 3.0703 7.8166
v -0.1051 3.0533 7.6877
v -0.1051 3.0703 7.8166
v -0.2751 3.1757 7.6715
v -0.2751 3.1927 7.8004
v -0.3400 3.3739 7.6454
v -0.3400 3.3909 7.7743
v -0.2751 3.5720 7.6193
v -0.2751 3.5890 7.7482
v -0.1051 3.6945 7.6032
v -0.1051 3.7114 7.7321
v 0.1051 3.6945 7.6032
v 0.1051 3.7114 7.7321
v 0.2751 3.5720 7.6193
v 0.2751 3.5890 7.7482
usemtl Mat0
f 6 7 8
f 10 9 13
f 9 2 1
f 10 3 2
f 11 4 3
f 12 5 4
f 13 6 5
f 14 7 6
f 15 8 7
f 16 1 8
f 263 256 255
f 265 258 257
f 262 261 265
f 262 255 254
f 266 259 258
f 258 259 260
f 264 257 256
f 261 254 253
f 267 260 259
f 268 253 260
f 590 591 589
f 592 595 591
f 596 593 595
f 594 589 593
f 595 589 591
f 592 594 596
f 662 663 661
f 664 667 663
f 668 665 667
f 666 661 665
f 667 661 663
f 664 666 668
f 687 690 689
f 690 691 689
f 712 713 711
f 700 701 699
f 691 694 693
f 724 725 723
f 693 696 695
f 694 692 688
f 695 698 697
f 704 705 703
f 701 704 703
f 698 687 697
f 693 695 697
f 705 708 707
f 708 706 702
f 708 709 707
f 716 717 715
f 714 715 713
f 709 700 699
f 699 701 703
f 717 720 719
f 718 716 712
f 720 721 719
f 727 730 729
f 725 728 727
f 722 711 721
f 711 713 717
f 729 732 731
f 731 733 723
f 732 733 731
f 734 723 733
f 734 732 728
f 752 753 751
f 753 756 755
f 776 777 775
f 764 765 763
f 756 757 755
f 788 789 787
f 758 759 757
f 758 756 752
f 760 761 759
f 768 769 767
f 766 767 765
f 762 751 761
f 757 759 761
f 769 772 771
f 774 772 770
f 772 773 771
f 780 781 779
f 777 780 779
f 774 763 773
f 763 765 767
f 781 784 783
f 782 780 776
f 868 869 867
f 784 785 783
f 791 794 793
f 790 791 789
f 786 775 785
f 775 777 781
f 793 796 795
f 795 797 787
f 796 797 795
f 848 849 847
f 892 889 891
f 798 787 797
f 792 788 796
f 890 885 889
f 749 859 750
f 860 862 864
f 862 750 861
f 856 857 855
f 858 847 857
f 852 853 851
f 852 850 848
f 850 851 849
f 854 855 853
f 863 750 859
f 860 863 859
f 864 861 863
f 851 853 855
f 870 871 869
f 888 891 887
f 872 873 871
f 886 887 885
f 874 875 873
f 875 877 869
f 876 877 875
f 891 885 887
f 878 867 877
f 878 876 874
f 888 890 892
f 894 895 893
f 895 900 899
f 900 897 899
f 898 893 897
f 899 893 895
f 896 898 900
f 939 942 941
f 936 933 935
f 903 906 905
f 932 935 931
f 906 907 905
f 983 986 985
f 930 931 929
f 908 909 907
f 938 939 937
f 924 926 928
f 909 912 911
f 962 963 961
f 927 902 923
f 912 913 911
f 967 970 969
f 926 902 925
f 914 915 913
f 932 934 936
f 928 925 927
f 916 917 915
f 935 929 931
f 924 927 923
f 918 919 917
f 904 920 912
f 901 923 902
f 920 921 919
f 11 10 13
f 934 929 933
f 921 904 903
f 909 913 917
f 942 943 941
f 965 968 967
f 960 961 959
f 944 945 943
f 4 5 2
f 15 14 9
f 945 948 947
f 1004 1005 1003
f 948 949 947
f 963 966 965
f 958 959 957
f 949 952 951
f 980 981 979
f 982 983 981
f 952 953 951
f 942 938 954
f 988 989 987
f 954 955 953
f 1018 1019 1017
f 986 987 985
f 955 938 937
f 943 947 955
f 978 979 977
f 969 972 971
f 999 1002 1001
f 1002 1003 1001
f 972 973 971
f 968 966 958
f 1007 1010 1009
f 974 975 973
f 9 16 15
f 1005 1008 1007
f 976 957 975
f 957 961 965
f 998 999 997
f 989 992 991
f 1025 1028 1027
f 1027 1030 1029
f 992 993 991
f 980 996 988
f 1022 1023 1021
f 994 995 993
f 5 6 2
f 1019 1022 1021
f 995 978 977
f 995 979 983
f 1024 1025 1023
f 1010 1011 1009
f 1012 1013 1011
f 13 12 11
f 997 1001 1005
f 1013 1016 1015
f 2 3 4
f 1016 997 1015
f 1002 1014 1010
f 1030 1031 1029
f 1 2 6
f 1032 1033 1031
f 8 1 6
f 1025 1029 1033
f 1033 1036 1035
f 14 13 9
f 1036 1017 1035
f 1026 1022 1034
f 261 268 267
f 267 266 261
f 266 265 261
f 265 264 263
f 263 262 265
f 260 253 258
f 253 254 258
f 254 255 256
f 256 257 254
f 257 258 254
f 692 690 688
f 688 698 696
f 696 694 688
f 697 687 693
f 687 689 693
f 689 691 693
f 706 704 702
f 702 700 710
f 710 708 702
f 703 705 699
f 705 707 699
f 707 709 699
f 716 714 712
f 712 722 720
f 720 718 712
f 713 715 717
f 717 719 721
f 721 711 717
f 723 725 727
f 727 729 723
f 729 731 723
f 732 730 728
f 728 726 724
f 724 734 728
f 756 754 752
f 752 762 760
f 760 758 752
f 761 751 757
f 751 753 757
f 753 755 757
f 770 768 766
f 766 764 770
f 764 774 770
f 767 769 763
f 769 771 763
f 771 773 763
f 780 778 776
f 776 786 784
f 784 782 776
f 777 779 781
f 781 783 785
f 785 775 781
f 787 789 791
f 791 793 787
f 793 795 787
f 796 794 792
f 792 790 788
f 788 798 796
f 848 858 852
f 858 856 852
f 856 854 852
f 855 857 851
f 857 847 851
f 847 849 851
f 877 867 869
f 869 871 873
f 873 875 869
f 874 872 878
f 872 870 878
f 870 868 878
f 908 906 904
f 904 922 920
f 920 918 916
f 916 914 920
f 914 912 920
f 912 910 908
f 908 904 912
f 921 903 905
f 905 907 909
f 909 911 913
f 913 915 917
f 917 919 921
f 921 905 917
f 905 909 917
f 942 940 938
f 938 956 954
f 954 952 946
f 952 950 946
f 950 948 946
f 946 944 954
f 944 942 954
f 939 941 943
f 943 945 947
f 947 949 951
f 951 953 947
f 953 955 947
f 955 937 939
f 939 943 955
f 966 964 958
f 964 962 958
f 962 960 958
f 958 976 974
f 974 972 958
f 972 970 958
f 970 968 958
f 965 967 969
f 969 971 973
f 973 975 957
f 957 959 961
f 961 963 965
f 965 969 973
f 973 957 965
f 984 982 980
f 980 978 996
f 996 994 988
f 994 992 988
f 992 990 988
f 988 986 984
f 984 980 988
f 983 985 987
f 987 989 983
f 989 991 983
f 991 993 995
f 995 977 979
f 979 981 983
f 991 995 983
f 1005 1007 1013
f 1007 1009 1013
f 1009 1011 1013
f 1013 1015 997
f 997 999 1001
f 1001 1003 1005
f 1013 997 1005
f 1010 1008 1006
f 1006 1004 1010
f 1004 1002 1010
f 1002 1000 998
f 998 1016 1002
f 1016 1014 1002
f 1014 1012 1010
f 1017 1019 1021
f 1021 1023 1025
f 1025 1027 1029
f 1029 1031 1033
f 1033 1035 1017
f 1017 1021 1033
f 1021 1025 1033
f 1030 1028 1026
f 1026 1024 1022
f 1022 1020 1034
f 1020 1018 1034
f 1018 1036 1034
f 1034 1032 1030
f 1030 1026 1034
f 9 10 2
f 10 11 3
f 11 12 4
f 12 13 5
f 13 14 6
f 14 15 7
f 15 16 8
f 16 9 1
f 263 264 256
f 265 266 258
f 262 263 255
f 266 267 259
f 264 265 257
f 261 262 254
f 267 268 260
f 268 261 253
f 590 592 591
f 592 596 595
f 596 594 593
f 594 590 589
f 595 593 589
f 592 590 594
f 662 664 663
f 664 668 667
f 668 666 665
f 666 662 661
f 667 665 661
f 664 662 666
f 687 688 690
f 690 692 691
f 712 714 713
f 700 702 701
f 691 692 694
f 724 726 725
f 693 694 696
f 695 696 698
f 704 706 705
f 701 702 704
f 698 688 687
f 705 706 708
f 708 710 709
f 716 718 717
f 714 716 715
f 709 710 700
f 717 718 720
f 720 722 721
f 727 728 730
f 725 726 728
f 722 712 711
f 729 730 732
f 732 734 733
f 734 724 723
f 752 754 753
f 753 754 756
f 776 778 777
f 764 766 765
f 756 758 757
f 788 790 789
f 758 760 759
f 760 762 761
f 768 770 769
f 766 768 767
f 762 752 751
f 769 770 772
f 772 774 773
f 780 782 781
f 777 778 780
f 774 764 763
f 781 782 784
f 868 870 869
f 784 786 785
f 791 792 794
f 790 792 791
f 786 776 775
f 793 794 796
f 796 798 797
f 848 850 849
f 892 890 889
f 798 788 787
f 890 886 885
f 749 860 859
f 860 749 862
f 862 749 750
f 856 858 857
f 858 848 847
f 852 854 853
f 850 852 851
f 854 856 855
f 863 861 750
f 860 864 863
f 864 862 861
f 870 872 871
f 888 892 891
f 872 874 873
f 886 888 887
f 874 876 875
f 876 878 877
f 891 889 885
f 878 868 867
f 888 886 890
f 894 896 895
f 895 896 900
f 900 898 897
f 898 894 893
f 899 897 893
f 896 894 898
f 939 940 942
f 936 934 933
f 903 904 906
f 932 936 935
f 906 908 907
f 983 984 986
f 930 932 931
f 908 910 909
f 938 940 939
f 924 901 926
f 909 910 912
f 962 964 963
f 927 925 902
f 912 914 913
f 967 968 970
f 926 901 902
f 914 916 915
f 932 930 934
f 928 926 925
f 916 918 917
f 935 933 929
f 924 928 927
f 918 920 919
f 901 924 923
f 920 922 921
f 934 930 929
f 921 922 904
f 942 944 943
f 965 966 968
f 960 962 961
f 944 946 945
f 945 946 948
f 1004 1006 1005
f 948 950 949
f 963 964 966
f 958 960 959
f 949 950 952
f 980 982 981
f 982 984 983
f 952 954 953
f 988 990 989
f 954 956 955
f 1018 1020 1019
f 986 988 987
f 955 956 938
f 978 980 979
f 969 970 972
f 999 1000 1002
f 1002 1004 1003
f 972 974 973
f 1007 1008 1010
f 974 976 975
f 1005 1006 1008
f 976 958 957
f 998 1000 999
f 989 990 992
f 1025 1026 1028
f 1027 1028 1030
f 992 994 993
f 1022 1024 1023
f 994 996 995
f 1019 1020 1022
f 995 996 978
f 1024 1026 1025
f 1010 1012 1011
f 1012 1014 1013
f 1013 1014 1016
f 1016 998 997
f 1030 1032 1031
f 1032 1034 1033
f 1033 1034 1036
f 1036 1018 1017
usemtl Mat1
f 50 51 49
f 44 45 43
f 20 21 19
f 66 67 65
f 21 24 23
f 202 203 201
f 220 221 219
f 24 25 23
f 48 49 47
f 42 43 41
f 26 27 25
f 182 183 181
f 28 29 27
f 234 235 233
f 86 87 85
f 30 31 29
f 46 47 45
f 40 41 39
f 32 33 31
f 61 64 63
f 64 65 63
f 34 35 33
f 20 36 28
f 70 71 69
f 36 37 35
f 105 108 107
f 68 69 67
f 38 19 37
f 29 33 37
f 60 61 59
f 52 53 51
f 82 83 81
f 84 85 83
f 54 55 53
f 50 48 40
f 90 91 89
f 56 57 55
f 125 128 127
f 88 89 87
f 58 39 57
f 57 45 49
f 80 81 79
f 72 73 71
f 102 103 101
f 104 105 103
f 74 75 73
f 62 78 70
f 110 111 109
f 76 77 75
f 140 141 139
f 108 109 107
f 78 59 77
f 69 77 61
f 100 101 99
f 92 93 91
f 122 123 121
f 124 125 123
f 94 95 93
f 84 96 92
f 130 131 129
f 96 97 95
f 162 163 161
f 128 129 127
f 98 79 97
f 95 83 87
f 120 121 119
f 112 113 111
f 148 149 147
f 150 151 149
f 114 115 113
f 118 110 106
f 144 145 143
f 116 117 115
f 216 217 215
f 141 144 143
f 118 99 117
f 103 105 113
f 146 147 145
f 132 133 131
f 170 171 169
f 168 169 167
f 134 135 133
f 163 166 165
f 135 123 127
f 136 137 135
f 240 241 239
f 160 161 159
f 138 119 137
f 124 136 132
f 166 167 165
f 152 153 151
f 190 191 189
f 188 189 187
f 154 155 153
f 183 186 185
f 139 143 147
f 156 157 155
f 180 181 179
f 158 139 157
f 140 156 152
f 186 187 185
f 172 173 171
f 210 211 209
f 208 209 207
f 174 175 173
f 204 205 203
f 167 175 159
f 176 177 175
f 200 201 199
f 178 159 177
f 164 176 172
f 206 207 205
f 192 193 191
f 232 233 231
f 194 195 193
f 238 239 237
f 191 179 183
f 196 197 195
f 222 223 221
f 198 179 197
f 180 196 192
f 199 201 209
f 212 213 211
f 218 219 217
f 224 225 223
f 214 199 213
f 204 200 212
f 236 237 235
f 226 227 225
f 224 222 230
f 228 229 227
f 230 215 229
f 223 227 215
f 242 243 241
f 243 231 235
f 244 245 243
f 246 231 245
f 244 242 234
f 302 303 301
f 296 297 295
f 272 273 271
f 318 319 317
f 273 276 275
f 454 455 453
f 472 473 471
f 276 277 275
f 300 301 299
f 294 295 293
f 278 279 277
f 434 435 433
f 280 281 279
f 486 487 485
f 338 339 337
f 282 283 281
f 298 299 297
f 292 293 291
f 284 285 283
f 313 316 315
f 316 317 315
f 286 287 285
f 272 288 280
f 322 323 321
f 288 289 287
f 357 360 359
f 320 321 319
f 290 271 289
f 281 285 289
f 312 313 311
f 304 305 303
f 334 335 333
f 336 337 335
f 306 307 305
f 292 304 300
f 342 343 341
f 308 309 307
f 377 380 379
f 340 341 339
f 310 291 309
f 309 297 301
f 332 333 331
f 324 325 323
f 354 355 353
f 356 357 355
f 326 327 325
f 314 330 322
f 362 363 361
f 328 329 327
f 392 393 391
f 360 361 359
f 330 311 329
f 321 329 313
f 352 353 351
f 344 345 343
f 374 375 373
f 376 377 375
f 346 347 345
f 332 348 344
f 382 383 381
f 348 349 347
f 414 415 413
f 380 381 379
f 350 331 349
f 331 335 339
f 372 373 371
f 364 365 363
f 400 401 399
f 402 403 401
f 366 367 365
f 370 362 358
f 396 397 395
f 368 369 367
f 468 469 467
f 393 396 395
f 370 351 369
f 355 357 365
f 398 399 397
f 384 385 383
f 422 423 421
f 420 421 419
f 386 387 385
f 415 418 417
f 371 375 379
f 388 389 387
f 492 493 491
f 412 413 411
f 390 371 389
f 372 388 384
f 418 419 417
f 404 405 403
f 442 443 441
f 440 441 439
f 406 407 405
f 435 438 437
f 391 395 399
f 408 409 407
f 432 433 431
f 410 391 409
f 392 408 404
f 438 439 437
f 424 425 423
f 462 463 461
f 460 461 459
f 426 427 425
f 456 457 455
f 419 427 411
f 428 429 427
f 452 453 451
f 430 411 429
f 416 428 424
f 458 459 457
f 444 445 443
f 484 485 483
f 446 447 445
f 490 491 489
f 443 431 435
f 448 449 447
f 474 475 473
f 450 431 449
f 436 448 444
f 451 453 461
f 464 465 463
f 470 471 469
f 476 477 475
f 466 451 465
f 456 452 464
f 488 489 487
f 478 479 477
f 476 474 482
f 480 481 479
f 482 467 481
f 475 479 467
f 494 495 493
f 495 483 487
f 496 497 495
f 498 483 497
f 496 494 486
f 32 30 36
f 24 20 28
f 36 34 32
f 37 19 25
f 30 28 36
f 28 26 24
f 20 38 36
f 24 22 20
f 19 21 25
f 21 23 25
f 25 27 29
f 29 31 33
f 33 35 37
f 25 29 37
f 48 46 44
f 44 42 48
f 42 40 48
f 40 58 52
f 58 56 52
f 56 54 52
f 52 50 40
f 49 51 57
f 51 53 57
f 53 55 57
f 57 39 45
f 39 41 45
f 41 43 45
f 45 47 49
f 66 64 62
f 62 60 78
f 78 76 74
f 74 72 78
f 72 70 78
f 70 68 66
f 66 62 70
f 61 63 65
f 65 67 69
f 69 71 73
f 73 75 77
f 77 59 61
f 61 65 69
f 69 73 77
f 92 90 88
f 88 86 92
f 86 84 92
f 84 82 80
f 80 98 96
f 96 94 92
f 84 80 96
f 87 89 91
f 91 93 87
f 93 95 87
f 95 97 79
f 79 81 83
f 83 85 87
f 95 79 83
f 106 104 118
f 104 102 118
f 102 100 118
f 118 116 114
f 114 112 118
f 112 110 118
f 110 108 106
f 105 107 113
f 107 109 113
f 109 111 113
f 113 115 101
f 115 117 101
f 117 99 101
f 101 103 113
f 127 129 131
f 131 133 127
f 133 135 127
f 135 137 119
f 119 121 123
f 123 125 127
f 135 119 123
f 132 130 128
f 128 126 132
f 126 124 132
f 124 122 120
f 120 138 136
f 136 134 132
f 124 120 136
f 147 149 151
f 151 153 155
f 155 157 139
f 139 141 143
f 143 145 147
f 147 151 155
f 155 139 147
f 152 150 148
f 148 146 144
f 144 142 140
f 140 158 156
f 156 154 152
f 152 148 144
f 144 140 152
f 159 161 167
f 161 163 167
f 163 165 167
f 167 169 171
f 171 173 167
f 173 175 167
f 175 177 159
f 172 170 164
f 170 168 164
f 168 166 164
f 164 162 176
f 162 160 176
f 160 178 176
f 176 174 172
f 183 185 187
f 187 189 183
f 189 191 183
f 191 193 195
f 195 197 191
f 197 179 191
f 179 181 183
f 192 190 188
f 188 186 192
f 186 184 192
f 184 182 180
f 180 198 196
f 196 194 192
f 184 180 192
f 201 203 205
f 205 207 201
f 207 209 201
f 209 211 213
f 213 199 209
f 212 210 208
f 208 206 204
f 204 202 200
f 200 214 212
f 212 208 204
f 222 220 218
f 218 216 222
f 216 230 222
f 230 228 226
f 226 224 230
f 219 221 223
f 223 225 227
f 227 229 215
f 215 217 219
f 219 223 215
f 235 237 239
f 239 241 243
f 243 245 231
f 231 233 235
f 235 239 243
f 242 240 238
f 238 236 242
f 236 234 242
f 234 232 246
f 246 244 234
f 276 274 272
f 272 290 288
f 288 286 284
f 284 282 288
f 282 280 288
f 280 278 276
f 276 272 280
f 289 271 277
f 271 273 277
f 273 275 277
f 277 279 281
f 281 283 285
f 285 287 289
f 277 281 289
f 300 298 296
f 296 294 300
f 294 292 300
f 292 310 308
f 308 306 304
f 304 302 300
f 292 308 304
f 301 303 309
f 303 305 309
f 305 307 309
f 309 291 297
f 291 293 297
f 293 295 297
f 297 299 301
f 318 316 314
f 314 312 330
f 330 328 326
f 326 324 330
f 324 322 330
f 322 320 318
f 318 314 322
f 313 315 317
f 317 319 313
f 319 321 313
f 321 323 325
f 325 327 321
f 327 329 321
f 329 311 313
f 344 342 340
f 340 338 336
f 336 334 332
f 332 350 348
f 348 346 344
f 344 340 336
f 336 332 344
f 339 341 343
f 343 345 347
f 347 349 331
f 331 333 335
f 335 337 339
f 339 343 347
f 347 331 339
f 358 356 370
f 356 354 370
f 354 352 370
f 370 368 366
f 366 364 370
f 364 362 370
f 362 360 358
f 357 359 365
f 359 361 365
f 361 363 365
f 365 367 353
f 367 369 353
f 369 351 353
f 353 355 365
f 379 381 383
f 383 385 387
f 387 389 371
f 371 373 375
f 375 377 379
f 379 383 387
f 387 371 379
f 384 382 380
f 380 378 376
f 376 374 372
f 372 390 388
f 388 386 384
f 384 380 376
f 376 372 384
f 399 401 407
f 401 403 407
f 403 405 407
f 407 409 391
f 391 393 395
f 395 397 399
f 407 391 399
f 404 402 396
f 402 400 396
f 400 398 396
f 396 394 392
f 392 410 408
f 408 406 404
f 396 392 404
f 411 413 419
f 413 415 419
f 415 417 419
f 419 421 423
f 423 425 427
f 427 429 411
f 419 423 427
f 424 422 420
f 420 418 416
f 416 414 428
f 414 412 428
f 412 430 428
f 428 426 424
f 424 420 416
f 435 437 439
f 439 441 435
f 441 443 435
f 443 445 447
f 447 449 443
f 449 431 443
f 431 433 435
f 444 442 440
f 440 438 444
f 438 436 444
f 436 434 432
f 432 450 436
f 450 448 436
f 448 446 444
f 453 455 457
f 457 459 453
f 459 461 453
f 461 463 465
f 465 451 461
f 464 462 460
f 460 458 456
f 456 454 452
f 452 466 464
f 464 460 456
f 474 472 470
f 470 468 474
f 468 482 474
f 482 480 478
f 478 476 482
f 471 473 475
f 475 477 479
f 479 481 467
f 467 469 471
f 471 475 467
f 487 489 491
f 491 493 495
f 495 497 483
f 483 485 487
f 487 491 495
f 494 492 490
f 490 488 494
f 488 486 494
f 486 484 498
f 498 496 486
f 50 52 51
f 44 46 45
f 20 22 21
f 66 68 67
f 21 22 24
f 202 204 203
f 220 222 221
f 24 26 25
f 48 50 49
f 42 44 43
f 26 28 27
f 182 184 183
f 28 30 29
f 234 236 235
f 86 88 87
f 30 32 31
f 46 48 47
f 40 42 41
f 32 34 33
f 61 62 64
f 64 66 65
f 34 36 35
f 70 72 71
f 36 38 37
f 105 106 108
f 68 70 69
f 38 20 19
f 60 62 61
f 52 54 53
f 82 84 83
f 84 86 85
f 54 56 55
f 90 92 91
f 56 58 57
f 125 126 128
f 88 90 89
f 58 40 39
f 80 82 81
f 72 74 73
f 102 104 103
f 104 106 105
f 74 76 75
f 110 112 111
f 76 78 77
f 140 142 141
f 108 110 109
f 78 60 59
f 100 102 101
f 92 94 93
f 122 124 123
f 124 126 125
f 94 96 95
f 130 132 131
f 96 98 97
f 162 164 163
f 128 130 129
f 98 80 79
f 120 122 121
f 112 114 113
f 148 150 149
f 150 152 151
f 114 116 115
f 144 146 145
f 116 118 117
f 216 218 217
f 141 142 144
f 118 100 99
f 146 148 147
f 132 134 133
f 170 172 171
f 168 170 169
f 134 136 135
f 163 164 166
f 136 138 137
f 240 242 241
f 160 162 161
f 138 120 119
f 166 168 167
f 152 154 153
f 190 192 191
f 188 190 189
f 154 156 155
f 183 184 186
f 156 158 157
f 180 182 181
f 158 140 139
f 186 188 187
f 172 174 173
f 210 212 211
f 208 210 209
f 174 176 175
f 204 206 205
f 176 178 177
f 200 202 201
f 178 160 159
f 206 208 207
f 192 194 193
f 232 234 233
f 194 196 195
f 238 240 239
f 196 198 197
f 222 224 223
f 198 180 179
f 212 214 213
f 218 220 219
f 224 226 225
f 214 200 199
f 236 238 237
f 226 228 227
f 228 230 229
f 230 216 215
f 242 244 243
f 244 246 245
f 246 232 231
f 302 304 303
f 296 298 297
f 272 274 273
f 318 320 319
f 273 274 276
f 454 456 455
f 472 474 473
f 276 278 277
f 300 302 301
f 294 296 295
f 278 280 279
f 434 436 435
f 280 282 281
f 486 488 487
f 338 340 339
f 282 284 283
f 298 300 299
f 292 294 293
f 284 286 285
f 313 314 316
f 316 318 317
f 286 288 287
f 322 324 323
f 288 290 289
f 357 358 360
f 320 322 321
f 290 272 271
f 312 314 313
f 304 306 305
f 334 336 335
f 336 338 337
f 306 308 307
f 342 344 343
f 308 310 309
f 377 378 380
f 340 342 341
f 310 292 291
f 332 334 333
f 324 326 325
f 354 356 355
f 356 358 357
f 326 328 327
f 362 364 363
f 328 330 329
f 392 394 393
f 360 362 361
f 330 312 311
f 352 354 353
f 344 346 345
f 374 376 375
f 376 378 377
f 346 348 347
f 382 384 383
f 348 350 349
f 414 416 415
f 380 382 381
f 350 332 331
f 372 374 373
f 364 366 365
f 400 402 401
f 402 404 403
f 366 368 367
f 396 398 397
f 368 370 369
f 468 470 469
f 393 394 396
f 370 352 351
f 398 400 399
f 384 386 385
f 422 424 423
f 420 422 421
f 386 388 387
f 415 416 418
f 388 390 389
f 492 494 493
f 412 414 413
f 390 372 371
f 418 420 419
f 404 406 405
f 442 444 443
f 440 442 441
f 406 408 407
f 435 436 438
f 408 410 409
f 432 434 433
f 410 392 391
f 438 440 439
f 424 426 425
f 462 464 463
f 460 462 461
f 426 428 427
f 456 458 457
f 428 430 429
f 452 454 453
f 430 412 411
f 458 460 459
f 444 446 445
f 484 486 485
f 446 448 447
f 490 492 491
f 448 450 449
f 474 476 475
f 450 432 431
f 464 466 465
f 470 472 471
f 476 478 477
f 466 452 451
f 488 490 489
f 478 480 479
f 480 482 481
f 482 468 467
f 494 496 495
f 496 498 497
f 498 484 483
usemtl Mat2
f 250 17 249
f 251 17 247
f 252 249 251
f 248 251 247
f 18 247 17
f 248 250 252
f 502 269 501
f 503 269 499
f 504 501 503
f 500 503 499
f 270 499 269
f 500 502 504
f 518 519 517
f 520 523 519
f 524 521 523
f 522 517 521
f 523 517 519
f 520 522 524
f 526 527 525
f 528 531 527
f 532 529 531
f 530 525 529
f 531 525 527
f 528 530 532
f 584 586 588
f 582 583 581
f 552 554 556
f 555 534 551
f 554 534 553
f 584 587 583
f 556 553 555
f 552 555 551
f 533 551 534
f 579 557 575
f 578 557 577
f 587 581 583
f 580 577 579
f 586 581 585
f 576 579 575
f 588 585 587
f 558 575 557
f 576 578 580
f 598 599 597
f 600 603 599
f 604 601 603
f 602 597 601
f 603 597 599
f 600 602 604
f 606 607 605
f 608 611 607
f 612 609 611
f 610 605 609
f 611 605 607
f 608 610 612
f 614 615 613
f 616 619 615
f 620 617 619
f 618 613 617
f 619 613 615
f 616 618 620
f 622 623 621
f 624 627 623
f 628 625 627
f 626 621 625
f 627 621 623
f 624 626 628
f 630 631 629
f 632 635 631
f 636 633 635
f 634 629 633
f 635 629 631
f 632 634 636
f 654 655 653
f 656 659 655
f 660 657 659
f 658 653 657
f 659 653 655
f 656 658 660
f 670 671 669
f 672 675 671
f 676 673 675
f 674 669 673
f 675 669 671
f 672 674 676
f 838 839 837
f 832 833 831
f 836 837 835
f 830 831 829
f 883 865 879
f 834 835 833
f 828 829 827
f 840 841 839
f 842 843 841
f 880 882 884
f 829 833 837
f 844 845 843
f 846 827 845
f 838 836 828
f 884 881 883
f 880 883 879
f 866 879 865
f 882 865 881
f 837 839 841
f 841 843 845
f 845 827 829
f 829 831 833
f 833 835 837
f 837 841 845
f 845 829 837
f 836 834 832
f 832 830 836
f 830 828 836
f 828 846 840
f 846 844 840
f 844 842 840
f 840 838 828
f 250 18 17
f 251 249 17
f 252 250 249
f 248 252 251
f 18 248 247
f 248 18 250
f 502 270 269
f 503 501 269
f 504 502 501
f 500 504 503
f 270 500 499
f 500 270 502
f 518 520 519
f 520 524 523
f 524 522 521
f 522 518 517
f 523 521 517
f 520 518 522
f 526 528 527
f 528 532 531
f 532 530 529
f 530 526 525
f 531 529 525
f 528 526 530
f 584 582 586
f 582 584 583
f 552 533 554
f 555 553 534
f 554 533 534
f 584 588 587
f 556 554 553
f 552 556 555
f 533 552 551
f 579 577 557
f 578 558 557
f 587 585 581
f 580 578 577
f 586 582 581
f 576 580 579
f 588 586 585
f 558 576 575
f 576 558 578
f 598 600 599
f 600 604 603
f 604 602 601
f 602 598 597
f 603 601 597
f 600 598 602
f 606 608 607
f 608 612 611
f 612 610 609
f 610 606 605
f 611 609 605
f 608 606 610
f 614 616 615
f 616 620 619
f 620 618 617
f 618 614 613
f 619 617 613
f 616 614 618
f 622 624 623
f 624 628 627
f 628 626 625
f 626 622 621
f 627 625 621
f 624 622 626
f 630 632 631
f 632 636 635
f 636 634 633
f 634 630 629
f 635 633 629
f 632 630 634
f 654 656 655
f 656 660 659
f 660 658 657
f 658 654 653
f 659 657 653
f 656 654 658
f 670 672 671
f 672 676 675
f 676 674 673
f 674 670 669
f 675 673 669
f 672 670 674
f 838 840 839
f 832 834 833
f 836 838 837
f 830 832 831
f 883 881 865
f 834 836 835
f 828 830 829
f 840 842 841
f 842 844 843
f 880 866 882
f 844 846 845
f 846 828 827
f 884 882 881
f 880 884 883
f 866 880 879
f 882 866 865
usemtl Mat3
f 513 508 507
f 515 510 509
f 512 511 515
f 512 507 506
f 516 505 510
f 508 509 506
f 514 509 508
f 511 506 505
f 638 640 637
f 643 641 644
f 641 638 637
f 642 639 638
f 639 644 640
f 644 637 640
f 648 646 645
f 652 650 651
f 645 650 649
f 647 650 646
f 648 651 647
f 645 652 648
f 810 811 809
f 808 809 807
f 812 813 811
f 814 815 813
f 816 817 815
f 818 819 817
f 820 821 819
f 822 823 821
f 820 816 812
f 824 825 823
f 826 807 825
f 817 821 825
f 511 516 515
f 515 514 512
f 514 513 512
f 510 505 509
f 505 506 509
f 506 507 508
f 812 810 808
f 808 826 824
f 824 822 820
f 820 818 816
f 816 814 812
f 812 808 824
f 824 820 812
f 825 807 809
f 809 811 813
f 813 815 817
f 817 819 821
f 821 823 825
f 825 809 813
f 813 817 825
f 513 514 508
f 515 516 510
f 512 513 507
f 516 511 505
f 514 515 509
f 511 512 506
f 638 639 640
f 643 642 641
f 641 642 638
f 642 643 639
f 639 643 644
f 644 641 637
f 648 647 646
f 652 649 650
f 645 646 650
f 647 651 650
f 648 652 651
f 645 649 652
f 810 812 811
f 808 810 809
f 812 814 813
f 814 816 815
f 816 818 817
f 818 820 819
f 820 822 821
f 822 824 823
f 824 826 825
f 826 808 807
usemtl Mat4
f 536 537 535
f 564 565 563
f 538 539 537
f 562 563 561
f 540 541 539
f 542 543 541
f 544 545 543
f 560 561 559
f 546 547 545
f 542 540 548
f 548 549 547
f 550 535 549
f 541 545 549
f 566 567 565
f 568 569 567
f 570 571 569
f 565 569 573
f 572 573 571
f 574 559 573
f 564 560 572
f 540 538 536
f 536 550 540
f 550 548 540
f 548 546 544
f 544 542 548
f 549 535 537
f 537 539 541
f 541 543 545
f 545 547 549
f 549 537 541
f 573 559 561
f 561 563 565
f 565 567 569
f 569 571 573
f 573 561 565
f 568 566 564
f 564 562 560
f 560 574 572
f 572 570 568
f 568 564 572
f 536 538 537
f 564 566 565
f 538 540 539
f 562 564 563
f 540 542 541
f 542 544 543
f 544 546 545
f 560 562 561
f 546 548 547
f 548 550 549
f 550 536 535
f 566 568 567
f 568 570 569
f 570 572 571
f 572 574 573
f 574 560 559
usemtl Mat5
f 678 679 677
f 680 683 679
f 684 681 683
f 682 677 681
f 683 677 679
f 680 682 684
f 685 743 686
f 744 747 743
f 744 746 748
f 747 686 743
f 748 745 747
f 746 686 745
f 678 680 679
f 680 684 683
f 684 682 681
f 682 678 677
f 683 681 677
f 680 678 682
f 685 744 743
f 744 748 747
f 744 685 746
f 747 745 686
f 748 746 745
f 746 685 686
usemtl Mat6
f 741 737 739
f 740 741 739
f 738 739 737
f 736 737 735
f 805 801 803
f 742 735 741
f 740 736 742
f 804 805 803
f 802 803 801
f 800 801 799
f 806 799 805
f 804 800 806
f 741 735 737
f 740 742 741
f 738 740 739
f 736 738 737
f 805 799 801
f 742 736 735
f 740 738 736
f 804 806 805
f 802 804 803
f 800 802 801
f 806 800 799
f 804 802 800
