# source: models.blend / Military_Assets / 26_Attack_Helo
# generated by tools/export_builtin_obj.py (Task69) - do not hand-edit
mtllib Unit_AttackHeli.mtl
v -0.2000 2.3500 -6.6000
v -0.3400 2.1800 -4.8000
v 0.3400 2.1800 -4.8000
v 0.2000 2.3500 -6.6000
v -0.2000 2.8500 -6.6000
v -0.3400 2.9600 -4.8000
v 0.3400 2.9600 -4.8000
v 0.2000 2.8500 -6.6000
v -0.3400 2.1800 -4.8000
v -0.5600 1.9500 -2.6000
v 0.5600 1.9500 -2.6000
v 0.3400 2.1800 -4.8000
v -0.3400 2.9600 -4.8000
v -0.5600 3.0600 -2.6000
v 0.5600 3.0600 -2.6000
v 0.3400 2.9600 -4.8000
v -0.5600 1.9500 -2.6000
v -0.7400 1.7500 -0.6000
v 0.7400 1.7500 -0.6000
v 0.5600 1.9500 -2.6000
v -0.5600 3.0600 -2.6000
v -0.7400 3.1600 -0.6000
v 0.7400 3.1600 -0.6000
v 0.5600 3.0600 -2.6000
v -0.7400 1.7500 -0.6000
v -0.7600 1.7000 1.8000
v 0.7600 1.7000 1.8000
v 0.7400 1.7500 -0.6000
v -0.7400 3.1600 -0.6000
v -0.7600 3.2400 1.8000
v 0.7600 3.2400 1.8000
v 0.7400 3.1600 -0.6000
v -0.7600 1.7000 1.8000
v -0.7000 1.7000 3.6000
v 0.7000 1.7000 3.6000
v 0.7600 1.7000 1.8000
v -0.7600 3.2400 1.8000
v -0.7000 3.3400 3.6000
v 0.7000 3.3400 3.6000
v 0.7600 3.2400 1.8000
v -0.7000 1.7000 3.6000
v -0.6000 1.7200 5.0000
v 0.6000 1.7200 5.0000
v 0.7000 1.7000 3.6000
v -0.7000 3.3400 3.6000
v -0.6000 3.0600 5.0000
v 0.6000 3.0600 5.0000
v 0.7000 3.3400 3.6000
v -0.6000 1.7200 5.0000
v -0.4400 1.8000 6.2000
v 0.4400 1.8000 6.2000
v 0.6000 1.7200 5.0000
v -0.6000 3.0600 5.0000
v -0.4400 2.7200 6.2000
v 0.4400 2.7200 6.2000
v 0.6000 3.0600 5.0000
v -0.4400 1.8000 6.2000
v -0.1600 1.9500 7.0000
v 0.1600 1.9500 7.0000
v 0.4400 1.8000 6.2000
v -0.4400 2.7200 6.2000
v -0.1600 2.4200 7.0000
v 0.1600 2.4200 7.0000
v 0.4400 2.7200 6.2000
v -0.1400 2.4400 -8.6000
v -0.2000 2.3500 -6.6000
v 0.2000 2.3500 -6.6000
v 0.1400 2.4400 -8.6000
v -0.1400 2.7800 -8.6000
v -0.2000 2.8500 -6.6000
v 0.2000 2.8500 -6.6000
v 0.1400 2.7800 -8.6000
v -0.6200 3.0500 3.0500
v -0.5800 2.9500 4.1000
v 0.5800 2.9500 4.1000
v 0.6200 3.0500 3.0500
v -0.6200 3.4200 3.0500
v -0.5800 3.3000 4.1000
v 0.5800 3.3000 4.1000
v 0.6200 3.4200 3.0500
v -0.5800 2.9500 4.1000
v -0.5600 2.8600 4.2000
v 0.5600 2.8600 4.2000
v 0.5800 2.9500 4.1000
v -0.5800 3.3000 4.1000
v -0.5600 3.2200 4.2000
v 0.5600 3.2200 4.2000
v 0.5800 3.3000 4.1000
v -0.5600 2.8600 4.2000
v -0.5000 2.7800 5.3000
v 0.5000 2.7800 5.3000
v 0.5600 2.8600 4.2000
v -0.5600 3.2200 4.2000
v -0.5000 3.0200 5.3000
v 0.5000 3.0200 5.3000
v 0.5600 3.2200 4.2000
v -0.5000 2.7800 5.3000
v -0.3400 2.6600 6.1000
v 0.3400 2.6600 6.1000
v 0.5000 2.7800 5.3000
v -0.5000 3.0200 5.3000
v -0.3400 2.8000 6.1000
v 0.3400 2.8000 6.1000
v 0.5000 3.0200 5.3000
v -0.6000 2.9900 4.1000
v -0.6000 3.4100 4.1000
v 0.6000 2.9900 4.1000
v 0.6000 3.4100 4.1000
v -0.6000 2.9900 4.2000
v -0.6000 3.4100 4.2000
v 0.6000 2.9900 4.2000
v 0.6000 3.4100 4.2000
v 0.0000 2.0980 5.5500
v 0.4300 2.6000 -0.4000
v 0.4500 2.4900 7.0250
v 0.4500 2.0700 7.0250
v 0.0300 2.4900 7.0250
v 0.0300 2.0700 7.0250
v 0.0000 1.3420 5.5500
v 0.4500 2.4900 6.4750
v 0.1699 2.0474 5.6858
v 0.2943 1.9090 5.7852
v 0.3398 1.7200 5.8216
v 0.2943 1.5310 5.7852
v 0.1699 1.3926 5.6858
v 0.4500 2.0700 6.4750
v 0.0530 1.4334 7.0220
v 0.0649 2.0474 5.7697
v 0.1124 1.9090 5.9305
v 0.1298 1.7200 5.9894
v 0.1124 1.5310 5.9305
v 0.0649 1.3926 5.7697
v 0.0530 1.7109 5.4970
v 0.0000 1.4550 7.0259
v -0.0649 2.0474 5.7697
v -0.1124 1.9090 5.9305
v -0.1298 1.7200 5.9894
v -0.1124 1.5310 5.9305
v -0.0649 1.3926 5.7697
v 0.0000 1.7325 5.5009
v -0.0530 1.4334 7.0220
v -0.1699 2.0474 5.6858
v -0.2943 1.9090 5.7852
v -0.3398 1.7200 5.8216
v -0.2943 1.5310 5.7852
v -0.1699 1.3926 5.6858
v -0.0530 1.7109 5.4970
v -0.0750 1.3813 7.0125
v -0.2100 2.0474 5.5500
v -0.3637 1.9090 5.5500
v -0.4200 1.7200 5.5500
v -0.3637 1.5310 5.5500
v -0.2100 1.3926 5.5500
v -0.0750 1.6587 5.4875
v -0.0530 1.3291 7.0030
v -0.1699 2.0474 5.4142
v -0.2943 1.9090 5.3148
v -0.3398 1.7200 5.2784
v -0.2943 1.5310 5.3148
v -0.1699 1.3926 5.4142
v -0.0530 1.6066 5.4780
v 0.0000 1.3075 6.9991
v -0.0649 2.0474 5.3303
v -0.1124 1.9090 5.1695
v -0.1298 1.7200 5.1106
v -0.1124 1.5310 5.1695
v -0.0649 1.3926 5.3303
v 0.0000 1.5850 5.4741
v 0.0530 1.3291 7.0030
v 0.0649 2.0474 5.3303
v 0.1124 1.9090 5.1695
v 0.1298 1.7200 5.1106
v 0.1124 1.5310 5.1695
v 0.0649 1.3926 5.3303
v 0.0530 1.6066 5.4780
v 0.0750 1.3813 7.0125
v 0.1699 2.0474 5.4142
v 0.2943 1.9090 5.3148
v 0.3398 1.7200 5.2784
v 0.2943 1.5310 5.3148
v 0.1699 1.3926 5.4142
v 0.0750 1.6587 5.4875
v 0.0300 2.0700 6.4750
v 0.2100 2.0474 5.5500
v 0.3637 1.9090 5.5500
v 0.4200 1.7200 5.5500
v 0.3637 1.5310 5.5500
v 0.2100 1.3926 5.5500
v 0.0300 2.4900 6.4750
v 0.4300 3.5000 -0.4000
v 1.5300 2.6000 -0.4000
v 1.5300 3.5000 -0.4000
v 0.4300 2.6000 2.2000
v 0.4300 3.5000 2.2000
v 1.5300 2.6000 2.2000
v 1.5300 3.5000 2.2000
v 2.2000 2.2900 0.3250
v 2.2000 2.7100 0.3250
v 1.2800 3.0500 -0.8250
v 1.2800 3.0500 -0.1750
v 1.1921 2.8379 -0.8250
v 1.1921 2.8379 -0.1750
v 0.9800 2.7500 -0.8250
v 0.9800 2.7500 -0.1750
v 0.7679 2.8379 -0.8250
v 0.7679 2.8379 -0.1750
v 0.6800 3.0500 -0.8250
v 0.6800 3.0500 -0.1750
v 0.7679 3.2621 -0.8250
v 0.7679 3.2621 -0.1750
v 0.9800 3.3500 -0.8250
v 0.9800 3.3500 -0.1750
v 1.1921 3.2621 -0.8250
v 1.1921 3.2621 -0.1750
v 2.6200 2.2000 -0.4000
v 2.6200 2.2000 1.5000
v 2.5589 2.0119 -0.4000
v 2.5589 2.0119 1.5000
v 2.3989 1.8957 -0.4000
v 2.3989 1.8957 1.5000
v 2.2011 1.8957 -0.4000
v 2.2011 1.8957 1.5000
v 2.0411 2.0119 -0.4000
v 2.0411 2.0119 1.5000
v 1.9800 2.2000 -0.4000
v 1.9800 2.2000 1.5000
v 2.0411 2.3881 -0.4000
v 2.0411 2.3881 1.5000
v 2.2011 2.5043 -0.4000
v 2.2011 2.5043 1.5000
v 2.3989 2.5043 -0.4000
v 2.3989 2.5043 1.5000
v 2.5589 2.3881 -0.4000
v 2.5589 2.3881 1.5000
v 2.6000 2.2000 1.4400
v 2.6000 2.2000 1.6000
v 2.5427 2.0237 1.4400
v 2.5427 2.0237 1.6000
v 2.3927 1.9147 1.4400
v 2.3927 1.9147 1.6000
v 2.2073 1.9147 1.4400
v 2.2073 1.9147 1.6000
v 2.0573 2.0237 1.4400
v 2.0573 2.0237 1.6000
v 2.0000 2.2000 1.4400
v 2.0000 2.2000 1.6000
v 2.0573 2.3763 1.4400
v 2.0573 2.3763 1.6000
v 2.2073 2.4853 1.4400
v 2.2073 2.4853 1.6000
v 2.3927 2.4853 1.4400
v 2.3927 2.4853 1.6000
v 2.5427 2.3763 1.4400
v 2.5427 2.3763 1.6000
v 2.4000 2.2900 0.3250
v 2.4000 2.7100 0.3250
v 2.2000 2.2900 0.7750
v 2.2000 2.7100 0.7750
v 2.4000 2.2900 0.7750
v 2.4000 2.7100 0.7750
v 1.3350 2.1550 -0.3540
v 1.3350 2.1250 -0.3540
v 1.4100 2.1400 -0.3060
v 1.4100 2.1400 1.0060
v 1.3924 2.0976 -0.3060
v 1.3924 2.0976 1.0060
v 1.3500 2.0800 -0.3060
v 1.3500 2.0800 1.0060
v 1.3076 2.0976 -0.3060
v 1.3076 2.0976 1.0060
v 1.2900 2.1400 -0.3060
v 1.2900 2.1400 1.0060
v 1.3076 2.1824 -0.3060
v 1.3076 2.1824 1.0060
v 1.3500 2.2000 -0.3060
v 1.3500 2.2000 1.0060
v 1.3924 2.1824 -0.3060
v 1.3924 2.1824 1.0060
v 1.4100 2.1400 0.9900
v 1.3650 2.1400 1.3100
v 1.3924 2.0976 0.9900
v 1.3606 2.1294 1.3100
v 1.3500 2.0800 0.9900
v 1.3500 2.1250 1.3100
v 1.3076 2.0976 0.9900
v 1.3394 2.1294 1.3100
v 1.2900 2.1400 0.9900
v 1.3350 2.1400 1.3100
v 1.3076 2.1824 0.9900
v 1.3394 2.1506 1.3100
v 1.3500 2.2000 0.9900
v 1.3500 2.1550 1.3100
v 1.3924 2.1824 0.9900
v 1.3606 2.1506 1.3100
v 1.3650 2.1250 -0.3540
v 1.3650 2.1550 -0.3540
v 1.3350 2.1250 -0.0340
v 1.3350 2.1550 -0.0340
v 1.3650 2.1250 -0.0340
v 1.3650 2.1550 -0.0340
v 1.3350 2.1250 -0.3380
v 1.3350 2.1550 -0.3380
v 1.5650 2.1250 -0.3380
v 1.5650 2.1550 -0.3380
v 1.3350 2.1250 -0.0500
v 1.3350 2.1550 -0.0500
v 1.5650 2.1250 -0.0500
v 1.5650 2.1550 -0.0500
v 1.3350 2.1250 0.4620
v 1.3350 2.1550 0.4620
v 1.4850 2.1250 0.4620
v 1.4850 2.1550 0.4620
v 1.3350 2.1250 0.6860
v 1.3350 2.1550 0.6860
v 1.4850 2.1250 0.6860
v 1.4850 2.1550 0.6860
v 1.3650 2.1250 -0.3540
v 1.3350 2.1250 -0.3540
v 1.3650 2.1550 -0.3540
v 1.3350 2.1550 -0.3540
v 1.3650 2.1250 -0.0340
v 1.3350 2.1250 -0.0340
v 1.3650 2.1550 -0.0340
v 1.3350 2.1550 -0.0340
v 1.3350 2.1250 -0.3380
v 1.3350 2.3550 -0.3380
v 1.3650 2.1250 -0.3380
v 1.3650 2.3550 -0.3380
v 1.3350 2.1250 -0.0500
v 1.3350 2.3550 -0.0500
v 1.3650 2.1250 -0.0500
v 1.3650 2.3550 -0.0500
v 1.3350 2.1250 0.4620
v 1.3350 2.2750 0.4620
v 1.3650 2.1250 0.4620
v 1.3650 2.2750 0.4620
v 1.3350 2.1250 0.6860
v 1.3350 2.2750 0.6860
v 1.3650 2.1250 0.6860
v 1.3650 2.2750 0.6860
v 1.3650 2.1550 -0.3540
v 1.3650 2.1250 -0.3540
v 1.3350 2.1550 -0.3540
v 1.3350 2.1250 -0.3540
v 1.3650 2.1550 -0.0340
v 1.3650 2.1250 -0.0340
v 1.3350 2.1550 -0.0340
v 1.3350 2.1250 -0.0340
v 1.1350 2.1250 -0.3380
v 1.1350 2.1550 -0.3380
v 1.3650 2.1250 -0.3380
v 1.3650 2.1550 -0.3380
v 1.1350 2.1250 -0.0500
v 1.1350 2.1550 -0.0500
v 1.3650 2.1250 -0.0500
v 1.3650 2.1550 -0.0500
v 1.3350 2.1550 -0.3540
v 1.3650 2.1550 -0.3540
v 1.3350 2.1250 -0.3540
v 1.3650 2.1250 -0.3540
v 1.3350 2.1550 -0.0340
v 1.3650 2.1550 -0.0340
v 1.3350 2.1250 -0.0340
v 1.3650 2.1250 -0.0340
v 1.3350 1.9250 -0.3380
v 1.3350 2.1550 -0.3380
v 1.3650 1.9250 -0.3380
v 1.3650 2.1550 -0.3380
v 1.3350 1.9250 -0.0500
v 1.3350 2.1550 -0.0500
v 1.3650 1.9250 -0.0500
v 1.3650 2.1550 -0.0500
v 1.6750 2.1550 -0.3540
v 1.6750 2.1250 -0.3540
v 1.7500 2.1400 -0.3060
v 1.7500 2.1400 1.0060
v 1.7324 2.0976 -0.3060
v 1.7324 2.0976 1.0060
v 1.6900 2.0800 -0.3060
v 1.6900 2.0800 1.0060
v 1.6476 2.0976 -0.3060
v 1.6476 2.0976 1.0060
v 1.6300 2.1400 -0.3060
v 1.6300 2.1400 1.0060
v 1.6476 2.1824 -0.3060
v 1.6476 2.1824 1.0060
v 1.6900 2.2000 -0.3060
v 1.6900 2.2000 1.0060
v 1.7324 2.1824 -0.3060
v 1.7324 2.1824 1.0060
v 1.7500 2.1400 0.9900
v 1.7050 2.1400 1.3100
v 1.7324 2.0976 0.9900
v 1.7006 2.1294 1.3100
v 1.6900 2.0800 0.9900
v 1.6900 2.1250 1.3100
v 1.6476 2.0976 0.9900
v 1.6794 2.1294 1.3100
v 1.6300 2.1400 0.9900
v 1.6750 2.1400 1.3100
v 1.6476 2.1824 0.9900
v 1.6794 2.1506 1.3100
v 1.6900 2.2000 0.9900
v 1.6900 2.1550 1.3100
v 1.7324 2.1824 0.9900
v 1.7006 2.1506 1.3100
v 1.7050 2.1250 -0.3540
v 1.7050 2.1550 -0.3540
v 1.6750 2.1250 -0.0340
v 1.6750 2.1550 -0.0340
v 1.7050 2.1250 -0.0340
v 1.7050 2.1550 -0.0340
v 1.6750 2.1250 -0.3380
v 1.6750 2.1550 -0.3380
v 1.9050 2.1250 -0.3380
v 1.9050 2.1550 -0.3380
v 1.6750 2.1250 -0.0500
v 1.6750 2.1550 -0.0500
v 1.9050 2.1250 -0.0500
v 1.9050 2.1550 -0.0500
v 1.6750 2.1250 0.4620
v 1.6750 2.1550 0.4620
v 1.8250 2.1250 0.4620
v 1.8250 2.1550 0.4620
v 1.6750 2.1250 0.6860
v 1.6750 2.1550 0.6860
v 1.8250 2.1250 0.6860
v 1.8250 2.1550 0.6860
v 1.7050 2.1250 -0.3540
v 1.6750 2.1250 -0.3540
v 1.7050 2.1550 -0.3540
v 1.6750 2.1550 -0.3540
v 1.7050 2.1250 -0.0340
v 1.6750 2.1250 -0.0340
v 1.7050 2.1550 -0.0340
v 1.6750 2.1550 -0.0340
v 1.6750 2.1250 -0.3380
v 1.6750 2.3550 -0.3380
v 1.7050 2.1250 -0.3380
v 1.7050 2.3550 -0.3380
v 1.6750 2.1250 -0.0500
v 1.6750 2.3550 -0.0500
v 1.7050 2.1250 -0.0500
v 1.7050 2.3550 -0.0500
v 1.6750 2.1250 0.4620
v 1.6750 2.2750 0.4620
v 1.7050 2.1250 0.4620
v 1.7050 2.2750 0.4620
v 1.6750 2.1250 0.6860
v 1.6750 2.2750 0.6860
v 1.7050 2.1250 0.6860
v 1.7050 2.2750 0.6860
v 1.7050 2.1550 -0.3540
v 1.7050 2.1250 -0.3540
v 1.6750 2.1550 -0.3540
v 1.6750 2.1250 -0.3540
v 1.7050 2.1550 -0.0340
v 1.7050 2.1250 -0.0340
v 1.6750 2.1550 -0.0340
v 1.6750 2.1250 -0.0340
v 1.4750 2.1250 -0.3380
v 1.4750 2.1550 -0.3380
v 1.7050 2.1250 -0.3380
v 1.7050 2.1550 -0.3380
v 1.4750 2.1250 -0.0500
v 1.4750 2.1550 -0.0500
v 1.7050 2.1250 -0.0500
v 1.7050 2.1550 -0.0500
v 1.6750 2.1550 -0.3540
v 1.7050 2.1550 -0.3540
v 1.6750 2.1250 -0.3540
v 1.7050 2.1250 -0.3540
v 1.6750 2.1550 -0.0340
v 1.7050 2.1550 -0.0340
v 1.6750 2.1250 -0.0340
v 1.7050 2.1250 -0.0340
v 1.6750 1.9250 -0.3380
v 1.6750 2.1550 -0.3380
v 1.7050 1.9250 -0.3380
v 1.7050 2.1550 -0.3380
v 1.6750 1.9250 -0.0500
v 1.6750 2.1550 -0.0500
v 1.7050 1.9250 -0.0500
v 1.7050 2.1550 -0.0500
v 1.4000 2.2500 0.1250
v 1.4000 2.5900 0.1250
v 1.6000 2.2500 0.1250
v 1.6000 2.5900 0.1250
v 1.4000 2.2500 0.5750
v 1.4000 2.5900 0.5750
v 1.6000 2.2500 0.5750
v 1.6000 2.5900 0.5750
v 0.6350 1.4500 0.8000
v 0.6350 1.7900 0.8000
v 1.6850 1.4500 0.8000
v 1.6850 1.7900 0.8000
v 0.6350 1.4500 1.6000
v 0.6350 1.7900 1.6000
v 1.6850 1.4500 1.6000
v 1.6850 1.7900 1.6000
v -0.4500 2.0700 6.4750
v -0.4500 2.4900 6.4750
v 1.6500 0.3000 1.2000
v 1.6500 1.6000 1.2000
v 1.6000 0.3000 1.2866
v 1.6000 1.6000 1.2866
v 1.5000 0.3000 1.2866
v 1.5000 1.6000 1.2866
v 1.4500 0.3000 1.2000
v 1.4500 1.6000 1.2000
v 1.5000 0.3000 1.1134
v 1.5000 1.6000 1.1134
v 1.6000 0.3000 1.1134
v 1.6000 1.6000 1.1134
v 1.7300 0.7200 1.2000
v 1.5100 0.7200 1.2000
v 1.7300 0.6512 1.4116
v 1.5100 0.6512 1.4116
v 1.7300 0.4712 1.5424
v 1.5100 0.4712 1.5424
v 1.7300 0.2488 1.5424
v 1.5100 0.2488 1.5424
v 1.7300 0.0688 1.4116
v 1.5100 0.0688 1.4116
v 1.7300 0.0000 1.2000
v 1.5100 0.0000 1.2000
v 1.7300 0.0688 0.9884
v 1.5100 0.0688 0.9884
v 1.7300 0.2488 0.8576
v 1.5100 0.2488 0.8576
v 1.7300 0.4712 0.8576
v 1.5100 0.4712 0.8576
v 1.7300 0.6512 0.9884
v 1.5100 0.6512 0.9884
v 1.7509 0.5472 1.2000
v 1.6739 0.5472 1.2000
v 1.7509 0.5114 1.3100
v 1.6739 0.5114 1.3100
v 1.7509 0.4178 1.3780
v 1.6739 0.4178 1.3780
v 1.7509 0.3022 1.3780
v 1.6739 0.3022 1.3780
v 1.7509 0.2086 1.3100
v 1.6739 0.2086 1.3100
v 1.7509 0.1728 1.2000
v 1.6739 0.1728 1.2000
v 1.7509 0.2086 1.0900
v 1.6739 0.2086 1.0900
v 1.7509 0.3022 1.0220
v 1.6739 0.3022 1.0220
v 1.7509 0.4178 1.0220
v 1.6739 0.4178 1.0220
v 1.7509 0.5114 1.0900
v 1.6739 0.5114 1.0900
v -0.0300 2.0700 6.4750
v -0.0300 2.4900 6.4750
v -0.4500 2.0700 7.0250
v -0.4500 2.4900 7.0250
v -0.0300 2.0700 7.0250
v -0.0300 2.4900 7.0250
v -1.5300 2.6000 -0.4000
v -1.5300 3.5000 -0.4000
v -0.4300 2.6000 -0.4000
v -0.4300 3.5000 -0.4000
v -1.5300 2.6000 2.2000
v -1.5300 3.5000 2.2000
v -0.4300 2.6000 2.2000
v -0.4300 3.5000 2.2000
v -2.4000 2.7100 0.3250
v -2.4000 2.2900 0.3250
v -0.6800 3.0500 -0.8250
v -0.6800 3.0500 -0.1750
v -0.7679 2.8379 -0.8250
v -0.7679 2.8379 -0.1750
v -0.9800 2.7500 -0.8250
v -0.9800 2.7500 -0.1750
v -1.1921 2.8379 -0.8250
v -1.1921 2.8379 -0.1750
v -1.2800 3.0500 -0.8250
v -1.2800 3.0500 -0.1750
v -1.1921 3.2621 -0.8250
v -1.1921 3.2621 -0.1750
v -0.9800 3.3500 -0.8250
v -0.9800 3.3500 -0.1750
v -0.7679 3.2621 -0.8250
v -0.7679 3.2621 -0.1750
v -1.9800 2.2000 -0.4000
v -1.9800 2.2000 1.5000
v -2.0411 2.0119 -0.4000
v -2.0411 2.0119 1.5000
v -2.2011 1.8957 -0.4000
v -2.2011 1.8957 1.5000
v -2.3989 1.8957 -0.4000
v -2.3989 1.8957 1.5000
v -2.5589 2.0119 -0.4000
v -2.5589 2.0119 1.5000
v -2.6200 2.2000 -0.4000
v -2.6200 2.2000 1.5000
v -2.5589 2.3881 -0.4000
v -2.5589 2.3881 1.5000
v -2.3989 2.5043 -0.4000
v -2.3989 2.5043 1.5000
v -2.2011 2.5043 -0.4000
v -2.2011 2.5043 1.5000
v -2.0411 2.3881 -0.4000
v -2.0411 2.3881 1.5000
v -2.0000 2.2000 1.4400
v -2.0000 2.2000 1.6000
v -2.0573 2.0237 1.4400
v -2.0573 2.0237 1.6000
v -2.2073 1.9147 1.4400
v -2.2073 1.9147 1.6000
v -2.3927 1.9147 1.4400
v -2.3927 1.9147 1.6000
v -2.5427 2.0237 1.4400
v -2.5427 2.0237 1.6000
v -2.6000 2.2000 1.4400
v -2.6000 2.2000 1.6000
v -2.5427 2.3763 1.4400
v -2.5427 2.3763 1.6000
v -2.3927 2.4853 1.4400
v -2.3927 2.4853 1.6000
v -2.2073 2.4853 1.4400
v -2.2073 2.4853 1.6000
v -2.0573 2.3763 1.4400
v -2.0573 2.3763 1.6000
v -2.2000 2.2900 0.3250
v -2.2000 2.7100 0.3250
v -2.4000 2.2900 0.7750
v -2.4000 2.7100 0.7750
v -2.2000 2.2900 0.7750
v -2.2000 2.7100 0.7750
v -1.3650 2.1250 -0.3540
v -1.3650 2.1550 -0.3540
v -1.2900 2.1400 -0.3060
v -1.2900 2.1400 1.0060
v -1.3076 2.0976 -0.3060
v -1.3076 2.0976 1.0060
v -1.3500 2.0800 -0.3060
v -1.3500 2.0800 1.0060
v -1.3924 2.0976 -0.3060
v -1.3924 2.0976 1.0060
v -1.4100 2.1400 -0.3060
v -1.4100 2.1400 1.0060
v -1.3924 2.1824 -0.3060
v -1.3924 2.1824 1.0060
v -1.3500 2.2000 -0.3060
v -1.3500 2.2000 1.0060
v -1.3076 2.1824 -0.3060
v -1.3076 2.1824 1.0060
v -1.2900 2.1400 0.9900
v -1.3350 2.1400 1.3100
v -1.3076 2.0976 0.9900
v -1.3394 2.1294 1.3100
v -1.3500 2.0800 0.9900
v -1.3500 2.1250 1.3100
v -1.3924 2.0976 0.9900
v -1.3606 2.1294 1.3100
v -1.4100 2.1400 0.9900
v -1.3650 2.1400 1.3100
v -1.3924 2.1824 0.9900
v -1.3606 2.1506 1.3100
v -1.3500 2.2000 0.9900
v -1.3500 2.1550 1.3100
v -1.3076 2.1824 0.9900
v -1.3394 2.1506 1.3100
v -1.3350 2.1250 -0.3540
v -1.3350 2.1550 -0.3540
v -1.3650 2.1250 -0.0340
v -1.3650 2.1550 -0.0340
v -1.3350 2.1250 -0.0340
v -1.3350 2.1550 -0.0340
v -1.3650 2.1250 -0.3380
v -1.3650 2.1550 -0.3380
v -1.1350 2.1250 -0.3380
v -1.1350 2.1550 -0.3380
v -1.3650 2.1250 -0.0500
v -1.3650 2.1550 -0.0500
v -1.1350 2.1250 -0.0500
v -1.1350 2.1550 -0.0500
v -1.3650 2.1250 0.4620
v -1.3650 2.1550 0.4620
v -1.2150 2.1250 0.4620
v -1.2150 2.1550 0.4620
v -1.3650 2.1250 0.6860
v -1.3650 2.1550 0.6860
v -1.2150 2.1250 0.6860
v -1.2150 2.1550 0.6860
v -1.3350 2.1250 -0.3540
v -1.3650 2.1250 -0.3540
v -1.3350 2.1550 -0.3540
v -1.3650 2.1550 -0.3540
v -1.3350 2.1250 -0.0340
v -1.3650 2.1250 -0.0340
v -1.3350 2.1550 -0.0340
v -1.3650 2.1550 -0.0340
v -1.3650 2.1250 -0.3380
v -1.3650 2.3550 -0.3380
v -1.3350 2.1250 -0.3380
v -1.3350 2.3550 -0.3380
v -1.3650 2.1250 -0.0500
v -1.3650 2.3550 -0.0500
v -1.3350 2.1250 -0.0500
v -1.3350 2.3550 -0.0500
v -1.3650 2.1250 0.4620
v -1.3650 2.2750 0.4620
v -1.3350 2.1250 0.4620
v -1.3350 2.2750 0.4620
v -1.3650 2.1250 0.6860
v -1.3650 2.2750 0.6860
v -1.3350 2.1250 0.6860
v -1.3350 2.2750 0.6860
v -1.3350 2.1550 -0.3540
v -1.3350 2.1250 -0.3540
v -1.3650 2.1550 -0.3540
v -1.3650 2.1250 -0.3540
v -1.3350 2.1550 -0.0340
v -1.3350 2.1250 -0.0340
v -1.3650 2.1550 -0.0340
v -1.3650 2.1250 -0.0340
v -1.5650 2.1250 -0.3380
v -1.5650 2.1550 -0.3380
v -1.3350 2.1250 -0.3380
v -1.3350 2.1550 -0.3380
v -1.5650 2.1250 -0.0500
v -1.5650 2.1550 -0.0500
v -1.3350 2.1250 -0.0500
v -1.3350 2.1550 -0.0500
v -1.3650 2.1550 -0.3540
v -1.3350 2.1550 -0.3540
v -1.3650 2.1250 -0.3540
v -1.3350 2.1250 -0.3540
v -1.3650 2.1550 -0.0340
v -1.3350 2.1550 -0.0340
v -1.3650 2.1250 -0.0340
v -1.3350 2.1250 -0.0340
v -1.3650 1.9250 -0.3380
v -1.3650 2.1550 -0.3380
v -1.3350 1.9250 -0.3380
v -1.3350 2.1550 -0.3380
v -1.3650 1.9250 -0.0500
v -1.3650 2.1550 -0.0500
v -1.3350 1.9250 -0.0500
v -1.3350 2.1550 -0.0500
v -1.7050 2.1550 -0.3540
v -1.7050 2.1250 -0.3540
v -1.6300 2.1400 -0.3060
v -1.6300 2.1400 1.0060
v -1.6476 2.0976 -0.3060
v -1.6476 2.0976 1.0060
v -1.6900 2.0800 -0.3060
v -1.6900 2.0800 1.0060
v -1.7324 2.0976 -0.3060
v -1.7324 2.0976 1.0060
v -1.7500 2.1400 -0.3060
v -1.7500 2.1400 1.0060
v -1.7324 2.1824 -0.3060
v -1.7324 2.1824 1.0060
v -1.6900 2.2000 -0.3060
v -1.6900 2.2000 1.0060
v -1.6476 2.1824 -0.3060
v -1.6476 2.1824 1.0060
v -1.6300 2.1400 0.9900
v -1.6750 2.1400 1.3100
v -1.6476 2.0976 0.9900
v -1.6794 2.1294 1.3100
v -1.6900 2.0800 0.9900
v -1.6900 2.1250 1.3100
v -1.7324 2.0976 0.9900
v -1.7006 2.1294 1.3100
v -1.7500 2.1400 0.9900
v -1.7050 2.1400 1.3100
v -1.7324 2.1824 0.9900
v -1.7006 2.1506 1.3100
v -1.6900 2.2000 0.9900
v -1.6900 2.1550 1.3100
v -1.6476 2.1824 0.9900
v -1.6794 2.1506 1.3100
v -1.6750 2.1250 -0.3540
v -1.6750 2.1550 -0.3540
v -1.7050 2.1250 -0.0340
v -1.7050 2.1550 -0.0340
v -1.6750 2.1250 -0.0340
v -1.6750 2.1550 -0.0340
v -1.7050 2.1250 -0.3380
v -1.7050 2.1550 -0.3380
v -1.4750 2.1250 -0.3380
v -1.4750 2.1550 -0.3380
v -1.7050 2.1250 -0.0500
v -1.7050 2.1550 -0.0500
v -1.4750 2.1250 -0.0500
v -1.4750 2.1550 -0.0500
v -1.7050 2.1250 0.4620
v -1.7050 2.1550 0.4620
v -1.5550 2.1250 0.4620
v -1.5550 2.1550 0.4620
v -1.7050 2.1250 0.6860
v -1.7050 2.1550 0.6860
v -1.5550 2.1250 0.6860
v -1.5550 2.1550 0.6860
v -1.6750 2.1250 -0.3540
v -1.7050 2.1250 -0.3540
v -1.6750 2.1550 -0.3540
v -1.7050 2.1550 -0.3540
v -1.6750 2.1250 -0.0340
v -1.7050 2.1250 -0.0340
v -1.6750 2.1550 -0.0340
v -1.7050 2.1550 -0.0340
v -1.7050 2.1250 -0.3380
v -1.7050 2.3550 -0.3380
v -1.6750 2.1250 -0.3380
v -1.6750 2.3550 -0.3380
v -1.7050 2.1250 -0.0500
v -1.7050 2.3550 -0.0500
v -1.6750 2.1250 -0.0500
v -1.6750 2.3550 -0.0500
v -1.7050 2.1250 0.4620
v -1.7050 2.2750 0.4620
v -1.6750 2.1250 0.4620
v -1.6750 2.2750 0.4620
v -1.7050 2.1250 0.6860
v -1.7050 2.2750 0.6860
v -1.6750 2.1250 0.6860
v -1.6750 2.2750 0.6860
v -1.6750 2.1550 -0.3540
v -1.6750 2.1250 -0.3540
v -1.7050 2.1550 -0.3540
v -1.7050 2.1250 -0.3540
v -1.6750 2.1550 -0.0340
v -1.6750 2.1250 -0.0340
v -1.7050 2.1550 -0.0340
v -1.7050 2.1250 -0.0340
v -1.9050 2.1250 -0.3380
v -1.9050 2.1550 -0.3380
v -1.6750 2.1250 -0.3380
v -1.6750 2.1550 -0.3380
v -1.9050 2.1250 -0.0500
v -1.9050 2.1550 -0.0500
v -1.6750 2.1250 -0.0500
v -1.6750 2.1550 -0.0500
v -1.7050 2.1550 -0.3540
v -1.6750 2.1550 -0.3540
v -1.7050 2.1250 -0.3540
v -1.6750 2.1250 -0.3540
v -1.7050 2.1550 -0.0340
v -1.6750 2.1550 -0.0340
v -1.7050 2.1250 -0.0340
v -1.6750 2.1250 -0.0340
v -1.7050 1.9250 -0.3380
v -1.7050 2.1550 -0.3380
v -1.6750 1.9250 -0.3380
v -1.6750 2.1550 -0.3380
v -1.7050 1.9250 -0.0500
v -1.7050 2.1550 -0.0500
v -1.6750 1.9250 -0.0500
v -1.6750 2.1550 -0.0500
v -1.6000 2.2500 0.1250
v -1.6000 2.5900 0.1250
v -1.4000 2.2500 0.1250
v -1.4000 2.5900 0.1250
v -1.6000 2.2500 0.5750
v -1.6000 2.5900 0.5750
v -1.4000 2.2500 0.5750
v -1.4000 2.5900 0.5750
v -1.6850 1.4500 0.8000
v -1.6850 1.7900 0.8000
v -0.6350 1.4500 0.8000
v -0.6350 1.7900 0.8000
v -1.6850 1.4500 1.6000
v -1.6850 1.7900 1.6000
v -0.6350 1.4500 1.6000
v -0.6350 1.7900 1.6000
v 0.7800 2.4000 1.3000
v 2.6000 2.5400 1.0500
v -1.4500 0.3000 1.2000
v -1.4500 1.6000 1.2000
v -1.5000 0.3000 1.2866
v -1.5000 1.6000 1.2866
v -1.6000 0.3000 1.2866
v -1.6000 1.6000 1.2866
v -1.6500 0.3000 1.2000
v -1.6500 1.6000 1.2000
v -1.6000 0.3000 1.1134
v -1.6000 1.6000 1.1134
v -1.5000 0.3000 1.1134
v -1.5000 1.6000 1.1134
v -1.5100 0.7200 1.2000
v -1.7300 0.7200 1.2000
v -1.5100 0.6512 1.4116
v -1.7300 0.6512 1.4116
v -1.5100 0.4712 1.5424
v -1.7300 0.4712 1.5424
v -1.5100 0.2488 1.5424
v -1.7300 0.2488 1.5424
v -1.5100 0.0688 1.4116
v -1.7300 0.0688 1.4116
v -1.5100 0.0000 1.2000
v -1.7300 0.0000 1.2000
v -1.5100 0.0688 0.9884
v -1.7300 0.0688 0.9884
v -1.5100 0.2488 0.8576
v -1.7300 0.2488 0.8576
v -1.5100 0.4712 0.8576
v -1.7300 0.4712 0.8576
v -1.5100 0.6512 0.9884
v -1.7300 0.6512 0.9884
v -1.6739 0.5472 1.2000
v -1.7509 0.5472 1.2000
v -1.6739 0.5114 1.3100
v -1.7509 0.5114 1.3100
v -1.6739 0.4178 1.3780
v -1.7509 0.4178 1.3780
v -1.6739 0.3022 1.3780
v -1.7509 0.3022 1.3780
v -1.6739 0.2086 1.3100
v -1.7509 0.2086 1.3100
v -1.6739 0.1728 1.2000
v -1.7509 0.1728 1.2000
v -1.6739 0.2086 1.0900
v -1.7509 0.2086 1.0900
v -1.6739 0.3022 1.0220
v -1.7509 0.3022 1.0220
v -1.6739 0.4178 1.0220
v -1.7509 0.4178 1.0220
v -1.6739 0.5114 1.0900
v -1.7509 0.5114 1.0900
v 2.6000 2.5400 -0.2000
v 0.7800 2.4000 -0.3000
v 0.7800 2.7000 1.3000
v 2.6000 2.7000 1.0500
v 2.6000 2.7000 -0.2000
v 0.7800 2.7000 -0.3000
v -0.7800 2.4000 1.3000
v -2.6000 2.5400 1.0500
v -2.6000 2.5400 -0.2000
v -0.7800 2.4000 -0.3000
v -0.7800 2.7000 1.3000
v -2.6000 2.7000 1.0500
v -2.6000 2.7000 -0.2000
v -0.7800 2.7000 -0.3000
v -0.5750 3.7000 -0.0500
v -0.5750 3.2000 -0.0500
v 0.0800 0.4800 -7.3000
v -0.0800 0.4800 -7.3000
v 0.0800 0.4342 -7.1589
v -0.0800 0.4342 -7.1589
v 0.0800 0.3142 -7.0717
v -0.0800 0.3142 -7.0717
v 0.0800 0.1658 -7.0717
v -0.0800 0.1658 -7.0717
v 0.0800 0.0458 -7.1589
v -0.0800 0.0458 -7.1589
v 0.0800 0.0000 -7.3000
v -0.0800 0.0000 -7.3000
v 0.0800 0.0458 -7.4411
v -0.0800 0.0458 -7.4411
v 0.0800 0.1658 -7.5283
v -0.0800 0.1658 -7.5283
v 0.0800 0.3142 -7.5283
v -0.0800 0.3142 -7.5283
v 0.0800 0.4342 -7.4411
v -0.0800 0.4342 -7.4411
v 0.0952 0.3648 -7.3000
v 0.0392 0.3648 -7.3000
v 0.0952 0.3410 -7.2266
v 0.0392 0.3410 -7.2266
v 0.0952 0.2786 -7.1813
v 0.0392 0.2786 -7.1813
v 0.0952 0.2014 -7.1813
v 0.0392 0.2014 -7.1813
v 0.0952 0.1390 -7.2266
v 0.0392 0.1390 -7.2266
v 0.0952 0.1152 -7.3000
v 0.0392 0.1152 -7.3000
v 0.0952 0.1390 -7.3734
v 0.0392 0.1390 -7.3734
v 0.0952 0.2014 -7.4187
v 0.0392 0.2014 -7.4187
v 0.0952 0.2786 -7.4187
v 0.0392 0.2786 -7.4187
v 0.0952 0.3410 -7.3734
v 0.0392 0.3410 -7.3734
v 0.0800 0.2000 -7.3000
v 0.0800 2.3000 -7.3000
v 0.0400 0.2000 -7.2307
v 0.0400 2.3000 -7.2307
v -0.0400 0.2000 -7.2307
v -0.0400 2.3000 -7.2307
v -0.0800 0.2000 -7.3000
v -0.0800 2.3000 -7.3000
v -0.0400 0.2000 -7.3693
v -0.0400 2.3000 -7.3693
v 0.0400 0.2000 -7.3693
v 0.0400 2.3000 -7.3693
v 0.5750 3.2000 -0.0500
v 0.5750 3.7000 -0.0500
v -0.5750 3.2000 1.6500
v -0.5750 3.7000 1.6500
v 0.5750 3.2000 1.6500
v 0.5750 3.7000 1.6500
v -0.2700 4.3964 1.0953
v -0.2700 4.4863 1.1007
v 0.1900 3.6400 0.8000
v 0.1900 4.2600 0.8000
v 0.1344 3.6400 0.9344
v 0.1344 4.2600 0.9344
v 0.0000 3.6400 0.9900
v 0.0000 4.2600 0.9900
v -0.1344 3.6400 0.9344
v -0.1344 4.2600 0.9344
v -0.1900 3.6400 0.8000
v -0.1900 4.2600 0.8000
v -0.1344 3.6400 0.6656
v -0.1344 4.2600 0.6656
v 0.0000 3.6400 0.6100
v 0.0000 4.2600 0.6100
v 0.1344 3.6400 0.6656
v 0.1344 4.2600 0.6656
v 0.2700 4.3964 1.0953
v 0.2700 4.4863 1.1007
v -0.2700 3.9937 7.7993
v -0.2700 4.0836 7.8047
v 0.2700 3.9937 7.7993
v 0.2700 4.0836 7.8047
v -0.2025 4.1600 0.8650
v -0.2025 4.3200 0.8650
v 0.2025 4.1600 0.8650
v 0.2025 4.3200 0.8650
v -0.2025 4.1600 1.4150
v -0.2025 4.3200 1.4150
v 0.2025 4.1600 1.4150
v 0.2025 4.3200 1.4150
v 0.2953 4.3964 1.0700
v 0.3007 4.4863 1.0700
v 0.2953 4.3964 0.5300
v 0.3007 4.4863 0.5300
v 6.9993 3.9937 1.0700
v 7.0047 4.0836 1.0700
v 6.9993 3.9937 0.5300
v 7.0047 4.0836 0.5300
v 0.0650 4.1600 1.0025
v 0.0650 4.3200 1.0025
v 0.0650 4.1600 0.5975
v 0.0650 4.3200 0.5975
v 0.6150 4.1600 1.0025
v 0.6150 4.3200 1.0025
v 0.6150 4.1600 0.5975
v 0.6150 4.3200 0.5975
v 0.2700 4.3964 0.5047
v 0.2700 4.4863 0.4993
v -0.2700 4.3964 0.5047
v -0.2700 4.4863 0.4993
v 0.2700 3.9937 -6.1993
v 0.2700 4.0836 -6.2047
v -0.2700 3.9937 -6.1993
v -0.2700 4.0836 -6.2047
v 0.2025 4.1600 0.7350
v 0.2025 4.3200 0.7350
v -0.2025 4.1600 0.7350
v -0.2025 4.3200 0.7350
v 0.2025 4.1600 0.1850
v 0.2025 4.3200 0.1850
v -0.2025 4.1600 0.1850
v -0.2025 4.3200 0.1850
v -0.2953 4.3964 0.5300
v -0.3007 4.4863 0.5300
v -0.2953 4.3964 1.0700
v -0.3007 4.4863 1.0700
v -6.9993 3.9937 0.5300
v -7.0047 4.0836 0.5300
v -6.9993 3.9937 1.0700
v -7.0047 4.0836 1.0700
v -0.0650 4.1600 0.5975
v -0.0650 4.3200 0.5975
v -0.0650 4.1600 1.0025
v -0.0650 4.3200 1.0025
v -0.6150 4.1600 0.5975
v -0.6150 4.3200 0.5975
v -0.6150 4.1600 1.0025
v -0.6150 4.3200 1.0025
v -0.1300 2.7400 -7.4000
v -0.1300 2.6800 -9.0000
v 0.3348 4.0100 0.8000
v 0.3348 4.4700 0.8000
v 0.2367 4.0100 1.0367
v 0.2367 4.4700 1.0367
v 0.0000 4.0100 1.1348
v 0.0000 4.4700 1.1348
v -0.2367 4.0100 1.0367
v -0.2367 4.4700 1.0367
v -0.3348 4.0100 0.8000
v -0.3348 4.4700 0.8000
v -0.2367 4.0100 0.5633
v -0.2367 4.4700 0.5633
v 0.0000 4.0100 0.4652
v 0.0000 4.4700 0.4652
v 0.2367 4.0100 0.5633
v 0.2367 4.4700 0.5633
v 0.1620 4.4500 0.8000
v 0.1620 4.7500 0.8000
v 0.1146 4.4500 0.9146
v 0.1146 4.7500 0.9146
v 0.0000 4.4500 0.9620
v 0.0000 4.7500 0.9620
v -0.1146 4.4500 0.9146
v -0.1146 4.7500 0.9146
v -0.1620 4.4500 0.8000
v -0.1620 4.7500 0.8000
v -0.1146 4.4500 0.6854
v -0.1146 4.7500 0.6854
v 0.0000 4.4500 0.6380
v 0.0000 4.7500 0.6380
v 0.1146 4.4500 0.6854
v 0.1146 4.7500 0.6854
v -0.1300 4.8500 -7.9000
v -0.1300 4.5500 -9.1000
v 0.1300 2.6800 -9.0000
v 0.1300 2.7400 -7.4000
v 0.1300 4.8500 -7.9000
v 0.1300 4.5500 -9.1000
v 0.1800 4.4500 -7.6000
v 2.0500 4.5750 -8.1000
v 2.0500 4.5750 -9.0000
v 0.1800 4.4500 -8.9000
v 0.1800 4.6500 -7.6000
v 2.0500 4.6650 -8.1000
v 2.0500 4.6650 -9.0000
v 0.1800 4.6500 -8.9000
v -0.1800 4.4500 -7.6000
v -2.0500 4.5750 -8.1000
v -2.0500 4.5750 -9.0000
v -0.1800 4.4500 -8.9000
v -0.1800 4.6500 -7.6000
v -2.0500 4.6650 -8.1000
v -2.0500 4.6650 -9.0000
v -0.1800 4.6500 -8.9000
v -0.3550 3.4200 -8.3800
v -0.4050 3.4200 -8.3800
v -0.3550 3.6800 -8.3800
v -0.4050 3.6800 -8.3800
v -0.3550 3.4200 -7.1200
v -0.4050 3.4200 -7.1200
v -0.3550 3.6800 -7.1200
v -0.4050 3.6800 -7.1200
v -0.3550 3.6200 -8.3200
v -0.4050 3.6200 -8.3200
v -0.3550 3.6200 -8.5800
v -0.4050 3.6200 -8.5800
v -0.3550 4.8800 -8.3200
v -0.4050 4.8800 -8.3200
v -0.3550 4.8800 -8.5800
v -0.4050 4.8800 -8.5800
v -0.3550 3.6800 -8.5200
v -0.4050 3.6800 -8.5200
v -0.3550 3.4200 -8.5200
v -0.4050 3.4200 -8.5200
v -0.3550 3.6800 -9.7800
v -0.4050 3.6800 -9.7800
v -0.3550 3.4200 -9.7800
v -0.4050 3.4200 -9.7800
v -0.3550 3.4800 -8.5800
v -0.4050 3.4800 -8.5800
v -0.3550 3.4800 -8.3200
v -0.4050 3.4800 -8.3200
v -0.3550 2.2200 -8.5800
v -0.4050 2.2200 -8.5800
v -0.3550 2.2200 -8.3200
v -0.4050 2.2200 -8.3200
v -0.2100 3.7400 -8.4500
v -0.5500 3.7400 -8.4500
v -0.2100 3.6844 -8.3156
v -0.5500 3.6844 -8.3156
v -0.2100 3.5500 -8.2600
v -0.5500 3.5500 -8.2600
v -0.2100 3.4156 -8.3156
v -0.5500 3.4156 -8.3156
v -0.2100 3.3600 -8.4500
v -0.5500 3.3600 -8.4500
v -0.2100 3.4156 -8.5843
v -0.5500 3.4156 -8.5843
v -0.2100 3.5500 -8.6400
v -0.5500 3.5500 -8.6400
v -0.2100 3.6844 -8.5843
v -0.5500 3.6844 -8.5843
v 0.4850 2.8000 -5.2000
v 0.4850 3.9000 -5.2000
v 0.4500 2.8000 -5.1650
v 0.4500 3.9000 -5.1650
v 0.4150 2.8000 -5.2000
v 0.4150 3.9000 -5.2000
v 0.4500 2.8000 -5.2350
v 0.4500 3.9000 -5.2350
usemtl Mat0
f 4 2 1
f 5 7 8
f 1 6 5
f 3 6 2
f 4 7 3
f 1 8 4
f 12 10 9
f 13 15 16
f 9 14 13
f 11 14 10
f 12 15 11
f 9 16 12
f 20 18 17
f 21 23 24
f 17 22 21
f 19 22 18
f 20 23 19
f 17 24 20
f 28 26 25
f 29 31 32
f 26 29 25
f 27 30 26
f 27 32 31
f 25 32 28
f 36 34 33
f 37 39 40
f 34 37 33
f 35 38 34
f 35 40 39
f 33 40 36
f 44 42 41
f 48 46 47
f 41 46 45
f 43 46 42
f 44 47 43
f 41 48 44
f 52 50 49
f 53 55 56
f 49 54 53
f 51 54 50
f 52 55 51
f 49 56 52
f 65 67 66
f 69 71 72
f 65 70 69
f 67 70 66
f 68 71 67
f 65 72 68
f 106 107 105
f 108 111 107
f 112 109 111
f 110 105 109
f 111 105 107
f 108 110 112
f 190 191 114
f 192 194 196
f 195 114 191
f 194 114 193
f 196 193 195
f 192 195 191
f 258 197 257
f 222 223 221
f 256 258 260
f 216 217 215
f 220 221 219
f 218 219 217
f 224 225 223
f 259 197 255
f 226 227 225
f 228 229 227
f 230 231 229
f 215 217 225
f 232 233 231
f 260 257 259
f 234 215 233
f 220 232 228
f 256 259 255
f 198 255 197
f 486 487 485
f 488 491 487
f 492 489 491
f 490 485 489
f 491 485 487
f 488 490 492
f 494 495 493
f 496 499 495
f 500 497 499
f 498 493 497
f 499 493 495
f 496 498 500
f 596 597 595
f 562 563 561
f 590 591 589
f 566 561 565
f 568 565 567
f 564 566 568
f 567 561 563
f 564 567 563
f 594 595 593
f 588 589 587
f 592 593 591
f 631 570 627
f 598 599 597
f 600 601 599
f 628 630 632
f 602 603 601
f 592 604 600
f 603 606 605
f 630 570 629
f 606 587 605
f 587 589 597
f 632 629 631
f 628 631 627
f 569 627 570
f 858 859 857
f 860 863 859
f 864 861 863
f 862 857 861
f 863 857 859
f 860 862 864
f 866 867 865
f 868 871 867
f 872 869 871
f 870 865 869
f 871 865 867
f 868 870 872
f 874 929 873
f 934 936 933
f 927 930 874
f 927 932 931
f 938 935 934
f 937 934 933
f 873 932 928
f 940 933 936
f 932 930 931
f 935 940 936
f 928 874 873
f 940 938 937
f 998 942 997
f 1000 997 999
f 941 995 942
f 996 999 995
f 999 942 995
f 996 998 1000
f 1123 1126 1122
f 1119 1116 1115
f 1130 1132 1129
f 1123 1128 1127
f 1128 1126 1127
f 1118 1115 1081
f 1136 1134 1133
f 1124 1122 1121
f 1117 1081 1082
f 1121 1128 1124
f 1119 1117 1120
f 1122 1125 1121
f 1082 1115 1116
f 1120 1082 1116
f 1133 1130 1129
f 1134 1131 1130
f 1131 1136 1132
f 1136 1129 1132
f 217 219 221
f 221 223 217
f 223 225 217
f 225 227 233
f 227 229 233
f 229 231 233
f 233 215 225
f 228 226 224
f 224 222 220
f 220 218 216
f 216 234 232
f 232 230 228
f 228 224 220
f 220 216 232
f 600 598 596
f 596 594 592
f 592 590 588
f 588 606 604
f 604 602 600
f 600 596 592
f 592 588 604
f 589 591 593
f 593 595 589
f 595 597 589
f 597 599 605
f 599 601 605
f 601 603 605
f 605 587 597
f 4 3 2
f 5 6 7
f 1 2 6
f 3 7 6
f 4 8 7
f 1 5 8
f 12 11 10
f 13 14 15
f 9 10 14
f 11 15 14
f 12 16 15
f 9 13 16
f 20 19 18
f 21 22 23
f 17 18 22
f 19 23 22
f 20 24 23
f 17 21 24
f 28 27 26
f 29 30 31
f 26 30 29
f 27 31 30
f 27 28 32
f 25 29 32
f 36 35 34
f 37 38 39
f 34 38 37
f 35 39 38
f 35 36 40
f 33 37 40
f 44 43 42
f 48 45 46
f 41 42 46
f 43 47 46
f 44 48 47
f 41 45 48
f 52 51 50
f 53 54 55
f 49 50 54
f 51 55 54
f 52 56 55
f 49 53 56
f 65 68 67
f 69 70 71
f 65 66 70
f 67 71 70
f 68 72 71
f 65 69 72
f 106 108 107
f 108 112 111
f 112 110 109
f 110 106 105
f 111 109 105
f 108 106 110
f 190 192 191
f 192 190 194
f 195 193 114
f 194 190 114
f 196 194 193
f 192 196 195
f 258 198 197
f 222 224 223
f 256 198 258
f 216 218 217
f 220 222 221
f 218 220 219
f 224 226 225
f 259 257 197
f 226 228 227
f 228 230 229
f 230 232 231
f 232 234 233
f 260 258 257
f 234 216 215
f 256 260 259
f 198 256 255
f 486 488 487
f 488 492 491
f 492 490 489
f 490 486 485
f 491 489 485
f 488 486 490
f 494 496 495
f 496 500 499
f 500 498 497
f 498 494 493
f 499 497 493
f 496 494 498
f 596 598 597
f 562 564 563
f 590 592 591
f 566 562 561
f 568 566 565
f 564 562 566
f 567 565 561
f 564 568 567
f 594 596 595
f 588 590 589
f 592 594 593
f 631 629 570
f 598 600 599
f 600 602 601
f 628 569 630
f 602 604 603
f 603 604 606
f 630 569 570
f 606 588 587
f 632 630 629
f 628 632 631
f 569 628 627
f 858 860 859
f 860 864 863
f 864 862 861
f 862 858 857
f 863 861 857
f 860 858 862
f 866 868 867
f 868 872 871
f 872 870 869
f 870 866 865
f 871 869 865
f 868 866 870
f 874 930 929
f 934 935 936
f 927 931 930
f 927 928 932
f 938 939 935
f 937 938 934
f 873 929 932
f 940 937 933
f 932 929 930
f 935 939 940
f 928 927 874
f 940 939 938
f 998 941 942
f 1000 998 997
f 941 996 995
f 996 1000 999
f 999 997 942
f 996 941 998
f 1123 1127 1126
f 1119 1120 1116
f 1130 1131 1132
f 1123 1124 1128
f 1128 1125 1126
f 1118 1119 1115
f 1136 1135 1134
f 1124 1123 1122
f 1117 1118 1081
f 1121 1125 1128
f 1119 1118 1117
f 1122 1126 1125
f 1082 1081 1115
f 1120 1117 1082
f 1133 1134 1130
f 1134 1135 1131
f 1131 1135 1136
f 1136 1133 1129
usemtl Mat1
f 60 58 57
f 61 63 64
f 57 62 61
f 59 62 58
f 60 63 59
f 57 64 60
f 187 125 188
f 186 122 123
f 184 113 121
f 119 188 125
f 186 124 187
f 185 121 122
f 124 132 125
f 123 129 130
f 121 113 128
f 119 125 132
f 123 131 124
f 122 128 129
f 129 137 130
f 128 113 135
f 119 132 139
f 130 138 131
f 128 136 129
f 131 139 132
f 135 113 142
f 119 139 146
f 138 144 145
f 135 143 136
f 139 145 146
f 136 144 137
f 119 146 153
f 145 151 152
f 142 150 143
f 146 152 153
f 143 151 144
f 142 113 149
f 119 153 160
f 151 159 152
f 150 156 157
f 152 160 153
f 151 157 158
f 149 113 156
f 119 160 167
f 158 166 159
f 157 163 164
f 159 167 160
f 158 164 165
f 156 113 163
f 165 173 166
f 163 171 164
f 166 174 167
f 164 172 165
f 163 113 170
f 119 167 174
f 170 178 171
f 174 180 181
f 171 179 172
f 170 113 177
f 119 174 181
f 173 179 180
f 181 187 188
f 178 186 179
f 177 113 184
f 119 181 188
f 180 186 187
f 177 185 178
f 286 287 285
f 176 175 182
f 120 117 115
f 175 162 168
f 116 183 126
f 162 161 168
f 117 183 118
f 155 154 161
f 115 118 116
f 148 147 154
f 120 116 126
f 141 140 147
f 148 155 162
f 189 126 183
f 140 127 133
f 304 306 308
f 127 182 133
f 161 147 133
f 298 262 297
f 296 298 300
f 299 262 295
f 316 313 315
f 306 301 305
f 300 297 299
f 279 282 281
f 307 301 303
f 302 303 301
f 283 286 285
f 312 315 311
f 282 283 281
f 287 290 289
f 308 305 307
f 296 299 295
f 289 292 291
f 282 294 290
f 261 295 262
f 292 293 291
f 310 311 309
f 304 307 303
f 294 279 293
f 289 293 281
f 314 309 313
f 315 309 311
f 312 314 316
f 318 319 317
f 320 323 319
f 324 321 323
f 322 317 321
f 323 317 319
f 320 322 324
f 326 327 325
f 328 331 327
f 332 329 331
f 330 325 329
f 331 325 327
f 328 330 332
f 334 335 333
f 336 339 335
f 340 337 339
f 338 333 337
f 339 333 335
f 336 338 340
f 342 343 341
f 344 347 343
f 348 345 347
f 346 341 345
f 347 341 343
f 344 346 348
f 350 351 349
f 352 355 351
f 356 353 355
f 354 349 353
f 355 349 351
f 352 354 356
f 358 359 357
f 360 363 359
f 364 361 363
f 362 357 361
f 363 357 359
f 360 362 364
f 366 367 365
f 368 371 367
f 372 369 371
f 370 365 369
f 371 365 367
f 368 370 372
f 418 413 417
f 411 374 407
f 399 402 401
f 394 395 393
f 398 399 397
f 422 423 421
f 419 413 415
f 416 419 415
f 410 374 409
f 391 394 393
f 396 397 395
f 424 427 423
f 414 415 413
f 412 409 411
f 416 418 420
f 408 411 407
f 420 417 419
f 402 403 401
f 373 407 374
f 401 405 393
f 404 405 403
f 408 410 412
f 428 425 427
f 406 391 405
f 400 396 392
f 426 421 425
f 427 421 423
f 424 426 428
f 430 431 429
f 432 435 431
f 436 433 435
f 434 429 433
f 435 429 431
f 432 434 436
f 438 439 437
f 440 443 439
f 444 441 443
f 442 437 441
f 443 437 439
f 440 442 444
f 446 447 445
f 448 451 447
f 452 449 451
f 450 445 449
f 451 445 447
f 448 450 452
f 454 455 453
f 456 459 455
f 460 457 459
f 458 453 457
f 459 453 455
f 456 458 460
f 462 463 461
f 464 467 463
f 468 465 467
f 466 461 465
f 467 461 463
f 464 466 468
f 470 471 469
f 472 475 471
f 476 473 475
f 474 469 473
f 475 469 471
f 472 474 476
f 478 479 477
f 480 483 479
f 484 481 483
f 482 477 481
f 483 477 479
f 480 482 484
f 560 557 559
f 558 501 557
f 657 660 659
f 559 501 555
f 676 678 680
f 556 558 560
f 556 559 555
f 502 555 501
f 672 669 671
f 670 633 669
f 668 670 672
f 679 673 675
f 653 656 655
f 688 685 687
f 659 662 661
f 651 654 653
f 656 657 655
f 674 675 673
f 684 687 683
f 678 673 677
f 671 633 667
f 680 677 679
f 668 671 667
f 661 664 663
f 660 656 652
f 634 667 633
f 663 666 665
f 682 683 681
f 676 679 675
f 666 651 665
f 661 665 653
f 686 681 685
f 687 681 683
f 684 686 688
f 690 691 689
f 692 695 691
f 696 693 695
f 694 689 693
f 695 689 691
f 692 694 696
f 698 699 697
f 700 703 699
f 704 701 703
f 702 697 701
f 703 697 699
f 700 702 704
f 706 707 705
f 708 711 707
f 712 709 711
f 710 705 709
f 711 705 707
f 708 710 712
f 714 715 713
f 716 719 715
f 720 717 719
f 718 713 717
f 719 713 715
f 716 718 720
f 722 723 721
f 724 727 723
f 728 725 727
f 726 721 725
f 727 721 723
f 724 726 728
f 730 731 729
f 732 735 731
f 736 733 735
f 734 729 733
f 735 729 731
f 732 734 736
f 738 739 737
f 740 743 739
f 744 741 743
f 742 737 741
f 743 737 739
f 740 742 744
f 790 785 789
f 783 746 779
f 771 774 773
f 766 767 765
f 769 772 771
f 794 795 793
f 791 785 787
f 788 791 787
f 782 746 781
f 764 765 763
f 767 770 769
f 796 799 795
f 786 787 785
f 784 781 783
f 788 790 792
f 780 783 779
f 792 789 791
f 774 775 773
f 745 779 746
f 773 777 765
f 775 778 777
f 780 782 784
f 800 797 799
f 778 763 777
f 772 768 764
f 798 793 797
f 799 793 795
f 796 798 800
f 802 803 801
f 804 807 803
f 808 805 807
f 806 801 805
f 807 801 803
f 804 806 808
f 810 811 809
f 812 815 811
f 816 813 815
f 814 809 813
f 815 809 811
f 812 814 816
f 818 819 817
f 820 823 819
f 824 821 823
f 822 817 821
f 823 817 819
f 820 822 824
f 826 827 825
f 828 831 827
f 832 829 831
f 830 825 829
f 831 825 827
f 828 830 832
f 834 835 833
f 836 839 835
f 840 837 839
f 838 833 837
f 839 833 835
f 836 838 840
f 842 843 841
f 844 847 843
f 848 845 847
f 846 841 845
f 847 841 843
f 844 846 848
f 850 851 849
f 852 855 851
f 856 853 855
f 854 849 853
f 855 849 851
f 852 854 856
f 1036 1039 1035
f 1034 1035 1033
f 1023 1001 1019
f 1022 1001 1021
f 1024 1021 1023
f 1020 1023 1019
f 1002 1019 1001
f 1020 1022 1024
f 1040 1037 1039
f 1038 1033 1037
f 1039 1033 1035
f 1036 1038 1040
f 1050 1051 1049
f 1052 1055 1051
f 1056 1053 1055
f 1054 1049 1053
f 1051 1053 1049
f 1052 1054 1056
f 1066 1067 1065
f 1068 1071 1067
f 1072 1069 1071
f 1070 1065 1069
f 1071 1065 1067
f 1068 1070 1072
f 1108 1109 1107
f 1102 1103 1101
f 1106 1107 1105
f 1100 1101 1099
f 1104 1105 1103
f 1110 1111 1109
f 1099 1101 1109
f 1112 1113 1111
f 1114 1099 1113
f 1114 1112 1104
f 1138 1139 1137
f 1140 1143 1139
f 1144 1141 1143
f 1142 1137 1141
f 1143 1137 1139
f 1140 1142 1144
f 1146 1147 1145
f 1148 1151 1147
f 1152 1149 1151
f 1150 1145 1149
f 1151 1145 1147
f 1148 1150 1152
f 1154 1155 1153
f 1156 1159 1155
f 1160 1157 1159
f 1158 1153 1157
f 1159 1153 1155
f 1156 1158 1160
f 1162 1163 1161
f 1164 1167 1163
f 1168 1165 1167
f 1166 1161 1165
f 1167 1161 1163
f 1164 1166 1168
f 168 161 133
f 161 154 147
f 176 127 162
f 134 141 162
f 175 168 133
f 141 148 162
f 127 134 162
f 133 182 175
f 162 169 176
f 147 140 133
f 290 288 286
f 286 284 282
f 282 280 294
f 294 292 290
f 290 286 282
f 281 283 285
f 285 287 289
f 289 291 293
f 293 279 281
f 281 285 289
f 393 395 397
f 397 399 401
f 401 403 405
f 405 391 393
f 393 397 401
f 404 402 400
f 400 398 396
f 396 394 392
f 392 406 404
f 404 400 392
f 664 662 660
f 660 658 656
f 656 654 652
f 652 666 664
f 664 660 652
f 653 655 657
f 657 659 661
f 661 663 665
f 665 651 653
f 653 657 661
f 765 767 769
f 769 771 773
f 773 775 777
f 777 763 765
f 765 769 773
f 776 774 772
f 772 770 768
f 768 766 764
f 764 778 776
f 776 772 764
f 1101 1103 1105
f 1105 1107 1101
f 1107 1109 1101
f 1109 1111 1113
f 1113 1099 1109
f 1112 1110 1108
f 1108 1106 1112
f 1106 1104 1112
f 1104 1102 1100
f 1100 1114 1104
f 60 59 58
f 61 62 63
f 57 58 62
f 59 63 62
f 60 64 63
f 57 61 64
f 187 124 125
f 186 185 122
f 186 123 124
f 185 184 121
f 124 131 132
f 123 122 129
f 123 130 131
f 122 121 128
f 129 136 137
f 130 137 138
f 128 135 136
f 131 138 139
f 138 137 144
f 135 142 143
f 139 138 145
f 136 143 144
f 145 144 151
f 142 149 150
f 146 145 152
f 143 150 151
f 151 158 159
f 150 149 156
f 152 159 160
f 151 150 157
f 158 165 166
f 157 156 163
f 159 166 167
f 158 157 164
f 165 172 173
f 163 170 171
f 166 173 174
f 164 171 172
f 170 177 178
f 174 173 180
f 171 178 179
f 173 172 179
f 181 180 187
f 178 185 186
f 180 179 186
f 177 184 185
f 286 288 287
f 176 169 175
f 120 189 117
f 175 169 162
f 116 118 183
f 162 155 161
f 117 189 183
f 155 148 154
f 115 117 118
f 148 141 147
f 120 115 116
f 141 134 140
f 189 120 126
f 140 134 127
f 304 302 306
f 127 176 182
f 298 261 262
f 296 261 298
f 299 297 262
f 316 314 313
f 306 302 301
f 300 298 297
f 279 280 282
f 307 305 301
f 302 304 303
f 283 284 286
f 312 316 315
f 282 284 283
f 287 288 290
f 308 306 305
f 296 300 299
f 289 290 292
f 261 296 295
f 292 294 293
f 310 312 311
f 304 308 307
f 294 280 279
f 314 310 309
f 315 313 309
f 312 310 314
f 318 320 319
f 320 324 323
f 324 322 321
f 322 318 317
f 323 321 317
f 320 318 322
f 326 328 327
f 328 332 331
f 332 330 329
f 330 326 325
f 331 329 325
f 328 326 330
f 334 336 335
f 336 340 339
f 340 338 337
f 338 334 333
f 339 337 333
f 336 334 338
f 342 344 343
f 344 348 347
f 348 346 345
f 346 342 341
f 347 345 341
f 344 342 346
f 350 352 351
f 352 356 355
f 356 354 353
f 354 350 349
f 355 353 349
f 352 350 354
f 358 360 359
f 360 364 363
f 364 362 361
f 362 358 357
f 363 361 357
f 360 358 362
f 366 368 367
f 368 372 371
f 372 370 369
f 370 366 365
f 371 369 365
f 368 366 370
f 418 414 413
f 411 409 374
f 399 400 402
f 394 396 395
f 398 400 399
f 422 424 423
f 419 417 413
f 416 420 419
f 410 373 374
f 391 392 394
f 396 398 397
f 424 428 427
f 414 416 415
f 412 410 409
f 416 414 418
f 408 412 411
f 420 418 417
f 402 404 403
f 373 408 407
f 404 406 405
f 408 373 410
f 428 426 425
f 406 392 391
f 426 422 421
f 427 425 421
f 424 422 426
f 430 432 431
f 432 436 435
f 436 434 433
f 434 430 429
f 435 433 429
f 432 430 434
f 438 440 439
f 440 444 443
f 444 442 441
f 442 438 437
f 443 441 437
f 440 438 442
f 446 448 447
f 448 452 451
f 452 450 449
f 450 446 445
f 451 449 445
f 448 446 450
f 454 456 455
f 456 460 459
f 460 458 457
f 458 454 453
f 459 457 453
f 456 454 458
f 462 464 463
f 464 468 467
f 468 466 465
f 466 462 461
f 467 465 461
f 464 462 466
f 470 472 471
f 472 476 475
f 476 474 473
f 474 470 469
f 475 473 469
f 472 470 474
f 478 480 479
f 480 484 483
f 484 482 481
f 482 478 477
f 483 481 477
f 480 478 482
f 560 558 557
f 558 502 501
f 657 658 660
f 559 557 501
f 676 674 678
f 556 502 558
f 556 560 559
f 502 556 555
f 672 670 669
f 670 634 633
f 668 634 670
f 679 677 673
f 653 654 656
f 688 686 685
f 659 660 662
f 651 652 654
f 656 658 657
f 674 676 675
f 684 688 687
f 678 674 673
f 671 669 633
f 680 678 677
f 668 672 671
f 661 662 664
f 634 668 667
f 663 664 666
f 682 684 683
f 676 680 679
f 666 652 651
f 686 682 681
f 687 685 681
f 684 682 686
f 690 692 691
f 692 696 695
f 696 694 693
f 694 690 689
f 695 693 689
f 692 690 694
f 698 700 699
f 700 704 703
f 704 702 701
f 702 698 697
f 703 701 697
f 700 698 702
f 706 708 707
f 708 712 711
f 712 710 709
f 710 706 705
f 711 709 705
f 708 706 710
f 714 716 715
f 716 720 719
f 720 718 717
f 718 714 713
f 719 717 713
f 716 714 718
f 722 724 723
f 724 728 727
f 728 726 725
f 726 722 721
f 727 725 721
f 724 722 726
f 730 732 731
f 732 736 735
f 736 734 733
f 734 730 729
f 735 733 729
f 732 730 734
f 738 740 739
f 740 744 743
f 744 742 741
f 742 738 737
f 743 741 737
f 740 738 742
f 790 786 785
f 783 781 746
f 771 772 774
f 766 768 767
f 769 770 772
f 794 796 795
f 791 789 785
f 788 792 791
f 782 745 746
f 764 766 765
f 767 768 770
f 796 800 799
f 786 788 787
f 784 782 781
f 788 786 790
f 780 784 783
f 792 790 789
f 774 776 775
f 745 780 779
f 775 776 778
f 780 745 782
f 800 798 797
f 778 764 763
f 798 794 793
f 799 797 793
f 796 794 798
f 802 804 803
f 804 808 807
f 808 806 805
f 806 802 801
f 807 805 801
f 804 802 806
f 810 812 811
f 812 816 815
f 816 814 813
f 814 810 809
f 815 813 809
f 812 810 814
f 818 820 819
f 820 824 823
f 824 822 821
f 822 818 817
f 823 821 817
f 820 818 822
f 826 828 827
f 828 832 831
f 832 830 829
f 830 826 825
f 831 829 825
f 828 826 830
f 834 836 835
f 836 840 839
f 840 838 837
f 838 834 833
f 839 837 833
f 836 834 838
f 842 844 843
f 844 848 847
f 848 846 845
f 846 842 841
f 847 845 841
f 844 842 846
f 850 852 851
f 852 856 855
f 856 854 853
f 854 850 849
f 855 853 849
f 852 850 854
f 1036 1040 1039
f 1034 1036 1035
f 1023 1021 1001
f 1022 1002 1001
f 1024 1022 1021
f 1020 1024 1023
f 1002 1020 1019
f 1020 1002 1022
f 1040 1038 1037
f 1038 1034 1033
f 1039 1037 1033
f 1036 1034 1038
f 1050 1052 1051
f 1052 1056 1055
f 1056 1054 1053
f 1054 1050 1049
f 1051 1055 1053
f 1052 1050 1054
f 1066 1068 1067
f 1068 1072 1071
f 1072 1070 1069
f 1070 1066 1065
f 1071 1069 1065
f 1068 1066 1070
f 1108 1110 1109
f 1102 1104 1103
f 1106 1108 1107
f 1100 1102 1101
f 1104 1106 1105
f 1110 1112 1111
f 1112 1114 1113
f 1114 1100 1099
f 1138 1140 1139
f 1140 1144 1143
f 1144 1142 1141
f 1142 1138 1137
f 1143 1141 1137
f 1140 1138 1142
f 1146 1148 1147
f 1148 1152 1151
f 1152 1150 1149
f 1150 1146 1145
f 1151 1149 1145
f 1148 1146 1150
f 1154 1156 1155
f 1156 1160 1159
f 1160 1158 1157
f 1158 1154 1153
f 1159 1157 1153
f 1156 1154 1158
f 1162 1164 1163
f 1164 1168 1167
f 1168 1166 1165
f 1166 1162 1161
f 1167 1165 1161
f 1164 1162 1166
usemtl Mat2
f 76 74 73
f 80 78 79
f 73 78 77
f 75 78 74
f 76 79 75
f 73 80 76
f 84 82 81
f 85 87 88
f 81 86 85
f 83 86 82
f 84 87 83
f 81 88 84
f 92 90 89
f 93 95 96
f 89 94 93
f 91 94 90
f 92 95 91
f 89 96 92
f 100 98 97
f 101 103 104
f 97 102 101
f 99 102 98
f 100 103 99
f 97 104 100
f 76 75 74
f 80 77 78
f 73 74 78
f 75 79 78
f 76 80 79
f 73 77 80
f 84 83 82
f 85 86 87
f 81 82 86
f 83 87 86
f 84 88 87
f 81 85 88
f 92 91 90
f 93 94 95
f 89 90 94
f 91 95 94
f 92 96 95
f 89 93 96
f 100 99 98
f 101 102 103
f 97 98 102
f 99 103 102
f 100 104 103
f 97 101 104
usemtl Mat3
f 200 201 199
f 202 203 201
f 204 205 203
f 244 245 243
f 206 207 205
f 237 240 239
f 208 209 207
f 246 247 245
f 210 211 209
f 240 241 239
f 205 209 213
f 212 213 211
f 214 199 213
f 204 200 212
f 236 237 235
f 242 243 241
f 248 249 247
f 250 251 249
f 235 237 245
f 251 254 253
f 254 235 253
f 240 236 252
f 572 573 571
f 574 575 573
f 576 577 575
f 609 612 611
f 578 579 577
f 616 617 615
f 580 581 579
f 612 613 611
f 582 583 581
f 584 580 576
f 618 619 617
f 584 585 583
f 586 571 585
f 575 579 583
f 614 615 613
f 608 609 607
f 620 621 619
f 622 623 621
f 622 618 614
f 623 626 625
f 626 607 625
f 623 607 611
f 1188 1192 1190
f 1188 1189 1187
f 1192 1185 1191
f 1186 1187 1185
f 1190 1191 1189
f 1191 1187 1189
f 213 199 201
f 201 203 205
f 205 207 209
f 209 211 213
f 213 201 205
f 204 202 200
f 200 214 212
f 212 210 208
f 208 206 212
f 206 204 212
f 237 239 245
f 239 241 245
f 241 243 245
f 245 247 249
f 249 251 245
f 251 253 245
f 253 235 245
f 248 246 240
f 246 244 240
f 244 242 240
f 240 238 236
f 236 254 252
f 252 250 240
f 250 248 240
f 576 574 572
f 572 586 576
f 586 584 576
f 584 582 580
f 580 578 576
f 571 573 575
f 575 577 579
f 579 581 583
f 583 585 571
f 571 575 583
f 614 612 610
f 610 608 614
f 608 626 614
f 626 624 622
f 622 620 618
f 618 616 614
f 626 622 614
f 615 617 623
f 617 619 623
f 619 621 623
f 623 625 607
f 607 609 611
f 611 613 623
f 613 615 623
f 200 202 201
f 202 204 203
f 204 206 205
f 244 246 245
f 206 208 207
f 237 238 240
f 208 210 209
f 246 248 247
f 210 212 211
f 240 242 241
f 212 214 213
f 214 200 199
f 236 238 237
f 242 244 243
f 248 250 249
f 250 252 251
f 251 252 254
f 254 236 235
f 572 574 573
f 574 576 575
f 576 578 577
f 609 610 612
f 578 580 579
f 616 618 617
f 580 582 581
f 612 614 613
f 582 584 583
f 618 620 619
f 584 586 585
f 586 572 571
f 614 616 615
f 608 610 609
f 620 622 621
f 622 624 623
f 623 624 626
f 626 608 607
f 1188 1186 1192
f 1188 1190 1189
f 1192 1186 1185
f 1186 1188 1187
f 1190 1192 1191
f 1191 1185 1187
usemtl Mat4
f 270 271 269
f 268 269 267
f 264 265 263
f 266 267 265
f 272 273 271
f 274 275 273
f 269 273 277
f 276 277 275
f 278 263 277
f 274 272 264
f 376 377 375
f 378 379 377
f 380 381 379
f 382 383 381
f 384 385 383
f 386 387 385
f 382 380 388
f 388 389 387
f 390 375 389
f 381 385 389
f 638 639 637
f 636 637 635
f 642 643 641
f 640 641 639
f 644 645 643
f 646 647 645
f 642 640 648
f 648 649 647
f 650 635 649
f 645 649 637
f 748 749 747
f 750 751 749
f 752 753 751
f 754 755 753
f 756 757 755
f 758 759 757
f 754 752 760
f 760 761 759
f 762 747 761
f 753 757 761
f 277 263 265
f 265 267 269
f 269 271 273
f 273 275 277
f 277 265 269
f 272 270 268
f 268 266 272
f 266 264 272
f 264 278 276
f 276 274 264
f 380 378 376
f 376 390 380
f 390 388 380
f 388 386 384
f 384 382 388
f 389 375 377
f 377 379 381
f 381 383 385
f 385 387 389
f 389 377 381
f 640 638 636
f 636 650 640
f 650 648 640
f 648 646 644
f 644 642 648
f 637 639 641
f 641 643 645
f 645 647 649
f 649 635 637
f 637 641 645
f 752 750 748
f 748 762 752
f 762 760 752
f 760 758 756
f 756 754 760
f 761 747 749
f 749 751 753
f 753 755 757
f 757 759 761
f 761 749 753
f 270 272 271
f 268 270 269
f 264 266 265
f 266 268 267
f 272 274 273
f 274 276 275
f 276 278 277
f 278 264 263
f 376 378 377
f 378 380 379
f 380 382 381
f 382 384 383
f 384 386 385
f 386 388 387
f 388 390 389
f 390 376 375
f 638 640 639
f 636 638 637
f 642 644 643
f 640 642 641
f 644 646 645
f 646 648 647
f 648 650 649
f 650 636 635
f 748 750 749
f 750 752 751
f 752 754 753
f 754 756 755
f 756 758 757
f 758 760 759
f 760 762 761
f 762 748 747
usemtl Mat5
f 504 505 503
f 506 507 505
f 508 509 507
f 510 511 509
f 512 510 508
f 512 513 511
f 514 503 513
f 511 513 505
f 990 991 989
f 876 877 875
f 878 879 877
f 880 881 879
f 882 883 881
f 884 882 880
f 884 885 883
f 886 875 885
f 883 885 877
f 994 992 990
f 983 985 989
f 986 987 985
f 988 989 987
f 994 983 993
f 992 993 991
f 984 985 983
f 508 506 512
f 506 504 512
f 504 514 512
f 513 503 505
f 505 507 509
f 509 511 505
f 880 878 884
f 878 876 884
f 876 886 884
f 885 875 877
f 877 879 881
f 881 883 877
f 990 988 986
f 986 984 990
f 984 994 990
f 985 987 989
f 989 991 993
f 993 983 989
f 504 506 505
f 506 508 507
f 508 510 509
f 510 512 511
f 512 514 513
f 514 504 503
f 990 992 991
f 876 878 877
f 878 880 879
f 880 882 881
f 882 884 883
f 884 886 885
f 886 876 875
f 986 988 987
f 988 990 989
f 994 984 983
f 992 994 993
f 984 986 985
usemtl Mat6
f 516 517 515
f 520 521 519
f 518 519 517
f 522 523 521
f 524 525 523
f 526 527 525
f 528 529 527
f 529 532 531
f 534 526 522
f 531 534 533
f 534 515 533
f 527 531 515
f 888 889 887
f 892 893 891
f 890 891 889
f 894 895 893
f 896 897 895
f 898 899 897
f 900 901 899
f 944 945 943
f 946 947 945
f 901 904 903
f 906 898 894
f 903 906 905
f 906 887 905
f 899 903 887
f 948 949 947
f 950 951 949
f 952 953 951
f 954 955 953
f 956 957 955
f 958 959 957
f 948 944 960
f 960 961 959
f 962 943 961
f 947 951 959
f 522 520 518
f 518 516 534
f 534 532 530
f 530 528 534
f 528 526 534
f 526 524 522
f 522 518 534
f 519 521 523
f 523 525 527
f 527 529 531
f 531 533 515
f 515 517 527
f 517 519 527
f 519 523 527
f 894 892 890
f 890 888 894
f 888 906 894
f 906 904 902
f 902 900 898
f 898 896 894
f 906 902 898
f 891 893 895
f 895 897 899
f 899 901 903
f 903 905 887
f 887 889 899
f 889 891 899
f 891 895 899
f 948 946 944
f 944 962 960
f 960 958 952
f 958 956 952
f 956 954 952
f 952 950 960
f 950 948 960
f 943 945 947
f 947 949 951
f 951 953 955
f 955 957 951
f 957 959 951
f 959 961 943
f 943 947 959
f 516 518 517
f 520 522 521
f 518 520 519
f 522 524 523
f 524 526 525
f 526 528 527
f 528 530 529
f 529 530 532
f 531 532 534
f 534 516 515
f 888 890 889
f 892 894 893
f 890 892 891
f 894 896 895
f 896 898 897
f 898 900 899
f 900 902 901
f 944 946 945
f 946 948 947
f 901 902 904
f 903 904 906
f 906 888 887
f 948 950 949
f 950 952 951
f 952 954 953
f 954 956 955
f 956 958 957
f 958 960 959
f 960 962 961
f 962 944 943
usemtl Mat7
f 544 545 543
f 538 539 537
f 540 541 539
f 546 547 545
f 542 543 541
f 536 537 535
f 548 549 547
f 550 551 549
f 553 537 541
f 552 553 551
f 554 535 553
f 536 548 544
f 916 917 915
f 910 911 909
f 912 913 911
f 918 919 917
f 967 970 969
f 914 915 913
f 908 909 907
f 974 975 973
f 920 921 919
f 922 923 921
f 925 909 913
f 924 925 923
f 926 907 925
f 912 908 920
f 1004 1005 1003
f 972 973 971
f 966 967 965
f 970 971 969
f 964 965 963
f 976 977 975
f 978 979 977
f 974 972 964
f 1028 1031 1027
f 980 981 979
f 1026 1027 1025
f 982 963 981
f 981 969 973
f 1006 1007 1005
f 1028 1030 1032
f 1008 1009 1007
f 1031 1025 1027
f 1010 1011 1009
f 1030 1025 1029
f 1012 1013 1011
f 1032 1029 1031
f 1014 1015 1013
f 1017 1003 1011
f 1016 1017 1015
f 1018 1003 1017
f 1016 1012 1008
f 1042 1043 1041
f 1044 1047 1043
f 1048 1045 1047
f 1046 1041 1045
f 1047 1041 1043
f 1044 1046 1048
f 1058 1059 1057
f 1060 1063 1059
f 1064 1061 1063
f 1062 1057 1061
f 1063 1057 1059
f 1060 1062 1064
f 1074 1075 1073
f 1076 1079 1075
f 1080 1077 1079
f 1078 1073 1077
f 1079 1073 1075
f 1076 1078 1080
f 1084 1085 1083
f 1086 1087 1085
f 1088 1089 1087
f 1090 1091 1089
f 1092 1093 1091
f 1094 1095 1093
f 1096 1092 1088
f 1096 1097 1095
f 1098 1083 1097
f 1089 1093 1097
f 1169 1172 1171
f 1172 1173 1171
f 1174 1175 1173
f 1175 1178 1177
f 1178 1179 1177
f 1180 1181 1179
f 1176 1174 1182
f 1182 1183 1181
f 1184 1169 1183
f 1181 1183 1175
f 545 547 549
f 549 551 553
f 553 535 537
f 537 539 541
f 541 543 545
f 545 549 541
f 549 553 541
f 544 542 540
f 540 538 536
f 536 554 552
f 552 550 548
f 548 546 544
f 544 540 536
f 536 552 548
f 917 919 921
f 921 923 925
f 925 907 909
f 909 911 913
f 913 915 917
f 917 921 913
f 921 925 913
f 916 914 912
f 912 910 908
f 908 926 924
f 924 922 908
f 922 920 908
f 920 918 916
f 916 912 920
f 972 970 964
f 970 968 964
f 968 966 964
f 964 982 980
f 980 978 964
f 978 976 964
f 976 974 964
f 973 975 977
f 977 979 973
f 979 981 973
f 981 963 969
f 963 965 969
f 965 967 969
f 969 971 973
f 1003 1005 1007
f 1007 1009 1003
f 1009 1011 1003
f 1011 1013 1015
f 1015 1017 1011
f 1008 1006 1004
f 1004 1018 1016
f 1016 1014 1012
f 1012 1010 1008
f 1008 1004 1016
f 1088 1086 1084
f 1084 1098 1096
f 1096 1094 1092
f 1092 1090 1088
f 1088 1084 1096
f 1097 1083 1085
f 1085 1087 1097
f 1087 1089 1097
f 1089 1091 1093
f 1093 1095 1097
f 1174 1172 1170
f 1170 1184 1174
f 1184 1182 1174
f 1182 1180 1178
f 1178 1176 1182
f 1183 1169 1171
f 1171 1173 1183
f 1173 1175 1183
f 1175 1177 1179
f 1179 1181 1175
f 544 546 545
f 538 540 539
f 540 542 541
f 546 548 547
f 542 544 543
f 536 538 537
f 548 550 549
f 550 552 551
f 552 554 553
f 554 536 535
f 916 918 917
f 910 912 911
f 912 914 913
f 918 920 919
f 967 968 970
f 914 916 915
f 908 910 909
f 974 976 975
f 920 922 921
f 922 924 923
f 924 926 925
f 926 908 907
f 1004 1006 1005
f 972 974 973
f 966 968 967
f 970 972 971
f 964 966 965
f 976 978 977
f 978 980 979
f 1028 1032 1031
f 980 982 981
f 1026 1028 1027
f 982 964 963
f 1006 1008 1007
f 1028 1026 1030
f 1008 1010 1009
f 1031 1029 1025
f 1010 1012 1011
f 1030 1026 1025
f 1012 1014 1013
f 1032 1030 1029
f 1014 1016 1015
f 1016 1018 1017
f 1018 1004 1003
f 1042 1044 1043
f 1044 1048 1047
f 1048 1046 1045
f 1046 1042 1041
f 1047 1045 1041
f 1044 1042 1046
f 1058 1060 1059
f 1060 1064 1063
f 1064 1062 1061
f 1062 1058 1057
f 1063 1061 1057
f 1060 1058 1062
f 1074 1076 1075
f 1076 1080 1079
f 1080 1078 1077
f 1078 1074 1073
f 1079 1077 1073
f 1076 1074 1078
f 1084 1086 1085
f 1086 1088 1087
f 1088 1090 1089
f 1090 1092 1091
f 1092 1094 1093
f 1094 1096 1095
f 1096 1098 1097
f 1098 1084 1083
f 1169 1170 1172
f 1172 1174 1173
f 1174 1176 1175
f 1175 1176 1178
f 1178 1180 1179
f 1180 1182 1181
f 1182 1184 1183
f 1184 1170 1169
