# Suicide drone: flat body+warhead bulge+4 rotors, ~3x3x0.8m
# generated by tools/gen_models.py (Task57) - do not hand-edit
mtllib Unit_SuicideDrone.mtl
v -0.2250 0.0000 -0.2250
v -0.1750 0.0000 -0.2250
v -0.2250 0.1000 -0.2250
v -0.1750 0.1000 -0.2250
v -0.2250 0.0000 -0.1750
v -0.1750 0.0000 -0.1750
v -0.2250 0.1000 -0.1750
v -0.1750 0.1000 -0.1750
v -0.2250 0.0000 0.1750
v -0.1750 0.0000 0.1750
v -0.2250 0.1000 0.1750
v -0.1750 0.1000 0.1750
v -0.2250 0.0000 0.2250
v -0.1750 0.0000 0.2250
v -0.2250 0.1000 0.2250
v -0.1750 0.1000 0.2250
v 0.1750 0.0000 -0.2250
v 0.2250 0.0000 -0.2250
v 0.1750 0.1000 -0.2250
v 0.2250 0.1000 -0.2250
v 0.1750 0.0000 -0.1750
v 0.2250 0.0000 -0.1750
v 0.1750 0.1000 -0.1750
v 0.2250 0.1000 -0.1750
v 0.1750 0.0000 0.1750
v 0.2250 0.0000 0.1750
v 0.1750 0.1000 0.1750
v 0.2250 0.1000 0.1750
v 0.1750 0.0000 0.2250
v 0.2250 0.0000 0.2250
v 0.1750 0.1000 0.2250
v 0.2250 0.1000 0.2250
v -1.3000 0.0500 -1.3000
v 1.3000 0.0500 -1.3000
v -1.3000 0.2500 -1.3000
v 1.3000 0.2500 -1.3000
v -1.3000 0.0500 1.3000
v 1.3000 0.0500 1.3000
v -1.3000 0.2500 1.3000
v 1.3000 0.2500 1.3000
v 0.0000 0.5500 1.1000
v 0.0000 0.5500 1.7000
v -0.2475 0.4475 1.1000
v -0.2475 0.4475 1.7000
v -0.3500 0.2000 1.1000
v -0.3500 0.2000 1.7000
v -0.2475 -0.0475 1.1000
v -0.2475 -0.0475 1.7000
v -0.0000 -0.1500 1.1000
v -0.0000 -0.1500 1.7000
v 0.2475 -0.0475 1.1000
v 0.2475 -0.0475 1.7000
v 0.3500 0.2000 1.1000
v 0.3500 0.2000 1.7000
v 0.2475 0.4475 1.1000
v 0.2475 0.4475 1.7000
v 1.2500 0.2650 0.9000
v 1.2500 0.2950 0.9000
v 1.0750 0.2650 0.5969
v 1.0750 0.2950 0.5969
v 0.7250 0.2650 0.5969
v 0.7250 0.2950 0.5969
v 0.5500 0.2650 0.9000
v 0.5500 0.2950 0.9000
v 0.7250 0.2650 1.2031
v 0.7250 0.2950 1.2031
v 1.0750 0.2650 1.2031
v 1.0750 0.2950 1.2031
v -0.5500 0.2650 0.9000
v -0.5500 0.2950 0.9000
v -0.7250 0.2650 0.5969
v -0.7250 0.2950 0.5969
v -1.0750 0.2650 0.5969
v -1.0750 0.2950 0.5969
v -1.2500 0.2650 0.9000
v -1.2500 0.2950 0.9000
v -1.0750 0.2650 1.2031
v -1.0750 0.2950 1.2031
v -0.7250 0.2650 1.2031
v -0.7250 0.2950 1.2031
v 1.2500 0.2650 -0.9000
v 1.2500 0.2950 -0.9000
v 1.0750 0.2650 -1.2031
v 1.0750 0.2950 -1.2031
v 0.7250 0.2650 -1.2031
v 0.7250 0.2950 -1.2031
v 0.5500 0.2650 -0.9000
v 0.5500 0.2950 -0.9000
v 0.7250 0.2650 -0.5969
v 0.7250 0.2950 -0.5969
v 1.0750 0.2650 -0.5969
v 1.0750 0.2950 -0.5969
v -0.5500 0.2650 -0.9000
v -0.5500 0.2950 -0.9000
v -0.7250 0.2650 -1.2031
v -0.7250 0.2950 -1.2031
v -1.0750 0.2650 -1.2031
v -1.0750 0.2950 -1.2031
v -1.2500 0.2650 -0.9000
v -1.2500 0.2950 -0.9000
v -1.0750 0.2650 -0.5969
v -1.0750 0.2950 -0.5969
v -0.7250 0.2650 -0.5969
v -0.7250 0.2950 -0.5969
usemtl Mat
f 1 3 4 2
f 5 6 8 7
f 1 5 7 3
f 2 4 8 6
f 1 2 6 5
f 3 7 8 4
f 9 11 12 10
f 13 14 16 15
f 9 13 15 11
f 10 12 16 14
f 9 10 14 13
f 11 15 16 12
f 17 19 20 18
f 21 22 24 23
f 17 21 23 19
f 18 20 24 22
f 17 18 22 21
f 19 23 24 20
f 25 27 28 26
f 29 30 32 31
f 25 29 31 27
f 26 28 32 30
f 25 26 30 29
f 27 31 32 28
f 33 35 36 34
f 37 38 40 39
f 33 37 39 35
f 34 36 40 38
f 33 34 38 37
f 35 39 40 36
f 55 53 51 49 47 45 43 41
f 42 44 46 48 50 52 54 56
f 43 44 42 41
f 45 46 44 43
f 47 48 46 45
f 49 50 48 47
f 51 52 50 49
f 53 54 52 51
f 55 56 54 53
f 41 42 56 55
f 67 65 63 61 59 57
f 58 60 62 64 66 68
f 59 60 58 57
f 61 62 60 59
f 63 64 62 61
f 65 66 64 63
f 67 68 66 65
f 57 58 68 67
f 79 77 75 73 71 69
f 70 72 74 76 78 80
f 71 72 70 69
f 73 74 72 71
f 75 76 74 73
f 77 78 76 75
f 79 80 78 77
f 69 70 80 79
f 91 89 87 85 83 81
f 82 84 86 88 90 92
f 83 84 82 81
f 85 86 84 83
f 87 88 86 85
f 89 90 88 87
f 91 92 90 89
f 81 82 92 91
f 103 101 99 97 95 93
f 94 96 98 100 102 104
f 95 96 94 93
f 97 98 96 95
f 99 100 98 97
f 101 102 100 99
f 103 104 102 101
f 93 94 104 103
