# Mechanized infantry carrier, ~5.5x2.4x2.6m
# generated by tools/gen_models.py (Task57) - do not hand-edit
mtllib Unit_MechInfantry.mtl
v -1.2000 0.0000 -2.5000
v -0.8000 0.0000 -2.5000
v -1.2000 0.5000 -2.5000
v -0.8000 0.5000 -2.5000
v -1.2000 0.0000 2.5000
v -0.8000 0.0000 2.5000
v -1.2000 0.5000 2.5000
v -0.8000 0.5000 2.5000
v 0.8000 0.0000 -2.5000
v 1.2000 0.0000 -2.5000
v 0.8000 0.5000 -2.5000
v 1.2000 0.5000 -2.5000
v 0.8000 0.0000 2.5000
v 1.2000 0.0000 2.5000
v 0.8000 0.5000 2.5000
v 1.2000 0.5000 2.5000
v -1.1000 0.5000 -2.3000
v 1.1000 0.5000 -2.3000
v -1.1000 1.6000 -2.3000
v 1.1000 1.6000 -2.3000
v -1.1000 0.5000 2.3000
v 1.1000 0.5000 2.3000
v -1.1000 1.6000 2.3000
v 1.1000 1.6000 2.3000
v -0.2500 1.6000 0.1000
v 0.2500 1.6000 0.1000
v -0.2500 2.1500 0.1000
v 0.2500 2.1500 0.1000
v -0.2500 1.6000 0.5000
v 0.2500 1.6000 0.5000
v -0.2500 2.1500 0.5000
v 0.2500 2.1500 0.5000
v -0.1500 2.1500 0.1500
v 0.1500 2.1500 0.1500
v -0.1500 2.5000 0.1500
v 0.1500 2.5000 0.1500
v -0.1500 2.1500 0.4500
v 0.1500 2.1500 0.4500
v -0.1500 2.5000 0.4500
v 0.1500 2.5000 0.4500
usemtl Mat
f 1 3 4 2
f 5 6 8 7
f 1 5 7 3
f 2 4 8 6
f 1 2 6 5
f 3 7 8 4
f 9 11 12 10
f 13 14 16 15
f 9 13 15 11
f 10 12 16 14
f 9 10 14 13
f 11 15 16 12
f 17 19 20 18
f 21 22 24 23
f 17 21 23 19
f 18 20 24 22
f 17 18 22 21
f 19 23 24 20
f 25 27 28 26
f 29 30 32 31
f 25 29 31 27
f 26 28 32 30
f 25 26 30 29
f 27 31 32 28
f 33 35 36 34
f 37 38 40 39
f 33 37 39 35
f 34 36 40 38
f 33 34 38 37
f 35 39 40 36
