# source: models.blend / Military_Assets / 01_Infantry_Squad
# generated by tools/export_builtin_obj.py (Task69) - do not hand-edit
mtllib Unit_Infantry.mtl
v 0.0400 0.0000 2.1500
v 0.0400 0.1600 2.1500
v 0.2200 0.0000 2.1500
v 0.2200 0.1600 2.1500
v 0.0400 0.0000 2.8100
v 0.0400 0.1600 2.8100
v 0.2200 0.0000 2.8100
v 0.2200 0.1600 2.8100
v 0.0450 0.0000 1.9800
v 0.0450 0.0900 1.9800
v 0.2150 0.0000 1.9800
v 0.2150 0.0900 1.9800
v 0.0450 0.0000 2.2600
v 0.0450 0.0900 2.2600
v 0.2150 0.0000 2.2600
v 0.2150 0.0900 2.2600
v 0.0400 0.1250 2.7909
v 0.0400 0.6218 2.6372
v 0.2200 0.1250 2.7909
v 0.2200 0.6218 2.6372
v 0.0400 0.1782 2.9628
v 0.0400 0.6750 2.8091
v 0.2200 0.1782 2.9628
v 0.2200 0.6750 2.8091
v -0.2100 0.0000 3.0100
v -0.2100 0.0900 3.0100
v -0.0500 0.0000 3.0100
v -0.0500 0.0900 3.0100
v -0.2100 0.0000 3.3100
v -0.2100 0.0900 3.3100
v -0.0500 0.0000 3.3100
v -0.0500 0.0900 3.3100
v -0.2150 0.0526 2.9795
v -0.2150 0.5689 3.0418
v -0.0450 0.0526 2.9795
v -0.0450 0.5689 3.0418
v -0.2150 0.0311 3.1582
v -0.2150 0.5474 3.2205
v -0.0450 0.0311 3.1582
v -0.0450 0.5474 3.2205
v -0.2200 0.5384 2.5724
v -0.2200 0.7175 2.5904
v -0.0400 0.5384 2.5724
v -0.0400 0.7175 2.5904
v -0.2200 0.4825 3.1296
v -0.2200 0.6616 3.1476
v -0.0400 0.4825 3.1296
v -0.0400 0.6616 3.1476
v -0.2000 0.6700 2.6815
v -0.2000 1.2451 2.7567
v 0.2000 0.6700 2.6815
v 0.2000 1.2451 2.7567
v -0.2000 0.6350 2.9492
v -0.2000 1.2101 3.0244
v 0.2000 0.6350 2.9492
v 0.2000 1.2101 3.0244
v -0.2250 0.7711 2.6796
v -0.2250 1.1875 2.7340
v 0.2250 0.7711 2.6796
v 0.2250 1.1875 2.7340
v -0.2250 0.7296 2.9969
v -0.2250 1.1461 3.0513
v 0.2250 0.7296 2.9969
v 0.2250 1.1461 3.0513
v -0.2050 0.7652 2.9562
v -0.2050 0.9040 2.9743
v -0.0550 0.7652 2.9562
v -0.0550 0.9040 2.9743
v -0.2050 0.7535 3.0454
v -0.2050 0.8923 3.0636
v -0.0550 0.7535 3.0454
v -0.0550 0.8923 3.0636
v 0.0550 0.7652 2.9562
v 0.0550 0.9040 2.9743
v 0.2050 0.7652 2.9562
v 0.2050 0.9040 2.9743
v 0.0550 0.7535 3.0454
v 0.0550 0.8923 3.0636
v 0.2050 0.7535 3.0454
v 0.2050 0.8923 3.0636
v -0.1700 0.8453 2.4977
v -0.1700 1.2419 2.5495
v 0.1700 0.8453 2.4977
v 0.1700 1.2419 2.5495
v -0.1700 0.8168 2.7158
v -0.1700 1.2134 2.7677
v 0.1700 0.8168 2.7158
v 0.1700 1.2134 2.7677
v -0.2650 1.1099 2.7491
v -0.2650 1.2587 2.7686
v 0.2650 1.1099 2.7491
v 0.2650 1.2587 2.7686
v -0.2650 1.0775 2.9970
v -0.2650 1.2263 3.0165
v 0.2650 1.0775 2.9970
v 0.2650 1.2263 3.0165
v 0.2050 0.6645 2.8225
v 0.2050 1.1645 2.8275
v 0.3350 0.6645 2.8225
v 0.3350 1.1645 2.8275
v 0.2050 0.6630 2.9725
v 0.2050 1.1630 2.9775
v 0.3350 0.6630 2.9725
v 0.3350 1.1630 2.9775
v 0.1450 0.6538 2.9214
v 0.1450 0.7628 2.9357
v 0.2550 0.6538 2.9214
v 0.2550 0.7628 2.9357
v 0.1450 0.6395 3.0305
v 0.1450 0.7486 3.0448
v 0.2550 0.6395 3.0305
v 0.2550 0.7486 3.0448
v -0.3350 0.6645 2.8225
v -0.3350 1.1645 2.8275
v -0.2050 0.6645 2.8225
v -0.2050 1.1645 2.8275
v -0.3350 0.6630 2.9725
v -0.3350 1.1630 2.9775
v -0.2050 0.6630 2.9725
v -0.2050 1.1630 2.9775
v -0.2550 0.6538 2.9214
v -0.2550 0.7628 2.9357
v -0.1450 0.6538 2.9214
v -0.1450 0.7628 2.9357
v -0.2550 0.6395 3.0305
v -0.2550 0.7486 3.0448
v -0.1450 0.6395 3.0305
v -0.1450 0.7486 3.0448
v -0.0650 1.2248 2.8347
v -0.0650 1.3041 2.8451
v 0.0650 1.2248 2.8347
v 0.0650 1.3041 2.8451
v -0.0650 1.2106 2.9438
v -0.0650 1.2899 2.9542
v 0.0650 1.2106 2.9438
v 0.0650 1.2899 2.9542
v -0.0950 1.2634 2.8095
v -0.0950 1.4716 2.8367
v 0.0950 1.2634 2.8095
v 0.0950 1.4716 2.8367
v -0.0950 1.2388 2.9979
v -0.0950 1.4470 3.0251
v 0.0950 1.2388 2.9979
v 0.0950 1.4470 3.0251
v 0.0000 1.5361 2.9309
v 0.0775 0.7109 3.0246
v 0.1250 0.9980 2.9110
v 0.1250 0.8889 2.8967
v 0.0750 0.9980 2.9110
v 0.0750 0.8889 2.8967
v 0.0000 1.3058 2.9008
v 0.1250 1.0265 2.6928
v 0.0557 1.5150 2.9721
v 0.0965 1.4687 2.9983
v 0.1114 1.4096 3.0024
v 0.0965 1.3536 2.9833
v 0.0557 1.3156 2.9461
v 0.1250 0.9175 2.6786
v 0.0750 1.0265 2.6928
v 0.0213 1.5115 2.9989
v 0.0369 1.4627 3.0446
v 0.0426 1.4026 3.0559
v 0.0369 1.3475 3.0296
v 0.0213 1.3121 2.9728
v 0.0750 0.9175 2.6786
v 0.1275 0.9254 3.4662
v -0.0213 1.5115 2.9989
v -0.0369 1.4627 3.0446
v -0.0426 1.4026 3.0559
v -0.0369 1.3475 3.0296
v -0.0213 1.3121 2.9728
v 0.1275 0.8362 3.4546
v 0.0725 0.9254 3.4662
v -0.0557 1.5150 2.9721
v -0.0965 1.4687 2.9983
v -0.1114 1.4096 3.0024
v -0.0965 1.3536 2.9833
v -0.0557 1.3156 2.9461
v 0.0725 0.8362 3.4546
v 0.1275 1.0058 2.8515
v -0.0689 1.5206 2.9289
v -0.1193 1.4785 2.9234
v -0.1377 1.4210 2.9158
v -0.1193 1.3634 2.9083
v -0.0689 1.3213 2.9028
v 0.1275 0.9166 2.8398
v 0.0725 1.0058 2.8515
v -0.0557 1.5263 2.8856
v -0.0965 1.4883 2.8484
v -0.1114 1.4323 2.8293
v -0.0965 1.3732 2.8334
v -0.0557 1.3269 2.8595
v 0.0725 0.9166 2.8398
v 0.1150 1.3989 3.0844
v -0.0213 1.5298 2.8589
v -0.0369 1.4944 2.8021
v -0.0426 1.4393 2.7758
v -0.0369 1.3792 2.7870
v -0.0213 1.3304 2.8328
v 0.1150 1.3593 3.0792
v -0.1150 1.3989 3.0844
v 0.0213 1.5298 2.8589
v 0.0369 1.4944 2.8021
v 0.0426 1.4393 2.7758
v 0.0369 1.3792 2.7870
v 0.0213 1.3304 2.8328
v -0.1150 1.3593 3.0792
v 0.1150 1.4080 3.0150
v 0.0557 1.5263 2.8856
v 0.0965 1.4883 2.8484
v 0.1114 1.4323 2.8293
v 0.0965 1.3732 2.8334
v 0.0557 1.3269 2.8595
v 0.1150 1.3683 3.0098
v -0.1150 1.4080 3.0150
v 0.0689 1.5206 2.9289
v 0.1193 1.4785 2.9234
v 0.1377 1.4210 2.9158
v 0.1193 1.3634 2.9083
v 0.0689 1.3213 2.9028
v -0.1150 1.3683 3.0098
v 0.0775 0.9096 3.0927
v 0.1225 0.7109 3.0246
v 0.1225 0.9096 3.0927
v 0.0775 0.6850 3.1003
v 0.0775 0.8836 3.1684
v 0.1225 0.6850 3.1003
v 0.1225 0.8836 3.1684
v 1.9972 0.0900 1.2658
v 1.9972 0.0000 1.2658
v 0.1320 1.0126 3.0692
v 0.1320 0.9906 3.2378
v 0.1160 0.9851 3.0656
v 0.1160 0.9631 3.2342
v 0.0840 0.9851 3.0656
v 0.0840 0.9631 3.2342
v 0.0680 1.0126 3.0692
v 0.0680 0.9906 3.2378
v 0.0840 1.0401 3.0728
v 0.0840 1.0181 3.2414
v 0.1160 1.0401 3.0728
v 0.1160 1.0181 3.2414
v 2.1557 0.0000 1.2881
v 2.1557 0.0900 1.2881
v 1.9581 0.0000 1.5430
v 1.9581 0.0900 1.5430
v 2.1166 0.0000 1.5654
v 2.1166 0.0900 1.5654
v 1.9880 0.0900 1.2594
v 1.9880 0.9000 1.2594
v 2.1663 0.0900 1.2845
v 2.1663 0.9000 1.2845
v 1.9615 0.0900 1.4476
v 1.9615 0.9000 1.4476
v 2.1397 0.0900 1.4727
v 2.1397 0.9000 1.4727
v 1.9753 0.3950 1.2778
v 1.9753 0.5250 1.2778
v 2.1734 0.3950 1.3057
v 2.1734 0.5250 1.3057
v 1.9460 0.3950 1.4858
v 1.9460 0.5250 1.4858
v 2.1441 0.3950 1.5137
v 2.1441 0.5250 1.5137
v 1.7695 0.0000 1.2337
v 1.7695 0.0900 1.2337
v 1.9279 0.0000 1.2560
v 1.9279 0.0900 1.2560
v 1.7304 0.0000 1.5109
v 1.7304 0.0900 1.5109
v 1.8888 0.0000 1.5333
v 1.8888 0.0900 1.5333
v 1.7603 0.0900 1.2273
v 1.7603 0.9000 1.2273
v 1.9385 0.0900 1.2524
v 1.9385 0.9000 1.2524
v 1.7337 0.0900 1.4155
v 1.7337 0.9000 1.4155
v 1.9120 0.0900 1.4406
v 1.9120 0.9000 1.4406
v 1.7476 0.3950 1.2457
v 1.7476 0.5250 1.2457
v 1.9456 0.3950 1.2736
v 1.9456 0.5250 1.2736
v 1.7183 0.3950 1.4537
v 1.7183 0.5250 1.4537
v 1.9163 0.3950 1.4816
v 1.9163 0.5250 1.4816
v 1.7708 0.8900 1.1884
v 1.7708 1.4700 1.1884
v 2.1669 0.8900 1.2442
v 2.1669 1.4700 1.2442
v 1.7331 0.8900 1.4558
v 1.7331 1.4700 1.4558
v 2.1292 0.8900 1.5116
v 2.1292 1.4700 1.5116
v 1.7481 0.9900 1.1701
v 1.7481 1.4100 1.1701
v 2.1937 0.9900 1.2329
v 2.1937 1.4100 1.2329
v 1.7035 0.9900 1.4869
v 1.7035 1.4100 1.4869
v 2.1491 0.9900 1.5497
v 2.1491 1.4100 1.5497
v 1.7296 1.0200 1.4452
v 1.7296 1.1600 1.4452
v 1.8781 1.0200 1.4661
v 1.8781 1.1600 1.4661
v 1.7170 1.0200 1.5343
v 1.7170 1.1600 1.5343
v 1.8655 1.0200 1.5552
v 1.8655 1.1600 1.5552
v 1.9870 1.0200 1.4815
v 1.9870 1.1600 1.4815
v 2.1356 1.0200 1.5024
v 2.1356 1.1600 1.5024
v 1.9745 1.0200 1.5706
v 1.9745 1.1600 1.5706
v 2.1230 1.0200 1.5915
v 2.1230 1.1600 1.5915
v 1.8291 1.0400 0.9896
v 1.8291 1.4400 0.9896
v 2.1658 1.0400 1.0370
v 2.1658 1.4400 1.0370
v 1.7984 1.0400 1.2075
v 1.7984 1.4400 1.2075
v 2.1351 1.0400 1.2549
v 2.1351 1.4400 1.2549
v 1.7050 1.3350 1.1892
v 1.7050 1.4850 1.1892
v 2.2299 1.3350 1.2632
v 2.2299 1.4850 1.2632
v 1.6701 1.3350 1.4368
v 1.6701 1.4850 1.4368
v 2.1950 1.3350 1.5108
v 2.1950 1.4850 1.5108
v 2.1522 0.9028 1.3840
v 2.1606 1.3992 1.3247
v 2.2810 0.9028 1.4022
v 2.2893 1.3992 1.3429
v 2.1315 0.9208 1.5315
v 2.1398 1.4172 1.4722
v 2.2602 0.9208 1.5496
v 2.2685 1.4172 1.4904
v 2.0789 0.9050 1.4742
v 2.0789 1.0150 1.4742
v 2.1879 0.9050 1.4896
v 2.1879 1.0150 1.4896
v 2.0636 0.9050 1.5831
v 2.0636 1.0150 1.5831
v 2.1725 0.9050 1.5985
v 2.1725 1.0150 1.5985
v 1.6175 0.9028 1.3087
v 1.6259 1.3992 1.2494
v 1.7462 0.9028 1.3268
v 1.7546 1.3992 1.2675
v 1.5967 0.9208 1.4561
v 1.6051 1.4172 1.3969
v 1.7255 0.9208 1.4743
v 1.7338 1.4172 1.4150
v 1.6828 0.9050 1.4184
v 1.6828 1.0150 1.4184
v 1.7918 0.9050 1.4337
v 1.7918 1.0150 1.4337
v 1.6675 0.9050 1.5273
v 1.6675 1.0150 1.5273
v 1.7764 0.9050 1.5427
v 1.7764 1.0150 1.5427
v 1.8933 1.4600 1.2865
v 1.8933 1.5400 1.2865
v 2.0220 1.4600 1.3046
v 2.0220 1.5400 1.3046
v 1.8780 1.4600 1.3954
v 1.8780 1.5400 1.3954
v 2.0067 1.4600 1.4135
v 2.0067 1.5400 1.4135
v 1.8678 1.4950 1.2526
v 1.8678 1.7050 1.2526
v 2.0559 1.4950 1.2791
v 2.0559 1.7050 1.2791
v 1.8413 1.4950 1.4407
v 1.8413 1.7050 1.4407
v 2.0294 1.4950 1.4672
v 2.0294 1.7050 1.4672
v 1.9500 1.7811 1.3500
v 1.9988 0.9750 1.5588
v 2.0668 1.2450 1.4170
v 2.0668 1.1350 1.4170
v 2.0173 1.2450 1.4100
v 2.0173 1.1350 1.4100
v 1.9500 1.5489 1.3500
v 2.0975 1.2450 1.1991
v 1.9991 1.7655 1.4010
v 2.0350 1.7230 1.4383
v 2.0481 1.6650 1.4520
v 2.0350 1.6069 1.4383
v 1.9991 1.5645 1.4010
v 2.0975 1.1350 1.1991
v 2.0480 1.2450 1.1921
v 1.9612 1.7655 1.4229
v 1.9694 1.7230 1.4763
v 1.9724 1.6650 1.4958
v 1.9694 1.6069 1.4763
v 1.9612 1.5645 1.4229
v 2.0480 1.1350 1.1921
v 1.9911 1.2450 1.9718
v 1.9191 1.7655 1.4170
v 1.8964 1.7230 1.4660
v 1.8882 1.6650 1.4839
v 1.8964 1.6069 1.4660
v 1.9191 1.5645 1.4170
v 1.9911 1.1550 1.9718
v 1.9367 1.2450 1.9641
v 1.8888 1.7655 1.3854
v 1.8439 1.7230 1.4114
v 1.8275 1.6650 1.4209
v 1.8439 1.6069 1.4114
v 1.8888 1.5645 1.3854
v 1.9367 1.1550 1.9641
v 2.0776 1.2450 1.3579
v 1.8818 1.7655 1.3404
v 1.8319 1.7230 1.3334
v 1.8136 1.6650 1.3308
v 1.8319 1.6069 1.3334
v 1.8818 1.5645 1.3404
v 2.0776 1.1550 1.3579
v 2.0232 1.2450 1.3502
v 1.9009 1.7655 1.2990
v 1.8650 1.7230 1.2617
v 1.8519 1.6650 1.2480
v 1.8650 1.6069 1.2617
v 1.9009 1.5645 1.2990
v 2.0232 1.1550 1.3502
v 2.0402 1.6650 1.5344
v 1.9388 1.7655 1.2771
v 1.9306 1.7230 1.2237
v 1.9276 1.6650 1.2042
v 1.9306 1.6069 1.2237
v 1.9388 1.5645 1.2771
v 2.0402 1.6250 1.5344
v 1.8124 1.6650 1.5023
v 1.9809 1.7655 1.2830
v 2.0036 1.7230 1.2340
v 2.0118 1.6650 1.2161
v 2.0036 1.6069 1.2340
v 1.9809 1.5645 1.2830
v 1.8124 1.6250 1.5023
v 2.0499 1.6650 1.4651
v 2.0112 1.7655 1.3146
v 2.0561 1.7230 1.2886
v 2.0725 1.6650 1.2791
v 2.0561 1.6069 1.2886
v 2.0112 1.5645 1.3146
v 2.0499 1.6250 1.4651
v 1.8222 1.6650 1.4330
v 2.0182 1.7655 1.3596
v 2.0681 1.7230 1.3666
v 2.0864 1.6650 1.3692
v 2.0681 1.6069 1.3666
v 2.0182 1.5645 1.3596
v 1.8222 1.6250 1.4330
v 1.9930 1.1809 1.6001
v 2.0434 0.9750 1.5651
v 2.0376 1.1809 1.6064
v 1.9879 0.9591 1.6364
v 1.9821 1.1650 1.6777
v 2.0325 0.9591 1.6427
v 2.0266 1.1650 1.6840
v -1.8260 0.0900 1.4065
v -1.8260 0.0000 1.4065
v 2.0521 1.2800 1.5714
v 2.0284 1.2800 1.7398
v 2.0363 1.2523 1.5692
v 2.0125 1.2523 1.7375
v 2.0046 1.2523 1.5647
v 1.9808 1.2523 1.7331
v 1.9887 1.2800 1.5625
v 1.9650 1.2800 1.7308
v 2.0046 1.3077 1.5647
v 1.9808 1.3077 1.7331
v 2.0363 1.3077 1.5692
v 2.0125 1.3077 1.7375
v -1.6672 0.0000 1.3873
v -1.6672 0.0900 1.3873
v -1.7925 0.0000 1.6844
v -1.7925 0.0900 1.6844
v -1.6337 0.0000 1.6653
v -1.6337 0.0900 1.6653
v -1.8366 0.0900 1.4027
v -1.8366 0.9000 1.4027
v -1.6578 0.0900 1.3811
v -1.6578 0.9000 1.3811
v -1.8138 0.0900 1.5913
v -1.8138 0.9000 1.5913
v -1.6351 0.0900 1.5698
v -1.6351 0.9000 1.5698
v -1.8441 0.3950 1.4237
v -1.8441 0.5250 1.4237
v -1.6455 0.3950 1.3998
v -1.6455 0.5250 1.3998
v -1.8189 0.3950 1.6322
v -1.8189 0.5250 1.6322
v -1.6204 0.3950 1.6083
v -1.6204 0.5250 1.6083
v -2.0544 0.0000 1.4340
v -2.0544 0.0900 1.4340
v -1.8955 0.0000 1.4148
v -1.8955 0.0900 1.4148
v -2.0209 0.0000 1.7120
v -2.0209 0.0900 1.7120
v -1.8620 0.0000 1.6928
v -1.8620 0.0900 1.6928
v -2.0649 0.0900 1.4302
v -2.0649 0.9000 1.4302
v -1.8862 0.0900 1.4087
v -1.8862 0.9000 1.4087
v -2.0422 0.0900 1.6189
v -2.0422 0.9000 1.6189
v -1.8634 0.0900 1.5973
v -1.8634 0.9000 1.5973
v -2.0724 0.3950 1.4513
v -2.0724 0.5250 1.4513
v -1.8739 0.3950 1.4273
v -1.8739 0.5250 1.4273
v -2.0473 0.3950 1.6598
v -2.0473 0.5250 1.6598
v -1.8487 0.3950 1.6358
v -1.8487 0.5250 1.6358
v -2.0647 0.8900 1.3899
v -2.0647 1.4700 1.3899
v -1.6676 0.8900 1.3420
v -1.6676 1.4700 1.3420
v -2.0324 0.8900 1.6580
v -2.0324 1.4700 1.6580
v -1.6353 0.8900 1.6101
v -1.6353 1.4700 1.6101
v -2.0913 0.9900 1.3780
v -2.0913 1.4100 1.3780
v -1.6446 0.9900 1.3241
v -1.6446 1.4100 1.3241
v -2.0530 0.9900 1.6957
v -2.0530 1.4100 1.6957
v -1.6063 0.9900 1.6418
v -1.6063 1.4100 1.6418
v -2.0386 1.0200 1.6486
v -2.0386 1.1600 1.6486
v -1.8896 1.0200 1.6307
v -1.8896 1.1600 1.6307
v -2.0278 1.0200 1.7380
v -2.0278 1.1600 1.7380
v -1.8789 1.0200 1.7200
v -1.8789 1.1600 1.7200
v -1.7804 1.0200 1.6175
v -1.7804 1.1600 1.6175
v -1.6315 1.0200 1.5996
v -1.6315 1.1600 1.5996
v -1.7697 1.0200 1.7069
v -1.7697 1.1600 1.7069
v -1.6207 1.0200 1.6889
v -1.6207 1.1600 1.6889
v -2.0595 1.0400 1.1828
v -2.0595 1.4400 1.1828
v -1.7219 1.0400 1.1421
v -1.7219 1.4400 1.1421
v -2.0331 1.0400 1.4012
v -2.0331 1.4400 1.4012
v -1.6956 1.0400 1.3605
v -1.6956 1.4400 1.3605
v -2.1281 1.3350 1.4076
v -2.1281 1.4850 1.4076
v -1.6019 1.3350 1.3442
v -1.6019 1.4850 1.3442
v -2.0981 1.3350 1.6558
v -2.0981 1.4850 1.6558
v -1.5719 1.3350 1.5924
v -1.5719 1.4850 1.5924
v -1.6458 0.9028 1.4809
v -1.6530 1.3992 1.4215
v -1.5168 0.9028 1.4653
v -1.5239 1.3992 1.4059
v -1.6280 0.9208 1.6287
v -1.6352 1.4172 1.5693
v -1.4989 0.9208 1.6132
v -1.5061 1.4172 1.5537
v -1.6935 0.9050 1.5869
v -1.6935 1.0150 1.5869
v -1.5843 0.9050 1.5737
v -1.5843 1.0150 1.5737
v -1.6803 0.9050 1.6961
v -1.6803 1.0150 1.6961
v -1.5711 0.9050 1.6829
v -1.5711 1.0150 1.6829
v -2.1819 0.9028 1.5455
v -2.1891 1.3992 1.4861
v -2.0529 0.9028 1.5300
v -2.0600 1.3992 1.4705
v -2.1641 0.9208 1.6934
v -2.1713 1.4172 1.6340
v -2.0350 0.9208 1.6778
v -2.0422 1.4172 1.6184
v -2.0906 0.9050 1.6348
v -2.0906 1.0150 1.6348
v -1.9814 0.9050 1.6216
v -1.9814 1.0150 1.6216
v -2.0774 0.9050 1.7440
v -2.0774 1.0150 1.7440
v -1.9682 0.9050 1.7308
v -1.9682 1.0150 1.7308
v -1.9211 1.4600 1.4532
v -1.9211 1.5400 1.4532
v -1.7921 1.4600 1.4376
v -1.7921 1.5400 1.4376
v -1.9079 1.4600 1.5624
v -1.9079 1.5400 1.5624
v -1.7789 1.4600 1.5468
v -1.7789 1.5400 1.5468
v -1.9545 1.4950 1.4270
v -1.9545 1.7050 1.4270
v -1.7659 1.4950 1.4042
v -1.7659 1.7050 1.4042
v -1.9317 1.4950 1.6156
v -1.9317 1.7050 1.6156
v -1.7431 1.4950 1.5929
v -1.7431 1.7050 1.5929
v -1.8500 1.7811 1.5000
v -1.7491 0.9750 1.6892
v -1.7199 1.2450 1.5347
v -1.7199 1.1350 1.5347
v -1.7696 1.2450 1.5407
v -1.7696 1.1350 1.5407
v -1.8500 1.5489 1.5000
v -1.7463 1.2450 1.3163
v -1.7895 1.7655 1.5367
v -1.7452 1.7230 1.5635
v -1.7290 1.6650 1.5733
v -1.7452 1.6069 1.5635
v -1.7895 1.5645 1.5367
v -1.7463 1.1350 1.3163
v -1.7959 1.2450 1.3222
v -1.8204 1.7655 1.5676
v -1.7988 1.7230 1.6170
v -1.7908 1.6650 1.6351
v -1.7988 1.6069 1.6170
v -1.8204 1.5645 1.5676
v -1.7959 1.1350 1.3222
v -1.6504 1.2450 2.0903
v -1.8627 1.7655 1.5727
v -1.8719 1.7230 1.6258
v -1.8753 1.6650 1.6453
v -1.8719 1.6069 1.6258
v -1.8627 1.5645 1.5727
v -1.6504 1.1550 2.0903
v -1.7050 1.2450 2.0969
v -1.9001 1.7655 1.5500
v -1.9367 1.7230 1.5866
v -1.9502 1.6650 1.6000
v -1.9367 1.6069 1.5866
v -1.9001 1.5645 1.5500
v -1.7050 1.1550 2.0969
v -1.7246 1.2450 1.4748
v -1.9184 1.7655 1.5082
v -1.9684 1.7230 1.5143
v -1.9867 1.6650 1.5165
v -1.9684 1.6069 1.5143
v -1.9184 1.5645 1.5082
v -1.7246 1.1550 1.4748
v -1.7792 1.2450 1.4814
v -1.9105 1.7655 1.4633
v -1.9548 1.7230 1.4365
v -1.9710 1.6650 1.4267
v -1.9548 1.6069 1.4365
v -1.9105 1.5645 1.4633
v -1.7792 1.1550 1.4814
v -1.7155 1.6650 1.6550
v -1.8796 1.7655 1.4324
v -1.9012 1.7230 1.3830
v -1.9092 1.6650 1.3649
v -1.9012 1.6069 1.3830
v -1.8796 1.5645 1.4324
v -1.7155 1.6250 1.6550
v -1.9438 1.6650 1.6825
v -1.8373 1.7655 1.4273
v -1.8281 1.7230 1.3742
v -1.8247 1.6650 1.3547
v -1.8281 1.6069 1.3742
v -1.8373 1.5645 1.4273
v -1.9438 1.6250 1.6825
v -1.7239 1.6650 1.5855
v -1.7999 1.7655 1.4500
v -1.7633 1.7230 1.4134
v -1.7498 1.6650 1.4000
v -1.7633 1.6069 1.4134
v -1.7999 1.5645 1.4500
v -1.7239 1.6250 1.5855
v -1.9522 1.6650 1.6130
v -1.7816 1.7655 1.4918
v -1.7316 1.7230 1.4857
v -1.7133 1.6650 1.4835
v -1.7316 1.6069 1.4857
v -1.7816 1.5645 1.4918
v -1.9522 1.6250 1.6130
v -1.7441 1.1809 1.7306
v -1.7044 0.9750 1.6838
v -1.6995 1.1809 1.7253
v -1.7397 0.9591 1.7671
v -1.7347 1.1650 1.8085
v -1.6951 0.9591 1.7617
v -1.6901 1.1650 1.8031
v 3.5912 0.0900 -0.1873
v 3.5912 0.0000 -0.1873
v -1.6944 1.2800 1.6877
v -1.6741 1.2800 1.8565
v -1.7103 1.2523 1.6896
v -1.6899 1.2523 1.8584
v -1.7421 1.2523 1.6935
v -1.7217 1.2523 1.8622
v -1.7579 1.2800 1.6954
v -1.7376 1.2800 1.8642
v -1.7421 1.3077 1.6935
v -1.7217 1.3077 1.8622
v -1.7103 1.3077 1.6896
v -1.6899 1.3077 1.8584
v 3.7508 0.0000 -0.1761
v 3.7508 0.0900 -0.1761
v 3.5716 0.0000 0.0920
v 3.5716 0.0900 0.0920
v 3.7312 0.0000 0.1032
v 3.7312 0.0900 0.1032
v 3.5816 0.0900 -0.1930
v 3.5816 0.9000 -0.1930
v 3.7611 0.0900 -0.1804
v 3.7611 0.9000 -0.1804
v 3.5683 0.0900 -0.0035
v 3.5683 0.9000 -0.0035
v 3.7479 0.0900 0.0091
v 3.7479 0.9000 0.0091
v 3.5702 0.3950 -0.1738
v 3.5702 0.5250 -0.1738
v 3.7697 0.3950 -0.1598
v 3.7697 0.5250 -0.1598
v 3.5555 0.3950 0.0357
v 3.5555 0.5250 0.0357
v 3.7550 0.3950 0.0497
v 3.7550 0.5250 0.0497
v 3.3618 0.0000 -0.2034
v 3.3618 0.0900 -0.2034
v 3.5214 0.0000 -0.1922
v 3.5214 0.0900 -0.1922
v 3.3422 0.0000 0.0759
v 3.3422 0.0900 0.0759
v 3.5018 0.0000 0.0871
v 3.5018 0.0900 0.0871
v 3.3521 0.0900 -0.2091
v 3.3521 0.9000 -0.2091
v 3.5317 0.0900 -0.1965
v 3.5317 0.9000 -0.1965
v 3.3389 0.0900 -0.0196
v 3.3389 0.9000 -0.0196
v 3.5184 0.0900 -0.0070
v 3.5184 0.9000 -0.0070
v 3.3408 0.3950 -0.1899
v 3.3408 0.5250 -0.1899
v 3.5403 0.3950 -0.1759
v 3.5403 0.5250 -0.1759
v 3.3261 0.3950 0.0196
v 3.3261 0.5250 0.0196
v 3.5256 0.3950 0.0336
v 3.5256 0.5250 0.0336
v 3.3599 0.8900 -0.2487
v 3.3599 1.4700 -0.2487
v 3.7590 0.8900 -0.2207
v 3.7590 1.4700 -0.2207
v 3.3410 0.8900 0.0207
v 3.3410 1.4700 0.0207
v 3.7401 0.8900 0.0487
v 3.7401 1.4700 0.0487
v 3.3360 0.9900 -0.2654
v 3.3360 1.4100 -0.2654
v 3.7849 0.9900 -0.2339
v 3.7849 1.4100 -0.2339
v 3.3137 0.9900 0.0538
v 3.3137 1.4100 0.0538
v 3.7626 0.9900 0.0853
v 3.7626 1.4100 0.0853
v 3.3368 1.0200 0.0104
v 3.3368 1.1600 0.0104
v 3.4864 1.0200 0.0208
v 3.4864 1.1600 0.0208
v 3.3305 1.0200 0.1001
v 3.3305 1.1600 0.1001
v 3.4801 1.0200 0.1106
v 3.4801 1.1600 0.1106
v 3.5961 1.0200 0.0285
v 3.5961 1.1600 0.0285
v 3.7458 1.0200 0.0390
v 3.7458 1.1600 0.0390
v 3.5898 1.0200 0.1183
v 3.5898 1.1600 0.1183
v 3.7395 1.0200 0.1288
v 3.7395 1.1600 0.1288
v 3.4042 1.0400 -0.4511
v 3.4042 1.4400 -0.4511
v 3.7434 1.0400 -0.4273
v 3.7434 1.4400 -0.4273
v 3.3888 1.0400 -0.2316
v 3.3888 1.4400 -0.2316
v 3.7280 1.0400 -0.2078
v 3.7280 1.4400 -0.2078
v 3.2944 1.3350 -0.2432
v 3.2944 1.4850 -0.2432
v 3.8231 1.3350 -0.2062
v 3.8231 1.4850 -0.2062
v 3.2769 1.3350 0.0062
v 3.2769 1.4850 0.0062
v 3.8056 1.3350 0.0432
v 3.8056 1.4850 0.0432
v 3.7541 0.9028 -0.0802
v 3.7583 1.3992 -0.1399
v 3.8838 0.9028 -0.0711
v 3.8880 1.3992 -0.1308
v 3.7437 0.9208 0.0683
v 3.7479 1.4172 0.0086
v 3.8734 0.9208 0.0774
v 3.8776 1.4172 0.0177
v 3.6873 0.9050 0.0149
v 3.6873 1.0150 0.0149
v 3.7970 0.9050 0.0226
v 3.7970 1.0150 0.0226
v 3.6796 0.9050 0.1246
v 3.6796 1.0150 0.1246
v 3.7893 0.9050 0.1323
v 3.7893 1.0150 0.1323
v 3.2154 0.9028 -0.1180
v 3.2196 1.3992 -0.1777
v 3.3451 0.9028 -0.1089
v 3.3493 1.3992 -0.1686
v 3.2050 0.9208 0.0306
v 3.2092 1.4172 -0.0291
v 3.3347 0.9208 0.0397
v 3.3389 1.4172 -0.0200
v 3.2883 0.9050 -0.0131
v 3.2883 1.0150 -0.0131
v 3.3980 0.9050 -0.0054
v 3.3980 1.0150 -0.0054
v 3.2806 0.9050 0.0966
v 3.2806 1.0150 0.0966
v 3.3903 0.9050 0.1043
v 3.3903 1.0150 0.1043
v 3.4890 1.4600 -0.1594
v 3.4890 1.5400 -0.1594
v 3.6187 1.4600 -0.1503
v 3.6187 1.5400 -0.1503
v 3.4813 1.4600 -0.0497
v 3.4813 1.5400 -0.0497
v 3.6110 1.4600 -0.0406
v 3.6110 1.5400 -0.0406
v 3.4612 1.4950 -0.1914
v 3.4612 1.7050 -0.1914
v 3.6507 1.4950 -0.1781
v 3.6507 1.7050 -0.1781
v 3.4479 1.4950 -0.0019
v 3.4479 1.7050 -0.0019
v 3.6374 1.4950 0.0114
v 3.6374 1.7050 0.0114
v 3.5500 1.7811 -0.1000
v 3.6133 0.9750 0.1049
v 3.6712 1.2450 -0.0414
v 3.6712 1.1350 -0.0414
v 3.6213 1.2450 -0.0449
v 3.6213 1.1350 -0.0449
v 3.5500 1.5489 -0.1000
v 3.6866 1.2450 -0.2608
v 3.6025 1.7655 -0.0526
v 3.6410 1.7230 -0.0178
v 3.6550 1.6650 -0.0051
v 3.6410 1.6069 -0.0178
v 3.6025 1.5645 -0.0526
v 3.6866 1.1350 -0.2608
v 3.6367 1.2450 -0.2643
v 3.5663 1.7655 -0.0281
v 3.5782 1.7230 0.0246
v 3.5826 1.6650 0.0439
v 3.5782 1.6069 0.0246
v 3.5663 1.5645 -0.0281
v 3.6367 1.1350 -0.2643
v 3.6345 1.2450 0.5174
v 3.5238 1.7655 -0.0310
v 3.5047 1.7230 0.0194
v 3.4977 1.6650 0.0379
v 3.5047 1.6069 0.0194
v 3.5238 1.5645 -0.0310
v 3.6345 1.1550 0.5174
v 3.5797 1.2450 0.5136
v 3.4914 1.7655 -0.0604
v 3.4485 1.7230 -0.0313
v 3.4328 1.6650 -0.0207
v 3.4485 1.6069 -0.0313
v 3.4914 1.5645 -0.0604
v 3.5797 1.1550 0.5136
v 3.6779 1.2450 -0.1011
v 3.4813 1.7655 -0.1048
v 3.4310 1.7230 -0.1083
v 3.4126 1.6650 -0.1096
v 3.4310 1.6069 -0.1083
v 3.4813 1.5645 -0.1048
v 3.6779 1.1550 -0.1011
v 3.6230 1.2450 -0.1049
v 3.4975 1.7655 -0.1474
v 3.4590 1.7230 -0.1822
v 3.4450 1.6650 -0.1949
v 3.4590 1.6069 -0.1822
v 3.4975 1.5645 -0.1474
v 3.6230 1.1550 -0.1049
v 3.6528 1.6650 0.0776
v 3.5337 1.7655 -0.1719
v 3.5218 1.7230 -0.2246
v 3.5174 1.6650 -0.2439
v 3.5218 1.6069 -0.2246
v 3.5337 1.5645 -0.1719
v 3.6528 1.6250 0.0776
v 3.4234 1.6650 0.0615
v 3.5762 1.7655 -0.1690
v 3.5953 1.7230 -0.2194
v 3.6023 1.6650 -0.2379
v 3.5953 1.6069 -0.2194
v 3.5762 1.5645 -0.1690
v 3.4234 1.6250 0.0615
v 3.6577 1.6650 0.0078
v 3.6086 1.7655 -0.1396
v 3.6515 1.7230 -0.1687
v 3.6672 1.6650 -0.1793
v 3.6515 1.6069 -0.1687
v 3.6086 1.5645 -0.1396
v 3.6577 1.6250 0.0078
v 3.4283 1.6650 -0.0083
v 3.6187 1.7655 -0.0952
v 3.6690 1.7230 -0.0917
v 3.6874 1.6650 -0.0904
v 3.6690 1.6069 -0.0917
v 3.6187 1.5645 -0.0952
v 3.4283 1.6250 -0.0083
v 3.6104 1.1809 0.1465
v 3.6582 0.9750 0.1080
v 3.6553 1.1809 0.1496
v 3.6078 0.9591 0.1831
v 3.6049 1.1650 0.2247
v 3.6527 0.9591 0.1862
v 3.6498 1.1650 0.2278
v -3.4096 0.1600 -0.5014
v -3.4096 0.0000 -0.5014
v 3.6673 1.2800 0.1137
v 3.6554 1.2800 0.2833
v 3.6514 1.2523 0.1126
v 3.6395 1.2523 0.2822
v 3.6195 1.2523 0.1104
v 3.6076 1.2523 0.2800
v 3.6035 1.2800 0.1093
v 3.5916 1.2800 0.2788
v 3.6195 1.3077 0.1104
v 3.6076 1.3077 0.2800
v 3.6514 1.3077 0.1126
v 3.6395 1.3077 0.2822
v -3.2303 0.0000 -0.5175
v -3.2303 0.1600 -0.5175
v -3.3503 0.0000 0.1560
v -3.3503 0.1600 0.1560
v -3.1710 0.0000 0.1398
v -3.1710 0.1600 0.1398
v -3.4199 0.0000 -0.6711
v -3.4199 0.0900 -0.6711
v -3.2506 0.0000 -0.6864
v -3.2506 0.0900 -0.6864
v -3.3947 0.0000 -0.3923
v -3.3947 0.0900 -0.3923
v -3.2254 0.0000 -0.4075
v -3.2254 0.0900 -0.4075
v -3.3520 0.1250 0.1369
v -3.3658 0.6218 -0.0162
v -3.1727 0.1250 0.1207
v -3.1865 0.6218 -0.0323
v -3.3365 0.1782 0.3082
v -3.3504 0.6750 0.1551
v -3.1573 0.1782 0.2920
v -3.1711 0.6750 0.1389
v -3.5813 0.0000 0.3776
v -3.5813 0.0900 0.3776
v -3.4219 0.0000 0.3632
v -3.4219 0.0900 0.3632
v -3.5543 0.0000 0.6764
v -3.5543 0.0900 0.6764
v -3.3950 0.0000 0.6620
v -3.3950 0.0900 0.6620
v -3.5890 0.0526 0.3477
v -3.5834 0.5689 0.4097
v -3.4197 0.0526 0.3324
v -3.4141 0.5689 0.3944
v -3.5729 0.0311 0.5257
v -3.5674 0.5474 0.5877
v -3.4036 0.0311 0.5104
v -3.3980 0.5474 0.5724
v -3.6306 0.5384 -0.0573
v -3.6290 0.7175 -0.0394
v -3.4513 0.5384 -0.0735
v -3.4497 0.7175 -0.0556
v -3.5805 0.4825 0.4977
v -3.5789 0.6616 0.5155
v -3.4012 0.4825 0.4815
v -3.3996 0.6616 0.4994
v -3.6009 0.6700 0.0496
v -3.5941 1.2451 0.1244
v -3.2025 0.6700 0.0136
v -3.1957 1.2451 0.0885
v -3.5768 0.6350 0.3162
v -3.5700 1.2101 0.3911
v -3.1784 0.6350 0.2803
v -3.1717 1.2101 0.3551
v -3.6259 0.7711 0.0499
v -3.6210 1.1875 0.1041
v -3.1777 0.7711 0.0095
v -3.1729 1.1875 0.0637
v -3.5974 0.7296 0.3659
v -3.5925 1.1461 0.4202
v -3.1492 0.7296 0.3255
v -3.1443 1.1461 0.3797
v -3.5811 0.7652 0.3236
v -3.5795 0.9040 0.3416
v -3.4318 0.7652 0.3101
v -3.4301 0.9040 0.3282
v -3.5731 0.7535 0.4124
v -3.5715 0.8923 0.4305
v -3.4237 0.7535 0.3990
v -3.4221 0.8923 0.4170
v -3.3222 0.7652 0.3002
v -3.3206 0.9040 0.3183
v -3.1728 0.7652 0.2867
v -3.1712 0.9040 0.3048
v -3.3142 0.7535 0.3891
v -3.3125 0.8923 0.4071
v -3.1648 0.7535 0.3756
v -3.1632 0.8923 0.3937
v -3.5875 0.8453 -0.1362
v -3.5828 1.2419 -0.0846
v -3.2489 0.8453 -0.1668
v -3.2442 1.2419 -0.1151
v -3.5679 0.8168 0.0810
v -3.5632 1.2134 0.1327
v -3.2293 0.8168 0.0505
v -3.2246 1.2134 0.1021
v -3.6595 1.1099 0.1227
v -3.6578 1.2587 0.1421
v -3.1317 1.1099 0.0751
v -3.1299 1.2587 0.0945
v -3.6372 1.0775 0.3696
v -3.6355 1.2263 0.3890
v -3.1094 1.0775 0.3220
v -3.1076 1.2263 0.3414
v -3.1848 0.6645 0.1535
v -3.1844 1.1645 0.1585
v -3.0553 0.6645 0.1419
v -3.0549 1.1645 0.1468
v -3.1713 0.6630 0.3029
v -3.1709 1.1630 0.3079
v -3.0419 0.6630 0.2912
v -3.0414 1.1630 0.2962
v -3.2357 0.6538 0.2575
v -3.2344 0.7628 0.2717
v -3.1261 0.6538 0.2476
v -3.1248 0.7628 0.2618
v -3.2259 0.6395 0.3661
v -3.2246 0.7486 0.3803
v -3.1163 0.6395 0.3562
v -3.1150 0.7486 0.3705
v -3.7226 0.6645 0.2021
v -3.7222 1.1645 0.2071
v -3.5932 0.6645 0.1904
v -3.5927 1.1645 0.1954
v -3.7092 0.6630 0.3515
v -3.7087 1.1630 0.3564
v -3.5797 0.6630 0.3398
v -3.5792 1.1630 0.3448
v -3.6341 0.6538 0.2935
v -3.6328 0.7628 0.3077
v -3.5245 0.6538 0.2836
v -3.5232 0.7628 0.2978
v -3.6243 0.6395 0.4021
v -3.6230 0.7486 0.4163
v -3.5147 0.6395 0.3922
v -3.5134 0.7486 0.4064
v -3.4526 1.2248 0.1900
v -3.4517 1.3041 0.2004
v -3.3232 1.2248 0.1783
v -3.3222 1.3041 0.1887
v -3.4428 1.2106 0.2987
v -3.4419 1.2899 0.3090
v -3.3134 1.2106 0.2870
v -3.3124 1.2899 0.2973
v -3.4848 1.2634 0.1676
v -3.4823 1.4716 0.1947
v -3.2955 1.2634 0.1505
v -3.2931 1.4716 0.1777
v -3.4678 1.2388 0.3552
v -3.4654 1.4470 0.3824
v -3.2786 1.2388 0.3382
v -3.2762 1.4470 0.3653
v -3.3792 1.5361 0.2800
v -3.2936 0.7109 0.3664
v -3.2565 0.9980 0.2489
v -3.2578 0.8889 0.2347
v -3.3063 0.9980 0.2534
v -3.3076 0.8889 0.2392
v -3.3820 1.3058 0.2500
v -3.2762 1.0265 0.0316
v -3.3201 1.5150 0.3160
v -3.2771 1.4687 0.3384
v -3.2619 1.4096 0.3412
v -3.2785 1.3536 0.3235
v -3.3224 1.3156 0.2901
v -3.2774 0.9175 0.0174
v -3.3259 1.0265 0.0361
v -3.3519 1.5115 0.3458
v -3.3323 1.4627 0.3899
v -3.3256 1.4026 0.4006
v -3.3337 1.3475 0.3749
v -3.3543 1.3121 0.3198
v -3.3272 0.9175 0.0219
v -3.2041 0.9254 0.8017
v -3.3943 1.5115 0.3496
v -3.4057 1.4627 0.3966
v -3.4104 1.4026 0.4083
v -3.4071 1.3475 0.3816
v -3.3967 1.3121 0.3236
v -3.2052 0.8362 0.7901
v -3.2589 0.9254 0.8066
v -3.4310 1.5150 0.3261
v -3.4693 1.4687 0.3558
v -3.4838 1.4096 0.3612
v -3.4706 1.3536 0.3408
v -3.4334 1.3156 0.3001
v -3.2600 0.8362 0.7950
v -3.2594 1.0058 0.1894
v -3.4480 1.5206 0.2841
v -3.4987 1.4785 0.2832
v -3.5177 1.4210 0.2773
v -3.5000 1.3634 0.2682
v -3.4503 1.3213 0.2582
v -3.2605 0.9166 0.1778
v -3.3142 1.0058 0.1943
v -3.4388 1.5263 0.2399
v -3.4827 1.4883 0.2065
v -3.4993 1.4323 0.1888
v -3.4841 1.3732 0.1915
v -3.4411 1.3269 0.2139
v -3.3152 0.9166 0.1827
v -3.2509 1.3989 0.4225
v -3.4069 1.5298 0.2101
v -3.4275 1.4944 0.1550
v -3.4356 1.4393 0.1293
v -3.4289 1.3792 0.1400
v -3.4093 1.3304 0.1842
v -3.2514 1.3593 0.4174
v -3.4800 1.3989 0.4432
v -3.3645 1.5298 0.2063
v -3.3541 1.4944 0.1484
v -3.3508 1.4393 0.1217
v -3.3555 1.3792 0.1334
v -3.3669 1.3304 0.1803
v -3.4805 1.3593 0.4380
v -3.2572 1.4080 0.3534
v -3.3278 1.5263 0.2298
v -3.2906 1.4883 0.1891
v -3.2774 1.4323 0.1688
v -3.2919 1.3732 0.1742
v -3.3302 1.3269 0.2039
v -3.2576 1.3683 0.3482
v -3.4862 1.4080 0.3741
v -3.3109 1.5206 0.2718
v -3.2612 1.4785 0.2617
v -3.2435 1.4210 0.2526
v -3.2625 1.3634 0.2468
v -3.3132 1.3213 0.2458
v -3.4867 1.3683 0.3689
v -3.2875 0.9096 0.4341
v -3.2488 0.7109 0.3623
v -3.2427 0.9096 0.4301
v -3.2868 0.6850 0.4417
v -3.2807 0.8836 0.5095
v -3.2420 0.6850 0.4377
v -3.2359 0.8836 0.5055
v 1.2895 0.0900 -1.5381
v 1.2895 0.0000 -1.5381
v -3.2354 1.0126 0.4058
v -3.2202 0.9906 0.5737
v -3.2516 0.9851 0.4037
v -3.2365 0.9631 0.5716
v -3.2835 0.9851 0.4066
v -3.2683 0.9631 0.5745
v -3.2991 1.0126 0.4116
v -3.2839 0.9906 0.5795
v -3.2828 1.0401 0.4137
v -3.2677 1.0181 0.5816
v -3.2510 1.0401 0.4109
v -3.2358 1.0181 0.5787
v 1.4493 0.0000 -1.5301
v 1.4493 0.0900 -1.5301
v 1.2755 0.0000 -1.2585
v 1.2755 0.0900 -1.2585
v 1.4353 0.0000 -1.2505
v 1.4353 0.0900 -1.2505
v 1.2797 0.0900 -1.5436
v 1.2797 0.9000 -1.5436
v 1.4595 0.0900 -1.5346
v 1.4595 0.9000 -1.5346
v 1.2702 0.0900 -1.3539
v 1.2702 0.9000 -1.3539
v 1.4500 0.0900 -1.3449
v 1.4500 0.9000 -1.3449
v 1.2687 0.3950 -1.5242
v 1.2687 0.5250 -1.5242
v 1.4685 0.3950 -1.5142
v 1.4685 0.5250 -1.5142
v 1.2582 0.3950 -1.3144
v 1.2582 0.5250 -1.3144
v 1.4580 0.3950 -1.3044
v 1.4580 0.5250 -1.3044
v 1.0597 0.0000 -1.5496
v 1.0597 0.0900 -1.5496
v 1.2195 0.0000 -1.5416
v 1.2195 0.0900 -1.5416
v 1.0457 0.0000 -1.2700
v 1.0457 0.0900 -1.2700
v 1.2055 0.0000 -1.2620
v 1.2055 0.0900 -1.2620
v 1.0500 0.0900 -1.5551
v 1.0500 0.9000 -1.5551
v 1.2298 0.0900 -1.5461
v 1.2298 0.9000 -1.5461
v 1.0405 0.0900 -1.3654
v 1.0405 0.9000 -1.3654
v 1.2203 0.0900 -1.3564
v 1.2203 0.9000 -1.3564
v 1.0390 0.3950 -1.5357
v 1.0390 0.5250 -1.5357
v 1.2388 0.3950 -1.5257
v 1.2388 0.5250 -1.5257
v 1.0285 0.3950 -1.3259
v 1.0285 0.5250 -1.3259
v 1.2283 0.3950 -1.3159
v 1.2283 0.5250 -1.3159
v 1.0570 0.8900 -1.5948
v 1.0570 1.4700 -1.5948
v 1.4565 0.8900 -1.5748
v 1.4565 1.4700 -1.5748
v 1.0435 0.8900 -1.3252
v 1.0435 1.4700 -1.3252
v 1.4430 0.8900 -1.3052
v 1.4430 1.4700 -1.3052
v 1.0328 0.9900 -1.6111
v 1.0328 1.4100 -1.6111
v 1.4822 0.9900 -1.5886
v 1.4822 1.4100 -1.5886
v 1.0168 0.9900 -1.2915
v 1.0168 1.4100 -1.2915
v 1.4662 0.9900 -1.2690
v 1.4662 1.4100 -1.2690
v 1.0390 1.0200 -1.3354
v 1.0390 1.1600 -1.3354
v 1.1888 1.0200 -1.3279
v 1.1888 1.1600 -1.3279
v 1.0345 1.0200 -1.2455
v 1.0345 1.1600 -1.2455
v 1.1843 1.0200 -1.2380
v 1.1843 1.1600 -1.2380
v 1.2987 1.0200 -1.3224
v 1.2987 1.1600 -1.3224
v 1.4485 1.0200 -1.3149
v 1.4485 1.1600 -1.3149
v 1.2942 1.0200 -1.2325
v 1.2942 1.1600 -1.2325
v 1.4440 1.0200 -1.2250
v 1.4440 1.1600 -1.2250
v 1.0972 1.0400 -1.7981
v 1.0972 1.4400 -1.7981
v 1.4368 1.0400 -1.7811
v 1.4368 1.4400 -1.7811
v 1.0862 1.0400 -1.5783
v 1.0862 1.4400 -1.5783
v 1.4258 1.0400 -1.5614
v 1.4258 1.4400 -1.5614
v 0.9916 1.3350 -1.5881
v 0.9916 1.4850 -1.5881
v 1.5209 1.3350 -1.5616
v 1.5209 1.4850 -1.5616
v 0.9791 1.3350 -1.3384
v 0.9791 1.4850 -1.3384
v 1.5084 1.3350 -1.3119
v 1.5084 1.4850 -1.3119
v 1.4545 0.9028 -1.4343
v 1.4575 1.3992 -1.4941
v 1.5843 0.9028 -1.4278
v 1.5873 1.3992 -1.4876
v 1.4470 0.9208 -1.2856
v 1.4500 1.4172 -1.3453
v 1.5769 0.9208 -1.2791
v 1.5799 1.4172 -1.3388
v 1.3896 0.9050 -1.3379
v 1.3896 1.0150 -1.3379
v 1.4994 0.9050 -1.3324
v 1.4994 1.0150 -1.3324
v 1.3841 0.9050 -1.2280
v 1.3841 1.0150 -1.2280
v 1.4939 0.9050 -1.2225
v 1.4939 1.0150 -1.2225
v 0.9151 0.9028 -1.4613
v 0.9181 1.3992 -1.5211
v 1.0450 0.9028 -1.4548
v 1.0480 1.3992 -1.5146
v 0.9077 0.9208 -1.3125
v 0.9107 1.4172 -1.3723
v 1.0375 0.9208 -1.3061
v 1.0405 1.4172 -1.3658
v 0.9901 0.9050 -1.3579
v 0.9901 1.0150 -1.3579
v 1.0999 0.9050 -1.3524
v 1.0999 1.0150 -1.3524
v 0.9846 0.9050 -1.2480
v 0.9846 1.0150 -1.2480
v 1.0944 0.9050 -1.2425
v 1.0944 1.0150 -1.2425
v 1.1878 1.4600 -1.5082
v 1.1878 1.5400 -1.5082
v 1.3177 1.4600 -1.5017
v 1.3177 1.5400 -1.5017
v 1.1823 1.4600 -1.3983
v 1.1823 1.5400 -1.3983
v 1.3122 1.4600 -1.3918
v 1.3122 1.5400 -1.3918
v 1.1594 1.4950 -1.5396
v 1.1594 1.7050 -1.5396
v 1.3491 1.4950 -1.5301
v 1.3491 1.7050 -1.5301
v 1.1499 1.4950 -1.3499
v 1.1499 1.7050 -1.3499
v 1.3396 1.4950 -1.3404
v 1.3396 1.7050 -1.3404
v 1.2500 1.7811 -1.4500
v 1.3174 0.9750 -1.2464
v 1.3723 1.2450 -1.3938
v 1.3723 1.1350 -1.3938
v 1.3224 1.2450 -1.3963
v 1.3224 1.1350 -1.3963
v 1.2500 1.5489 -1.4500
v 1.3833 1.2450 -1.6135
v 1.3034 1.7655 -1.4036
v 1.3426 1.7230 -1.3697
v 1.3569 1.6650 -1.3573
v 1.3426 1.6069 -1.3697
v 1.3034 1.5645 -1.4036
v 1.3833 1.1350 -1.6135
v 1.3334 1.2450 -1.6160
v 1.2677 1.7655 -1.3784
v 1.2807 1.7230 -1.3260
v 1.2854 1.6650 -1.3068
v 1.2807 1.6069 -1.3260
v 1.2677 1.5645 -1.3784
v 1.3334 1.1350 -1.6160
v 1.3469 1.2450 -0.8344
v 1.2252 1.7655 -1.3805
v 1.2071 1.7230 -1.3297
v 1.2004 1.6650 -1.3111
v 1.2071 1.6069 -1.3297
v 1.2252 1.5645 -1.3805
v 1.3469 1.1550 -0.8344
v 1.2919 1.2450 -0.8371
v 1.1922 1.7655 -1.4092
v 1.1499 1.7230 -1.3793
v 1.1344 1.6650 -1.3684
v 1.1499 1.6069 -1.3793
v 1.1922 1.5645 -1.4092
v 1.2919 1.1550 -0.8371
v 1.3778 1.2450 -1.4536
v 1.1812 1.7655 -1.4534
v 1.1309 1.7230 -1.4560
v 1.1125 1.6650 -1.4569
v 1.1309 1.6069 -1.4560
v 1.1812 1.5645 -1.4534
v 1.3778 1.1550 -1.4536
v 1.3229 1.2450 -1.4564
v 1.1966 1.7655 -1.4964
v 1.1574 1.7230 -1.5303
v 1.1431 1.6650 -1.5427
v 1.1574 1.6069 -1.5303
v 1.1966 1.5645 -1.4964
v 1.3229 1.1550 -1.4564
v 1.3564 1.6650 -1.2745
v 1.2323 1.7655 -1.5216
v 1.2193 1.7230 -1.5740
v 1.2146 1.6650 -1.5932
v 1.2193 1.6069 -1.5740
v 1.2323 1.5645 -1.5216
v 1.3564 1.6250 -1.2745
v 1.1266 1.6650 -1.2860
v 1.2748 1.7655 -1.5195
v 1.2929 1.7230 -1.5703
v 1.2996 1.6650 -1.5889
v 1.2929 1.6069 -1.5703
v 1.2748 1.5645 -1.5195
v 1.1266 1.6250 -1.2860
v 1.3599 1.6650 -1.3444
v 1.3078 1.7655 -1.4908
v 1.3501 1.7230 -1.5207
v 1.3656 1.6650 -1.5316
v 1.3501 1.6069 -1.5207
v 1.3078 1.5645 -1.4908
v 1.3599 1.6250 -1.3444
v 1.1301 1.6650 -1.3559
v 1.3188 1.7655 -1.4466
v 1.3691 1.7230 -1.4440
v 1.3875 1.6650 -1.4431
v 1.3691 1.6069 -1.4440
v 1.3188 1.5645 -1.4466
v 1.1301 1.6250 -1.3559
v 1.3153 1.1809 -1.2048
v 1.3624 0.9750 -1.2442
v 1.3603 1.1809 -1.2025
v 1.3135 0.9591 -1.1681
v 1.3114 1.1650 -1.1265
v 1.3584 0.9591 -1.1659
v 1.3564 1.1650 -1.1242
v -1.1186 0.0900 -1.7913
v -1.1186 0.0000 -1.7913
v 1.3716 1.2800 -1.2387
v 1.3631 1.2800 -1.0689
v 1.3556 1.2523 -1.2395
v 1.3471 1.2523 -1.0697
v 1.3236 1.2523 -1.2411
v 1.3152 1.2523 -1.0713
v 1.3077 1.2800 -1.2419
v 1.2992 1.2800 -1.0721
v 1.3236 1.3077 -1.2411
v 1.3152 1.3077 -1.0713
v 1.3556 1.3077 -1.2395
v 1.3471 1.3077 -1.0697
v -0.9588 0.0000 -1.7977
v -0.9588 0.0900 -1.7977
v -1.1074 0.0000 -1.5116
v -1.1074 0.0900 -1.5116
v -0.9476 0.0000 -1.5179
v -0.9476 0.0900 -1.5179
v -1.1288 0.0900 -1.7959
v -1.1288 0.9000 -1.7959
v -0.9490 0.0900 -1.8031
v -0.9490 0.9000 -1.8031
v -1.1212 0.0900 -1.6061
v -1.1212 0.9000 -1.6061
v -0.9414 0.0900 -1.6133
v -0.9414 0.9000 -1.6133
v -1.1380 0.3950 -1.7755
v -1.1380 0.5250 -1.7755
v -0.9382 0.3950 -1.7835
v -0.9382 0.5250 -1.7835
v -1.1296 0.3950 -1.5657
v -1.1296 0.5250 -1.5657
v -0.9298 0.3950 -1.5737
v -0.9298 0.5250 -1.5737
v -1.3484 0.0000 -1.7821
v -1.3484 0.0900 -1.7821
v -1.1886 0.0000 -1.7885
v -1.1886 0.0900 -1.7885
v -1.3372 0.0000 -1.5024
v -1.3372 0.0900 -1.5024
v -1.1774 0.0000 -1.5088
v -1.1774 0.0900 -1.5088
v -1.3586 0.0900 -1.7867
v -1.3586 0.9000 -1.7867
v -1.1788 0.0900 -1.7939
v -1.1788 0.9000 -1.7939
v -1.3510 0.0900 -1.5969
v -1.3510 0.9000 -1.5969
v -1.1712 0.0900 -1.6041
v -1.1712 0.9000 -1.6041
v -1.3678 0.3950 -1.7663
v -1.3678 0.5250 -1.7663
v -1.1680 0.3950 -1.7743
v -1.1680 0.5250 -1.7743
v -1.3594 0.3950 -1.5565
v -1.3594 0.5250 -1.5565
v -1.1596 0.3950 -1.5645
v -1.1596 0.5250 -1.5645
v -1.3552 0.8900 -1.8269
v -1.3552 1.4700 -1.8269
v -0.9556 0.8900 -1.8429
v -0.9556 1.4700 -1.8429
v -1.3444 0.8900 -1.5571
v -1.3444 1.4700 -1.5571
v -0.9448 0.8900 -1.5731
v -0.9448 1.4700 -1.5731
v -1.3808 0.9900 -1.8409
v -1.3808 1.4100 -1.8409
v -0.9312 0.9900 -1.8589
v -0.9312 1.4100 -1.8589
v -1.3680 0.9900 -1.5211
v -1.3680 1.4100 -1.5211
v -0.9184 0.9900 -1.5391
v -0.9184 1.4100 -1.5391
v -1.3498 1.0200 -1.5669
v -1.3498 1.1600 -1.5669
v -1.2000 1.0200 -1.5729
v -1.2000 1.1600 -1.5729
v -1.3462 1.0200 -1.4770
v -1.3462 1.1600 -1.4770
v -1.1964 1.0200 -1.4830
v -1.1964 1.1600 -1.4830
v -1.0900 1.0200 -1.5773
v -1.0900 1.1600 -1.5773
v -0.9402 1.0200 -1.5833
v -0.9402 1.1600 -1.5833
v -1.0864 1.0200 -1.4874
v -1.0864 1.1600 -1.4874
v -0.9366 1.0200 -1.4934
v -0.9366 1.1600 -1.4934
v -1.3335 1.0400 -2.0329
v -1.3335 1.4400 -2.0329
v -0.9937 1.0400 -2.0465
v -0.9937 1.4400 -2.0465
v -1.3247 1.0400 -1.8131
v -1.3247 1.4400 -1.8131
v -0.9849 1.0400 -1.8267
v -0.9849 1.4400 -1.8267
v -1.4198 1.3350 -1.8143
v -1.4198 1.4850 -1.8143
v -0.8902 1.3350 -1.8355
v -0.8902 1.4850 -1.8355
v -1.4098 1.3350 -1.5645
v -1.4098 1.4850 -1.5645
v -0.8802 1.3350 -1.5857
v -0.8802 1.4850 -1.5857
v -0.9449 0.9028 -1.7027
v -0.9473 1.3992 -1.7625
v -0.8150 0.9028 -1.7079
v -0.8174 1.3992 -1.7677
v -0.9390 0.9208 -1.5539
v -0.9414 1.4172 -1.6137
v -0.8091 0.9208 -1.5591
v -0.8115 1.4172 -1.6189
v -1.0009 0.9050 -1.6009
v -1.0009 1.0150 -1.6009
v -0.8910 0.9050 -1.6053
v -0.8910 1.0150 -1.6053
v -0.9965 0.9050 -1.4910
v -0.9965 1.0150 -1.4910
v -0.8866 0.9050 -1.4954
v -0.8866 1.0150 -1.4954
v -1.4845 0.9028 -1.6811
v -1.4869 1.3992 -1.7409
v -1.3546 0.9028 -1.6863
v -1.3570 1.3992 -1.7461
v -1.4786 0.9208 -1.5323
v -1.4810 1.4172 -1.5921
v -1.3487 0.9208 -1.5375
v -1.3511 1.4172 -1.5973
v -1.4006 0.9050 -1.5849
v -1.4006 1.0150 -1.5849
v -1.2907 0.9050 -1.5893
v -1.2907 1.0150 -1.5893
v -1.3962 0.9050 -1.4750
v -1.3962 1.0150 -1.4750
v -1.2863 0.9050 -1.4794
v -1.2863 1.0150 -1.4794
v -1.2171 1.4600 -1.7524
v -1.2171 1.5400 -1.7524
v -1.0873 1.4600 -1.7576
v -1.0873 1.5400 -1.7576
v -1.2127 1.4600 -1.6424
v -1.2127 1.5400 -1.6424
v -1.0829 1.4600 -1.6476
v -1.0829 1.5400 -1.6476
v -1.2483 1.4950 -1.7811
v -1.2483 1.7050 -1.7811
v -1.0585 1.4950 -1.7887
v -1.0585 1.7050 -1.7887
v -1.2407 1.4950 -1.5913
v -1.2407 1.7050 -1.5913
v -1.0509 1.4950 -1.5989
v -1.0509 1.7050 -1.5989
v -1.1500 1.7811 -1.7000
v -1.0646 0.9750 -1.5033
v -1.0231 1.2450 -1.6550
v -1.0231 1.1350 -1.6550
v -1.0731 1.2450 -1.6530
v -1.0731 1.1350 -1.6530
v -1.1500 1.5489 -1.7000
v -1.0319 1.2450 -1.8749
v -1.0926 1.7655 -1.6586
v -1.0506 1.7230 -1.6283
v -1.0352 1.6650 -1.6172
v -1.0506 1.6069 -1.6283
v -1.0926 1.5645 -1.6586
v -1.0319 1.1350 -1.8749
v -1.0819 1.2450 -1.8729
v -1.1259 1.7655 -1.6303
v -1.1083 1.7230 -1.5793
v -1.1018 1.6650 -1.5606
v -1.1083 1.6069 -1.5793
v -1.1259 1.5645 -1.6303
v -1.0819 1.1350 -1.8729
v -0.9982 1.2450 -1.0956
v -1.1684 1.7655 -1.6286
v -1.1819 1.7230 -1.5763
v -1.1869 1.6650 -1.5572
v -1.1819 1.6069 -1.5763
v -1.1684 1.5645 -1.6286
v -0.9982 1.1550 -1.0956
v -1.0532 1.2450 -1.0934
v -1.2039 1.7655 -1.6542
v -1.2434 1.7230 -1.6206
v -1.2578 1.6650 -1.6083
v -1.2434 1.6069 -1.6206
v -1.2039 1.5645 -1.6542
v -1.0532 1.1550 -1.0934
v -1.0230 1.2450 -1.7151
v -1.2188 1.7655 -1.6972
v -1.2692 1.7230 -1.6952
v -1.2876 1.6650 -1.6945
v -1.2692 1.6069 -1.6952
v -1.2188 1.5645 -1.6972
v -1.0230 1.1550 -1.7151
v -1.0780 1.2450 -1.7129
v -1.2074 1.7655 -1.7414
v -1.2494 1.7230 -1.7717
v -1.2648 1.6650 -1.7828
v -1.2494 1.6069 -1.7717
v -1.2074 1.5645 -1.7414
v -1.0780 1.1550 -1.7129
v -1.0283 1.6650 -1.5347
v -1.1741 1.7655 -1.7697
v -1.1917 1.7230 -1.8207
v -1.1982 1.6650 -1.8394
v -1.1917 1.6069 -1.8207
v -1.1741 1.5645 -1.7697
v -1.0283 1.6250 -1.5347
v -1.2581 1.6650 -1.5255
v -1.1316 1.7655 -1.7714
v -1.1181 1.7230 -1.8237
v -1.1131 1.6650 -1.8428
v -1.1181 1.6069 -1.8237
v -1.1316 1.5645 -1.7714
v -1.2581 1.6250 -1.5255
v -1.0311 1.6650 -1.6047
v -1.0961 1.7655 -1.7458
v -1.0566 1.7230 -1.7794
v -1.0422 1.6650 -1.7917
v -1.0566 1.6069 -1.7794
v -1.0961 1.5645 -1.7458
v -1.0311 1.6250 -1.6047
v -1.2609 1.6650 -1.5955
v -1.0812 1.7655 -1.7028
v -1.0308 1.7230 -1.7048
v -1.0124 1.6650 -1.7055
v -1.0308 1.6069 -1.7048
v -1.0812 1.5645 -1.7028
v -1.2609 1.6250 -1.5955
v -1.0629 1.1809 -1.4616
v -1.0196 0.9750 -1.5051
v -1.0179 1.1809 -1.4634
v -1.0614 0.9591 -1.4250
v -1.0598 1.1650 -1.3833
v -1.0165 0.9591 -1.4268
v -1.0148 1.1650 -1.3851
v 0.1832 0.0900 -3.1407
v 0.1832 0.0000 -3.1407
v -1.0099 1.2800 -1.5004
v -1.0031 1.2800 -1.3306
v -1.0259 1.2523 -1.4998
v -1.0191 1.2523 -1.3299
v -1.0579 1.2523 -1.4985
v -1.0511 1.2523 -1.3287
v -1.0739 1.2800 -1.4979
v -1.0671 1.2800 -1.3280
v -1.0579 1.3077 -1.4985
v -1.0511 1.3077 -1.3287
v -1.0259 1.3077 -1.4998
v -1.0191 1.3077 -1.3299
v 0.3432 0.0000 -3.1439
v 0.3432 0.0900 -3.1439
v 0.1888 0.0000 -2.8607
v 0.1888 0.0900 -2.8607
v 0.3488 0.0000 -2.8639
v 0.3488 0.0900 -2.8639
v 0.1731 0.0900 -3.1455
v 0.1731 0.9000 -3.1455
v 0.3531 0.0900 -3.1491
v 0.3531 0.9000 -3.1491
v 0.1769 0.0900 -2.9555
v 0.1769 0.9000 -2.9555
v 0.3569 0.0900 -2.9591
v 0.3569 0.9000 -2.9591
v 0.1635 0.3950 -3.1253
v 0.1635 0.5250 -3.1253
v 0.3635 0.3950 -3.1293
v 0.3635 0.5250 -3.1293
v 0.1677 0.3950 -2.9153
v 0.1677 0.5250 -2.9153
v 0.3677 0.3950 -2.9193
v 0.3677 0.5250 -2.9193
v -0.0468 0.0000 -3.1361
v -0.0468 0.0900 -3.1361
v 0.1132 0.0000 -3.1393
v 0.1132 0.0900 -3.1393
v -0.0412 0.0000 -2.8561
v -0.0412 0.0900 -2.8561
v 0.1188 0.0000 -2.8593
v 0.1188 0.0900 -2.8593
v -0.0569 0.0900 -3.1409
v -0.0569 0.9000 -3.1409
v 0.1231 0.0900 -3.1445
v 0.1231 0.9000 -3.1445
v -0.0531 0.0900 -2.9509
v -0.0531 0.9000 -2.9509
v 0.1269 0.0900 -2.9545
v 0.1269 0.9000 -2.9545
v -0.0665 0.3950 -3.1207
v -0.0665 0.5250 -3.1207
v 0.1335 0.3950 -3.1247
v 0.1335 0.5250 -3.1247
v -0.0623 0.3950 -2.9107
v -0.0623 0.5250 -2.9107
v 0.1377 0.3950 -2.9147
v 0.1377 0.5250 -2.9147
v -0.0527 0.8900 -3.1810
v -0.0527 1.4700 -3.1810
v 0.3473 0.8900 -3.1890
v 0.3473 1.4700 -3.1890
v -0.0473 0.8900 -2.9110
v -0.0473 1.4700 -2.9110
v 0.3527 0.8900 -2.9190
v 0.3527 1.4700 -2.9190
v -0.0780 0.9900 -3.1955
v -0.0780 1.4100 -3.1955
v 0.3720 0.9900 -3.2045
v 0.3720 1.4100 -3.2045
v -0.0716 0.9900 -2.8755
v -0.0716 1.4100 -2.8755
v 0.3784 0.9900 -2.8845
v 0.3784 1.4100 -2.8845
v -0.0525 1.0200 -2.9209
v -0.0525 1.1600 -2.9209
v 0.0975 1.0200 -2.9239
v 0.0975 1.1600 -2.9239
v -0.0507 1.0200 -2.8309
v -0.0507 1.1600 -2.8309
v 0.0993 1.0200 -2.8339
v 0.0993 1.1600 -2.8339
v 0.2075 1.0200 -2.9261
v 0.2075 1.1600 -2.9261
v 0.3575 1.0200 -2.9291
v 0.3575 1.1600 -2.9291
v 0.2093 1.0200 -2.8361
v 0.2093 1.1600 -2.8361
v 0.3593 1.0200 -2.8391
v 0.3593 1.1600 -2.8391
v -0.0268 1.0400 -3.3865
v -0.0268 1.4400 -3.3865
v 0.3132 1.0400 -3.3933
v 0.3132 1.4400 -3.3933
v -0.0224 1.0400 -3.1666
v -0.0224 1.4400 -3.1666
v 0.3176 1.0400 -3.1734
v 0.3176 1.4400 -3.1734
v -0.1174 1.3350 -3.1697
v -0.1174 1.4850 -3.1697
v 0.4124 1.3350 -3.1803
v 0.4124 1.4850 -3.1803
v -0.1124 1.3350 -2.9197
v -0.1124 1.4850 -2.9197
v 0.4174 1.3350 -2.9303
v 0.4174 1.4850 -2.9303
v 0.3551 0.9028 -3.0486
v 0.3539 1.3992 -3.1085
v 0.4850 0.9028 -3.0512
v 0.4838 1.3992 -3.1111
v 0.3580 0.9208 -2.8997
v 0.3568 1.4172 -2.9596
v 0.4880 0.9208 -2.9023
v 0.4868 1.4172 -2.9622
v 0.2971 0.9050 -2.9479
v 0.2971 1.0150 -2.9479
v 0.4070 0.9050 -2.9501
v 0.4070 1.0150 -2.9501
v 0.2993 0.9050 -2.8379
v 0.2993 1.0150 -2.8379
v 0.4092 0.9050 -2.8401
v 0.4092 1.0150 -2.8401
v -0.1848 0.9028 -3.0378
v -0.1860 1.3992 -3.0977
v -0.0548 0.9028 -3.0404
v -0.0560 1.3992 -3.1003
v -0.1818 0.9208 -2.8889
v -0.1830 1.4172 -2.9488
v -0.0519 0.9208 -2.8915
v -0.0531 1.4172 -2.9514
v -0.1028 0.9050 -2.9399
v -0.1028 1.0150 -2.9399
v 0.0071 0.9050 -2.9421
v 0.0071 1.0150 -2.9421
v -0.1006 0.9050 -2.8299
v -0.1006 1.0150 -2.8299
v 0.0093 0.9050 -2.8321
v 0.0093 1.0150 -2.8321
v 0.0839 1.4600 -3.1037
v 0.0839 1.5400 -3.1037
v 0.2139 1.4600 -3.1063
v 0.2139 1.5400 -3.1063
v 0.0861 1.4600 -2.9937
v 0.0861 1.5400 -2.9937
v 0.2161 1.4600 -2.9963
v 0.2161 1.5400 -2.9963
v 0.0533 1.4950 -3.1331
v 0.0533 1.7050 -3.1331
v 0.2433 1.4950 -3.1369
v 0.2433 1.7050 -3.1369
v 0.0571 1.4950 -2.9431
v 0.0571 1.7050 -2.9431
v 0.2471 1.4950 -2.9469
v 0.2471 1.7050 -2.9469
v 0.1500 1.7811 -3.0500
v 0.2315 0.9750 -2.8517
v 0.2760 1.2450 -3.0025
v 0.2760 1.1350 -3.0025
v 0.2260 1.2450 -3.0015
v 0.2260 1.1350 -3.0015
v 0.1500 1.5489 -3.0500
v 0.2716 1.2450 -3.2225
v 0.2066 1.7655 -3.0075
v 0.2480 1.7230 -2.9764
v 0.2631 1.6650 -2.9650
v 0.2480 1.6069 -2.9764
v 0.2066 1.5645 -3.0075
v 0.2716 1.1350 -3.2225
v 0.2216 1.2450 -3.2215
v 0.1727 1.7655 -2.9798
v 0.1893 1.7230 -2.9285
v 0.1954 1.6650 -2.9096
v 0.1893 1.6069 -2.9285
v 0.1727 1.5645 -2.9798
v 0.2216 1.1350 -3.2215
v 0.2897 1.2450 -2.4427
v 0.1301 1.7655 -2.9790
v 0.1156 1.7230 -2.9270
v 0.1103 1.6650 -2.9079
v 0.1156 1.6069 -2.9270
v 0.1301 1.5645 -2.9790
v 0.2897 1.1550 -2.4427
v 0.2347 1.2450 -2.4416
v 0.0952 1.7655 -3.0053
v 0.0551 1.7230 -2.9725
v 0.0404 1.6650 -2.9605
v 0.0551 1.6069 -2.9725
v 0.0952 1.5645 -3.0053
v 0.2347 1.1550 -2.4416
v 0.2773 1.2450 -3.0625
v 0.0812 1.7655 -3.0486
v 0.0308 1.7230 -3.0476
v 0.0123 1.6650 -3.0472
v 0.0308 1.6069 -3.0476
v 0.0812 1.5645 -3.0486
v 0.2773 1.1550 -3.0625
v 0.2223 1.2450 -3.0614
v 0.0934 1.7655 -3.0925
v 0.0520 1.7230 -3.1236
v 0.0369 1.6650 -3.1350
v 0.0520 1.6069 -3.1236
v 0.0934 1.5645 -3.0925
v 0.2223 1.1550 -3.0614
v 0.2684 1.6650 -2.8823
v 0.1273 1.7655 -3.1202
v 0.1107 1.7230 -3.1715
v 0.1046 1.6650 -3.1904
v 0.1107 1.6069 -3.1715
v 0.1273 1.5645 -3.1202
v 0.2684 1.6250 -2.8823
v 0.0384 1.6650 -2.8777
v 0.1699 1.7655 -3.1210
v 0.1844 1.7230 -3.1730
v 0.1897 1.6650 -3.1921
v 0.1844 1.6069 -3.1730
v 0.1699 1.5645 -3.1210
v 0.0384 1.6250 -2.8777
v 0.2670 1.6650 -2.9523
v 0.2048 1.7655 -3.0947
v 0.2449 1.7230 -3.1275
v 0.2596 1.6650 -3.1395
v 0.2449 1.6069 -3.1275
v 0.2048 1.5645 -3.0947
v 0.2670 1.6250 -2.9523
v 0.0370 1.6650 -2.9477
v 0.2188 1.7655 -3.0514
v 0.2692 1.7230 -3.0524
v 0.2877 1.6650 -3.0528
v 0.2692 1.6069 -3.0524
v 0.2188 1.5645 -3.0514
v 0.0370 1.6250 -2.9477
v 0.2323 1.1809 -2.8099
v 0.2765 0.9750 -2.8526
v 0.2773 1.1809 -2.8108
v 0.2331 0.9591 -2.7733
v 0.2339 1.1650 -2.7316
v 0.2780 0.9591 -2.7742
v 0.2789 1.1650 -2.7325
v 0.2861 1.2800 -2.8477
v 0.2895 1.2800 -2.6777
v 0.2701 1.2523 -2.8474
v 0.2735 1.2523 -2.6774
v 0.2381 1.2523 -2.8467
v 0.2415 1.2523 -2.6768
v 0.2221 1.2800 -2.8464
v 0.2255 1.2800 -2.6764
v 0.2381 1.3077 -2.8467
v 0.2415 1.3077 -2.6768
v 0.2701 1.3077 -2.8474
v 0.2735 1.3077 -2.6774
usemtl Mat0
f 2 3 1
f 4 7 3
f 8 5 7
f 6 1 5
f 7 1 3
f 4 6 8
f 18 19 17
f 20 23 19
f 24 21 23
f 21 18 17
f 23 17 19
f 20 22 24
f 34 35 33
f 35 40 39
f 40 37 39
f 38 33 37
f 39 33 35
f 36 38 40
f 42 43 41
f 44 47 43
f 48 45 47
f 45 42 41
f 47 41 43
f 44 46 48
f 50 51 49
f 51 56 55
f 56 53 55
f 54 49 53
f 55 49 51
f 52 54 56
f 66 67 65
f 68 71 67
f 72 69 71
f 69 66 65
f 71 65 67
f 68 70 72
f 74 75 73
f 76 79 75
f 80 77 79
f 77 74 73
f 79 73 75
f 76 78 80
f 90 91 89
f 91 96 95
f 96 93 95
f 94 89 93
f 95 89 91
f 92 94 96
f 98 99 97
f 100 103 99
f 104 101 103
f 101 98 97
f 103 97 99
f 100 102 104
f 114 115 113
f 116 119 115
f 120 117 119
f 117 114 113
f 119 113 115
f 116 118 120
f 254 249 253
f 251 253 249
f 252 255 251
f 250 251 249
f 256 253 255
f 252 254 256
f 274 275 273
f 276 279 275
f 280 277 279
f 278 273 277
f 275 277 273
f 276 278 280
f 290 291 289
f 292 295 291
f 296 293 295
f 294 289 293
f 291 293 289
f 292 294 296
f 306 307 305
f 308 311 307
f 312 309 311
f 310 305 309
f 311 305 307
f 312 306 310
f 314 315 313
f 316 319 315
f 320 317 319
f 318 313 317
f 319 313 315
f 320 314 318
f 330 331 329
f 332 335 331
f 336 333 335
f 334 329 333
f 331 333 329
f 332 334 336
f 338 339 337
f 340 343 339
f 343 342 341
f 341 338 337
f 343 337 339
f 344 338 342
f 354 355 353
f 356 359 355
f 360 357 359
f 358 353 357
f 359 353 355
f 356 358 360
f 494 489 493
f 495 489 491
f 492 495 491
f 490 491 489
f 496 493 495
f 496 490 494
f 514 515 513
f 516 519 515
f 520 517 519
f 518 513 517
f 519 513 515
f 520 514 518
f 530 531 529
f 532 535 531
f 536 533 535
f 534 529 533
f 531 533 529
f 532 534 536
f 546 547 545
f 548 551 547
f 552 549 551
f 550 545 549
f 547 549 545
f 548 550 552
f 554 555 553
f 556 559 555
f 560 557 559
f 558 553 557
f 555 557 553
f 556 558 560
f 570 571 569
f 572 575 571
f 576 573 575
f 574 569 573
f 571 573 569
f 572 574 576
f 578 579 577
f 579 584 583
f 584 581 583
f 582 577 581
f 583 577 579
f 580 582 584
f 594 595 593
f 596 599 595
f 600 597 599
f 598 593 597
f 599 593 595
f 600 594 598
f 734 729 733
f 731 733 729
f 732 735 731
f 730 731 729
f 736 733 735
f 732 734 736
f 754 755 753
f 756 759 755
f 760 757 759
f 758 753 757
f 755 757 753
f 756 758 760
f 770 771 769
f 772 775 771
f 776 773 775
f 774 769 773
f 771 773 769
f 772 774 776
f 786 787 785
f 788 791 787
f 792 789 791
f 790 785 789
f 791 785 787
f 792 786 790
f 794 795 793
f 796 799 795
f 800 797 799
f 798 793 797
f 799 793 795
f 800 794 798
f 810 811 809
f 812 815 811
f 816 813 815
f 814 809 813
f 815 809 811
f 816 810 814
f 818 819 817
f 820 823 819
f 823 822 821
f 822 817 821
f 823 817 819
f 824 818 822
f 834 835 833
f 836 839 835
f 839 838 837
f 838 833 837
f 839 833 835
f 840 834 838
f 967 950 963
f 966 950 965
f 968 965 967
f 964 967 963
f 949 963 950
f 964 966 968
f 978 979 977
f 980 983 979
f 983 982 981
f 982 977 981
f 983 977 979
f 984 978 982
f 994 995 993
f 996 999 995
f 1000 997 999
f 998 993 997
f 995 997 993
f 1000 994 998
f 1001 1004 1003
f 1004 1007 1003
f 1008 1005 1007
f 1006 1001 1005
f 1007 1001 1003
f 1004 1006 1008
f 1010 1011 1009
f 1011 1016 1015
f 1016 1013 1015
f 1014 1009 1013
f 1011 1013 1009
f 1016 1010 1014
f 1025 1028 1027
f 1027 1032 1031
f 1031 1030 1029
f 1030 1025 1029
f 1027 1029 1025
f 1028 1030 1032
f 1033 1036 1035
f 1036 1039 1035
f 1040 1037 1039
f 1038 1033 1037
f 1039 1033 1035
f 1036 1038 1040
f 1050 1051 1049
f 1052 1055 1051
f 1055 1054 1053
f 1054 1049 1053
f 1055 1049 1051
f 1052 1054 1056
f 1058 1059 1057
f 1060 1063 1059
f 1063 1062 1061
f 1062 1057 1061
f 1063 1057 1059
f 1064 1058 1062
f 1074 1075 1073
f 1076 1079 1075
f 1080 1077 1079
f 1078 1073 1077
f 1075 1077 1073
f 1076 1078 1080
f 1214 1209 1213
f 1215 1209 1211
f 1212 1215 1211
f 1210 1211 1209
f 1216 1213 1215
f 1216 1210 1214
f 1234 1235 1233
f 1236 1239 1235
f 1240 1237 1239
f 1238 1233 1237
f 1239 1233 1235
f 1240 1234 1238
f 1250 1251 1249
f 1252 1255 1251
f 1256 1253 1255
f 1254 1249 1253
f 1255 1249 1251
f 1252 1254 1256
f 1266 1267 1265
f 1268 1271 1267
f 1272 1269 1271
f 1270 1265 1269
f 1267 1269 1265
f 1268 1270 1272
f 1274 1275 1273
f 1276 1279 1275
f 1280 1277 1279
f 1278 1273 1277
f 1275 1277 1273
f 1276 1278 1280
f 1290 1291 1289
f 1292 1295 1291
f 1296 1293 1295
f 1294 1289 1293
f 1295 1289 1291
f 1296 1290 1294
f 1298 1299 1297
f 1300 1303 1299
f 1304 1301 1303
f 1301 1298 1297
f 1303 1297 1299
f 1304 1298 1302
f 1314 1315 1313
f 1316 1319 1315
f 1320 1317 1319
f 1318 1313 1317
f 1319 1313 1315
f 1320 1314 1318
f 1454 1449 1453
f 1455 1449 1451
f 1452 1455 1451
f 1450 1451 1449
f 1456 1453 1455
f 1456 1450 1454
f 1474 1475 1473
f 1476 1479 1475
f 1480 1477 1479
f 1478 1473 1477
f 1479 1473 1475
f 1480 1474 1478
f 1490 1491 1489
f 1492 1495 1491
f 1496 1493 1495
f 1494 1489 1493
f 1495 1489 1491
f 1492 1494 1496
f 1506 1507 1505
f 1508 1511 1507
f 1512 1509 1511
f 1510 1505 1509
f 1511 1505 1507
f 1512 1506 1510
f 1514 1515 1513
f 1516 1519 1515
f 1520 1517 1519
f 1518 1513 1517
f 1519 1513 1515
f 1520 1514 1518
f 1530 1531 1529
f 1532 1535 1531
f 1536 1533 1535
f 1534 1529 1533
f 1535 1529 1531
f 1532 1534 1536
f 1538 1539 1537
f 1540 1543 1539
f 1544 1541 1543
f 1542 1537 1541
f 1539 1541 1537
f 1540 1542 1544
f 1554 1555 1553
f 1556 1559 1555
f 1560 1557 1559
f 1558 1553 1557
f 1559 1553 1555
f 1560 1554 1558
f 1694 1689 1693
f 1691 1693 1689
f 1692 1695 1691
f 1690 1691 1689
f 1696 1693 1695
f 1692 1694 1696
f 1714 1715 1713
f 1716 1719 1715
f 1720 1717 1719
f 1718 1713 1717
f 1715 1717 1713
f 1716 1718 1720
f 1730 1731 1729
f 1732 1735 1731
f 1736 1733 1735
f 1734 1729 1733
f 1731 1733 1729
f 1732 1734 1736
f 1746 1747 1745
f 1748 1751 1747
f 1752 1749 1751
f 1750 1745 1749
f 1751 1745 1747
f 1748 1750 1752
f 1754 1755 1753
f 1756 1759 1755
f 1760 1757 1759
f 1758 1753 1757
f 1759 1753 1755
f 1756 1758 1760
f 1770 1771 1769
f 1772 1775 1771
f 1776 1773 1775
f 1774 1769 1773
f 1771 1773 1769
f 1772 1774 1776
f 1778 1779 1777
f 1780 1783 1779
f 1783 1782 1781
f 1782 1777 1781
f 1779 1781 1777
f 1784 1778 1782
f 1794 1795 1793
f 1796 1799 1795
f 1800 1797 1799
f 1798 1793 1797
f 1795 1797 1793
f 1796 1798 1800
f 2 4 3
f 4 8 7
f 8 6 5
f 6 2 1
f 7 5 1
f 4 2 6
f 18 20 19
f 20 24 23
f 24 22 21
f 21 22 18
f 23 21 17
f 20 18 22
f 34 36 35
f 35 36 40
f 40 38 37
f 38 34 33
f 39 37 33
f 36 34 38
f 42 44 43
f 44 48 47
f 48 46 45
f 45 46 42
f 47 45 41
f 44 42 46
f 50 52 51
f 51 52 56
f 56 54 53
f 54 50 49
f 55 53 49
f 52 50 54
f 66 68 67
f 68 72 71
f 72 70 69
f 69 70 66
f 71 69 65
f 68 66 70
f 74 76 75
f 76 80 79
f 80 78 77
f 77 78 74
f 79 77 73
f 76 74 78
f 90 92 91
f 91 92 96
f 96 94 93
f 94 90 89
f 95 93 89
f 92 90 94
f 98 100 99
f 100 104 103
f 104 102 101
f 101 102 98
f 103 101 97
f 100 98 102
f 114 116 115
f 116 120 119
f 120 118 117
f 117 118 114
f 119 117 113
f 116 114 118
f 254 250 249
f 251 255 253
f 252 256 255
f 250 252 251
f 256 254 253
f 252 250 254
f 274 276 275
f 276 280 279
f 280 278 277
f 278 274 273
f 275 279 277
f 276 274 278
f 290 292 291
f 292 296 295
f 296 294 293
f 294 290 289
f 291 295 293
f 292 290 294
f 306 308 307
f 308 312 311
f 312 310 309
f 310 306 305
f 311 309 305
f 312 308 306
f 314 316 315
f 316 320 319
f 320 318 317
f 318 314 313
f 319 317 313
f 320 316 314
f 330 332 331
f 332 336 335
f 336 334 333
f 334 330 329
f 331 335 333
f 332 330 334
f 338 340 339
f 340 344 343
f 343 344 342
f 341 342 338
f 343 341 337
f 344 340 338
f 354 356 355
f 356 360 359
f 360 358 357
f 358 354 353
f 359 357 353
f 356 354 358
f 494 490 489
f 495 493 489
f 492 496 495
f 490 492 491
f 496 494 493
f 496 492 490
f 514 516 515
f 516 520 519
f 520 518 517
f 518 514 513
f 519 517 513
f 520 516 514
f 530 532 531
f 532 536 535
f 536 534 533
f 534 530 529
f 531 535 533
f 532 530 534
f 546 548 547
f 548 552 551
f 552 550 549
f 550 546 545
f 547 551 549
f 548 546 550
f 554 556 555
f 556 560 559
f 560 558 557
f 558 554 553
f 555 559 557
f 556 554 558
f 570 572 571
f 572 576 575
f 576 574 573
f 574 570 569
f 571 575 573
f 572 570 574
f 578 580 579
f 579 580 584
f 584 582 581
f 582 578 577
f 583 581 577
f 580 578 582
f 594 596 595
f 596 600 599
f 600 598 597
f 598 594 593
f 599 597 593
f 600 596 594
f 734 730 729
f 731 735 733
f 732 736 735
f 730 732 731
f 736 734 733
f 732 730 734
f 754 756 755
f 756 760 759
f 760 758 757
f 758 754 753
f 755 759 757
f 756 754 758
f 770 772 771
f 772 776 775
f 776 774 773
f 774 770 769
f 771 775 773
f 772 770 774
f 786 788 787
f 788 792 791
f 792 790 789
f 790 786 785
f 791 789 785
f 792 788 786
f 794 796 795
f 796 800 799
f 800 798 797
f 798 794 793
f 799 797 793
f 800 796 794
f 810 812 811
f 812 816 815
f 816 814 813
f 814 810 809
f 815 813 809
f 816 812 810
f 818 820 819
f 820 824 823
f 823 824 822
f 822 818 817
f 823 821 817
f 824 820 818
f 834 836 835
f 836 840 839
f 839 840 838
f 838 834 833
f 839 837 833
f 840 836 834
f 967 965 950
f 966 949 950
f 968 966 965
f 964 968 967
f 949 964 963
f 964 949 966
f 978 980 979
f 980 984 983
f 983 984 982
f 982 978 977
f 983 981 977
f 984 980 978
f 994 996 995
f 996 1000 999
f 1000 998 997
f 998 994 993
f 995 999 997
f 1000 996 994
f 1001 1002 1004
f 1004 1008 1007
f 1008 1006 1005
f 1006 1002 1001
f 1007 1005 1001
f 1004 1002 1006
f 1010 1012 1011
f 1011 1012 1016
f 1016 1014 1013
f 1014 1010 1009
f 1011 1015 1013
f 1016 1012 1010
f 1025 1026 1028
f 1027 1028 1032
f 1031 1032 1030
f 1030 1026 1025
f 1027 1031 1029
f 1028 1026 1030
f 1033 1034 1036
f 1036 1040 1039
f 1040 1038 1037
f 1038 1034 1033
f 1039 1037 1033
f 1036 1034 1038
f 1050 1052 1051
f 1052 1056 1055
f 1055 1056 1054
f 1054 1050 1049
f 1055 1053 1049
f 1052 1050 1054
f 1058 1060 1059
f 1060 1064 1063
f 1063 1064 1062
f 1062 1058 1057
f 1063 1061 1057
f 1064 1060 1058
f 1074 1076 1075
f 1076 1080 1079
f 1080 1078 1077
f 1078 1074 1073
f 1075 1079 1077
f 1076 1074 1078
f 1214 1210 1209
f 1215 1213 1209
f 1212 1216 1215
f 1210 1212 1211
f 1216 1214 1213
f 1216 1212 1210
f 1234 1236 1235
f 1236 1240 1239
f 1240 1238 1237
f 1238 1234 1233
f 1239 1237 1233
f 1240 1236 1234
f 1250 1252 1251
f 1252 1256 1255
f 1256 1254 1253
f 1254 1250 1249
f 1255 1253 1249
f 1252 1250 1254
f 1266 1268 1267
f 1268 1272 1271
f 1272 1270 1269
f 1270 1266 1265
f 1267 1271 1269
f 1268 1266 1270
f 1274 1276 1275
f 1276 1280 1279
f 1280 1278 1277
f 1278 1274 1273
f 1275 1279 1277
f 1276 1274 1278
f 1290 1292 1291
f 1292 1296 1295
f 1296 1294 1293
f 1294 1290 1289
f 1295 1293 1289
f 1296 1292 1290
f 1298 1300 1299
f 1300 1304 1303
f 1304 1302 1301
f 1301 1302 1298
f 1303 1301 1297
f 1304 1300 1298
f 1314 1316 1315
f 1316 1320 1319
f 1320 1318 1317
f 1318 1314 1313
f 1319 1317 1313
f 1320 1316 1314
f 1454 1450 1449
f 1455 1453 1449
f 1452 1456 1455
f 1450 1452 1451
f 1456 1454 1453
f 1456 1452 1450
f 1474 1476 1475
f 1476 1480 1479
f 1480 1478 1477
f 1478 1474 1473
f 1479 1477 1473
f 1480 1476 1474
f 1490 1492 1491
f 1492 1496 1495
f 1496 1494 1493
f 1494 1490 1489
f 1495 1493 1489
f 1492 1490 1494
f 1506 1508 1507
f 1508 1512 1511
f 1512 1510 1509
f 1510 1506 1505
f 1511 1509 1505
f 1512 1508 1506
f 1514 1516 1515
f 1516 1520 1519
f 1520 1518 1517
f 1518 1514 1513
f 1519 1517 1513
f 1520 1516 1514
f 1530 1532 1531
f 1532 1536 1535
f 1536 1534 1533
f 1534 1530 1529
f 1535 1533 1529
f 1532 1530 1534
f 1538 1540 1539
f 1540 1544 1543
f 1544 1542 1541
f 1542 1538 1537
f 1539 1543 1541
f 1540 1538 1542
f 1554 1556 1555
f 1556 1560 1559
f 1560 1558 1557
f 1558 1554 1553
f 1559 1557 1553
f 1560 1556 1554
f 1694 1690 1689
f 1691 1695 1693
f 1692 1696 1695
f 1690 1692 1691
f 1696 1694 1693
f 1692 1690 1694
f 1714 1716 1715
f 1716 1720 1719
f 1720 1718 1717
f 1718 1714 1713
f 1715 1719 1717
f 1716 1714 1718
f 1730 1732 1731
f 1732 1736 1735
f 1736 1734 1733
f 1734 1730 1729
f 1731 1735 1733
f 1732 1730 1734
f 1746 1748 1747
f 1748 1752 1751
f 1752 1750 1749
f 1750 1746 1745
f 1751 1749 1745
f 1748 1746 1750
f 1754 1756 1755
f 1756 1760 1759
f 1760 1758 1757
f 1758 1754 1753
f 1759 1757 1753
f 1756 1754 1758
f 1770 1772 1771
f 1772 1776 1775
f 1776 1774 1773
f 1774 1770 1769
f 1771 1775 1773
f 1772 1770 1774
f 1778 1780 1779
f 1780 1784 1783
f 1783 1784 1782
f 1782 1778 1777
f 1779 1783 1781
f 1784 1780 1778
f 1794 1796 1795
f 1796 1800 1799
f 1800 1798 1797
f 1798 1794 1793
f 1795 1799 1797
f 1796 1794 1798
usemtl Mat1
f 10 11 9
f 12 15 11
f 16 13 15
f 14 9 13
f 15 9 11
f 12 14 16
f 26 27 25
f 28 31 27
f 32 29 31
f 30 25 29
f 31 25 27
f 28 30 32
f 247 230 243
f 231 234 233
f 246 230 245
f 234 235 233
f 248 245 247
f 236 237 235
f 244 247 243
f 238 239 237
f 238 236 232
f 229 243 230
f 240 241 239
f 248 229 246
f 241 232 231
f 237 239 241
f 266 267 265
f 268 271 267
f 272 269 271
f 270 265 269
f 271 265 267
f 272 266 270
f 487 470 483
f 472 473 471
f 486 470 485
f 473 476 475
f 488 485 487
f 476 477 475
f 484 487 483
f 477 480 479
f 478 476 472
f 469 483 470
f 480 481 479
f 484 486 488
f 482 471 481
f 477 479 481
f 506 507 505
f 508 511 507
f 512 509 511
f 510 505 509
f 507 509 505
f 508 510 512
f 723 725 710
f 711 714 713
f 726 710 725
f 714 715 713
f 728 725 727
f 715 718 717
f 724 727 723
f 718 719 717
f 712 720 716
f 709 723 710
f 719 722 721
f 724 726 728
f 722 711 721
f 717 719 721
f 746 747 745
f 748 751 747
f 752 749 751
f 750 745 749
f 747 749 745
f 748 750 752
f 974 969 973
f 952 953 951
f 971 973 969
f 953 956 955
f 972 975 971
f 955 958 957
f 970 971 969
f 958 959 957
f 958 956 952
f 960 961 959
f 976 973 975
f 961 952 951
f 957 959 961
f 972 974 976
f 986 987 985
f 988 991 987
f 992 989 991
f 990 985 989
f 991 985 987
f 992 986 990
f 1207 1190 1203
f 1191 1194 1193
f 1206 1190 1205
f 1193 1196 1195
f 1208 1205 1207
f 1196 1197 1195
f 1204 1207 1203
f 1198 1199 1197
f 1200 1198 1196
f 1189 1203 1190
f 1200 1201 1199
f 1204 1206 1208
f 1202 1191 1201
f 1197 1199 1201
f 1226 1227 1225
f 1228 1231 1227
f 1232 1229 1231
f 1230 1225 1229
f 1231 1225 1227
f 1228 1230 1232
f 1447 1430 1443
f 1432 1433 1431
f 1446 1430 1445
f 1433 1436 1435
f 1448 1445 1447
f 1435 1438 1437
f 1444 1447 1443
f 1438 1439 1437
f 1432 1440 1436
f 1429 1443 1430
f 1440 1441 1439
f 1444 1446 1448
f 1442 1431 1441
f 1439 1441 1433
f 1466 1467 1465
f 1468 1471 1467
f 1472 1469 1471
f 1470 1465 1469
f 1471 1465 1467
f 1472 1466 1470
f 1687 1670 1683
f 1671 1674 1673
f 1686 1670 1685
f 1674 1675 1673
f 1688 1685 1687
f 1676 1677 1675
f 1684 1687 1683
f 1678 1679 1677
f 1672 1680 1676
f 1669 1683 1670
f 1679 1682 1681
f 1688 1669 1686
f 1682 1671 1681
f 1677 1679 1681
f 1706 1707 1705
f 1708 1711 1707
f 1712 1709 1711
f 1710 1705 1709
f 1711 1705 1707
f 1708 1710 1712
f 481 471 477
f 231 233 237
f 1909 1912 1911
f 471 473 477
f 241 231 237
f 1912 1913 1911
f 472 482 480
f 240 238 232
f 1914 1915 1913
f 476 474 472
f 232 242 240
f 1916 1917 1915
f 1916 1914 1910
f 236 234 232
f 1917 1920 1919
f 480 478 472
f 233 235 237
f 1920 1909 1919
f 1911 1915 1919
f 473 475 477
f 716 714 712
f 712 722 720
f 720 718 716
f 721 711 717
f 711 713 717
f 713 715 717
f 956 954 952
f 952 962 960
f 960 958 952
f 961 951 957
f 951 953 957
f 953 955 957
f 1196 1194 1200
f 1194 1192 1200
f 1192 1202 1200
f 1201 1191 1193
f 1193 1195 1201
f 1195 1197 1201
f 1436 1434 1432
f 1432 1442 1440
f 1440 1438 1436
f 1441 1431 1433
f 1433 1435 1437
f 1437 1439 1433
f 1676 1674 1672
f 1672 1682 1680
f 1680 1678 1676
f 1681 1671 1677
f 1671 1673 1677
f 1673 1675 1677
f 1914 1912 1910
f 1910 1920 1918
f 1918 1916 1910
f 1919 1909 1911
f 1911 1913 1915
f 1915 1917 1919
f 10 12 11
f 12 16 15
f 16 14 13
f 14 10 9
f 15 13 9
f 12 10 14
f 26 28 27
f 28 32 31
f 32 30 29
f 30 26 25
f 31 29 25
f 28 26 30
f 247 245 230
f 231 232 234
f 246 229 230
f 234 236 235
f 248 246 245
f 236 238 237
f 244 248 247
f 238 240 239
f 229 244 243
f 240 242 241
f 248 244 229
f 241 242 232
f 266 268 267
f 268 272 271
f 272 270 269
f 270 266 265
f 271 269 265
f 272 268 266
f 487 485 470
f 472 474 473
f 486 469 470
f 473 474 476
f 488 486 485
f 476 478 477
f 484 488 487
f 477 478 480
f 469 484 483
f 480 482 481
f 484 469 486
f 482 472 471
f 506 508 507
f 508 512 511
f 512 510 509
f 510 506 505
f 507 511 509
f 508 506 510
f 723 727 725
f 711 712 714
f 726 709 710
f 714 716 715
f 728 726 725
f 715 716 718
f 724 728 727
f 718 720 719
f 709 724 723
f 719 720 722
f 724 709 726
f 722 712 711
f 746 748 747
f 748 752 751
f 752 750 749
f 750 746 745
f 747 751 749
f 748 746 750
f 974 970 969
f 952 954 953
f 971 975 973
f 953 954 956
f 972 976 975
f 955 956 958
f 970 972 971
f 958 960 959
f 960 962 961
f 976 974 973
f 961 962 952
f 972 970 974
f 986 988 987
f 988 992 991
f 992 990 989
f 990 986 985
f 991 989 985
f 992 988 986
f 1207 1205 1190
f 1191 1192 1194
f 1206 1189 1190
f 1193 1194 1196
f 1208 1206 1205
f 1196 1198 1197
f 1204 1208 1207
f 1198 1200 1199
f 1189 1204 1203
f 1200 1202 1201
f 1204 1189 1206
f 1202 1192 1191
f 1226 1228 1227
f 1228 1232 1231
f 1232 1230 1229
f 1230 1226 1225
f 1231 1229 1225
f 1228 1226 1230
f 1447 1445 1430
f 1432 1434 1433
f 1446 1429 1430
f 1433 1434 1436
f 1448 1446 1445
f 1435 1436 1438
f 1444 1448 1447
f 1438 1440 1439
f 1429 1444 1443
f 1440 1442 1441
f 1444 1429 1446
f 1442 1432 1431
f 1466 1468 1467
f 1468 1472 1471
f 1472 1470 1469
f 1470 1466 1465
f 1471 1469 1465
f 1472 1468 1466
f 1687 1685 1670
f 1671 1672 1674
f 1686 1669 1670
f 1674 1676 1675
f 1688 1686 1685
f 1676 1678 1677
f 1684 1688 1687
f 1678 1680 1679
f 1669 1684 1683
f 1679 1680 1682
f 1688 1684 1669
f 1682 1672 1671
f 1706 1708 1707
f 1708 1712 1711
f 1712 1710 1709
f 1710 1706 1705
f 1711 1709 1705
f 1708 1706 1710
f 1909 1910 1912
f 1912 1914 1913
f 1914 1916 1915
f 1916 1918 1917
f 1917 1918 1920
f 1920 1910 1909
usemtl Mat2
f 58 59 57
f 59 64 63
f 64 61 63
f 62 57 61
f 63 57 59
f 60 62 64
f 82 83 81
f 83 88 87
f 88 85 87
f 86 81 85
f 87 81 83
f 84 86 88
f 219 157 220
f 218 154 155
f 216 145 153
f 151 220 157
f 218 156 219
f 217 153 154
f 155 161 162
f 153 145 160
f 151 157 164
f 155 163 156
f 154 160 161
f 156 164 157
f 160 145 167
f 151 164 171
f 162 170 163
f 160 168 161
f 163 171 164
f 161 169 162
f 151 171 178
f 170 176 177
f 167 175 168
f 171 177 178
f 168 176 169
f 167 145 174
f 151 178 185
f 177 183 184
f 174 182 175
f 178 184 185
f 175 183 176
f 174 145 181
f 151 185 192
f 183 191 184
f 182 188 189
f 184 192 185
f 183 189 190
f 181 145 188
f 190 198 191
f 189 195 196
f 191 199 192
f 190 196 197
f 188 145 195
f 151 192 199
f 196 202 203
f 198 206 199
f 196 204 197
f 195 145 202
f 151 199 206
f 198 204 205
f 206 212 213
f 203 211 204
f 202 145 209
f 151 206 213
f 205 211 212
f 202 210 203
f 213 219 220
f 210 218 211
f 209 145 216
f 151 213 220
f 212 218 219
f 209 217 210
f 215 214 221
f 208 200 214
f 194 207 200
f 207 215 221
f 200 221 214
f 208 201 194
f 159 158 165
f 152 148 158
f 147 150 148
f 150 159 165
f 148 165 158
f 152 149 147
f 258 259 257
f 260 263 259
f 264 261 263
f 262 257 261
f 263 257 259
f 264 258 262
f 282 283 281
f 284 287 283
f 288 285 287
f 286 281 285
f 287 281 283
f 288 282 286
f 298 299 297
f 300 303 299
f 304 301 303
f 302 297 301
f 303 297 299
f 304 298 302
f 322 323 321
f 324 327 323
f 328 325 327
f 326 321 325
f 327 321 323
f 324 326 328
f 457 393 394
f 459 397 460
f 458 394 395
f 456 385 393
f 391 460 397
f 458 396 459
f 396 404 397
f 395 401 402
f 393 385 400
f 391 397 404
f 395 403 396
f 394 400 401
f 404 410 411
f 401 409 402
f 400 385 407
f 391 404 411
f 402 410 403
f 400 408 401
f 408 416 409
f 407 385 414
f 391 411 418
f 410 416 417
f 407 415 408
f 411 417 418
f 414 385 421
f 391 418 425
f 417 423 424
f 414 422 415
f 418 424 425
f 415 423 416
f 391 425 432
f 423 431 424
f 422 428 429
f 424 432 425
f 423 429 430
f 421 385 428
f 391 432 439
f 430 438 431
f 429 435 436
f 431 439 432
f 430 436 437
f 428 385 435
f 391 439 446
f 438 444 445
f 436 442 443
f 438 446 439
f 436 444 437
f 435 385 442
f 445 451 452
f 442 450 443
f 446 452 453
f 443 451 444
f 442 385 449
f 391 446 453
f 449 457 450
f 453 459 460
f 450 458 451
f 449 385 456
f 391 453 460
f 452 458 459
f 455 454 461
f 448 440 454
f 434 447 440
f 441 461 447
f 454 447 461
f 448 441 434
f 399 398 405
f 392 388 398
f 387 390 388
f 389 405 390
f 398 390 405
f 392 389 387
f 498 499 497
f 500 503 499
f 504 501 503
f 502 497 501
f 499 501 497
f 500 502 504
f 522 523 521
f 524 527 523
f 528 525 527
f 526 521 525
f 527 521 523
f 524 526 528
f 538 539 537
f 540 543 539
f 544 541 543
f 542 537 541
f 543 537 539
f 540 542 544
f 562 563 561
f 564 567 563
f 568 565 567
f 566 561 565
f 567 561 563
f 568 562 566
f 631 700 637
f 698 636 699
f 697 633 634
f 699 637 700
f 698 634 635
f 696 625 633
f 636 644 637
f 635 641 642
f 633 625 640
f 631 637 644
f 635 643 636
f 634 640 641
f 643 651 644
f 641 649 642
f 640 625 647
f 631 644 651
f 643 649 650
f 640 648 641
f 651 657 658
f 648 656 649
f 647 625 654
f 631 651 658
f 650 656 657
f 647 655 648
f 658 664 665
f 655 663 656
f 654 625 661
f 631 658 665
f 657 663 664
f 654 662 655
f 663 669 670
f 661 625 668
f 631 665 672
f 663 671 664
f 662 668 669
f 664 672 665
f 668 625 675
f 631 672 679
f 670 678 671
f 669 675 676
f 671 679 672
f 670 676 677
f 631 679 686
f 677 685 678
f 675 683 676
f 678 686 679
f 677 683 684
f 675 625 682
f 631 686 693
f 685 691 692
f 682 690 683
f 686 692 693
f 683 691 684
f 682 625 689
f 631 693 700
f 692 698 699
f 689 697 690
f 693 699 700
f 690 698 691
f 689 625 696
f 695 694 701
f 688 680 694
f 674 687 680
f 681 701 687
f 680 701 694
f 674 695 681
f 639 638 645
f 632 628 638
f 627 630 628
f 629 645 630
f 628 645 638
f 632 629 627
f 738 739 737
f 740 743 739
f 744 741 743
f 742 737 741
f 743 737 739
f 740 742 744
f 762 763 761
f 764 767 763
f 768 765 767
f 766 761 765
f 767 761 763
f 764 766 768
f 778 779 777
f 780 783 779
f 784 781 783
f 782 777 781
f 783 777 779
f 784 778 782
f 802 803 801
f 804 807 803
f 808 805 807
f 806 801 805
f 803 805 801
f 804 806 808
f 871 940 877
f 938 876 939
f 937 873 874
f 939 877 940
f 938 874 875
f 936 865 873
f 875 883 876
f 874 880 881
f 876 884 877
f 875 881 882
f 873 865 880
f 871 877 884
f 880 888 881
f 883 891 884
f 882 888 889
f 880 865 887
f 871 884 891
f 882 890 883
f 891 897 898
f 888 896 889
f 887 865 894
f 871 891 898
f 890 896 897
f 887 895 888
f 898 904 905
f 895 903 896
f 894 865 901
f 871 898 905
f 897 903 904
f 894 902 895
f 904 912 905
f 903 909 910
f 901 865 908
f 871 905 912
f 903 911 904
f 902 908 909
f 911 919 912
f 910 916 917
f 908 865 915
f 871 912 919
f 910 918 911
f 909 915 916
f 916 924 917
f 915 865 922
f 871 919 926
f 917 925 918
f 916 922 923
f 918 926 919
f 922 865 929
f 871 926 933
f 925 931 932
f 922 930 923
f 926 932 933
f 923 931 924
f 871 933 940
f 932 938 939
f 929 937 930
f 933 939 940
f 930 938 931
f 929 865 936
f 935 934 941
f 928 920 934
f 914 927 920
f 921 941 927
f 934 927 941
f 928 921 914
f 879 878 885
f 872 868 878
f 867 870 868
f 869 885 870
f 868 885 878
f 867 879 869
f 1017 1020 1019
f 1020 1023 1019
f 1024 1021 1023
f 1022 1017 1021
f 1019 1021 1017
f 1020 1022 1024
f 1042 1043 1041
f 1044 1047 1043
f 1048 1045 1047
f 1046 1041 1045
f 1043 1045 1041
f 1044 1046 1048
f 1178 1114 1115
f 1176 1105 1113
f 1111 1180 1117
f 1178 1116 1179
f 1177 1113 1114
f 1179 1117 1180
f 1111 1117 1124
f 1115 1123 1116
f 1114 1120 1121
f 1116 1124 1117
f 1115 1121 1122
f 1113 1105 1120
f 1111 1124 1131
f 1122 1130 1123
f 1121 1127 1128
f 1123 1131 1124
f 1122 1128 1129
f 1120 1105 1127
f 1130 1136 1137
f 1127 1135 1128
f 1131 1137 1138
f 1128 1136 1129
f 1127 1105 1134
f 1111 1131 1138
f 1134 1142 1135
f 1138 1144 1145
f 1135 1143 1136
f 1134 1105 1141
f 1111 1138 1145
f 1137 1143 1144
f 1144 1152 1145
f 1143 1149 1150
f 1141 1105 1148
f 1111 1145 1152
f 1143 1151 1144
f 1142 1148 1149
f 1151 1159 1152
f 1150 1156 1157
f 1148 1105 1155
f 1111 1152 1159
f 1150 1158 1151
f 1149 1155 1156
f 1158 1166 1159
f 1157 1163 1164
f 1155 1105 1162
f 1111 1159 1166
f 1158 1164 1165
f 1155 1163 1156
f 1166 1172 1173
f 1163 1171 1164
f 1162 1105 1169
f 1111 1166 1173
f 1165 1171 1172
f 1162 1170 1163
f 1170 1178 1171
f 1169 1105 1176
f 1111 1173 1180
f 1172 1178 1179
f 1169 1177 1170
f 1173 1179 1180
f 1175 1174 1181
f 1168 1160 1174
f 1154 1167 1160
f 1167 1175 1181
f 1174 1167 1181
f 1168 1161 1154
f 1125 1112 1118
f 1112 1108 1118
f 1107 1110 1108
f 1110 1119 1125
f 1108 1125 1118
f 1107 1119 1109
f 1218 1219 1217
f 1220 1223 1219
f 1224 1221 1223
f 1222 1217 1221
f 1219 1221 1217
f 1220 1222 1224
f 1242 1243 1241
f 1244 1247 1243
f 1248 1245 1247
f 1246 1241 1245
f 1243 1245 1241
f 1244 1246 1248
f 1258 1259 1257
f 1260 1263 1259
f 1264 1261 1263
f 1262 1257 1261
f 1263 1257 1259
f 1264 1258 1262
f 1282 1283 1281
f 1284 1287 1283
f 1288 1285 1287
f 1286 1281 1285
f 1283 1285 1281
f 1284 1286 1288
f 1419 1357 1420
f 1418 1354 1355
f 1416 1345 1353
f 1351 1420 1357
f 1418 1356 1419
f 1417 1353 1354
f 1353 1345 1360
f 1351 1357 1364
f 1355 1363 1356
f 1354 1360 1361
f 1356 1364 1357
f 1355 1361 1362
f 1351 1364 1371
f 1363 1369 1370
f 1360 1368 1361
f 1364 1370 1371
f 1361 1369 1362
f 1360 1345 1367
f 1351 1371 1378
f 1370 1376 1377
f 1367 1375 1368
f 1371 1377 1378
f 1368 1376 1369
f 1367 1345 1374
f 1351 1378 1385
f 1377 1383 1384
f 1374 1382 1375
f 1378 1384 1385
f 1375 1383 1376
f 1374 1345 1381
f 1383 1391 1384
f 1382 1388 1389
f 1384 1392 1385
f 1383 1389 1390
f 1381 1345 1388
f 1351 1385 1392
f 1389 1395 1396
f 1391 1399 1392
f 1390 1396 1397
f 1388 1345 1395
f 1351 1392 1399
f 1390 1398 1391
f 1398 1406 1399
f 1397 1403 1404
f 1395 1345 1402
f 1351 1399 1406
f 1397 1405 1398
f 1395 1403 1396
f 1406 1412 1413
f 1403 1411 1404
f 1402 1345 1409
f 1351 1406 1413
f 1405 1411 1412
f 1402 1410 1403
f 1413 1419 1420
f 1410 1418 1411
f 1409 1345 1416
f 1351 1413 1420
f 1412 1418 1419
f 1409 1417 1410
f 1415 1414 1421
f 1408 1400 1414
f 1394 1407 1400
f 1401 1421 1407
f 1400 1421 1414
f 1408 1401 1394
f 1359 1358 1365
f 1352 1348 1358
f 1347 1350 1348
f 1349 1365 1350
f 1358 1350 1365
f 1352 1349 1347
f 1458 1459 1457
f 1460 1463 1459
f 1464 1461 1463
f 1462 1457 1461
f 1463 1457 1459
f 1460 1462 1464
f 1482 1483 1481
f 1484 1487 1483
f 1488 1485 1487
f 1486 1481 1485
f 1483 1485 1481
f 1488 1482 1486
f 1498 1499 1497
f 1500 1503 1499
f 1504 1501 1503
f 1502 1497 1501
f 1503 1497 1499
f 1500 1502 1504
f 1522 1523 1521
f 1524 1527 1523
f 1528 1525 1527
f 1526 1521 1525
f 1527 1521 1523
f 1528 1522 1526
f 1659 1597 1660
f 1658 1594 1595
f 1656 1585 1593
f 1591 1660 1597
f 1658 1596 1659
f 1657 1593 1594
f 1596 1604 1597
f 1595 1601 1602
f 1593 1585 1600
f 1591 1597 1604
f 1595 1603 1596
f 1594 1600 1601
f 1601 1609 1602
f 1600 1585 1607
f 1591 1604 1611
f 1602 1610 1603
f 1600 1608 1601
f 1604 1610 1611
f 1607 1585 1614
f 1591 1611 1618
f 1610 1616 1617
f 1607 1615 1608
f 1611 1617 1618
f 1608 1616 1609
f 1591 1618 1625
f 1617 1623 1624
f 1614 1622 1615
f 1618 1624 1625
f 1615 1623 1616
f 1614 1585 1621
f 1591 1625 1632
f 1623 1631 1624
f 1622 1628 1629
f 1624 1632 1625
f 1623 1629 1630
f 1621 1585 1628
f 1591 1632 1639
f 1630 1638 1631
f 1629 1635 1636
f 1631 1639 1632
f 1630 1636 1637
f 1628 1585 1635
f 1638 1644 1645
f 1636 1642 1643
f 1639 1645 1646
f 1637 1643 1644
f 1635 1585 1642
f 1591 1639 1646
f 1642 1650 1643
f 1646 1652 1653
f 1643 1651 1644
f 1642 1585 1649
f 1591 1646 1653
f 1645 1651 1652
f 1653 1659 1660
f 1650 1658 1651
f 1649 1585 1656
f 1591 1653 1660
f 1652 1658 1659
f 1649 1657 1650
f 1655 1654 1661
f 1648 1640 1654
f 1634 1647 1640
f 1641 1661 1647
f 1640 1661 1654
f 1648 1641 1634
f 1599 1598 1605
f 1592 1588 1598
f 1587 1590 1588
f 1589 1605 1590
f 1588 1605 1598
f 1587 1599 1589
f 1698 1699 1697
f 1700 1703 1699
f 1704 1701 1703
f 1702 1697 1701
f 1699 1701 1697
f 1700 1702 1704
f 1722 1723 1721
f 1724 1727 1723
f 1728 1725 1727
f 1726 1721 1725
f 1727 1721 1723
f 1724 1726 1728
f 1738 1739 1737
f 1740 1743 1739
f 1744 1741 1743
f 1742 1737 1741
f 1743 1737 1739
f 1744 1738 1742
f 1762 1763 1761
f 1764 1767 1763
f 1768 1765 1767
f 1766 1761 1765
f 1763 1765 1761
f 1764 1766 1768
f 1898 1836 1899
f 1897 1833 1834
f 1899 1837 1900
f 1898 1834 1835
f 1896 1825 1833
f 1831 1900 1837
f 1836 1844 1837
f 1835 1841 1842
f 1833 1825 1840
f 1831 1837 1844
f 1835 1843 1836
f 1834 1840 1841
f 1844 1850 1851
f 1841 1849 1842
f 1840 1825 1847
f 1831 1844 1851
f 1842 1850 1843
f 1840 1848 1841
f 1851 1857 1858
f 1848 1856 1849
f 1847 1825 1854
f 1831 1851 1858
f 1850 1856 1857
f 1847 1855 1848
f 1855 1863 1856
f 1854 1825 1861
f 1831 1858 1865
f 1857 1863 1864
f 1854 1862 1855
f 1858 1864 1865
f 1861 1825 1868
f 1831 1865 1872
f 1863 1871 1864
f 1862 1868 1869
f 1864 1872 1865
f 1863 1869 1870
f 1831 1872 1879
f 1870 1878 1871
f 1869 1875 1876
f 1871 1879 1872
f 1870 1876 1877
f 1868 1825 1875
f 1831 1879 1886
f 1878 1884 1885
f 1875 1883 1876
f 1879 1885 1886
f 1876 1884 1877
f 1875 1825 1882
f 1831 1886 1893
f 1885 1891 1892
f 1882 1890 1883
f 1886 1892 1893
f 1883 1891 1884
f 1882 1825 1889
f 1892 1898 1899
f 1889 1897 1890
f 1893 1899 1900
f 1890 1898 1891
f 1889 1825 1896
f 1831 1893 1900
f 1895 1894 1901
f 1888 1880 1894
f 1874 1887 1880
f 1881 1901 1887
f 1880 1901 1894
f 1874 1895 1881
f 1839 1838 1845
f 1832 1828 1838
f 1827 1830 1828
f 1829 1845 1830
f 1838 1830 1845
f 1832 1829 1827
f 58 60 59
f 59 60 64
f 64 62 61
f 62 58 57
f 63 61 57
f 60 58 62
f 82 84 83
f 83 84 88
f 88 86 85
f 86 82 81
f 87 85 81
f 84 82 86
f 219 156 157
f 218 217 154
f 218 155 156
f 217 216 153
f 155 154 161
f 155 162 163
f 154 153 160
f 156 163 164
f 162 169 170
f 160 167 168
f 163 170 171
f 161 168 169
f 170 169 176
f 167 174 175
f 171 170 177
f 168 175 176
f 177 176 183
f 174 181 182
f 178 177 184
f 175 182 183
f 183 190 191
f 182 181 188
f 184 191 192
f 183 182 189
f 190 197 198
f 189 188 195
f 191 198 199
f 190 189 196
f 196 195 202
f 198 205 206
f 196 203 204
f 198 197 204
f 206 205 212
f 203 210 211
f 205 204 211
f 202 209 210
f 213 212 219
f 210 217 218
f 212 211 218
f 209 216 217
f 215 208 214
f 208 194 200
f 194 201 207
f 207 201 215
f 200 207 221
f 208 215 201
f 159 152 158
f 152 147 148
f 147 149 150
f 150 149 159
f 148 150 165
f 152 159 149
f 258 260 259
f 260 264 263
f 264 262 261
f 262 258 257
f 263 261 257
f 264 260 258
f 282 284 283
f 284 288 287
f 288 286 285
f 286 282 281
f 287 285 281
f 288 284 282
f 298 300 299
f 300 304 303
f 304 302 301
f 302 298 297
f 303 301 297
f 304 300 298
f 322 324 323
f 324 328 327
f 328 326 325
f 326 322 321
f 327 325 321
f 324 322 326
f 457 456 393
f 459 396 397
f 458 457 394
f 458 395 396
f 396 403 404
f 395 394 401
f 395 402 403
f 394 393 400
f 404 403 410
f 401 408 409
f 402 409 410
f 400 407 408
f 408 415 416
f 410 409 416
f 407 414 415
f 411 410 417
f 417 416 423
f 414 421 422
f 418 417 424
f 415 422 423
f 423 430 431
f 422 421 428
f 424 431 432
f 423 422 429
f 430 437 438
f 429 428 435
f 431 438 439
f 430 429 436
f 438 437 444
f 436 435 442
f 438 445 446
f 436 443 444
f 445 444 451
f 442 449 450
f 446 445 452
f 443 450 451
f 449 456 457
f 453 452 459
f 450 457 458
f 452 451 458
f 455 448 454
f 448 434 440
f 434 441 447
f 441 455 461
f 454 440 447
f 448 455 441
f 399 392 398
f 392 387 388
f 387 389 390
f 389 399 405
f 398 388 390
f 392 399 389
f 498 500 499
f 500 504 503
f 504 502 501
f 502 498 497
f 499 503 501
f 500 498 502
f 522 524 523
f 524 528 527
f 528 526 525
f 526 522 521
f 527 525 521
f 524 522 526
f 538 540 539
f 540 544 543
f 544 542 541
f 542 538 537
f 543 541 537
f 540 538 542
f 562 564 563
f 564 568 567
f 568 566 565
f 566 562 561
f 567 565 561
f 568 564 562
f 698 635 636
f 697 696 633
f 699 636 637
f 698 697 634
f 636 643 644
f 635 634 641
f 635 642 643
f 634 633 640
f 643 650 651
f 641 648 649
f 643 642 649
f 640 647 648
f 651 650 657
f 648 655 656
f 650 649 656
f 647 654 655
f 658 657 664
f 655 662 663
f 657 656 663
f 654 661 662
f 663 662 669
f 663 670 671
f 662 661 668
f 664 671 672
f 670 677 678
f 669 668 675
f 671 678 679
f 670 669 676
f 677 684 685
f 675 682 683
f 678 685 686
f 677 676 683
f 685 684 691
f 682 689 690
f 686 685 692
f 683 690 691
f 692 691 698
f 689 696 697
f 693 692 699
f 690 697 698
f 695 688 694
f 688 674 680
f 674 681 687
f 681 695 701
f 680 687 701
f 674 688 695
f 639 632 638
f 632 627 628
f 627 629 630
f 629 639 645
f 628 630 645
f 632 639 629
f 738 740 739
f 740 744 743
f 744 742 741
f 742 738 737
f 743 741 737
f 740 738 742
f 762 764 763
f 764 768 767
f 768 766 765
f 766 762 761
f 767 765 761
f 764 762 766
f 778 780 779
f 780 784 783
f 784 782 781
f 782 778 777
f 783 781 777
f 784 780 778
f 802 804 803
f 804 808 807
f 808 806 805
f 806 802 801
f 803 807 805
f 804 802 806
f 938 875 876
f 937 936 873
f 939 876 877
f 938 937 874
f 875 882 883
f 874 873 880
f 876 883 884
f 875 874 881
f 880 887 888
f 883 890 891
f 882 881 888
f 882 889 890
f 891 890 897
f 888 895 896
f 890 889 896
f 887 894 895
f 898 897 904
f 895 902 903
f 897 896 903
f 894 901 902
f 904 911 912
f 903 902 909
f 903 910 911
f 902 901 908
f 911 918 919
f 910 909 916
f 910 917 918
f 909 908 915
f 916 923 924
f 917 924 925
f 916 915 922
f 918 925 926
f 925 924 931
f 922 929 930
f 926 925 932
f 923 930 931
f 932 931 938
f 929 936 937
f 933 932 939
f 930 937 938
f 935 928 934
f 928 914 920
f 914 921 927
f 921 935 941
f 934 920 927
f 928 935 921
f 879 872 878
f 872 867 868
f 867 869 870
f 869 879 885
f 868 870 885
f 867 872 879
f 1017 1018 1020
f 1020 1024 1023
f 1024 1022 1021
f 1022 1018 1017
f 1019 1023 1021
f 1020 1018 1022
f 1042 1044 1043
f 1044 1048 1047
f 1048 1046 1045
f 1046 1042 1041
f 1043 1047 1045
f 1044 1042 1046
f 1178 1177 1114
f 1178 1115 1116
f 1177 1176 1113
f 1179 1116 1117
f 1115 1122 1123
f 1114 1113 1120
f 1116 1123 1124
f 1115 1114 1121
f 1122 1129 1130
f 1121 1120 1127
f 1123 1130 1131
f 1122 1121 1128
f 1130 1129 1136
f 1127 1134 1135
f 1131 1130 1137
f 1128 1135 1136
f 1134 1141 1142
f 1138 1137 1144
f 1135 1142 1143
f 1137 1136 1143
f 1144 1151 1152
f 1143 1142 1149
f 1143 1150 1151
f 1142 1141 1148
f 1151 1158 1159
f 1150 1149 1156
f 1150 1157 1158
f 1149 1148 1155
f 1158 1165 1166
f 1157 1156 1163
f 1158 1157 1164
f 1155 1162 1163
f 1166 1165 1172
f 1163 1170 1171
f 1165 1164 1171
f 1162 1169 1170
f 1170 1177 1178
f 1172 1171 1178
f 1169 1176 1177
f 1173 1172 1179
f 1175 1168 1174
f 1168 1154 1160
f 1154 1161 1167
f 1167 1161 1175
f 1174 1160 1167
f 1168 1175 1161
f 1125 1119 1112
f 1112 1107 1108
f 1107 1109 1110
f 1110 1109 1119
f 1108 1110 1125
f 1107 1112 1119
f 1218 1220 1219
f 1220 1224 1223
f 1224 1222 1221
f 1222 1218 1217
f 1219 1223 1221
f 1220 1218 1222
f 1242 1244 1243
f 1244 1248 1247
f 1248 1246 1245
f 1246 1242 1241
f 1243 1247 1245
f 1244 1242 1246
f 1258 1260 1259
f 1260 1264 1263
f 1264 1262 1261
f 1262 1258 1257
f 1263 1261 1257
f 1264 1260 1258
f 1282 1284 1283
f 1284 1288 1287
f 1288 1286 1285
f 1286 1282 1281
f 1283 1287 1285
f 1284 1282 1286
f 1419 1356 1357
f 1418 1417 1354
f 1418 1355 1356
f 1417 1416 1353
f 1355 1362 1363
f 1354 1353 1360
f 1356 1363 1364
f 1355 1354 1361
f 1363 1362 1369
f 1360 1367 1368
f 1364 1363 1370
f 1361 1368 1369
f 1370 1369 1376
f 1367 1374 1375
f 1371 1370 1377
f 1368 1375 1376
f 1377 1376 1383
f 1374 1381 1382
f 1378 1377 1384
f 1375 1382 1383
f 1383 1390 1391
f 1382 1381 1388
f 1384 1391 1392
f 1383 1382 1389
f 1389 1388 1395
f 1391 1398 1399
f 1390 1389 1396
f 1390 1397 1398
f 1398 1405 1406
f 1397 1396 1403
f 1397 1404 1405
f 1395 1402 1403
f 1406 1405 1412
f 1403 1410 1411
f 1405 1404 1411
f 1402 1409 1410
f 1413 1412 1419
f 1410 1417 1418
f 1412 1411 1418
f 1409 1416 1417
f 1415 1408 1414
f 1408 1394 1400
f 1394 1401 1407
f 1401 1415 1421
f 1400 1407 1421
f 1408 1415 1401
f 1359 1352 1358
f 1352 1347 1348
f 1347 1349 1350
f 1349 1359 1365
f 1358 1348 1350
f 1352 1359 1349
f 1458 1460 1459
f 1460 1464 1463
f 1464 1462 1461
f 1462 1458 1457
f 1463 1461 1457
f 1460 1458 1462
f 1482 1484 1483
f 1484 1488 1487
f 1488 1486 1485
f 1486 1482 1481
f 1483 1487 1485
f 1488 1484 1482
f 1498 1500 1499
f 1500 1504 1503
f 1504 1502 1501
f 1502 1498 1497
f 1503 1501 1497
f 1500 1498 1502
f 1522 1524 1523
f 1524 1528 1527
f 1528 1526 1525
f 1526 1522 1521
f 1527 1525 1521
f 1528 1524 1522
f 1659 1596 1597
f 1658 1657 1594
f 1658 1595 1596
f 1657 1656 1593
f 1596 1603 1604
f 1595 1594 1601
f 1595 1602 1603
f 1594 1593 1600
f 1601 1608 1609
f 1602 1609 1610
f 1600 1607 1608
f 1604 1603 1610
f 1610 1609 1616
f 1607 1614 1615
f 1611 1610 1617
f 1608 1615 1616
f 1617 1616 1623
f 1614 1621 1622
f 1618 1617 1624
f 1615 1622 1623
f 1623 1630 1631
f 1622 1621 1628
f 1624 1631 1632
f 1623 1622 1629
f 1630 1637 1638
f 1629 1628 1635
f 1631 1638 1639
f 1630 1629 1636
f 1638 1637 1644
f 1636 1635 1642
f 1639 1638 1645
f 1637 1636 1643
f 1642 1649 1650
f 1646 1645 1652
f 1643 1650 1651
f 1645 1644 1651
f 1653 1652 1659
f 1650 1657 1658
f 1652 1651 1658
f 1649 1656 1657
f 1655 1648 1654
f 1648 1634 1640
f 1634 1641 1647
f 1641 1655 1661
f 1640 1647 1661
f 1648 1655 1641
f 1599 1592 1598
f 1592 1587 1588
f 1587 1589 1590
f 1589 1599 1605
f 1588 1590 1605
f 1587 1592 1599
f 1698 1700 1699
f 1700 1704 1703
f 1704 1702 1701
f 1702 1698 1697
f 1699 1703 1701
f 1700 1698 1702
f 1722 1724 1723
f 1724 1728 1727
f 1728 1726 1725
f 1726 1722 1721
f 1727 1725 1721
f 1724 1722 1726
f 1738 1740 1739
f 1740 1744 1743
f 1744 1742 1741
f 1742 1738 1737
f 1743 1741 1737
f 1744 1740 1738
f 1762 1764 1763
f 1764 1768 1767
f 1768 1766 1765
f 1766 1762 1761
f 1763 1767 1765
f 1764 1762 1766
f 1898 1835 1836
f 1897 1896 1833
f 1899 1836 1837
f 1898 1897 1834
f 1836 1843 1844
f 1835 1834 1841
f 1835 1842 1843
f 1834 1833 1840
f 1844 1843 1850
f 1841 1848 1849
f 1842 1849 1850
f 1840 1847 1848
f 1851 1850 1857
f 1848 1855 1856
f 1850 1849 1856
f 1847 1854 1855
f 1855 1862 1863
f 1857 1856 1863
f 1854 1861 1862
f 1858 1857 1864
f 1863 1870 1871
f 1862 1861 1868
f 1864 1871 1872
f 1863 1862 1869
f 1870 1877 1878
f 1869 1868 1875
f 1871 1878 1879
f 1870 1869 1876
f 1878 1877 1884
f 1875 1882 1883
f 1879 1878 1885
f 1876 1883 1884
f 1885 1884 1891
f 1882 1889 1890
f 1886 1885 1892
f 1883 1890 1891
f 1892 1891 1898
f 1889 1896 1897
f 1893 1892 1899
f 1890 1897 1898
f 1895 1888 1894
f 1888 1874 1880
f 1874 1881 1887
f 1881 1895 1901
f 1880 1887 1901
f 1874 1888 1895
f 1839 1832 1838
f 1832 1827 1828
f 1827 1829 1830
f 1829 1839 1845
f 1838 1828 1830
f 1832 1839 1829
usemtl Mat3
f 106 107 105
f 108 111 107
f 112 109 111
f 109 106 105
f 111 105 107
f 108 110 112
f 122 123 121
f 124 127 123
f 128 125 127
f 125 122 121
f 127 121 123
f 124 126 128
f 130 131 129
f 131 136 135
f 136 133 135
f 134 129 133
f 135 129 131
f 132 134 136
f 138 139 137
f 139 144 143
f 144 141 143
f 142 137 141
f 143 137 139
f 140 142 144
f 346 347 345
f 348 351 347
f 352 349 351
f 350 345 349
f 347 349 345
f 348 350 352
f 362 363 361
f 364 367 363
f 368 365 367
f 366 361 365
f 367 361 363
f 364 366 368
f 370 371 369
f 372 375 371
f 376 373 375
f 374 369 373
f 371 373 369
f 372 374 376
f 378 379 377
f 380 383 379
f 384 381 383
f 382 377 381
f 383 377 379
f 384 378 382
f 586 587 585
f 588 591 587
f 592 589 591
f 590 585 589
f 591 585 587
f 592 586 590
f 602 603 601
f 604 607 603
f 608 605 607
f 606 601 605
f 607 601 603
f 608 602 606
f 610 611 609
f 612 615 611
f 616 613 615
f 614 609 613
f 615 609 611
f 616 610 614
f 618 619 617
f 620 623 619
f 624 621 623
f 622 617 621
f 623 617 619
f 620 622 624
f 826 827 825
f 828 831 827
f 832 829 831
f 830 825 829
f 831 825 827
f 832 826 830
f 842 843 841
f 844 847 843
f 848 845 847
f 846 841 845
f 847 841 843
f 848 842 846
f 850 851 849
f 852 855 851
f 856 853 855
f 854 849 853
f 855 849 851
f 856 850 854
f 858 859 857
f 860 863 859
f 864 861 863
f 862 857 861
f 859 861 857
f 860 862 864
f 1066 1067 1065
f 1068 1071 1067
f 1072 1069 1071
f 1070 1065 1069
f 1071 1065 1067
f 1068 1070 1072
f 1082 1083 1081
f 1084 1087 1083
f 1088 1085 1087
f 1086 1081 1085
f 1087 1081 1083
f 1088 1082 1086
f 1089 1092 1091
f 1091 1096 1095
f 1096 1093 1095
f 1094 1089 1093
f 1091 1093 1089
f 1092 1094 1096
f 1098 1099 1097
f 1100 1103 1099
f 1104 1101 1103
f 1101 1098 1097
f 1103 1097 1099
f 1100 1102 1104
f 1306 1307 1305
f 1308 1311 1307
f 1312 1309 1311
f 1310 1305 1309
f 1311 1305 1307
f 1308 1310 1312
f 1322 1323 1321
f 1324 1327 1323
f 1328 1325 1327
f 1326 1321 1325
f 1327 1321 1323
f 1324 1326 1328
f 1330 1331 1329
f 1332 1335 1331
f 1336 1333 1335
f 1334 1329 1333
f 1335 1329 1331
f 1336 1330 1334
f 1338 1339 1337
f 1340 1343 1339
f 1344 1341 1343
f 1342 1337 1341
f 1343 1337 1339
f 1340 1342 1344
f 1546 1547 1545
f 1548 1551 1547
f 1552 1549 1551
f 1550 1545 1549
f 1551 1545 1547
f 1548 1550 1552
f 1562 1563 1561
f 1564 1567 1563
f 1568 1565 1567
f 1566 1561 1565
f 1567 1561 1563
f 1564 1566 1568
f 1570 1571 1569
f 1572 1575 1571
f 1576 1573 1575
f 1574 1569 1573
f 1571 1573 1569
f 1572 1574 1576
f 1578 1579 1577
f 1580 1583 1579
f 1584 1581 1583
f 1582 1577 1581
f 1583 1577 1579
f 1584 1578 1582
f 1786 1787 1785
f 1788 1791 1787
f 1792 1789 1791
f 1790 1785 1789
f 1791 1785 1787
f 1788 1790 1792
f 1802 1803 1801
f 1804 1807 1803
f 1808 1805 1807
f 1806 1801 1805
f 1807 1801 1803
f 1808 1802 1806
f 1810 1811 1809
f 1812 1815 1811
f 1816 1813 1815
f 1814 1809 1813
f 1815 1809 1811
f 1816 1810 1814
f 1818 1819 1817
f 1820 1823 1819
f 1824 1821 1823
f 1822 1817 1821
f 1819 1821 1817
f 1820 1822 1824
f 106 108 107
f 108 112 111
f 112 110 109
f 109 110 106
f 111 109 105
f 108 106 110
f 122 124 123
f 124 128 127
f 128 126 125
f 125 126 122
f 127 125 121
f 124 122 126
f 130 132 131
f 131 132 136
f 136 134 133
f 134 130 129
f 135 133 129
f 132 130 134
f 138 140 139
f 139 140 144
f 144 142 141
f 142 138 137
f 143 141 137
f 140 138 142
f 346 348 347
f 348 352 351
f 352 350 349
f 350 346 345
f 347 351 349
f 348 346 350
f 362 364 363
f 364 368 367
f 368 366 365
f 366 362 361
f 367 365 361
f 364 362 366
f 370 372 371
f 372 376 375
f 376 374 373
f 374 370 369
f 371 375 373
f 372 370 374
f 378 380 379
f 380 384 383
f 384 382 381
f 382 378 377
f 383 381 377
f 384 380 378
f 586 588 587
f 588 592 591
f 592 590 589
f 590 586 585
f 591 589 585
f 592 588 586
f 602 604 603
f 604 608 607
f 608 606 605
f 606 602 601
f 607 605 601
f 608 604 602
f 610 612 611
f 612 616 615
f 616 614 613
f 614 610 609
f 615 613 609
f 616 612 610
f 618 620 619
f 620 624 623
f 624 622 621
f 622 618 617
f 623 621 617
f 620 618 622
f 826 828 827
f 828 832 831
f 832 830 829
f 830 826 825
f 831 829 825
f 832 828 826
f 842 844 843
f 844 848 847
f 848 846 845
f 846 842 841
f 847 845 841
f 848 844 842
f 850 852 851
f 852 856 855
f 856 854 853
f 854 850 849
f 855 853 849
f 856 852 850
f 858 860 859
f 860 864 863
f 864 862 861
f 862 858 857
f 859 863 861
f 860 858 862
f 1066 1068 1067
f 1068 1072 1071
f 1072 1070 1069
f 1070 1066 1065
f 1071 1069 1065
f 1068 1066 1070
f 1082 1084 1083
f 1084 1088 1087
f 1088 1086 1085
f 1086 1082 1081
f 1087 1085 1081
f 1088 1084 1082
f 1089 1090 1092
f 1091 1092 1096
f 1096 1094 1093
f 1094 1090 1089
f 1091 1095 1093
f 1092 1090 1094
f 1098 1100 1099
f 1100 1104 1103
f 1104 1102 1101
f 1101 1102 1098
f 1103 1101 1097
f 1100 1098 1102
f 1306 1308 1307
f 1308 1312 1311
f 1312 1310 1309
f 1310 1306 1305
f 1311 1309 1305
f 1308 1306 1310
f 1322 1324 1323
f 1324 1328 1327
f 1328 1326 1325
f 1326 1322 1321
f 1327 1325 1321
f 1324 1322 1326
f 1330 1332 1331
f 1332 1336 1335
f 1336 1334 1333
f 1334 1330 1329
f 1335 1333 1329
f 1336 1332 1330
f 1338 1340 1339
f 1340 1344 1343
f 1344 1342 1341
f 1342 1338 1337
f 1343 1341 1337
f 1340 1338 1342
f 1546 1548 1547
f 1548 1552 1551
f 1552 1550 1549
f 1550 1546 1545
f 1551 1549 1545
f 1548 1546 1550
f 1562 1564 1563
f 1564 1568 1567
f 1568 1566 1565
f 1566 1562 1561
f 1567 1565 1561
f 1564 1562 1566
f 1570 1572 1571
f 1572 1576 1575
f 1576 1574 1573
f 1574 1570 1569
f 1571 1575 1573
f 1572 1570 1574
f 1578 1580 1579
f 1580 1584 1583
f 1584 1582 1581
f 1582 1578 1577
f 1583 1581 1577
f 1584 1580 1578
f 1786 1788 1787
f 1788 1792 1791
f 1792 1790 1789
f 1790 1786 1785
f 1791 1789 1785
f 1788 1786 1790
f 1802 1804 1803
f 1804 1808 1807
f 1808 1806 1805
f 1806 1802 1801
f 1807 1805 1801
f 1808 1804 1802
f 1810 1812 1811
f 1812 1816 1815
f 1816 1814 1813
f 1814 1810 1809
f 1815 1813 1809
f 1816 1812 1810
f 1818 1820 1819
f 1820 1824 1823
f 1824 1822 1821
f 1822 1818 1817
f 1819 1823 1821
f 1820 1818 1822
usemtl Mat4
f 187 186 193
f 186 166 172
f 166 179 172
f 173 193 179
f 172 193 186
f 180 173 166
f 222 223 146
f 224 227 223
f 228 225 227
f 225 222 146
f 227 146 223
f 224 226 228
f 427 426 433
f 420 412 426
f 406 419 412
f 413 433 419
f 412 433 426
f 406 427 413
f 462 463 386
f 464 467 463
f 468 465 467
f 466 386 465
f 467 386 463
f 464 466 468
f 667 666 673
f 660 652 666
f 646 659 652
f 653 673 659
f 652 673 666
f 660 653 646
f 626 704 703
f 703 708 707
f 707 706 705
f 706 626 705
f 703 705 626
f 704 706 708
f 907 906 913
f 900 892 906
f 886 899 892
f 893 913 899
f 892 913 906
f 900 893 886
f 942 943 866
f 943 948 947
f 948 945 947
f 946 866 945
f 947 866 943
f 948 942 946
f 1147 1146 1153
f 1140 1132 1146
f 1132 1133 1139
f 1139 1147 1153
f 1132 1153 1146
f 1140 1133 1126
f 1182 1183 1106
f 1184 1187 1183
f 1188 1185 1187
f 1186 1106 1185
f 1183 1185 1106
f 1184 1186 1188
f 1387 1386 1393
f 1380 1372 1386
f 1366 1379 1372
f 1373 1393 1379
f 1372 1393 1386
f 1366 1387 1373
f 1422 1423 1346
f 1424 1427 1423
f 1428 1425 1427
f 1426 1346 1425
f 1427 1346 1423
f 1424 1426 1428
f 1627 1626 1633
f 1620 1612 1626
f 1606 1619 1612
f 1613 1633 1619
f 1612 1633 1626
f 1606 1627 1613
f 1662 1663 1586
f 1663 1668 1667
f 1667 1666 1665
f 1665 1662 1586
f 1667 1586 1663
f 1668 1662 1666
f 1867 1866 1873
f 1860 1852 1866
f 1846 1859 1852
f 1853 1873 1859
f 1852 1873 1866
f 1846 1867 1853
f 1902 1903 1826
f 1903 1908 1907
f 1907 1906 1905
f 1906 1826 1905
f 1903 1905 1826
f 1904 1906 1908
f 187 180 186
f 186 180 166
f 166 173 179
f 173 187 193
f 172 179 193
f 180 187 173
f 222 224 223
f 224 228 227
f 228 226 225
f 225 226 222
f 227 225 146
f 224 222 226
f 427 420 426
f 420 406 412
f 406 413 419
f 413 427 433
f 412 419 433
f 406 420 427
f 462 464 463
f 464 468 467
f 468 466 465
f 466 462 386
f 467 465 386
f 464 462 466
f 667 660 666
f 660 646 652
f 646 653 659
f 653 667 673
f 652 659 673
f 660 667 653
f 626 702 704
f 703 704 708
f 707 708 706
f 706 702 626
f 703 707 705
f 704 702 706
f 907 900 906
f 900 886 892
f 886 893 899
f 893 907 913
f 892 899 913
f 900 907 893
f 942 944 943
f 943 944 948
f 948 946 945
f 946 942 866
f 947 945 866
f 948 944 942
f 1147 1140 1146
f 1140 1126 1132
f 1132 1126 1133
f 1139 1133 1147
f 1132 1139 1153
f 1140 1147 1133
f 1182 1184 1183
f 1184 1188 1187
f 1188 1186 1185
f 1186 1182 1106
f 1183 1187 1185
f 1184 1182 1186
f 1387 1380 1386
f 1380 1366 1372
f 1366 1373 1379
f 1373 1387 1393
f 1372 1379 1393
f 1366 1380 1387
f 1422 1424 1423
f 1424 1428 1427
f 1428 1426 1425
f 1426 1422 1346
f 1427 1425 1346
f 1424 1422 1426
f 1627 1620 1626
f 1620 1606 1612
f 1606 1613 1619
f 1613 1627 1633
f 1612 1619 1633
f 1606 1620 1627
f 1662 1664 1663
f 1663 1664 1668
f 1667 1668 1666
f 1665 1666 1662
f 1667 1665 1586
f 1668 1664 1662
f 1867 1860 1866
f 1860 1846 1852
f 1846 1853 1859
f 1853 1867 1873
f 1852 1859 1873
f 1846 1860 1867
f 1902 1904 1903
f 1903 1904 1908
f 1907 1908 1906
f 1906 1902 1826
f 1903 1907 1905
f 1904 1902 1906
