# source: models.blend / Military_Assets / 25_Transport_Helo
# generated by tools/export_builtin_obj.py (Task69) - do not hand-edit
mtllib Unit_TransportHeli.mtl
v -0.2400 2.5500 -7.0000
v -0.3600 2.3500 -5.2000
v 0.3600 2.3500 -5.2000
v 0.2400 2.5500 -7.0000
v -0.2400 3.0500 -7.0000
v -0.3600 3.1500 -5.2000
v 0.3600 3.1500 -5.2000
v 0.2400 3.0500 -7.0000
v -0.3600 2.3500 -5.2000
v -0.5200 2.1500 -3.2000
v 0.5200 2.1500 -3.2000
v 0.3600 2.3500 -5.2000
v -0.3600 3.1500 -5.2000
v -0.5200 3.2200 -3.2000
v 0.5200 3.2200 -3.2000
v 0.3600 3.1500 -5.2000
v -0.5200 2.1500 -3.2000
v -1.1000 1.5500 -1.4000
v 1.1000 1.5500 -1.4000
v 0.5200 2.1500 -3.2000
v -0.5200 3.2200 -3.2000
v -1.1000 3.3000 -1.4000
v 1.1000 3.3000 -1.4000
v 0.5200 3.2200 -3.2000
v -1.1000 1.5500 -1.4000
v -1.1500 1.4500 1.6000
v 1.1500 1.4500 1.6000
v 1.1000 1.5500 -1.4000
v -1.1000 3.3000 -1.4000
v -1.1500 3.3600 1.6000
v 1.1500 3.3600 1.6000
v 1.1000 3.3000 -1.4000
v -1.1500 1.4500 1.6000
v -1.1000 1.4500 4.2000
v 1.1000 1.4500 4.2000
v 1.1500 1.4500 1.6000
v -1.1500 3.3600 1.6000
v -1.1000 3.3000 4.2000
v 1.1000 3.3000 4.2000
v 1.1500 3.3600 1.6000
v -1.1000 1.4500 4.2000
v -0.8600 1.5500 5.8000
v 0.8600 1.5500 5.8000
v 1.1000 1.4500 4.2000
v -1.1000 3.3000 4.2000
v -0.8600 3.0500 5.8000
v 0.8600 3.0500 5.8000
v 1.1000 3.3000 4.2000
v -0.8600 1.5500 5.8000
v -0.4600 1.7500 7.0000
v 0.4600 1.7500 7.0000
v 0.8600 1.5500 5.8000
v -0.8600 3.0500 5.8000
v -0.4600 2.6500 7.0000
v 0.4600 2.6500 7.0000
v 0.8600 3.0500 5.8000
v -0.4600 1.7500 7.0000
v -0.1200 2.0000 7.7000
v 0.1200 2.0000 7.7000
v 0.4600 1.7500 7.0000
v -0.4600 2.6500 7.0000
v -0.1200 2.3500 7.7000
v 0.1200 2.3500 7.7000
v 0.4600 2.6500 7.0000
v -0.1600 2.6200 -9.9000
v -0.2400 2.5500 -7.0000
v 0.2400 2.5500 -7.0000
v 0.1600 2.6200 -9.9000
v -0.1600 2.9600 -9.9000
v -0.2400 3.0500 -7.0000
v 0.2400 3.0500 -7.0000
v 0.1600 2.9600 -9.9000
v -1.1300 2.6200 4.1000
v -0.9200 2.5600 5.8000
v 0.9200 2.5600 5.8000
v 1.1300 2.6200 4.1000
v -1.1300 3.3400 4.1000
v -0.9200 3.0900 5.8000
v 0.9200 3.0900 5.8000
v 1.1300 3.3400 4.1000
v -0.9200 2.5600 5.8000
v -0.5100 2.4800 6.9000
v 0.5100 2.4800 6.9000
v 0.9200 2.5600 5.8000
v -0.9200 3.0900 5.8000
v -0.5100 2.7100 6.9000
v 0.5100 2.7100 6.9000
v 0.9200 3.0900 5.8000
v 1.1200 2.3500 -0.9000
v 1.1200 3.2500 -0.9000
v 1.2200 2.3500 -0.9000
v 1.2200 3.2500 -0.9000
v 1.1200 2.3500 2.1000
v 1.1200 3.2500 2.1000
v 1.2200 2.3500 2.1000
v 1.2200 3.2500 2.1000
v 1.1300 1.4950 2.0800
v 1.1300 3.3450 2.0800
v 1.2500 1.4950 2.0800
v 1.2500 3.3450 2.0800
v 1.1300 1.4950 2.2200
v 1.1300 3.3450 2.2200
v 1.2500 1.4950 2.2200
v 1.2500 3.3450 2.2200
v 1.1300 1.4950 -0.9200
v 1.1300 3.3450 -0.9200
v 1.2500 1.4950 -0.9200
v 1.2500 3.3450 -0.9200
v 1.1300 1.4950 -0.7800
v 1.1300 3.3450 -0.7800
v 1.2500 1.4950 -0.7800
v 1.2500 3.3450 -0.7800
v 0.5000 3.1000 0.0000
v 0.5000 4.0000 0.0000
v 1.6000 3.1000 0.0000
v 1.6000 4.0000 0.0000
v 0.5000 3.1000 2.4000
v 0.5000 4.0000 2.4000
v 1.6000 3.1000 2.4000
v 1.6000 4.0000 2.4000
v 1.1500 1.8950 1.5500
v 1.1500 1.3450 1.5500
v 1.3700 3.6000 -0.5500
v 1.3700 3.6000 0.1500
v 1.2763 3.3737 -0.5500
v 1.2763 3.3737 0.1500
v 1.0500 3.2800 -0.5500
v 1.0500 3.2800 0.1500
v 0.8237 3.3737 -0.5500
v 0.8237 3.3737 0.1500
v 0.7300 3.6000 -0.5500
v 0.7300 3.6000 0.1500
v 0.8237 3.8263 -0.5500
v 0.8237 3.8263 0.1500
v 1.0500 3.9200 -0.5500
v 1.0500 3.9200 0.1500
v 1.2763 3.8263 -0.5500
v 1.2763 3.8263 0.1500
v 1.2900 1.3450 1.5500
v 1.2900 1.8950 1.5500
v 1.1500 1.3450 2.4500
v 1.1500 1.8950 2.4500
v 1.2900 1.3450 2.4500
v 1.2900 1.8950 2.4500
v 0.9100 1.3900 1.7000
v 0.9100 1.7300 1.7000
v 1.5300 1.3900 1.7000
v 1.5300 1.7300 1.7000
v 0.9100 1.3900 2.3000
v 0.9100 1.7300 2.3000
v 1.5300 1.3900 2.3000
v 1.5300 1.7300 2.3000
v -1.2200 3.2500 -0.9000
v -1.2200 2.3500 -0.9000
v 1.4600 0.2750 2.0000
v 1.4600 1.6250 2.0000
v 1.4050 0.2750 2.0953
v 1.4050 1.6250 2.0953
v 1.2950 0.2750 2.0953
v 1.2950 1.6250 2.0953
v 1.2400 0.2750 2.0000
v 1.2400 1.6250 2.0000
v 1.2950 0.2750 1.9047
v 1.2950 1.6250 1.9047
v 1.4050 0.2750 1.9047
v 1.4050 1.6250 1.9047
v 1.5300 0.7200 2.0000
v 1.3100 0.7200 2.0000
v 1.5300 0.6512 2.2116
v 1.3100 0.6512 2.2116
v 1.5300 0.4712 2.3424
v 1.3100 0.4712 2.3424
v 1.5300 0.2488 2.3424
v 1.3100 0.2488 2.3424
v 1.5300 0.0688 2.2116
v 1.3100 0.0688 2.2116
v 1.5300 0.0000 2.0000
v 1.3100 0.0000 2.0000
v 1.5300 0.0688 1.7884
v 1.3100 0.0688 1.7884
v 1.5300 0.2488 1.6576
v 1.3100 0.2488 1.6576
v 1.5300 0.4712 1.6576
v 1.3100 0.4712 1.6576
v 1.5300 0.6512 1.7884
v 1.3100 0.6512 1.7884
v 1.5509 0.5472 2.0000
v 1.4739 0.5472 2.0000
v 1.5509 0.5114 2.1100
v 1.4739 0.5114 2.1100
v 1.5509 0.4178 2.1780
v 1.4739 0.4178 2.1780
v 1.5509 0.3022 2.1780
v 1.4739 0.3022 2.1780
v 1.5509 0.2086 2.1100
v 1.4739 0.2086 2.1100
v 1.5509 0.1728 2.0000
v 1.4739 0.1728 2.0000
v 1.5509 0.2086 1.8900
v 1.4739 0.2086 1.8900
v 1.5509 0.3022 1.8220
v 1.4739 0.3022 1.8220
v 1.5509 0.4178 1.8220
v 1.4739 0.4178 1.8220
v 1.5509 0.5114 1.8900
v 1.4739 0.5114 1.8900
v -1.1200 2.3500 -0.9000
v -1.1200 3.2500 -0.9000
v -1.2200 2.3500 2.1000
v -1.2200 3.2500 2.1000
v -1.1200 2.3500 2.1000
v -1.1200 3.2500 2.1000
v -1.2500 1.4950 2.0800
v -1.2500 3.3450 2.0800
v -1.1300 1.4950 2.0800
v -1.1300 3.3450 2.0800
v -1.2500 1.4950 2.2200
v -1.2500 3.3450 2.2200
v -1.1300 1.4950 2.2200
v -1.1300 3.3450 2.2200
v -1.2500 1.4950 -0.9200
v -1.2500 3.3450 -0.9200
v -1.1300 1.4950 -0.9200
v -1.1300 3.3450 -0.9200
v -1.2500 1.4950 -0.7800
v -1.2500 3.3450 -0.7800
v -1.1300 1.4950 -0.7800
v -1.1300 3.3450 -0.7800
v -1.6000 3.1000 0.0000
v -1.6000 4.0000 0.0000
v -0.5000 3.1000 0.0000
v -0.5000 4.0000 0.0000
v -1.6000 3.1000 2.4000
v -1.6000 4.0000 2.4000
v -0.5000 3.1000 2.4000
v -0.5000 4.0000 2.4000
v -1.2900 1.8950 1.5500
v -1.2900 1.3450 1.5500
v -0.7300 3.6000 -0.5500
v -0.7300 3.6000 0.1500
v -0.8237 3.3737 -0.5500
v -0.8237 3.3737 0.1500
v -1.0500 3.2800 -0.5500
v -1.0500 3.2800 0.1500
v -1.2763 3.3737 -0.5500
v -1.2763 3.3737 0.1500
v -1.3700 3.6000 -0.5500
v -1.3700 3.6000 0.1500
v -1.2763 3.8263 -0.5500
v -1.2763 3.8263 0.1500
v -1.0500 3.9200 -0.5500
v -1.0500 3.9200 0.1500
v -0.8237 3.8263 -0.5500
v -0.8237 3.8263 0.1500
v -1.1500 1.3450 1.5500
v -1.1500 1.8950 1.5500
v -1.2900 1.3450 2.4500
v -1.2900 1.8950 2.4500
v -1.1500 1.3450 2.4500
v -1.1500 1.8950 2.4500
v -1.5300 1.3900 1.7000
v -1.5300 1.7300 1.7000
v -0.9100 1.3900 1.7000
v -0.9100 1.7300 1.7000
v -1.5300 1.3900 2.3000
v -1.5300 1.7300 2.3000
v -0.9100 1.3900 2.3000
v -0.9100 1.7300 2.3000
v -0.6500 4.0250 -0.3500
v -0.6500 3.4750 -0.3500
v -1.2400 0.2750 2.0000
v -1.2400 1.6250 2.0000
v -1.2950 0.2750 2.0953
v -1.2950 1.6250 2.0953
v -1.4050 0.2750 2.0953
v -1.4050 1.6250 2.0953
v -1.4600 0.2750 2.0000
v -1.4600 1.6250 2.0000
v -1.4050 0.2750 1.9047
v -1.4050 1.6250 1.9047
v -1.2950 0.2750 1.9047
v -1.2950 1.6250 1.9047
v -1.3100 0.7200 2.0000
v -1.5300 0.7200 2.0000
v -1.3100 0.6512 2.2116
v -1.5300 0.6512 2.2116
v -1.3100 0.4712 2.3424
v -1.5300 0.4712 2.3424
v -1.3100 0.2488 2.3424
v -1.5300 0.2488 2.3424
v -1.3100 0.0688 2.2116
v -1.5300 0.0688 2.2116
v -1.3100 0.0000 2.0000
v -1.5300 0.0000 2.0000
v -1.3100 0.0688 1.7884
v -1.5300 0.0688 1.7884
v -1.3100 0.2488 1.6576
v -1.5300 0.2488 1.6576
v -1.3100 0.4712 1.6576
v -1.5300 0.4712 1.6576
v -1.3100 0.6512 1.7884
v -1.5300 0.6512 1.7884
v -1.4739 0.5472 2.0000
v -1.5509 0.5472 2.0000
v -1.4739 0.5114 2.1100
v -1.5509 0.5114 2.1100
v -1.4739 0.4178 2.1780
v -1.5509 0.4178 2.1780
v -1.4739 0.3022 2.1780
v -1.5509 0.3022 2.1780
v -1.4739 0.2086 2.1100
v -1.5509 0.2086 2.1100
v -1.4739 0.1728 2.0000
v -1.5509 0.1728 2.0000
v -1.4739 0.2086 1.8900
v -1.5509 0.2086 1.8900
v -1.4739 0.3022 1.8220
v -1.5509 0.3022 1.8220
v -1.4739 0.4178 1.8220
v -1.5509 0.4178 1.8220
v -1.4739 0.5114 1.8900
v -1.5509 0.5114 1.8900
v 0.0900 0.5600 -8.3000
v -0.0900 0.5600 -8.3000
v 0.0900 0.5065 -8.1354
v -0.0900 0.5065 -8.1354
v 0.0900 0.3665 -8.0337
v -0.0900 0.3665 -8.0337
v 0.0900 0.1935 -8.0337
v -0.0900 0.1935 -8.0337
v 0.0900 0.0535 -8.1354
v -0.0900 0.0535 -8.1354
v 0.0900 0.0000 -8.3000
v -0.0900 0.0000 -8.3000
v 0.0900 0.0535 -8.4646
v -0.0900 0.0535 -8.4646
v 0.0900 0.1935 -8.5663
v -0.0900 0.1935 -8.5663
v 0.0900 0.3665 -8.5663
v -0.0900 0.3665 -8.5663
v 0.0900 0.5065 -8.4646
v -0.0900 0.5065 -8.4646
v 0.1071 0.4256 -8.3000
v 0.0441 0.4256 -8.3000
v 0.1071 0.3978 -8.2144
v 0.0441 0.3978 -8.2144
v 0.1071 0.3250 -8.1615
v 0.0441 0.3250 -8.1615
v 0.1071 0.2350 -8.1615
v 0.0441 0.2350 -8.1615
v 0.1071 0.1622 -8.2144
v 0.0441 0.1622 -8.2144
v 0.1071 0.1344 -8.3000
v 0.0441 0.1344 -8.3000
v 0.1071 0.1622 -8.3856
v 0.0441 0.1622 -8.3856
v 0.1071 0.2350 -8.4385
v 0.0441 0.2350 -8.4385
v 0.1071 0.3250 -8.4385
v 0.0441 0.3250 -8.4385
v 0.1071 0.3978 -8.3856
v 0.0441 0.3978 -8.3856
v 0.0900 0.3000 -8.3000
v 0.0900 2.4000 -8.3000
v 0.0450 0.3000 -8.2221
v 0.0450 2.4000 -8.2221
v -0.0450 0.3000 -8.2221
v -0.0450 2.4000 -8.2221
v -0.0900 0.3000 -8.3000
v -0.0900 2.4000 -8.3000
v -0.0450 0.3000 -8.3779
v -0.0450 2.4000 -8.3779
v 0.0450 0.3000 -8.3779
v 0.0450 2.4000 -8.3779
v 0.6500 3.4750 -0.3500
v 0.6500 4.0250 -0.3500
v -0.6500 3.4750 1.5500
v -0.6500 4.0250 1.5500
v 0.6500 3.4750 1.5500
v 0.6500 4.0250 1.5500
v -0.2900 4.8013 0.9321
v -0.2900 4.8911 0.9375
v 0.2000 3.9500 0.6000
v 0.2000 4.6500 0.6000
v 0.1414 3.9500 0.7414
v 0.1414 4.6500 0.7414
v 0.0000 3.9500 0.8000
v 0.0000 4.6500 0.8000
v -0.1414 3.9500 0.7414
v -0.1414 4.6500 0.7414
v -0.2000 3.9500 0.6000
v -0.2000 4.6500 0.6000
v -0.1414 3.9500 0.4586
v -0.1414 4.6500 0.4586
v 0.0000 3.9500 0.4000
v 0.0000 4.6500 0.4000
v 0.1414 3.9500 0.4586
v 0.1414 4.6500 0.4586
v 0.2900 4.8013 0.9321
v 0.2900 4.8911 0.9375
v -0.2900 4.3489 8.4625
v -0.2900 4.4387 8.4679
v 0.2900 4.3489 8.4625
v 0.2900 4.4387 8.4679
v -0.2175 4.5400 0.6650
v -0.2175 4.7000 0.6650
v 0.2175 4.5400 0.6650
v 0.2175 4.7000 0.6650
v -0.2175 4.5400 1.2150
v -0.2175 4.7000 1.2150
v 0.2175 4.5400 1.2150
v 0.2175 4.7000 1.2150
v 0.3321 4.8013 0.8900
v 0.3375 4.8911 0.8900
v 0.3321 4.8013 0.3100
v 0.3375 4.8911 0.3100
v 7.8625 4.3489 0.8900
v 7.8679 4.4387 0.8900
v 7.8625 4.3489 0.3100
v 7.8679 4.4387 0.3100
v 0.0650 4.5400 0.8175
v 0.0650 4.7000 0.8175
v 0.0650 4.5400 0.3825
v 0.0650 4.7000 0.3825
v 0.6150 4.5400 0.8175
v 0.6150 4.7000 0.8175
v 0.6150 4.5400 0.3825
v 0.6150 4.7000 0.3825
v 0.2900 4.8013 0.2679
v 0.2900 4.8911 0.2625
v -0.2900 4.8013 0.2679
v -0.2900 4.8911 0.2625
v 0.2900 4.3489 -7.2625
v 0.2900 4.4387 -7.2679
v -0.2900 4.3489 -7.2625
v -0.2900 4.4387 -7.2679
v 0.2175 4.5400 0.5350
v 0.2175 4.7000 0.5350
v -0.2175 4.5400 0.5350
v -0.2175 4.7000 0.5350
v 0.2175 4.5400 -0.0150
v 0.2175 4.7000 -0.0150
v -0.2175 4.5400 -0.0150
v -0.2175 4.7000 -0.0150
v -0.3321 4.8013 0.3100
v -0.3375 4.8911 0.3100
v -0.3321 4.8013 0.8900
v -0.3375 4.8911 0.8900
v -7.8625 4.3489 0.3100
v -7.8679 4.4387 0.3100
v -7.8625 4.3489 0.8900
v -7.8679 4.4387 0.8900
v -0.0650 4.5400 0.3825
v -0.0650 4.7000 0.3825
v -0.0650 4.5400 0.8175
v -0.0650 4.7000 0.8175
v -0.6150 4.5400 0.3825
v -0.6150 4.7000 0.3825
v -0.6150 4.5400 0.8175
v -0.6150 4.7000 0.8175
v -0.1400 2.8500 -8.6000
v -0.1400 2.7500 -10.3000
v 0.3596 4.3900 0.6000
v 0.3596 4.8500 0.6000
v 0.2543 4.3900 0.8543
v 0.2543 4.8500 0.8543
v 0.0000 4.3900 0.9596
v 0.0000 4.8500 0.9596
v -0.2543 4.3900 0.8543
v -0.2543 4.8500 0.8543
v -0.3596 4.3900 0.6000
v -0.3596 4.8500 0.6000
v -0.2543 4.3900 0.3457
v -0.2543 4.8500 0.3457
v 0.0000 4.3900 0.2404
v 0.0000 4.8500 0.2404
v 0.2543 4.3900 0.3457
v 0.2543 4.8500 0.3457
v 0.1740 4.8300 0.6000
v 0.1740 5.1300 0.6000
v 0.1230 4.8300 0.7230
v 0.1230 5.1300 0.7230
v 0.0000 4.8300 0.7740
v 0.0000 5.1300 0.7740
v -0.1230 4.8300 0.7230
v -0.1230 5.1300 0.7230
v -0.1740 4.8300 0.6000
v -0.1740 5.1300 0.6000
v -0.1230 4.8300 0.4770
v -0.1230 5.1300 0.4770
v 0.0000 4.8300 0.4260
v 0.0000 5.1300 0.4260
v 0.1230 4.8300 0.4770
v 0.1230 5.1300 0.4770
v -0.1400 5.4500 -9.2000
v -0.1400 5.1000 -10.4000
v 0.1400 2.7500 -10.3000
v 0.1400 2.8500 -8.6000
v 0.1400 5.4500 -9.2000
v 0.1400 5.1000 -10.4000
v 0.2000 2.9400 -8.9000
v 2.3000 3.1500 -9.4000
v 2.3000 3.1500 -10.3000
v 0.2000 2.9400 -10.2000
v 0.2000 3.1600 -8.9000
v 2.3000 3.2500 -9.4000
v 2.3000 3.2500 -10.3000
v 0.2000 3.1600 -10.2000
v -0.2000 2.9400 -8.9000
v -2.3000 3.1500 -9.4000
v -2.3000 3.1500 -10.3000
v -0.2000 2.9400 -10.2000
v -0.2000 3.1600 -8.9000
v -2.3000 3.2500 -9.4000
v -2.3000 3.2500 -10.3000
v -0.2000 3.1600 -10.2000
v 0.4250 3.8200 -9.4740
v 0.3750 3.8200 -9.4740
v 0.4250 4.0800 -9.4740
v 0.3750 4.0800 -9.4740
v 0.4250 3.8200 -8.1060
v 0.3750 3.8200 -8.1060
v 0.4250 4.0800 -8.1060
v 0.3750 4.0800 -8.1060
v 0.4250 4.0260 -9.4200
v 0.3750 4.0260 -9.4200
v 0.4250 4.0260 -9.6800
v 0.3750 4.0260 -9.6800
v 0.4250 5.3940 -9.4200
v 0.3750 5.3940 -9.4200
v 0.4250 5.3940 -9.6800
v 0.3750 5.3940 -9.6800
v 0.4250 4.0800 -9.6260
v 0.3750 4.0800 -9.6260
v 0.4250 3.8200 -9.6260
v 0.3750 3.8200 -9.6260
v 0.4250 4.0800 -10.9940
v 0.3750 4.0800 -10.9940
v 0.4250 3.8200 -10.9940
v 0.3750 3.8200 -10.9940
v 0.4250 3.8740 -9.6800
v 0.3750 3.8740 -9.6800
v 0.4250 3.8740 -9.4200
v 0.3750 3.8740 -9.4200
v 0.4250 2.5060 -9.6800
v 0.3750 2.5060 -9.6800
v 0.4250 2.5060 -9.4200
v 0.3750 2.5060 -9.4200
v 0.1300 4.2250 -9.5250
v 0.1300 3.6750 -9.5250
v 0.5700 4.1400 -9.5500
v 0.2300 4.1400 -9.5500
v 0.5700 4.0844 -9.4157
v 0.2300 4.0844 -9.4157
v 0.5700 3.9500 -9.3600
v 0.2300 3.9500 -9.3600
v 0.5700 3.8156 -9.4157
v 0.2300 3.8156 -9.4157
v 0.5700 3.7600 -9.5500
v 0.2300 3.7600 -9.5500
v 0.5700 3.8156 -9.6844
v 0.2300 3.8156 -9.6844
v 0.5700 3.9500 -9.7400
v 0.2300 3.9500 -9.7400
v 0.5700 4.0844 -9.6844
v 0.2300 4.0844 -9.6844
v 0.4300 3.6750 -9.5250
v 0.4300 4.2250 -9.5250
v 0.1300 3.6750 -8.9750
v 0.1300 4.2250 -8.9750
v 0.4300 3.6750 -8.9750
v 0.4300 4.2250 -8.9750
v 0.5850 3.0000 -6.0000
v 0.5850 4.2000 -6.0000
v 0.5500 3.0000 -5.9650
v 0.5500 4.2000 -5.9650
v 0.5150 3.0000 -6.0000
v 0.5150 4.2000 -6.0000
v 0.5500 3.0000 -6.0350
v 0.5500 4.2000 -6.0350
usemtl Mat0
f 4 2 1
f 5 7 8
f 1 6 5
f 3 6 2
f 4 7 3
f 1 8 4
f 12 10 9
f 13 15 16
f 9 14 13
f 11 14 10
f 12 15 11
f 9 16 12
f 20 18 17
f 21 23 24
f 17 22 21
f 19 22 18
f 20 23 19
f 17 24 20
f 28 26 25
f 29 31 32
f 25 30 29
f 27 30 26
f 28 31 27
f 25 32 28
f 36 34 33
f 37 39 40
f 33 38 37
f 35 38 34
f 36 39 35
f 33 40 36
f 41 43 42
f 45 47 48
f 41 46 45
f 43 46 42
f 44 47 43
f 41 48 44
f 68 66 65
f 72 70 71
f 66 69 65
f 67 70 66
f 67 72 71
f 65 72 68
f 503 506 502
f 499 496 495
f 510 512 509
f 503 508 507
f 508 506 507
f 498 495 461
f 516 514 513
f 504 502 501
f 497 461 462
f 501 508 504
f 500 498 497
f 502 505 501
f 461 496 462
f 500 462 496
f 513 510 509
f 514 511 510
f 511 516 512
f 516 509 512
f 4 3 2
f 5 6 7
f 1 2 6
f 3 7 6
f 4 8 7
f 1 5 8
f 12 11 10
f 13 14 15
f 9 10 14
f 11 15 14
f 12 16 15
f 9 13 16
f 20 19 18
f 21 22 23
f 17 18 22
f 19 23 22
f 20 24 23
f 17 21 24
f 28 27 26
f 29 30 31
f 25 26 30
f 27 31 30
f 28 32 31
f 25 29 32
f 36 35 34
f 37 38 39
f 33 34 38
f 35 39 38
f 36 40 39
f 33 37 40
f 41 44 43
f 45 46 47
f 41 42 46
f 43 47 46
f 44 48 47
f 41 45 48
f 68 67 66
f 72 69 70
f 66 70 69
f 67 71 70
f 67 68 72
f 65 69 72
f 503 507 506
f 499 500 496
f 510 511 512
f 503 504 508
f 508 505 506
f 498 499 495
f 516 515 514
f 504 503 502
f 497 498 461
f 501 505 508
f 500 499 498
f 502 506 505
f 461 495 496
f 500 497 462
f 513 514 510
f 514 515 511
f 511 515 516
f 516 513 509
usemtl Mat1
f 52 50 49
f 53 55 56
f 49 54 53
f 51 54 50
f 52 55 51
f 49 56 52
f 60 58 57
f 61 63 64
f 57 62 61
f 59 62 58
f 60 63 59
f 57 64 60
f 98 99 97
f 100 103 99
f 104 101 103
f 102 97 101
f 103 97 99
f 100 102 104
f 106 107 105
f 108 111 107
f 112 109 111
f 110 105 109
f 111 105 107
f 108 110 112
f 114 115 113
f 116 119 115
f 120 117 119
f 118 113 117
f 119 113 115
f 116 118 120
f 146 147 145
f 140 142 144
f 148 150 152
f 143 122 139
f 151 145 147
f 142 122 141
f 150 145 149
f 144 141 143
f 152 149 151
f 140 143 139
f 121 139 122
f 226 221 225
f 148 151 147
f 214 215 213
f 224 227 223
f 227 221 223
f 218 213 217
f 228 225 227
f 224 226 228
f 220 217 219
f 222 223 221
f 216 218 220
f 219 213 215
f 216 219 215
f 230 231 229
f 232 235 231
f 236 233 235
f 234 229 233
f 235 229 231
f 232 234 236
f 262 263 261
f 256 258 260
f 264 266 268
f 259 238 255
f 267 261 263
f 258 238 257
f 266 261 265
f 260 257 259
f 268 265 267
f 256 259 255
f 237 255 238
f 264 267 263
f 269 375 270
f 380 377 379
f 378 270 377
f 376 378 380
f 379 270 375
f 376 379 375
f 568 570 572
f 571 550 567
f 570 550 569
f 572 569 571
f 568 571 567
f 549 567 550
f 52 51 50
f 53 54 55
f 49 50 54
f 51 55 54
f 52 56 55
f 49 53 56
f 60 59 58
f 61 62 63
f 57 58 62
f 59 63 62
f 60 64 63
f 57 61 64
f 98 100 99
f 100 104 103
f 104 102 101
f 102 98 97
f 103 101 97
f 100 98 102
f 106 108 107
f 108 112 111
f 112 110 109
f 110 106 105
f 111 109 105
f 108 106 110
f 114 116 115
f 116 120 119
f 120 118 117
f 118 114 113
f 119 117 113
f 116 114 118
f 146 148 147
f 140 121 142
f 148 146 150
f 143 141 122
f 151 149 145
f 142 121 122
f 150 146 145
f 144 142 141
f 152 150 149
f 140 144 143
f 121 140 139
f 226 222 221
f 148 152 151
f 214 216 215
f 224 228 227
f 227 225 221
f 218 214 213
f 228 226 225
f 224 222 226
f 220 218 217
f 222 224 223
f 216 214 218
f 219 217 213
f 216 220 219
f 230 232 231
f 232 236 235
f 236 234 233
f 234 230 229
f 235 233 229
f 232 230 234
f 262 264 263
f 256 237 258
f 264 262 266
f 259 257 238
f 267 265 261
f 258 237 238
f 266 262 261
f 260 258 257
f 268 266 265
f 256 260 259
f 237 256 255
f 264 268 267
f 269 376 375
f 380 378 377
f 378 269 270
f 376 269 378
f 379 377 270
f 376 380 379
f 568 549 570
f 571 569 550
f 570 549 550
f 572 570 569
f 568 572 571
f 549 568 567
usemtl Mat2
f 73 75 74
f 77 79 80
f 73 78 77
f 75 78 74
f 76 79 75
f 73 80 76
f 84 82 81
f 85 87 88
f 81 86 85
f 83 86 82
f 84 87 83
f 81 88 84
f 90 91 89
f 92 95 91
f 96 93 95
f 94 89 93
f 95 89 91
f 92 94 96
f 210 154 209
f 212 209 211
f 211 154 207
f 208 210 212
f 208 211 207
f 153 207 154
f 73 76 75
f 77 78 79
f 73 74 78
f 75 79 78
f 76 80 79
f 73 77 80
f 84 83 82
f 85 86 87
f 81 82 86
f 83 87 86
f 84 88 87
f 81 85 88
f 90 92 91
f 92 96 95
f 96 94 93
f 94 90 89
f 95 93 89
f 92 90 94
f 210 153 154
f 212 210 209
f 211 209 154
f 208 153 210
f 208 212 211
f 153 208 207
usemtl Mat3
f 124 125 123
f 126 127 125
f 128 129 127
f 130 131 129
f 132 133 131
f 134 135 133
f 136 132 128
f 136 137 135
f 138 123 137
f 135 137 129
f 240 241 239
f 242 243 241
f 244 245 243
f 246 247 245
f 248 249 247
f 250 251 249
f 252 248 244
f 252 253 251
f 254 239 253
f 249 251 253
f 575 579 573
f 136 134 132
f 578 579 577
f 576 577 575
f 128 124 136
f 132 130 128
f 574 575 573
f 128 126 124
f 137 123 129
f 124 138 136
f 123 125 129
f 580 573 579
f 580 576 574
f 125 127 129
f 129 131 133
f 133 135 129
f 244 242 240
f 240 254 252
f 252 250 248
f 248 246 244
f 244 240 252
f 253 239 241
f 241 243 253
f 243 245 253
f 245 247 253
f 247 249 253
f 124 126 125
f 126 128 127
f 128 130 129
f 130 132 131
f 132 134 133
f 134 136 135
f 136 138 137
f 138 124 123
f 240 242 241
f 242 244 243
f 244 246 245
f 246 248 247
f 248 250 249
f 250 252 251
f 252 254 253
f 254 240 239
f 575 577 579
f 578 580 579
f 576 578 577
f 574 576 575
f 580 574 573
f 580 578 576
usemtl Mat4
f 156 157 155
f 158 159 157
f 160 161 159
f 162 163 161
f 163 165 157
f 164 165 163
f 166 155 165
f 164 162 160
f 272 273 271
f 365 367 369
f 274 275 273
f 276 277 275
f 370 371 369
f 278 279 277
f 279 281 273
f 280 281 279
f 282 271 281
f 280 278 276
f 368 366 364
f 366 367 365
f 368 369 367
f 374 363 373
f 372 373 371
f 364 365 363
f 165 155 157
f 157 159 161
f 161 163 157
f 160 158 164
f 158 156 164
f 156 166 164
f 369 371 365
f 371 373 365
f 373 363 365
f 281 271 273
f 273 275 277
f 277 279 273
f 276 274 280
f 274 272 280
f 272 282 280
f 364 374 368
f 374 372 368
f 372 370 368
f 156 158 157
f 158 160 159
f 160 162 161
f 162 164 163
f 164 166 165
f 166 156 155
f 272 274 273
f 274 276 275
f 276 278 277
f 370 372 371
f 278 280 279
f 280 282 281
f 282 272 271
f 366 368 367
f 368 370 369
f 374 364 363
f 372 374 373
f 364 366 365
usemtl Mat5
f 170 171 169
f 172 173 171
f 168 169 167
f 174 175 173
f 176 177 175
f 178 179 177
f 179 182 181
f 181 184 183
f 186 178 174
f 183 186 185
f 186 167 185
f 179 167 171
f 286 287 285
f 288 289 287
f 284 285 283
f 324 325 323
f 290 291 289
f 292 293 291
f 294 295 293
f 295 298 297
f 332 333 331
f 334 335 333
f 297 300 299
f 302 294 290
f 328 329 327
f 300 301 299
f 326 327 325
f 302 283 301
f 295 283 287
f 330 331 329
f 336 337 335
f 338 339 337
f 328 324 340
f 340 341 339
f 342 323 341
f 339 323 327
f 174 172 170
f 170 168 174
f 168 186 174
f 186 184 182
f 182 180 178
f 178 176 174
f 186 182 178
f 171 173 179
f 173 175 179
f 175 177 179
f 179 181 183
f 183 185 167
f 167 169 171
f 179 183 167
f 290 288 286
f 286 284 290
f 284 302 290
f 302 300 298
f 298 296 294
f 294 292 290
f 302 298 294
f 287 289 295
f 289 291 295
f 291 293 295
f 295 297 299
f 299 301 283
f 283 285 287
f 295 299 283
f 336 334 328
f 334 332 328
f 332 330 328
f 328 326 324
f 324 342 340
f 340 338 328
f 338 336 328
f 331 333 339
f 333 335 339
f 335 337 339
f 339 341 323
f 323 325 327
f 327 329 339
f 329 331 339
f 170 172 171
f 172 174 173
f 168 170 169
f 174 176 175
f 176 178 177
f 178 180 179
f 179 180 182
f 181 182 184
f 183 184 186
f 186 168 167
f 286 288 287
f 288 290 289
f 284 286 285
f 324 326 325
f 290 292 291
f 292 294 293
f 294 296 295
f 295 296 298
f 332 334 333
f 334 336 335
f 297 298 300
f 328 330 329
f 300 302 301
f 326 328 327
f 302 284 283
f 330 332 331
f 336 338 337
f 338 340 339
f 340 342 341
f 342 324 323
usemtl Mat6
f 196 197 195
f 192 193 191
f 198 199 197
f 190 191 189
f 194 195 193
f 188 189 187
f 200 201 199
f 202 203 201
f 197 201 205
f 204 205 203
f 206 187 205
f 188 204 200
f 312 313 311
f 308 309 307
f 314 315 313
f 306 307 305
f 352 353 351
f 310 311 309
f 304 305 303
f 384 385 383
f 316 317 315
f 348 349 347
f 346 347 345
f 318 319 317
f 353 356 355
f 303 305 313
f 320 321 319
f 350 351 349
f 322 303 321
f 304 320 316
f 344 345 343
f 356 357 355
f 406 407 405
f 408 411 407
f 357 360 359
f 358 354 350
f 360 361 359
f 362 343 361
f 349 353 357
f 386 387 385
f 408 410 412
f 388 389 387
f 411 405 407
f 390 391 389
f 410 405 409
f 392 393 391
f 412 409 411
f 394 395 393
f 395 397 389
f 396 397 395
f 398 383 397
f 396 392 388
f 422 423 421
f 424 427 423
f 428 425 427
f 426 421 425
f 427 421 423
f 424 426 428
f 438 439 437
f 440 443 439
f 444 441 443
f 442 437 441
f 443 437 439
f 444 438 442
f 454 455 453
f 456 459 455
f 460 457 459
f 458 453 457
f 459 453 455
f 456 458 460
f 464 465 463
f 466 467 465
f 468 469 467
f 470 471 469
f 472 473 471
f 474 475 473
f 470 468 476
f 476 477 475
f 478 463 477
f 469 473 477
f 551 554 553
f 554 555 553
f 556 557 555
f 557 560 559
f 560 561 559
f 562 563 561
f 558 556 564
f 564 565 563
f 566 551 565
f 563 565 557
f 189 191 197
f 191 193 197
f 193 195 197
f 197 199 201
f 201 203 205
f 205 187 197
f 187 189 197
f 196 194 188
f 194 192 188
f 192 190 188
f 188 206 204
f 204 202 200
f 200 198 188
f 198 196 188
f 305 307 313
f 307 309 313
f 309 311 313
f 313 315 317
f 317 319 313
f 319 321 313
f 321 303 313
f 312 310 308
f 308 306 304
f 304 322 320
f 320 318 316
f 316 314 304
f 314 312 304
f 312 308 304
f 350 348 362
f 348 346 362
f 346 344 362
f 362 360 358
f 358 356 354
f 354 352 350
f 362 358 350
f 349 351 353
f 353 355 357
f 357 359 345
f 359 361 345
f 361 343 345
f 345 347 357
f 347 349 357
f 397 383 385
f 385 387 397
f 387 389 397
f 389 391 393
f 393 395 389
f 388 386 384
f 384 398 396
f 396 394 392
f 392 390 388
f 388 384 396
f 468 466 476
f 466 464 476
f 464 478 476
f 476 474 472
f 472 470 476
f 477 463 465
f 465 467 469
f 469 471 473
f 473 475 477
f 477 465 469
f 556 554 552
f 552 566 556
f 566 564 556
f 564 562 560
f 560 558 564
f 565 551 553
f 553 555 565
f 555 557 565
f 557 559 561
f 561 563 557
f 196 198 197
f 192 194 193
f 198 200 199
f 190 192 191
f 194 196 195
f 188 190 189
f 200 202 201
f 202 204 203
f 204 206 205
f 206 188 187
f 312 314 313
f 308 310 309
f 314 316 315
f 306 308 307
f 352 354 353
f 310 312 311
f 304 306 305
f 384 386 385
f 316 318 317
f 348 350 349
f 346 348 347
f 318 320 319
f 353 354 356
f 320 322 321
f 350 352 351
f 322 304 303
f 344 346 345
f 356 358 357
f 406 408 407
f 408 412 411
f 357 358 360
f 360 362 361
f 362 344 343
f 386 388 387
f 408 406 410
f 388 390 389
f 411 409 405
f 390 392 391
f 410 406 405
f 392 394 393
f 412 410 409
f 394 396 395
f 396 398 397
f 398 384 383
f 422 424 423
f 424 428 427
f 428 426 425
f 426 422 421
f 427 425 421
f 424 422 426
f 438 440 439
f 440 444 443
f 444 442 441
f 442 438 437
f 443 441 437
f 444 440 438
f 454 456 455
f 456 460 459
f 460 458 457
f 458 454 453
f 459 457 453
f 456 454 458
f 464 466 465
f 466 468 467
f 468 470 469
f 470 472 471
f 472 474 473
f 474 476 475
f 476 478 477
f 478 464 463
f 551 552 554
f 554 556 555
f 556 558 557
f 557 558 560
f 560 562 561
f 562 564 563
f 564 566 565
f 566 552 551
usemtl Mat7
f 415 420 419
f 414 415 413
f 403 381 399
f 401 382 381
f 404 401 403
f 399 404 403
f 382 399 381
f 400 402 404
f 420 417 419
f 417 414 413
f 419 413 415
f 416 418 420
f 430 431 429
f 431 436 435
f 436 433 435
f 433 430 429
f 435 429 431
f 432 434 436
f 446 447 445
f 447 452 451
f 452 449 451
f 449 446 445
f 451 445 447
f 448 450 452
f 488 489 487
f 482 483 481
f 486 487 485
f 480 481 479
f 484 485 483
f 490 491 489
f 479 481 489
f 492 493 491
f 494 479 493
f 494 492 484
f 518 519 517
f 520 523 519
f 524 521 523
f 522 517 521
f 523 517 519
f 520 522 524
f 526 527 525
f 528 531 527
f 532 529 531
f 530 525 529
f 531 525 527
f 528 530 532
f 534 535 533
f 536 539 535
f 540 537 539
f 538 533 537
f 535 537 533
f 536 538 540
f 542 543 541
f 544 547 543
f 548 545 547
f 546 541 545
f 547 541 543
f 544 546 548
f 481 483 485
f 485 487 481
f 487 489 481
f 489 491 493
f 493 479 489
f 492 490 488
f 488 486 492
f 486 484 492
f 484 482 480
f 480 494 484
f 415 416 420
f 414 416 415
f 403 401 381
f 401 402 382
f 404 402 401
f 399 400 404
f 382 400 399
f 400 382 402
f 420 418 417
f 417 418 414
f 419 417 413
f 416 414 418
f 430 432 431
f 431 432 436
f 436 434 433
f 433 434 430
f 435 433 429
f 432 430 434
f 446 448 447
f 447 448 452
f 452 450 449
f 449 450 446
f 451 449 445
f 448 446 450
f 488 490 489
f 482 484 483
f 486 488 487
f 480 482 481
f 484 486 485
f 490 492 491
f 492 494 493
f 494 480 479
f 518 520 519
f 520 524 523
f 524 522 521
f 522 518 517
f 523 521 517
f 520 518 522
f 526 528 527
f 528 532 531
f 532 530 529
f 530 526 525
f 531 529 525
f 528 526 530
f 534 536 535
f 536 540 539
f 540 538 537
f 538 534 533
f 535 539 537
f 536 534 538
f 542 544 543
f 544 548 547
f 548 546 545
f 546 542 541
f 547 545 541
f 544 542 546
