# source: models.blend / Military_Assets / 14_SPAAG
# generated by tools/export_builtin_obj.py (Task69) - do not hand-edit
mtllib Unit_AntiAir.mtl
v 1.2800 0.0000 -3.3000
v 1.2800 0.0000 3.3000
v 1.2800 0.4200 3.8000
v 1.2800 1.0000 3.8000
v 1.2800 1.4200 3.3000
v 1.2800 1.4200 -3.3000
v 1.2800 1.0000 -3.8000
v 1.2800 0.4200 -3.8000
v 1.8500 0.0000 -3.3000
v 1.8500 0.0000 3.3000
v 1.8500 0.4200 3.8000
v 1.8500 1.0000 3.8000
v 1.8500 1.4200 3.3000
v 1.8500 1.4200 -3.3000
v 1.8500 1.0000 -3.8000
v 1.8500 0.4200 -3.8000
v 1.8550 1.1700 -3.3000
v 1.8550 1.9900 -3.3000
v 1.9300 0.9800 -2.7000
v 1.8300 0.9800 -2.7000
v 1.9300 0.9112 -2.4884
v 1.8300 0.9112 -2.4884
v 1.9300 0.7312 -2.3576
v 1.8300 0.7312 -2.3576
v 1.9300 0.5088 -2.3576
v 1.8300 0.5088 -2.3576
v 1.9300 0.3288 -2.4884
v 1.8300 0.3288 -2.4884
v 1.9300 0.2600 -2.7000
v 1.8300 0.2600 -2.7000
v 1.9300 0.3288 -2.9116
v 1.8300 0.3288 -2.9116
v 1.9300 0.5088 -3.0424
v 1.8300 0.5088 -3.0424
v 1.9300 0.7312 -3.0424
v 1.8300 0.7312 -3.0424
v 1.9300 0.9112 -2.9116
v 1.8300 0.9112 -2.9116
v 1.9300 0.9800 -1.8000
v 1.8300 0.9800 -1.8000
v 1.9300 0.9112 -1.5884
v 1.8300 0.9112 -1.5884
v 1.9300 0.7312 -1.4576
v 1.8300 0.7312 -1.4576
v 1.9300 0.5088 -1.4576
v 1.8300 0.5088 -1.4576
v 1.9300 0.3288 -1.5884
v 1.8300 0.3288 -1.5884
v 1.9300 0.2600 -1.8000
v 1.8300 0.2600 -1.8000
v 1.9300 0.3288 -2.0116
v 1.8300 0.3288 -2.0116
v 1.9300 0.5088 -2.1424
v 1.8300 0.5088 -2.1424
v 1.9300 0.7312 -2.1424
v 1.8300 0.7312 -2.1424
v 1.9300 0.9112 -2.0116
v 1.8300 0.9112 -2.0116
v 1.9300 0.9800 -0.9000
v 1.8300 0.9800 -0.9000
v 1.9300 0.9112 -0.6884
v 1.8300 0.9112 -0.6884
v 1.9300 0.7312 -0.5576
v 1.8300 0.7312 -0.5576
v 1.9300 0.5088 -0.5576
v 1.8300 0.5088 -0.5576
v 1.9300 0.3288 -0.6884
v 1.8300 0.3288 -0.6884
v 1.9300 0.2600 -0.9000
v 1.8300 0.2600 -0.9000
v 1.9300 0.3288 -1.1116
v 1.8300 0.3288 -1.1116
v 1.9300 0.5088 -1.2424
v 1.8300 0.5088 -1.2424
v 1.9300 0.7312 -1.2424
v 1.8300 0.7312 -1.2424
v 1.9300 0.9112 -1.1116
v 1.8300 0.9112 -1.1116
v 1.9300 0.9800 0.0000
v 1.8300 0.9800 0.0000
v 1.9300 0.9112 0.2116
v 1.8300 0.9112 0.2116
v 1.9300 0.7312 0.3424
v 1.8300 0.7312 0.3424
v 1.9300 0.5088 0.3424
v 1.8300 0.5088 0.3424
v 1.9300 0.3288 0.2116
v 1.8300 0.3288 0.2116
v 1.9300 0.2600 0.0000
v 1.8300 0.2600 0.0000
v 1.9300 0.3288 -0.2116
v 1.8300 0.3288 -0.2116
v 1.9300 0.5088 -0.3424
v 1.8300 0.5088 -0.3424
v 1.9300 0.7312 -0.3424
v 1.8300 0.7312 -0.3424
v 1.9300 0.9112 -0.2116
v 1.8300 0.9112 -0.2116
v 1.9300 0.9800 0.9000
v 1.8300 0.9800 0.9000
v 1.9300 0.9112 1.1116
v 1.8300 0.9112 1.1116
v 1.9300 0.7312 1.2424
v 1.8300 0.7312 1.2424
v 1.9300 0.5088 1.2424
v 1.8300 0.5088 1.2424
v 1.9300 0.3288 1.1116
v 1.8300 0.3288 1.1116
v 1.9300 0.2600 0.9000
v 1.8300 0.2600 0.9000
v 1.9300 0.3288 0.6884
v 1.8300 0.3288 0.6884
v 1.9300 0.5088 0.5576
v 1.8300 0.5088 0.5576
v 1.9300 0.7312 0.5576
v 1.8300 0.7312 0.5576
v 1.9300 0.9112 0.6884
v 1.8300 0.9112 0.6884
v 1.9300 0.9800 1.8000
v 1.8300 0.9800 1.8000
v 1.9300 0.9112 2.0116
v 1.8300 0.9112 2.0116
v 1.9300 0.7312 2.1424
v 1.8300 0.7312 2.1424
v 1.9300 0.5088 2.1424
v 1.8300 0.5088 2.1424
v 1.9300 0.3288 2.0116
v 1.8300 0.3288 2.0116
v 1.9300 0.2600 1.8000
v 1.8300 0.2600 1.8000
v 1.9300 0.3288 1.5884
v 1.8300 0.3288 1.5884
v 1.9300 0.5088 1.4576
v 1.8300 0.5088 1.4576
v 1.9300 0.7312 1.4576
v 1.8300 0.7312 1.4576
v 1.9300 0.9112 1.5884
v 1.8300 0.9112 1.5884
v 1.9300 0.9800 2.7000
v 1.8300 0.9800 2.7000
v 1.9300 0.9112 2.9116
v 1.8300 0.9112 2.9116
v 1.9300 0.7312 3.0424
v 1.8300 0.7312 3.0424
v 1.9300 0.5088 3.0424
v 1.8300 0.5088 3.0424
v 1.9300 0.3288 2.9116
v 1.8300 0.3288 2.9116
v 1.9300 0.2600 2.7000
v 1.8300 0.2600 2.7000
v 1.9300 0.3288 2.4884
v 1.8300 0.3288 2.4884
v 1.9300 0.5088 2.3576
v 1.8300 0.5088 2.3576
v 1.9300 0.7312 2.3576
v 1.8300 0.7312 2.3576
v 1.9300 0.9112 2.4884
v 1.8300 0.9112 2.4884
v 1.9400 1.2000 3.2800
v 1.8200 1.2000 3.2800
v 1.9400 1.1160 3.5386
v 1.8200 1.1160 3.5386
v 1.9400 0.8960 3.6985
v 1.8200 0.8960 3.6985
v 1.9400 0.6240 3.6985
v 1.8200 0.6240 3.6985
v 1.9400 0.4040 3.5386
v 1.8200 0.4040 3.5386
v 1.9400 0.3200 3.2800
v 1.8200 0.3200 3.2800
v 1.9400 0.4040 3.0214
v 1.8200 0.4040 3.0214
v 1.9400 0.6240 2.8615
v 1.8200 0.6240 2.8615
v 1.9400 0.8960 2.8615
v 1.8200 0.8960 2.8615
v 1.9400 1.1160 3.0214
v 1.8200 1.1160 3.0214
v 1.9400 1.2000 -3.2800
v 1.8200 1.2000 -3.2800
v 1.9400 1.1160 -3.0214
v 1.8200 1.1160 -3.0214
v 1.9400 0.8960 -2.8615
v 1.8200 0.8960 -2.8615
v 1.9400 0.6240 -2.8615
v 1.8200 0.6240 -2.8615
v 1.9400 0.4040 -3.0214
v 1.8200 0.4040 -3.0214
v 1.9400 0.3200 -3.2800
v 1.8200 0.3200 -3.2800
v 1.9400 0.4040 -3.5386
v 1.8200 0.4040 -3.5386
v 1.9400 0.6240 -3.6985
v 1.8200 0.6240 -3.6985
v 1.9400 0.8960 -3.6985
v 1.8200 0.8960 -3.6985
v 1.9400 1.1160 -3.5386
v 1.8200 1.1160 -3.5386
v 1.9250 1.4600 -1.7000
v 1.8350 1.4600 -1.7000
v 1.9250 1.4131 -1.5869
v 1.8350 1.4131 -1.5869
v 1.9250 1.3000 -1.5400
v 1.8350 1.3000 -1.5400
v 1.9250 1.1869 -1.5869
v 1.8350 1.1869 -1.5869
v 1.9250 1.1400 -1.7000
v 1.8350 1.1400 -1.7000
v 1.9250 1.1869 -1.8131
v 1.8350 1.1869 -1.8131
v 1.9250 1.3000 -1.8600
v 1.8350 1.3000 -1.8600
v 1.9250 1.4131 -1.8131
v 1.8350 1.4131 -1.8131
v 1.9250 1.4600 0.0000
v 1.8350 1.4600 0.0000
v 1.9250 1.4131 0.1131
v 1.8350 1.4131 0.1131
v 1.9250 1.3000 0.1600
v 1.8350 1.3000 0.1600
v 1.9250 1.1869 0.1131
v 1.8350 1.1869 0.1131
v 1.9250 1.1400 0.0000
v 1.8350 1.1400 0.0000
v 1.9250 1.1869 -0.1131
v 1.8350 1.1869 -0.1131
v 1.9250 1.3000 -0.1600
v 1.8350 1.3000 -0.1600
v 1.9250 1.4131 -0.1131
v 1.8350 1.4131 -0.1131
v 1.9250 1.4600 1.7000
v 1.8350 1.4600 1.7000
v 1.9250 1.4131 1.8131
v 1.8350 1.4131 1.8131
v 1.9250 1.3000 1.8600
v 1.8350 1.3000 1.8600
v 1.9250 1.1869 1.8131
v 1.8350 1.1869 1.8131
v 1.9250 1.1400 1.7000
v 1.8350 1.1400 1.7000
v 1.9250 1.1869 1.5869
v 1.8350 1.1869 1.5869
v 1.9250 1.3000 1.5400
v 1.8350 1.3000 1.5400
v 1.9250 1.4131 1.5869
v 1.8350 1.4131 1.5869
v 1.9250 1.1700 -3.3000
v 1.9250 1.9900 -3.3000
v 1.8550 1.1700 3.3000
v 1.8550 1.9900 3.3000
v 1.9250 1.1700 3.3000
v 1.9250 1.9900 3.3000
v -1.8500 0.0000 -3.3000
v -1.8500 0.0000 3.3000
v 1.1000 1.3600 3.3900
v 1.1000 1.3600 3.5300
v 1.0561 1.2539 3.3900
v 1.0561 1.2539 3.5300
v 0.9500 1.2100 3.3900
v 0.9500 1.2100 3.5300
v 0.8439 1.2539 3.3900
v 0.8439 1.2539 3.5300
v 0.8000 1.3600 3.3900
v 0.8000 1.3600 3.5300
v 0.8439 1.4661 3.3900
v 0.8439 1.4661 3.5300
v 0.9500 1.5100 3.3900
v 0.9500 1.5100 3.5300
v 1.0561 1.4661 3.3900
v 1.0561 1.4661 3.5300
v -1.8500 0.4200 3.8000
v -1.8500 1.0000 3.8000
v -1.8500 1.4200 3.3000
v -1.8500 1.4200 -3.3000
v -1.8500 1.0000 -3.8000
v -1.8500 0.4200 -3.8000
v -1.2800 0.0000 -3.3000
v -1.2800 0.0000 3.3000
v -1.2800 0.4200 3.8000
v -1.2800 1.0000 3.8000
v -1.2800 1.4200 3.3000
v -1.2800 1.4200 -3.3000
v -1.2800 1.0000 -3.8000
v -1.2800 0.4200 -3.8000
v -1.9250 1.1700 -3.3000
v -1.9250 1.9900 -3.3000
v -1.8300 0.9800 -2.7000
v -1.9300 0.9800 -2.7000
v -1.8300 0.9112 -2.4884
v -1.9300 0.9112 -2.4884
v -1.8300 0.7312 -2.3576
v -1.9300 0.7312 -2.3576
v -1.8300 0.5088 -2.3576
v -1.9300 0.5088 -2.3576
v -1.8300 0.3288 -2.4884
v -1.9300 0.3288 -2.4884
v -1.8300 0.2600 -2.7000
v -1.9300 0.2600 -2.7000
v -1.8300 0.3288 -2.9116
v -1.9300 0.3288 -2.9116
v -1.8300 0.5088 -3.0424
v -1.9300 0.5088 -3.0424
v -1.8300 0.7312 -3.0424
v -1.9300 0.7312 -3.0424
v -1.8300 0.9112 -2.9116
v -1.9300 0.9112 -2.9116
v -1.8300 0.9800 -1.8000
v -1.9300 0.9800 -1.8000
v -1.8300 0.9112 -1.5884
v -1.9300 0.9112 -1.5884
v -1.8300 0.7312 -1.4576
v -1.9300 0.7312 -1.4576
v -1.8300 0.5088 -1.4576
v -1.9300 0.5088 -1.4576
v -1.8300 0.3288 -1.5884
v -1.9300 0.3288 -1.5884
v -1.8300 0.2600 -1.8000
v -1.9300 0.2600 -1.8000
v -1.8300 0.3288 -2.0116
v -1.9300 0.3288 -2.0116
v -1.8300 0.5088 -2.1424
v -1.9300 0.5088 -2.1424
v -1.8300 0.7312 -2.1424
v -1.9300 0.7312 -2.1424
v -1.8300 0.9112 -2.0116
v -1.9300 0.9112 -2.0116
v -1.8300 0.9800 -0.9000
v -1.9300 0.9800 -0.9000
v -1.8300 0.9112 -0.6884
v -1.9300 0.9112 -0.6884
v -1.8300 0.7312 -0.5576
v -1.9300 0.7312 -0.5576
v -1.8300 0.5088 -0.5576
v -1.9300 0.5088 -0.5576
v -1.8300 0.3288 -0.6884
v -1.9300 0.3288 -0.6884
v -1.8300 0.2600 -0.9000
v -1.9300 0.2600 -0.9000
v -1.8300 0.3288 -1.1116
v -1.9300 0.3288 -1.1116
v -1.8300 0.5088 -1.2424
v -1.9300 0.5088 -1.2424
v -1.8300 0.7312 -1.2424
v -1.9300 0.7312 -1.2424
v -1.8300 0.9112 -1.1116
v -1.9300 0.9112 -1.1116
v -1.8300 0.9800 0.0000
v -1.9300 0.9800 0.0000
v -1.8300 0.9112 0.2116
v -1.9300 0.9112 0.2116
v -1.8300 0.7312 0.3424
v -1.9300 0.7312 0.3424
v -1.8300 0.5088 0.3424
v -1.9300 0.5088 0.3424
v -1.8300 0.3288 0.2116
v -1.9300 0.3288 0.2116
v -1.8300 0.2600 0.0000
v -1.9300 0.2600 0.0000
v -1.8300 0.3288 -0.2116
v -1.9300 0.3288 -0.2116
v -1.8300 0.5088 -0.3424
v -1.9300 0.5088 -0.3424
v -1.8300 0.7312 -0.3424
v -1.9300 0.7312 -0.3424
v -1.8300 0.9112 -0.2116
v -1.9300 0.9112 -0.2116
v -1.8300 0.9800 0.9000
v -1.9300 0.9800 0.9000
v -1.8300 0.9112 1.1116
v -1.9300 0.9112 1.1116
v -1.8300 0.7312 1.2424
v -1.9300 0.7312 1.2424
v -1.8300 0.5088 1.2424
v -1.9300 0.5088 1.2424
v -1.8300 0.3288 1.1116
v -1.9300 0.3288 1.1116
v -1.8300 0.2600 0.9000
v -1.9300 0.2600 0.9000
v -1.8300 0.3288 0.6884
v -1.9300 0.3288 0.6884
v -1.8300 0.5088 0.5576
v -1.9300 0.5088 0.5576
v -1.8300 0.7312 0.5576
v -1.9300 0.7312 0.5576
v -1.8300 0.9112 0.6884
v -1.9300 0.9112 0.6884
v -1.8300 0.9800 1.8000
v -1.9300 0.9800 1.8000
v -1.8300 0.9112 2.0116
v -1.9300 0.9112 2.0116
v -1.8300 0.7312 2.1424
v -1.9300 0.7312 2.1424
v -1.8300 0.5088 2.1424
v -1.9300 0.5088 2.1424
v -1.8300 0.3288 2.0116
v -1.9300 0.3288 2.0116
v -1.8300 0.2600 1.8000
v -1.9300 0.2600 1.8000
v -1.8300 0.3288 1.5884
v -1.9300 0.3288 1.5884
v -1.8300 0.5088 1.4576
v -1.9300 0.5088 1.4576
v -1.8300 0.7312 1.4576
v -1.9300 0.7312 1.4576
v -1.8300 0.9112 1.5884
v -1.9300 0.9112 1.5884
v -1.8300 0.9800 2.7000
v -1.9300 0.9800 2.7000
v -1.8300 0.9112 2.9116
v -1.9300 0.9112 2.9116
v -1.8300 0.7312 3.0424
v -1.9300 0.7312 3.0424
v -1.8300 0.5088 3.0424
v -1.9300 0.5088 3.0424
v -1.8300 0.3288 2.9116
v -1.9300 0.3288 2.9116
v -1.8300 0.2600 2.7000
v -1.9300 0.2600 2.7000
v -1.8300 0.3288 2.4884
v -1.9300 0.3288 2.4884
v -1.8300 0.5088 2.3576
v -1.9300 0.5088 2.3576
v -1.8300 0.7312 2.3576
v -1.9300 0.7312 2.3576
v -1.8300 0.9112 2.4884
v -1.9300 0.9112 2.4884
v -1.8200 1.2000 3.2800
v -1.9400 1.2000 3.2800
v -1.8200 1.1160 3.5386
v -1.9400 1.1160 3.5386
v -1.8200 0.8960 3.6985
v -1.9400 0.8960 3.6985
v -1.8200 0.6240 3.6985
v -1.9400 0.6240 3.6985
v -1.8200 0.4040 3.5386
v -1.9400 0.4040 3.5386
v -1.8200 0.3200 3.2800
v -1.9400 0.3200 3.2800
v -1.8200 0.4040 3.0214
v -1.9400 0.4040 3.0214
v -1.8200 0.6240 2.8615
v -1.9400 0.6240 2.8615
v -1.8200 0.8960 2.8615
v -1.9400 0.8960 2.8615
v -1.8200 1.1160 3.0214
v -1.9400 1.1160 3.0214
v -1.8200 1.2000 -3.2800
v -1.9400 1.2000 -3.2800
v -1.8200 1.1160 -3.0214
v -1.9400 1.1160 -3.0214
v -1.8200 0.8960 -2.8615
v -1.9400 0.8960 -2.8615
v -1.8200 0.6240 -2.8615
v -1.9400 0.6240 -2.8615
v -1.8200 0.4040 -3.0214
v -1.9400 0.4040 -3.0214
v -1.8200 0.3200 -3.2800
v -1.9400 0.3200 -3.2800
v -1.8200 0.4040 -3.5386
v -1.9400 0.4040 -3.5386
v -1.8200 0.6240 -3.6985
v -1.9400 0.6240 -3.6985
v -1.8200 0.8960 -3.6985
v -1.9400 0.8960 -3.6985
v -1.8200 1.1160 -3.5386
v -1.9400 1.1160 -3.5386
v -1.8350 1.4600 -1.7000
v -1.9250 1.4600 -1.7000
v -1.8350 1.4131 -1.5869
v -1.9250 1.4131 -1.5869
v -1.8350 1.3000 -1.5400
v -1.9250 1.3000 -1.5400
v -1.8350 1.1869 -1.5869
v -1.9250 1.1869 -1.5869
v -1.8350 1.1400 -1.7000
v -1.9250 1.1400 -1.7000
v -1.8350 1.1869 -1.8131
v -1.9250 1.1869 -1.8131
v -1.8350 1.3000 -1.8600
v -1.9250 1.3000 -1.8600
v -1.8350 1.4131 -1.8131
v -1.9250 1.4131 -1.8131
v -1.8350 1.4600 0.0000
v -1.9250 1.4600 0.0000
v -1.8350 1.4131 0.1131
v -1.9250 1.4131 0.1131
v -1.8350 1.3000 0.1600
v -1.9250 1.3000 0.1600
v -1.8350 1.1869 0.1131
v -1.9250 1.1869 0.1131
v -1.8350 1.1400 0.0000
v -1.9250 1.1400 0.0000
v -1.8350 1.1869 -0.1131
v -1.9250 1.1869 -0.1131
v -1.8350 1.3000 -0.1600
v -1.9250 1.3000 -0.1600
v -1.8350 1.4131 -0.1131
v -1.9250 1.4131 -0.1131
v -1.8350 1.4600 1.7000
v -1.9250 1.4600 1.7000
v -1.8350 1.4131 1.8131
v -1.9250 1.4131 1.8131
v -1.8350 1.3000 1.8600
v -1.9250 1.3000 1.8600
v -1.8350 1.1869 1.8131
v -1.9250 1.1869 1.8131
v -1.8350 1.1400 1.7000
v -1.9250 1.1400 1.7000
v -1.8350 1.1869 1.5869
v -1.9250 1.1869 1.5869
v -1.8350 1.3000 1.5400
v -1.9250 1.3000 1.5400
v -1.8350 1.4131 1.5869
v -1.9250 1.4131 1.5869
v -1.8550 1.1700 -3.3000
v -1.8550 1.9900 -3.3000
v -1.9250 1.1700 3.3000
v -1.9250 1.9900 3.3000
v -1.8550 1.1700 3.3000
v -1.8550 1.9900 3.3000
v -1.2800 0.5000 -3.4500
v -1.2800 0.5000 2.4500
v -0.8000 1.3600 3.3900
v -0.8000 1.3600 3.5300
v -0.8439 1.2539 3.3900
v -0.8439 1.2539 3.5300
v -0.9500 1.2100 3.3900
v -0.9500 1.2100 3.5300
v -1.0561 1.2539 3.3900
v -1.0561 1.2539 3.5300
v -1.1000 1.3600 3.3900
v -1.1000 1.3600 3.5300
v -1.0561 1.4661 3.3900
v -1.0561 1.4661 3.5300
v -0.9500 1.5100 3.3900
v -0.9500 1.5100 3.5300
v -0.8439 1.4661 3.3900
v -0.8439 1.4661 3.5300
v -1.2800 0.9500 3.5000
v -1.2800 1.2500 3.5000
v -1.2800 1.7200 2.2500
v -1.2800 1.7200 -3.4500
v 1.2800 0.5000 -3.4500
v 1.2800 0.5000 2.4500
v 1.2800 0.9500 3.5000
v 1.2800 1.2500 3.5000
v 1.2800 1.7200 2.2500
v 1.2800 1.7200 -3.4500
v -1.1000 1.7200 -3.5000
v -1.1000 1.8400 -3.5000
v 1.1000 1.7200 -3.5000
v 1.1000 1.8400 -3.5000
v -1.1000 1.7200 -2.3000
v -1.1000 1.8400 -2.3000
v 1.1000 1.7200 -2.3000
v 1.1000 1.8400 -2.3000
v 0.1250 1.7200 2.0250
v 0.1250 1.8200 2.0250
v 0.9750 1.7200 2.0250
v 0.9750 1.8200 2.0250
v 0.1250 1.7200 2.8750
v 0.1250 1.8200 2.8750
v 0.9750 1.7200 2.8750
v 0.9750 1.8200 2.8750
v -1.4000 1.7000 1.4500
v -1.4000 1.7000 -2.0000
v 1.4000 1.7000 -2.0000
v 1.4000 1.7000 1.4500
v -1.2800 2.8500 1.2500
v -1.2800 2.8500 -1.9000
v 1.2800 2.8500 -1.9000
v 1.2800 2.8500 1.2500
v -1.3000 2.8100 -1.4000
v -1.3000 3.0300 -1.4000
v 1.3000 2.8100 -1.4000
v 1.3000 3.0300 -1.4000
v -1.3000 2.8100 0.2000
v -1.3000 3.0300 0.2000
v 1.3000 2.8100 0.2000
v 1.3000 3.0300 0.2000
v 0.5800 3.1500 0.4700
v 0.5800 2.8900 0.4700
v -0.2800 2.8500 0.3500
v -0.2800 3.1100 0.3500
v -0.3602 2.8500 0.5969
v -0.3602 3.1100 0.5969
v -0.5702 2.8500 0.7494
v -0.5702 3.1100 0.7494
v -0.8298 2.8500 0.7494
v -0.8298 3.1100 0.7494
v -1.0398 2.8500 0.5969
v -1.0398 3.1100 0.5969
v -1.1200 2.8500 0.3500
v -1.1200 3.1100 0.3500
v -1.0398 2.8500 0.1031
v -1.0398 3.1100 0.1031
v -0.8298 2.8500 -0.0494
v -0.8298 3.1100 -0.0494
v -0.5702 2.8500 -0.0494
v -0.5702 3.1100 -0.0494
v -0.3602 2.8500 0.1031
v -0.3602 3.1100 0.1031
v 0.8200 2.8900 0.4700
v 0.8200 3.1500 0.4700
v 0.5800 2.8900 0.7700
v 0.5800 3.1500 0.7700
v 0.8200 2.8900 0.7700
v 0.8200 3.1500 0.7700
v 1.3200 1.8050 -0.0500
v 1.3200 2.7550 -0.0500
v 1.9200 1.8050 -0.0500
v 1.9200 2.7550 -0.0500
v 1.3200 1.8050 1.4500
v 1.3200 2.7550 1.4500
v 1.9200 1.8050 1.4500
v 1.9200 2.7550 1.4500
v 1.3450 2.0450 -0.8500
v 1.3450 2.7950 -0.8500
v 1.8950 2.0450 -0.8500
v 1.8950 2.7950 -0.8500
v 1.3450 2.0450 0.1500
v 1.3450 2.7950 0.1500
v 1.8950 2.0450 0.1500
v 1.8950 2.7950 0.1500
v 1.2700 2.1024 1.1255
v 1.2700 2.6445 1.0324
v 1.9700 2.1024 1.1255
v 1.9700 2.6445 1.0324
v 1.2700 2.1955 1.6676
v 1.2700 2.7376 1.5745
v 1.9700 2.1955 1.6676
v 1.9700 2.7376 1.5745
v -1.9200 1.8050 -0.0500
v -1.9200 2.7550 -0.0500
v 1.6950 2.4569 1.5486
v 1.6950 3.0152 4.8010
v 1.6730 2.4046 1.5575
v 1.6730 2.9630 4.8100
v 1.6200 2.3830 1.5612
v 1.6200 2.9413 4.8137
v 1.5670 2.4046 1.5575
v 1.5670 2.9630 4.8100
v 1.5450 2.4569 1.5486
v 1.5450 3.0152 4.8010
v 1.5670 2.5092 1.5396
v 1.5670 3.0675 4.7920
v 1.6200 2.5308 1.5359
v 1.6200 3.0891 4.7883
v 1.6730 2.5092 1.5396
v 1.6730 3.0675 4.7920
v 1.7350 2.9349 4.3328
v 1.7350 3.0110 4.7763
v 1.7013 2.8547 4.3466
v 1.7013 2.9308 4.7901
v 1.6200 2.8215 4.3523
v 1.6200 2.8976 4.7958
v 1.5387 2.8547 4.3466
v 1.5387 2.9308 4.7901
v 1.5050 2.9349 4.3328
v 1.5050 3.0110 4.7763
v 1.5387 3.0150 4.3191
v 1.5387 3.0911 4.7626
v 1.6200 3.0482 4.3134
v 1.6200 3.1243 4.7569
v 1.7013 3.0150 4.3191
v 1.7013 3.0911 4.7626
v 1.7200 2.4569 1.5486
v 1.7200 2.6092 2.4356
v 1.6700 2.3716 1.5632
v 1.6700 2.5238 2.4502
v 1.5700 2.3716 1.5632
v 1.5700 2.5238 2.4502
v 1.5200 2.4569 1.5486
v 1.5200 2.6092 2.4356
v 1.5700 2.5423 1.5339
v 1.5700 2.6945 2.4209
v 1.6700 2.5423 1.5339
v 1.6700 2.6945 2.4209
v -1.3200 1.8050 -0.0500
v -1.3200 2.7550 -0.0500
v -1.9200 1.8050 1.4500
v -1.9200 2.7550 1.4500
v -1.3200 1.8050 1.4500
v -1.3200 2.7550 1.4500
v -1.8950 2.0450 -0.8500
v -1.8950 2.7950 -0.8500
v -1.3450 2.0450 -0.8500
v -1.3450 2.7950 -0.8500
v -1.8950 2.0450 0.1500
v -1.8950 2.7950 0.1500
v -1.3450 2.0450 0.1500
v -1.3450 2.7950 0.1500
v -1.9700 2.1024 1.1255
v -1.9700 2.6445 1.0324
v -1.2700 2.1024 1.1255
v -1.2700 2.6445 1.0324
v -1.9700 2.1955 1.6676
v -1.9700 2.7376 1.5745
v -1.2700 2.1955 1.6676
v -1.2700 2.7376 1.5745
v -1.0500 5.0600 -1.8500
v -1.0500 4.9000 -1.8500
v -1.5450 2.4569 1.5486
v -1.5450 3.0152 4.8010
v -1.5670 2.4046 1.5575
v -1.5670 2.9630 4.8100
v -1.6200 2.3830 1.5612
v -1.6200 2.9413 4.8137
v -1.6730 2.4046 1.5575
v -1.6730 2.9630 4.8100
v -1.6950 2.4569 1.5486
v -1.6950 3.0152 4.8010
v -1.6730 2.5092 1.5396
v -1.6730 3.0675 4.7920
v -1.6200 2.5308 1.5359
v -1.6200 3.0891 4.7883
v -1.5670 2.5092 1.5396
v -1.5670 3.0675 4.7920
v -1.5050 2.9349 4.3328
v -1.5050 3.0110 4.7763
v -1.5387 2.8547 4.3466
v -1.5387 2.9308 4.7901
v -1.6200 2.8215 4.3523
v -1.6200 2.8976 4.7958
v -1.7013 2.8547 4.3466
v -1.7013 2.9308 4.7901
v -1.7350 2.9349 4.3328
v -1.7350 3.0110 4.7763
v -1.7013 3.0150 4.3191
v -1.7013 3.0911 4.7626
v -1.6200 3.0482 4.3134
v -1.6200 3.1243 4.7569
v -1.5387 3.0150 4.3191
v -1.5387 3.0911 4.7626
v -1.5200 2.4569 1.5486
v -1.5200 2.6092 2.4356
v -1.5700 2.3716 1.5632
v -1.5700 2.5238 2.4502
v -1.6700 2.3716 1.5632
v -1.6700 2.5238 2.4502
v -1.7200 2.4569 1.5486
v -1.7200 2.6092 2.4356
v -1.6700 2.5423 1.5339
v -1.6700 2.6945 2.4209
v -1.5700 2.5423 1.5339
v -1.5700 2.6945 2.4209
v 0.3000 2.8500 1.0500
v 0.3000 3.3500 1.0500
v 0.2121 2.8500 1.2621
v 0.2121 3.3500 1.2621
v 0.0000 2.8500 1.3500
v 0.0000 3.3500 1.3500
v -0.2121 2.8500 1.2621
v -0.2121 3.3500 1.2621
v -0.3000 2.8500 1.0500
v -0.3000 3.3500 1.0500
v -0.2121 2.8500 0.8379
v -0.2121 3.3500 0.8379
v 0.0000 2.8500 0.7500
v 0.0000 3.3500 0.7500
v 0.2121 2.8500 0.8379
v 0.2121 3.3500 0.8379
v 0.7800 3.7294 1.2227
v 0.7800 3.7706 1.3773
v 0.6755 3.3525 1.3230
v 0.6755 3.3937 1.4776
v 0.3900 3.0766 1.3963
v 0.3900 3.1178 1.5510
v 0.0000 2.9756 1.4232
v 0.0000 3.0168 1.5778
v -0.3900 3.0766 1.3963
v -0.3900 3.1178 1.5510
v -0.6755 3.3525 1.3230
v -0.6755 3.3937 1.4776
v -0.7800 3.7294 1.2227
v -0.7800 3.7706 1.3773
v -0.6755 4.1063 1.1224
v -0.6755 4.1475 1.2770
v -0.3900 4.3822 1.0490
v -0.3900 4.4234 1.2037
v 0.0000 4.4832 1.0222
v 0.0000 4.5244 1.1768
v 0.3900 4.3822 1.0490
v 0.3900 4.4234 1.2037
v 0.6755 4.1063 1.1224
v 0.6755 4.1475 1.2770
v 0.8112 3.7063 0.9757
v 0.6240 3.7937 1.3043
v 0.7025 3.3143 1.0800
v 0.5404 3.4922 1.3845
v 0.4056 3.0274 1.1563
v 0.3120 3.2715 1.4432
v 0.0000 2.9224 1.1843
v 0.0000 3.1907 1.4647
v -0.4056 3.0274 1.1563
v -0.3120 3.2715 1.4432
v -0.7025 3.3143 1.0800
v -0.5404 3.4922 1.3845
v -0.8112 3.7063 0.9757
v -0.6240 3.7937 1.3043
v -0.7025 4.0983 0.8714
v -0.5404 4.0952 1.2241
v -0.4056 4.3852 0.7951
v -0.3120 4.3159 1.1654
v 0.0000 4.4902 0.7672
v 0.0000 4.3967 1.1439
v 0.4056 4.3852 0.7951
v 0.3120 4.3159 1.1654
v 0.7025 4.0983 0.8714
v 0.5404 4.0952 1.2241
v 0.1014 3.7490 1.3072
v 0.1014 3.9194 1.9480
v 0.0507 3.6641 1.3298
v 0.0507 3.8346 1.9705
v -0.0507 3.6641 1.3298
v -0.0507 3.8346 1.9705
v -0.1014 3.7490 1.3072
v -0.1014 3.9194 1.9480
v -0.0507 3.8339 1.2847
v -0.0507 4.0043 1.9254
v 0.0507 3.8339 1.2847
v 0.0507 4.0043 1.9254
v 0.4200 2.8550 -1.5500
v 0.4200 3.3050 -1.5500
v 0.2970 2.8550 -1.2530
v 0.2970 3.3050 -1.2530
v 0.0000 2.8550 -1.1300
v 0.0000 3.3050 -1.1300
v -0.2970 2.8550 -1.2530
v -0.2970 3.3050 -1.2530
v -0.4200 2.8550 -1.5500
v -0.4200 3.3050 -1.5500
v -0.2970 2.8550 -1.8470
v -0.2970 3.3050 -1.8470
v 0.0000 2.8550 -1.9700
v 0.0000 3.3050 -1.9700
v 0.2970 2.8550 -1.8470
v 0.2970 3.3050 -1.8470
v -0.8500 4.0325 -1.7219
v -0.8500 4.0675 -1.8781
v -0.7361 3.6178 -1.8147
v -0.7361 3.6527 -1.9708
v -0.4250 3.3142 -1.8826
v -0.4250 3.3491 -2.0387
v -0.0000 3.2030 -1.9074
v -0.0000 3.2379 -2.0636
v 0.4250 3.3142 -1.8826
v 0.4250 3.3491 -2.0387
v 0.7361 3.6178 -1.8147
v 0.7361 3.6527 -1.9708
v 0.8500 4.0325 -1.7219
v 0.8500 4.0675 -1.8781
v 0.7361 4.4473 -1.6292
v 0.7361 4.4822 -1.7853
v 0.4250 4.7509 -1.5613
v 0.4250 4.7858 -1.7174
v 0.0000 4.8621 -1.5364
v 0.0000 4.8970 -1.6926
v -0.4250 4.7509 -1.5613
v -0.4250 4.7858 -1.7174
v -0.7361 4.4473 -1.6292
v -0.7361 4.4822 -1.7853
v -0.8840 4.0129 -1.4741
v -0.6800 4.0871 -1.8059
v -0.7656 3.5816 -1.5706
v -0.5889 3.7553 -1.8801
v -0.4420 3.2658 -1.6412
v -0.3400 3.5124 -1.9344
v -0.0000 3.1502 -1.6670
v -0.0000 3.4235 -1.9543
v 0.4420 3.2658 -1.6412
v 0.3400 3.5124 -1.9344
v 0.7656 3.5816 -1.5706
v 0.5889 3.7553 -1.8801
v 0.8840 4.0129 -1.4741
v 0.6800 4.0871 -1.8059
v 0.7656 4.4442 -1.3776
v 0.5889 4.4189 -1.7317
v 0.4420 4.7600 -1.3070
v 0.3400 4.6618 -1.6774
v 0.0000 4.8756 -1.2812
v -0.0000 4.7507 -1.6575
v -0.4420 4.7600 -1.3070
v -0.3400 4.6618 -1.6774
v -0.7656 4.4442 -1.3776
v -0.5889 4.4189 -1.7317
v -0.1105 4.0491 -1.8045
v -0.1105 4.2067 -2.5095
v -0.0552 3.9557 -1.8253
v -0.0553 4.1134 -2.5304
v 0.0553 3.9557 -1.8253
v 0.0552 4.1134 -2.5304
v 0.1105 4.0491 -1.8045
v 0.1105 4.2067 -2.5095
v 0.0553 4.1425 -1.7836
v 0.0552 4.3001 -2.4887
v -0.0552 4.1425 -1.7836
v -0.0553 4.3001 -2.4887
v 1.0500 4.9000 -1.8500
v 1.0500 5.0600 -1.8500
v -1.0500 4.9000 -1.7500
v -1.0500 5.0600 -1.7500
v 1.0500 4.9000 -1.7500
v 1.0500 5.0600 -1.7500
v 1.2687 2.5387 0.8033
v 1.3284 2.6613 1.0705
v 1.2440 2.4913 0.8306
v 1.3038 2.6138 1.0978
v 1.1855 2.4913 0.8436
v 1.2452 2.6138 1.1109
v 1.1516 2.5387 0.8295
v 1.2113 2.6613 1.0967
v 1.1762 2.5862 0.8022
v 1.2360 2.7087 1.0694
v 1.2348 2.5862 0.7891
v 1.2945 2.7087 1.0564
v 1.2687 2.5387 0.6233
v 1.3284 2.6613 0.8905
v 1.2440 2.4913 0.6506
v 1.3038 2.6138 0.9178
v 1.1855 2.4913 0.6636
v 1.2452 2.6138 0.9309
v 1.1516 2.5387 0.6495
v 1.2113 2.6613 0.9167
v 1.1762 2.5862 0.6222
v 1.2360 2.7087 0.8894
v 1.2348 2.5862 0.6091
v 1.2945 2.7087 0.8764
v 1.2687 2.5387 0.4433
v 1.3284 2.6613 0.7105
v 1.2440 2.4913 0.4706
v 1.3038 2.6138 0.7378
v 1.1855 2.4913 0.4836
v 1.2452 2.6138 0.7509
v 1.1516 2.5387 0.4695
v 1.2113 2.6613 0.7367
v 1.1762 2.5862 0.4422
v 1.2360 2.7087 0.7094
v 1.2348 2.5862 0.4291
v 1.2945 2.7087 0.6964
v 1.1200 2.9000 -1.8500
v 1.1200 4.6000 -1.8500
v 1.1000 2.9000 -1.8300
v 1.1000 4.6000 -1.8300
v 1.0800 2.9000 -1.8500
v 1.0800 4.6000 -1.8500
v 1.1000 2.9000 -1.8700
v 1.1000 4.6000 -1.8700
v -1.1516 2.5387 0.8295
v -1.2113 2.6613 1.0967
v -1.1855 2.4913 0.8436
v -1.2452 2.6138 1.1109
v -1.2440 2.4913 0.8306
v -1.3038 2.6138 1.0978
v -1.2687 2.5387 0.8033
v -1.3284 2.6613 1.0705
v -1.2348 2.5862 0.7891
v -1.2945 2.7087 1.0564
v -1.1762 2.5862 0.8022
v -1.2360 2.7087 1.0694
v -1.1516 2.5387 0.6495
v -1.2113 2.6613 0.9167
v -1.1855 2.4913 0.6636
v -1.2452 2.6138 0.9309
v -1.2440 2.4913 0.6506
v -1.3038 2.6138 0.9178
v -1.2687 2.5387 0.6233
v -1.3284 2.6613 0.8905
v -1.2348 2.5862 0.6091
v -1.2945 2.7087 0.8764
v -1.1762 2.5862 0.6222
v -1.2360 2.7087 0.8894
v -1.1516 2.5387 0.4695
v -1.2113 2.6613 0.7367
v -1.1855 2.4913 0.4836
v -1.2452 2.6138 0.7509
v -1.2440 2.4913 0.4706
v -1.3038 2.6138 0.7378
v -1.2687 2.5387 0.4433
v -1.3284 2.6613 0.7105
v -1.2348 2.5862 0.4291
v -1.2945 2.7087 0.6964
v -1.1762 2.5862 0.4422
v -1.2360 2.7087 0.7094
v -1.0800 2.9000 -1.8500
v -1.0800 4.6000 -1.8500
v -1.1000 2.9000 -1.8300
v -1.1000 4.6000 -1.8300
v -1.1200 2.9000 -1.8500
v -1.1200 4.6000 -1.8500
v -1.1000 2.9000 -1.8700
v -1.1000 4.6000 -1.8700
usemtl Mat0
f 6 7 8
f 10 9 13
f 9 2 1
f 10 3 2
f 11 4 3
f 12 5 4
f 13 6 5
f 14 7 6
f 15 8 7
f 16 1 8
f 279 272 271
f 282 275 274
f 281 274 273
f 278 271 254
f 277 254 253
f 284 253 276
f 278 277 281
f 283 276 275
f 274 275 276
f 280 273 272
f 626 627 625
f 627 632 631
f 632 629 631
f 630 625 629
f 631 625 627
f 628 630 632
f 636 637 635
f 660 661 659
f 654 655 653
f 637 640 639
f 657 660 659
f 678 676 674
f 639 642 641
f 642 643 641
f 652 653 651
f 644 645 643
f 655 658 657
f 645 648 647
f 644 642 640
f 648 649 647
f 668 669 667
f 674 675 673
f 649 636 635
f 647 649 641
f 672 673 671
f 661 664 663
f 653 657 661
f 663 666 665
f 670 671 669
f 676 677 675
f 665 652 651
f 666 664 656
f 677 668 667
f 667 669 671
f 694 695 693
f 695 700 699
f 700 697 699
f 698 693 697
f 699 693 695
f 696 698 700
f 704 705 703
f 728 729 727
f 722 723 721
f 705 708 707
f 725 728 727
f 746 744 742
f 708 709 707
f 710 711 709
f 720 721 719
f 712 713 711
f 724 725 723
f 713 716 715
f 712 710 708
f 716 717 715
f 736 737 735
f 742 743 741
f 718 703 717
f 715 717 709
f 740 741 739
f 729 732 731
f 729 733 721
f 732 733 731
f 738 739 737
f 744 745 743
f 733 720 719
f 720 734 732
f 745 736 735
f 735 737 739
f 906 907 905
f 907 910 909
f 921 924 923
f 917 920 919
f 930 931 929
f 920 921 919
f 910 911 909
f 912 913 911
f 1 2 6
f 911 915 907
f 914 915 913
f 952 953 951
f 975 978 977
f 915 906 905
f 914 912 910
f 924 925 923
f 918 928 926
f 978 979 977
f 926 927 925
f 934 935 933
f 932 933 931
f 928 917 927
f 919 921 925
f 936 937 935
f 938 936 932
f 949 952 951
f 938 939 937
f 940 929 939
f 935 939 931
f 961 964 963
f 953 956 955
f 974 975 973
f 9 16 15
f 956 957 955
f 958 956 952
f 957 960 959
f 966 967 965
f 964 965 963
f 959 950 949
f 959 949 951
f 967 970 969
f 5 6 2
f 969 961 965
f 970 971 969
f 8 1 6
f 971 962 961
f 962 972 970
f 979 982 981
f 2 3 4
f 983 973 975
f 982 983 981
f 4 5 2
f 15 14 9
f 983 974 973
f 974 984 982
f 14 13 9
f 13 12 11
f 11 10 13
f 277 284 283
f 283 282 277
f 282 281 277
f 281 280 279
f 279 278 281
f 276 253 274
f 253 254 274
f 254 271 272
f 272 273 254
f 273 274 254
f 674 672 678
f 672 670 678
f 670 668 678
f 640 638 636
f 636 650 640
f 650 648 640
f 648 646 640
f 646 644 640
f 649 635 637
f 637 639 649
f 639 641 649
f 641 643 645
f 645 647 641
f 653 655 657
f 657 659 661
f 661 663 653
f 663 665 653
f 665 651 653
f 664 662 660
f 660 658 664
f 658 656 664
f 656 654 652
f 652 666 656
f 671 673 675
f 675 677 671
f 677 667 671
f 742 740 746
f 740 738 746
f 738 736 746
f 708 706 704
f 704 718 708
f 718 716 708
f 716 714 708
f 714 712 708
f 717 703 705
f 705 707 717
f 707 709 717
f 709 711 713
f 713 715 709
f 721 723 725
f 725 727 729
f 729 731 733
f 733 719 721
f 721 725 729
f 732 730 728
f 728 726 732
f 726 724 732
f 724 722 732
f 722 720 732
f 739 741 743
f 743 745 739
f 745 735 739
f 907 909 911
f 911 913 915
f 915 905 907
f 910 908 914
f 908 906 914
f 906 916 914
f 926 924 922
f 922 920 926
f 920 918 926
f 921 923 925
f 925 927 917
f 917 919 925
f 936 934 932
f 932 930 940
f 940 938 932
f 931 933 935
f 935 937 939
f 939 929 931
f 956 954 952
f 952 950 960
f 960 958 952
f 951 953 959
f 953 955 959
f 955 957 959
f 965 967 969
f 969 971 961
f 961 963 965
f 970 968 966
f 966 964 970
f 964 962 970
f 975 977 983
f 977 979 983
f 979 981 983
f 982 980 978
f 978 976 982
f 976 974 982
f 9 10 2
f 10 11 3
f 11 12 4
f 12 13 5
f 13 14 6
f 14 15 7
f 15 16 8
f 16 9 1
f 279 280 272
f 282 283 275
f 281 282 274
f 278 279 271
f 277 278 254
f 284 277 253
f 283 284 276
f 280 281 273
f 626 628 627
f 627 628 632
f 632 630 629
f 630 626 625
f 631 629 625
f 628 626 630
f 636 638 637
f 660 662 661
f 654 656 655
f 637 638 640
f 657 658 660
f 639 640 642
f 642 644 643
f 652 654 653
f 644 646 645
f 655 656 658
f 645 646 648
f 648 650 649
f 668 670 669
f 674 676 675
f 649 650 636
f 672 674 673
f 661 662 664
f 663 664 666
f 670 672 671
f 676 678 677
f 665 666 652
f 677 678 668
f 694 696 695
f 695 696 700
f 700 698 697
f 698 694 693
f 699 697 693
f 696 694 698
f 704 706 705
f 728 730 729
f 722 724 723
f 705 706 708
f 725 726 728
f 708 710 709
f 710 712 711
f 720 722 721
f 712 714 713
f 724 726 725
f 713 714 716
f 716 718 717
f 736 738 737
f 742 744 743
f 718 704 703
f 740 742 741
f 729 730 732
f 732 734 733
f 738 740 739
f 744 746 745
f 733 734 720
f 745 746 736
f 906 908 907
f 907 908 910
f 921 922 924
f 917 918 920
f 930 932 931
f 920 922 921
f 910 912 911
f 912 914 913
f 914 916 915
f 952 954 953
f 975 976 978
f 915 916 906
f 924 926 925
f 978 980 979
f 926 928 927
f 934 936 935
f 932 934 933
f 928 918 917
f 936 938 937
f 949 950 952
f 938 940 939
f 940 930 929
f 961 962 964
f 953 954 956
f 974 976 975
f 956 958 957
f 957 958 960
f 966 968 967
f 964 966 965
f 959 960 950
f 967 968 970
f 970 972 971
f 971 972 962
f 979 980 982
f 982 984 983
f 983 984 974
usemtl Mat1
f 50 51 49
f 44 45 43
f 20 21 19
f 65 68 67
f 288 289 287
f 21 24 23
f 202 203 201
f 220 221 219
f 24 25 23
f 48 49 47
f 41 44 43
f 25 28 27
f 182 183 181
f 28 29 27
f 234 235 233
f 85 88 87
f 30 31 29
f 45 48 47
f 40 41 39
f 32 33 31
f 61 64 63
f 64 65 63
f 34 35 33
f 36 28 24
f 70 71 69
f 36 37 35
f 105 108 107
f 68 69 67
f 38 19 37
f 35 37 25
f 60 61 59
f 52 53 51
f 81 84 83
f 84 85 83
f 54 55 53
f 40 56 52
f 90 91 89
f 56 57 55
f 125 128 127
f 88 89 87
f 58 39 57
f 57 41 45
f 80 81 79
f 72 73 71
f 101 104 103
f 104 105 103
f 74 75 73
f 78 70 66
f 110 111 109
f 76 77 75
f 140 141 139
f 108 109 107
f 78 59 77
f 69 77 61
f 100 101 99
f 92 93 91
f 121 124 123
f 124 125 123
f 94 95 93
f 84 96 92
f 130 131 129
f 96 97 95
f 162 163 161
f 128 129 127
f 98 79 97
f 95 83 87
f 120 121 119
f 112 113 111
f 148 149 147
f 150 151 149
f 114 115 113
f 118 110 106
f 144 145 143
f 116 117 115
f 216 217 215
f 141 144 143
f 118 99 117
f 113 117 101
f 145 148 147
f 132 133 131
f 170 171 169
f 168 169 167
f 134 135 133
f 163 166 165
f 135 119 123
f 136 137 135
f 240 241 239
f 160 161 159
f 138 119 137
f 124 136 132
f 166 167 165
f 152 153 151
f 190 191 189
f 188 189 187
f 154 155 153
f 183 186 185
f 155 143 147
f 156 157 155
f 180 181 179
f 158 139 157
f 144 156 152
f 186 187 185
f 172 173 171
f 210 211 209
f 208 209 207
f 174 175 173
f 204 205 203
f 167 171 175
f 176 177 175
f 200 201 199
f 178 159 177
f 164 176 172
f 206 207 205
f 192 193 191
f 232 233 231
f 333 336 335
f 194 195 193
f 238 239 237
f 191 179 183
f 196 197 195
f 222 223 221
f 198 179 197
f 184 196 192
f 199 201 209
f 212 213 211
f 218 219 217
f 224 225 223
f 214 199 213
f 204 200 212
f 236 237 235
f 312 313 311
f 226 227 225
f 224 222 230
f 228 229 227
f 230 215 229
f 223 227 215
f 242 243 241
f 243 231 235
f 244 245 243
f 246 231 245
f 244 242 234
f 318 319 317
f 289 292 291
f 470 471 469
f 488 489 487
f 292 293 291
f 316 317 315
f 309 312 311
f 293 296 295
f 450 451 449
f 296 297 295
f 502 503 501
f 353 356 355
f 298 299 297
f 313 316 315
f 308 309 307
f 300 301 299
f 329 332 331
f 332 333 331
f 302 303 301
f 292 288 304
f 338 339 337
f 304 305 303
f 373 376 375
f 336 337 335
f 306 287 305
f 291 295 303
f 328 329 327
f 320 321 319
f 349 352 351
f 352 353 351
f 322 323 321
f 308 324 320
f 358 359 357
f 324 325 323
f 393 396 395
f 356 357 355
f 326 307 325
f 325 309 313
f 348 349 347
f 340 341 339
f 369 372 371
f 372 373 371
f 342 343 341
f 346 342 338
f 378 379 377
f 344 345 343
f 408 409 407
f 376 377 375
f 346 327 345
f 337 345 329
f 368 369 367
f 360 361 359
f 389 392 391
f 392 393 391
f 362 363 361
f 352 364 360
f 398 399 397
f 364 365 363
f 430 431 429
f 396 397 395
f 366 347 365
f 363 351 355
f 388 389 387
f 380 381 379
f 416 417 415
f 418 419 417
f 382 383 381
f 386 382 378
f 412 413 411
f 384 385 383
f 484 485 483
f 409 412 411
f 386 367 385
f 381 369 373
f 413 416 415
f 400 401 399
f 438 439 437
f 436 437 435
f 402 403 401
f 431 434 433
f 403 387 391
f 404 405 403
f 508 509 507
f 428 429 427
f 406 387 405
f 392 404 400
f 434 435 433
f 420 421 419
f 458 459 457
f 456 457 455
f 422 423 421
f 451 454 453
f 423 411 415
f 424 425 423
f 448 449 447
f 426 407 425
f 412 408 424
f 454 455 453
f 440 441 439
f 478 479 477
f 476 477 475
f 442 443 441
f 472 473 471
f 435 443 427
f 444 445 443
f 468 469 467
f 446 427 445
f 432 444 440
f 474 475 473
f 460 461 459
f 500 501 499
f 462 463 461
f 506 507 505
f 463 447 451
f 464 465 463
f 490 491 489
f 466 447 465
f 452 464 460
f 467 469 477
f 480 481 479
f 486 487 485
f 492 493 491
f 482 467 481
f 472 468 480
f 504 505 503
f 494 495 493
f 492 490 498
f 496 497 495
f 498 483 497
f 491 495 483
f 510 511 509
f 511 499 503
f 512 513 511
f 514 499 513
f 512 510 502
f 24 22 20
f 20 38 36
f 36 34 28
f 34 32 28
f 32 30 28
f 28 26 24
f 24 20 36
f 37 19 21
f 21 23 37
f 23 25 37
f 25 27 33
f 27 29 33
f 29 31 33
f 33 35 25
f 48 46 44
f 44 42 48
f 42 40 48
f 40 58 56
f 56 54 52
f 52 50 40
f 50 48 40
f 49 51 53
f 53 55 57
f 57 39 41
f 41 43 45
f 45 47 49
f 49 53 45
f 53 57 45
f 66 64 62
f 62 60 78
f 78 76 74
f 74 72 78
f 72 70 78
f 70 68 66
f 66 62 78
f 61 63 65
f 65 67 69
f 69 71 73
f 73 75 77
f 77 59 61
f 61 65 69
f 69 73 77
f 92 90 88
f 88 86 84
f 84 82 80
f 80 98 96
f 96 94 92
f 92 88 84
f 84 80 96
f 87 89 91
f 91 93 95
f 95 97 79
f 79 81 83
f 83 85 87
f 87 91 95
f 95 79 83
f 106 104 102
f 102 100 118
f 118 116 114
f 114 112 118
f 112 110 118
f 110 108 106
f 106 102 118
f 105 107 109
f 109 111 113
f 113 115 117
f 117 99 101
f 101 103 105
f 105 109 101
f 109 113 101
f 127 129 131
f 131 133 135
f 135 137 119
f 119 121 123
f 123 125 127
f 127 131 123
f 131 135 123
f 132 130 128
f 128 126 132
f 126 124 132
f 124 122 120
f 120 138 136
f 136 134 132
f 124 120 136
f 147 149 151
f 151 153 147
f 153 155 147
f 155 157 139
f 139 141 143
f 143 145 147
f 155 139 143
f 152 150 148
f 148 146 152
f 146 144 152
f 144 142 140
f 140 158 156
f 156 154 152
f 144 140 156
f 159 161 167
f 161 163 167
f 163 165 167
f 167 169 171
f 171 173 175
f 175 177 167
f 177 159 167
f 172 170 168
f 168 166 164
f 164 162 160
f 160 178 164
f 178 176 164
f 176 174 172
f 172 168 164
f 183 185 187
f 187 189 183
f 189 191 183
f 191 193 195
f 195 197 179
f 179 181 183
f 191 195 179
f 192 190 188
f 188 186 184
f 184 182 180
f 180 198 184
f 198 196 184
f 196 194 192
f 192 188 184
f 201 203 205
f 205 207 201
f 207 209 201
f 209 211 213
f 213 199 209
f 212 210 208
f 208 206 204
f 204 202 200
f 200 214 212
f 212 208 204
f 222 220 218
f 218 216 222
f 216 230 222
f 230 228 226
f 226 224 230
f 219 221 223
f 223 225 227
f 227 229 215
f 215 217 219
f 219 223 215
f 235 237 239
f 239 241 243
f 243 245 231
f 231 233 235
f 235 239 243
f 242 240 238
f 238 236 242
f 236 234 242
f 234 232 246
f 246 244 234
f 292 290 288
f 288 306 304
f 304 302 296
f 302 300 296
f 300 298 296
f 296 294 304
f 294 292 304
f 287 289 291
f 291 293 295
f 295 297 299
f 299 301 295
f 301 303 295
f 303 305 287
f 287 291 303
f 316 314 312
f 312 310 316
f 310 308 316
f 308 326 324
f 324 322 320
f 320 318 308
f 318 316 308
f 317 319 321
f 321 323 325
f 325 307 309
f 309 311 313
f 313 315 317
f 317 321 313
f 321 325 313
f 334 332 330
f 330 328 346
f 346 344 342
f 342 340 338
f 338 336 346
f 336 334 346
f 334 330 346
f 329 331 333
f 333 335 337
f 337 339 341
f 341 343 345
f 345 327 329
f 329 333 337
f 337 341 345
f 360 358 356
f 356 354 352
f 352 350 348
f 348 366 364
f 364 362 360
f 360 356 352
f 352 348 364
f 355 357 359
f 359 361 363
f 363 365 347
f 347 349 351
f 351 353 355
f 355 359 363
f 363 347 351
f 374 372 370
f 370 368 386
f 386 384 382
f 382 380 378
f 378 376 386
f 376 374 386
f 374 370 386
f 373 375 377
f 377 379 373
f 379 381 373
f 381 383 385
f 385 367 369
f 369 371 373
f 381 385 369
f 395 397 399
f 399 401 403
f 403 405 387
f 387 389 391
f 391 393 395
f 395 399 391
f 399 403 391
f 400 398 396
f 396 394 400
f 394 392 400
f 392 390 388
f 388 406 404
f 404 402 400
f 392 388 404
f 415 417 419
f 419 421 415
f 421 423 415
f 423 425 407
f 407 409 411
f 411 413 415
f 423 407 411
f 420 418 416
f 416 414 420
f 414 412 420
f 412 410 408
f 408 426 424
f 424 422 412
f 422 420 412
f 427 429 435
f 429 431 435
f 431 433 435
f 435 437 439
f 439 441 443
f 443 445 427
f 435 439 443
f 440 438 436
f 436 434 432
f 432 430 428
f 428 446 444
f 444 442 440
f 440 436 432
f 432 428 444
f 451 453 455
f 455 457 459
f 459 461 463
f 463 465 447
f 447 449 451
f 451 455 459
f 459 463 451
f 460 458 456
f 456 454 452
f 452 450 448
f 448 466 464
f 464 462 460
f 460 456 452
f 452 448 464
f 469 471 473
f 473 475 469
f 475 477 469
f 477 479 481
f 481 467 477
f 480 478 476
f 476 474 472
f 472 470 468
f 468 482 480
f 480 476 472
f 490 488 486
f 486 484 490
f 484 498 490
f 498 496 494
f 494 492 498
f 487 489 491
f 491 493 495
f 495 497 483
f 483 485 487
f 487 491 483
f 503 505 507
f 507 509 511
f 511 513 499
f 499 501 503
f 503 507 511
f 510 508 506
f 506 504 510
f 504 502 510
f 502 500 514
f 514 512 502
f 50 52 51
f 44 46 45
f 20 22 21
f 65 66 68
f 288 290 289
f 21 22 24
f 202 204 203
f 220 222 221
f 24 26 25
f 48 50 49
f 41 42 44
f 25 26 28
f 182 184 183
f 28 30 29
f 234 236 235
f 85 86 88
f 30 32 31
f 45 46 48
f 40 42 41
f 32 34 33
f 61 62 64
f 64 66 65
f 34 36 35
f 70 72 71
f 36 38 37
f 105 106 108
f 68 70 69
f 38 20 19
f 60 62 61
f 52 54 53
f 81 82 84
f 84 86 85
f 54 56 55
f 90 92 91
f 56 58 57
f 125 126 128
f 88 90 89
f 58 40 39
f 80 82 81
f 72 74 73
f 101 102 104
f 104 106 105
f 74 76 75
f 110 112 111
f 76 78 77
f 140 142 141
f 108 110 109
f 78 60 59
f 100 102 101
f 92 94 93
f 121 122 124
f 124 126 125
f 94 96 95
f 130 132 131
f 96 98 97
f 162 164 163
f 128 130 129
f 98 80 79
f 120 122 121
f 112 114 113
f 148 150 149
f 150 152 151
f 114 116 115
f 144 146 145
f 116 118 117
f 216 218 217
f 141 142 144
f 118 100 99
f 145 146 148
f 132 134 133
f 170 172 171
f 168 170 169
f 134 136 135
f 163 164 166
f 136 138 137
f 240 242 241
f 160 162 161
f 138 120 119
f 166 168 167
f 152 154 153
f 190 192 191
f 188 190 189
f 154 156 155
f 183 184 186
f 156 158 157
f 180 182 181
f 158 140 139
f 186 188 187
f 172 174 173
f 210 212 211
f 208 210 209
f 174 176 175
f 204 206 205
f 176 178 177
f 200 202 201
f 178 160 159
f 206 208 207
f 192 194 193
f 232 234 233
f 333 334 336
f 194 196 195
f 238 240 239
f 196 198 197
f 222 224 223
f 198 180 179
f 212 214 213
f 218 220 219
f 224 226 225
f 214 200 199
f 236 238 237
f 312 314 313
f 226 228 227
f 228 230 229
f 230 216 215
f 242 244 243
f 244 246 245
f 246 232 231
f 318 320 319
f 289 290 292
f 470 472 471
f 488 490 489
f 292 294 293
f 316 318 317
f 309 310 312
f 293 294 296
f 450 452 451
f 296 298 297
f 502 504 503
f 353 354 356
f 298 300 299
f 313 314 316
f 308 310 309
f 300 302 301
f 329 330 332
f 332 334 333
f 302 304 303
f 338 340 339
f 304 306 305
f 373 374 376
f 336 338 337
f 306 288 287
f 328 330 329
f 320 322 321
f 349 350 352
f 352 354 353
f 322 324 323
f 358 360 359
f 324 326 325
f 393 394 396
f 356 358 357
f 326 308 307
f 348 350 349
f 340 342 341
f 369 370 372
f 372 374 373
f 342 344 343
f 378 380 379
f 344 346 345
f 408 410 409
f 376 378 377
f 346 328 327
f 368 370 369
f 360 362 361
f 389 390 392
f 392 394 393
f 362 364 363
f 398 400 399
f 364 366 365
f 430 432 431
f 396 398 397
f 366 348 347
f 388 390 389
f 380 382 381
f 416 418 417
f 418 420 419
f 382 384 383
f 412 414 413
f 384 386 385
f 484 486 485
f 409 410 412
f 386 368 367
f 413 414 416
f 400 402 401
f 438 440 439
f 436 438 437
f 402 404 403
f 431 432 434
f 404 406 405
f 508 510 509
f 428 430 429
f 406 388 387
f 434 436 435
f 420 422 421
f 458 460 459
f 456 458 457
f 422 424 423
f 451 452 454
f 424 426 425
f 448 450 449
f 426 408 407
f 454 456 455
f 440 442 441
f 478 480 479
f 476 478 477
f 442 444 443
f 472 474 473
f 444 446 445
f 468 470 469
f 446 428 427
f 474 476 475
f 460 462 461
f 500 502 501
f 462 464 463
f 506 508 507
f 464 466 465
f 490 492 491
f 466 448 447
f 480 482 481
f 486 488 487
f 492 494 493
f 482 468 467
f 504 506 505
f 494 496 495
f 496 498 497
f 498 484 483
f 510 512 511
f 512 514 513
f 514 500 499
usemtl Mat2
f 250 17 249
f 251 17 247
f 252 249 251
f 248 251 247
f 18 247 17
f 248 250 252
f 555 549 551
f 518 285 517
f 519 285 515
f 552 554 556
f 554 549 553
f 520 517 519
f 516 519 515
f 286 515 285
f 516 518 520
f 556 553 555
f 552 555 551
f 550 551 549
f 558 559 557
f 560 563 559
f 564 561 563
f 562 557 561
f 563 557 559
f 560 562 564
f 574 575 573
f 576 579 575
f 580 577 579
f 578 573 577
f 579 573 575
f 576 578 580
f 620 622 624
f 622 617 621
f 624 621 623
f 620 623 619
f 618 619 617
f 623 617 619
f 686 687 685
f 691 685 687
f 688 691 687
f 690 685 689
f 692 689 691
f 688 690 692
f 828 829 827
f 748 749 747
f 824 825 823
f 830 831 829
f 752 753 751
f 750 751 749
f 754 755 753
f 756 757 755
f 758 759 757
f 754 752 760
f 760 761 759
f 762 747 761
f 757 761 749
f 826 827 825
f 832 833 831
f 834 835 833
f 826 838 834
f 836 837 835
f 838 823 837
f 837 823 831
f 752 750 748
f 748 762 752
f 762 760 752
f 760 758 756
f 756 754 760
f 749 751 753
f 753 755 757
f 757 759 761
f 761 747 749
f 749 753 757
f 834 832 830
f 830 828 826
f 826 824 838
f 838 836 834
f 834 830 826
f 823 825 827
f 827 829 823
f 829 831 823
f 831 833 835
f 835 837 831
f 250 18 17
f 251 249 17
f 252 250 249
f 248 252 251
f 18 248 247
f 248 18 250
f 555 553 549
f 518 286 285
f 519 517 285
f 552 550 554
f 554 550 549
f 520 518 517
f 516 520 519
f 286 516 515
f 516 286 518
f 556 554 553
f 552 556 555
f 550 552 551
f 558 560 559
f 560 564 563
f 564 562 561
f 562 558 557
f 563 561 557
f 560 558 562
f 574 576 575
f 576 580 579
f 580 578 577
f 578 574 573
f 579 577 573
f 576 574 578
f 620 618 622
f 622 618 617
f 624 622 621
f 620 624 623
f 618 620 619
f 623 621 617
f 686 688 687
f 691 689 685
f 688 692 691
f 690 686 685
f 692 690 689
f 688 686 690
f 828 830 829
f 748 750 749
f 824 826 825
f 830 832 831
f 752 754 753
f 750 752 751
f 754 756 755
f 756 758 757
f 758 760 759
f 760 762 761
f 762 748 747
f 826 828 827
f 832 834 833
f 834 836 835
f 836 838 837
f 838 824 823
usemtl Mat3
f 258 259 257
f 256 257 255
f 260 261 259
f 262 263 261
f 264 265 263
f 266 267 265
f 265 269 257
f 268 269 267
f 270 255 269
f 270 266 262
f 526 527 525
f 524 525 523
f 528 529 527
f 530 531 529
f 532 533 531
f 534 535 533
f 533 537 525
f 536 537 535
f 538 523 537
f 538 534 530
f 770 771 769
f 772 773 771
f 765 768 767
f 848 849 847
f 763 766 765
f 768 769 767
f 798 799 797
f 791 794 793
f 790 791 789
f 774 775 773
f 775 778 777
f 795 798 797
f 777 780 779
f 788 789 787
f 780 781 779
f 840 841 839
f 782 783 781
f 764 784 776
f 784 785 783
f 800 801 799
f 794 795 793
f 785 764 763
f 785 765 773
f 802 803 801
f 804 805 803
f 842 843 841
f 806 807 805
f 793 797 805
f 807 810 809
f 846 847 845
f 809 788 787
f 796 788 804
f 844 845 843
f 874 875 873
f 868 869 867
f 866 867 865
f 850 851 849
f 852 853 851
f 872 873 871
f 854 855 853
f 864 865 863
f 855 858 857
f 858 859 857
f 862 854 846
f 859 862 861
f 876 877 875
f 869 872 871
f 861 840 839
f 847 855 839
f 877 880 879
f 879 882 881
f 882 883 881
f 869 873 881
f 884 885 883
f 886 863 885
f 870 866 882
f 257 259 261
f 261 263 265
f 265 267 269
f 269 255 257
f 257 261 265
f 262 260 258
f 258 256 270
f 270 268 266
f 266 264 262
f 262 258 270
f 525 527 529
f 529 531 533
f 533 535 537
f 537 523 525
f 525 529 533
f 530 528 526
f 526 524 538
f 538 536 534
f 534 532 530
f 530 526 538
f 776 774 772
f 772 770 776
f 770 768 776
f 768 766 764
f 764 786 784
f 784 782 776
f 782 780 776
f 780 778 776
f 768 764 776
f 765 767 773
f 767 769 773
f 769 771 773
f 773 775 777
f 777 779 781
f 781 783 785
f 785 763 765
f 773 777 781
f 781 785 773
f 789 791 793
f 793 795 797
f 797 799 801
f 801 803 797
f 803 805 797
f 805 807 789
f 807 809 789
f 809 787 789
f 789 793 805
f 804 802 796
f 802 800 796
f 800 798 796
f 796 794 792
f 792 790 788
f 788 810 808
f 808 806 788
f 806 804 788
f 796 792 788
f 846 844 842
f 842 840 862
f 862 860 858
f 858 856 862
f 856 854 862
f 854 852 850
f 850 848 846
f 846 842 862
f 854 850 846
f 839 841 847
f 841 843 847
f 843 845 847
f 847 849 851
f 851 853 855
f 855 857 859
f 859 861 839
f 847 851 855
f 855 859 839
f 873 875 877
f 877 879 873
f 879 881 873
f 881 883 885
f 885 863 881
f 863 865 881
f 865 867 869
f 869 871 873
f 865 869 881
f 882 880 874
f 880 878 874
f 878 876 874
f 874 872 870
f 870 868 866
f 866 864 886
f 886 884 866
f 884 882 866
f 874 870 882
f 258 260 259
f 256 258 257
f 260 262 261
f 262 264 263
f 264 266 265
f 266 268 267
f 268 270 269
f 270 256 255
f 526 528 527
f 524 526 525
f 528 530 529
f 530 532 531
f 532 534 533
f 534 536 535
f 536 538 537
f 538 524 523
f 770 772 771
f 772 774 773
f 765 766 768
f 848 850 849
f 763 764 766
f 768 770 769
f 798 800 799
f 791 792 794
f 790 792 791
f 774 776 775
f 775 776 778
f 795 796 798
f 777 778 780
f 788 790 789
f 780 782 781
f 840 842 841
f 782 784 783
f 784 786 785
f 800 802 801
f 794 796 795
f 785 786 764
f 802 804 803
f 804 806 805
f 842 844 843
f 806 808 807
f 807 808 810
f 846 848 847
f 809 810 788
f 844 846 845
f 874 876 875
f 868 870 869
f 866 868 867
f 850 852 851
f 852 854 853
f 872 874 873
f 854 856 855
f 864 866 865
f 855 856 858
f 858 860 859
f 859 860 862
f 876 878 877
f 869 870 872
f 861 862 840
f 877 878 880
f 879 880 882
f 882 884 883
f 884 886 885
f 886 864 863
usemtl Mat4
f 545 540 539
f 548 521 542
f 547 542 541
f 544 539 522
f 543 522 521
f 544 543 547
f 540 541 522
f 546 541 540
f 566 568 565
f 571 569 572
f 569 566 565
f 570 567 566
f 567 572 568
f 572 565 568
f 616 613 615
f 584 585 583
f 612 615 611
f 586 587 585
f 610 611 609
f 588 589 587
f 590 591 589
f 592 593 591
f 594 595 593
f 612 614 616
f 596 597 595
f 615 609 611
f 598 599 597
f 600 596 592
f 600 601 599
f 614 609 613
f 602 583 601
f 585 589 597
f 682 633 681
f 680 683 679
f 684 681 683
f 634 679 633
f 683 633 679
f 680 682 684
f 543 548 547
f 547 546 544
f 546 545 544
f 542 521 541
f 521 522 541
f 522 539 540
f 588 586 584
f 584 602 600
f 600 598 596
f 596 594 592
f 592 590 588
f 588 584 592
f 584 600 592
f 601 583 585
f 585 587 589
f 589 591 593
f 593 595 589
f 595 597 589
f 597 599 601
f 601 585 597
f 545 546 540
f 548 543 521
f 547 548 542
f 544 545 539
f 543 544 522
f 546 547 541
f 566 567 568
f 571 570 569
f 569 570 566
f 570 571 567
f 567 571 572
f 572 569 565
f 616 614 613
f 584 586 585
f 612 616 615
f 586 588 587
f 610 612 611
f 588 590 589
f 590 592 591
f 592 594 593
f 594 596 595
f 612 610 614
f 596 598 597
f 615 613 609
f 598 600 599
f 600 602 601
f 614 610 609
f 602 584 583
f 682 634 633
f 680 684 683
f 684 682 681
f 634 680 679
f 683 681 633
f 680 634 682
usemtl Mat5
f 604 606 608
f 607 582 603
f 606 582 605
f 608 605 607
f 604 607 603
f 581 603 582
f 604 581 606
f 607 605 582
f 606 581 582
f 608 606 605
f 604 608 607
f 581 604 603
usemtl Mat6
f 820 821 819
f 816 817 815
f 817 819 811
f 896 897 895
f 814 815 813
f 818 819 817
f 821 812 811
f 902 702 901
f 812 813 811
f 891 894 893
f 812 822 820
f 898 896 894
f 900 902 904
f 890 891 889
f 893 896 895
f 898 887 897
f 904 901 903
f 888 889 887
f 893 895 887
f 701 899 702
f 903 702 899
f 900 903 899
f 819 821 811
f 811 813 815
f 815 817 811
f 820 818 816
f 816 814 820
f 814 812 820
f 894 892 890
f 890 888 894
f 888 898 894
f 895 897 887
f 887 889 891
f 891 893 887
f 820 822 821
f 816 818 817
f 896 898 897
f 814 816 815
f 818 820 819
f 821 822 812
f 902 701 702
f 812 814 813
f 891 892 894
f 900 701 902
f 890 892 891
f 893 894 896
f 898 888 887
f 904 902 901
f 888 890 889
f 701 900 899
f 903 901 702
f 900 904 903
usemtl Mat7
f 945 941 943
f 985 989 991
f 986 987 985
f 942 943 941
f 946 947 945
f 944 945 943
f 948 941 947
f 946 942 948
f 990 991 989
f 988 989 987
f 992 985 991
f 990 986 992
f 945 947 941
f 985 987 989
f 986 988 987
f 942 944 943
f 946 948 947
f 944 946 945
f 948 942 941
f 946 944 942
f 990 992 991
f 988 990 989
f 992 986 985
f 990 988 986
