# source: models.blend / Military_Assets / 08_Destroyer
# generated by tools/export_builtin_obj.py (Task69) - do not hand-edit
mtllib Unit_Destroyer.mtl
v -7.5000 3.2000 -77.5000
v -9.4000 1.0000 -70.0000
v 9.4000 1.0000 -70.0000
v 7.5000 3.2000 -77.5000
v -7.5000 6.5000 -77.5000
v -9.4000 6.5000 -70.0000
v 9.4000 6.5000 -70.0000
v 7.5000 6.5000 -77.5000
v -7.5000 6.5000 -77.5000
v -9.4000 6.5000 -70.0000
v 9.4000 6.5000 -70.0000
v 7.5000 6.5000 -77.5000
v -7.5000 13.5000 -77.5000
v -9.4000 13.5000 -70.0000
v 9.4000 13.5000 -70.0000
v 7.5000 13.5000 -77.5000
v -9.4000 1.0000 -70.0000
v -10.0000 0.0000 -50.0000
v 10.0000 0.0000 -50.0000
v 9.4000 1.0000 -70.0000
v -9.4000 6.5000 -70.0000
v -10.0000 6.5000 -50.0000
v 10.0000 6.5000 -50.0000
v 9.4000 6.5000 -70.0000
v -9.4000 6.5000 -70.0000
v -10.0000 6.5000 -50.0000
v 10.0000 6.5000 -50.0000
v 9.4000 6.5000 -70.0000
v -9.4000 13.5000 -70.0000
v -10.0000 13.7000 -50.0000
v 10.0000 13.7000 -50.0000
v 9.4000 13.5000 -70.0000
v -10.0000 0.0000 -50.0000
v -10.0000 0.0000 -20.0000
v 10.0000 0.0000 -20.0000
v 10.0000 0.0000 -50.0000
v -10.0000 6.5000 -50.0000
v -10.0000 6.5000 -20.0000
v 10.0000 6.5000 -20.0000
v 10.0000 6.5000 -50.0000
v -10.0000 6.5000 -50.0000
v -10.0000 6.5000 -20.0000
v 10.0000 6.5000 -20.0000
v 10.0000 6.5000 -50.0000
v -10.0000 13.7000 -50.0000
v -10.0000 13.9000 -20.0000
v 10.0000 13.9000 -20.0000
v 10.0000 13.7000 -50.0000
v -10.0000 0.0000 -20.0000
v -9.8000 0.2000 10.0000
v 9.8000 0.2000 10.0000
v 10.0000 0.0000 -20.0000
v -10.0000 6.5000 -20.0000
v -9.8000 6.5000 10.0000
v 9.8000 6.5000 10.0000
v 10.0000 6.5000 -20.0000
v -10.0000 6.5000 -20.0000
v -9.8000 6.5000 10.0000
v 9.8000 6.5000 10.0000
v 10.0000 6.5000 -20.0000
v -10.0000 13.9000 -20.0000
v -9.8000 14.1000 10.0000
v 9.8000 14.1000 10.0000
v 10.0000 13.9000 -20.0000
v -9.8000 0.2000 10.0000
v -8.6000 1.2000 35.0000
v 8.6000 1.2000 35.0000
v 9.8000 0.2000 10.0000
v -9.8000 6.5000 10.0000
v -8.6000 6.5000 35.0000
v 8.6000 6.5000 35.0000
v 9.8000 6.5000 10.0000
v -9.8000 6.5000 10.0000
v -8.6000 6.5000 35.0000
v 8.6000 6.5000 35.0000
v 9.8000 6.5000 10.0000
v -9.8000 14.1000 10.0000
v -8.6000 14.7000 35.0000
v 8.6000 14.7000 35.0000
v 9.8000 14.1000 10.0000
v -8.6000 1.2000 35.0000
v -6.2000 3.0000 55.0000
v 6.2000 3.0000 55.0000
v 8.6000 1.2000 35.0000
v -8.6000 6.5000 35.0000
v -6.2000 6.5000 55.0000
v 6.2000 6.5000 55.0000
v 8.6000 6.5000 35.0000
v -8.6000 6.5000 35.0000
v -6.2000 6.5000 55.0000
v 6.2000 6.5000 55.0000
v 8.6000 6.5000 35.0000
v -8.6000 14.7000 35.0000
v -6.2000 15.7000 55.0000
v 6.2000 15.7000 55.0000
v 8.6000 14.7000 35.0000
v -6.2000 3.0000 55.0000
v -3.4000 5.6000 68.0000
v 3.4000 5.6000 68.0000
v 6.2000 3.0000 55.0000
v -6.2000 6.5000 55.0000
v -3.4000 6.5000 68.0000
v 3.4000 6.5000 68.0000
v 6.2000 6.5000 55.0000
v -6.2000 6.5000 55.0000
v -3.4000 6.5000 68.0000
v 3.4000 6.5000 68.0000
v 6.2000 6.5000 55.0000
v -6.2000 15.7000 55.0000
v -3.4000 16.9000 68.0000
v 3.4000 16.9000 68.0000
v 6.2000 15.7000 55.0000
v -3.4000 5.6000 68.0000
v -1.0000 8.6000 76.0000
v 1.0000 8.6000 76.0000
v 3.4000 5.6000 68.0000
v -3.4000 6.5000 68.0000
v -1.0000 6.5000 76.0000
v 1.0000 6.5000 76.0000
v 3.4000 6.5000 68.0000
v -3.4000 6.5000 68.0000
v -1.0000 8.6000 76.0000
v 1.0000 8.6000 76.0000
v 3.4000 6.5000 68.0000
v -3.4000 16.9000 68.0000
v -1.0000 18.1000 76.0000
v 1.0000 18.1000 76.0000
v 3.4000 16.9000 68.0000
v -1.0000 8.6000 76.0000
v -0.1500 10.6000 78.0000
v 0.1500 10.6000 78.0000
v 1.0000 8.6000 76.0000
v -1.0000 18.1000 76.0000
v -0.1500 18.5000 78.0000
v 0.1500 18.5000 78.0000
v 1.0000 18.1000 76.0000
v -7.6000 14.0000 34.0000
v -7.6000 14.0000 -8.0000
v 7.6000 14.0000 -8.0000
v 7.6000 14.0000 34.0000
v -6.2000 23.0000 31.0000
v -6.2000 23.0000 -7.0000
v 6.2000 23.0000 -7.0000
v 6.2000 23.0000 31.0000
v -6.2000 23.0000 31.0000
v -6.2000 23.0000 14.0000
v 6.2000 23.0000 14.0000
v 6.2000 23.0000 31.0000
v -5.3000 28.2000 29.0000
v -5.3000 28.2000 15.0000
v 5.3000 28.2000 15.0000
v 5.3000 28.2000 29.0000
v -4.7000 25.3500 29.1000
v -4.7000 27.0500 29.1000
v 4.7000 25.3500 29.1000
v 4.7000 27.0500 29.1000
v -4.7000 25.3500 29.7000
v -4.7000 27.0500 29.7000
v 4.7000 25.3500 29.7000
v 4.7000 27.0500 29.7000
v 4.8000 25.3500 24.0000
v 4.8000 27.0500 24.0000
v 5.4000 25.3500 24.0000
v 5.4000 27.0500 24.0000
v 4.8000 25.3500 29.0000
v 4.8000 27.0500 29.0000
v 5.4000 25.3500 29.0000
v 5.4000 27.0500 29.0000
v 6.0000 23.7000 15.5000
v 6.0000 26.3000 15.5000
v 7.2000 23.7000 15.5000
v 7.2000 26.3000 15.5000
v 6.0000 23.7000 28.5000
v 6.0000 26.3000 28.5000
v 7.2000 23.7000 28.5000
v 7.2000 26.3000 28.5000
v -5.4000 25.3500 24.0000
v -5.4000 27.0500 24.0000
v -4.8000 25.3500 24.0000
v -4.8000 27.0500 24.0000
v -5.4000 25.3500 29.0000
v -5.4000 27.0500 29.0000
v -4.8000 25.3500 29.0000
v -4.8000 27.0500 29.0000
v -7.2000 23.7000 15.5000
v -7.2000 26.3000 15.5000
v -6.0000 23.7000 15.5000
v -6.0000 26.3000 15.5000
v -7.2000 23.7000 28.5000
v -7.2000 26.3000 28.5000
v -6.0000 23.7000 28.5000
v -6.0000 26.3000 28.5000
v -5.0000 23.0000 6.0000
v -5.0000 23.0000 -6.0000
v 6.5570 19.7261 31.8167
v 6.7557 19.8384 32.1451
v 5.8961 18.1088 32.7692
v 6.0948 18.2210 33.0977
v 4.3006 17.6835 33.8799
v 4.4994 17.7958 34.2083
v 2.7052 18.6995 34.4981
v 2.9039 18.8118 34.8265
v 2.0443 20.5616 34.2616
v 2.2430 20.6739 34.5901
v 2.7052 22.1790 33.3091
v 2.9039 22.2912 33.6376
v 4.3006 22.6042 32.1984
v 4.4994 22.7164 32.5269
v 5.8961 21.5882 31.5803
v 6.0948 21.7005 31.9087
v 5.8656 19.8094 32.0604
v 6.1836 19.9890 32.5860
v 5.3897 18.6449 32.7462
v 5.7077 18.8245 33.2718
v 4.2410 18.3388 33.5459
v 4.5590 18.5184 34.0715
v 3.0923 19.0703 33.9910
v 3.4103 19.2499 34.5166
v 2.6164 20.4110 33.8208
v 2.9344 20.5906 34.3464
v 3.0923 21.5755 33.1350
v 3.4103 21.7551 33.6605
v 4.2410 21.8816 32.3353
v 4.5590 22.0612 32.8609
v 5.3897 21.1501 31.8902
v 5.7077 21.3297 32.4158
v -2.0443 20.5616 34.2616
v -2.2430 20.6739 34.5901
v -2.7052 18.6995 34.4981
v -2.9039 18.8118 34.8265
v -4.3006 17.6835 33.8799
v -4.4994 17.7958 34.2083
v -5.8961 18.1088 32.7692
v -6.0948 18.2210 33.0977
v -6.5570 19.7261 31.8167
v -6.7557 19.8384 32.1451
v -5.8961 21.5882 31.5803
v -6.0948 21.7005 31.9087
v -4.3006 22.6042 32.1984
v -4.4994 22.7164 32.5269
v -2.7052 22.1790 33.3091
v -2.9039 22.2912 33.6376
v -2.6164 20.4110 33.8208
v -2.9344 20.5906 34.3464
v -3.0923 19.0703 33.9910
v -3.4103 19.2499 34.5166
v -4.2410 18.3388 33.5459
v -4.5590 18.5184 34.0715
v -5.3897 18.6449 32.7462
v -5.7077 18.8245 33.2718
v -5.8656 19.8094 32.0604
v -6.1836 19.9890 32.5860
v -5.3897 21.1501 31.8902
v -5.7077 21.3297 32.4158
v -4.2410 21.8816 32.3353
v -4.5590 22.0612 32.8609
v -3.0923 21.5755 33.1350
v -3.4103 21.7551 33.6605
v 2.2443 19.2000 -9.4183
v 2.4430 19.2000 -9.7655
v 2.9052 17.3615 -9.0399
v 3.1039 17.3615 -9.3871
v 4.5006 16.6000 -8.1264
v 4.6994 16.6000 -8.4736
v 6.0961 17.3615 -7.2129
v 6.2948 17.3615 -7.5601
v 6.7570 19.2000 -6.8345
v 6.9557 19.2000 -7.1817
v 6.0961 21.0385 -7.2129
v 6.2948 21.0385 -7.5601
v 4.5006 21.8000 -8.1264
v 4.6994 21.8000 -8.4736
v 2.9052 21.0385 -9.0399
v 3.1039 21.0385 -9.3871
v 2.8164 19.2000 -8.9525
v 3.1344 19.2000 -9.5079
v 3.2923 17.8763 -8.6800
v 3.6103 17.8763 -9.2354
v 4.4410 17.3280 -8.0223
v 4.7590 17.3280 -8.5777
v 5.5897 17.8763 -7.3646
v 5.9077 17.8763 -7.9200
v 6.0656 19.2000 -7.0921
v 6.3836 19.2000 -7.6475
v 5.5897 20.5237 -7.3646
v 5.9077 20.5237 -7.9200
v 4.4410 21.0720 -8.0223
v 4.7590 21.0720 -8.5777
v 3.2923 20.5237 -8.6800
v 3.6103 20.5237 -9.2354
v -6.7570 19.2000 -6.8345
v -6.9557 19.2000 -7.1817
v -6.0961 17.3615 -7.2129
v -6.2948 17.3615 -7.5601
v -4.5006 16.6000 -8.1264
v -4.6994 16.6000 -8.4736
v -2.9052 17.3615 -9.0399
v -3.1039 17.3615 -9.3871
v -2.2443 19.2000 -9.4183
v -2.4430 19.2000 -9.7655
v -2.9052 21.0385 -9.0399
v -3.1039 21.0385 -9.3871
v -4.5006 21.8000 -8.1264
v -4.6994 21.8000 -8.4736
v -6.0961 21.0385 -7.2129
v -6.2948 21.0385 -7.5601
v -6.0656 19.2000 -7.0921
v -6.3836 19.2000 -7.6475
v -5.5897 17.8763 -7.3646
v -5.9077 17.8763 -7.9200
v -4.4410 17.3280 -8.0223
v -4.7590 17.3280 -8.5777
v -3.2923 17.8763 -8.6800
v -3.6103 17.8763 -9.2354
v -2.8164 19.2000 -8.9525
v -3.1344 19.2000 -9.5079
v -3.2923 20.5237 -8.6800
v -3.6103 20.5237 -9.2354
v -4.4410 21.0720 -8.0223
v -4.7590 21.0720 -8.5777
v -5.5897 20.5237 -7.3646
v -5.9077 20.5237 -7.9200
v 5.0000 23.0000 -6.0000
v 5.0000 23.0000 6.0000
v -3.6000 30.5000 3.0000
v -3.6000 30.5000 -7.0000
v 3.6000 30.5000 -7.0000
v 3.6000 30.5000 3.0000
v -4.6000 21.5000 -24.0000
v -4.6000 21.5000 -34.0000
v 4.6000 21.5000 -34.0000
v 4.6000 21.5000 -24.0000
v -3.4000 28.5000 -27.0000
v -3.4000 28.5000 -35.0000
v 3.4000 28.5000 -35.0000
v 3.4000 28.5000 -27.0000
v -2.4000 28.2000 24.9907
v -2.4000 28.2000 14.9907
v 2.9500 30.2000 -2.0000
v 2.9500 31.8000 -2.0000
v 2.6132 30.2000 -1.1868
v 2.6132 31.8000 -1.1868
v 1.8000 30.2000 -0.8500
v 1.8000 31.8000 -0.8500
v 0.9868 30.2000 -1.1868
v 0.9868 31.8000 -1.1868
v 0.6500 30.2000 -2.0000
v 0.6500 31.8000 -2.0000
v 0.9868 30.2000 -2.8132
v 0.9868 31.8000 -2.8132
v 1.8000 30.2000 -3.1500
v 1.8000 31.8000 -3.1500
v 2.6132 30.2000 -2.8132
v 2.6132 31.8000 -2.8132
v 2.7500 28.2000 -31.0000
v 2.7500 29.8000 -31.0000
v 2.4425 28.2000 -30.2575
v 2.4425 29.8000 -30.2575
v 1.7000 28.2000 -29.9500
v 1.7000 29.8000 -29.9500
v 0.9575 28.2000 -30.2575
v 0.9575 29.8000 -30.2575
v 0.6500 28.2000 -31.0000
v 0.6500 29.8000 -31.0000
v 0.9575 28.2000 -31.7425
v 0.9575 29.8000 -31.7425
v 1.7000 28.2000 -32.0500
v 1.7000 29.8000 -32.0500
v 2.4425 28.2000 -31.7425
v 2.4425 29.8000 -31.7425
v -0.6500 30.2000 -2.0000
v -0.6500 31.8000 -2.0000
v -0.9868 30.2000 -1.1868
v -0.9868 31.8000 -1.1868
v -1.8000 30.2000 -0.8500
v -1.8000 31.8000 -0.8500
v -2.6132 30.2000 -1.1868
v -2.6132 31.8000 -1.1868
v -2.9500 30.2000 -2.0000
v -2.9500 31.8000 -2.0000
v -2.6132 30.2000 -2.8132
v -2.6132 31.8000 -2.8132
v -1.8000 30.2000 -3.1500
v -1.8000 31.8000 -3.1500
v -0.9868 30.2000 -2.8132
v -0.9868 31.8000 -2.8132
v -0.6500 28.2000 -31.0000
v -0.6500 29.8000 -31.0000
v -0.9575 28.2000 -30.2575
v -0.9575 29.8000 -30.2575
v -1.7000 28.2000 -29.9500
v -1.7000 29.8000 -29.9500
v -2.4425 28.2000 -30.2575
v -2.4425 29.8000 -30.2575
v -2.7500 28.2000 -31.0000
v -2.7500 29.8000 -31.0000
v -2.4425 28.2000 -31.7425
v -2.4425 29.8000 -31.7425
v -1.7000 28.2000 -32.0500
v -1.7000 29.8000 -32.0500
v -0.9575 28.2000 -31.7425
v -0.9575 29.8000 -31.7425
v 2.4000 28.2000 14.9907
v 2.4000 28.2000 24.9907
v -1.1000 42.0000 23.4907
v -1.1000 42.0000 17.4907
v 1.1000 42.0000 17.4907
v 1.1000 42.0000 23.4907
v -7.5000 37.1500 20.5407
v -7.5000 37.8500 20.5407
v 7.5000 37.1500 20.5407
v 7.5000 37.8500 20.5407
v -7.5000 37.1500 21.4407
v -7.5000 37.8500 21.4407
v 7.5000 37.1500 21.4407
v 7.5000 37.8500 21.4407
v -3.1000 44.4943 19.8197
v -3.1000 42.5266 20.1778
v 0.3500 41.9000 20.4907
v 0.3500 48.9000 20.4907
v 0.1750 41.9000 20.7938
v 0.1750 48.9000 20.7938
v -0.1750 41.9000 20.7938
v -0.1750 48.9000 20.7938
v -0.3500 41.9000 20.4907
v -0.3500 48.9000 20.4907
v -0.1750 41.9000 20.1876
v -0.1750 48.9000 20.1876
v 0.1750 41.9000 20.1876
v 0.1750 48.9000 20.1876
v 3.1000 42.5266 20.1778
v 3.1000 44.4943 19.8197
v -3.1000 42.7057 21.1616
v -3.1000 44.6734 20.8036
v 3.1000 42.7057 21.1616
v 3.1000 44.6734 20.8036
v 4.4000 27.7000 -4.9885
v -3.8380 26.6500 -3.2588
v -4.4000 27.7000 -4.9885
v -4.0755 27.4187 -3.9898
v -3.5505 27.4187 -4.3713
v -0.5871 28.0203 25.0396
v 4.4000 23.5000 -4.9885
v -2.9287 26.6500 -3.9195
v 5.2495 27.4187 -4.3713
v 5.8713 26.6500 -3.9195
v 6.0989 25.6000 -3.7541
v 5.8713 24.5500 -3.9195
v 5.2495 23.7813 -4.3713
v -2.7011 25.6000 -3.7541
v -2.9287 24.5500 -3.9195
v 4.7245 27.4187 -3.9898
v 4.9620 26.6500 -3.2588
v 5.0489 25.6000 -2.9912
v 4.9620 24.5500 -3.2588
v 4.7245 23.7813 -3.9898
v -3.5505 23.7813 -4.3713
v -4.4000 23.5000 -4.9885
v 4.0755 27.4187 -3.9898
v 3.8380 26.6500 -3.2588
v 3.7511 25.6000 -2.9912
v 3.8380 24.5500 -3.2588
v 4.0755 23.7813 -3.9898
v -1.5371 28.7203 25.7298
v -1.5371 28.0203 25.7298
v 3.5505 27.4187 -4.3713
v 2.9287 26.6500 -3.9195
v 2.7011 25.6000 -3.7541
v 2.9287 24.5500 -3.9195
v 3.5505 23.7813 -4.3713
v -1.9000 28.7203 26.8466
v -1.9000 28.0203 26.8466
v 3.3500 27.4187 -4.9885
v 2.5813 26.6500 -4.9885
v 2.3000 25.6000 -4.9885
v 2.5813 24.5500 -4.9885
v 3.3500 23.7813 -4.9885
v -1.5371 28.7203 27.9634
v 6.4000 36.5000 -3.1200
v 3.5505 27.4187 -5.6056
v 2.9287 26.6500 -6.0574
v 2.7011 25.6000 -6.2228
v 2.9287 24.5500 -6.0574
v 3.5505 23.7813 -5.6056
v 6.4000 27.5000 -3.1200
v 6.2800 36.5000 -3.0000
v 4.0755 27.4187 -5.9871
v 3.8380 26.6500 -6.7181
v 3.7511 25.6000 -6.9857
v 3.8380 24.5500 -6.7181
v 4.0755 23.7813 -5.9871
v 6.2800 27.5000 -3.0000
v 6.4000 36.5000 -2.8800
v 4.7245 27.4187 -5.9871
v 4.9620 26.6500 -6.7181
v 5.0489 25.6000 -6.9857
v 4.9620 24.5500 -6.7181
v 4.7245 23.7813 -5.9871
v 6.4000 27.5000 -2.8800
v 6.5200 36.5000 -3.0000
v 5.2495 27.4187 -5.6056
v 5.8713 26.6500 -6.0574
v 6.0989 25.6000 -6.2228
v 5.8713 24.5500 -6.0574
v 5.2495 23.7813 -5.6056
v 6.5200 27.5000 -3.0000
v -1.5371 28.0203 27.9634
v 5.4500 27.4187 -4.9885
v 6.2187 26.6500 -4.9885
v 6.5000 25.6000 -4.9885
v 6.2187 24.5500 -4.9885
v 5.4500 23.7813 -4.9885
v -0.5871 28.7203 28.6536
v -3.7511 25.6000 -2.9912
v -3.8380 24.5500 -3.2588
v -4.0755 23.7813 -3.9898
v -0.5871 28.0203 28.6536
v -4.9620 26.6500 -3.2588
v 0.5871 28.7203 28.6536
v -4.7245 27.4187 -3.9898
v -5.0489 25.6000 -2.9912
v -4.9620 24.5500 -3.2588
v -4.7245 23.7813 -3.9898
v 0.5871 28.0203 28.6536
v -5.8713 26.6500 -3.9195
v 1.5371 28.7203 27.9634
v -5.2495 27.4187 -4.3713
v -6.0989 25.6000 -3.7541
v -5.8713 24.5500 -3.9195
v -5.2495 23.7813 -4.3713
v 1.5371 28.0203 27.9634
v -6.2187 26.6500 -4.9885
v 1.9000 28.7203 26.8466
v -5.4500 27.4187 -4.9885
v -6.5000 25.6000 -4.9885
v -6.2187 24.5500 -4.9885
v -5.4500 23.7813 -4.9885
v 1.9000 28.0203 26.8466
v -5.8713 26.6500 -6.0574
v -6.4000 36.5000 -3.1200
v -5.2495 27.4187 -5.6056
v -6.0989 25.6000 -6.2228
v -5.8713 24.5500 -6.0574
v -5.2495 23.7813 -5.6056
v -6.4000 27.5000 -3.1200
v -4.9620 26.6500 -6.7181
v -6.5200 36.5000 -3.0000
v -4.7245 27.4187 -5.9871
v -5.0489 25.6000 -6.9857
v -4.9620 24.5500 -6.7181
v -4.7245 23.7813 -5.9871
v -6.5200 27.5000 -3.0000
v -3.8380 26.6500 -6.7181
v -6.4000 36.5000 -2.8800
v -4.0755 27.4187 -5.9871
v -3.7511 25.6000 -6.9857
v -3.8380 24.5500 -6.7181
v -4.0755 23.7813 -5.9871
v -6.4000 27.5000 -2.8800
v -2.9287 26.6500 -6.0574
v -6.2800 36.5000 -3.0000
v -3.5505 27.4187 -5.6056
v -2.7011 25.6000 -6.2228
v -2.9287 24.5500 -6.0574
v -3.5505 23.7813 -5.6056
v -6.2800 27.5000 -3.0000
v -2.5813 26.6500 -4.9885
v -7.7000 13.8500 -77.0000
v -3.3500 27.4187 -4.9885
v -2.3000 25.6000 -4.9885
v -2.5813 24.5500 -4.9885
v -3.3500 23.7813 -4.9885
v 0.0000 30.7903 26.8466
v -0.5871 28.7203 25.0396
v 0.5871 28.0203 25.0396
v 0.5871 28.7203 25.0396
v 1.5371 28.0203 25.7298
v 1.5371 28.7203 25.7298
v -0.8000 19.8000 -49.9500
v -0.8000 14.2000 -49.9500
v 1.5371 30.2500 -31.1168
v 1.5371 29.5500 -31.1168
v 0.0000 27.7503 26.8466
v 0.7686 30.5866 27.4050
v 0.5871 30.2500 -31.8070
v 1.3312 30.0303 27.8138
v 1.5371 29.2703 27.9634
v 1.3312 28.5103 27.8138
v 0.7686 27.9539 27.4050
v 0.5871 29.5500 -31.8070
v 0.2936 30.5866 27.7501
v -0.5871 30.2500 -31.8070
v 0.5085 30.0303 28.4115
v 0.5871 29.2703 28.6536
v 0.5085 28.5103 28.4115
v 0.2936 27.9539 27.7501
v -0.5871 29.5500 -31.8070
v -0.2936 30.5866 27.7501
v -1.5371 30.2500 -31.1168
v -0.5085 30.0303 28.4115
v -0.5871 29.2703 28.6536
v -0.5085 28.5103 28.4115
v -0.2936 27.9539 27.7501
v -1.5371 29.5500 -31.1168
v -0.7686 30.5866 27.4050
v -1.9000 30.2500 -30.0000
v -1.3312 30.0303 27.8138
v -1.5371 29.2703 27.9634
v -1.3312 28.5103 27.8138
v -0.7686 27.9539 27.4050
v -1.9000 29.5500 -30.0000
v -0.9500 30.5866 26.8466
v -1.5371 30.2500 -28.8832
v -1.6454 30.0303 26.8466
v -1.9000 29.2703 26.8466
v -1.6454 28.5103 26.8466
v -0.9500 27.9539 26.8466
v -1.5371 29.5500 -28.8832
v -0.7686 30.5866 26.2882
v -0.5871 30.2500 -28.1930
v -1.3312 30.0303 25.8794
v -1.5371 29.2703 25.7298
v -1.3312 28.5103 25.8794
v -0.7686 27.9539 26.2882
v -0.5871 29.5500 -28.1930
v -0.2936 30.5866 25.9431
v 0.5871 30.2500 -28.1930
v -0.5085 30.0303 25.2817
v -0.5871 29.2703 25.0396
v -0.5085 28.5103 25.2817
v -0.2936 27.9539 25.9431
v 0.5871 29.5500 -28.1930
v 0.2936 30.5866 25.9431
v 1.5371 30.2500 -28.8832
v 0.5085 30.0303 25.2817
v 0.5871 29.2703 25.0396
v 0.5085 28.5103 25.2817
v 0.2936 27.9539 25.9431
v 1.5371 29.5500 -28.8832
v 0.7686 30.5866 26.2882
v 1.9000 30.2500 -30.0000
v 1.3312 30.0303 25.8794
v 1.5371 29.2703 25.7298
v 1.3312 28.5103 25.8794
v 0.7686 27.9539 26.2882
v 1.9000 29.5500 -30.0000
v 0.9500 30.5866 26.8466
v 0.0000 32.3200 -30.0000
v 1.6454 30.0303 26.8466
v 1.9000 29.2703 26.8466
v 1.6454 28.5103 26.8466
v 0.9500 27.9539 26.8466
v -5.2000 19.8000 -49.9500
v -5.2000 14.2000 -49.9500
v 0.0000 29.2800 -30.0000
v 1.3312 30.0400 -29.0328
v 1.5371 30.8000 -28.8832
v 1.3312 31.5600 -29.0328
v -0.8000 19.8000 -50.4500
v 0.7686 32.1164 -29.4416
v 0.7686 29.4836 -29.4416
v -0.8000 14.2000 -50.4500
v 0.5085 30.0400 -28.4351
v 0.5871 30.8000 -28.1930
v 0.5085 31.5600 -28.4351
v -5.2000 19.8000 -50.4500
v 0.2936 32.1164 -29.0965
v 0.2936 29.4836 -29.0965
v -5.2000 14.2000 -50.4500
v -0.5085 30.0400 -28.4351
v -0.5871 30.8000 -28.1930
v -0.5085 31.5600 -28.4351
v 5.2000 19.8000 -49.9500
v -0.2936 32.1164 -29.0965
v -0.2936 29.4836 -29.0965
v 5.2000 14.2000 -49.9500
v -1.3312 30.0400 -29.0328
v -1.5371 30.8000 -28.8832
v -1.3312 31.5600 -29.0328
v 0.8000 19.8000 -49.9500
v -0.7686 32.1164 -29.4416
v -0.7686 29.4836 -29.4416
v 0.8000 14.2000 -49.9500
v -1.6454 30.0400 -30.0000
v -1.9000 30.8000 -30.0000
v -1.6454 31.5600 -30.0000
v 5.2000 19.8000 -50.4500
v -0.9500 32.1164 -30.0000
v -0.9500 29.4836 -30.0000
v 5.2000 14.2000 -50.4500
v -1.3312 30.0400 -30.9672
v -1.5371 30.8000 -31.1168
v -1.3312 31.5600 -30.9672
v 0.8000 19.8000 -50.4500
v -0.7686 32.1164 -30.5584
v -0.7686 29.4836 -30.5584
v 0.8000 14.2000 -50.4500
v -0.5085 30.0400 -31.5649
v -0.5871 30.8000 -31.8070
v -0.5085 31.5600 -31.5649
v 6.0000 21.5000 -21.0000
v -0.2936 32.1164 -30.9035
v -0.2936 29.4836 -30.9035
v 6.0000 21.5000 -49.0000
v 0.5085 30.0400 -31.5649
v 0.5871 30.8000 -31.8070
v 0.5085 31.5600 -31.5649
v -6.0000 21.5000 -49.0000
v 0.2936 32.1164 -30.9035
v 0.2936 29.4836 -30.9035
v -6.0000 21.5000 -21.0000
v 1.3312 30.0400 -30.9672
v 1.5371 30.8000 -31.1168
v 1.3312 31.5600 -30.9672
v 6.8000 14.0000 -20.0000
v 0.7686 32.1164 -30.5584
v 0.7686 29.4836 -30.5584
v 6.8000 14.0000 -50.0000
v 1.6454 30.0400 -30.0000
v 1.9000 30.8000 -30.0000
v 1.6454 31.5600 -30.0000
v -6.8000 14.0000 -50.0000
v 0.9500 32.1164 -30.0000
v 0.9500 29.4836 -30.0000
v -6.8000 14.0000 -20.0000
v -7.7000 14.3500 -77.0000
v 7.7000 13.8500 -77.0000
v 7.7000 14.3500 -77.0000
v -7.7000 13.8500 -51.0000
v -7.7000 14.3500 -51.0000
v 7.7000 13.8500 -51.0000
v 7.7000 14.3500 -51.0000
v -2.1000 15.9000 57.5000
v -2.1000 15.9000 46.5000
v 5.6000 14.3400 -64.0000
v 5.6000 14.5000 -64.0000
v 5.1737 14.3400 -61.8570
v 5.1737 14.5000 -61.8570
v 3.9598 14.3400 -60.0402
v 3.9598 14.5000 -60.0402
v 2.1430 14.3400 -58.8263
v 2.1430 14.5000 -58.8263
v 0.0000 14.3400 -58.4000
v 0.0000 14.5000 -58.4000
v -2.1430 14.3400 -58.8263
v -2.1430 14.5000 -58.8263
v -3.9598 14.3400 -60.0402
v -3.9598 14.5000 -60.0402
v -5.1737 14.3400 -61.8570
v -5.1737 14.5000 -61.8570
v -5.6000 14.3400 -64.0000
v -5.6000 14.5000 -64.0000
v -5.1737 14.3400 -66.1430
v -5.1737 14.5000 -66.1430
v -3.9598 14.3400 -67.9598
v -3.9598 14.5000 -67.9598
v -2.1430 14.3400 -69.1737
v -2.1430 14.5000 -69.1737
v 0.0000 14.3400 -69.6000
v 0.0000 14.5000 -69.6000
v 2.1430 14.3400 -69.1737
v 2.1430 14.5000 -69.1737
v 3.9598 14.3400 -67.9598
v 3.9598 14.5000 -67.9598
v 5.1737 14.3400 -66.1430
v 5.1737 14.5000 -66.1430
v 4.7000 14.3200 -64.0000
v 4.7000 14.5600 -64.0000
v 4.3422 14.3200 -62.2014
v 4.3422 14.5600 -62.2014
v 3.3234 14.3200 -60.6766
v 3.3234 14.5600 -60.6766
v 1.7986 14.3200 -59.6578
v 1.7986 14.5600 -59.6578
v 0.0000 14.3200 -59.3000
v 0.0000 14.5600 -59.3000
v -1.7986 14.3200 -59.6578
v -1.7986 14.5600 -59.6578
v -3.3234 14.3200 -60.6766
v -3.3234 14.5600 -60.6766
v -4.3422 14.3200 -62.2014
v -4.3422 14.5600 -62.2014
v -4.7000 14.3200 -64.0000
v -4.7000 14.5600 -64.0000
v -4.3422 14.3200 -65.7986
v -4.3422 14.5600 -65.7986
v -3.3234 14.3200 -67.3234
v -3.3234 14.5600 -67.3234
v -1.7986 14.3200 -68.3422
v -1.7986 14.5600 -68.3422
v 0.0000 14.3200 -68.7000
v 0.0000 14.5600 -68.7000
v 1.7986 14.3200 -68.3422
v 1.7986 14.5600 -68.3422
v 3.3234 14.3200 -67.3234
v 3.3234 14.5600 -67.3234
v 4.3422 14.3200 -65.7986
v 4.3422 14.5600 -65.7986
v 2.9000 14.4000 52.0000
v 2.9000 16.0000 52.0000
v 2.3461 14.4000 53.7046
v 2.3461 16.0000 53.7046
v 0.8961 14.4000 54.7581
v 0.8961 16.0000 54.7581
v -0.8961 14.4000 54.7581
v -0.8961 16.0000 54.7581
v -2.3461 14.4000 53.7046
v -2.3461 16.0000 53.7046
v -2.9000 14.4000 52.0000
v -2.9000 16.0000 52.0000
v -2.3461 14.4000 50.2954
v -2.3461 16.0000 50.2954
v -0.8961 14.4000 49.2419
v -0.8961 16.0000 49.2419
v 0.8961 14.4000 49.2419
v 0.8961 16.0000 49.2419
v 2.3461 14.4000 50.2954
v 2.3461 16.0000 50.2954
v 2.1000 15.9000 46.5000
v 2.1000 15.9000 57.5000
v -1.5000 18.8000 55.5000
v -1.5000 18.8000 47.5000
v 1.5000 18.8000 47.5000
v 1.5000 18.8000 55.5000
v -4.1000 15.0000 36.9000
v -4.1000 14.0000 36.9000
v 0.3000 17.5000 57.0000
v 0.3000 17.5000 64.2000
v 0.2427 17.3237 57.0000
v 0.2427 17.3237 64.2000
v 0.0927 17.2147 57.0000
v 0.0927 17.2147 64.2000
v -0.0927 17.2147 57.0000
v -0.0927 17.2147 64.2000
v -0.2427 17.3237 57.0000
v -0.2427 17.3237 64.2000
v -0.3000 17.5000 57.0000
v -0.3000 17.5000 64.2000
v -0.2427 17.6763 57.0000
v -0.2427 17.6763 64.2000
v -0.0927 17.7853 57.0000
v -0.0927 17.7853 64.2000
v 0.0927 17.7853 57.0000
v 0.0927 17.7853 64.2000
v 0.2427 17.6763 57.0000
v 0.2427 17.6763 64.2000
v 4.1000 14.0000 36.9000
v 4.1000 15.0000 36.9000
v -4.1000 14.0000 45.1000
v -4.1000 15.0000 45.1000
v 4.1000 14.0000 45.1000
v 4.1000 15.0000 45.1000
v -3.2130 15.0000 37.7870
v -3.2130 15.3000 37.7870
v -1.8870 15.0000 37.7870
v -1.8870 15.3000 37.7870
v -3.2130 15.0000 39.1130
v -3.2130 15.3000 39.1130
v -1.8870 15.0000 39.1130
v -1.8870 15.3000 39.1130
v -1.5130 15.0000 37.7870
v -1.5130 15.3000 37.7870
v -0.1870 15.0000 37.7870
v -0.1870 15.3000 37.7870
v -1.5130 15.0000 39.1130
v -1.5130 15.3000 39.1130
v -0.1870 15.0000 39.1130
v -0.1870 15.3000 39.1130
v 0.1870 15.0000 37.7870
v 0.1870 15.3000 37.7870
v 1.5130 15.0000 37.7870
v 1.5130 15.3000 37.7870
v 0.1870 15.0000 39.1130
v 0.1870 15.3000 39.1130
v 1.5130 15.0000 39.1130
v 1.5130 15.3000 39.1130
v 1.8870 15.0000 37.7870
v 1.8870 15.3000 37.7870
v 3.2130 15.0000 37.7870
v 3.2130 15.3000 37.7870
v 1.8870 15.0000 39.1130
v 1.8870 15.3000 39.1130
v 3.2130 15.0000 39.1130
v 3.2130 15.3000 39.1130
v -3.2130 15.0000 39.4870
v -3.2130 15.3000 39.4870
v -1.8870 15.0000 39.4870
v -1.8870 15.3000 39.4870
v -3.2130 15.0000 40.8130
v -3.2130 15.3000 40.8130
v -1.8870 15.0000 40.8130
v -1.8870 15.3000 40.8130
v -1.5130 15.0000 39.4870
v -1.5130 15.3000 39.4870
v -0.1870 15.0000 39.4870
v -0.1870 15.3000 39.4870
v -1.5130 15.0000 40.8130
v -1.5130 15.3000 40.8130
v -0.1870 15.0000 40.8130
v -0.1870 15.3000 40.8130
v 0.1870 15.0000 39.4870
v 0.1870 15.3000 39.4870
v 1.5130 15.0000 39.4870
v 1.5130 15.3000 39.4870
v 0.1870 15.0000 40.8130
v 0.1870 15.3000 40.8130
v 1.5130 15.0000 40.8130
v 1.5130 15.3000 40.8130
v 1.8870 15.0000 39.4870
v 1.8870 15.3000 39.4870
v 3.2130 15.0000 39.4870
v 3.2130 15.3000 39.4870
v 1.8870 15.0000 40.8130
v 1.8870 15.3000 40.8130
v 3.2130 15.0000 40.8130
v 3.2130 15.3000 40.8130
v -3.2130 15.0000 41.1870
v -3.2130 15.3000 41.1870
v -1.8870 15.0000 41.1870
v -1.8870 15.3000 41.1870
v -3.2130 15.0000 42.5130
v -3.2130 15.3000 42.5130
v -1.8870 15.0000 42.5130
v -1.8870 15.3000 42.5130
v -1.5130 15.0000 41.1870
v -1.5130 15.3000 41.1870
v -0.1870 15.0000 41.1870
v -0.1870 15.3000 41.1870
v -1.5130 15.0000 42.5130
v -1.5130 15.3000 42.5130
v -0.1870 15.0000 42.5130
v -0.1870 15.3000 42.5130
v 0.1870 15.0000 41.1870
v 0.1870 15.3000 41.1870
v 1.5130 15.0000 41.1870
v 1.5130 15.3000 41.1870
v 0.1870 15.0000 42.5130
v 0.1870 15.3000 42.5130
v 1.5130 15.0000 42.5130
v 1.5130 15.3000 42.5130
v 1.8870 15.0000 41.1870
v 1.8870 15.3000 41.1870
v 3.2130 15.0000 41.1870
v 3.2130 15.3000 41.1870
v 1.8870 15.0000 42.5130
v 1.8870 15.3000 42.5130
v 3.2130 15.0000 42.5130
v 3.2130 15.3000 42.5130
v -3.2130 15.0000 42.8870
v -3.2130 15.3000 42.8870
v -1.8870 15.0000 42.8870
v -1.8870 15.3000 42.8870
v -3.2130 15.0000 44.2130
v -3.2130 15.3000 44.2130
v -1.8870 15.0000 44.2130
v -1.8870 15.3000 44.2130
v -1.5130 15.0000 42.8870
v -1.5130 15.3000 42.8870
v -0.1870 15.0000 42.8870
v -0.1870 15.3000 42.8870
v -1.5130 15.0000 44.2130
v -1.5130 15.3000 44.2130
v -0.1870 15.0000 44.2130
v -0.1870 15.3000 44.2130
v 0.1870 15.0000 42.8870
v 0.1870 15.3000 42.8870
v 1.5130 15.0000 42.8870
v 1.5130 15.3000 42.8870
v 0.1870 15.0000 44.2130
v 0.1870 15.3000 44.2130
v 1.5130 15.0000 44.2130
v 1.5130 15.3000 44.2130
v 1.8870 15.0000 42.8870
v 1.8870 15.3000 42.8870
v 3.2130 15.0000 42.8870
v 3.2130 15.3000 42.8870
v 1.8870 15.0000 44.2130
v 1.8870 15.3000 44.2130
v 3.2130 15.0000 44.2130
v 3.2130 15.3000 44.2130
v -4.1000 13.6000 -53.5000
v -4.1000 14.6000 -53.5000
v 4.1000 13.6000 -53.5000
v 4.1000 14.6000 -53.5000
v -4.1000 13.6000 -38.5000
v -4.1000 14.6000 -38.5000
v 4.1000 13.6000 -38.5000
v 4.1000 14.6000 -38.5000
v -3.2130 14.6000 -52.6130
v -3.2130 14.9000 -52.6130
v -1.8870 14.6000 -52.6130
v -1.8870 14.9000 -52.6130
v -3.2130 14.6000 -51.2870
v -3.2130 14.9000 -51.2870
v -1.8870 14.6000 -51.2870
v -1.8870 14.9000 -51.2870
v -1.5130 14.6000 -52.6130
v -1.5130 14.9000 -52.6130
v -0.1870 14.6000 -52.6130
v -0.1870 14.9000 -52.6130
v -1.5130 14.6000 -51.2870
v -1.5130 14.9000 -51.2870
v -0.1870 14.6000 -51.2870
v -0.1870 14.9000 -51.2870
v 0.1870 14.6000 -52.6130
v 0.1870 14.9000 -52.6130
v 1.5130 14.6000 -52.6130
v 1.5130 14.9000 -52.6130
v 0.1870 14.6000 -51.2870
v 0.1870 14.9000 -51.2870
v 1.5130 14.6000 -51.2870
v 1.5130 14.9000 -51.2870
v 1.8870 14.6000 -52.6130
v 1.8870 14.9000 -52.6130
v 3.2130 14.6000 -52.6130
v 3.2130 14.9000 -52.6130
v 1.8870 14.6000 -51.2870
v 1.8870 14.9000 -51.2870
v 3.2130 14.6000 -51.2870
v 3.2130 14.9000 -51.2870
v -3.2130 14.6000 -50.9130
v -3.2130 14.9000 -50.9130
v -1.8870 14.6000 -50.9130
v -1.8870 14.9000 -50.9130
v -3.2130 14.6000 -49.5870
v -3.2130 14.9000 -49.5870
v -1.8870 14.6000 -49.5870
v -1.8870 14.9000 -49.5870
v -1.5130 14.6000 -50.9130
v -1.5130 14.9000 -50.9130
v -0.1870 14.6000 -50.9130
v -0.1870 14.9000 -50.9130
v -1.5130 14.6000 -49.5870
v -1.5130 14.9000 -49.5870
v -0.1870 14.6000 -49.5870
v -0.1870 14.9000 -49.5870
v 0.1870 14.6000 -50.9130
v 0.1870 14.9000 -50.9130
v 1.5130 14.6000 -50.9130
v 1.5130 14.9000 -50.9130
v 0.1870 14.6000 -49.5870
v 0.1870 14.9000 -49.5870
v 1.5130 14.6000 -49.5870
v 1.5130 14.9000 -49.5870
v 1.8870 14.6000 -50.9130
v 1.8870 14.9000 -50.9130
v 3.2130 14.6000 -50.9130
v 3.2130 14.9000 -50.9130
v 1.8870 14.6000 -49.5870
v 1.8870 14.9000 -49.5870
v 3.2130 14.6000 -49.5870
v 3.2130 14.9000 -49.5870
v -3.2130 14.6000 -49.2130
v -3.2130 14.9000 -49.2130
v -1.8870 14.6000 -49.2130
v -1.8870 14.9000 -49.2130
v -3.2130 14.6000 -47.8870
v -3.2130 14.9000 -47.8870
v -1.8870 14.6000 -47.8870
v -1.8870 14.9000 -47.8870
v -1.5130 14.6000 -49.2130
v -1.5130 14.9000 -49.2130
v -0.1870 14.6000 -49.2130
v -0.1870 14.9000 -49.2130
v -1.5130 14.6000 -47.8870
v -1.5130 14.9000 -47.8870
v -0.1870 14.6000 -47.8870
v -0.1870 14.9000 -47.8870
v 0.1870 14.6000 -49.2130
v 0.1870 14.9000 -49.2130
v 1.5130 14.6000 -49.2130
v 1.5130 14.9000 -49.2130
v 0.1870 14.6000 -47.8870
v 0.1870 14.9000 -47.8870
v 1.5130 14.6000 -47.8870
v 1.5130 14.9000 -47.8870
v 1.8870 14.6000 -49.2130
v 1.8870 14.9000 -49.2130
v 3.2130 14.6000 -49.2130
v 3.2130 14.9000 -49.2130
v 1.8870 14.6000 -47.8870
v 1.8870 14.9000 -47.8870
v 3.2130 14.6000 -47.8870
v 3.2130 14.9000 -47.8870
v -3.2130 14.6000 -47.5130
v -3.2130 14.9000 -47.5130
v -1.8870 14.6000 -47.5130
v -1.8870 14.9000 -47.5130
v -3.2130 14.6000 -46.1870
v -3.2130 14.9000 -46.1870
v -1.8870 14.6000 -46.1870
v -1.8870 14.9000 -46.1870
v -1.5130 14.6000 -47.5130
v -1.5130 14.9000 -47.5130
v -0.1870 14.6000 -47.5130
v -0.1870 14.9000 -47.5130
v -1.5130 14.6000 -46.1870
v -1.5130 14.9000 -46.1870
v -0.1870 14.6000 -46.1870
v -0.1870 14.9000 -46.1870
v 0.1870 14.6000 -47.5130
v 0.1870 14.9000 -47.5130
v 1.5130 14.6000 -47.5130
v 1.5130 14.9000 -47.5130
v 0.1870 14.6000 -46.1870
v 0.1870 14.9000 -46.1870
v 1.5130 14.6000 -46.1870
v 1.5130 14.9000 -46.1870
v 1.8870 14.6000 -47.5130
v 1.8870 14.9000 -47.5130
v 3.2130 14.6000 -47.5130
v 3.2130 14.9000 -47.5130
v 1.8870 14.6000 -46.1870
v 1.8870 14.9000 -46.1870
v 3.2130 14.6000 -46.1870
v 3.2130 14.9000 -46.1870
v -3.2130 14.6000 -45.8130
v -3.2130 14.9000 -45.8130
v -1.8870 14.6000 -45.8130
v -1.8870 14.9000 -45.8130
v -3.2130 14.6000 -44.4870
v -3.2130 14.9000 -44.4870
v -1.8870 14.6000 -44.4870
v -1.8870 14.9000 -44.4870
v -1.5130 14.6000 -45.8130
v -1.5130 14.9000 -45.8130
v -0.1870 14.6000 -45.8130
v -0.1870 14.9000 -45.8130
v -1.5130 14.6000 -44.4870
v -1.5130 14.9000 -44.4870
v -0.1870 14.6000 -44.4870
v -0.1870 14.9000 -44.4870
v 0.1870 14.6000 -45.8130
v 0.1870 14.9000 -45.8130
v 1.5130 14.6000 -45.8130
v 1.5130 14.9000 -45.8130
v 0.1870 14.6000 -44.4870
v 0.1870 14.9000 -44.4870
v 1.5130 14.6000 -44.4870
v 1.5130 14.9000 -44.4870
v 1.8870 14.6000 -45.8130
v 1.8870 14.9000 -45.8130
v 3.2130 14.6000 -45.8130
v 3.2130 14.9000 -45.8130
v 1.8870 14.6000 -44.4870
v 1.8870 14.9000 -44.4870
v 3.2130 14.6000 -44.4870
v 3.2130 14.9000 -44.4870
v -3.2130 14.6000 -44.1130
v -3.2130 14.9000 -44.1130
v -1.8870 14.6000 -44.1130
v -1.8870 14.9000 -44.1130
v -3.2130 14.6000 -42.7870
v -3.2130 14.9000 -42.7870
v -1.8870 14.6000 -42.7870
v -1.8870 14.9000 -42.7870
v -1.5130 14.6000 -44.1130
v -1.5130 14.9000 -44.1130
v -0.1870 14.6000 -44.1130
v -0.1870 14.9000 -44.1130
v -1.5130 14.6000 -42.7870
v -1.5130 14.9000 -42.7870
v -0.1870 14.6000 -42.7870
v -0.1870 14.9000 -42.7870
v 0.1870 14.6000 -44.1130
v 0.1870 14.9000 -44.1130
v 1.5130 14.6000 -44.1130
v 1.5130 14.9000 -44.1130
v 0.1870 14.6000 -42.7870
v 0.1870 14.9000 -42.7870
v 1.5130 14.6000 -42.7870
v 1.5130 14.9000 -42.7870
v 1.8870 14.6000 -44.1130
v 1.8870 14.9000 -44.1130
v 3.2130 14.6000 -44.1130
v 3.2130 14.9000 -44.1130
v 1.8870 14.6000 -42.7870
v 1.8870 14.9000 -42.7870
v 3.2130 14.6000 -42.7870
v 3.2130 14.9000 -42.7870
v -3.2130 14.6000 -42.4130
v -3.2130 14.9000 -42.4130
v -1.8870 14.6000 -42.4130
v -1.8870 14.9000 -42.4130
v -3.2130 14.6000 -41.0870
v -3.2130 14.9000 -41.0870
v -1.8870 14.6000 -41.0870
v -1.8870 14.9000 -41.0870
v -1.5130 14.6000 -42.4130
v -1.5130 14.9000 -42.4130
v -0.1870 14.6000 -42.4130
v -0.1870 14.9000 -42.4130
v -1.5130 14.6000 -41.0870
v -1.5130 14.9000 -41.0870
v -0.1870 14.6000 -41.0870
v -0.1870 14.9000 -41.0870
v 0.1870 14.6000 -42.4130
v 0.1870 14.9000 -42.4130
v 1.5130 14.6000 -42.4130
v 1.5130 14.9000 -42.4130
v 0.1870 14.6000 -41.0870
v 0.1870 14.9000 -41.0870
v 1.5130 14.6000 -41.0870
v 1.5130 14.9000 -41.0870
v 1.8870 14.6000 -42.4130
v 1.8870 14.9000 -42.4130
v 3.2130 14.6000 -42.4130
v 3.2130 14.9000 -42.4130
v 1.8870 14.6000 -41.0870
v 1.8870 14.9000 -41.0870
v 3.2130 14.6000 -41.0870
v 3.2130 14.9000 -41.0870
v -3.2130 14.6000 -40.7130
v -3.2130 14.9000 -40.7130
v -1.8870 14.6000 -40.7130
v -1.8870 14.9000 -40.7130
v -3.2130 14.6000 -39.3870
v -3.2130 14.9000 -39.3870
v -1.8870 14.6000 -39.3870
v -1.8870 14.9000 -39.3870
v -1.5130 14.6000 -40.7130
v -1.5130 14.9000 -40.7130
v -0.1870 14.6000 -40.7130
v -0.1870 14.9000 -40.7130
v -1.5130 14.6000 -39.3870
v -1.5130 14.9000 -39.3870
v -0.1870 14.6000 -39.3870
v -0.1870 14.9000 -39.3870
v 0.1870 14.6000 -40.7130
v 0.1870 14.9000 -40.7130
v 1.5130 14.6000 -40.7130
v 1.5130 14.9000 -40.7130
v 0.1870 14.6000 -39.3870
v 0.1870 14.9000 -39.3870
v 1.5130 14.6000 -39.3870
v 1.5130 14.9000 -39.3870
v 1.8870 14.6000 -40.7130
v 1.8870 14.9000 -40.7130
v 3.2130 14.6000 -40.7130
v 3.2130 14.9000 -40.7130
v 1.8870 14.6000 -39.3870
v 1.8870 14.9000 -39.3870
v 3.2130 14.6000 -39.3870
v 3.2130 14.9000 -39.3870
v -0.3554 16.2874 37.4694
v 0.0000 25.3025 -30.0000
v 1.1500 22.0000 -30.0000
v 1.1500 23.1000 -30.0000
v 0.9304 22.0000 -29.3240
v 0.9304 23.1000 -29.3240
v 0.3554 22.0000 -28.9063
v 0.3554 23.1000 -28.9063
v -0.3554 22.0000 -28.9063
v -0.3554 23.1000 -28.9063
v -0.9304 22.0000 -29.3240
v -0.9304 23.1000 -29.3240
v -1.1500 22.0000 -30.0000
v -1.1500 23.1000 -30.0000
v -0.9304 22.0000 -30.6760
v -0.9304 23.1000 -30.6760
v -0.3554 22.0000 -31.0937
v -0.3554 23.1000 -31.0937
v 0.3554 22.0000 -31.0937
v 0.3554 23.1000 -31.0937
v 0.9304 22.0000 -30.6760
v 0.9304 23.1000 -30.6760
v 0.3554 17.3874 37.4694
v 0.3554 16.2874 37.4694
v 0.9304 17.3874 37.0517
v 0.9304 16.2874 37.0517
v 0.0000 22.1975 -30.0000
v 0.4652 25.0945 -29.6620
v 1.1500 17.3874 36.3757
v 0.8057 24.5263 -29.4146
v 0.9304 23.7500 -29.3240
v 0.8057 22.9737 -29.4146
v 0.4652 22.4055 -29.6620
v 1.1500 16.2874 36.3757
v 0.1777 25.0945 -29.4531
v -0.2970 24.1798 -31.7998
v 0.3078 24.5263 -29.0528
v 0.3554 23.7500 -28.9063
v 0.3078 22.9737 -29.0528
v 0.1777 22.4055 -29.4531
v -0.2970 23.0354 -29.8047
v -0.1777 25.0945 -29.4531
v -0.0000 24.2865 -31.7386
v -0.3078 24.5263 -29.0528
v -0.3554 23.7500 -28.9063
v -0.3078 22.9737 -29.0528
v -0.1777 22.4055 -29.4531
v 0.0000 23.1421 -29.7435
v -0.4652 25.0945 -29.6620
v 0.2970 24.1798 -31.7998
v -0.8057 24.5263 -29.4146
v -0.9304 23.7500 -29.3240
v -0.8057 22.9737 -29.4146
v -0.4652 22.4055 -29.6620
v 0.2970 23.0354 -29.8047
v -0.5750 25.0945 -30.0000
v 0.4200 23.9222 -31.9475
v -0.9959 24.5263 -30.0000
v -1.1500 23.7500 -30.0000
v -0.9959 22.9737 -30.0000
v -0.5750 22.4055 -30.0000
v 0.4200 22.7778 -29.9525
v -0.4652 25.0945 -30.3380
v 0.2970 23.6646 -32.0953
v -0.8057 24.5263 -30.5854
v -0.9304 23.7500 -30.6760
v -0.8057 22.9737 -30.5854
v -0.4652 22.4055 -30.3380
v 0.2970 22.5202 -30.1002
v -0.1777 25.0945 -30.5469
v -0.0000 23.5579 -32.1565
v -0.3078 24.5263 -30.9472
v -0.3554 23.7500 -31.0937
v -0.3078 22.9737 -30.9472
v -0.1777 22.4055 -30.5469
v 0.0000 22.4135 -30.1614
v 0.1777 25.0945 -30.5469
v -0.2970 23.6646 -32.0953
v 0.3078 24.5263 -30.9472
v 0.3554 23.7500 -31.0937
v 0.3078 22.9737 -30.9472
v 0.1777 22.4055 -30.5469
v -0.2970 22.5202 -30.1002
v 0.4652 25.0945 -30.3380
v -0.4200 23.9222 -31.9475
v 0.8057 24.5263 -30.5854
v 0.9304 23.7500 -30.6760
v 0.8057 22.9737 -30.5854
v 0.4652 22.4055 -30.3380
v -0.4200 22.7778 -29.9525
v 0.5750 25.0945 -30.0000
v 0.0000 19.5899 36.3757
v 0.9959 24.5263 -30.0000
v 1.1500 23.7500 -30.0000
v 0.9959 22.9737 -30.0000
v 0.5750 22.4055 -30.0000
v 5.8543 15.1029 -33.8619
v -0.3554 17.3874 37.4694
v -0.9304 16.2874 37.0517
v -0.9304 17.3874 37.0517
v -1.1500 16.2874 36.3757
v -1.1500 17.3874 36.3757
v -0.9304 16.2874 35.6998
v -0.9304 17.3874 35.6998
v -0.3554 16.2874 35.2820
v -0.3554 17.3874 35.2820
v 0.3554 16.2874 35.2820
v 0.3554 17.3874 35.2820
v 0.9304 16.2874 35.6998
v 0.9304 17.3874 35.6998
v 5.2000 20.2426 -37.2931
v 6.2646 15.1965 -33.8516
v 5.5328 20.1490 -37.5333
v 6.5974 15.1029 -34.0918
v 0.0000 16.4849 36.3757
v 5.5931 19.9230 -37.8833
v 0.4652 19.3819 36.7137
v 0.8057 18.8136 36.9611
v 0.9304 18.0374 37.0517
v 0.8057 17.2611 36.9611
v 0.4652 16.6929 36.7137
v 6.6577 14.8770 -34.4418
v 0.2970 18.4672 38.1755
v 0.1777 19.3819 36.9226
v 0.3078 18.8136 37.3229
v 0.3554 18.0374 37.4694
v 0.3078 17.2611 37.3229
v 0.1777 16.6929 36.9226
v 0.2970 17.3228 36.1804
v 0.0000 18.5739 38.1143
v -0.1777 19.3819 36.9226
v -0.3078 18.8136 37.3229
v -0.3554 18.0374 37.4694
v -0.3078 17.2611 37.3229
v -0.1777 16.6929 36.9226
v 0.0000 17.4295 36.1192
v -0.2970 18.4672 38.1755
v -0.4652 19.3819 36.7137
v -0.8057 18.8136 36.9611
v -0.9304 18.0374 37.0517
v -0.8057 17.2611 36.9611
v -0.4652 16.6929 36.7137
v -0.2970 17.3228 36.1804
v -0.4200 18.2096 38.3233
v -0.5750 19.3819 36.3757
v -0.9959 18.8136 36.3757
v -1.1500 18.0374 36.3757
v -0.9959 17.2611 36.3757
v -0.5750 16.6929 36.3757
v -0.4200 17.0652 36.3282
v -0.2970 17.9520 38.4710
v -0.4652 19.3819 36.0378
v -0.8057 18.8136 35.7903
v -0.9304 18.0374 35.6998
v -0.8057 17.2611 35.7903
v -0.4652 16.6929 36.0378
v -0.2970 16.8076 36.4760
v 0.0000 17.8453 38.5322
v -0.1777 19.3819 35.8289
v -0.3078 18.8136 35.4285
v -0.3554 18.0374 35.2820
v -0.3078 17.2611 35.4285
v -0.1777 16.6929 35.8289
v 0.0000 16.7009 36.5372
v 0.2970 17.9520 38.4710
v 0.1777 19.3819 35.8289
v 0.3078 18.8136 35.4285
v 0.3554 18.0374 35.2820
v 0.3078 17.2611 35.4285
v 0.1777 16.6929 35.8289
v 0.2970 16.8076 36.4760
v 0.4200 18.2096 38.3233
v 0.4652 19.3819 36.0378
v 0.8057 18.8136 35.7903
v 0.9304 18.0374 35.6998
v 0.8057 17.2611 35.7903
v 0.4652 16.6929 36.0378
v 0.4200 17.0652 36.3282
v 8.8000 16.2000 -13.7000
v 0.5750 19.3819 36.3757
v 0.9959 18.8136 36.3757
v 1.1500 18.0374 36.3757
v 0.9959 17.2611 36.3757
v 0.5750 16.6929 36.3757
v 8.8000 14.6000 -13.7000
v 4.7897 20.1490 -37.3034
v 5.6069 14.8770 -34.1167
v 4.5423 19.9230 -37.5582
v 5.6672 14.6510 -34.4667
v 4.6026 19.6971 -37.9082
v 6.0000 14.5574 -34.7069
v 4.9354 19.6035 -38.1484
v 6.4103 14.6510 -34.6966
v 5.3457 19.6971 -38.1381
v 6.6577 15.9770 -35.3418
v 5.5931 21.0230 -38.7833
v 6.5974 16.2029 -34.9918
v 5.5328 21.2490 -38.4333
v 6.2646 16.2965 -34.7516
v 5.2000 21.3426 -38.1931
v 5.8543 16.2029 -34.7619
v 4.7897 21.2490 -38.2034
v 5.6069 15.9770 -35.0167
v 4.5423 21.0230 -38.4582
v 5.6672 15.7510 -35.3667
v 4.6026 20.7971 -38.8082
v 6.0000 15.6574 -35.6069
v 4.9354 20.7035 -39.0484
v 6.4103 15.7510 -35.5966
v 5.3457 20.7971 -39.0381
v 7.9577 14.8770 -34.4418
v 6.8931 19.9230 -37.8833
v 7.8974 15.1029 -34.0918
v 6.8328 20.1490 -37.5333
v 7.5646 15.1965 -33.8516
v 6.5000 20.2426 -37.2931
v 7.1543 15.1029 -33.8619
v 6.0897 20.1490 -37.3034
v 6.9069 14.8770 -34.1167
v 5.8423 19.9230 -37.5582
v 6.9672 14.6510 -34.4667
v 5.9026 19.6971 -37.9082
v 7.3000 14.5574 -34.7069
v 6.2354 19.6035 -38.1484
v 7.7103 14.6510 -34.6966
v 6.6457 19.6971 -38.1381
v 7.9577 15.9770 -35.3418
v 6.8931 21.0230 -38.7833
v 7.8974 16.2029 -34.9918
v 6.8328 21.2490 -38.4333
v 7.5646 16.2965 -34.7516
v 6.5000 21.3426 -38.1931
v 7.1543 16.2029 -34.7619
v 6.0897 21.2490 -38.2034
v 6.9069 15.9770 -35.0167
v 5.8423 21.0230 -38.4582
v 6.9672 15.7510 -35.3667
v 5.9026 20.7971 -38.8082
v 7.3000 15.6574 -35.6069
v 6.2354 20.7035 -39.0484
v 7.7103 15.7510 -35.5966
v 6.6457 20.7971 -39.0381
v 10.4000 14.6000 -13.7000
v 10.4000 16.2000 -13.7000
v 8.8000 14.6000 -10.3000
v 8.8000 16.2000 -10.3000
v 10.4000 14.6000 -10.3000
v 10.4000 16.2000 -10.3000
v 6.7000 14.3000 -59.5000
v 6.7000 17.3000 -59.5000
v 9.3000 14.3000 -59.5000
v 9.3000 17.3000 -59.5000
v 6.7000 14.3000 -52.5000
v 6.7000 17.3000 -52.5000
v 9.3000 14.3000 -52.5000
v 9.3000 17.3000 -52.5000
v 9.2500 14.6000 9.0000
v 9.2500 15.8000 9.0000
v 9.5500 14.6000 9.0000
v 9.5500 15.8000 9.0000
v 9.2500 14.6000 31.0000
v 9.2500 15.8000 31.0000
v 9.5500 14.6000 31.0000
v 9.5500 15.8000 31.0000
v -10.4000 14.6000 -13.7000
v -10.4000 16.2000 -13.7000
v -5.6069 14.8770 -34.1167
v -4.5423 19.9230 -37.5582
v -5.8543 15.1029 -33.8619
v -4.7897 20.1490 -37.3034
v -6.2646 15.1965 -33.8516
v -5.2000 20.2426 -37.2931
v -6.5974 15.1029 -34.0918
v -5.5328 20.1490 -37.5333
v -6.6577 14.8770 -34.4418
v -5.5931 19.9230 -37.8833
v -6.4103 14.6510 -34.6966
v -5.3457 19.6971 -38.1381
v -6.0000 14.5574 -34.7069
v -4.9354 19.6035 -38.1484
v -5.6672 14.6510 -34.4667
v -4.6026 19.6971 -37.9082
v -5.6069 15.9770 -35.0167
v -4.5423 21.0230 -38.4582
v -5.8543 16.2029 -34.7619
v -4.7897 21.2490 -38.2034
v -6.2646 16.2965 -34.7516
v -5.2000 21.3426 -38.1931
v -6.5974 16.2029 -34.9918
v -5.5328 21.2490 -38.4333
v -6.6577 15.9770 -35.3418
v -5.5931 21.0230 -38.7833
v -6.4103 15.7510 -35.5966
v -5.3457 20.7971 -39.0381
v -6.0000 15.6574 -35.6069
v -4.9354 20.7035 -39.0484
v -5.6672 15.7510 -35.3667
v -4.6026 20.7971 -38.8082
v -6.9069 14.8770 -34.1167
v -5.8423 19.9230 -37.5582
v -7.1543 15.1029 -33.8619
v -6.0897 20.1490 -37.3034
v -7.5646 15.1965 -33.8516
v -6.5000 20.2426 -37.2931
v -7.8974 15.1029 -34.0918
v -6.8328 20.1490 -37.5333
v -7.9577 14.8770 -34.4418
v -6.8931 19.9230 -37.8833
v -7.7103 14.6510 -34.6966
v -6.6457 19.6971 -38.1381
v -7.3000 14.5574 -34.7069
v -6.2354 19.6035 -38.1484
v -6.9672 14.6510 -34.4667
v -5.9026 19.6971 -37.9082
v -6.9069 15.9770 -35.0167
v -5.8423 21.0230 -38.4582
v -7.1543 16.2029 -34.7619
v -6.0897 21.2490 -38.2034
v -7.5646 16.2965 -34.7516
v -6.5000 21.3426 -38.1931
v -7.8974 16.2029 -34.9918
v -6.8328 21.2490 -38.4333
v -7.9577 15.9770 -35.3418
v -6.8931 21.0230 -38.7833
v -7.7103 15.7510 -35.5966
v -6.6457 20.7971 -39.0381
v -7.3000 15.6574 -35.6069
v -6.2354 20.7035 -39.0484
v -6.9672 15.7510 -35.3667
v -5.9026 20.7971 -38.8082
v -8.8000 14.6000 -13.7000
v -8.8000 16.2000 -13.7000
v -10.4000 14.6000 -10.3000
v -10.4000 16.2000 -10.3000
v -8.8000 14.6000 -10.3000
v -8.8000 16.2000 -10.3000
v -9.3000 14.3000 -59.5000
v -9.3000 17.3000 -59.5000
v -6.7000 14.3000 -59.5000
v -6.7000 17.3000 -59.5000
v -9.3000 14.3000 -52.5000
v -9.3000 17.3000 -52.5000
v -6.7000 14.3000 -52.5000
v -6.7000 17.3000 -52.5000
v -9.5500 14.6000 9.0000
v -9.5500 15.8000 9.0000
v -9.2500 14.6000 9.0000
v -9.2500 15.8000 9.0000
v -9.5500 14.6000 31.0000
v -9.5500 15.8000 31.0000
v -9.2500 14.6000 31.0000
v -9.2500 15.8000 31.0000
v -1.5000 18.7000 67.0000
v -1.5000 17.7000 67.0000
v 2.4000 16.9000 64.0000
v 2.4000 18.3000 64.0000
v 1.9416 16.9000 65.4107
v 1.9416 18.3000 65.4107
v 0.7416 16.9000 66.2825
v 0.7416 18.3000 66.2825
v -0.7416 16.9000 66.2825
v -0.7416 18.3000 66.2825
v -1.9416 16.9000 65.4107
v -1.9416 18.3000 65.4107
v -2.4000 16.9000 64.0000
v -2.4000 18.3000 64.0000
v -1.9416 16.9000 62.5893
v -1.9416 18.3000 62.5893
v -0.7416 16.9000 61.7175
v -0.7416 18.3000 61.7175
v 0.7416 16.9000 61.7175
v 0.7416 18.3000 61.7175
v 1.9416 16.9000 62.5893
v 1.9416 18.3000 62.5893
v 1.5000 17.7000 67.0000
v 1.5000 18.7000 67.0000
v -1.5000 17.7000 73.0000
v -1.5000 18.7000 73.0000
v 1.5000 17.7000 73.0000
v 1.5000 18.7000 73.0000
v 0.0000 14.0000 -11.0900
v 0.0000 23.0000 -10.0900
v -6.9000 18.5000 -7.5000
v 6.9000 18.5000 -7.5000
v 0.0000 18.5000 -10.5900
v 0.0000 14.0000 36.8240
v 0.0000 23.0000 33.8240
v -6.9000 18.5000 32.5000
v 6.9000 18.5000 32.5000
v 0.0000 18.5000 35.3240
v -3.8000 14.0000 35.7484
v 3.1000 23.0000 32.7484
v -6.5500 20.7500 31.7500
v 7.2500 16.2500 33.2500
v 3.8000 14.0000 35.7484
v -3.1000 23.0000 32.7484
v -7.2500 16.2500 33.2500
v 6.5500 20.7500 31.7500
v -3.4500 18.5000 34.2484
v 3.4500 18.5000 34.2484
v 0.0000 16.2500 36.0740
v 0.0000 20.7500 34.5740
v 3.2750 20.7500 33.4984
v 3.6250 16.2500 34.9984
v -3.6250 16.2500 34.9984
v -3.2750 20.7500 33.4984
v 1.9000 14.0000 36.6226
v -1.5500 23.0000 33.6226
v 1.7250 18.5000 35.1226
v 0.0000 15.1250 36.4490
v 0.0000 19.6250 34.9490
v -1.9000 14.0000 36.6226
v 1.5500 23.0000 33.6226
v -1.7250 18.5000 35.1226
v 0.0000 17.3750 35.6990
v 0.0000 21.8750 34.1990
v 1.6375 20.7500 34.3726
v 3.3625 19.6250 33.8734
v 3.1875 21.8750 33.1234
v 1.8125 16.2500 35.8726
v 3.7125 15.1250 35.3734
v 3.5375 17.3750 34.6234
v -1.8125 16.2500 35.8726
v -3.7125 15.1250 35.3734
v -3.5375 17.3750 34.6234
v -1.6375 20.7500 34.3726
v -3.3625 19.6250 33.8734
v -3.1875 21.8750 33.1234
v -1.5938 21.8750 33.9976
v -1.6812 19.6250 34.7476
v -1.7687 17.3750 35.4976
v -1.8563 15.1250 36.2476
v 1.8563 15.1250 36.2476
v 1.6812 19.6250 34.7476
v 1.5938 21.8750 33.9976
v 1.7687 17.3750 35.4976
usemtl Mat0
f 1 3 2
f 5 7 8
f 1 6 5
f 3 6 2
f 4 7 3
f 1 8 4
f 20 18 17
f 21 23 24
f 17 22 21
f 19 22 18
f 20 23 19
f 17 24 20
f 36 34 33
f 37 39 40
f 34 37 33
f 35 38 34
f 36 39 35
f 33 40 36
f 49 51 50
f 53 55 56
f 50 53 49
f 51 54 50
f 51 56 55
f 49 56 52
f 68 66 65
f 69 71 72
f 66 69 65
f 67 70 66
f 67 72 71
f 65 72 68
f 84 82 81
f 85 87 88
f 82 85 81
f 83 86 82
f 83 88 87
f 81 88 84
f 100 98 97
f 101 103 104
f 98 101 97
f 99 102 98
f 99 104 103
f 97 104 100
f 114 116 113
f 119 117 120
f 113 118 114
f 118 115 114
f 115 120 116
f 120 113 116
f 1 4 3
f 5 6 7
f 1 2 6
f 3 7 6
f 4 8 7
f 1 5 8
f 20 19 18
f 21 22 23
f 17 18 22
f 19 23 22
f 20 24 23
f 17 21 24
f 36 35 34
f 37 38 39
f 34 38 37
f 35 39 38
f 36 40 39
f 33 37 40
f 49 52 51
f 53 54 55
f 50 54 53
f 51 55 54
f 51 52 56
f 49 53 56
f 68 67 66
f 69 70 71
f 66 70 69
f 67 71 70
f 67 68 72
f 65 69 72
f 84 83 82
f 85 86 87
f 82 86 85
f 83 87 86
f 83 84 88
f 81 85 88
f 100 99 98
f 101 102 103
f 98 102 101
f 99 103 102
f 99 100 104
f 97 101 104
f 114 115 116
f 119 118 117
f 113 117 118
f 118 119 115
f 115 119 120
f 120 117 113
usemtl Mat1
f 12 10 9
f 13 15 16
f 10 13 9
f 11 14 10
f 12 15 11
f 9 16 12
f 28 26 25
f 29 31 32
f 26 29 25
f 27 30 26
f 27 32 31
f 25 32 28
f 44 42 41
f 45 47 48
f 42 45 41
f 43 46 42
f 43 48 47
f 41 48 44
f 60 58 57
f 61 63 64
f 58 61 57
f 59 62 58
f 59 64 63
f 57 64 60
f 76 74 73
f 77 79 80
f 74 77 73
f 75 78 74
f 75 80 79
f 73 80 76
f 92 90 89
f 93 95 96
f 90 93 89
f 91 94 90
f 91 96 95
f 89 96 92
f 108 106 105
f 109 111 112
f 106 109 105
f 107 110 106
f 107 112 111
f 105 112 108
f 124 122 121
f 125 127 128
f 122 125 121
f 123 126 122
f 123 128 127
f 121 128 124
f 132 130 129
f 133 135 136
f 130 133 129
f 131 134 130
f 131 136 135
f 129 136 132
f 694 690 697
f 687 676 690
f 673 683 676
f 680 697 683
f 676 697 690
f 687 680 673
f 666 662 669
f 659 580 662
f 579 654 580
f 653 669 654
f 580 669 662
f 659 653 579
f 848 850 852
f 851 826 847
f 850 826 849
f 852 849 851
f 848 851 847
f 825 847 826
f 982 983 981
f 984 987 983
f 988 985 987
f 986 981 985
f 987 981 983
f 984 986 988
f 1502 1503 1501
f 1504 1507 1503
f 1508 1505 1507
f 1506 1501 1505
f 1507 1501 1503
f 1504 1506 1508
f 1590 1591 1589
f 1592 1595 1591
f 1596 1593 1595
f 1594 1589 1593
f 1595 1589 1591
f 1592 1594 1596
f 12 11 10
f 13 14 15
f 10 14 13
f 11 15 14
f 12 16 15
f 9 13 16
f 28 27 26
f 29 30 31
f 26 30 29
f 27 31 30
f 27 28 32
f 25 29 32
f 44 43 42
f 45 46 47
f 42 46 45
f 43 47 46
f 43 44 48
f 41 45 48
f 60 59 58
f 61 62 63
f 58 62 61
f 59 63 62
f 59 60 64
f 57 61 64
f 76 75 74
f 77 78 79
f 74 78 77
f 75 79 78
f 75 76 80
f 73 77 80
f 92 91 90
f 93 94 95
f 90 94 93
f 91 95 94
f 91 92 96
f 89 93 96
f 108 107 106
f 109 110 111
f 106 110 109
f 107 111 110
f 107 108 112
f 105 109 112
f 124 123 122
f 125 126 127
f 122 126 125
f 123 127 126
f 123 124 128
f 121 125 128
f 132 131 130
f 133 134 135
f 130 134 133
f 131 135 134
f 131 132 136
f 129 133 136
f 694 687 690
f 687 673 676
f 673 680 683
f 680 694 697
f 676 683 697
f 687 694 680
f 666 659 662
f 659 579 580
f 579 653 654
f 653 666 669
f 580 654 669
f 659 666 653
f 848 825 850
f 851 849 826
f 850 825 826
f 852 850 849
f 848 852 851
f 825 848 847
f 982 984 983
f 984 988 987
f 988 986 985
f 986 982 981
f 987 985 981
f 984 982 986
f 1502 1504 1503
f 1504 1508 1507
f 1508 1506 1505
f 1506 1502 1501
f 1507 1505 1501
f 1504 1502 1506
f 1590 1592 1591
f 1592 1596 1595
f 1596 1594 1593
f 1594 1590 1589
f 1595 1593 1589
f 1592 1590 1594
usemtl Mat2
f 1656 1651 1630
f 1657 1652 1631
f 1627 138 1637
f 1629 143 1628
f 1628 144 1642
f 1672 141 1637
f 146 148 145
f 151 149 152
f 149 146 145
f 150 147 146
f 147 152 148
f 152 145 148
f 170 171 169
f 172 175 171
f 176 173 175
f 174 169 173
f 175 169 171
f 172 174 176
f 186 187 185
f 188 191 187
f 192 189 191
f 190 185 189
f 191 185 187
f 188 190 192
f 331 336 332
f 245 248 247
f 219 222 221
f 214 215 213
f 218 219 217
f 282 283 281
f 276 277 275
f 252 253 251
f 212 213 211
f 216 217 215
f 244 245 243
f 249 252 251
f 222 223 221
f 314 315 313
f 213 217 221
f 224 225 223
f 225 212 211
f 216 212 224
f 247 250 249
f 336 329 332
f 307 310 309
f 335 333 336
f 253 256 255
f 325 194 193
f 255 243 247
f 255 258 257
f 258 243 257
f 246 258 254
f 326 323 194
f 279 282 281
f 415 409 411
f 278 279 277
f 284 285 283
f 334 331 330
f 286 287 285
f 323 328 324
f 279 281 289
f 287 290 289
f 289 276 275
f 278 290 286
f 311 314 313
f 330 332 329
f 310 311 309
f 316 317 315
f 327 325 328
f 333 330 329
f 317 320 319
f 194 324 193
f 315 319 307
f 320 321 319
f 328 193 324
f 322 307 321
f 314 310 322
f 406 403 338
f 412 415 411
f 407 404 403
f 414 409 413
f 410 411 409
f 337 406 338
f 412 414 416
f 407 405 408
f 416 413 415
f 338 404 337
f 408 337 404
f 722 715 725
f 704 711 701
f 711 722 725
f 708 718 722
f 704 715 718
f 701 725 715
f 812 813 811
f 799 801 809
f 806 807 805
f 816 817 815
f 804 805 803
f 814 815 813
f 808 800 816
f 808 809 807
f 818 799 817
f 802 803 801
f 810 811 809
f 800 801 799
f 1499 1493 1495
f 1496 1499 1495
f 1496 1498 1500
f 1492 1489 1491
f 1490 1429 1489
f 1498 1493 1497
f 1491 1429 1487
f 1494 1495 1493
f 1488 1491 1487
f 1500 1497 1499
f 1423 1487 1429
f 1488 1490 1492
f 1587 1581 1583
f 1578 1509 1577
f 1584 1587 1583
f 1579 1509 1575
f 1586 1581 1585
f 1582 1583 1581
f 1580 1577 1579
f 1584 1586 1588
f 1576 1579 1575
f 1588 1585 1587
f 1510 1575 1509
f 1576 1578 1580
f 217 219 221
f 1600 1601 1599
f 221 223 225
f 1602 1603 1601
f 1604 1605 1603
f 1620 1622 1624
f 1606 1607 1605
f 1623 1598 1619
f 1608 1609 1607
f 1622 1598 1621
f 1610 1611 1609
f 1624 1621 1623
f 1612 1613 1611
f 1620 1623 1619
f 1614 1615 1613
f 1616 1608 1604
f 1597 1619 1598
f 1616 1617 1615
f 213 215 217
f 1618 1599 1617
f 1601 1605 1613
f 225 211 221
f 211 213 221
f 224 222 220
f 220 218 216
f 216 214 212
f 212 226 224
f 224 220 216
f 247 249 251
f 251 253 255
f 255 257 243
f 243 245 247
f 247 251 255
f 254 252 250
f 250 248 246
f 246 244 258
f 258 256 254
f 254 250 246
f 281 283 285
f 285 287 281
f 287 289 281
f 289 275 277
f 277 279 289
f 286 284 282
f 282 280 278
f 278 276 290
f 290 288 286
f 286 282 278
f 307 309 311
f 311 313 315
f 315 317 319
f 319 321 307
f 307 311 315
f 318 316 314
f 314 312 310
f 310 308 322
f 322 320 318
f 318 314 322
f 801 803 809
f 803 805 809
f 805 807 809
f 809 811 813
f 813 815 809
f 815 817 809
f 817 799 809
f 816 814 812
f 812 810 816
f 810 808 816
f 808 806 800
f 806 804 800
f 804 802 800
f 800 818 816
f 1604 1602 1616
f 1602 1600 1616
f 1600 1618 1616
f 1616 1614 1612
f 1612 1610 1608
f 1608 1606 1604
f 1616 1612 1608
f 1617 1599 1601
f 1601 1603 1605
f 1605 1607 1613
f 1607 1609 1613
f 1609 1611 1613
f 1613 1615 1617
f 1617 1601 1613
f 1625 1628 139
f 1627 1625 138
f 142 1629 1627
f 1669 1632 1641
f 1680 1634 1659
f 1679 1631 1660
f 1678 1646 1655
f 1642 1647 1662
f 144 1636 1663
f 1677 1645 1654
f 1638 1648 1665
f 1633 1644 1666
f 1668 1641 137
f 1667 1668 1676
f 1658 1669 1675
f 1671 1637 1632
f 1670 1671 1674
f 1652 1672 1673
f 142 141 143
f 139 140 138
f 1673 1650 1670
f 1660 1670 1646
f 1631 1673 1660
f 1674 1643 1658
f 1655 1658 1634
f 1646 1674 1655
f 1675 1649 1667
f 1659 1667 1645
f 1634 1675 1659
f 1676 1635 1656
f 1654 1656 1630
f 1645 1676 1654
f 1651 1654 1630
f 1639 1677 1651
f 1665 1664 1677
f 1653 1655 1634
f 1644 1678 1653
f 1662 1661 1678
f 1661 1660 1646
f 1647 1679 1661
f 1663 1657 1679
f 1664 1659 1645
f 1648 1680 1664
f 1666 1653 1680
f 1640 1657 1636
f 1639 1656 1635
f 138 137 1641
f 1641 1632 138
f 1632 1637 138
f 1637 141 1627
f 141 142 1627
f 1629 1626 143
f 140 139 1638
f 139 1628 1642
f 1638 139 1633
f 1628 143 144
f 1642 1633 139
f 1637 1650 1672
f 1672 1640 141
f 146 147 148
f 151 150 149
f 149 150 146
f 150 151 147
f 147 151 152
f 152 149 145
f 170 172 171
f 172 176 175
f 176 174 173
f 174 170 169
f 175 173 169
f 172 170 174
f 186 188 187
f 188 192 191
f 192 190 189
f 190 186 185
f 191 189 185
f 188 186 190
f 331 335 336
f 245 246 248
f 219 220 222
f 214 216 215
f 218 220 219
f 282 284 283
f 276 278 277
f 252 254 253
f 212 214 213
f 216 218 217
f 244 246 245
f 249 250 252
f 222 224 223
f 314 316 315
f 224 226 225
f 225 226 212
f 247 248 250
f 336 333 329
f 307 308 310
f 335 334 333
f 253 254 256
f 325 326 194
f 255 256 258
f 258 244 243
f 326 327 323
f 279 280 282
f 415 413 409
f 278 280 279
f 284 286 285
f 334 335 331
f 286 288 287
f 323 327 328
f 287 288 290
f 289 290 276
f 311 312 314
f 330 331 332
f 310 312 311
f 316 318 317
f 327 326 325
f 333 334 330
f 317 318 320
f 194 323 324
f 320 322 321
f 328 325 193
f 322 308 307
f 406 407 403
f 412 416 415
f 407 408 404
f 414 410 409
f 410 412 411
f 337 405 406
f 412 410 414
f 407 406 405
f 416 414 413
f 338 403 404
f 408 405 337
f 722 718 715
f 704 708 711
f 711 708 722
f 708 704 718
f 704 701 715
f 701 711 725
f 812 814 813
f 806 808 807
f 816 818 817
f 804 806 805
f 814 816 815
f 808 810 809
f 818 800 799
f 802 804 803
f 810 812 811
f 800 802 801
f 1499 1497 1493
f 1496 1500 1499
f 1496 1494 1498
f 1492 1490 1489
f 1490 1423 1429
f 1498 1494 1493
f 1491 1489 1429
f 1494 1496 1495
f 1488 1492 1491
f 1500 1498 1497
f 1423 1488 1487
f 1488 1423 1490
f 1587 1585 1581
f 1578 1510 1509
f 1584 1588 1587
f 1579 1577 1509
f 1586 1582 1581
f 1582 1584 1583
f 1580 1578 1577
f 1584 1582 1586
f 1576 1580 1579
f 1588 1586 1585
f 1510 1576 1575
f 1576 1510 1578
f 1600 1602 1601
f 1602 1604 1603
f 1604 1606 1605
f 1620 1597 1622
f 1606 1608 1607
f 1623 1621 1598
f 1608 1610 1609
f 1622 1597 1598
f 1610 1612 1611
f 1624 1622 1621
f 1612 1614 1613
f 1620 1624 1623
f 1614 1616 1615
f 1597 1620 1619
f 1616 1618 1617
f 1618 1600 1599
f 1625 1629 1628
f 1627 1629 1625
f 142 1626 1629
f 1641 1649 1669
f 1669 1643 1632
f 1680 1653 1634
f 1679 1657 1631
f 1678 1661 1646
f 1644 1633 1662
f 1633 1642 1662
f 1647 1642 1663
f 1642 144 1663
f 1677 1664 1645
f 1639 140 1665
f 140 1638 1665
f 1648 1638 1666
f 1638 1633 1666
f 137 1635 1668
f 1668 1649 1641
f 1667 1649 1668
f 1658 1643 1669
f 1632 1643 1671
f 1671 1650 1637
f 1670 1650 1671
f 1652 1640 1672
f 1636 144 1640
f 144 143 141
f 1640 144 141
f 143 1626 142
f 1635 137 1639
f 137 138 140
f 1639 137 140
f 138 1625 139
f 1673 1672 1650
f 1660 1673 1670
f 1631 1652 1673
f 1674 1671 1643
f 1655 1674 1658
f 1646 1670 1674
f 1675 1669 1649
f 1659 1675 1667
f 1634 1658 1675
f 1676 1668 1635
f 1654 1676 1656
f 1645 1667 1676
f 1651 1677 1654
f 1639 1665 1677
f 1665 1648 1664
f 1653 1678 1655
f 1644 1662 1678
f 1662 1647 1661
f 1661 1679 1660
f 1647 1663 1679
f 1663 1636 1657
f 1664 1680 1659
f 1648 1666 1680
f 1666 1644 1653
f 1640 1652 1657
f 1639 1651 1656
usemtl Mat3
f 154 155 153
f 156 159 155
f 160 157 159
f 158 153 157
f 159 153 155
f 156 158 160
f 162 163 161
f 164 167 163
f 168 165 167
f 166 161 165
f 167 161 163
f 164 166 168
f 178 179 177
f 180 183 179
f 184 181 183
f 182 177 181
f 183 177 179
f 180 182 184
f 154 156 155
f 156 160 159
f 160 158 157
f 158 154 153
f 159 157 153
f 156 154 158
f 162 164 163
f 164 168 167
f 168 166 165
f 166 162 161
f 167 165 161
f 164 162 166
f 178 180 179
f 180 184 183
f 184 182 181
f 182 178 177
f 183 181 177
f 180 178 182
usemtl Mat4
f 195 198 197
f 197 200 199
f 298 299 297
f 199 202 201
f 201 204 203
f 203 206 205
f 205 208 207
f 196 208 204
f 207 210 209
f 228 229 227
f 234 235 233
f 209 196 195
f 209 197 201
f 292 293 291
f 232 233 231
f 229 232 231
f 235 238 237
f 238 239 237
f 236 234 242
f 240 241 239
f 260 261 259
f 265 268 267
f 242 227 241
f 239 227 231
f 264 265 263
f 261 264 263
f 268 269 267
f 270 271 269
f 271 273 259
f 272 273 271
f 274 259 273
f 274 272 270
f 295 298 297
f 293 296 295
f 300 301 299
f 302 303 301
f 305 291 299
f 304 305 303
f 305 292 291
f 294 306 302
f 435 418 431
f 434 418 433
f 436 433 435
f 431 436 435
f 417 431 418
f 432 434 436
f 1458 1459 1457
f 1432 1433 1431
f 1358 1355 1356
f 1341 1432 1431
f 1464 1465 1463
f 1366 1357 1358
f 1355 1341 1356
f 1455 1458 1457
f 1461 1464 1463
f 1440 1441 1439
f 1445 1448 1447
f 1444 1445 1443
f 1433 1436 1435
f 1341 1433 1437
f 1436 1437 1435
f 1442 1443 1441
f 1448 1449 1447
f 1438 1366 1437
f 1436 1432 1355
f 1460 1461 1459
f 1449 1452 1451
f 1448 1446 1454
f 1451 1454 1453
f 1472 1473 1471
f 1477 1480 1479
f 1454 1439 1453
f 1439 1441 1443
f 1475 1478 1477
f 1465 1468 1467
f 1457 1459 1467
f 1468 1469 1467
f 1474 1475 1473
f 1480 1481 1479
f 1469 1456 1455
f 1458 1470 1466
f 1481 1484 1483
f 1475 1479 1483
f 1484 1485 1483
f 1486 1471 1485
f 1478 1474 1486
f 1562 1563 1561
f 1512 1513 1511
f 1535 1538 1537
f 1530 1531 1529
f 1513 1516 1515
f 1534 1535 1533
f 1516 1517 1515
f 1517 1520 1519
f 1567 1570 1569
f 1528 1529 1527
f 1519 1522 1521
f 1531 1534 1533
f 1560 1561 1559
f 1522 1523 1521
f 1520 1518 1516
f 1565 1568 1567
f 1524 1525 1523
f 1544 1545 1543
f 1549 1552 1551
f 1525 1512 1511
f 1525 1513 1517
f 1548 1549 1547
f 1537 1540 1539
f 1541 1527 1529
f 1540 1541 1539
f 1546 1547 1545
f 1551 1554 1553
f 1541 1528 1527
f 1528 1542 1540
f 1563 1566 1565
f 1554 1555 1553
f 1546 1558 1554
f 1556 1557 1555
f 1557 1544 1543
f 1545 1547 1555
f 1570 1571 1569
f 1561 1563 1571
f 1572 1573 1571
f 1573 1560 1559
f 1562 1574 1570
f 208 206 204
f 196 210 208
f 205 207 209
f 200 198 196
f 203 205 209
f 201 203 209
f 197 199 201
f 209 195 197
f 200 196 204
f 204 202 200
f 234 232 230
f 230 228 234
f 228 242 234
f 242 240 238
f 238 236 242
f 231 233 235
f 235 237 239
f 239 241 227
f 227 229 231
f 231 235 239
f 259 261 263
f 263 265 259
f 265 267 259
f 267 269 259
f 269 271 259
f 270 268 266
f 266 264 270
f 264 262 270
f 262 260 270
f 260 274 270
f 291 293 295
f 295 297 291
f 297 299 291
f 299 301 303
f 303 305 299
f 302 300 298
f 298 296 294
f 294 292 306
f 306 304 302
f 302 298 294
f 1358 1356 1341
f 1341 1431 1433
f 1433 1435 1437
f 1437 1366 1358
f 1358 1341 1437
f 1436 1434 1432
f 1432 1430 1355
f 1355 1357 1360
f 1360 1438 1355
f 1438 1436 1355
f 1446 1444 1454
f 1444 1442 1454
f 1442 1440 1454
f 1454 1452 1450
f 1450 1448 1454
f 1443 1445 1451
f 1445 1447 1451
f 1447 1449 1451
f 1451 1453 1443
f 1453 1439 1443
f 1459 1461 1467
f 1461 1463 1467
f 1463 1465 1467
f 1467 1469 1455
f 1455 1457 1467
f 1466 1464 1462
f 1462 1460 1466
f 1460 1458 1466
f 1458 1456 1470
f 1470 1468 1466
f 1471 1473 1475
f 1475 1477 1479
f 1479 1481 1483
f 1483 1485 1471
f 1471 1475 1483
f 1482 1480 1478
f 1478 1476 1474
f 1474 1472 1486
f 1486 1484 1482
f 1482 1478 1486
f 1516 1514 1524
f 1514 1512 1524
f 1512 1526 1524
f 1524 1522 1516
f 1522 1520 1516
f 1525 1511 1513
f 1513 1515 1517
f 1517 1519 1521
f 1521 1523 1517
f 1523 1525 1517
f 1529 1531 1537
f 1531 1533 1537
f 1533 1535 1537
f 1537 1539 1529
f 1539 1541 1529
f 1540 1538 1532
f 1538 1536 1532
f 1536 1534 1532
f 1532 1530 1540
f 1530 1528 1540
f 1550 1548 1546
f 1546 1544 1558
f 1558 1556 1554
f 1554 1552 1550
f 1550 1546 1554
f 1547 1549 1555
f 1549 1551 1555
f 1551 1553 1555
f 1555 1557 1543
f 1543 1545 1555
f 1563 1565 1571
f 1565 1567 1571
f 1567 1569 1571
f 1571 1573 1559
f 1559 1561 1571
f 1570 1568 1566
f 1566 1564 1570
f 1564 1562 1570
f 1562 1560 1574
f 1574 1572 1570
f 195 196 198
f 197 198 200
f 298 300 299
f 199 200 202
f 201 202 204
f 203 204 206
f 205 206 208
f 207 208 210
f 228 230 229
f 234 236 235
f 209 210 196
f 292 294 293
f 232 234 233
f 229 230 232
f 235 236 238
f 238 240 239
f 240 242 241
f 260 262 261
f 265 266 268
f 242 228 227
f 264 266 265
f 261 262 264
f 268 270 269
f 270 272 271
f 272 274 273
f 274 260 259
f 295 296 298
f 293 294 296
f 300 302 301
f 302 304 303
f 304 306 305
f 305 306 292
f 435 433 418
f 434 417 418
f 436 434 433
f 431 432 436
f 417 432 431
f 432 417 434
f 1458 1460 1459
f 1432 1434 1433
f 1358 1357 1355
f 1341 1430 1432
f 1464 1466 1465
f 1366 1360 1357
f 1355 1430 1341
f 1455 1456 1458
f 1461 1462 1464
f 1440 1442 1441
f 1445 1446 1448
f 1444 1446 1445
f 1433 1434 1436
f 1436 1438 1437
f 1442 1444 1443
f 1448 1450 1449
f 1438 1360 1366
f 1460 1462 1461
f 1449 1450 1452
f 1451 1452 1454
f 1472 1474 1473
f 1477 1478 1480
f 1454 1440 1439
f 1475 1476 1478
f 1465 1466 1468
f 1468 1470 1469
f 1474 1476 1475
f 1480 1482 1481
f 1469 1470 1456
f 1481 1482 1484
f 1484 1486 1485
f 1486 1472 1471
f 1562 1564 1563
f 1512 1514 1513
f 1535 1536 1538
f 1530 1532 1531
f 1513 1514 1516
f 1534 1536 1535
f 1516 1518 1517
f 1517 1518 1520
f 1567 1568 1570
f 1528 1530 1529
f 1519 1520 1522
f 1531 1532 1534
f 1560 1562 1561
f 1522 1524 1523
f 1565 1566 1568
f 1524 1526 1525
f 1544 1546 1545
f 1549 1550 1552
f 1525 1526 1512
f 1548 1550 1549
f 1537 1538 1540
f 1540 1542 1541
f 1546 1548 1547
f 1551 1552 1554
f 1541 1542 1528
f 1563 1564 1566
f 1554 1556 1555
f 1556 1558 1557
f 1557 1558 1544
f 1570 1572 1571
f 1572 1574 1573
f 1573 1574 1560
usemtl Mat5
f 390 391 389
f 340 341 339
f 364 365 363
f 358 359 357
f 342 343 341
f 362 363 361
f 344 345 343
f 346 347 345
f 396 397 395
f 356 357 355
f 348 349 347
f 360 361 359
f 388 389 387
f 350 351 349
f 340 352 348
f 394 395 393
f 352 353 351
f 372 373 371
f 378 379 377
f 354 339 353
f 349 351 353
f 376 377 375
f 366 367 365
f 369 355 357
f 368 369 367
f 374 375 373
f 380 381 379
f 370 355 369
f 360 356 368
f 392 393 391
f 382 383 381
f 380 378 386
f 384 385 383
f 386 371 385
f 379 383 371
f 398 399 397
f 399 387 391
f 400 401 399
f 402 387 401
f 400 398 390
f 344 342 340
f 340 354 352
f 352 350 348
f 348 346 344
f 344 340 348
f 353 339 341
f 341 343 353
f 343 345 353
f 345 347 353
f 347 349 353
f 357 359 365
f 359 361 365
f 361 363 365
f 365 367 357
f 367 369 357
f 368 366 364
f 364 362 360
f 360 358 356
f 356 370 368
f 368 364 360
f 378 376 386
f 376 374 386
f 374 372 386
f 386 384 382
f 382 380 386
f 375 377 379
f 379 381 383
f 383 385 371
f 371 373 375
f 375 379 371
f 391 393 395
f 395 397 399
f 399 401 387
f 387 389 391
f 391 395 399
f 398 396 394
f 394 392 398
f 392 390 398
f 390 388 402
f 402 400 390
f 390 392 391
f 340 342 341
f 364 366 365
f 358 360 359
f 342 344 343
f 362 364 363
f 344 346 345
f 346 348 347
f 396 398 397
f 356 358 357
f 348 350 349
f 360 362 361
f 388 390 389
f 350 352 351
f 394 396 395
f 352 354 353
f 372 374 373
f 378 380 379
f 354 340 339
f 376 378 377
f 366 368 367
f 368 370 369
f 374 376 375
f 380 382 381
f 370 356 355
f 392 394 393
f 382 384 383
f 384 386 385
f 386 372 371
f 398 400 399
f 400 402 401
f 402 388 387
usemtl Mat6
f 420 421 419
f 422 423 421
f 424 425 423
f 426 427 425
f 420 428 424
f 428 429 427
f 430 419 429
f 421 425 429
f 500 499 506
f 493 492 499
f 500 486 493
f 486 485 492
f 479 506 485
f 499 485 506
f 561 559 566
f 554 552 559
f 561 547 554
f 547 545 552
f 540 566 545
f 559 545 566
f 424 422 420
f 420 430 428
f 428 426 424
f 429 419 421
f 421 423 425
f 425 427 429
f 420 422 421
f 422 424 423
f 424 426 425
f 426 428 427
f 428 430 429
f 430 420 419
f 500 493 499
f 493 486 492
f 500 479 486
f 486 479 485
f 479 500 506
f 499 492 485
f 561 554 559
f 554 547 552
f 561 540 547
f 547 540 545
f 540 561 566
f 559 552 545
usemtl Mat7
f 443 512 449
f 510 448 511
f 510 446 447
f 511 449 512
f 508 437 445
f 509 445 446
f 447 453 454
f 445 437 452
f 443 449 456
f 447 455 448
f 445 453 446
f 449 455 456
f 452 437 459
f 443 456 463
f 454 462 455
f 452 460 453
f 455 463 456
f 454 460 461
f 443 463 470
f 462 468 469
f 459 467 460
f 462 470 463
f 460 468 461
f 459 437 466
f 443 470 477
f 468 476 469
f 466 474 467
f 469 477 470
f 467 475 468
f 466 437 473
f 443 477 484
f 475 483 476
f 473 481 474
f 477 483 484
f 474 482 475
f 473 437 480
f 482 490 483
f 480 488 481
f 483 491 484
f 482 488 489
f 480 437 487
f 443 484 491
f 487 495 488
f 490 498 491
f 488 496 489
f 487 437 494
f 443 491 498
f 489 497 490
f 498 504 505
f 496 502 503
f 494 437 501
f 443 498 505
f 496 504 497
f 494 502 495
f 504 512 505
f 502 510 503
f 501 437 508
f 443 505 512
f 503 511 504
f 502 508 509
f 458 572 457
f 571 457 572
f 450 438 514
f 569 439 441
f 570 451 571
f 570 444 450
f 569 444 567
f 441 438 444
f 441 439 440
f 458 457 516
f 457 515 516
f 450 515 451
f 440 439 520
f 458 516 523
f 440 518 438
f 514 518 521
f 516 522 523
f 514 522 515
f 522 530 523
f 520 525 518
f 518 528 521
f 520 439 527
f 458 523 530
f 521 529 522
f 527 439 534
f 458 530 537
f 528 536 529
f 529 537 530
f 527 532 525
f 525 535 528
f 534 439 541
f 458 537 544
f 535 543 536
f 536 544 537
f 534 539 532
f 535 539 542
f 458 544 551
f 542 550 543
f 544 550 551
f 541 546 539
f 542 546 549
f 541 439 548
f 549 557 550
f 550 558 551
f 548 553 546
f 546 556 549
f 548 439 555
f 458 551 558
f 558 564 565
f 555 560 553
f 553 563 556
f 555 439 562
f 458 558 565
f 556 564 557
f 564 572 565
f 562 567 560
f 560 570 563
f 562 439 569
f 458 565 572
f 563 571 564
f 526 524 531
f 533 531 538
f 591 600 593
f 584 573 591
f 583 596 603
f 587 593 594
f 598 573 605
f 588 594 595
f 519 517 524
f 595 603 596
f 583 652 589
f 513 507 517
f 591 573 598
f 647 573 584
f 478 472 507
f 594 602 595
f 649 587 650
f 471 465 472
f 586 591 593
f 647 586 649
f 464 442 465
f 588 596 589
f 651 589 652
f 574 575 442
f 519 533 576
f 651 587 588
f 576 577 575
f 593 601 594
f 583 589 596
f 578 538 577
f 517 472 577
f 603 609 610
f 600 608 601
f 598 607 600
f 583 603 610
f 601 609 602
f 605 573 612
f 610 616 617
f 608 614 615
f 605 614 607
f 583 610 617
f 608 616 609
f 612 573 619
f 616 624 617
f 614 622 615
f 614 619 621
f 583 617 624
f 616 622 623
f 619 573 626
f 623 631 624
f 621 629 622
f 621 626 628
f 583 624 631
f 623 629 630
f 630 638 631
f 628 636 629
f 626 635 628
f 583 631 638
f 630 636 637
f 626 573 633
f 636 642 643
f 633 642 635
f 583 638 645
f 636 644 637
f 633 573 640
f 638 644 645
f 640 649 642
f 583 645 652
f 643 651 644
f 640 573 647
f 645 651 652
f 643 649 650
f 655 668 675
f 658 664 657
f 641 639 646
f 674 648 681
f 656 668 661
f 634 632 639
f 664 670 663
f 657 663 656
f 627 625 632
f 663 675 668
f 721 657 720
f 620 618 625
f 667 648 674
f 721 660 658
f 613 611 618
f 665 671 664
f 655 724 661
f 606 604 611
f 660 665 658
f 723 648 660
f 599 597 604
f 655 661 668
f 719 661 724
f 592 590 597
f 627 641 585
f 720 656 719
f 585 582 590
f 667 672 665
f 660 648 667
f 581 646 582
f 625 611 597
f 655 675 682
f 671 677 670
f 674 679 672
f 675 677 682
f 671 679 678
f 655 682 689
f 678 684 677
f 681 686 679
f 682 684 689
f 679 685 678
f 681 648 688
f 684 692 691
f 686 695 693
f 684 696 689
f 686 692 685
f 688 648 695
f 655 689 696
f 691 699 698
f 695 700 693
f 691 703 696
f 693 699 692
f 695 648 702
f 655 696 703
f 698 706 705
f 702 707 700
f 698 710 703
f 700 706 699
f 702 648 709
f 655 703 710
f 709 714 707
f 705 717 710
f 706 714 713
f 709 648 716
f 655 710 717
f 706 712 705
f 712 724 717
f 714 720 713
f 716 648 723
f 655 717 724
f 713 719 712
f 716 721 714
f 736 737 735
f 830 831 829
f 832 833 831
f 738 739 737
f 740 741 739
f 742 743 741
f 744 745 743
f 823 821 824
f 746 747 745
f 748 749 747
f 819 824 820
f 750 751 749
f 752 753 751
f 754 755 753
f 756 757 755
f 758 759 757
f 760 761 759
f 824 733 820
f 762 763 761
f 756 748 740
f 764 765 763
f 734 820 733
f 766 735 765
f 741 749 757
f 821 734 733
f 834 835 833
f 828 829 827
f 822 819 734
f 836 837 835
f 838 839 837
f 840 841 839
f 842 843 841
f 842 838 834
f 844 845 843
f 846 827 845
f 833 837 841
f 1282 1290 1283
f 1274 1279 1281
f 1248 1249 1247
f 1286 1246 1293
f 1274 1282 1275
f 1250 1251 1249
f 1279 1288 1281
f 1272 1246 1279
f 1252 1253 1251
f 1283 1291 1284
f 1337 1275 1338
f 1254 1255 1253
f 1279 1246 1286
f 1339 1275 1276
f 1256 1257 1255
f 1281 1289 1282
f 1335 1246 1272
f 1258 1259 1257
f 1271 1277 1284
f 1339 1277 1340
f 1260 1261 1259
f 1275 1283 1276
f 1337 1272 1274
f 1262 1263 1261
f 1264 1260 1256
f 1271 1340 1277
f 1264 1265 1263
f 1271 1284 1291
f 1277 1283 1284
f 1266 1247 1265
f 1257 1261 1265
f 1290 1298 1291
f 1288 1296 1289
f 1288 1293 1295
f 1271 1291 1298
f 1289 1297 1290
f 1298 1304 1305
f 1295 1303 1296
f 1293 1302 1295
f 1271 1298 1305
f 1296 1304 1297
f 1293 1246 1300
f 1302 1310 1303
f 1302 1307 1309
f 1271 1305 1312
f 1304 1310 1311
f 1300 1246 1307
f 1304 1312 1305
f 1307 1316 1309
f 1271 1312 1319
f 1311 1317 1318
f 1307 1246 1314
f 1311 1319 1312
f 1309 1317 1310
f 1314 1323 1316
f 1271 1319 1326
f 1317 1325 1318
f 1314 1246 1321
f 1318 1326 1319
f 1316 1324 1317
f 1323 1328 1330
f 1271 1326 1333
f 1324 1332 1325
f 1321 1246 1328
f 1325 1333 1326
f 1323 1331 1324
f 1271 1333 1340
f 1331 1339 1332
f 1328 1246 1335
f 1332 1340 1333
f 1331 1337 1338
f 1328 1337 1330
f 1371 1379 1372
f 1361 1369 1362
f 1344 1345 1343
f 1269 1268 1270
f 1342 1343 1245
f 1368 1336 1375
f 1359 1372 1379
f 1359 1365 1372
f 1428 1364 1365
f 1273 1270 1278
f 1267 1245 1268
f 1370 1378 1371
f 1364 1372 1365
f 1424 1362 1425
f 1369 1377 1370
f 1359 1428 1365
f 1368 1376 1369
f 1346 1347 1345
f 1425 1363 1426
f 1361 1336 1368
f 1348 1349 1347
f 1426 1364 1427
f 1362 1370 1363
f 1350 1351 1349
f 1424 1336 1361
f 1345 1353 1270
f 1352 1353 1351
f 1363 1371 1364
f 1376 1382 1383
f 1354 1278 1353
f 1273 1352 1348
f 1378 1386 1379
f 1359 1379 1386
f 1375 1336 1382
f 1377 1385 1378
f 1377 1383 1384
f 1385 1393 1386
f 1359 1386 1393
f 1382 1336 1389
f 1384 1392 1385
f 1383 1391 1384
f 1382 1390 1383
f 1359 1393 1400
f 1389 1336 1396
f 1391 1399 1392
f 1390 1398 1391
f 1390 1396 1397
f 1392 1400 1393
f 1396 1336 1403
f 1398 1406 1399
f 1398 1404 1405
f 1396 1404 1397
f 1400 1406 1407
f 1359 1400 1407
f 1403 1336 1410
f 1405 1413 1406
f 1404 1412 1405
f 1403 1411 1404
f 1406 1414 1407
f 1359 1407 1414
f 1410 1336 1417
f 1413 1419 1420
f 1411 1419 1412
f 1410 1418 1411
f 1413 1421 1414
f 1359 1414 1421
f 1417 1336 1424
f 1419 1427 1420
f 1418 1426 1419
f 1418 1424 1425
f 1421 1427 1428
f 1359 1421 1428
f 519 526 533
f 533 578 576
f 576 574 464
f 464 471 576
f 471 478 576
f 478 513 576
f 513 519 576
f 531 524 517
f 517 507 472
f 472 465 442
f 442 575 472
f 575 577 472
f 577 538 531
f 531 517 577
f 627 634 641
f 641 581 585
f 585 592 599
f 599 606 585
f 606 613 585
f 613 620 585
f 620 627 585
f 582 646 625
f 646 639 625
f 639 632 625
f 625 618 611
f 611 604 597
f 597 590 625
f 590 582 625
f 740 738 736
f 736 766 740
f 766 764 740
f 764 762 760
f 760 758 756
f 756 754 748
f 754 752 748
f 752 750 748
f 748 746 744
f 744 742 740
f 764 760 740
f 760 756 740
f 748 744 740
f 765 735 737
f 737 739 765
f 739 741 765
f 741 743 749
f 743 745 749
f 745 747 749
f 749 751 757
f 751 753 757
f 753 755 757
f 757 759 761
f 761 763 765
f 757 761 765
f 765 741 757
f 834 832 830
f 830 828 834
f 828 846 834
f 846 844 842
f 842 840 838
f 838 836 834
f 846 842 834
f 845 827 833
f 827 829 833
f 829 831 833
f 833 835 837
f 837 839 841
f 841 843 833
f 843 845 833
f 1252 1250 1248
f 1248 1266 1264
f 1264 1262 1260
f 1260 1258 1256
f 1256 1254 1252
f 1252 1248 1256
f 1248 1264 1256
f 1265 1247 1249
f 1249 1251 1253
f 1253 1255 1257
f 1257 1259 1261
f 1261 1263 1265
f 1265 1249 1253
f 1253 1257 1265
f 1270 1268 1245
f 1245 1343 1270
f 1343 1345 1270
f 1345 1347 1353
f 1347 1349 1353
f 1349 1351 1353
f 1353 1278 1270
f 1348 1346 1344
f 1344 1342 1267
f 1267 1269 1273
f 1273 1354 1352
f 1352 1350 1348
f 1348 1344 1267
f 1267 1273 1348
f 510 447 448
f 510 509 446
f 511 448 449
f 509 508 445
f 447 446 453
f 447 454 455
f 445 452 453
f 449 448 455
f 454 461 462
f 452 459 460
f 455 462 463
f 454 453 460
f 462 461 468
f 459 466 467
f 462 469 470
f 460 467 468
f 468 475 476
f 466 473 474
f 469 476 477
f 467 474 475
f 475 482 483
f 473 480 481
f 477 476 483
f 474 481 482
f 482 489 490
f 480 487 488
f 483 490 491
f 482 481 488
f 487 494 495
f 490 497 498
f 488 495 496
f 489 496 497
f 498 497 504
f 496 495 502
f 496 503 504
f 494 501 502
f 504 511 512
f 502 509 510
f 503 510 511
f 502 501 508
f 571 451 457
f 450 444 438
f 570 450 451
f 570 567 444
f 569 441 444
f 441 440 438
f 457 451 515
f 450 514 515
f 440 520 518
f 514 438 518
f 516 515 522
f 514 521 522
f 522 529 530
f 520 527 525
f 518 525 528
f 521 528 529
f 528 535 536
f 529 536 537
f 527 534 532
f 525 532 535
f 535 542 543
f 536 543 544
f 534 541 539
f 535 532 539
f 542 549 550
f 544 543 550
f 541 548 546
f 542 539 546
f 549 556 557
f 550 557 558
f 548 555 553
f 546 553 556
f 558 557 564
f 555 562 560
f 553 560 563
f 556 563 564
f 564 571 572
f 562 569 567
f 560 567 570
f 563 570 571
f 526 519 524
f 533 526 531
f 591 598 600
f 587 586 593
f 588 587 594
f 519 513 517
f 595 602 603
f 513 478 507
f 478 471 472
f 594 601 602
f 649 586 587
f 471 464 465
f 586 584 591
f 647 584 586
f 464 574 442
f 588 595 596
f 651 588 589
f 574 576 575
f 651 650 587
f 576 578 577
f 593 600 601
f 578 533 538
f 603 602 609
f 600 607 608
f 598 605 607
f 601 608 609
f 610 609 616
f 608 607 614
f 605 612 614
f 608 615 616
f 616 623 624
f 614 621 622
f 614 612 619
f 616 615 622
f 623 630 631
f 621 628 629
f 621 619 626
f 623 622 629
f 630 637 638
f 628 635 636
f 626 633 635
f 630 629 636
f 636 635 642
f 633 640 642
f 636 643 644
f 638 637 644
f 640 647 649
f 643 650 651
f 645 644 651
f 643 642 649
f 658 665 664
f 641 634 639
f 656 663 668
f 634 627 632
f 664 671 670
f 657 664 663
f 627 620 625
f 663 670 675
f 721 658 657
f 620 613 618
f 721 723 660
f 613 606 611
f 665 672 671
f 606 599 604
f 660 667 665
f 599 592 597
f 719 656 661
f 592 585 590
f 720 657 656
f 585 581 582
f 667 674 672
f 581 641 646
f 671 678 677
f 674 681 679
f 675 670 677
f 671 672 679
f 678 685 684
f 681 688 686
f 682 677 684
f 679 686 685
f 684 685 692
f 686 688 695
f 684 691 696
f 686 693 692
f 691 692 699
f 695 702 700
f 691 698 703
f 693 700 699
f 698 699 706
f 702 709 707
f 698 705 710
f 700 707 706
f 709 716 714
f 705 712 717
f 706 707 714
f 706 713 712
f 712 719 724
f 714 721 720
f 713 720 719
f 716 723 721
f 736 738 737
f 830 832 831
f 832 834 833
f 738 740 739
f 740 742 741
f 742 744 743
f 744 746 745
f 823 822 821
f 746 748 747
f 748 750 749
f 819 823 824
f 750 752 751
f 752 754 753
f 754 756 755
f 756 758 757
f 758 760 759
f 760 762 761
f 824 821 733
f 762 764 763
f 764 766 765
f 734 819 820
f 766 736 735
f 821 822 734
f 834 836 835
f 828 830 829
f 822 823 819
f 836 838 837
f 838 840 839
f 840 842 841
f 842 844 843
f 844 846 845
f 846 828 827
f 1282 1289 1290
f 1274 1272 1279
f 1248 1250 1249
f 1274 1281 1282
f 1250 1252 1251
f 1279 1286 1288
f 1252 1254 1253
f 1283 1290 1291
f 1337 1274 1275
f 1254 1256 1255
f 1339 1338 1275
f 1256 1258 1257
f 1281 1288 1289
f 1258 1260 1259
f 1339 1276 1277
f 1260 1262 1261
f 1275 1282 1283
f 1337 1335 1272
f 1262 1264 1263
f 1264 1266 1265
f 1277 1276 1283
f 1266 1248 1247
f 1290 1297 1298
f 1288 1295 1296
f 1288 1286 1293
f 1289 1296 1297
f 1298 1297 1304
f 1295 1302 1303
f 1293 1300 1302
f 1296 1303 1304
f 1302 1309 1310
f 1302 1300 1307
f 1304 1303 1310
f 1304 1311 1312
f 1307 1314 1316
f 1311 1310 1317
f 1311 1318 1319
f 1309 1316 1317
f 1314 1321 1323
f 1317 1324 1325
f 1318 1325 1326
f 1316 1323 1324
f 1323 1321 1328
f 1324 1331 1332
f 1325 1332 1333
f 1323 1330 1331
f 1331 1338 1339
f 1332 1339 1340
f 1331 1330 1337
f 1328 1335 1337
f 1371 1378 1379
f 1361 1368 1369
f 1344 1346 1345
f 1269 1267 1268
f 1342 1344 1343
f 1428 1427 1364
f 1273 1269 1270
f 1267 1342 1245
f 1370 1377 1378
f 1364 1371 1372
f 1424 1361 1362
f 1369 1376 1377
f 1368 1375 1376
f 1346 1348 1347
f 1425 1362 1363
f 1348 1350 1349
f 1426 1363 1364
f 1362 1369 1370
f 1350 1352 1351
f 1352 1354 1353
f 1363 1370 1371
f 1376 1375 1382
f 1354 1273 1278
f 1378 1385 1386
f 1377 1384 1385
f 1377 1376 1383
f 1385 1392 1393
f 1384 1391 1392
f 1383 1390 1391
f 1382 1389 1390
f 1391 1398 1399
f 1390 1397 1398
f 1390 1389 1396
f 1392 1399 1400
f 1398 1405 1406
f 1398 1397 1404
f 1396 1403 1404
f 1400 1399 1406
f 1405 1412 1413
f 1404 1411 1412
f 1403 1410 1411
f 1406 1413 1414
f 1413 1412 1419
f 1411 1418 1419
f 1410 1417 1418
f 1413 1420 1421
f 1419 1426 1427
f 1418 1425 1426
f 1418 1417 1424
f 1421 1420 1427
usemtl Mat8
f 726 727 568
f 728 731 727
f 732 729 731
f 730 568 729
f 731 568 727
f 728 730 732
f 786 787 785
f 776 777 775
f 784 785 783
f 774 775 773
f 864 866 868
f 782 783 781
f 772 773 771
f 868 865 867
f 856 859 855
f 860 857 859
f 780 781 779
f 770 771 769
f 854 855 853
f 778 779 777
f 768 769 767
f 788 789 787
f 870 871 869
f 790 791 789
f 792 793 791
f 866 861 865
f 794 795 793
f 780 772 796
f 796 797 795
f 864 867 863
f 798 767 797
f 793 769 777
f 862 863 861
f 856 858 860
f 859 853 855
f 867 861 863
f 858 853 857
f 872 875 871
f 876 873 875
f 874 869 873
f 875 869 871
f 872 874 876
f 878 879 877
f 880 883 879
f 884 881 883
f 882 877 881
f 883 877 879
f 880 882 884
f 886 887 885
f 888 891 887
f 892 889 891
f 890 885 889
f 891 885 887
f 888 890 892
f 894 895 893
f 896 899 895
f 900 897 899
f 898 893 897
f 899 893 895
f 896 898 900
f 902 903 901
f 904 907 903
f 908 905 907
f 906 901 905
f 907 901 903
f 904 906 908
f 910 911 909
f 912 915 911
f 916 913 915
f 914 909 913
f 915 909 911
f 912 914 916
f 918 919 917
f 920 923 919
f 924 921 923
f 922 917 921
f 923 917 919
f 920 922 924
f 926 927 925
f 928 931 927
f 932 929 931
f 930 925 929
f 931 925 927
f 928 930 932
f 934 935 933
f 936 939 935
f 940 937 939
f 938 933 937
f 939 933 935
f 936 938 940
f 942 943 941
f 944 947 943
f 948 945 947
f 946 941 945
f 947 941 943
f 944 946 948
f 950 951 949
f 952 955 951
f 956 953 955
f 954 949 953
f 955 949 951
f 952 954 956
f 958 959 957
f 960 963 959
f 964 961 963
f 962 957 961
f 963 957 959
f 960 962 964
f 966 967 965
f 968 971 967
f 972 969 971
f 970 965 969
f 971 965 967
f 968 970 972
f 974 975 973
f 976 979 975
f 980 977 979
f 978 973 977
f 979 973 975
f 976 978 980
f 990 991 989
f 992 995 991
f 996 993 995
f 994 989 993
f 995 989 991
f 992 994 996
f 998 999 997
f 1000 1003 999
f 1004 1001 1003
f 1002 997 1001
f 1003 997 999
f 1000 1002 1004
f 1006 1007 1005
f 1008 1011 1007
f 1012 1009 1011
f 1010 1005 1009
f 1011 1005 1007
f 1008 1010 1012
f 1014 1015 1013
f 1016 1019 1015
f 1020 1017 1019
f 1018 1013 1017
f 1019 1013 1015
f 1016 1018 1020
f 1022 1023 1021
f 1024 1027 1023
f 1028 1025 1027
f 1026 1021 1025
f 1027 1021 1023
f 1024 1026 1028
f 1030 1031 1029
f 1032 1035 1031
f 1036 1033 1035
f 1034 1029 1033
f 1035 1029 1031
f 1032 1034 1036
f 1038 1039 1037
f 1040 1043 1039
f 1044 1041 1043
f 1042 1037 1041
f 1043 1037 1039
f 1040 1042 1044
f 1046 1047 1045
f 1048 1051 1047
f 1052 1049 1051
f 1050 1045 1049
f 1051 1045 1047
f 1048 1050 1052
f 1054 1055 1053
f 1056 1059 1055
f 1060 1057 1059
f 1058 1053 1057
f 1059 1053 1055
f 1056 1058 1060
f 1062 1063 1061
f 1064 1067 1063
f 1068 1065 1067
f 1066 1061 1065
f 1067 1061 1063
f 1064 1066 1068
f 1070 1071 1069
f 1072 1075 1071
f 1076 1073 1075
f 1074 1069 1073
f 1075 1069 1071
f 1072 1074 1076
f 1078 1079 1077
f 1080 1083 1079
f 1084 1081 1083
f 1082 1077 1081
f 1083 1077 1079
f 1080 1082 1084
f 1086 1087 1085
f 1088 1091 1087
f 1092 1089 1091
f 1090 1085 1089
f 1091 1085 1087
f 1088 1090 1092
f 1094 1095 1093
f 1096 1099 1095
f 1100 1097 1099
f 1098 1093 1097
f 1099 1093 1095
f 1096 1098 1100
f 1102 1103 1101
f 1104 1107 1103
f 1108 1105 1107
f 1106 1101 1105
f 1107 1101 1103
f 1104 1106 1108
f 1110 1111 1109
f 1112 1115 1111
f 1116 1113 1115
f 1114 1109 1113
f 1115 1109 1111
f 1112 1114 1116
f 1118 1119 1117
f 1120 1123 1119
f 1124 1121 1123
f 1122 1117 1121
f 1123 1117 1119
f 1120 1122 1124
f 1126 1127 1125
f 1128 1131 1127
f 1132 1129 1131
f 1130 1125 1129
f 1131 1125 1127
f 1128 1130 1132
f 1134 1135 1133
f 1136 1139 1135
f 1140 1137 1139
f 1138 1133 1137
f 1139 1133 1135
f 1136 1138 1140
f 1142 1143 1141
f 1144 1147 1143
f 1148 1145 1147
f 1146 1141 1145
f 1147 1141 1143
f 1144 1146 1148
f 1150 1151 1149
f 1152 1155 1151
f 1156 1153 1155
f 1154 1149 1153
f 1155 1149 1151
f 1152 1154 1156
f 1158 1159 1157
f 1160 1163 1159
f 1164 1161 1163
f 1162 1157 1161
f 1163 1157 1159
f 1160 1162 1164
f 1166 1167 1165
f 1168 1171 1167
f 1172 1169 1171
f 1170 1165 1169
f 1171 1165 1167
f 1168 1170 1172
f 1174 1175 1173
f 1176 1179 1175
f 1180 1177 1179
f 1178 1173 1177
f 1179 1173 1175
f 1176 1178 1180
f 1182 1183 1181
f 1184 1187 1183
f 1188 1185 1187
f 1186 1181 1185
f 1187 1181 1183
f 1184 1186 1188
f 1190 1191 1189
f 1192 1195 1191
f 1196 1193 1195
f 1194 1189 1193
f 1195 1189 1191
f 1192 1194 1196
f 1198 1199 1197
f 1200 1203 1199
f 1204 1201 1203
f 1202 1197 1201
f 1203 1197 1199
f 1200 1202 1204
f 1206 1207 1205
f 1208 1211 1207
f 1212 1209 1211
f 1210 1205 1209
f 1211 1205 1207
f 1208 1210 1212
f 1214 1215 1213
f 1216 1219 1215
f 1220 1217 1219
f 1218 1213 1217
f 1219 1213 1215
f 1216 1218 1220
f 1222 1223 1221
f 1224 1227 1223
f 1228 1225 1227
f 1226 1221 1225
f 1227 1221 1223
f 1224 1226 1228
f 1230 1231 1229
f 1232 1235 1231
f 1236 1233 1235
f 1234 1229 1233
f 1235 1229 1231
f 1232 1234 1236
f 1238 1239 1237
f 1240 1243 1239
f 1244 1241 1243
f 1242 1237 1241
f 1243 1237 1239
f 1240 1242 1244
f 780 778 772
f 778 776 772
f 776 774 772
f 772 770 796
f 770 768 796
f 768 798 796
f 796 794 792
f 792 790 788
f 788 786 784
f 784 782 788
f 782 780 788
f 796 792 780
f 792 788 780
f 785 787 789
f 789 791 785
f 791 793 785
f 793 795 797
f 797 767 793
f 767 769 793
f 769 771 773
f 773 775 777
f 777 779 781
f 781 783 777
f 783 785 777
f 769 773 777
f 785 793 777
f 726 728 727
f 728 732 731
f 732 730 729
f 730 726 568
f 731 729 568
f 728 726 730
f 786 788 787
f 776 778 777
f 784 786 785
f 774 776 775
f 864 862 866
f 782 784 783
f 772 774 773
f 868 866 865
f 856 860 859
f 860 858 857
f 780 782 781
f 770 772 771
f 854 856 855
f 778 780 779
f 768 770 769
f 788 790 789
f 870 872 871
f 790 792 791
f 792 794 793
f 866 862 861
f 794 796 795
f 796 798 797
f 864 868 867
f 798 768 767
f 862 864 863
f 856 854 858
f 859 857 853
f 867 865 861
f 858 854 853
f 872 876 875
f 876 874 873
f 874 870 869
f 875 873 869
f 872 870 874
f 878 880 879
f 880 884 883
f 884 882 881
f 882 878 877
f 883 881 877
f 880 878 882
f 886 888 887
f 888 892 891
f 892 890 889
f 890 886 885
f 891 889 885
f 888 886 890
f 894 896 895
f 896 900 899
f 900 898 897
f 898 894 893
f 899 897 893
f 896 894 898
f 902 904 903
f 904 908 907
f 908 906 905
f 906 902 901
f 907 905 901
f 904 902 906
f 910 912 911
f 912 916 915
f 916 914 913
f 914 910 909
f 915 913 909
f 912 910 914
f 918 920 919
f 920 924 923
f 924 922 921
f 922 918 917
f 923 921 917
f 920 918 922
f 926 928 927
f 928 932 931
f 932 930 929
f 930 926 925
f 931 929 925
f 928 926 930
f 934 936 935
f 936 940 939
f 940 938 937
f 938 934 933
f 939 937 933
f 936 934 938
f 942 944 943
f 944 948 947
f 948 946 945
f 946 942 941
f 947 945 941
f 944 942 946
f 950 952 951
f 952 956 955
f 956 954 953
f 954 950 949
f 955 953 949
f 952 950 954
f 958 960 959
f 960 964 963
f 964 962 961
f 962 958 957
f 963 961 957
f 960 958 962
f 966 968 967
f 968 972 971
f 972 970 969
f 970 966 965
f 971 969 965
f 968 966 970
f 974 976 975
f 976 980 979
f 980 978 977
f 978 974 973
f 979 977 973
f 976 974 978
f 990 992 991
f 992 996 995
f 996 994 993
f 994 990 989
f 995 993 989
f 992 990 994
f 998 1000 999
f 1000 1004 1003
f 1004 1002 1001
f 1002 998 997
f 1003 1001 997
f 1000 998 1002
f 1006 1008 1007
f 1008 1012 1011
f 1012 1010 1009
f 1010 1006 1005
f 1011 1009 1005
f 1008 1006 1010
f 1014 1016 1015
f 1016 1020 1019
f 1020 1018 1017
f 1018 1014 1013
f 1019 1017 1013
f 1016 1014 1018
f 1022 1024 1023
f 1024 1028 1027
f 1028 1026 1025
f 1026 1022 1021
f 1027 1025 1021
f 1024 1022 1026
f 1030 1032 1031
f 1032 1036 1035
f 1036 1034 1033
f 1034 1030 1029
f 1035 1033 1029
f 1032 1030 1034
f 1038 1040 1039
f 1040 1044 1043
f 1044 1042 1041
f 1042 1038 1037
f 1043 1041 1037
f 1040 1038 1042
f 1046 1048 1047
f 1048 1052 1051
f 1052 1050 1049
f 1050 1046 1045
f 1051 1049 1045
f 1048 1046 1050
f 1054 1056 1055
f 1056 1060 1059
f 1060 1058 1057
f 1058 1054 1053
f 1059 1057 1053
f 1056 1054 1058
f 1062 1064 1063
f 1064 1068 1067
f 1068 1066 1065
f 1066 1062 1061
f 1067 1065 1061
f 1064 1062 1066
f 1070 1072 1071
f 1072 1076 1075
f 1076 1074 1073
f 1074 1070 1069
f 1075 1073 1069
f 1072 1070 1074
f 1078 1080 1079
f 1080 1084 1083
f 1084 1082 1081
f 1082 1078 1077
f 1083 1081 1077
f 1080 1078 1082
f 1086 1088 1087
f 1088 1092 1091
f 1092 1090 1089
f 1090 1086 1085
f 1091 1089 1085
f 1088 1086 1090
f 1094 1096 1095
f 1096 1100 1099
f 1100 1098 1097
f 1098 1094 1093
f 1099 1097 1093
f 1096 1094 1098
f 1102 1104 1103
f 1104 1108 1107
f 1108 1106 1105
f 1106 1102 1101
f 1107 1105 1101
f 1104 1102 1106
f 1110 1112 1111
f 1112 1116 1115
f 1116 1114 1113
f 1114 1110 1109
f 1115 1113 1109
f 1112 1110 1114
f 1118 1120 1119
f 1120 1124 1123
f 1124 1122 1121
f 1122 1118 1117
f 1123 1121 1117
f 1120 1118 1122
f 1126 1128 1127
f 1128 1132 1131
f 1132 1130 1129
f 1130 1126 1125
f 1131 1129 1125
f 1128 1126 1130
f 1134 1136 1135
f 1136 1140 1139
f 1140 1138 1137
f 1138 1134 1133
f 1139 1137 1133
f 1136 1134 1138
f 1142 1144 1143
f 1144 1148 1147
f 1148 1146 1145
f 1146 1142 1141
f 1147 1145 1141
f 1144 1142 1146
f 1150 1152 1151
f 1152 1156 1155
f 1156 1154 1153
f 1154 1150 1149
f 1155 1153 1149
f 1152 1150 1154
f 1158 1160 1159
f 1160 1164 1163
f 1164 1162 1161
f 1162 1158 1157
f 1163 1161 1157
f 1160 1158 1162
f 1166 1168 1167
f 1168 1172 1171
f 1172 1170 1169
f 1170 1166 1165
f 1171 1169 1165
f 1168 1166 1170
f 1174 1176 1175
f 1176 1180 1179
f 1180 1178 1177
f 1178 1174 1173
f 1179 1177 1173
f 1176 1174 1178
f 1182 1184 1183
f 1184 1188 1187
f 1188 1186 1185
f 1186 1182 1181
f 1187 1185 1181
f 1184 1182 1186
f 1190 1192 1191
f 1192 1196 1195
f 1196 1194 1193
f 1194 1190 1189
f 1195 1193 1189
f 1192 1190 1194
f 1198 1200 1199
f 1200 1204 1203
f 1204 1202 1201
f 1202 1198 1197
f 1203 1201 1197
f 1200 1198 1202
f 1206 1208 1207
f 1208 1212 1211
f 1212 1210 1209
f 1210 1206 1205
f 1211 1209 1205
f 1208 1206 1210
f 1214 1216 1215
f 1216 1220 1219
f 1220 1218 1217
f 1218 1214 1213
f 1219 1217 1213
f 1216 1214 1218
f 1222 1224 1223
f 1224 1228 1227
f 1228 1226 1225
f 1226 1222 1221
f 1227 1225 1221
f 1224 1222 1226
f 1230 1232 1231
f 1232 1236 1235
f 1236 1234 1233
f 1234 1230 1229
f 1235 1233 1229
f 1232 1230 1234
f 1238 1240 1239
f 1240 1244 1243
f 1244 1242 1241
f 1242 1238 1237
f 1243 1241 1237
f 1240 1238 1242
usemtl Mat9
f 1329 1327 1334
f 1327 1315 1320
f 1315 1313 1320
f 1313 1301 1306
f 1301 1299 1306
f 1294 1292 1299
f 1315 1329 1287
f 1287 1285 1292
f 1285 1329 1334
f 1327 1313 1299
f 1416 1415 1422
f 1409 1408 1415
f 1408 1395 1401
f 1401 1388 1394
f 1394 1381 1387
f 1387 1374 1380
f 1388 1395 1402
f 1374 1373 1380
f 1367 1422 1373
f 1380 1373 1401
f 1315 1322 1329
f 1329 1280 1287
f 1287 1294 1315
f 1294 1301 1315
f 1301 1308 1315
f 1285 1334 1327
f 1327 1320 1313
f 1313 1306 1299
f 1299 1292 1285
f 1285 1327 1299
f 1402 1409 1416
f 1416 1367 1402
f 1367 1374 1402
f 1374 1381 1402
f 1381 1388 1402
f 1373 1422 1401
f 1422 1415 1401
f 1415 1408 1401
f 1401 1394 1387
f 1387 1380 1401
f 1329 1322 1327
f 1327 1322 1315
f 1315 1308 1313
f 1313 1308 1301
f 1301 1294 1299
f 1294 1287 1292
f 1287 1280 1285
f 1285 1280 1329
f 1416 1409 1415
f 1409 1402 1408
f 1408 1402 1395
f 1401 1395 1388
f 1394 1388 1381
f 1387 1381 1374
f 1374 1367 1373
f 1367 1416 1422
