# source: models.blend / Military_Assets / 06_Fighter
# generated by tools/export_builtin_obj.py (Task69) - do not hand-edit
mtllib Unit_Fighter.mtl
v -0.3200 1.6200 -7.1000
v -0.5800 1.4200 -5.6000
v 0.5800 1.4200 -5.6000
v 0.3200 1.6200 -7.1000
v -0.3200 2.2200 -7.1000
v -0.5800 2.4200 -5.6000
v 0.5800 2.4200 -5.6000
v 0.3200 2.2200 -7.1000
v -0.5800 1.4200 -5.6000
v -0.7400 1.2600 -3.2000
v 0.7400 1.2600 -3.2000
v 0.5800 1.4200 -5.6000
v -0.5800 2.4200 -5.6000
v -0.7400 2.6000 -3.2000
v 0.7400 2.6000 -3.2000
v 0.5800 2.4200 -5.6000
v -0.7400 1.2600 -3.2000
v -0.8200 1.2000 0.0000
v 0.8200 1.2000 0.0000
v 0.7400 1.2600 -3.2000
v -0.7400 2.6000 -3.2000
v -0.8200 2.7000 0.0000
v 0.8200 2.7000 0.0000
v 0.7400 2.6000 -3.2000
v -0.8200 1.2000 0.0000
v -0.7600 1.2400 2.4000
v 0.7600 1.2400 2.4000
v 0.8200 1.2000 0.0000
v -0.8200 2.7000 0.0000
v -0.7600 2.6600 2.4000
v 0.7600 2.6600 2.4000
v 0.8200 2.7000 0.0000
v -0.7600 1.2400 2.4000
v -0.6200 1.3800 4.2000
v 0.6200 1.3800 4.2000
v 0.7600 1.2400 2.4000
v -0.7600 2.6600 2.4000
v -0.6200 2.7400 4.2000
v 0.6200 2.7400 4.2000
v 0.7600 2.6600 2.4000
v -0.6200 1.3800 4.2000
v -0.4400 1.5200 5.7000
v 0.4400 1.5200 5.7000
v 0.6200 1.3800 4.2000
v -0.6200 2.7400 4.2000
v -0.4400 2.5000 5.7000
v 0.4400 2.5000 5.7000
v 0.6200 2.7400 4.2000
v -0.4400 1.5200 5.7000
v -0.2400 1.6800 6.8000
v 0.2400 1.6800 6.8000
v 0.4400 1.5200 5.7000
v -0.4400 2.5000 5.7000
v -0.2400 2.1800 6.8000
v 0.2400 2.1800 6.8000
v 0.4400 2.5000 5.7000
v -0.2400 1.6800 6.8000
v -0.0500 1.8600 7.5500
v 0.0500 1.8600 7.5500
v 0.2400 1.6800 6.8000
v -0.2400 2.1800 6.8000
v -0.0500 2.0000 7.5500
v 0.0500 2.0000 7.5500
v 0.2400 2.1800 6.8000
v -0.4600 2.6600 3.2000
v -0.1000 2.6400 2.5500
v 0.0300 1.9300 7.5500
v 0.0300 1.9300 8.2500
v 0.0000 1.9000 7.5500
v 0.0000 1.9000 8.2500
v -0.0300 1.9300 7.5500
v -0.0300 1.9300 8.2500
v 0.0000 1.9600 7.5500
v 0.0000 1.9600 8.2500
v 0.4600 2.6600 3.2000
v 0.1000 2.6400 2.5500
v -0.1000 2.6600 2.5500
v -0.4600 3.0600 3.2000
v 0.4600 3.0600 3.2000
v 0.1000 2.6600 2.5500
v -0.4600 2.6600 3.2000
v -0.5000 2.7000 4.3000
v 0.5000 2.7000 4.3000
v 0.4600 2.6600 3.2000
v -0.4600 3.0600 3.2000
v -0.5000 3.1400 4.3000
v 0.5000 3.1400 4.3000
v 0.4600 3.0600 3.2000
v -0.5000 2.7000 4.3000
v -0.3600 2.6200 5.3000
v 0.3600 2.6200 5.3000
v 0.5000 2.7000 4.3000
v -0.5000 3.1400 4.3000
v -0.3600 2.9000 5.3000
v 0.3600 2.9000 5.3000
v 0.5000 3.1400 4.3000
v -0.3600 2.6200 5.3000
v -0.1000 2.5200 6.0000
v 0.1000 2.5200 6.0000
v 0.3600 2.6200 5.3000
v -0.3600 2.9000 5.3000
v -0.1000 2.6000 6.0000
v 0.1000 2.6000 6.0000
v 0.3600 2.9000 5.3000
v -0.2600 2.6400 1.8000
v -0.2600 2.8000 1.8000
v 0.2600 2.6400 1.8000
v 0.2600 2.8000 1.8000
v -0.2600 2.6400 2.9000
v -0.2600 2.8000 2.9000
v 0.2600 2.6400 2.9000
v 0.2600 2.8000 2.9000
v -0.5800 0.6700 2.8500
v -0.5800 1.4900 2.8500
v 0.5800 0.6700 2.8500
v 0.5800 1.4900 2.8500
v -0.5800 0.6700 5.5500
v -0.5800 1.4900 5.5500
v 0.5800 0.6700 5.5500
v 0.5800 1.4900 5.5500
v -0.6100 0.6600 5.4300
v -0.6100 1.5400 5.4300
v 0.6100 0.6600 5.4300
v 0.6100 1.5400 5.4300
v -0.6100 0.6600 5.6100
v -0.6100 1.5400 5.6100
v 0.6100 0.6600 5.6100
v 0.6100 1.5400 5.6100
v -0.4800 0.7900 5.3300
v -0.4800 1.4100 5.3300
v 0.4800 0.7900 5.3300
v 0.4800 1.4100 5.3300
v -0.4800 0.7900 5.6300
v -0.4800 1.4100 5.6300
v 0.4800 0.7900 5.6300
v 0.4800 1.4100 5.6300
v 0.6000 1.8600 3.6000
v 1.4000 1.8500 1.8000
v 1.4000 1.8500 1.5500
v 0.6000 1.8600 1.7000
v 0.6000 2.0400 3.6000
v 1.4000 1.9500 1.8000
v 1.4000 1.9500 1.5500
v 0.6000 2.0400 1.7000
v -0.6000 1.8600 3.6000
v -1.4000 1.8500 1.8000
v -1.4000 1.8500 1.5500
v -0.6000 1.8600 1.7000
v -0.6000 2.0400 3.6000
v -1.4000 1.9500 1.8000
v -1.4000 1.9500 1.5500
v -0.6000 2.0400 1.7000
v 0.8000 1.6600 1.7000
v 5.1000 1.9300 -2.2000
v 5.1000 1.9300 -3.9500
v 0.8000 1.6600 -3.8000
v 0.8000 1.9800 1.7000
v 5.1000 2.0300 -2.2000
v 5.1000 2.0300 -3.9500
v 0.8000 1.9800 -3.8000
v -0.8000 1.6600 1.7000
v -5.1000 1.9300 -2.2000
v -5.1000 1.9300 -3.9500
v -0.8000 1.6600 -3.8000
v -0.8000 1.9800 1.7000
v -5.1000 2.0300 -2.2000
v -5.1000 2.0300 -3.9500
v -0.8000 1.9800 -3.8000
v 0.5500 1.8100 -4.3000
v 2.8500 1.9600 -5.6000
v 2.8500 1.9600 -6.9500
v 0.5500 1.8100 -6.6000
v 0.5500 2.0300 -4.3000
v 2.8500 2.0400 -5.6000
v 2.8500 2.0400 -6.9500
v 0.5500 2.0300 -6.6000
v -0.5500 1.8100 -4.3000
v -2.8500 1.9600 -5.6000
v -2.8500 1.9600 -6.9500
v -0.5500 1.8100 -6.6000
v -0.5500 2.0300 -4.3000
v -2.8500 2.0400 -5.6000
v -2.8500 2.0400 -6.9500
v -0.5500 2.0300 -6.6000
v -0.0900 2.3500 -6.7000
v -0.0900 2.3500 -2.9000
v -0.0900 5.6000 -4.4000
v -0.0900 5.6000 -6.3000
v 0.0900 2.3500 -6.7000
v 0.0900 2.3500 -2.9000
v 0.0900 5.6000 -4.4000
v 0.0900 5.6000 -6.3000
v -0.1000 5.4700 -5.9000
v -0.1000 5.7700 -5.9000
v 0.1000 5.4700 -5.9000
v 0.1000 5.7700 -5.9000
v -0.1000 5.4700 -4.8000
v -0.1000 5.7700 -4.8000
v 0.1000 5.4700 -4.8000
v 0.1000 5.7700 -4.8000
v 0.5200 1.5500 -6.6500
v 0.5200 1.6200 -4.9500
v 0.5200 0.7200 -5.5500
v 0.5200 0.9200 -6.6500
v 0.6200 1.5500 -6.6500
v 0.6200 1.6200 -4.9500
v 0.6200 0.7200 -5.5500
v 0.6200 0.9200 -6.6500
v -0.5200 1.5500 -6.6500
v -0.5200 1.6200 -4.9500
v -0.5200 0.7200 -5.5500
v -0.5200 0.9200 -6.6500
v -0.6200 1.5500 -6.6500
v -0.6200 1.6200 -4.9500
v -0.6200 0.7200 -5.5500
v -0.6200 0.9200 -6.6500
v -0.0500 1.3500 4.0000
v -0.0500 0.7500 4.0000
v 0.6600 1.9200 -7.7000
v 0.5600 1.9200 -7.0000
v 0.5716 1.5900 -7.7000
v 0.4850 1.6400 -7.0000
v 0.3300 1.3484 -7.7000
v 0.2800 1.4350 -7.0000
v 0.0000 1.2600 -7.7000
v 0.0000 1.3600 -7.0000
v -0.3300 1.3484 -7.7000
v -0.2800 1.4350 -7.0000
v -0.5716 1.5900 -7.7000
v -0.4850 1.6400 -7.0000
v -0.6600 1.9200 -7.7000
v -0.5600 1.9200 -7.0000
v -0.5716 2.2500 -7.7000
v -0.4850 2.2000 -7.0000
v -0.3300 2.4916 -7.7000
v -0.2800 2.4050 -7.0000
v 0.0000 2.5800 -7.7000
v 0.0000 2.4800 -7.0000
v 0.3300 2.4916 -7.7000
v 0.2800 2.4050 -7.0000
v 0.5716 2.2500 -7.7000
v 0.4850 2.2000 -7.0000
v 0.4600 1.9200 -7.7750
v 0.4600 1.9200 -7.3250
v 0.3984 1.6900 -7.7750
v 0.3984 1.6900 -7.3250
v 0.2300 1.5216 -7.7750
v 0.2300 1.5216 -7.3250
v 0.0000 1.4600 -7.7750
v 0.0000 1.4600 -7.3250
v -0.2300 1.5216 -7.7750
v -0.2300 1.5216 -7.3250
v -0.3984 1.6900 -7.7750
v -0.3984 1.6900 -7.3250
v -0.4600 1.9200 -7.7750
v -0.4600 1.9200 -7.3250
v -0.3984 2.1500 -7.7750
v -0.3984 2.1500 -7.3250
v -0.2300 2.3184 -7.7750
v -0.2300 2.3184 -7.3250
v 0.0000 2.3800 -7.7750
v 0.0000 2.3800 -7.3250
v 0.2300 2.3184 -7.7750
v 0.2300 2.3184 -7.3250
v 0.3984 2.1500 -7.7750
v 0.3984 2.1500 -7.3250
v 0.0750 0.3000 4.6000
v 0.0750 1.2800 4.6000
v 0.0375 0.3000 4.6650
v 0.0375 1.2800 4.6650
v -0.0375 0.3000 4.6650
v -0.0375 1.2800 4.6650
v -0.0750 0.3000 4.6000
v -0.0750 1.2800 4.6000
v -0.0375 0.3000 4.5350
v -0.0375 1.2800 4.5350
v 0.0375 0.3000 4.5350
v 0.0375 1.2800 4.5350
v 0.0800 0.5200 4.6000
v -0.0800 0.5200 4.6000
v 0.0800 0.4703 4.7528
v -0.0800 0.4703 4.7528
v 0.0800 0.3403 4.8473
v -0.0800 0.3403 4.8473
v 0.0800 0.1797 4.8473
v -0.0800 0.1797 4.8473
v 0.0800 0.0497 4.7528
v -0.0800 0.0497 4.7528
v 0.0800 0.0000 4.6000
v -0.0800 0.0000 4.6000
v 0.0800 0.0497 4.4472
v -0.0800 0.0497 4.4472
v 0.0800 0.1797 4.3527
v -0.0800 0.1797 4.3527
v 0.0800 0.3403 4.3527
v -0.0800 0.3403 4.3527
v 0.0800 0.4703 4.4472
v -0.0800 0.4703 4.4472
v 0.0952 0.3952 4.6000
v 0.0392 0.3952 4.6000
v 0.0952 0.3694 4.6795
v 0.0392 0.3694 4.6795
v 0.0952 0.3018 4.7286
v 0.0392 0.3018 4.7286
v 0.0952 0.2182 4.7286
v 0.0392 0.2182 4.7286
v 0.0952 0.1506 4.6795
v 0.0392 0.1506 4.6795
v 0.0952 0.1248 4.6000
v 0.0392 0.1248 4.6000
v 0.0952 0.1506 4.5205
v 0.0392 0.1506 4.5205
v 0.0952 0.2182 4.4714
v 0.0392 0.2182 4.4714
v 0.0952 0.3018 4.4714
v 0.0392 0.3018 4.4714
v 0.0952 0.3694 4.5205
v 0.0392 0.3694 4.5205
v 0.0500 0.7500 4.0000
v 0.0500 1.3500 4.0000
v -0.0500 0.7500 4.6000
v -0.0500 1.3500 4.6000
v 0.0500 0.7500 4.6000
v 0.0500 1.3500 4.6000
v 1.0000 0.9250 -0.9500
v 1.0000 1.4750 -0.9500
v 1.2400 0.2950 -0.4000
v 1.2400 1.3450 -0.4000
v 1.1950 0.2950 -0.3221
v 1.1950 1.3450 -0.3221
v 1.1050 0.2950 -0.3221
v 1.1050 1.3450 -0.3221
v 1.0600 0.2950 -0.4000
v 1.0600 1.3450 -0.4000
v 1.1050 0.2950 -0.4779
v 1.1050 1.3450 -0.4779
v 1.1950 0.2950 -0.4779
v 1.1950 1.3450 -0.4779
v 1.2600 0.6400 -0.4000
v 1.0400 0.6400 -0.4000
v 1.2600 0.5789 -0.2119
v 1.0400 0.5789 -0.2119
v 1.2600 0.4189 -0.0957
v 1.0400 0.4189 -0.0957
v 1.2600 0.2211 -0.0957
v 1.0400 0.2211 -0.0957
v 1.2600 0.0611 -0.2119
v 1.0400 0.0611 -0.2119
v 1.2600 0.0000 -0.4000
v 1.0400 0.0000 -0.4000
v 1.2600 0.0611 -0.5881
v 1.0400 0.0611 -0.5881
v 1.2600 0.2211 -0.7043
v 1.0400 0.2211 -0.7043
v 1.2600 0.4189 -0.7043
v 1.0400 0.4189 -0.7043
v 1.2600 0.5789 -0.5881
v 1.0400 0.5789 -0.5881
v 1.2809 0.4864 -0.4000
v 1.2039 0.4864 -0.4000
v 1.2809 0.4546 -0.3022
v 1.2039 0.4546 -0.3022
v 1.2809 0.3714 -0.2417
v 1.2039 0.3714 -0.2417
v 1.2809 0.2686 -0.2417
v 1.2039 0.2686 -0.2417
v 1.2809 0.1854 -0.3022
v 1.2039 0.1854 -0.3022
v 1.2809 0.1536 -0.4000
v 1.2039 0.1536 -0.4000
v 1.2809 0.1854 -0.4978
v 1.2039 0.1854 -0.4978
v 1.2809 0.2686 -0.5583
v 1.2039 0.2686 -0.5583
v 1.2809 0.3714 -0.5583
v 1.2039 0.3714 -0.5583
v 1.2809 0.4546 -0.4978
v 1.2039 0.4546 -0.4978
v 1.1000 0.9250 -0.9500
v 1.1000 1.4750 -0.9500
v 1.0000 0.9250 -0.2500
v 1.0000 1.4750 -0.2500
v 1.1000 0.9250 -0.2500
v 1.1000 1.4750 -0.2500
v 5.0850 1.9650 -3.7380
v 5.0850 1.9350 -3.7380
v 5.1900 1.9500 -3.6570
v 5.1900 1.9500 -1.4430
v 5.1636 1.8864 -3.6570
v 5.1636 1.8864 -1.4430
v 5.1000 1.8600 -3.6570
v 5.1000 1.8600 -1.4430
v 5.0364 1.8864 -3.6570
v 5.0364 1.8864 -1.4430
v 5.0100 1.9500 -3.6570
v 5.0100 1.9500 -1.4430
v 5.0364 2.0136 -3.6570
v 5.0364 2.0136 -1.4430
v 5.1000 2.0400 -3.6570
v 5.1000 2.0400 -1.4430
v 5.1636 2.0136 -3.6570
v 5.1636 2.0136 -1.4430
v 5.1900 1.9500 -1.4700
v 5.1150 1.9500 -0.9300
v 5.1636 1.8864 -1.4700
v 5.1106 1.9394 -0.9300
v 5.1000 1.8600 -1.4700
v 5.1000 1.9350 -0.9300
v 5.0364 1.8864 -1.4700
v 5.0894 1.9394 -0.9300
v 5.0100 1.9500 -1.4700
v 5.0850 1.9500 -0.9300
v 5.0364 2.0136 -1.4700
v 5.0894 1.9606 -0.9300
v 5.1000 2.0400 -1.4700
v 5.1000 1.9650 -0.9300
v 5.1636 2.0136 -1.4700
v 5.1106 1.9606 -0.9300
v 5.1150 1.9350 -3.7380
v 5.1150 1.9650 -3.7380
v 5.0850 1.9350 -3.1980
v 5.0850 1.9650 -3.1980
v 5.1150 1.9350 -3.1980
v 5.1150 1.9650 -3.1980
v 5.0850 1.9350 -3.7110
v 5.0850 1.9650 -3.7110
v 5.5550 1.9350 -3.7110
v 5.5550 1.9650 -3.7110
v 5.0850 1.9350 -3.2250
v 5.0850 1.9650 -3.2250
v 5.5550 1.9350 -3.2250
v 5.5550 1.9650 -3.2250
v 5.0850 1.9350 -2.3610
v 5.0850 1.9650 -2.3610
v 5.3790 1.9350 -2.3610
v 5.3790 1.9650 -2.3610
v 5.0850 1.9350 -1.9830
v 5.0850 1.9650 -1.9830
v 5.3790 1.9350 -1.9830
v 5.3790 1.9650 -1.9830
v 5.1150 1.9350 -3.7380
v 5.0850 1.9350 -3.7380
v 5.1150 1.9650 -3.7380
v 5.0850 1.9650 -3.7380
v 5.1150 1.9350 -3.1980
v 5.0850 1.9350 -3.1980
v 5.1150 1.9650 -3.1980
v 5.0850 1.9650 -3.1980
v 5.0850 1.9350 -3.7110
v 5.0850 2.4050 -3.7110
v 5.1150 1.9350 -3.7110
v 5.1150 2.4050 -3.7110
v 5.0850 1.9350 -3.2250
v 5.0850 2.4050 -3.2250
v 5.1150 1.9350 -3.2250
v 5.1150 2.4050 -3.2250
v 5.0850 1.9350 -2.3610
v 5.0850 2.2290 -2.3610
v 5.1150 1.9350 -2.3610
v 5.1150 2.2290 -2.3610
v 5.0850 1.9350 -1.9830
v 5.0850 2.2290 -1.9830
v 5.1150 1.9350 -1.9830
v 5.1150 2.2290 -1.9830
v 5.1150 1.9650 -3.7380
v 5.1150 1.9350 -3.7380
v 5.0850 1.9650 -3.7380
v 5.0850 1.9350 -3.7380
v 5.1150 1.9650 -3.1980
v 5.1150 1.9350 -3.1980
v 5.0850 1.9650 -3.1980
v 5.0850 1.9350 -3.1980
v 4.6450 1.9350 -3.7110
v 4.6450 1.9650 -3.7110
v 5.1150 1.9350 -3.7110
v 5.1150 1.9650 -3.7110
v 4.6450 1.9350 -3.2250
v 4.6450 1.9650 -3.2250
v 5.1150 1.9350 -3.2250
v 5.1150 1.9650 -3.2250
v 5.0850 1.9650 -3.7380
v 5.1150 1.9650 -3.7380
v 5.0850 1.9350 -3.7380
v 5.1150 1.9350 -3.7380
v 5.0850 1.9650 -3.1980
v 5.1150 1.9650 -3.1980
v 5.0850 1.9350 -3.1980
v 5.1150 1.9350 -3.1980
v 5.0850 1.4950 -3.7110
v 5.0850 1.9650 -3.7110
v 5.1150 1.4950 -3.7110
v 5.1150 1.9650 -3.7110
v 5.0850 1.4950 -3.2250
v 5.0850 1.9650 -3.2250
v 5.1150 1.4950 -3.2250
v 5.1150 1.9650 -3.2250
v 2.6200 1.4100 -1.3250
v 2.6200 1.7500 -1.3250
v 2.7800 1.4100 -1.3250
v 2.7800 1.7500 -1.3250
v 2.6200 1.4100 -0.7750
v 2.6200 1.7500 -0.7750
v 2.7800 1.4100 -0.7750
v 2.7800 1.7500 -0.7750
v 3.8850 1.6350 -2.3120
v 3.8850 1.6050 -2.3120
v 3.0000 1.2800 -2.4000
v 3.0000 1.2800 0.0000
v 2.9427 1.1037 -2.4000
v 2.9427 1.1037 0.0000
v 2.7927 0.9947 -2.4000
v 2.7927 0.9947 0.0000
v 2.6073 0.9947 -2.4000
v 2.6073 0.9947 0.0000
v 2.4573 1.1037 -2.4000
v 2.4573 1.1037 0.0000
v 2.4000 1.2800 -2.4000
v 2.4000 1.2800 0.0000
v 2.4573 1.4563 -2.4000
v 2.4573 1.4563 0.0000
v 2.6073 1.5653 -2.4000
v 2.6073 1.5653 0.0000
v 2.7927 1.5653 -2.4000
v 2.7927 1.5653 0.0000
v 2.9427 1.4563 -2.4000
v 2.9427 1.4563 0.0000
v 3.0000 1.2800 -0.0250
v 2.7600 1.2800 0.7250
v 2.9427 1.1037 -0.0250
v 2.7485 1.2447 0.7250
v 2.7927 0.9947 -0.0250
v 2.7185 1.2229 0.7250
v 2.6073 0.9947 -0.0250
v 2.6815 1.2229 0.7250
v 2.4573 1.1037 -0.0250
v 2.6515 1.2447 0.7250
v 2.4000 1.2800 -0.0250
v 2.6400 1.2800 0.7250
v 2.4573 1.4563 -0.0250
v 2.6515 1.3153 0.7250
v 2.6073 1.5653 -0.0250
v 2.6815 1.3371 0.7250
v 2.7927 1.5653 -0.0250
v 2.7185 1.3371 0.7250
v 2.9427 1.4563 -0.0250
v 2.7485 1.3153 0.7250
v 3.0000 1.2800 -3.0000
v 2.8200 1.2800 -2.4000
v 2.9427 1.1037 -3.0000
v 2.7971 1.2095 -2.4000
v 2.7927 0.9947 -3.0000
v 2.7371 1.1659 -2.4000
v 2.6073 0.9947 -3.0000
v 2.6629 1.1659 -2.4000
v 2.4573 1.1037 -3.0000
v 2.6029 1.2095 -2.4000
v 2.4000 1.2800 -3.0000
v 2.5800 1.2800 -2.4000
v 2.4573 1.4563 -3.0000
v 2.6029 1.3505 -2.4000
v 2.6073 1.5653 -3.0000
v 2.6629 1.3941 -2.4000
v 2.7927 1.5653 -3.0000
v 2.7371 1.3941 -2.4000
v 2.9427 1.4563 -3.0000
v 2.7971 1.3505 -2.4000
v 3.9800 1.6200 -2.2430
v 3.9800 1.6200 -0.3570
v 3.9566 1.5634 -2.2430
v 3.9566 1.5634 -0.3570
v 3.9000 1.5400 -2.2430
v 3.9000 1.5400 -0.3570
v 3.8434 1.5634 -2.2430
v 3.8434 1.5634 -0.3570
v 3.8200 1.6200 -2.2430
v 3.8200 1.6200 -0.3570
v 3.8434 1.6766 -2.2430
v 3.8434 1.6766 -0.3570
v 3.9000 1.7000 -2.2430
v 3.9000 1.7000 -0.3570
v 3.9566 1.6766 -2.2430
v 3.9566 1.6766 -0.3570
v 3.9800 1.6200 -0.3800
v 3.9150 1.6200 0.0800
v 3.9566 1.5634 -0.3800
v 3.9106 1.6094 0.0800
v 3.9000 1.5400 -0.3800
v 3.9000 1.6050 0.0800
v 3.8434 1.5634 -0.3800
v 3.8894 1.6094 0.0800
v 3.8200 1.6200 -0.3800
v 3.8850 1.6200 0.0800
v 3.8434 1.6766 -0.3800
v 3.8894 1.6306 0.0800
v 3.9000 1.7000 -0.3800
v 3.9000 1.6350 0.0800
v 3.9566 1.6766 -0.3800
v 3.9106 1.6306 0.0800
v 3.9150 1.6050 -2.3120
v 3.9150 1.6350 -2.3120
v 3.8850 1.6050 -1.8520
v 3.8850 1.6350 -1.8520
v 3.9150 1.6050 -1.8520
v 3.9150 1.6350 -1.8520
v 3.8850 1.6050 -2.2890
v 3.8850 1.6350 -2.2890
v 4.3550 1.6050 -2.2890
v 4.3550 1.6350 -2.2890
v 3.8850 1.6050 -1.8750
v 3.8850 1.6350 -1.8750
v 4.3550 1.6050 -1.8750
v 4.3550 1.6350 -1.8750
v 3.8850 1.6050 -1.1390
v 3.8850 1.6350 -1.1390
v 4.1790 1.6050 -1.1390
v 4.1790 1.6350 -1.1390
v 3.8850 1.6050 -0.8170
v 3.8850 1.6350 -0.8170
v 4.1790 1.6050 -0.8170
v 4.1790 1.6350 -0.8170
v 3.9150 1.6050 -2.3120
v 3.8850 1.6050 -2.3120
v 3.9150 1.6350 -2.3120
v 3.8850 1.6350 -2.3120
v 3.9150 1.6050 -1.8520
v 3.8850 1.6050 -1.8520
v 3.9150 1.6350 -1.8520
v 3.8850 1.6350 -1.8520
v 3.8850 1.6050 -2.2890
v 3.8850 2.0750 -2.2890
v 3.9150 1.6050 -2.2890
v 3.9150 2.0750 -2.2890
v 3.8850 1.6050 -1.8750
v 3.8850 2.0750 -1.8750
v 3.9150 1.6050 -1.8750
v 3.9150 2.0750 -1.8750
v 3.8850 1.6050 -1.1390
v 3.8850 1.8990 -1.1390
v 3.9150 1.6050 -1.1390
v 3.9150 1.8990 -1.1390
v 3.8850 1.6050 -0.8170
v 3.8850 1.8990 -0.8170
v 3.9150 1.6050 -0.8170
v 3.9150 1.8990 -0.8170
v 3.9150 1.6350 -2.3120
v 3.9150 1.6050 -2.3120
v 3.8850 1.6350 -2.3120
v 3.8850 1.6050 -2.3120
v 3.9150 1.6350 -1.8520
v 3.9150 1.6050 -1.8520
v 3.8850 1.6350 -1.8520
v 3.8850 1.6050 -1.8520
v 3.4450 1.6050 -2.2890
v 3.4450 1.6350 -2.2890
v 3.9150 1.6050 -2.2890
v 3.9150 1.6350 -2.2890
v 3.4450 1.6050 -1.8750
v 3.4450 1.6350 -1.8750
v 3.9150 1.6050 -1.8750
v 3.9150 1.6350 -1.8750
v 3.8850 1.6350 -2.3120
v 3.9150 1.6350 -2.3120
v 3.8850 1.6050 -2.3120
v 3.9150 1.6050 -2.3120
v 3.8850 1.6350 -1.8520
v 3.9150 1.6350 -1.8520
v 3.8850 1.6050 -1.8520
v 3.9150 1.6050 -1.8520
v 3.8850 1.1650 -2.2890
v 3.8850 1.6350 -2.2890
v 3.9150 1.1650 -2.2890
v 3.9150 1.6350 -2.2890
v 3.8850 1.1650 -1.8750
v 3.8850 1.6350 -1.8750
v 3.9150 1.1650 -1.8750
v 3.9150 1.6350 -1.8750
v -1.1000 0.9250 -0.9500
v -1.1000 1.4750 -0.9500
v -1.0600 0.2950 -0.4000
v -1.0600 1.3450 -0.4000
v -1.1050 0.2950 -0.3221
v -1.1050 1.3450 -0.3221
v -1.1950 0.2950 -0.3221
v -1.1950 1.3450 -0.3221
v -1.2400 0.2950 -0.4000
v -1.2400 1.3450 -0.4000
v -1.1950 0.2950 -0.4779
v -1.1950 1.3450 -0.4779
v -1.1050 0.2950 -0.4779
v -1.1050 1.3450 -0.4779
v -1.0400 0.6400 -0.4000
v -1.2600 0.6400 -0.4000
v -1.0400 0.5789 -0.2119
v -1.2600 0.5789 -0.2119
v -1.0400 0.4189 -0.0957
v -1.2600 0.4189 -0.0957
v -1.0400 0.2211 -0.0957
v -1.2600 0.2211 -0.0957
v -1.0400 0.0611 -0.2119
v -1.2600 0.0611 -0.2119
v -1.0400 0.0000 -0.4000
v -1.2600 0.0000 -0.4000
v -1.0400 0.0611 -0.5881
v -1.2600 0.0611 -0.5881
v -1.0400 0.2211 -0.7043
v -1.2600 0.2211 -0.7043
v -1.0400 0.4189 -0.7043
v -1.2600 0.4189 -0.7043
v -1.0400 0.5789 -0.5881
v -1.2600 0.5789 -0.5881
v -1.2039 0.4864 -0.4000
v -1.2809 0.4864 -0.4000
v -1.2039 0.4546 -0.3022
v -1.2809 0.4546 -0.3022
v -1.2039 0.3714 -0.2417
v -1.2809 0.3714 -0.2417
v -1.2039 0.2686 -0.2417
v -1.2809 0.2686 -0.2417
v -1.2039 0.1854 -0.3022
v -1.2809 0.1854 -0.3022
v -1.2039 0.1536 -0.4000
v -1.2809 0.1536 -0.4000
v -1.2039 0.1854 -0.4978
v -1.2809 0.1854 -0.4978
v -1.2039 0.2686 -0.5583
v -1.2809 0.2686 -0.5583
v -1.2039 0.3714 -0.5583
v -1.2809 0.3714 -0.5583
v -1.2039 0.4546 -0.4978
v -1.2809 0.4546 -0.4978
v -1.0000 0.9250 -0.9500
v -1.0000 1.4750 -0.9500
v -1.1000 0.9250 -0.2500
v -1.1000 1.4750 -0.2500
v -1.0000 0.9250 -0.2500
v -1.0000 1.4750 -0.2500
v -5.1150 1.9650 -3.7380
v -5.1150 1.9350 -3.7380
v -5.0100 1.9500 -3.6570
v -5.0100 1.9500 -1.4430
v -5.0364 1.8864 -3.6570
v -5.0364 1.8864 -1.4430
v -5.1000 1.8600 -3.6570
v -5.1000 1.8600 -1.4430
v -5.1636 1.8864 -3.6570
v -5.1636 1.8864 -1.4430
v -5.1900 1.9500 -3.6570
v -5.1900 1.9500 -1.4430
v -5.1636 2.0136 -3.6570
v -5.1636 2.0136 -1.4430
v -5.1000 2.0400 -3.6570
v -5.1000 2.0400 -1.4430
v -5.0364 2.0136 -3.6570
v -5.0364 2.0136 -1.4430
v -5.0100 1.9500 -1.4700
v -5.0850 1.9500 -0.9300
v -5.0364 1.8864 -1.4700
v -5.0894 1.9394 -0.9300
v -5.1000 1.8600 -1.4700
v -5.1000 1.9350 -0.9300
v -5.1636 1.8864 -1.4700
v -5.1106 1.9394 -0.9300
v -5.1900 1.9500 -1.4700
v -5.1150 1.9500 -0.9300
v -5.1636 2.0136 -1.4700
v -5.1106 1.9606 -0.9300
v -5.1000 2.0400 -1.4700
v -5.1000 1.9650 -0.9300
v -5.0364 2.0136 -1.4700
v -5.0894 1.9606 -0.9300
v -5.0850 1.9350 -3.7380
v -5.0850 1.9650 -3.7380
v -5.1150 1.9350 -3.1980
v -5.1150 1.9650 -3.1980
v -5.0850 1.9350 -3.1980
v -5.0850 1.9650 -3.1980
v -5.1150 1.9350 -3.7110
v -5.1150 1.9650 -3.7110
v -4.6450 1.9350 -3.7110
v -4.6450 1.9650 -3.7110
v -5.1150 1.9350 -3.2250
v -5.1150 1.9650 -3.2250
v -4.6450 1.9350 -3.2250
v -4.6450 1.9650 -3.2250
v -5.1150 1.9350 -2.3610
v -5.1150 1.9650 -2.3610
v -4.8210 1.9350 -2.3610
v -4.8210 1.9650 -2.3610
v -5.1150 1.9350 -1.9830
v -5.1150 1.9650 -1.9830
v -4.8210 1.9350 -1.9830
v -4.8210 1.9650 -1.9830
v -5.0850 1.9350 -3.7380
v -5.1150 1.9350 -3.7380
v -5.0850 1.9650 -3.7380
v -5.1150 1.9650 -3.7380
v -5.0850 1.9350 -3.1980
v -5.1150 1.9350 -3.1980
v -5.0850 1.9650 -3.1980
v -5.1150 1.9650 -3.1980
v -5.1150 1.9350 -3.7110
v -5.1150 2.4050 -3.7110
v -5.0850 1.9350 -3.7110
v -5.0850 2.4050 -3.7110
v -5.1150 1.9350 -3.2250
v -5.1150 2.4050 -3.2250
v -5.0850 1.9350 -3.2250
v -5.0850 2.4050 -3.2250
v -5.1150 1.9350 -2.3610
v -5.1150 2.2290 -2.3610
v -5.0850 1.9350 -2.3610
v -5.0850 2.2290 -2.3610
v -5.1150 1.9350 -1.9830
v -5.1150 2.2290 -1.9830
v -5.0850 1.9350 -1.9830
v -5.0850 2.2290 -1.9830
v -5.0850 1.9650 -3.7380
v -5.0850 1.9350 -3.7380
v -5.1150 1.9650 -3.7380
v -5.1150 1.9350 -3.7380
v -5.0850 1.9650 -3.1980
v -5.0850 1.9350 -3.1980
v -5.1150 1.9650 -3.1980
v -5.1150 1.9350 -3.1980
v -5.5550 1.9350 -3.7110
v -5.5550 1.9650 -3.7110
v -5.0850 1.9350 -3.7110
v -5.0850 1.9650 -3.7110
v -5.5550 1.9350 -3.2250
v -5.5550 1.9650 -3.2250
v -5.0850 1.9350 -3.2250
v -5.0850 1.9650 -3.2250
v -5.1150 1.9650 -3.7380
v -5.0850 1.9650 -3.7380
v -5.1150 1.9350 -3.7380
v -5.0850 1.9350 -3.7380
v -5.1150 1.9650 -3.1980
v -5.0850 1.9650 -3.1980
v -5.1150 1.9350 -3.1980
v -5.0850 1.9350 -3.1980
v -5.1150 1.4950 -3.7110
v -5.1150 1.9650 -3.7110
v -5.0850 1.4950 -3.7110
v -5.0850 1.9650 -3.7110
v -5.1150 1.4950 -3.2250
v -5.1150 1.9650 -3.2250
v -5.0850 1.4950 -3.2250
v -5.0850 1.9650 -3.2250
v -2.7800 1.4100 -1.3250
v -2.7800 1.7500 -1.3250
v -2.6200 1.4100 -1.3250
v -2.6200 1.7500 -1.3250
v -2.7800 1.4100 -0.7750
v -2.7800 1.7500 -0.7750
v -2.6200 1.4100 -0.7750
v -2.6200 1.7500 -0.7750
v -3.9150 1.6350 -2.3120
v -3.9150 1.6050 -2.3120
v -2.4000 1.2800 -2.4000
v -2.4000 1.2800 0.0000
v -2.4573 1.1037 -2.4000
v -2.4573 1.1037 0.0000
v -2.6073 0.9947 -2.4000
v -2.6073 0.9947 0.0000
v -2.7927 0.9947 -2.4000
v -2.7927 0.9947 0.0000
v -2.9427 1.1037 -2.4000
v -2.9427 1.1037 0.0000
v -3.0000 1.2800 -2.4000
v -3.0000 1.2800 0.0000
v -2.9427 1.4563 -2.4000
v -2.9427 1.4563 0.0000
v -2.7927 1.5653 -2.4000
v -2.7927 1.5653 0.0000
v -2.6073 1.5653 -2.4000
v -2.6073 1.5653 0.0000
v -2.4573 1.4563 -2.4000
v -2.4573 1.4563 0.0000
v -2.4000 1.2800 -0.0250
v -2.6400 1.2800 0.7250
v -2.4573 1.1037 -0.0250
v -2.6515 1.2447 0.7250
v -2.6073 0.9947 -0.0250
v -2.6815 1.2229 0.7250
v -2.7927 0.9947 -0.0250
v -2.7185 1.2229 0.7250
v -2.9427 1.1037 -0.0250
v -2.7485 1.2447 0.7250
v -3.0000 1.2800 -0.0250
v -2.7600 1.2800 0.7250
v -2.9427 1.4563 -0.0250
v -2.7485 1.3153 0.7250
v -2.7927 1.5653 -0.0250
v -2.7185 1.3371 0.7250
v -2.6073 1.5653 -0.0250
v -2.6815 1.3371 0.7250
v -2.4573 1.4563 -0.0250
v -2.6515 1.3153 0.7250
v -2.4000 1.2800 -3.0000
v -2.5800 1.2800 -2.4000
v -2.4573 1.1037 -3.0000
v -2.6029 1.2095 -2.4000
v -2.6073 0.9947 -3.0000
v -2.6629 1.1659 -2.4000
v -2.7927 0.9947 -3.0000
v -2.7371 1.1659 -2.4000
v -2.9427 1.1037 -3.0000
v -2.7971 1.2095 -2.4000
v -3.0000 1.2800 -3.0000
v -2.8200 1.2800 -2.4000
v -2.9427 1.4563 -3.0000
v -2.7971 1.3505 -2.4000
v -2.7927 1.5653 -3.0000
v -2.7371 1.3941 -2.4000
v -2.6073 1.5653 -3.0000
v -2.6629 1.3941 -2.4000
v -2.4573 1.4563 -3.0000
v -2.6029 1.3505 -2.4000
v -3.8200 1.6200 -2.2430
v -3.8200 1.6200 -0.3570
v -3.8434 1.5634 -2.2430
v -3.8434 1.5634 -0.3570
v -3.9000 1.5400 -2.2430
v -3.9000 1.5400 -0.3570
v -3.9566 1.5634 -2.2430
v -3.9566 1.5634 -0.3570
v -3.9800 1.6200 -2.2430
v -3.9800 1.6200 -0.3570
v -3.9566 1.6766 -2.2430
v -3.9566 1.6766 -0.3570
v -3.9000 1.7000 -2.2430
v -3.9000 1.7000 -0.3570
v -3.8434 1.6766 -2.2430
v -3.8434 1.6766 -0.3570
v -3.8200 1.6200 -0.3800
v -3.8850 1.6200 0.0800
v -3.8434 1.5634 -0.3800
v -3.8894 1.6094 0.0800
v -3.9000 1.5400 -0.3800
v -3.9000 1.6050 0.0800
v -3.9566 1.5634 -0.3800
v -3.9106 1.6094 0.0800
v -3.9800 1.6200 -0.3800
v -3.9150 1.6200 0.0800
v -3.9566 1.6766 -0.3800
v -3.9106 1.6306 0.0800
v -3.9000 1.7000 -0.3800
v -3.9000 1.6350 0.0800
v -3.8434 1.6766 -0.3800
v -3.8894 1.6306 0.0800
v -3.8850 1.6050 -2.3120
v -3.8850 1.6350 -2.3120
v -3.9150 1.6050 -1.8520
v -3.9150 1.6350 -1.8520
v -3.8850 1.6050 -1.8520
v -3.8850 1.6350 -1.8520
v -3.9150 1.6050 -2.2890
v -3.9150 1.6350 -2.2890
v -3.4450 1.6050 -2.2890
v -3.4450 1.6350 -2.2890
v -3.9150 1.6050 -1.8750
v -3.9150 1.6350 -1.8750
v -3.4450 1.6050 -1.8750
v -3.4450 1.6350 -1.8750
v -3.9150 1.6050 -1.1390
v -3.9150 1.6350 -1.1390
v -3.6210 1.6050 -1.1390
v -3.6210 1.6350 -1.1390
v -3.9150 1.6050 -0.8170
v -3.9150 1.6350 -0.8170
v -3.6210 1.6050 -0.8170
v -3.6210 1.6350 -0.8170
v -3.8850 1.6050 -2.3120
v -3.9150 1.6050 -2.3120
v -3.8850 1.6350 -2.3120
v -3.9150 1.6350 -2.3120
v -3.8850 1.6050 -1.8520
v -3.9150 1.6050 -1.8520
v -3.8850 1.6350 -1.8520
v -3.9150 1.6350 -1.8520
v -3.9150 1.6050 -2.2890
v -3.9150 2.0750 -2.2890
v -3.8850 1.6050 -2.2890
v -3.8850 2.0750 -2.2890
v -3.9150 1.6050 -1.8750
v -3.9150 2.0750 -1.8750
v -3.8850 1.6050 -1.8750
v -3.8850 2.0750 -1.8750
v -3.9150 1.6050 -1.1390
v -3.9150 1.8990 -1.1390
v -3.8850 1.6050 -1.1390
v -3.8850 1.8990 -1.1390
v -3.9150 1.6050 -0.8170
v -3.9150 1.8990 -0.8170
v -3.8850 1.6050 -0.8170
v -3.8850 1.8990 -0.8170
v -3.8850 1.6350 -2.3120
v -3.8850 1.6050 -2.3120
v -3.9150 1.6350 -2.3120
v -3.9150 1.6050 -2.3120
v -3.8850 1.6350 -1.8520
v -3.8850 1.6050 -1.8520
v -3.9150 1.6350 -1.8520
v -3.9150 1.6050 -1.8520
v -4.3550 1.6050 -2.2890
v -4.3550 1.6350 -2.2890
v -3.8850 1.6050 -2.2890
v -3.8850 1.6350 -2.2890
v -4.3550 1.6050 -1.8750
v -4.3550 1.6350 -1.8750
v -3.8850 1.6050 -1.8750
v -3.8850 1.6350 -1.8750
v -3.9150 1.6350 -2.3120
v -3.8850 1.6350 -2.3120
v -3.9150 1.6050 -2.3120
v -3.8850 1.6050 -2.3120
v -3.9150 1.6350 -1.8520
v -3.8850 1.6350 -1.8520
v -3.9150 1.6050 -1.8520
v -3.8850 1.6050 -1.8520
v -3.9150 1.1650 -2.2890
v -3.9150 1.6350 -2.2890
v -3.8850 1.1650 -2.2890
v -3.8850 1.6350 -2.2890
v -3.9150 1.1650 -1.8750
v -3.9150 1.6350 -1.8750
v -3.8850 1.1650 -1.8750
v -3.8850 1.6350 -1.8750
usemtl Mat0
f 4 2 1
f 5 7 8
f 2 5 1
f 3 6 2
f 4 7 3
f 1 8 4
f 9 11 10
f 16 14 15
f 10 13 9
f 11 14 10
f 11 16 15
f 9 16 12
f 20 18 17
f 21 23 24
f 18 21 17
f 19 22 18
f 19 24 23
f 17 24 20
f 28 26 25
f 29 31 32
f 26 29 25
f 27 30 26
f 28 31 27
f 25 32 28
f 36 34 33
f 37 39 40
f 34 37 33
f 35 38 34
f 35 40 39
f 33 40 36
f 44 42 41
f 45 47 48
f 41 46 45
f 43 46 42
f 44 47 43
f 41 48 44
f 106 107 105
f 108 111 107
f 112 109 111
f 110 105 109
f 111 105 107
f 108 110 112
f 114 115 113
f 116 119 115
f 120 117 119
f 118 113 117
f 119 113 115
f 116 118 120
f 140 138 137
f 144 142 143
f 137 142 141
f 139 142 138
f 140 143 139
f 137 144 140
f 146 148 145
f 152 150 149
f 145 150 146
f 150 147 146
f 151 148 147
f 152 145 148
f 156 154 153
f 160 158 159
f 154 157 153
f 155 158 154
f 155 160 159
f 153 160 156
f 162 164 161
f 168 166 165
f 165 162 161
f 166 163 162
f 163 168 164
f 168 161 164
f 172 170 169
f 176 174 175
f 170 173 169
f 171 174 170
f 171 176 175
f 169 176 172
f 178 180 177
f 184 182 181
f 181 178 177
f 182 179 178
f 179 184 180
f 184 177 180
f 185 187 188
f 191 189 192
f 189 186 185
f 190 187 186
f 191 188 187
f 192 185 188
f 201 203 202
f 205 207 208
f 202 205 201
f 203 206 202
f 204 207 203
f 201 208 204
f 209 211 212
f 215 213 216
f 213 210 209
f 214 211 210
f 215 212 211
f 216 209 212
f 308 309 307
f 310 311 309
f 323 218 319
f 304 305 303
f 302 303 301
f 322 218 321
f 382 325 381
f 300 301 299
f 306 307 305
f 320 322 324
f 362 363 361
f 324 321 323
f 312 313 311
f 320 323 319
f 314 315 313
f 300 316 312
f 217 319 218
f 316 317 315
f 370 371 369
f 368 369 367
f 318 299 317
f 299 303 307
f 364 365 363
f 383 325 379
f 360 361 359
f 366 367 365
f 380 382 384
f 384 381 383
f 372 373 371
f 380 383 379
f 374 375 373
f 362 378 374
f 326 379 325
f 376 377 375
f 378 359 377
f 375 363 367
f 498 499 497
f 500 503 499
f 504 501 503
f 502 497 501
f 503 497 499
f 500 502 504
f 538 539 537
f 532 533 531
f 508 509 507
f 554 555 553
f 510 511 509
f 512 513 511
f 535 538 537
f 530 531 529
f 514 515 513
f 516 517 515
f 518 519 517
f 533 536 535
f 528 529 527
f 520 521 519
f 550 551 549
f 552 553 551
f 522 523 521
f 508 524 516
f 557 560 559
f 524 525 523
f 556 557 555
f 526 507 525
f 517 521 525
f 547 550 549
f 539 542 541
f 541 544 543
f 538 536 528
f 544 545 543
f 546 527 545
f 541 545 533
f 560 561 559
f 562 563 561
f 566 558 554
f 564 565 563
f 566 547 565
f 547 549 557
f 720 721 719
f 714 715 713
f 736 733 735
f 734 677 733
f 716 717 715
f 722 723 721
f 735 677 731
f 718 719 717
f 712 713 711
f 732 734 736
f 724 725 723
f 732 735 731
f 726 727 725
f 678 731 677
f 729 713 717
f 728 729 727
f 730 711 729
f 712 728 724
f 850 851 849
f 852 855 851
f 856 853 855
f 854 849 853
f 855 849 851
f 852 854 856
f 889 892 891
f 884 885 883
f 860 861 859
f 906 907 905
f 862 863 861
f 864 865 863
f 888 889 887
f 882 883 881
f 866 867 865
f 868 869 867
f 870 871 869
f 886 887 885
f 880 881 879
f 872 873 871
f 902 903 901
f 904 905 903
f 874 875 873
f 860 876 868
f 909 912 911
f 876 877 875
f 907 910 909
f 878 859 877
f 869 873 877
f 900 901 899
f 892 893 891
f 893 896 895
f 890 888 880
f 896 897 895
f 897 880 879
f 893 897 885
f 911 914 913
f 914 915 913
f 918 910 906
f 915 918 917
f 918 899 917
f 899 901 909
f 312 310 304
f 310 308 304
f 308 306 304
f 304 302 300
f 300 318 316
f 316 314 312
f 304 300 312
f 307 309 315
f 309 311 315
f 311 313 315
f 315 317 299
f 299 301 303
f 303 305 307
f 315 299 307
f 374 372 370
f 370 368 374
f 368 366 374
f 366 364 362
f 362 360 378
f 378 376 374
f 366 362 374
f 367 369 371
f 371 373 367
f 373 375 367
f 375 377 363
f 377 359 363
f 359 361 363
f 363 365 367
f 512 510 508
f 508 526 524
f 524 522 520
f 520 518 524
f 518 516 524
f 516 514 512
f 512 508 516
f 525 507 513
f 507 509 513
f 509 511 513
f 513 515 517
f 517 519 521
f 521 523 525
f 513 517 525
f 536 534 528
f 534 532 528
f 532 530 528
f 528 546 544
f 544 542 528
f 542 540 528
f 540 538 528
f 537 539 541
f 541 543 545
f 545 527 533
f 527 529 533
f 529 531 533
f 533 535 537
f 537 541 533
f 554 552 550
f 550 548 554
f 548 566 554
f 566 564 558
f 564 562 558
f 562 560 558
f 558 556 554
f 549 551 557
f 551 553 557
f 553 555 557
f 557 559 561
f 561 563 557
f 563 565 557
f 565 547 557
f 721 723 725
f 725 727 729
f 729 711 713
f 713 715 717
f 717 719 721
f 721 725 717
f 725 729 717
f 720 718 716
f 716 714 712
f 712 730 728
f 728 726 724
f 724 722 712
f 722 720 712
f 720 716 712
f 864 862 860
f 860 878 876
f 876 874 872
f 872 870 876
f 870 868 876
f 868 866 864
f 864 860 868
f 877 859 865
f 859 861 865
f 861 863 865
f 865 867 869
f 869 871 873
f 873 875 877
f 865 869 877
f 888 886 880
f 886 884 880
f 884 882 880
f 880 898 896
f 896 894 880
f 894 892 880
f 892 890 880
f 889 891 893
f 893 895 897
f 897 879 885
f 879 881 885
f 881 883 885
f 885 887 889
f 889 893 885
f 906 904 902
f 902 900 906
f 900 918 906
f 918 916 910
f 916 914 910
f 914 912 910
f 910 908 906
f 901 903 909
f 903 905 909
f 905 907 909
f 909 911 913
f 913 915 909
f 915 917 909
f 917 899 909
f 4 3 2
f 5 6 7
f 2 6 5
f 3 7 6
f 4 8 7
f 1 5 8
f 9 12 11
f 16 13 14
f 10 14 13
f 11 15 14
f 11 12 16
f 9 13 16
f 20 19 18
f 21 22 23
f 18 22 21
f 19 23 22
f 19 20 24
f 17 21 24
f 28 27 26
f 29 30 31
f 26 30 29
f 27 31 30
f 28 32 31
f 25 29 32
f 36 35 34
f 37 38 39
f 34 38 37
f 35 39 38
f 35 36 40
f 33 37 40
f 44 43 42
f 45 46 47
f 41 42 46
f 43 47 46
f 44 48 47
f 41 45 48
f 106 108 107
f 108 112 111
f 112 110 109
f 110 106 105
f 111 109 105
f 108 106 110
f 114 116 115
f 116 120 119
f 120 118 117
f 118 114 113
f 119 117 113
f 116 114 118
f 140 139 138
f 144 141 142
f 137 138 142
f 139 143 142
f 140 144 143
f 137 141 144
f 146 147 148
f 152 151 150
f 145 149 150
f 150 151 147
f 151 152 148
f 152 149 145
f 156 155 154
f 160 157 158
f 154 158 157
f 155 159 158
f 155 156 160
f 153 157 160
f 162 163 164
f 168 167 166
f 165 166 162
f 166 167 163
f 163 167 168
f 168 165 161
f 172 171 170
f 176 173 174
f 170 174 173
f 171 175 174
f 171 172 176
f 169 173 176
f 178 179 180
f 184 183 182
f 181 182 178
f 182 183 179
f 179 183 184
f 184 181 177
f 185 186 187
f 191 190 189
f 189 190 186
f 190 191 187
f 191 192 188
f 192 189 185
f 201 204 203
f 205 206 207
f 202 206 205
f 203 207 206
f 204 208 207
f 201 205 208
f 209 210 211
f 215 214 213
f 213 214 210
f 214 215 211
f 215 216 212
f 216 213 209
f 308 310 309
f 310 312 311
f 323 321 218
f 304 306 305
f 302 304 303
f 322 217 218
f 382 326 325
f 300 302 301
f 306 308 307
f 320 217 322
f 362 364 363
f 324 322 321
f 312 314 313
f 320 324 323
f 314 316 315
f 217 320 319
f 316 318 317
f 370 372 371
f 368 370 369
f 318 300 299
f 364 366 365
f 383 381 325
f 360 362 361
f 366 368 367
f 380 326 382
f 384 382 381
f 372 374 373
f 380 384 383
f 374 376 375
f 326 380 379
f 376 378 377
f 378 360 359
f 498 500 499
f 500 504 503
f 504 502 501
f 502 498 497
f 503 501 497
f 500 498 502
f 538 540 539
f 532 534 533
f 508 510 509
f 554 556 555
f 510 512 511
f 512 514 513
f 535 536 538
f 530 532 531
f 514 516 515
f 516 518 517
f 518 520 519
f 533 534 536
f 528 530 529
f 520 522 521
f 550 552 551
f 552 554 553
f 522 524 523
f 557 558 560
f 524 526 525
f 556 558 557
f 526 508 507
f 547 548 550
f 539 540 542
f 541 542 544
f 544 546 545
f 546 528 527
f 560 562 561
f 562 564 563
f 564 566 565
f 566 548 547
f 720 722 721
f 714 716 715
f 736 734 733
f 734 678 677
f 716 718 717
f 722 724 723
f 735 733 677
f 718 720 719
f 712 714 713
f 732 678 734
f 724 726 725
f 732 736 735
f 726 728 727
f 678 732 731
f 728 730 729
f 730 712 711
f 850 852 851
f 852 856 855
f 856 854 853
f 854 850 849
f 855 853 849
f 852 850 854
f 889 890 892
f 884 886 885
f 860 862 861
f 906 908 907
f 862 864 863
f 864 866 865
f 888 890 889
f 882 884 883
f 866 868 867
f 868 870 869
f 870 872 871
f 886 888 887
f 880 882 881
f 872 874 873
f 902 904 903
f 904 906 905
f 874 876 875
f 909 910 912
f 876 878 877
f 907 908 910
f 878 860 859
f 900 902 901
f 892 894 893
f 893 894 896
f 896 898 897
f 897 898 880
f 911 912 914
f 914 916 915
f 915 916 918
f 918 900 899
usemtl Mat1
f 52 50 49
f 53 55 56
f 49 54 53
f 51 54 50
f 52 55 51
f 49 56 52
f 57 59 58
f 64 62 63
f 57 62 61
f 59 62 58
f 60 63 59
f 57 64 60
f 68 69 67
f 70 71 69
f 70 74 72
f 72 73 71
f 74 67 73
f 69 73 67
f 122 123 121
f 124 127 123
f 128 125 127
f 126 121 125
f 127 121 123
f 124 126 128
f 194 195 193
f 196 199 195
f 200 197 199
f 198 193 197
f 199 193 195
f 196 198 200
f 410 411 409
f 219 222 221
f 222 223 221
f 224 225 223
f 226 227 225
f 228 229 227
f 230 231 229
f 231 234 233
f 233 236 235
f 236 237 235
f 431 425 427
f 237 240 239
f 240 232 224
f 240 241 239
f 242 219 241
f 225 233 241
f 423 386 419
f 422 386 421
f 434 435 433
f 430 425 429
f 405 408 407
f 428 431 427
f 411 414 413
f 404 405 403
f 407 410 409
f 436 439 435
f 426 427 425
f 424 421 423
f 428 430 432
f 420 423 419
f 432 429 431
f 413 416 415
f 385 419 386
f 405 409 413
f 416 417 415
f 420 422 424
f 440 437 439
f 418 403 417
f 418 416 414
f 438 433 437
f 439 433 435
f 436 438 440
f 442 443 441
f 444 447 443
f 448 445 447
f 446 441 445
f 447 441 443
f 444 446 448
f 450 451 449
f 452 455 451
f 456 453 455
f 454 449 453
f 455 449 451
f 452 454 456
f 458 459 457
f 460 463 459
f 464 461 463
f 462 457 461
f 463 457 459
f 460 462 464
f 466 467 465
f 468 471 467
f 472 469 471
f 470 465 469
f 471 465 467
f 468 470 472
f 474 475 473
f 476 479 475
f 480 477 479
f 478 473 477
f 479 473 475
f 476 478 480
f 482 483 481
f 484 487 483
f 488 485 487
f 486 481 485
f 487 481 483
f 484 486 488
f 490 491 489
f 492 495 491
f 496 493 495
f 494 489 493
f 495 489 491
f 492 494 496
f 587 590 589
f 584 585 583
f 611 605 607
f 600 602 604
f 589 592 591
f 586 587 585
f 592 593 591
f 620 617 619
f 608 610 612
f 604 601 603
f 606 607 605
f 602 506 601
f 616 619 615
f 610 605 609
f 603 506 599
f 612 609 611
f 600 603 599
f 594 595 593
f 598 594 590
f 505 599 506
f 595 598 597
f 614 615 613
f 608 611 607
f 597 584 583
f 591 595 583
f 618 613 617
f 619 613 615
f 616 618 620
f 622 623 621
f 624 627 623
f 628 625 627
f 626 621 625
f 627 621 623
f 624 626 628
f 630 631 629
f 632 635 631
f 636 633 635
f 634 629 633
f 635 629 631
f 632 634 636
f 638 639 637
f 640 643 639
f 644 641 643
f 642 637 641
f 643 637 639
f 640 642 644
f 646 647 645
f 648 651 647
f 652 649 651
f 650 645 649
f 651 645 647
f 648 650 652
f 654 655 653
f 656 659 655
f 660 657 659
f 658 653 657
f 659 653 655
f 656 658 660
f 662 663 661
f 664 667 663
f 668 665 667
f 666 661 665
f 667 661 663
f 664 666 668
f 670 671 669
f 672 675 671
f 676 673 675
f 674 669 673
f 675 669 671
f 672 674 676
f 783 777 779
f 782 777 781
f 786 787 785
f 780 783 779
f 764 765 763
f 762 763 761
f 758 759 757
f 775 738 771
f 774 738 773
f 755 758 757
f 760 761 759
f 788 791 787
f 778 779 777
f 776 773 775
f 780 782 784
f 772 775 771
f 784 781 783
f 765 768 767
f 737 771 738
f 759 763 767
f 768 769 767
f 772 774 776
f 792 789 791
f 770 755 769
f 770 768 766
f 790 785 789
f 791 785 787
f 788 790 792
f 794 795 793
f 796 799 795
f 800 797 799
f 798 793 797
f 799 793 795
f 796 798 800
f 802 803 801
f 804 807 803
f 808 805 807
f 806 801 805
f 807 801 803
f 804 806 808
f 810 811 809
f 812 815 811
f 816 813 815
f 814 809 813
f 815 809 811
f 812 814 816
f 818 819 817
f 820 823 819
f 824 821 823
f 822 817 821
f 823 817 819
f 820 822 824
f 826 827 825
f 828 831 827
f 832 829 831
f 830 825 829
f 831 825 827
f 828 830 832
f 834 835 833
f 836 839 835
f 840 837 839
f 838 833 837
f 839 833 835
f 836 838 840
f 842 843 841
f 844 847 843
f 848 845 847
f 846 841 845
f 847 841 843
f 844 846 848
f 939 942 941
f 936 937 935
f 963 957 959
f 952 954 956
f 941 944 943
f 938 939 937
f 944 945 943
f 972 969 971
f 960 962 964
f 956 953 955
f 958 959 957
f 954 858 953
f 968 971 967
f 962 957 961
f 955 858 951
f 964 961 963
f 952 955 951
f 946 947 945
f 950 946 942
f 857 951 858
f 947 950 949
f 966 967 965
f 960 963 959
f 950 935 949
f 943 947 935
f 970 965 969
f 971 965 967
f 968 970 972
f 974 975 973
f 976 979 975
f 980 977 979
f 978 973 977
f 979 973 975
f 976 978 980
f 982 983 981
f 984 987 983
f 988 985 987
f 986 981 985
f 987 981 983
f 984 986 988
f 990 991 989
f 992 995 991
f 996 993 995
f 994 989 993
f 995 989 991
f 992 994 996
f 998 999 997
f 1000 1003 999
f 1004 1001 1003
f 1002 997 1001
f 1003 997 999
f 1000 1002 1004
f 1006 1007 1005
f 1008 1011 1007
f 1012 1009 1011
f 1010 1005 1009
f 1011 1005 1007
f 1008 1010 1012
f 1014 1015 1013
f 1016 1019 1015
f 1020 1017 1019
f 1018 1013 1017
f 1019 1013 1015
f 1016 1018 1020
f 1022 1023 1021
f 1024 1027 1023
f 1028 1025 1027
f 1026 1021 1025
f 1027 1021 1023
f 1024 1026 1028
f 224 222 220
f 220 242 224
f 242 240 224
f 240 238 236
f 236 234 240
f 234 232 240
f 232 230 228
f 228 226 224
f 232 228 224
f 241 219 221
f 221 223 241
f 223 225 241
f 225 227 229
f 229 231 233
f 233 235 237
f 237 239 233
f 239 241 233
f 225 229 233
f 405 407 409
f 409 411 413
f 413 415 405
f 415 417 405
f 417 403 405
f 414 412 406
f 412 410 406
f 410 408 406
f 406 404 414
f 404 418 414
f 590 588 586
f 586 584 598
f 598 596 594
f 594 592 590
f 590 586 598
f 587 589 591
f 591 593 595
f 595 597 583
f 583 585 587
f 587 591 583
f 755 757 759
f 759 761 763
f 763 765 767
f 767 769 755
f 755 759 767
f 766 764 758
f 764 762 758
f 762 760 758
f 758 756 766
f 756 770 766
f 942 940 938
f 938 936 950
f 950 948 946
f 946 944 942
f 942 938 950
f 939 941 943
f 943 945 947
f 947 949 935
f 935 937 939
f 939 943 935
f 52 51 50
f 53 54 55
f 49 50 54
f 51 55 54
f 52 56 55
f 49 53 56
f 57 60 59
f 64 61 62
f 57 58 62
f 59 63 62
f 60 64 63
f 57 61 64
f 68 70 69
f 70 72 71
f 70 68 74
f 72 74 73
f 74 68 67
f 69 71 73
f 122 124 123
f 124 128 127
f 128 126 125
f 126 122 121
f 127 125 121
f 124 122 126
f 194 196 195
f 196 200 199
f 200 198 197
f 198 194 193
f 199 197 193
f 196 194 198
f 410 412 411
f 219 220 222
f 222 224 223
f 224 226 225
f 226 228 227
f 228 230 229
f 230 232 231
f 231 232 234
f 233 234 236
f 236 238 237
f 431 429 425
f 237 238 240
f 240 242 241
f 242 220 219
f 423 421 386
f 422 385 386
f 434 436 435
f 430 426 425
f 405 406 408
f 428 432 431
f 411 412 414
f 404 406 405
f 407 408 410
f 436 440 439
f 426 428 427
f 424 422 421
f 428 426 430
f 420 424 423
f 432 430 429
f 413 414 416
f 385 420 419
f 416 418 417
f 420 385 422
f 440 438 437
f 418 404 403
f 438 434 433
f 439 437 433
f 436 434 438
f 442 444 443
f 444 448 447
f 448 446 445
f 446 442 441
f 447 445 441
f 444 442 446
f 450 452 451
f 452 456 455
f 456 454 453
f 454 450 449
f 455 453 449
f 452 450 454
f 458 460 459
f 460 464 463
f 464 462 461
f 462 458 457
f 463 461 457
f 460 458 462
f 466 468 467
f 468 472 471
f 472 470 469
f 470 466 465
f 471 469 465
f 468 466 470
f 474 476 475
f 476 480 479
f 480 478 477
f 478 474 473
f 479 477 473
f 476 474 478
f 482 484 483
f 484 488 487
f 488 486 485
f 486 482 481
f 487 485 481
f 484 482 486
f 490 492 491
f 492 496 495
f 496 494 493
f 494 490 489
f 495 493 489
f 492 490 494
f 587 588 590
f 584 586 585
f 611 609 605
f 600 505 602
f 589 590 592
f 586 588 587
f 592 594 593
f 620 618 617
f 608 606 610
f 604 602 601
f 606 608 607
f 602 505 506
f 616 620 619
f 610 606 605
f 603 601 506
f 612 610 609
f 600 604 603
f 594 596 595
f 505 600 599
f 595 596 598
f 614 616 615
f 608 612 611
f 597 598 584
f 618 614 613
f 619 617 613
f 616 614 618
f 622 624 623
f 624 628 627
f 628 626 625
f 626 622 621
f 627 625 621
f 624 622 626
f 630 632 631
f 632 636 635
f 636 634 633
f 634 630 629
f 635 633 629
f 632 630 634
f 638 640 639
f 640 644 643
f 644 642 641
f 642 638 637
f 643 641 637
f 640 638 642
f 646 648 647
f 648 652 651
f 652 650 649
f 650 646 645
f 651 649 645
f 648 646 650
f 654 656 655
f 656 660 659
f 660 658 657
f 658 654 653
f 659 657 653
f 656 654 658
f 662 664 663
f 664 668 667
f 668 666 665
f 666 662 661
f 667 665 661
f 664 662 666
f 670 672 671
f 672 676 675
f 676 674 673
f 674 670 669
f 675 673 669
f 672 670 674
f 783 781 777
f 782 778 777
f 786 788 787
f 780 784 783
f 764 766 765
f 762 764 763
f 758 760 759
f 775 773 738
f 774 737 738
f 755 756 758
f 760 762 761
f 788 792 791
f 778 780 779
f 776 774 773
f 780 778 782
f 772 776 775
f 784 782 781
f 765 766 768
f 737 772 771
f 768 770 769
f 772 737 774
f 792 790 789
f 770 756 755
f 790 786 785
f 791 789 785
f 788 786 790
f 794 796 795
f 796 800 799
f 800 798 797
f 798 794 793
f 799 797 793
f 796 794 798
f 802 804 803
f 804 808 807
f 808 806 805
f 806 802 801
f 807 805 801
f 804 802 806
f 810 812 811
f 812 816 815
f 816 814 813
f 814 810 809
f 815 813 809
f 812 810 814
f 818 820 819
f 820 824 823
f 824 822 821
f 822 818 817
f 823 821 817
f 820 818 822
f 826 828 827
f 828 832 831
f 832 830 829
f 830 826 825
f 831 829 825
f 828 826 830
f 834 836 835
f 836 840 839
f 840 838 837
f 838 834 833
f 839 837 833
f 836 834 838
f 842 844 843
f 844 848 847
f 848 846 845
f 846 842 841
f 847 845 841
f 844 842 846
f 939 940 942
f 936 938 937
f 963 961 957
f 952 857 954
f 941 942 944
f 938 940 939
f 944 946 945
f 972 970 969
f 960 958 962
f 956 954 953
f 958 960 959
f 954 857 858
f 968 972 971
f 962 958 957
f 955 953 858
f 964 962 961
f 952 956 955
f 946 948 947
f 857 952 951
f 947 948 950
f 966 968 967
f 960 964 963
f 950 936 935
f 970 966 965
f 971 969 965
f 968 966 970
f 974 976 975
f 976 980 979
f 980 978 977
f 978 974 973
f 979 977 973
f 976 974 978
f 982 984 983
f 984 988 987
f 988 986 985
f 986 982 981
f 987 985 981
f 984 982 986
f 990 992 991
f 992 996 995
f 996 994 993
f 994 990 989
f 995 993 989
f 992 990 994
f 998 1000 999
f 1000 1004 1003
f 1004 1002 1001
f 1002 998 997
f 1003 1001 997
f 1000 998 1002
f 1006 1008 1007
f 1008 1012 1011
f 1012 1010 1009
f 1010 1006 1005
f 1011 1009 1005
f 1008 1006 1010
f 1014 1016 1015
f 1016 1020 1019
f 1020 1018 1017
f 1018 1014 1013
f 1019 1017 1013
f 1016 1014 1018
f 1022 1024 1023
f 1024 1028 1027
f 1028 1026 1025
f 1026 1022 1021
f 1027 1025 1021
f 1024 1022 1026
usemtl Mat2
f 66 80 76
f 65 77 66
f 84 82 81
f 77 79 80
f 66 75 65
f 75 80 79
f 75 78 65
f 85 87 88
f 82 85 81
f 83 86 82
f 83 88 87
f 81 88 84
f 92 90 89
f 93 95 96
f 89 94 93
f 91 94 90
f 92 95 91
f 89 96 92
f 100 98 97
f 101 103 104
f 97 102 101
f 99 102 98
f 100 103 99
f 97 104 100
f 66 77 80
f 65 78 77
f 84 83 82
f 77 78 79
f 66 76 75
f 75 76 80
f 75 79 78
f 85 86 87
f 82 86 85
f 83 87 86
f 83 84 88
f 81 85 88
f 92 91 90
f 93 94 95
f 89 90 94
f 91 95 94
f 92 96 95
f 89 93 96
f 100 99 98
f 101 102 103
f 97 98 102
f 99 103 102
f 100 104 103
f 97 101 104
usemtl Mat3
f 130 131 129
f 132 135 131
f 136 133 135
f 134 129 133
f 135 129 131
f 132 134 136
f 248 249 247
f 254 255 253
f 246 247 245
f 252 253 251
f 244 245 243
f 255 258 257
f 250 251 249
f 257 260 259
f 260 261 259
f 262 263 261
f 246 262 254
f 264 265 263
f 266 243 265
f 263 247 255
f 254 252 250
f 250 248 246
f 246 244 266
f 266 264 262
f 262 260 258
f 258 256 254
f 254 250 246
f 246 266 262
f 262 258 254
f 255 257 259
f 259 261 255
f 261 263 255
f 263 265 243
f 243 245 247
f 247 249 251
f 251 253 255
f 263 243 247
f 247 251 255
f 130 132 131
f 132 136 135
f 136 134 133
f 134 130 129
f 135 133 129
f 132 130 134
f 248 250 249
f 254 256 255
f 246 248 247
f 252 254 253
f 244 246 245
f 255 256 258
f 250 252 251
f 257 258 260
f 260 262 261
f 262 264 263
f 264 266 265
f 266 244 243
usemtl Mat4
f 276 277 275
f 272 268 276
f 332 333 331
f 272 273 271
f 270 271 269
f 278 267 277
f 271 275 267
f 268 269 267
f 274 275 273
f 336 334 332
f 328 329 327
f 334 335 333
f 330 331 329
f 336 337 335
f 338 327 337
f 337 327 329
f 680 681 679
f 682 683 681
f 684 685 683
f 686 687 685
f 688 686 684
f 688 689 687
f 690 679 689
f 687 689 681
f 276 274 272
f 272 270 268
f 268 278 276
f 267 269 271
f 271 273 275
f 275 277 267
f 332 330 336
f 330 328 336
f 328 338 336
f 329 331 337
f 331 333 337
f 333 335 337
f 684 682 688
f 682 680 688
f 680 690 688
f 689 679 681
f 681 683 685
f 685 687 681
f 276 278 277
f 332 334 333
f 272 274 273
f 270 272 271
f 278 268 267
f 268 270 269
f 274 276 275
f 328 330 329
f 334 336 335
f 330 332 331
f 336 338 337
f 338 328 327
f 680 682 681
f 682 684 683
f 684 686 685
f 686 688 687
f 688 690 689
f 690 680 679
usemtl Mat5
f 281 284 283
f 284 285 283
f 285 288 287
f 288 289 287
f 280 281 279
f 340 341 339
f 290 291 289
f 292 293 291
f 294 295 293
f 287 291 295
f 296 297 295
f 298 279 297
f 280 292 288
f 344 345 343
f 342 343 341
f 345 348 347
f 348 349 347
f 350 351 349
f 352 353 351
f 353 356 355
f 349 357 341
f 356 357 355
f 358 339 357
f 340 352 348
f 692 693 691
f 696 697 695
f 694 695 693
f 698 699 697
f 700 701 699
f 702 703 701
f 704 705 703
f 705 708 707
f 706 702 698
f 708 709 707
f 710 691 709
f 699 703 691
f 279 281 287
f 281 283 287
f 283 285 287
f 287 289 291
f 291 293 295
f 295 297 287
f 297 279 287
f 288 286 284
f 284 282 288
f 282 280 288
f 280 298 292
f 298 296 292
f 296 294 292
f 292 290 288
f 341 343 345
f 345 347 349
f 349 351 357
f 351 353 357
f 353 355 357
f 357 339 341
f 341 345 349
f 348 346 344
f 344 342 340
f 340 358 352
f 358 356 352
f 356 354 352
f 352 350 348
f 348 344 340
f 698 696 694
f 694 692 710
f 710 708 706
f 706 704 702
f 702 700 698
f 698 694 710
f 710 706 698
f 695 697 699
f 699 701 703
f 703 705 707
f 707 709 703
f 709 691 703
f 691 693 695
f 695 699 691
f 281 282 284
f 284 286 285
f 285 286 288
f 288 290 289
f 280 282 281
f 340 342 341
f 290 292 291
f 292 294 293
f 294 296 295
f 296 298 297
f 298 280 279
f 344 346 345
f 342 344 343
f 345 346 348
f 348 350 349
f 350 352 351
f 352 354 353
f 353 354 356
f 356 358 357
f 358 340 339
f 692 694 693
f 696 698 697
f 694 696 695
f 698 700 699
f 700 702 701
f 702 704 703
f 704 706 705
f 705 706 708
f 708 710 709
f 710 692 691
usemtl Mat6
f 392 393 391
f 388 389 387
f 394 395 393
f 390 391 389
f 396 397 395
f 398 399 397
f 394 392 400
f 400 401 399
f 402 387 401
f 397 401 389
f 574 575 573
f 576 572 568
f 569 572 571
f 572 573 571
f 578 579 577
f 576 577 575
f 568 569 567
f 579 582 581
f 582 567 581
f 567 571 575
f 743 746 745
f 746 747 745
f 740 741 739
f 742 743 741
f 748 749 747
f 750 751 749
f 744 740 752
f 751 754 753
f 754 739 753
f 739 741 743
f 926 927 925
f 928 924 920
f 922 923 921
f 924 925 923
f 930 931 929
f 928 929 927
f 920 921 919
f 932 933 931
f 934 919 933
f 919 923 927
f 392 390 400
f 390 388 400
f 388 402 400
f 400 398 396
f 396 394 400
f 389 391 397
f 391 393 397
f 393 395 397
f 397 399 401
f 401 387 389
f 580 578 576
f 576 574 572
f 572 570 568
f 568 582 580
f 580 576 568
f 575 577 579
f 579 581 567
f 567 569 571
f 571 573 575
f 575 579 567
f 748 746 744
f 744 742 740
f 740 754 752
f 752 750 748
f 748 744 752
f 743 745 747
f 747 749 743
f 749 751 743
f 751 753 743
f 753 739 743
f 932 930 928
f 928 926 924
f 924 922 920
f 920 934 932
f 932 928 920
f 927 929 931
f 931 933 919
f 919 921 923
f 923 925 927
f 927 931 919
f 392 394 393
f 388 390 389
f 394 396 395
f 390 392 391
f 396 398 397
f 398 400 399
f 400 402 401
f 402 388 387
f 574 576 575
f 569 570 572
f 572 574 573
f 578 580 579
f 576 578 577
f 568 570 569
f 579 580 582
f 582 568 567
f 743 744 746
f 746 748 747
f 740 742 741
f 742 744 743
f 748 750 749
f 750 752 751
f 751 752 754
f 754 740 739
f 926 928 927
f 922 924 923
f 924 926 925
f 930 932 931
f 928 930 929
f 920 922 921
f 932 934 933
f 934 920 919
