# source: models.blend / Military_Assets / 20_Supply_Truck
# generated by tools/export_builtin_obj.py (Task69) - do not hand-edit
mtllib Unit_SupplyTruck.mtl
v -0.4250 0.8500 -3.6000
v -0.4250 0.6300 -3.6000
v 1.1900 1.1000 2.4500
v 0.8500 1.1000 2.4500
v 1.1900 0.9950 2.7733
v 0.8500 0.9950 2.7733
v 1.1900 0.7200 2.9731
v 0.8500 0.7200 2.9731
v 1.1900 0.3800 2.9731
v 0.8500 0.3800 2.9731
v 1.1900 0.1050 2.7733
v 0.8500 0.1050 2.7733
v 1.1900 0.0000 2.4500
v 0.8500 0.0000 2.4500
v 1.1900 0.1050 2.1267
v 0.8500 0.1050 2.1267
v 1.1900 0.3800 1.9269
v 0.8500 0.3800 1.9269
v 1.1900 0.7200 1.9269
v 0.8500 0.7200 1.9269
v 1.1900 0.9950 2.1267
v 0.8500 0.9950 2.1267
v 1.2223 0.8360 2.4500
v 1.1033 0.8360 2.4500
v 1.2223 0.7814 2.6181
v 1.1033 0.7814 2.6181
v 1.2223 0.6384 2.7220
v 1.1033 0.6384 2.7220
v 1.2223 0.4616 2.7220
v 1.1033 0.4616 2.7220
v 1.2223 0.3186 2.6181
v 1.1033 0.3186 2.6181
v 1.2223 0.2640 2.4500
v 1.1033 0.2640 2.4500
v 1.2223 0.3186 2.2819
v 1.1033 0.3186 2.2819
v 1.2223 0.4616 2.1780
v 1.1033 0.4616 2.1780
v 1.2223 0.6384 2.1780
v 1.1033 0.6384 2.1780
v 1.2223 0.7814 2.2819
v 1.1033 0.7814 2.2819
v -0.8500 1.1000 2.4500
v -1.1900 1.1000 2.4500
v -0.8500 0.9950 2.7733
v -1.1900 0.9950 2.7733
v -0.8500 0.7200 2.9731
v -1.1900 0.7200 2.9731
v -0.8500 0.3800 2.9731
v -1.1900 0.3800 2.9731
v -0.8500 0.1050 2.7733
v -1.1900 0.1050 2.7733
v -0.8500 0.0000 2.4500
v -1.1900 0.0000 2.4500
v -0.8500 0.1050 2.1267
v -1.1900 0.1050 2.1267
v -0.8500 0.3800 1.9269
v -1.1900 0.3800 1.9269
v -0.8500 0.7200 1.9269
v -1.1900 0.7200 1.9269
v -0.8500 0.9950 2.1267
v -1.1900 0.9950 2.1267
v -1.1033 0.8360 2.4500
v -1.2223 0.8360 2.4500
v -1.1033 0.7814 2.6181
v -1.2223 0.7814 2.6181
v -1.1033 0.6384 2.7220
v -1.2223 0.6384 2.7220
v -1.1033 0.4616 2.7220
v -1.2223 0.4616 2.7220
v -1.1033 0.3186 2.6181
v -1.2223 0.3186 2.6181
v -1.1033 0.2640 2.4500
v -1.2223 0.2640 2.4500
v -1.1033 0.3186 2.2819
v -1.2223 0.3186 2.2819
v -1.1033 0.4616 2.1780
v -1.2223 0.4616 2.1780
v -1.1033 0.6384 2.1780
v -1.2223 0.6384 2.1780
v -1.1033 0.7814 2.2819
v -1.2223 0.7814 2.2819
v 1.1900 1.1000 -1.5500
v 0.8500 1.1000 -1.5500
v 1.1900 0.9950 -1.2267
v 0.8500 0.9950 -1.2267
v 1.1900 0.7200 -1.0269
v 0.8500 0.7200 -1.0269
v 1.1900 0.3800 -1.0269
v 0.8500 0.3800 -1.0269
v 1.1900 0.1050 -1.2267
v 0.8500 0.1050 -1.2267
v 1.1900 0.0000 -1.5500
v 0.8500 0.0000 -1.5500
v 1.1900 0.1050 -1.8733
v 0.8500 0.1050 -1.8733
v 1.1900 0.3800 -2.0731
v 0.8500 0.3800 -2.0731
v 1.1900 0.7200 -2.0731
v 0.8500 0.7200 -2.0731
v 1.1900 0.9950 -1.8733
v 0.8500 0.9950 -1.8733
v 1.2223 0.8360 -1.5500
v 1.1033 0.8360 -1.5500
v 1.2223 0.7814 -1.3819
v 1.1033 0.7814 -1.3819
v 1.2223 0.6384 -1.2780
v 1.1033 0.6384 -1.2780
v 1.2223 0.4616 -1.2780
v 1.1033 0.4616 -1.2780
v 1.2223 0.3186 -1.3819
v 1.1033 0.3186 -1.3819
v 1.2223 0.2640 -1.5500
v 1.1033 0.2640 -1.5500
v 1.2223 0.3186 -1.7181
v 1.1033 0.3186 -1.7181
v 1.2223 0.4616 -1.8220
v 1.1033 0.4616 -1.8220
v 1.2223 0.6384 -1.8220
v 1.1033 0.6384 -1.8220
v 1.2223 0.7814 -1.7181
v 1.1033 0.7814 -1.7181
v -0.8500 1.1000 -1.5500
v -1.1900 1.1000 -1.5500
v -0.8500 0.9950 -1.2267
v -1.1900 0.9950 -1.2267
v -0.8500 0.7200 -1.0269
v -1.1900 0.7200 -1.0269
v -0.8500 0.3800 -1.0269
v -1.1900 0.3800 -1.0269
v -0.8500 0.1050 -1.2267
v -1.1900 0.1050 -1.2267
v -0.8500 0.0000 -1.5500
v -1.1900 0.0000 -1.5500
v -0.8500 0.1050 -1.8733
v -1.1900 0.1050 -1.8733
v -0.8500 0.3800 -2.0731
v -1.1900 0.3800 -2.0731
v -0.8500 0.7200 -2.0731
v -1.1900 0.7200 -2.0731
v -0.8500 0.9950 -1.8733
v -1.1900 0.9950 -1.8733
v -1.1033 0.8360 -1.5500
v -1.2223 0.8360 -1.5500
v -1.1033 0.7814 -1.3819
v -1.2223 0.7814 -1.3819
v -1.1033 0.6384 -1.2780
v -1.2223 0.6384 -1.2780
v -1.1033 0.4616 -1.2780
v -1.2223 0.4616 -1.2780
v -1.1033 0.3186 -1.3819
v -1.2223 0.3186 -1.3819
v -1.1033 0.2640 -1.5500
v -1.2223 0.2640 -1.5500
v -1.1033 0.3186 -1.7181
v -1.2223 0.3186 -1.7181
v -1.1033 0.4616 -1.8220
v -1.2223 0.4616 -1.8220
v -1.1033 0.6384 -1.8220
v -1.2223 0.6384 -1.8220
v -1.1033 0.7814 -1.7181
v -1.2223 0.7814 -1.7181
v 1.1900 1.1000 -2.9000
v 0.8500 1.1000 -2.9000
v 1.1900 0.9950 -2.5767
v 0.8500 0.9950 -2.5767
v 1.1900 0.7200 -2.3769
v 0.8500 0.7200 -2.3769
v 1.1900 0.3800 -2.3769
v 0.8500 0.3800 -2.3769
v 1.1900 0.1050 -2.5767
v 0.8500 0.1050 -2.5767
v 1.1900 0.0000 -2.9000
v 0.8500 0.0000 -2.9000
v 1.1900 0.1050 -3.2233
v 0.8500 0.1050 -3.2233
v 1.1900 0.3800 -3.4231
v 0.8500 0.3800 -3.4231
v 1.1900 0.7200 -3.4231
v 0.8500 0.7200 -3.4231
v 1.1900 0.9950 -3.2233
v 0.8500 0.9950 -3.2233
v 1.2223 0.8360 -2.9000
v 1.1033 0.8360 -2.9000
v 1.2223 0.7814 -2.7319
v 1.1033 0.7814 -2.7319
v 1.2223 0.6384 -2.6280
v 1.1033 0.6384 -2.6280
v 1.2223 0.4616 -2.6280
v 1.1033 0.4616 -2.6280
v 1.2223 0.3186 -2.7319
v 1.1033 0.3186 -2.7319
v 1.2223 0.2640 -2.9000
v 1.1033 0.2640 -2.9000
v 1.2223 0.3186 -3.0681
v 1.1033 0.3186 -3.0681
v 1.2223 0.4616 -3.1720
v 1.1033 0.4616 -3.1720
v 1.2223 0.6384 -3.1720
v 1.1033 0.6384 -3.1720
v 1.2223 0.7814 -3.0681
v 1.1033 0.7814 -3.0681
v -0.8500 1.1000 -2.9000
v -1.1900 1.1000 -2.9000
v -0.8500 0.9950 -2.5767
v -1.1900 0.9950 -2.5767
v -0.8500 0.7200 -2.3769
v -1.1900 0.7200 -2.3769
v -0.8500 0.3800 -2.3769
v -1.1900 0.3800 -2.3769
v -0.8500 0.1050 -2.5767
v -1.1900 0.1050 -2.5767
v -0.8500 0.0000 -2.9000
v -1.1900 0.0000 -2.9000
v -0.8500 0.1050 -3.2233
v -1.1900 0.1050 -3.2233
v -0.8500 0.3800 -3.4231
v -1.1900 0.3800 -3.4231
v -0.8500 0.7200 -3.4231
v -1.1900 0.7200 -3.4231
v -0.8500 0.9950 -3.2233
v -1.1900 0.9950 -3.2233
v -1.1033 0.8360 -2.9000
v -1.2223 0.8360 -2.9000
v -1.1033 0.7814 -2.7319
v -1.2223 0.7814 -2.7319
v -1.1033 0.6384 -2.6280
v -1.2223 0.6384 -2.6280
v -1.1033 0.4616 -2.6280
v -1.2223 0.4616 -2.6280
v -1.1033 0.3186 -2.7319
v -1.2223 0.3186 -2.7319
v -1.1033 0.2640 -2.9000
v -1.2223 0.2640 -2.9000
v -1.1033 0.3186 -3.0681
v -1.2223 0.3186 -3.0681
v -1.1033 0.4616 -3.1720
v -1.2223 0.4616 -3.1720
v -1.1033 0.6384 -3.1720
v -1.2223 0.6384 -3.1720
v -1.1033 0.7814 -3.0681
v -1.2223 0.7814 -3.0681
v 0.1300 0.9800 -2.2200
v -0.1300 0.9800 -2.2200
v 0.1300 0.8921 -1.9496
v -0.1300 0.8921 -1.9496
v 0.1300 0.6621 -1.7825
v -0.1300 0.6621 -1.7825
v 0.1300 0.3779 -1.7825
v -0.1300 0.3779 -1.7825
v 0.1300 0.1479 -1.9496
v -0.1300 0.1479 -1.9496
v 0.1300 0.0600 -2.2200
v -0.1300 0.0600 -2.2200
v 0.1300 0.1479 -2.4904
v -0.1300 0.1479 -2.4904
v 0.1300 0.3779 -2.6575
v -0.1300 0.3779 -2.6575
v 0.1300 0.6621 -2.6575
v -0.1300 0.6621 -2.6575
v 0.1300 0.8921 -2.4904
v -0.1300 0.8921 -2.4904
v 0.4250 0.6300 -3.6000
v 0.4250 0.8500 -3.6000
v -0.4250 0.6300 3.5000
v -0.4250 0.8500 3.5000
v 0.4250 0.6300 3.5000
v 0.4250 0.8500 3.5000
v -1.0250 1.1900 2.3000
v -1.0250 1.7700 2.3000
v 1.0250 1.1900 2.3000
v 1.0250 1.7700 2.3000
v -1.0250 1.1900 3.6000
v -1.0250 1.7700 3.6000
v 1.0250 1.1900 3.6000
v 1.0250 1.7700 3.6000
v -0.9250 1.1600 3.5400
v -0.9250 1.7600 3.5400
v 0.9250 1.1600 3.5400
v 0.9250 1.7600 3.5400
v -0.9250 1.1600 3.7000
v -0.9250 1.7600 3.7000
v 0.9250 1.1600 3.7000
v 0.9250 1.7600 3.7000
v -0.4950 1.2500 3.6800
v -0.4950 1.6700 3.6800
v -0.3850 1.2500 3.6800
v -0.3850 1.6700 3.6800
v -0.4950 1.2500 3.7400
v -0.4950 1.6700 3.7400
v -0.3850 1.2500 3.7400
v -0.3850 1.6700 3.7400
v -0.2750 1.2500 3.6800
v -0.2750 1.6700 3.6800
v -0.1650 1.2500 3.6800
v -0.1650 1.6700 3.6800
v -0.2750 1.2500 3.7400
v -0.2750 1.6700 3.7400
v -0.1650 1.2500 3.7400
v -0.1650 1.6700 3.7400
v -0.0550 1.2500 3.6800
v -0.0550 1.6700 3.6800
v 0.0550 1.2500 3.6800
v 0.0550 1.6700 3.6800
v -0.0550 1.2500 3.7400
v -0.0550 1.6700 3.7400
v 0.0550 1.2500 3.7400
v 0.0550 1.6700 3.7400
v 0.1650 1.2500 3.6800
v 0.1650 1.6700 3.6800
v 0.2750 1.2500 3.6800
v 0.2750 1.6700 3.6800
v 0.1650 1.2500 3.7400
v 0.1650 1.6700 3.7400
v 0.2750 1.2500 3.7400
v 0.2750 1.6700 3.7400
v 0.3850 1.2500 3.6800
v 0.3850 1.6700 3.6800
v 0.4950 1.2500 3.6800
v 0.4950 1.6700 3.6800
v 0.3850 1.2500 3.7400
v 0.3850 1.6700 3.7400
v 0.4950 1.2500 3.7400
v 0.4950 1.6700 3.7400
v -1.2100 0.7700 3.5800
v -1.2100 1.0700 3.5800
v 1.2100 0.7700 3.5800
v 1.2100 1.0700 3.5800
v -1.2100 0.7700 3.8600
v -1.2100 1.0700 3.8600
v 1.2100 0.7700 3.8600
v 1.2100 1.0700 3.8600
v -1.1500 0.8700 0.8500
v -1.1500 1.8700 0.8500
v 1.1500 0.8700 0.8500
v 1.1500 1.8700 0.8500
v -1.1500 0.8700 2.3000
v -1.1500 1.8700 2.3000
v 1.1500 0.8700 2.3000
v 1.1500 1.8700 2.3000
v -1.1250 1.8700 0.8500
v -1.1250 2.5500 0.8500
v 1.1250 1.8700 0.8500
v 1.1250 2.5500 0.8500
v -1.1250 1.8700 2.3000
v -1.1250 2.5500 2.3000
v 1.1250 1.8700 2.3000
v 1.1250 2.5500 2.3000
v -1.1550 2.0400 0.9500
v -1.1550 2.4800 0.9500
v 1.1550 2.0400 0.9500
v 1.1550 2.4800 0.9500
v -1.1550 2.0400 2.1500
v -1.1550 2.4800 2.1500
v 1.1550 2.0400 2.1500
v 1.1550 2.4800 2.1500
v -1.0250 1.8846 2.2800
v -1.0250 2.5339 2.1619
v 1.0250 1.8846 2.2800
v 1.0250 2.5339 2.1619
v -1.0250 1.9061 2.3981
v -1.0250 2.5554 2.2800
v 1.0250 1.9061 2.3981
v 1.0250 2.5554 2.2800
v -1.1700 2.5500 0.8000
v -1.1700 2.6900 0.8000
v 1.1700 2.5500 0.8000
v 1.1700 2.6900 0.8000
v -1.1700 2.5500 2.3500
v -1.1700 2.6900 2.3500
v 1.1700 2.5500 2.3500
v 1.1700 2.6900 2.3500
v 0.8100 1.2900 1.8000
v 0.8100 1.1500 1.8000
v 0.8900 1.5000 3.6000
v 0.8900 1.5000 3.7200
v 0.8614 1.4118 3.6000
v 0.8614 1.4118 3.7200
v 0.7864 1.3573 3.6000
v 0.7864 1.3573 3.7200
v 0.6936 1.3573 3.6000
v 0.6936 1.3573 3.7200
v 0.6186 1.4118 3.6000
v 0.6186 1.4118 3.7200
v 0.5900 1.5000 3.6000
v 0.5900 1.5000 3.7200
v 0.6186 1.5882 3.6000
v 0.6186 1.5882 3.7200
v 0.6936 1.6427 3.6000
v 0.6936 1.6427 3.7200
v 0.7864 1.6427 3.6000
v 0.7864 1.6427 3.7200
v 0.8614 1.5882 3.6000
v 0.8614 1.5882 3.7200
v 1.2300 1.1500 1.8000
v 1.2300 1.2900 1.8000
v 0.8100 1.1500 3.1000
v 0.8100 1.2900 3.1000
v 1.2300 1.1500 3.1000
v 1.2300 1.2900 3.1000
v 1.0900 2.3200 2.2700
v 1.0900 2.3800 2.2700
v 1.3900 2.3200 2.2700
v 1.3900 2.3800 2.2700
v 1.0900 2.3200 2.3300
v 1.0900 2.3800 2.3300
v 1.3900 2.3200 2.3300
v 1.3900 2.3800 2.3300
v 1.2500 2.1600 2.2750
v 1.2500 2.4400 2.2750
v 1.3900 2.1600 2.2750
v 1.3900 2.4400 2.2750
v 1.2500 2.1600 2.3250
v 1.2500 2.4400 2.3250
v 1.3900 2.1600 2.3250
v 1.3900 2.4400 2.3250
v 1.1300 0.5900 1.3000
v 1.1300 0.6500 1.3000
v 1.2700 0.5900 1.3000
v 1.2700 0.6500 1.3000
v 1.1300 0.5900 1.7000
v 1.1300 0.6500 1.7000
v 1.2700 0.5900 1.7000
v 1.2700 0.6500 1.7000
v 1.1300 0.6100 1.3300
v 1.1300 0.9100 1.3300
v 1.1900 0.6100 1.3300
v 1.1900 0.9100 1.3300
v 1.1300 0.6100 1.6700
v 1.1300 0.9100 1.6700
v 1.1900 0.6100 1.6700
v 1.1900 0.9100 1.6700
v 0.7450 0.1250 -3.3450
v 0.7450 0.4750 -3.3450
v 1.2950 0.1250 -3.3450
v 1.2950 0.4750 -3.3450
v 0.7450 0.1250 -3.2950
v 0.7450 0.4750 -3.2950
v 1.2950 0.1250 -3.2950
v 1.2950 0.4750 -3.2950
v -1.2300 1.2900 1.8000
v -1.2300 1.1500 1.8000
v -0.5900 1.5000 3.6000
v -0.5900 1.5000 3.7200
v -0.6186 1.4118 3.6000
v -0.6186 1.4118 3.7200
v -0.6936 1.3573 3.6000
v -0.6936 1.3573 3.7200
v -0.7864 1.3573 3.6000
v -0.7864 1.3573 3.7200
v -0.8614 1.4118 3.6000
v -0.8614 1.4118 3.7200
v -0.8900 1.5000 3.6000
v -0.8900 1.5000 3.7200
v -0.8614 1.5882 3.6000
v -0.8614 1.5882 3.7200
v -0.7864 1.6427 3.6000
v -0.7864 1.6427 3.7200
v -0.6936 1.6427 3.6000
v -0.6936 1.6427 3.7200
v -0.6186 1.5882 3.6000
v -0.6186 1.5882 3.7200
v -0.8100 1.1500 1.8000
v -0.8100 1.2900 1.8000
v -1.2300 1.1500 3.1000
v -1.2300 1.2900 3.1000
v -0.8100 1.1500 3.1000
v -0.8100 1.2900 3.1000
v -1.3900 2.3200 2.2700
v -1.3900 2.3800 2.2700
v -1.0900 2.3200 2.2700
v -1.0900 2.3800 2.2700
v -1.3900 2.3200 2.3300
v -1.3900 2.3800 2.3300
v -1.0900 2.3200 2.3300
v -1.0900 2.3800 2.3300
v -1.3900 2.1600 2.2750
v -1.3900 2.4400 2.2750
v -1.2500 2.1600 2.2750
v -1.2500 2.4400 2.2750
v -1.3900 2.1600 2.3250
v -1.3900 2.4400 2.3250
v -1.2500 2.1600 2.3250
v -1.2500 2.4400 2.3250
v -1.2700 0.5900 1.3000
v -1.2700 0.6500 1.3000
v -1.1300 0.5900 1.3000
v -1.1300 0.6500 1.3000
v -1.2700 0.5900 1.7000
v -1.2700 0.6500 1.7000
v -1.1300 0.5900 1.7000
v -1.1300 0.6500 1.7000
v -1.1900 0.6100 1.3300
v -1.1900 0.9100 1.3300
v -1.1300 0.6100 1.3300
v -1.1300 0.9100 1.3300
v -1.1900 0.6100 1.6700
v -1.1900 0.9100 1.6700
v -1.1300 0.6100 1.6700
v -1.1300 0.9100 1.6700
v -1.2950 0.1250 -3.3450
v -1.2950 0.4750 -3.3450
v -0.7450 0.1250 -3.3450
v -0.7450 0.4750 -3.3450
v -1.2950 0.1250 -3.2950
v -1.2950 0.4750 -3.2950
v -0.7450 0.1250 -3.2950
v -0.7450 0.4750 -3.2950
v -1.1750 1.2500 0.6500
v -1.1750 2.2500 0.6500
v 1.1750 1.2500 0.6500
v 1.1750 2.2500 0.6500
v -1.1750 1.2500 0.7900
v -1.1750 2.2500 0.7900
v 1.1750 1.2500 0.7900
v 1.1750 2.2500 0.7900
v -1.1750 1.0700 -3.6750
v -1.1750 1.2500 -3.6750
v 1.1750 1.0700 -3.6750
v 1.1750 1.2500 -3.6750
v -1.1750 1.0700 0.6750
v -1.1750 1.2500 0.6750
v 1.1750 1.0700 0.6750
v 1.1750 1.2500 0.6750
v 1.0800 1.2500 -3.6750
v 1.0800 1.8500 -3.6750
v 1.1800 1.2500 -3.6750
v 1.1800 1.8500 -3.6750
v 1.0800 1.2500 0.6750
v 1.0800 1.8500 0.6750
v 1.1800 1.2500 0.6750
v 1.1800 1.8500 0.6750
v -1.1800 1.2500 -3.6750
v -1.1800 1.8500 -3.6750
v -1.0800 1.2500 -3.6750
v -1.0800 1.8500 -3.6750
v -1.1800 1.2500 0.6750
v -1.1800 1.8500 0.6750
v -1.0800 1.2500 0.6750
v -1.0800 1.8500 0.6750
v -1.1750 1.2500 -3.6800
v -1.1750 1.8500 -3.6800
v 1.1750 1.2500 -3.6800
v 1.1750 1.8500 -3.6800
v -1.1750 1.2500 -3.5600
v -1.1750 1.8500 -3.5600
v 1.1750 1.2500 -3.5600
v 1.1750 1.8500 -3.5600
v -1.1800 1.2500 -3.6800
v 1.1800 1.2500 -3.6800
v 1.1800 2.1500 -3.6800
v 0.8000 2.4800 -3.6800
v -0.8000 2.4800 -3.6800
v -1.1800 2.1500 -3.6800
v -1.1800 1.2500 0.7000
v 1.1800 1.2500 0.7000
v 1.1800 2.1500 0.7000
v 0.8000 2.4800 0.7000
v -0.8000 2.4800 0.7000
v -1.1800 2.1500 0.7000
v -0.8500 2.4700 -3.0500
v -0.8500 2.5300 -3.0500
v 0.8500 2.4700 -3.0500
v 0.8500 2.5300 -3.0500
v -0.8500 2.4700 -2.9500
v -0.8500 2.5300 -2.9500
v 0.8500 2.4700 -2.9500
v 0.8500 2.5300 -2.9500
v -0.8500 2.4700 -1.9500
v -0.8500 2.5300 -1.9500
v 0.8500 2.4700 -1.9500
v 0.8500 2.5300 -1.9500
v -0.8500 2.4700 -1.8500
v -0.8500 2.5300 -1.8500
v 0.8500 2.4700 -1.8500
v 0.8500 2.5300 -1.8500
v -0.8500 2.4700 -0.8500
v -0.8500 2.5300 -0.8500
v 0.8500 2.4700 -0.8500
v 0.8500 2.5300 -0.8500
v -0.8500 2.4700 -0.7500
v -0.8500 2.5300 -0.7500
v 0.8500 2.4700 -0.7500
v 0.8500 2.5300 -0.7500
v -0.8500 2.4700 0.2500
v -0.8500 2.5300 0.2500
v 0.8500 2.4700 0.2500
v 0.8500 2.5300 0.2500
v -0.8500 2.4700 0.3500
v -0.8500 2.5300 0.3500
v 0.8500 2.4700 0.3500
v 0.8500 2.5300 0.3500
v -0.9750 1.4000 -3.7800
v -0.9750 2.3000 -3.7800
v 0.9750 1.4000 -3.7800
v 0.9750 2.3000 -3.7800
v -0.9750 1.4000 -3.6800
v -0.9750 2.3000 -3.6800
v 0.9750 1.4000 -3.6800
v 0.9750 2.3000 -3.6800
v -1.2000 1.1500 -0.7250
v -1.2000 0.7500 -0.7250
v 1.2600 0.8000 -0.9250
v 1.2600 0.8000 0.3250
v 1.2103 0.6472 -0.9250
v 1.2103 0.6472 0.3250
v 1.0803 0.5527 -0.9250
v 1.0803 0.5527 0.3250
v 0.9197 0.5527 -0.9250
v 0.9197 0.5527 0.3250
v 0.7897 0.6472 -0.9250
v 0.7897 0.6472 0.3250
v 0.7400 0.8000 -0.9250
v 0.7400 0.8000 0.3250
v 0.7897 0.9528 -0.9250
v 0.7897 0.9528 0.3250
v 0.9197 1.0473 -0.9250
v 0.9197 1.0473 0.3250
v 1.0803 1.0473 -0.9250
v 1.0803 1.0473 0.3250
v 1.2103 0.9528 -0.9250
v 1.2103 0.9528 0.3250
v -0.8400 0.7500 -0.7250
v -0.8400 1.1500 -0.7250
v -1.2000 0.7500 0.1250
v -1.2000 1.1500 0.1250
v -0.8400 0.7500 0.1250
v -0.8400 1.1500 0.1250
v -0.1400 0.7000 -3.8400
v -0.1400 0.9000 -3.8400
v -1.1650 1.2750 0.9500
v -1.1650 2.8250 0.9500
v -1.1870 1.2750 1.0030
v -1.1870 2.8250 1.0030
v -1.2400 1.2750 1.0250
v -1.2400 2.8250 1.0250
v -1.2930 1.2750 1.0030
v -1.2930 2.8250 1.0030
v -1.3150 1.2750 0.9500
v -1.3150 2.8250 0.9500
v -1.2930 1.2750 0.8970
v -1.2930 2.8250 0.8970
v -1.2400 1.2750 0.8750
v -1.2400 2.8250 0.8750
v -1.1870 1.2750 0.8970
v -1.1870 2.8250 0.8970
v -1.1300 2.8100 0.9500
v -1.1300 2.9100 0.9500
v -1.1622 2.8100 1.0278
v -1.1622 2.9100 1.0278
v -1.2400 2.8100 1.0600
v -1.2400 2.9100 1.0600
v -1.3178 2.8100 1.0278
v -1.3178 2.9100 1.0278
v -1.3500 2.8100 0.9500
v -1.3500 2.9100 0.9500
v -1.3178 2.8100 0.8722
v -1.3178 2.9100 0.8722
v -1.2400 2.8100 0.8400
v -1.2400 2.9100 0.8400
v -1.1622 2.8100 0.8722
v -1.1622 2.9100 0.8722
v 0.1400 0.7000 -3.8400
v 0.1400 0.9000 -3.8400
v -0.1400 0.7000 -3.6800
v -0.1400 0.9000 -3.6800
v 0.1400 0.7000 -3.6800
v 0.1400 0.9000 -3.6800
v 0.1100 0.8900 -3.8200
v -0.1100 0.8900 -3.8200
v 0.1100 0.8636 -3.7564
v -0.1100 0.8636 -3.7564
v 0.1100 0.8000 -3.7300
v -0.1100 0.8000 -3.7300
v 0.1100 0.7364 -3.7564
v -0.1100 0.7364 -3.7564
v 0.1100 0.7100 -3.8200
v -0.1100 0.7100 -3.8200
v 0.1100 0.7364 -3.8836
v -0.1100 0.7364 -3.8836
v 0.1100 0.8000 -3.9100
v -0.1100 0.8000 -3.9100
v 0.1100 0.8636 -3.8836
v -0.1100 0.8636 -3.8836
usemtl Mat0
f 4 5 3
f 50 51 49
f 6 7 5
f 8 9 7
f 10 11 9
f 166 167 165
f 12 13 11
f 14 15 13
f 16 17 15
f 45 48 47
f 48 49 47
f 18 19 17
f 20 12 8
f 54 55 53
f 20 21 19
f 89 92 91
f 52 53 51
f 22 3 21
f 9 17 21
f 44 45 43
f 56 57 55
f 86 87 85
f 88 89 87
f 58 59 57
f 62 54 50
f 94 95 93
f 60 61 59
f 124 125 123
f 92 93 91
f 62 43 61
f 53 57 61
f 84 85 83
f 96 97 95
f 132 133 131
f 134 135 133
f 98 99 97
f 102 98 94
f 128 129 127
f 100 101 99
f 125 128 127
f 102 83 101
f 89 93 97
f 130 131 129
f 205 208 207
f 136 137 135
f 174 175 173
f 172 173 171
f 138 139 137
f 168 169 167
f 139 123 127
f 140 141 139
f 164 165 163
f 142 123 141
f 128 124 140
f 169 172 171
f 245 248 247
f 176 177 175
f 214 215 213
f 212 213 211
f 178 179 177
f 208 209 207
f 175 179 163
f 180 181 179
f 204 205 203
f 182 163 181
f 176 172 168
f 210 211 209
f 216 217 215
f 254 255 253
f 252 253 251
f 218 219 217
f 248 249 247
f 217 205 209
f 220 221 219
f 244 245 243
f 222 203 221
f 204 220 216
f 249 252 251
f 256 257 255
f 258 259 257
f 253 261 245
f 260 261 259
f 262 243 261
f 248 260 256
f 17 19 21
f 8 4 20
f 13 15 17
f 21 3 9
f 14 12 20
f 9 13 17
f 16 14 20
f 9 11 13
f 20 18 16
f 5 7 9
f 4 22 20
f 3 5 9
f 8 6 4
f 12 10 8
f 50 48 46
f 46 44 50
f 44 62 50
f 62 60 54
f 60 58 54
f 58 56 54
f 54 52 50
f 45 47 49
f 49 51 53
f 53 55 57
f 57 59 61
f 61 43 53
f 43 45 53
f 45 49 53
f 90 88 86
f 86 84 102
f 102 100 98
f 98 96 94
f 94 92 102
f 92 90 102
f 90 86 102
f 89 91 93
f 93 95 97
f 97 99 101
f 101 83 97
f 83 85 97
f 85 87 97
f 87 89 97
f 131 133 135
f 135 137 139
f 139 141 123
f 123 125 127
f 127 129 139
f 129 131 139
f 131 135 139
f 136 134 132
f 132 130 136
f 130 128 136
f 128 126 124
f 124 142 140
f 140 138 128
f 138 136 128
f 167 169 171
f 171 173 175
f 175 177 179
f 179 181 163
f 163 165 175
f 165 167 175
f 167 171 175
f 176 174 172
f 172 170 168
f 168 166 164
f 164 182 168
f 182 180 168
f 180 178 168
f 178 176 168
f 209 211 213
f 213 215 217
f 217 219 221
f 221 203 205
f 205 207 209
f 209 213 217
f 217 221 205
f 216 214 212
f 212 210 208
f 208 206 204
f 204 222 220
f 220 218 216
f 216 212 208
f 208 204 216
f 245 247 249
f 249 251 245
f 251 253 245
f 253 255 257
f 257 259 261
f 261 243 245
f 253 257 261
f 256 254 252
f 252 250 248
f 248 246 260
f 246 244 260
f 244 262 260
f 260 258 256
f 256 252 248
f 4 6 5
f 50 52 51
f 6 8 7
f 8 10 9
f 10 12 11
f 166 168 167
f 12 14 13
f 14 16 15
f 16 18 17
f 45 46 48
f 48 50 49
f 18 20 19
f 54 56 55
f 20 22 21
f 89 90 92
f 52 54 53
f 22 4 3
f 44 46 45
f 56 58 57
f 86 88 87
f 88 90 89
f 58 60 59
f 94 96 95
f 60 62 61
f 124 126 125
f 92 94 93
f 62 44 43
f 84 86 85
f 96 98 97
f 132 134 133
f 134 136 135
f 98 100 99
f 128 130 129
f 100 102 101
f 125 126 128
f 102 84 83
f 130 132 131
f 205 206 208
f 136 138 137
f 174 176 175
f 172 174 173
f 138 140 139
f 168 170 169
f 140 142 141
f 164 166 165
f 142 124 123
f 169 170 172
f 245 246 248
f 176 178 177
f 214 216 215
f 212 214 213
f 178 180 179
f 208 210 209
f 180 182 181
f 204 206 205
f 182 164 163
f 210 212 211
f 216 218 217
f 254 256 255
f 252 254 253
f 218 220 219
f 248 250 249
f 220 222 221
f 244 246 245
f 222 204 203
f 249 250 252
f 256 258 257
f 258 260 259
f 260 262 261
f 262 244 243
usemtl Mat1
f 34 35 33
f 28 29 27
f 186 187 185
f 32 33 31
f 26 27 25
f 70 71 69
f 30 31 29
f 24 25 23
f 36 37 35
f 66 67 65
f 68 69 67
f 38 39 37
f 24 36 32
f 74 75 73
f 40 41 39
f 110 111 109
f 72 73 71
f 42 23 41
f 41 25 29
f 64 65 63
f 76 77 75
f 106 107 105
f 108 109 107
f 78 79 77
f 64 80 76
f 114 115 113
f 80 81 79
f 146 147 145
f 112 113 111
f 82 63 81
f 63 67 71
f 104 105 103
f 116 117 115
f 154 155 153
f 152 153 151
f 118 119 117
f 148 149 147
f 103 107 111
f 120 121 119
f 144 145 143
f 122 103 121
f 104 120 116
f 150 151 149
f 226 227 225
f 156 157 155
f 194 195 193
f 192 193 191
f 158 159 157
f 188 189 187
f 151 155 159
f 160 161 159
f 184 185 183
f 162 143 161
f 144 160 156
f 190 191 189
f 196 197 195
f 234 235 233
f 232 233 231
f 198 199 197
f 228 229 227
f 193 201 185
f 200 201 199
f 224 225 223
f 202 183 201
f 184 200 196
f 230 231 229
f 236 237 235
f 238 239 237
f 241 225 229
f 240 241 239
f 242 223 241
f 224 240 236
f 32 30 28
f 28 26 32
f 26 24 32
f 24 42 36
f 42 40 36
f 40 38 36
f 36 34 32
f 33 35 41
f 35 37 41
f 37 39 41
f 41 23 25
f 25 27 29
f 29 31 41
f 31 33 41
f 76 74 72
f 72 70 68
f 68 66 64
f 64 82 80
f 80 78 76
f 76 72 68
f 68 64 76
f 71 73 75
f 75 77 79
f 79 81 63
f 63 65 67
f 67 69 71
f 71 75 79
f 79 63 71
f 111 113 115
f 115 117 119
f 119 121 103
f 103 105 107
f 107 109 111
f 111 115 119
f 119 103 111
f 116 114 112
f 112 110 108
f 108 106 104
f 104 122 120
f 120 118 116
f 116 112 108
f 108 104 116
f 143 145 151
f 145 147 151
f 147 149 151
f 151 153 155
f 155 157 159
f 159 161 151
f 161 143 151
f 156 154 152
f 152 150 148
f 148 146 144
f 144 162 160
f 160 158 156
f 156 152 148
f 148 144 156
f 185 187 189
f 189 191 185
f 191 193 185
f 193 195 201
f 195 197 201
f 197 199 201
f 201 183 185
f 196 194 192
f 192 190 188
f 188 186 184
f 184 202 200
f 200 198 196
f 196 192 188
f 188 184 196
f 229 231 233
f 233 235 229
f 235 237 229
f 237 239 241
f 241 223 225
f 225 227 229
f 237 241 229
f 236 234 232
f 232 230 228
f 228 226 224
f 224 242 240
f 240 238 236
f 236 232 228
f 228 224 236
f 34 36 35
f 28 30 29
f 186 188 187
f 32 34 33
f 26 28 27
f 70 72 71
f 30 32 31
f 24 26 25
f 36 38 37
f 66 68 67
f 68 70 69
f 38 40 39
f 74 76 75
f 40 42 41
f 110 112 111
f 72 74 73
f 42 24 23
f 64 66 65
f 76 78 77
f 106 108 107
f 108 110 109
f 78 80 79
f 114 116 115
f 80 82 81
f 146 148 147
f 112 114 113
f 82 64 63
f 104 106 105
f 116 118 117
f 154 156 155
f 152 154 153
f 118 120 119
f 148 150 149
f 120 122 121
f 144 146 145
f 122 104 103
f 150 152 151
f 226 228 227
f 156 158 157
f 194 196 195
f 192 194 193
f 158 160 159
f 188 190 189
f 160 162 161
f 184 186 185
f 162 144 143
f 190 192 191
f 196 198 197
f 234 236 235
f 232 234 233
f 198 200 199
f 228 230 229
f 200 202 201
f 224 226 225
f 202 184 183
f 230 232 231
f 236 238 237
f 238 240 239
f 240 242 241
f 242 224 223
usemtl Mat2
f 280 283 279
f 278 279 277
f 283 277 279
f 267 2 263
f 264 266 268
f 266 2 265
f 280 282 284
f 284 281 283
f 282 277 281
f 268 265 267
f 264 267 263
f 1 263 2
f 412 414 416
f 408 405 407
f 404 407 403
f 414 409 413
f 402 403 401
f 416 413 415
f 412 415 411
f 410 411 409
f 404 406 408
f 407 401 403
f 415 409 411
f 406 401 405
f 480 482 484
f 476 473 475
f 472 475 471
f 482 477 481
f 470 471 469
f 484 481 483
f 480 483 479
f 478 479 477
f 472 474 476
f 475 469 471
f 483 477 479
f 474 469 473
f 518 519 517
f 520 523 519
f 524 521 523
f 522 517 521
f 523 517 519
f 520 522 524
f 604 605 603
f 606 607 605
f 608 609 607
f 624 626 628
f 609 612 611
f 627 602 623
f 611 614 613
f 626 602 625
f 614 615 613
f 628 625 627
f 615 618 617
f 624 627 623
f 618 619 617
f 616 612 608
f 601 623 602
f 620 621 619
f 622 603 621
f 605 609 617
f 608 606 604
f 604 622 608
f 622 620 608
f 620 618 616
f 616 614 612
f 612 610 608
f 620 616 608
f 621 603 605
f 605 607 609
f 609 611 617
f 611 613 617
f 613 615 617
f 617 619 621
f 621 605 617
f 280 284 283
f 278 280 279
f 283 281 277
f 267 265 2
f 264 1 266
f 266 1 2
f 280 278 282
f 284 282 281
f 282 278 277
f 268 266 265
f 264 268 267
f 1 264 263
f 412 410 414
f 408 406 405
f 404 408 407
f 414 410 409
f 402 404 403
f 416 414 413
f 412 416 415
f 410 412 411
f 404 402 406
f 407 405 401
f 415 413 409
f 406 402 401
f 480 478 482
f 476 474 473
f 472 476 475
f 482 478 477
f 470 472 471
f 484 482 481
f 480 484 483
f 478 480 479
f 472 470 474
f 475 473 469
f 483 481 477
f 474 470 469
f 518 520 519
f 520 524 523
f 524 522 521
f 522 518 517
f 523 521 517
f 520 518 522
f 604 606 605
f 606 608 607
f 608 610 609
f 624 601 626
f 609 610 612
f 627 625 602
f 611 612 614
f 626 601 602
f 614 616 615
f 628 626 625
f 615 616 618
f 624 628 627
f 618 620 619
f 601 624 623
f 620 622 621
f 622 604 603
usemtl Mat3
f 270 271 269
f 274 269 273
f 276 273 275
f 272 274 276
f 275 269 271
f 272 275 271
f 334 335 333
f 336 339 335
f 340 337 339
f 338 333 337
f 339 333 335
f 336 338 340
f 342 343 341
f 344 347 343
f 348 345 347
f 346 341 345
f 347 341 343
f 344 346 348
f 366 367 365
f 368 371 367
f 372 369 371
f 370 365 369
f 371 365 367
f 368 370 372
f 396 398 400
f 399 374 395
f 398 374 397
f 400 397 399
f 396 399 395
f 373 395 374
f 464 466 468
f 467 442 463
f 466 442 465
f 468 465 467
f 464 467 463
f 441 463 442
f 510 511 509
f 512 515 511
f 516 513 515
f 514 509 513
f 515 509 511
f 512 514 516
f 526 527 525
f 528 531 527
f 532 529 531
f 530 525 529
f 531 525 527
f 528 530 532
f 534 535 533
f 536 539 535
f 540 537 539
f 538 533 537
f 539 533 535
f 536 538 540
f 542 543 541
f 544 547 543
f 548 545 547
f 546 541 545
f 547 541 543
f 544 546 548
f 270 272 271
f 274 270 269
f 276 274 273
f 272 270 274
f 275 273 269
f 272 276 275
f 334 336 335
f 336 340 339
f 340 338 337
f 338 334 333
f 339 337 333
f 336 334 338
f 342 344 343
f 344 348 347
f 348 346 345
f 346 342 341
f 347 345 341
f 344 342 346
f 366 368 367
f 368 372 371
f 372 370 369
f 370 366 365
f 371 369 365
f 368 366 370
f 396 373 398
f 399 397 374
f 398 373 374
f 400 398 397
f 396 400 399
f 373 396 395
f 464 441 466
f 467 465 442
f 466 441 442
f 468 466 465
f 464 468 467
f 441 464 463
f 510 512 511
f 512 516 515
f 516 514 513
f 514 510 509
f 515 513 509
f 512 510 514
f 526 528 527
f 528 532 531
f 532 530 529
f 530 526 525
f 531 529 525
f 528 526 530
f 534 536 535
f 536 540 539
f 540 538 537
f 538 534 533
f 539 537 533
f 536 534 538
f 542 544 543
f 544 548 547
f 548 546 545
f 546 542 541
f 547 545 541
f 544 542 546
usemtl Mat4
f 286 287 285
f 288 291 287
f 292 289 291
f 290 285 289
f 291 285 287
f 288 290 292
f 294 295 293
f 296 299 295
f 300 297 299
f 298 293 297
f 299 293 295
f 296 298 300
f 302 303 301
f 304 307 303
f 308 305 307
f 306 301 305
f 307 301 303
f 304 306 308
f 310 311 309
f 312 315 311
f 316 313 315
f 314 309 313
f 315 309 311
f 312 314 316
f 318 319 317
f 320 323 319
f 324 321 323
f 322 317 321
f 323 317 319
f 320 322 324
f 326 327 325
f 328 331 327
f 332 329 331
f 330 325 329
f 331 325 327
f 328 330 332
f 418 419 417
f 420 423 419
f 424 421 423
f 422 417 421
f 423 417 419
f 420 422 424
f 426 427 425
f 428 431 427
f 432 429 431
f 430 425 429
f 431 425 427
f 428 430 432
f 486 487 485
f 488 491 487
f 492 489 491
f 490 485 489
f 491 485 487
f 488 490 492
f 494 495 493
f 496 499 495
f 500 497 499
f 498 493 497
f 499 493 495
f 496 498 500
f 594 595 593
f 596 599 595
f 600 597 599
f 598 593 597
f 599 593 595
f 596 598 600
f 638 639 637
f 632 633 631
f 672 673 671
f 666 629 665
f 668 665 667
f 636 637 635
f 664 666 668
f 654 655 653
f 634 635 633
f 650 651 649
f 674 675 673
f 656 657 655
f 648 649 647
f 640 641 639
f 652 653 651
f 642 643 641
f 640 638 636
f 644 645 643
f 667 629 663
f 646 631 645
f 637 641 645
f 669 672 671
f 664 667 663
f 658 659 657
f 662 660 658
f 630 663 629
f 660 661 659
f 662 647 661
f 659 647 651
f 675 678 677
f 678 679 677
f 680 681 679
f 681 683 675
f 682 683 681
f 684 669 683
f 680 678 676
f 636 634 632
f 632 646 636
f 646 644 636
f 644 642 636
f 642 640 636
f 637 639 641
f 641 643 645
f 645 631 633
f 633 635 645
f 635 637 645
f 658 656 654
f 654 652 658
f 652 650 658
f 650 648 658
f 648 662 658
f 651 653 655
f 655 657 659
f 659 661 647
f 647 649 651
f 651 655 659
f 683 669 671
f 671 673 683
f 673 675 683
f 675 677 679
f 679 681 675
f 676 674 684
f 674 672 684
f 672 670 684
f 684 682 676
f 682 680 676
f 286 288 287
f 288 292 291
f 292 290 289
f 290 286 285
f 291 289 285
f 288 286 290
f 294 296 295
f 296 300 299
f 300 298 297
f 298 294 293
f 299 297 293
f 296 294 298
f 302 304 303
f 304 308 307
f 308 306 305
f 306 302 301
f 307 305 301
f 304 302 306
f 310 312 311
f 312 316 315
f 316 314 313
f 314 310 309
f 315 313 309
f 312 310 314
f 318 320 319
f 320 324 323
f 324 322 321
f 322 318 317
f 323 321 317
f 320 318 322
f 326 328 327
f 328 332 331
f 332 330 329
f 330 326 325
f 331 329 325
f 328 326 330
f 418 420 419
f 420 424 423
f 424 422 421
f 422 418 417
f 423 421 417
f 420 418 422
f 426 428 427
f 428 432 431
f 432 430 429
f 430 426 425
f 431 429 425
f 428 426 430
f 486 488 487
f 488 492 491
f 492 490 489
f 490 486 485
f 491 489 485
f 488 486 490
f 494 496 495
f 496 500 499
f 500 498 497
f 498 494 493
f 499 497 493
f 496 494 498
f 594 596 595
f 596 600 599
f 600 598 597
f 598 594 593
f 599 597 593
f 596 594 598
f 638 640 639
f 632 634 633
f 672 674 673
f 666 630 629
f 668 666 665
f 636 638 637
f 664 630 666
f 654 656 655
f 634 636 635
f 650 652 651
f 674 676 675
f 656 658 657
f 648 650 649
f 640 642 641
f 652 654 653
f 642 644 643
f 644 646 645
f 667 665 629
f 646 632 631
f 669 670 672
f 664 668 667
f 658 660 659
f 630 664 663
f 660 662 661
f 662 648 647
f 675 676 678
f 678 680 679
f 680 682 681
f 682 684 683
f 684 670 669
usemtl Mat5
f 350 351 349
f 352 355 351
f 356 353 355
f 354 349 353
f 355 349 351
f 352 354 356
f 358 359 357
f 359 364 363
f 364 361 363
f 362 357 361
f 363 357 359
f 360 362 364
f 350 352 351
f 352 356 355
f 356 354 353
f 354 350 349
f 355 353 349
f 352 350 354
f 358 360 359
f 359 360 364
f 364 362 361
f 362 358 357
f 363 361 357
f 360 358 362
usemtl Mat6
f 376 377 375
f 378 379 377
f 380 381 379
f 382 383 381
f 384 385 383
f 386 387 385
f 388 389 387
f 390 391 389
f 392 384 380
f 392 393 391
f 394 375 393
f 381 389 393
f 444 445 443
f 446 447 445
f 448 449 447
f 450 451 449
f 452 453 451
f 454 455 453
f 456 457 455
f 458 459 457
f 460 452 448
f 460 461 459
f 462 443 461
f 449 457 461
f 380 378 376
f 376 394 392
f 392 390 388
f 388 386 392
f 386 384 392
f 384 382 380
f 380 376 392
f 393 375 381
f 375 377 381
f 377 379 381
f 381 383 385
f 385 387 389
f 389 391 393
f 381 385 389
f 448 446 444
f 444 462 460
f 460 458 456
f 456 454 460
f 454 452 460
f 452 450 448
f 448 444 460
f 461 443 449
f 443 445 449
f 445 447 449
f 449 451 453
f 453 455 457
f 457 459 461
f 449 453 457
f 376 378 377
f 378 380 379
f 380 382 381
f 382 384 383
f 384 386 385
f 386 388 387
f 388 390 389
f 390 392 391
f 392 394 393
f 394 376 375
f 444 446 445
f 446 448 447
f 448 450 449
f 450 452 451
f 452 454 453
f 454 456 455
f 456 458 457
f 458 460 459
f 460 462 461
f 462 444 443
usemtl Mat7
f 434 435 433
f 436 439 435
f 440 437 439
f 438 433 437
f 439 433 435
f 436 438 440
f 502 503 501
f 504 507 503
f 508 505 507
f 506 501 505
f 507 501 503
f 504 506 508
f 434 436 435
f 436 440 439
f 440 438 437
f 438 434 433
f 439 437 433
f 436 434 438
f 502 504 503
f 504 508 507
f 508 506 505
f 506 502 501
f 507 505 501
f 504 502 506
usemtl Mat8
f 552 549 553
f 556 559 555
f 550 555 549
f 551 556 550
f 552 557 551
f 553 558 552
f 554 559 553
f 549 560 554
f 562 563 561
f 564 567 563
f 568 565 567
f 566 561 565
f 567 561 563
f 564 566 568
f 570 571 569
f 572 575 571
f 576 573 575
f 574 569 573
f 575 569 571
f 572 574 576
f 578 579 577
f 580 583 579
f 584 581 583
f 582 577 581
f 583 577 579
f 580 582 584
f 586 587 585
f 588 591 587
f 592 589 591
f 590 585 589
f 591 585 587
f 588 590 592
f 554 553 549
f 549 552 550
f 550 552 551
f 555 559 560
f 559 556 558
f 558 556 557
f 550 556 555
f 551 557 556
f 552 558 557
f 553 559 558
f 554 560 559
f 549 555 560
f 562 564 563
f 564 568 567
f 568 566 565
f 566 562 561
f 567 565 561
f 564 562 566
f 570 572 571
f 572 576 575
f 576 574 573
f 574 570 569
f 575 573 569
f 572 570 574
f 578 580 579
f 580 584 583
f 584 582 581
f 582 578 577
f 583 581 577
f 580 578 582
f 586 588 587
f 588 592 591
f 592 590 589
f 590 586 585
f 591 589 585
f 588 586 590
