# source: models.blend / Military_Assets / 03_APC
# generated by tools/export_builtin_obj.py (Task69) - do not hand-edit
mtllib Unit_Apc.mtl
v -1.1500 0.5200 3.1500
v -1.1500 0.5200 -3.5500
v 1.3900 1.1600 2.4000
v 1.0900 1.1600 2.4000
v 1.3900 1.0492 2.7409
v 1.0900 1.0492 2.7409
v 1.3900 0.7592 2.9516
v 1.0900 0.7592 2.9516
v 1.3900 0.4008 2.9516
v 1.0900 0.4008 2.9516
v 1.3900 0.1108 2.7409
v 1.0900 0.1108 2.7409
v 1.3900 0.0000 2.4000
v 1.0900 0.0000 2.4000
v 1.3900 0.1108 2.0591
v 1.0900 0.1108 2.0591
v 1.3900 0.4008 1.8484
v 1.0900 0.4008 1.8484
v 1.3900 0.7592 1.8484
v 1.0900 0.7592 1.8484
v 1.3900 1.0492 2.0591
v 1.0900 1.0492 2.0591
v 1.4185 0.8816 2.4000
v 1.3135 0.8816 2.4000
v 1.4185 0.8240 2.5773
v 1.3135 0.8240 2.5773
v 1.4185 0.6732 2.6868
v 1.3135 0.6732 2.6868
v 1.4185 0.4868 2.6868
v 1.3135 0.4868 2.6868
v 1.4185 0.3360 2.5773
v 1.3135 0.3360 2.5773
v 1.4185 0.2784 2.4000
v 1.3135 0.2784 2.4000
v 1.4185 0.3360 2.2227
v 1.3135 0.3360 2.2227
v 1.4185 0.4868 2.1132
v 1.3135 0.4868 2.1132
v 1.4185 0.6732 2.1132
v 1.3135 0.6732 2.1132
v 1.4185 0.8240 2.2227
v 1.3135 0.8240 2.2227
v -1.0900 1.1600 2.4000
v -1.3900 1.1600 2.4000
v -1.0900 1.0492 2.7409
v -1.3900 1.0492 2.7409
v -1.0900 0.7592 2.9516
v -1.3900 0.7592 2.9516
v -1.0900 0.4008 2.9516
v -1.3900 0.4008 2.9516
v -1.0900 0.1108 2.7409
v -1.3900 0.1108 2.7409
v -1.0900 0.0000 2.4000
v -1.3900 0.0000 2.4000
v -1.0900 0.1108 2.0591
v -1.3900 0.1108 2.0591
v -1.0900 0.4008 1.8484
v -1.3900 0.4008 1.8484
v -1.0900 0.7592 1.8484
v -1.3900 0.7592 1.8484
v -1.0900 1.0492 2.0591
v -1.3900 1.0492 2.0591
v -1.3135 0.8816 2.4000
v -1.4185 0.8816 2.4000
v -1.3135 0.8240 2.5773
v -1.4185 0.8240 2.5773
v -1.3135 0.6732 2.6868
v -1.4185 0.6732 2.6868
v -1.3135 0.4868 2.6868
v -1.4185 0.4868 2.6868
v -1.3135 0.3360 2.5773
v -1.4185 0.3360 2.5773
v -1.3135 0.2784 2.4000
v -1.4185 0.2784 2.4000
v -1.3135 0.3360 2.2227
v -1.4185 0.3360 2.2227
v -1.3135 0.4868 2.1132
v -1.4185 0.4868 2.1132
v -1.3135 0.6732 2.1132
v -1.4185 0.6732 2.1132
v -1.3135 0.8240 2.2227
v -1.4185 0.8240 2.2227
v 1.3900 1.1600 1.2500
v 1.0900 1.1600 1.2500
v 1.3900 1.0492 1.5909
v 1.0900 1.0492 1.5909
v 1.3900 0.7592 1.8016
v 1.0900 0.7592 1.8016
v 1.3900 0.4008 1.8016
v 1.0900 0.4008 1.8016
v 1.3900 0.1108 1.5909
v 1.0900 0.1108 1.5909
v 1.3900 0.0000 1.2500
v 1.0900 0.0000 1.2500
v 1.3900 0.1108 0.9091
v 1.0900 0.1108 0.9091
v 1.3900 0.4008 0.6984
v 1.0900 0.4008 0.6984
v 1.3900 0.7592 0.6984
v 1.0900 0.7592 0.6984
v 1.3900 1.0492 0.9091
v 1.0900 1.0492 0.9091
v 1.4185 0.8816 1.2500
v 1.3135 0.8816 1.2500
v 1.4185 0.8240 1.4273
v 1.3135 0.8240 1.4273
v 1.4185 0.6732 1.5368
v 1.3135 0.6732 1.5368
v 1.4185 0.4868 1.5368
v 1.3135 0.4868 1.5368
v 1.4185 0.3360 1.4273
v 1.3135 0.3360 1.4273
v 1.4185 0.2784 1.2500
v 1.3135 0.2784 1.2500
v 1.4185 0.3360 1.0727
v 1.3135 0.3360 1.0727
v 1.4185 0.4868 0.9632
v 1.3135 0.4868 0.9632
v 1.4185 0.6732 0.9632
v 1.3135 0.6732 0.9632
v 1.4185 0.8240 1.0727
v 1.3135 0.8240 1.0727
v -1.0900 1.1600 1.2500
v -1.3900 1.1600 1.2500
v -1.0900 1.0492 1.5909
v -1.3900 1.0492 1.5909
v -1.0900 0.7592 1.8016
v -1.3900 0.7592 1.8016
v -1.0900 0.4008 1.8016
v -1.3900 0.4008 1.8016
v -1.0900 0.1108 1.5909
v -1.3900 0.1108 1.5909
v -1.0900 0.0000 1.2500
v -1.3900 0.0000 1.2500
v -1.0900 0.1108 0.9091
v -1.3900 0.1108 0.9091
v -1.0900 0.4008 0.6984
v -1.3900 0.4008 0.6984
v -1.0900 0.7592 0.6984
v -1.3900 0.7592 0.6984
v -1.0900 1.0492 0.9091
v -1.3900 1.0492 0.9091
v -1.3135 0.8816 1.2500
v -1.4185 0.8816 1.2500
v -1.3135 0.8240 1.4273
v -1.4185 0.8240 1.4273
v -1.3135 0.6732 1.5368
v -1.4185 0.6732 1.5368
v -1.3135 0.4868 1.5368
v -1.4185 0.4868 1.5368
v -1.3135 0.3360 1.4273
v -1.4185 0.3360 1.4273
v -1.3135 0.2784 1.2500
v -1.4185 0.2784 1.2500
v -1.3135 0.3360 1.0727
v -1.4185 0.3360 1.0727
v -1.3135 0.4868 0.9632
v -1.4185 0.4868 0.9632
v -1.3135 0.6732 0.9632
v -1.4185 0.6732 0.9632
v -1.3135 0.8240 1.0727
v -1.4185 0.8240 1.0727
v 1.3900 1.1600 -1.3500
v 1.0900 1.1600 -1.3500
v 1.3900 1.0492 -1.0091
v 1.0900 1.0492 -1.0091
v 1.3900 0.7592 -0.7984
v 1.0900 0.7592 -0.7984
v 1.3900 0.4008 -0.7984
v 1.0900 0.4008 -0.7984
v 1.3900 0.1108 -1.0091
v 1.0900 0.1108 -1.0091
v 1.3900 0.0000 -1.3500
v 1.0900 0.0000 -1.3500
v 1.3900 0.1108 -1.6909
v 1.0900 0.1108 -1.6909
v 1.3900 0.4008 -1.9016
v 1.0900 0.4008 -1.9016
v 1.3900 0.7592 -1.9016
v 1.0900 0.7592 -1.9016
v 1.3900 1.0492 -1.6909
v 1.0900 1.0492 -1.6909
v 1.4185 0.8816 -1.3500
v 1.3135 0.8816 -1.3500
v 1.4185 0.8240 -1.1727
v 1.3135 0.8240 -1.1727
v 1.4185 0.6732 -1.0632
v 1.3135 0.6732 -1.0632
v 1.4185 0.4868 -1.0632
v 1.3135 0.4868 -1.0632
v 1.4185 0.3360 -1.1727
v 1.3135 0.3360 -1.1727
v 1.4185 0.2784 -1.3500
v 1.3135 0.2784 -1.3500
v 1.4185 0.3360 -1.5273
v 1.3135 0.3360 -1.5273
v 1.4185 0.4868 -1.6368
v 1.3135 0.4868 -1.6368
v 1.4185 0.6732 -1.6368
v 1.3135 0.6732 -1.6368
v 1.4185 0.8240 -1.5273
v 1.3135 0.8240 -1.5273
v -1.0900 1.1600 -1.3500
v -1.3900 1.1600 -1.3500
v -1.0900 1.0492 -1.0091
v -1.3900 1.0492 -1.0091
v -1.0900 0.7592 -0.7984
v -1.3900 0.7592 -0.7984
v -1.0900 0.4008 -0.7984
v -1.3900 0.4008 -0.7984
v -1.0900 0.1108 -1.0091
v -1.3900 0.1108 -1.0091
v -1.0900 0.0000 -1.3500
v -1.3900 0.0000 -1.3500
v -1.0900 0.1108 -1.6909
v -1.3900 0.1108 -1.6909
v -1.0900 0.4008 -1.9016
v -1.3900 0.4008 -1.9016
v -1.0900 0.7592 -1.9016
v -1.3900 0.7592 -1.9016
v -1.0900 1.0492 -1.6909
v -1.3900 1.0492 -1.6909
v -1.3135 0.8816 -1.3500
v -1.4185 0.8816 -1.3500
v -1.3135 0.8240 -1.1727
v -1.4185 0.8240 -1.1727
v -1.3135 0.6732 -1.0632
v -1.4185 0.6732 -1.0632
v -1.3135 0.4868 -1.0632
v -1.4185 0.4868 -1.0632
v -1.3135 0.3360 -1.1727
v -1.4185 0.3360 -1.1727
v -1.3135 0.2784 -1.3500
v -1.4185 0.2784 -1.3500
v -1.3135 0.3360 -1.5273
v -1.4185 0.3360 -1.5273
v -1.3135 0.4868 -1.6368
v -1.4185 0.4868 -1.6368
v -1.3135 0.6732 -1.6368
v -1.4185 0.6732 -1.6368
v -1.3135 0.8240 -1.5273
v -1.4185 0.8240 -1.5273
v 1.3900 1.1600 -2.5500
v 1.0900 1.1600 -2.5500
v 1.3900 1.0492 -2.2091
v 1.0900 1.0492 -2.2091
v 1.3900 0.7592 -1.9984
v 1.0900 0.7592 -1.9984
v 1.3900 0.4008 -1.9984
v 1.0900 0.4008 -1.9984
v 1.3900 0.1108 -2.2091
v 1.0900 0.1108 -2.2091
v 1.3900 0.0000 -2.5500
v 1.0900 0.0000 -2.5500
v 1.3900 0.1108 -2.8909
v 1.0900 0.1108 -2.8909
v 1.3900 0.4008 -3.1016
v 1.0900 0.4008 -3.1016
v 1.3900 0.7592 -3.1016
v 1.0900 0.7592 -3.1016
v 1.3900 1.0492 -2.8909
v 1.0900 1.0492 -2.8909
v 1.4185 0.8816 -2.5500
v 1.3135 0.8816 -2.5500
v 1.4185 0.8240 -2.3727
v 1.3135 0.8240 -2.3727
v 1.4185 0.6732 -2.2632
v 1.3135 0.6732 -2.2632
v 1.4185 0.4868 -2.2632
v 1.3135 0.4868 -2.2632
v 1.4185 0.3360 -2.3727
v 1.3135 0.3360 -2.3727
v 1.4185 0.2784 -2.5500
v 1.3135 0.2784 -2.5500
v 1.4185 0.3360 -2.7273
v 1.3135 0.3360 -2.7273
v 1.4185 0.4868 -2.8368
v 1.3135 0.4868 -2.8368
v 1.4185 0.6732 -2.8368
v 1.3135 0.6732 -2.8368
v 1.4185 0.8240 -2.7273
v 1.3135 0.8240 -2.7273
v -1.0900 1.1600 -2.5500
v -1.3900 1.1600 -2.5500
v -1.0900 1.0492 -2.2091
v -1.3900 1.0492 -2.2091
v -1.0900 0.7592 -1.9984
v -1.3900 0.7592 -1.9984
v -1.0900 0.4008 -1.9984
v -1.3900 0.4008 -1.9984
v -1.0900 0.1108 -2.2091
v -1.3900 0.1108 -2.2091
v -1.0900 0.0000 -2.5500
v -1.3900 0.0000 -2.5500
v -1.0900 0.1108 -2.8909
v -1.3900 0.1108 -2.8909
v -1.0900 0.4008 -3.1016
v -1.3900 0.4008 -3.1016
v -1.0900 0.7592 -3.1016
v -1.3900 0.7592 -3.1016
v -1.0900 1.0492 -2.8909
v -1.3900 1.0492 -2.8909
v -1.3135 0.8816 -2.5500
v -1.4185 0.8816 -2.5500
v -1.3135 0.8240 -2.3727
v -1.4185 0.8240 -2.3727
v -1.3135 0.6732 -2.2632
v -1.4185 0.6732 -2.2632
v -1.3135 0.4868 -2.2632
v -1.4185 0.4868 -2.2632
v -1.3135 0.3360 -2.3727
v -1.4185 0.3360 -2.3727
v -1.3135 0.2784 -2.5500
v -1.4185 0.2784 -2.5500
v -1.3135 0.3360 -2.7273
v -1.4185 0.3360 -2.7273
v -1.3135 0.4868 -2.8368
v -1.4185 0.4868 -2.8368
v -1.3135 0.6732 -2.8368
v -1.4185 0.6732 -2.8368
v -1.3135 0.8240 -2.7273
v -1.4185 0.8240 -2.7273
v -1.1500 1.0500 3.5500
v -1.1500 1.3800 3.5500
v -1.1500 2.2200 2.1500
v -1.1500 2.3400 0.6000
v -1.1500 2.3400 -3.5500
v 1.1500 0.5200 -3.5500
v 1.1500 0.5200 3.1500
v 1.1500 1.0500 3.5500
v 1.1500 1.3800 3.5500
v 1.1500 2.2200 2.1500
v 1.1500 2.3400 0.6000
v 1.1500 2.3400 -3.5500
v 1.1300 0.9200 -3.5500
v 1.1300 1.7200 -3.5500
v 1.2300 0.9200 -3.5500
v 1.2300 1.7200 -3.5500
v 1.1300 0.9200 3.1500
v 1.1300 1.7200 3.1500
v 1.2300 0.9200 3.1500
v 1.2300 1.7200 3.1500
v 1.0800 1.7300 0.9500
v 1.0800 2.1700 0.9500
v 1.2400 1.7300 0.9500
v 1.2400 2.1700 0.9500
v 1.0800 1.7300 2.7500
v 1.0800 2.1700 2.7500
v 1.2400 1.7300 2.7500
v 1.2400 2.1700 2.7500
v 1.0800 1.7300 -2.7500
v 1.0800 2.1700 -2.7500
v 1.2400 1.7300 -2.7500
v 1.2400 2.1700 -2.7500
v 1.0800 1.7300 -1.1500
v 1.0800 2.1700 -1.1500
v 1.2400 1.7300 -1.1500
v 1.2400 2.1700 -1.1500
v 0.5500 2.0300 3.2500
v 0.5500 1.7700 3.2500
v 0.9900 1.2800 3.4600
v 0.9900 1.2800 3.5800
v 0.9490 1.1810 3.4600
v 0.9490 1.1810 3.5800
v 0.8500 1.1400 3.4600
v 0.8500 1.1400 3.5800
v 0.7510 1.1810 3.4600
v 0.7510 1.1810 3.5800
v 0.7100 1.2800 3.4600
v 0.7100 1.2800 3.5800
v 0.7510 1.3790 3.4600
v 0.7510 1.3790 3.5800
v 0.8500 1.4200 3.4600
v 0.8500 1.4200 3.5800
v 0.9490 1.3790 3.4600
v 0.9490 1.3790 3.5800
v 0.6500 1.7700 3.2500
v 0.6500 2.0300 3.2500
v 0.5500 1.7700 3.5500
v 0.5500 2.0300 3.5500
v 0.6500 1.7700 3.5500
v 0.6500 2.0300 3.5500
v -1.2300 1.7200 -3.5500
v -1.2300 0.9200 -3.5500
v 0.9250 2.3500 -2.7000
v 0.9250 4.0500 -2.7000
v 0.9000 2.3500 -2.6750
v 0.9000 4.0500 -2.6750
v 0.8750 2.3500 -2.7000
v 0.8750 4.0500 -2.7000
v 0.9000 2.3500 -2.7250
v 0.9000 4.0500 -2.7250
v 0.9750 2.2454 1.9199
v 0.9750 2.3946 2.1801
v 0.9475 2.2040 1.9436
v 0.9475 2.3533 2.2038
v 0.8925 2.2040 1.9436
v 0.8925 2.3533 2.2038
v 0.8650 2.2454 1.9199
v 0.8650 2.3946 2.1801
v 0.8925 2.2867 1.8962
v 0.8925 2.4360 2.1564
v 0.9475 2.2867 1.8962
v 0.9475 2.4360 2.1564
v 0.9750 2.2454 2.0799
v 0.9750 2.3946 2.3401
v 0.9475 2.2040 2.1036
v 0.9475 2.3533 2.3638
v 0.8925 2.2040 2.1036
v 0.8925 2.3533 2.3638
v 0.8650 2.2454 2.0799
v 0.8650 2.3946 2.3401
v 0.8925 2.2867 2.0562
v 0.8925 2.4360 2.3164
v 0.9475 2.2867 2.0562
v 0.9475 2.4360 2.3164
v 0.8050 2.3854 1.9199
v 0.8050 2.5346 2.1801
v 0.7775 2.3440 1.9436
v 0.7775 2.4933 2.2038
v 0.7225 2.3440 1.9436
v 0.7225 2.4933 2.2038
v 0.6950 2.3854 1.9199
v 0.6950 2.5346 2.1801
v 0.7225 2.4267 1.8962
v 0.7225 2.5760 2.1564
v 0.7775 2.4267 1.8962
v 0.7775 2.5760 2.1564
v 0.8050 2.3854 2.0799
v 0.8050 2.5346 2.3401
v 0.7775 2.3440 2.1036
v 0.7775 2.4933 2.3638
v 0.7225 2.3440 2.1036
v 0.7225 2.4933 2.3638
v 0.6950 2.3854 2.0799
v 0.6950 2.5346 2.3401
v 0.7225 2.4267 2.0562
v 0.7225 2.5760 2.3164
v 0.7775 2.4267 2.0562
v 0.7775 2.5760 2.3164
v -1.1300 0.9200 -3.5500
v -1.1300 1.7200 -3.5500
v -1.2300 0.9200 3.1500
v -1.2300 1.7200 3.1500
v -1.1300 0.9200 3.1500
v -1.1300 1.7200 3.1500
v -1.2400 1.7300 0.9500
v -1.2400 2.1700 0.9500
v -1.0800 1.7300 0.9500
v -1.0800 2.1700 0.9500
v -1.2400 1.7300 2.7500
v -1.2400 2.1700 2.7500
v -1.0800 1.7300 2.7500
v -1.0800 2.1700 2.7500
v -1.2400 1.7300 -2.7500
v -1.2400 2.1700 -2.7500
v -1.0800 1.7300 -2.7500
v -1.0800 2.1700 -2.7500
v -1.2400 1.7300 -1.1500
v -1.2400 2.1700 -1.1500
v -1.0800 1.7300 -1.1500
v -1.0800 2.1700 -1.1500
v -0.6500 2.0300 3.2500
v -0.6500 1.7700 3.2500
v -0.7100 1.2800 3.4600
v -0.7100 1.2800 3.5800
v -0.7510 1.1810 3.4600
v -0.7510 1.1810 3.5800
v -0.8500 1.1400 3.4600
v -0.8500 1.1400 3.5800
v -0.9490 1.1810 3.4600
v -0.9490 1.1810 3.5800
v -0.9900 1.2800 3.4600
v -0.9900 1.2800 3.5800
v -0.9490 1.3790 3.4600
v -0.9490 1.3790 3.5800
v -0.8500 1.4200 3.4600
v -0.8500 1.4200 3.5800
v -0.7510 1.3790 3.4600
v -0.7510 1.3790 3.5800
v -0.5500 1.7700 3.2500
v -0.5500 2.0300 3.2500
v -0.6500 1.7700 3.5500
v -0.6500 2.0300 3.5500
v -0.5500 1.7700 3.5500
v -0.5500 2.0300 3.5500
v -0.9750 2.1800 -3.6300
v -0.9750 0.5800 -3.6300
v -0.8750 2.3500 -2.7000
v -0.8750 4.0500 -2.7000
v -0.9000 2.3500 -2.6750
v -0.9000 4.0500 -2.6750
v -0.9250 2.3500 -2.7000
v -0.9250 4.0500 -2.7000
v -0.9000 2.3500 -2.7250
v -0.9000 4.0500 -2.7250
v -0.8650 2.2454 1.9199
v -0.8650 2.3946 2.1801
v -0.8925 2.2040 1.9436
v -0.8925 2.3533 2.2038
v -0.9475 2.2040 1.9436
v -0.9475 2.3533 2.2038
v -0.9750 2.2454 1.9199
v -0.9750 2.3946 2.1801
v -0.9475 2.2867 1.8962
v -0.9475 2.4360 2.1564
v -0.8925 2.2867 1.8962
v -0.8925 2.4360 2.1564
v -0.8650 2.2454 2.0799
v -0.8650 2.3946 2.3401
v -0.8925 2.2040 2.1036
v -0.8925 2.3533 2.3638
v -0.9475 2.2040 2.1036
v -0.9475 2.3533 2.3638
v -0.9750 2.2454 2.0799
v -0.9750 2.3946 2.3401
v -0.9475 2.2867 2.0562
v -0.9475 2.4360 2.3164
v -0.8925 2.2867 2.0562
v -0.8925 2.4360 2.3164
v -0.6950 2.3854 1.9199
v -0.6950 2.5346 2.1801
v -0.7225 2.3440 1.9436
v -0.7225 2.4933 2.2038
v -0.7775 2.3440 1.9436
v -0.7775 2.4933 2.2038
v -0.8050 2.3854 1.9199
v -0.8050 2.5346 2.1801
v -0.7775 2.4267 1.8962
v -0.7775 2.5760 2.1564
v -0.7225 2.4267 1.8962
v -0.7225 2.5760 2.1564
v -0.6950 2.3854 2.0799
v -0.6950 2.5346 2.3401
v -0.7225 2.3440 2.1036
v -0.7225 2.4933 2.3638
v -0.7775 2.3440 2.1036
v -0.7775 2.4933 2.3638
v -0.8050 2.3854 2.0799
v -0.8050 2.5346 2.3401
v -0.7775 2.4267 2.0562
v -0.7775 2.5760 2.3164
v -0.7225 2.4267 2.0562
v -0.7225 2.5760 2.3164
v 0.9750 0.5800 -3.6300
v 0.9750 2.1800 -3.6300
v -0.9750 0.5800 -3.5300
v -0.9750 2.1800 -3.5300
v 0.9750 0.5800 -3.5300
v 0.9750 2.1800 -3.5300
v 0.6500 0.6800 -3.7100
v 0.6500 2.0800 -3.7100
v 0.9500 0.6800 -3.7100
v 0.9500 2.0800 -3.7100
v 0.6500 0.6800 -3.5700
v 0.6500 2.0800 -3.5700
v 0.9500 0.6800 -3.5700
v 0.9500 2.0800 -3.5700
v -0.8000 2.3300 -1.7000
v -0.8000 2.4300 -1.7000
v 0.0000 2.3300 -1.7000
v 0.0000 2.4300 -1.7000
v -0.8000 2.3300 -0.9000
v -0.8000 2.4300 -0.9000
v 0.0000 2.3300 -0.9000
v 0.0000 2.4300 -0.9000
v 1.0800 2.2700 0.3000
v 1.0800 1.9300 0.3000
v -0.1000 2.3200 0.9500
v -0.1000 2.5200 0.9500
v -0.1802 2.3200 1.1969
v -0.1802 2.5200 1.1969
v -0.3902 2.3200 1.3494
v -0.3902 2.5200 1.3494
v -0.6498 2.3200 1.3494
v -0.6498 2.5200 1.3494
v -0.8598 2.3200 1.1969
v -0.8598 2.5200 1.1969
v -0.9400 2.3200 0.9500
v -0.9400 2.5200 0.9500
v -0.8598 2.3200 0.7031
v -0.8598 2.5200 0.7031
v -0.6498 2.3200 0.5506
v -0.6498 2.5200 0.5506
v -0.3902 2.3200 0.5506
v -0.3902 2.5200 0.5506
v -0.1802 2.3200 0.7031
v -0.1802 2.5200 0.7031
v 1.3200 1.9300 0.3000
v 1.3200 2.2700 0.3000
v 1.0800 1.9300 0.9000
v 1.0800 2.2700 0.9000
v 1.3200 1.9300 0.9000
v 1.3200 2.2700 0.9000
v 0.0500 2.8900 0.1200
v 0.0500 2.5100 0.1200
v 0.8600 2.3500 0.4500
v 0.8600 2.5300 0.4500
v 0.7760 2.3500 0.7086
v 0.7760 2.5300 0.7086
v 0.5560 2.3500 0.8685
v 0.5560 2.5300 0.8685
v 0.2840 2.3500 0.8685
v 0.2840 2.5300 0.8685
v 0.0640 2.3500 0.7086
v 0.0640 2.5300 0.7086
v -0.0200 2.3500 0.4500
v -0.0200 2.5300 0.4500
v 0.0640 2.3500 0.1914
v 0.0640 2.5300 0.1914
v 0.2840 2.3500 0.0315
v 0.2840 2.5300 0.0315
v 0.5560 2.3500 0.0315
v 0.5560 2.5300 0.0315
v 0.7760 2.3500 0.1914
v 0.7760 2.5300 0.1914
v 0.7900 2.5100 0.1200
v 0.7900 2.8900 0.1200
v 0.0500 2.5100 0.7800
v 0.0500 2.8900 0.7800
v 0.7900 2.5100 0.7800
v 0.7900 2.8900 0.7800
v 0.0700 2.5300 0.7700
v 0.0700 2.9100 0.7700
v 0.7700 2.5300 0.7700
v 0.7700 2.9100 0.7700
v 0.0700 2.5300 0.8700
v 0.0700 2.9100 0.8700
v 0.7700 2.5300 0.8700
v 0.7700 2.9100 0.8700
v 0.5900 2.8300 0.1800
v 0.5900 3.0500 0.1800
v 0.4650 2.7400 0.8800
v 0.4650 2.7400 1.7200
v 0.4425 2.7010 0.8800
v 0.4425 2.7010 1.7200
v 0.3975 2.7010 0.8800
v 0.3975 2.7010 1.7200
v 0.3750 2.7400 0.8800
v 0.3750 2.7400 1.7200
v 0.3975 2.7790 0.8800
v 0.3975 2.7790 1.7200
v 0.4425 2.7790 0.8800
v 0.4425 2.7790 1.7200
v 0.7700 2.8300 0.1800
v 0.7700 3.0500 0.1800
v 0.5900 2.8300 0.4200
v 0.5900 3.0500 0.4200
v 0.7700 2.8300 0.4200
v 0.7700 3.0500 0.4200
v 0.0000 2.7400 0.0700
v 0.0000 2.9800 0.0700
v 0.2000 2.7400 0.0700
v 0.2000 2.9800 0.0700
v 0.0000 2.7400 0.3300
v 0.0000 2.9800 0.3300
v 0.2000 2.7400 0.3300
v 0.2000 2.9800 0.3300
usemtl Mat0
f 3 6 5
f 50 51 49
f 6 7 5
f 8 9 7
f 10 11 9
f 166 167 165
f 12 13 11
f 14 15 13
f 16 17 15
f 46 47 45
f 48 49 47
f 18 19 17
f 8 4 20
f 54 55 53
f 20 21 19
f 90 91 89
f 52 53 51
f 22 3 21
f 9 17 21
f 43 46 45
f 56 57 55
f 86 87 85
f 88 89 87
f 58 59 57
f 46 62 54
f 94 95 93
f 60 61 59
f 124 125 123
f 92 93 91
f 62 43 61
f 53 61 45
f 84 85 83
f 96 97 95
f 132 133 131
f 134 135 133
f 98 99 97
f 86 102 94
f 128 129 127
f 100 101 99
f 126 127 125
f 102 83 101
f 93 97 85
f 130 131 129
f 206 207 205
f 136 137 135
f 174 175 173
f 172 173 171
f 138 139 137
f 168 169 167
f 139 127 131
f 140 141 139
f 164 165 163
f 142 123 141
f 124 140 136
f 170 171 169
f 246 247 245
f 176 177 175
f 214 215 213
f 212 213 211
f 178 179 177
f 208 209 207
f 179 163 167
f 180 181 179
f 204 205 203
f 182 163 181
f 168 164 180
f 210 211 209
f 286 287 285
f 216 217 215
f 254 255 253
f 251 254 253
f 218 219 217
f 248 249 247
f 213 217 205
f 220 221 219
f 244 245 243
f 222 203 221
f 208 204 220
f 250 251 249
f 256 257 255
f 294 295 293
f 291 294 293
f 258 259 257
f 288 289 287
f 253 261 245
f 260 261 259
f 284 285 283
f 262 243 261
f 244 260 256
f 290 291 289
f 296 297 295
f 298 299 297
f 289 293 297
f 300 301 299
f 302 283 301
f 284 300 296
f 8 6 4
f 4 22 20
f 20 18 16
f 16 14 20
f 14 12 20
f 12 10 20
f 10 8 20
f 21 3 5
f 5 7 9
f 9 11 13
f 13 15 17
f 17 19 21
f 21 5 9
f 9 13 17
f 50 48 46
f 46 44 62
f 62 60 58
f 58 56 62
f 56 54 62
f 54 52 50
f 50 46 54
f 45 47 49
f 49 51 45
f 51 53 45
f 53 55 57
f 57 59 61
f 61 43 45
f 53 57 61
f 90 88 86
f 86 84 102
f 102 100 94
f 100 98 94
f 98 96 94
f 94 92 90
f 90 86 94
f 89 91 93
f 93 95 97
f 97 99 101
f 101 83 97
f 83 85 97
f 85 87 89
f 89 93 85
f 131 133 135
f 135 137 131
f 137 139 131
f 139 141 123
f 123 125 127
f 127 129 131
f 139 123 127
f 136 134 132
f 132 130 136
f 130 128 136
f 128 126 124
f 124 142 140
f 140 138 136
f 128 124 136
f 167 169 171
f 171 173 175
f 175 177 179
f 179 181 163
f 163 165 167
f 167 171 175
f 175 179 167
f 176 174 172
f 172 170 168
f 168 166 164
f 164 182 180
f 180 178 176
f 176 172 180
f 172 168 180
f 209 211 213
f 213 215 217
f 217 219 221
f 221 203 217
f 203 205 217
f 205 207 209
f 209 213 205
f 216 214 212
f 212 210 208
f 208 206 204
f 204 222 220
f 220 218 216
f 216 212 220
f 212 208 220
f 245 247 249
f 249 251 245
f 251 253 245
f 253 255 257
f 257 259 261
f 261 243 245
f 253 257 261
f 256 254 248
f 254 252 248
f 252 250 248
f 248 246 244
f 244 262 260
f 260 258 256
f 248 244 256
f 289 291 293
f 293 295 297
f 297 299 301
f 301 283 297
f 283 285 297
f 285 287 297
f 287 289 297
f 296 294 292
f 292 290 296
f 290 288 296
f 288 286 284
f 284 302 300
f 300 298 296
f 288 284 296
f 3 4 6
f 50 52 51
f 6 8 7
f 8 10 9
f 10 12 11
f 166 168 167
f 12 14 13
f 14 16 15
f 16 18 17
f 46 48 47
f 48 50 49
f 18 20 19
f 54 56 55
f 20 22 21
f 90 92 91
f 52 54 53
f 22 4 3
f 43 44 46
f 56 58 57
f 86 88 87
f 88 90 89
f 58 60 59
f 94 96 95
f 60 62 61
f 124 126 125
f 92 94 93
f 62 44 43
f 84 86 85
f 96 98 97
f 132 134 133
f 134 136 135
f 98 100 99
f 128 130 129
f 100 102 101
f 126 128 127
f 102 84 83
f 130 132 131
f 206 208 207
f 136 138 137
f 174 176 175
f 172 174 173
f 138 140 139
f 168 170 169
f 140 142 141
f 164 166 165
f 142 124 123
f 170 172 171
f 246 248 247
f 176 178 177
f 214 216 215
f 212 214 213
f 178 180 179
f 208 210 209
f 180 182 181
f 204 206 205
f 182 164 163
f 210 212 211
f 286 288 287
f 216 218 217
f 254 256 255
f 251 252 254
f 218 220 219
f 248 250 249
f 220 222 221
f 244 246 245
f 222 204 203
f 250 252 251
f 256 258 257
f 294 296 295
f 291 292 294
f 258 260 259
f 288 290 289
f 260 262 261
f 284 286 285
f 262 244 243
f 290 292 291
f 296 298 297
f 298 300 299
f 300 302 301
f 302 284 283
usemtl Mat1
f 34 35 33
f 28 29 27
f 186 187 185
f 32 33 31
f 26 27 25
f 70 71 69
f 30 31 29
f 24 25 23
f 36 37 35
f 66 67 65
f 68 69 67
f 38 39 37
f 28 24 36
f 74 75 73
f 40 41 39
f 110 111 109
f 72 73 71
f 42 23 41
f 37 41 29
f 64 65 63
f 76 77 75
f 106 107 105
f 108 109 107
f 78 79 77
f 68 64 80
f 114 115 113
f 80 81 79
f 146 147 145
f 112 113 111
f 82 63 81
f 79 63 67
f 104 105 103
f 116 117 115
f 154 155 153
f 152 153 151
f 118 119 117
f 148 149 147
f 119 107 111
f 120 121 119
f 144 145 143
f 122 103 121
f 108 120 116
f 150 151 149
f 226 227 225
f 156 157 155
f 194 195 193
f 192 193 191
f 158 159 157
f 188 189 187
f 151 159 143
f 160 161 159
f 184 185 183
f 162 143 161
f 148 160 156
f 190 191 189
f 266 267 265
f 196 197 195
f 234 235 233
f 232 233 231
f 198 199 197
f 228 229 227
f 193 197 201
f 200 201 199
f 224 225 223
f 202 183 201
f 188 200 196
f 230 231 229
f 306 307 305
f 236 237 235
f 274 275 273
f 272 273 271
f 238 239 237
f 268 269 267
f 237 225 229
f 240 241 239
f 264 265 263
f 242 223 241
f 228 240 236
f 270 271 269
f 276 277 275
f 314 315 313
f 312 313 311
f 278 279 277
f 308 309 307
f 273 277 265
f 280 281 279
f 304 305 303
f 282 263 281
f 264 280 276
f 310 311 309
f 316 317 315
f 318 319 317
f 313 321 305
f 320 321 319
f 322 303 321
f 304 320 316
f 32 30 28
f 28 26 24
f 24 42 40
f 40 38 24
f 38 36 24
f 36 34 32
f 32 28 36
f 33 35 37
f 37 39 41
f 41 23 25
f 25 27 41
f 27 29 41
f 29 31 33
f 33 37 29
f 76 74 72
f 72 70 76
f 70 68 76
f 68 66 64
f 64 82 80
f 80 78 68
f 78 76 68
f 71 73 75
f 75 77 71
f 77 79 71
f 79 81 63
f 63 65 67
f 67 69 79
f 69 71 79
f 111 113 115
f 115 117 119
f 119 121 103
f 103 105 119
f 105 107 119
f 107 109 111
f 111 115 119
f 116 114 112
f 112 110 108
f 108 106 104
f 104 122 108
f 122 120 108
f 120 118 116
f 116 112 108
f 143 145 147
f 147 149 151
f 151 153 155
f 155 157 159
f 159 161 143
f 143 147 151
f 151 155 159
f 156 154 152
f 152 150 148
f 148 146 144
f 144 162 148
f 162 160 148
f 160 158 156
f 156 152 148
f 185 187 189
f 189 191 193
f 193 195 197
f 197 199 201
f 201 183 185
f 185 189 201
f 189 193 201
f 196 194 192
f 192 190 188
f 188 186 184
f 184 202 188
f 202 200 188
f 200 198 196
f 196 192 188
f 229 231 233
f 233 235 229
f 235 237 229
f 237 239 225
f 239 241 225
f 241 223 225
f 225 227 229
f 236 234 232
f 232 230 228
f 228 226 224
f 224 242 228
f 242 240 228
f 240 238 236
f 236 232 228
f 269 271 273
f 273 275 277
f 277 279 281
f 281 263 277
f 263 265 277
f 265 267 269
f 269 273 265
f 276 274 268
f 274 272 268
f 272 270 268
f 268 266 264
f 264 282 280
f 280 278 276
f 268 264 276
f 305 307 309
f 309 311 313
f 313 315 317
f 317 319 321
f 321 303 305
f 305 309 313
f 313 317 321
f 316 314 308
f 314 312 308
f 312 310 308
f 308 306 304
f 304 322 320
f 320 318 316
f 308 304 316
f 34 36 35
f 28 30 29
f 186 188 187
f 32 34 33
f 26 28 27
f 70 72 71
f 30 32 31
f 24 26 25
f 36 38 37
f 66 68 67
f 68 70 69
f 38 40 39
f 74 76 75
f 40 42 41
f 110 112 111
f 72 74 73
f 42 24 23
f 64 66 65
f 76 78 77
f 106 108 107
f 108 110 109
f 78 80 79
f 114 116 115
f 80 82 81
f 146 148 147
f 112 114 113
f 82 64 63
f 104 106 105
f 116 118 117
f 154 156 155
f 152 154 153
f 118 120 119
f 148 150 149
f 120 122 121
f 144 146 145
f 122 104 103
f 150 152 151
f 226 228 227
f 156 158 157
f 194 196 195
f 192 194 193
f 158 160 159
f 188 190 189
f 160 162 161
f 184 186 185
f 162 144 143
f 190 192 191
f 266 268 267
f 196 198 197
f 234 236 235
f 232 234 233
f 198 200 199
f 228 230 229
f 200 202 201
f 224 226 225
f 202 184 183
f 230 232 231
f 306 308 307
f 236 238 237
f 274 276 275
f 272 274 273
f 238 240 239
f 268 270 269
f 240 242 241
f 264 266 265
f 242 224 223
f 270 272 271
f 276 278 277
f 314 316 315
f 312 314 313
f 278 280 279
f 308 310 309
f 280 282 281
f 304 306 305
f 282 264 263
f 310 312 311
f 316 318 317
f 318 320 319
f 320 322 321
f 322 304 303
usemtl Mat2
f 332 326 325
f 330 324 323
f 331 325 324
f 329 323 1
f 334 2 327
f 328 1 2
f 329 328 333
f 325 326 1
f 333 327 326
f 552 553 551
f 554 557 553
f 556 551 555
f 557 551 553
f 558 555 557
f 554 556 558
f 570 571 569
f 572 573 571
f 574 575 573
f 576 577 575
f 578 579 577
f 580 581 579
f 582 583 581
f 584 585 583
f 586 582 578
f 586 587 585
f 618 620 622
f 588 569 587
f 575 579 583
f 621 596 617
f 620 596 619
f 622 619 621
f 618 621 617
f 595 617 596
f 328 334 333
f 333 332 329
f 332 331 329
f 331 330 329
f 327 2 326
f 2 1 326
f 1 323 324
f 324 325 1
f 574 572 586
f 572 570 586
f 570 588 586
f 586 584 582
f 582 580 578
f 578 576 586
f 576 574 586
f 587 569 575
f 569 571 575
f 571 573 575
f 575 577 579
f 579 581 583
f 583 585 575
f 585 587 575
f 332 333 326
f 330 331 324
f 331 332 325
f 329 330 323
f 334 328 2
f 328 329 1
f 333 334 327
f 552 554 553
f 554 558 557
f 556 552 551
f 557 555 551
f 558 556 555
f 554 552 556
f 570 572 571
f 572 574 573
f 574 576 575
f 576 578 577
f 578 580 579
f 580 582 581
f 582 584 583
f 584 586 585
f 586 588 587
f 618 595 620
f 588 570 569
f 621 619 596
f 620 595 596
f 622 620 619
f 618 622 621
f 595 618 617
usemtl Mat3
f 341 335 337
f 340 335 339
f 336 337 335
f 338 340 342
f 342 339 341
f 338 341 337
f 446 443 445
f 445 384 441
f 444 384 443
f 442 445 441
f 383 441 384
f 442 444 446
f 550 547 549
f 549 488 545
f 548 488 547
f 546 549 545
f 487 545 488
f 546 548 550
f 560 561 559
f 562 565 561
f 566 563 565
f 564 559 563
f 565 559 561
f 562 564 566
f 604 605 603
f 598 599 597
f 656 651 655
f 630 627 629
f 602 603 601
f 624 625 623
f 600 601 599
f 626 629 625
f 606 607 605
f 608 609 607
f 626 628 630
f 610 611 609
f 629 623 625
f 612 613 611
f 610 606 602
f 614 615 613
f 658 655 657
f 628 623 627
f 616 597 615
f 615 599 603
f 654 657 653
f 652 653 651
f 657 651 653
f 654 656 658
f 602 600 598
f 598 616 602
f 616 614 602
f 614 612 610
f 610 608 606
f 606 604 602
f 614 610 602
f 603 605 607
f 607 609 611
f 611 613 615
f 615 597 599
f 599 601 603
f 603 607 611
f 611 615 603
f 341 339 335
f 340 336 335
f 336 338 337
f 338 336 340
f 342 340 339
f 338 342 341
f 446 444 443
f 445 443 384
f 444 383 384
f 442 446 445
f 383 442 441
f 442 383 444
f 550 548 547
f 549 547 488
f 548 487 488
f 546 550 549
f 487 546 545
f 546 487 548
f 560 562 561
f 562 566 565
f 566 564 563
f 564 560 559
f 565 563 559
f 562 560 564
f 604 606 605
f 598 600 599
f 656 652 651
f 630 628 627
f 602 604 603
f 624 626 625
f 600 602 601
f 626 630 629
f 606 608 607
f 608 610 609
f 626 624 628
f 610 612 611
f 629 627 623
f 612 614 613
f 614 616 615
f 658 656 655
f 628 624 623
f 616 598 597
f 654 658 657
f 652 654 653
f 657 655 651
f 654 652 656
usemtl Mat4
f 346 349 345
f 350 347 349
f 344 345 343
f 348 343 347
f 349 343 345
f 346 348 350
f 352 353 351
f 354 357 353
f 358 355 357
f 356 351 355
f 357 351 353
f 354 356 358
f 448 449 447
f 450 453 449
f 452 447 451
f 453 447 449
f 454 451 453
f 450 452 454
f 456 457 455
f 458 461 457
f 462 459 461
f 460 455 459
f 461 455 457
f 458 460 462
f 346 350 349
f 350 348 347
f 344 346 345
f 348 344 343
f 349 347 343
f 346 344 348
f 352 354 353
f 354 358 357
f 358 356 355
f 356 352 351
f 357 355 351
f 354 352 356
f 448 450 449
f 450 454 453
f 452 448 447
f 453 451 447
f 454 452 451
f 450 448 452
f 456 458 457
f 458 462 461
f 462 460 459
f 460 456 455
f 461 459 455
f 458 456 460
usemtl Mat5
f 362 363 361
f 364 365 363
f 366 367 365
f 368 369 367
f 370 371 369
f 372 373 371
f 374 370 366
f 374 375 373
f 376 361 375
f 373 375 367
f 466 467 465
f 468 469 467
f 470 471 469
f 472 473 471
f 474 475 473
f 476 477 475
f 478 474 470
f 478 479 477
f 480 465 479
f 477 479 471
f 366 364 362
f 362 376 374
f 374 372 370
f 370 368 366
f 366 362 374
f 375 361 363
f 363 365 375
f 365 367 375
f 367 369 371
f 371 373 367
f 470 468 466
f 466 480 478
f 478 476 474
f 474 472 470
f 470 466 478
f 479 465 467
f 467 469 479
f 469 471 479
f 471 473 475
f 475 477 471
f 362 364 363
f 364 366 365
f 366 368 367
f 368 370 369
f 370 372 371
f 372 374 373
f 374 376 375
f 376 362 361
f 466 468 467
f 468 470 469
f 470 472 471
f 472 474 473
f 474 476 475
f 476 478 477
f 478 480 479
f 480 466 465
usemtl Mat6
f 378 380 382
f 381 360 377
f 380 360 379
f 382 379 381
f 378 381 377
f 359 377 360
f 482 484 486
f 485 464 481
f 484 464 483
f 486 483 485
f 482 485 481
f 463 481 464
f 378 359 380
f 381 379 360
f 380 359 360
f 382 380 379
f 378 382 381
f 359 378 377
f 482 463 484
f 485 483 464
f 484 463 464
f 486 484 483
f 482 486 485
f 463 482 481
usemtl Mat7
f 385 389 391
f 390 391 389
f 388 389 387
f 386 387 385
f 392 385 391
f 390 386 392
f 489 493 495
f 494 495 493
f 492 493 491
f 490 491 489
f 496 489 495
f 494 490 496
f 385 387 389
f 390 392 391
f 388 390 389
f 386 388 387
f 392 386 385
f 390 388 386
f 489 491 493
f 494 496 495
f 492 494 493
f 490 492 491
f 496 490 489
f 494 492 490
usemtl Mat8
f 394 395 393
f 410 411 409
f 408 409 407
f 421 424 423
f 396 397 395
f 405 408 407
f 397 400 399
f 418 419 417
f 399 402 401
f 434 435 433
f 401 403 393
f 402 403 401
f 420 421 419
f 430 431 429
f 404 393 403
f 404 402 400
f 412 413 411
f 407 409 413
f 414 415 413
f 432 433 431
f 415 406 405
f 416 414 412
f 424 425 423
f 417 419 421
f 426 427 425
f 428 417 427
f 424 422 418
f 436 437 435
f 430 440 438
f 438 439 437
f 440 429 439
f 431 433 437
f 498 499 497
f 514 515 513
f 512 513 511
f 525 528 527
f 500 501 499
f 509 512 511
f 501 504 503
f 522 523 521
f 503 506 505
f 537 540 539
f 505 507 497
f 506 507 505
f 524 525 523
f 534 535 533
f 508 497 507
f 508 506 504
f 516 517 515
f 509 511 513
f 518 519 517
f 536 537 535
f 519 510 509
f 520 518 516
f 527 530 529
f 521 523 525
f 530 531 529
f 531 522 521
f 528 526 522
f 540 541 539
f 534 544 542
f 542 543 541
f 544 533 543
f 535 537 541
f 634 635 633
f 636 637 635
f 590 592 594
f 593 568 589
f 646 648 650
f 592 568 591
f 594 591 593
f 590 593 589
f 567 589 568
f 650 647 649
f 649 631 645
f 638 639 637
f 646 649 645
f 640 641 639
f 632 645 631
f 641 643 633
f 642 643 641
f 648 631 647
f 644 633 643
f 640 638 634
f 393 395 397
f 397 399 393
f 399 401 393
f 400 398 396
f 396 394 400
f 394 404 400
f 409 411 413
f 413 415 405
f 405 407 413
f 412 410 408
f 408 406 412
f 406 416 412
f 421 423 417
f 423 425 417
f 425 427 417
f 422 420 418
f 418 428 426
f 426 424 418
f 438 436 430
f 436 434 430
f 434 432 430
f 433 435 437
f 437 439 429
f 429 431 437
f 497 499 501
f 501 503 497
f 503 505 497
f 504 502 500
f 500 498 504
f 498 508 504
f 513 515 509
f 515 517 509
f 517 519 509
f 516 514 512
f 512 510 516
f 510 520 516
f 525 527 521
f 527 529 521
f 529 531 521
f 526 524 522
f 522 532 530
f 530 528 522
f 542 540 534
f 540 538 534
f 538 536 534
f 537 539 541
f 541 543 533
f 533 535 541
f 633 635 637
f 637 639 633
f 639 641 633
f 638 636 634
f 634 644 642
f 642 640 634
f 394 396 395
f 410 412 411
f 408 410 409
f 421 422 424
f 396 398 397
f 405 406 408
f 397 398 400
f 418 420 419
f 399 400 402
f 434 436 435
f 402 404 403
f 420 422 421
f 430 432 431
f 404 394 393
f 412 414 413
f 414 416 415
f 432 434 433
f 415 416 406
f 424 426 425
f 426 428 427
f 428 418 417
f 436 438 437
f 438 440 439
f 440 430 429
f 498 500 499
f 514 516 515
f 512 514 513
f 525 526 528
f 500 502 501
f 509 510 512
f 501 502 504
f 522 524 523
f 503 504 506
f 537 538 540
f 506 508 507
f 524 526 525
f 534 536 535
f 508 498 497
f 516 518 517
f 518 520 519
f 536 538 537
f 519 520 510
f 527 528 530
f 530 532 531
f 531 532 522
f 540 542 541
f 542 544 543
f 544 534 533
f 634 636 635
f 636 638 637
f 590 567 592
f 593 591 568
f 646 632 648
f 592 567 568
f 594 592 591
f 590 594 593
f 567 590 589
f 650 648 647
f 649 647 631
f 638 640 639
f 646 650 649
f 640 642 641
f 632 646 645
f 642 644 643
f 648 632 631
f 644 634 633
