# Quad-rotor drone, ~2.0x2.0x0.6m
# generated by tools/gen_models.py (Task57) - do not hand-edit
mtllib Unit_Drone.mtl
v -0.2300 0.0000 -0.2300
v -0.1700 0.0000 -0.2300
v -0.2300 0.2000 -0.2300
v -0.1700 0.2000 -0.2300
v -0.2300 0.0000 -0.1700
v -0.1700 0.0000 -0.1700
v -0.2300 0.2000 -0.1700
v -0.1700 0.2000 -0.1700
v -0.2300 0.0000 0.1700
v -0.1700 0.0000 0.1700
v -0.2300 0.2000 0.1700
v -0.1700 0.2000 0.1700
v -0.2300 0.0000 0.2300
v -0.1700 0.0000 0.2300
v -0.2300 0.2000 0.2300
v -0.1700 0.2000 0.2300
v 0.1700 0.0000 -0.2300
v 0.2300 0.0000 -0.2300
v 0.1700 0.2000 -0.2300
v 0.2300 0.2000 -0.2300
v 0.1700 0.0000 -0.1700
v 0.2300 0.0000 -0.1700
v 0.1700 0.2000 -0.1700
v 0.2300 0.2000 -0.1700
v 0.1700 0.0000 0.1700
v 0.2300 0.0000 0.1700
v 0.1700 0.2000 0.1700
v 0.2300 0.2000 0.1700
v 0.1700 0.0000 0.2300
v 0.2300 0.0000 0.2300
v 0.1700 0.2000 0.2300
v 0.2300 0.2000 0.2300
v -0.2500 0.2000 -0.2500
v 0.2500 0.2000 -0.2500
v -0.2500 0.5000 -0.2500
v 0.2500 0.5000 -0.2500
v -0.2500 0.2000 0.2500
v 0.2500 0.2000 0.2500
v -0.2500 0.5000 0.2500
v 0.2500 0.5000 0.2500
v 0.2000 0.3250 -0.0400
v 0.9000 0.3250 -0.0400
v 0.2000 0.3750 -0.0400
v 0.9000 0.3750 -0.0400
v 0.2000 0.3250 0.0400
v 0.9000 0.3250 0.0400
v 0.2000 0.3750 0.0400
v 0.9000 0.3750 0.0400
v -0.9000 0.3250 -0.0400
v -0.2000 0.3250 -0.0400
v -0.9000 0.3750 -0.0400
v -0.2000 0.3750 -0.0400
v -0.9000 0.3250 0.0400
v -0.2000 0.3250 0.0400
v -0.9000 0.3750 0.0400
v -0.2000 0.3750 0.0400
v -0.0400 0.3250 0.2000
v 0.0400 0.3250 0.2000
v -0.0400 0.3750 0.2000
v 0.0400 0.3750 0.2000
v -0.0400 0.3250 0.9000
v 0.0400 0.3250 0.9000
v -0.0400 0.3750 0.9000
v 0.0400 0.3750 0.9000
v -0.0400 0.3250 -0.9000
v 0.0400 0.3250 -0.9000
v -0.0400 0.3750 -0.9000
v 0.0400 0.3750 -0.9000
v -0.0400 0.3250 -0.2000
v 0.0400 0.3250 -0.2000
v -0.0400 0.3750 -0.2000
v 0.0400 0.3750 -0.2000
v 1.1700 0.4000 0.0000
v 1.1700 0.4400 0.0000
v 1.0100 0.4000 -0.2771
v 1.0100 0.4400 -0.2771
v 0.6900 0.4000 -0.2771
v 0.6900 0.4400 -0.2771
v 0.5300 0.4000 -0.0000
v 0.5300 0.4400 -0.0000
v 0.6900 0.4000 0.2771
v 0.6900 0.4400 0.2771
v 1.0100 0.4000 0.2771
v 1.0100 0.4400 0.2771
v -0.5300 0.4000 0.0000
v -0.5300 0.4400 0.0000
v -0.6900 0.4000 -0.2771
v -0.6900 0.4400 -0.2771
v -1.0100 0.4000 -0.2771
v -1.0100 0.4400 -0.2771
v -1.1700 0.4000 -0.0000
v -1.1700 0.4400 -0.0000
v -1.0100 0.4000 0.2771
v -1.0100 0.4400 0.2771
v -0.6900 0.4000 0.2771
v -0.6900 0.4400 0.2771
v 0.3200 0.4000 0.8500
v 0.3200 0.4400 0.8500
v 0.1600 0.4000 0.5729
v 0.1600 0.4400 0.5729
v -0.1600 0.4000 0.5729
v -0.1600 0.4400 0.5729
v -0.3200 0.4000 0.8500
v -0.3200 0.4400 0.8500
v -0.1600 0.4000 1.1271
v -0.1600 0.4400 1.1271
v 0.1600 0.4000 1.1271
v 0.1600 0.4400 1.1271
v 0.3200 0.4000 -0.8500
v 0.3200 0.4400 -0.8500
v 0.1600 0.4000 -1.1271
v 0.1600 0.4400 -1.1271
v -0.1600 0.4000 -1.1271
v -0.1600 0.4400 -1.1271
v -0.3200 0.4000 -0.8500
v -0.3200 0.4400 -0.8500
v -0.1600 0.4000 -0.5729
v -0.1600 0.4400 -0.5729
v 0.1600 0.4000 -0.5729
v 0.1600 0.4400 -0.5729
usemtl Mat
f 1 3 4 2
f 5 6 8 7
f 1 5 7 3
f 2 4 8 6
f 1 2 6 5
f 3 7 8 4
f 9 11 12 10
f 13 14 16 15
f 9 13 15 11
f 10 12 16 14
f 9 10 14 13
f 11 15 16 12
f 17 19 20 18
f 21 22 24 23
f 17 21 23 19
f 18 20 24 22
f 17 18 22 21
f 19 23 24 20
f 25 27 28 26
f 29 30 32 31
f 25 29 31 27
f 26 28 32 30
f 25 26 30 29
f 27 31 32 28
f 33 35 36 34
f 37 38 40 39
f 33 37 39 35
f 34 36 40 38
f 33 34 38 37
f 35 39 40 36
f 41 43 44 42
f 45 46 48 47
f 41 45 47 43
f 42 44 48 46
f 41 42 46 45
f 43 47 48 44
f 49 51 52 50
f 53 54 56 55
f 49 53 55 51
f 50 52 56 54
f 49 50 54 53
f 51 55 56 52
f 57 59 60 58
f 61 62 64 63
f 57 61 63 59
f 58 60 64 62
f 57 58 62 61
f 59 63 64 60
f 65 67 68 66
f 69 70 72 71
f 65 69 71 67
f 66 68 72 70
f 65 66 70 69
f 67 71 72 68
f 83 81 79 77 75 73
f 74 76 78 80 82 84
f 75 76 74 73
f 77 78 76 75
f 79 80 78 77
f 81 82 80 79
f 83 84 82 81
f 73 74 84 83
f 95 93 91 89 87 85
f 86 88 90 92 94 96
f 87 88 86 85
f 89 90 88 87
f 91 92 90 89
f 93 94 92 91
f 95 96 94 93
f 85 86 96 95
f 107 105 103 101 99 97
f 98 100 102 104 106 108
f 99 100 98 97
f 101 102 100 99
f 103 104 102 101
f 105 106 104 103
f 107 108 106 105
f 97 98 108 107
f 119 117 115 113 111 109
f 110 112 114 116 118 120
f 111 112 110 109
f 113 114 112 111
f 115 116 114 113
f 117 118 116 115
f 119 120 118 117
f 109 110 120 119
