# Tactical bomber: fuselage+wings+nacelles, ~35x32x8m
# generated by tools/gen_models.py (Task57) - do not hand-edit
mtllib Unit_Bomber.mtl
v -1.5000 0.3000 -16.0000
v 1.5000 0.3000 -16.0000
v -1.5000 3.3000 -16.0000
v 1.5000 3.3000 -16.0000
v -1.5000 0.3000 12.0000
v 1.5000 0.3000 12.0000
v -1.5000 3.3000 12.0000
v 1.5000 3.3000 12.0000
v -1.5000 0.6000 10.0000
v 1.5000 0.6000 10.0000
v -1.5000 3.0000 10.0000
v 1.5000 3.0000 10.0000
v -1.5000 0.6000 14.0000
v 1.5000 0.6000 14.0000
v -1.5000 1.0000 14.0000
v 1.5000 1.0000 14.0000
v -0.1000 3.3000 -15.7500
v 0.1000 3.3000 -15.7500
v -0.1000 7.3000 -15.7500
v 0.1000 7.3000 -15.7500
v -0.1000 3.3000 -12.2500
v 0.1000 3.3000 -12.2500
v -0.1000 7.3000 -12.2500
v 0.1000 7.3000 -12.2500
v 1.5000 1.4000 -2.0000
v 16.0000 1.4000 -0.5000
v 1.5000 1.9000 -2.0000
v 16.0000 1.9000 -0.5000
v 1.5000 1.4000 1.5000
v 16.0000 1.4000 0.8000
v 1.5000 1.9000 1.5000
v 16.0000 1.9000 0.8000
v -16.0000 1.4000 -0.5000
v -1.5000 1.4000 -2.0000
v -16.0000 1.9000 -0.5000
v -1.5000 1.9000 -2.0000
v -16.0000 1.4000 0.8000
v -1.5000 1.4000 1.5000
v -16.0000 1.9000 0.8000
v -1.5000 1.9000 1.5000
v -7.0000 1.9000 -2.5000
v -7.0000 1.9000 1.5000
v -7.6364 1.6364 -2.5000
v -7.6364 1.6364 1.5000
v -7.9000 1.0000 -2.5000
v -7.9000 1.0000 1.5000
v -7.6364 0.3636 -2.5000
v -7.6364 0.3636 1.5000
v -7.0000 0.1000 -2.5000
v -7.0000 0.1000 1.5000
v -6.3636 0.3636 -2.5000
v -6.3636 0.3636 1.5000
v -6.1000 1.0000 -2.5000
v -6.1000 1.0000 1.5000
v -6.3636 1.6364 -2.5000
v -6.3636 1.6364 1.5000
v 7.0000 1.9000 -2.5000
v 7.0000 1.9000 1.5000
v 6.3636 1.6364 -2.5000
v 6.3636 1.6364 1.5000
v 6.1000 1.0000 -2.5000
v 6.1000 1.0000 1.5000
v 6.3636 0.3636 -2.5000
v 6.3636 0.3636 1.5000
v 7.0000 0.1000 -2.5000
v 7.0000 0.1000 1.5000
v 7.6364 0.3636 -2.5000
v 7.6364 0.3636 1.5000
v 7.9000 1.0000 -2.5000
v 7.9000 1.0000 1.5000
v 7.6364 1.6364 -2.5000
v 7.6364 1.6364 1.5000
usemtl Mat
f 1 3 4 2
f 5 6 8 7
f 1 5 7 3
f 2 4 8 6
f 1 2 6 5
f 3 7 8 4
f 9 11 12 10
f 13 14 16 15
f 9 13 15 11
f 10 12 16 14
f 9 10 14 13
f 11 15 16 12
f 17 19 20 18
f 21 22 24 23
f 17 21 23 19
f 18 20 24 22
f 17 18 22 21
f 19 23 24 20
f 25 27 28 26
f 29 30 32 31
f 25 29 31 27
f 26 28 32 30
f 25 26 30 29
f 27 31 32 28
f 33 35 36 34
f 37 38 40 39
f 33 37 39 35
f 34 36 40 38
f 33 34 38 37
f 35 39 40 36
f 55 53 51 49 47 45 43 41
f 42 44 46 48 50 52 54 56
f 43 44 42 41
f 45 46 44 43
f 47 48 46 45
f 49 50 48 47
f 51 52 50 49
f 53 54 52 51
f 55 56 54 53
f 41 42 56 55
f 71 69 67 65 63 61 59 57
f 58 60 62 64 66 68 70 72
f 59 60 58 57
f 61 62 60 59
f 63 64 62 61
f 65 66 64 63
f 67 68 66 65
f 69 70 68 67
f 71 72 70 69
f 57 58 72 71
