# Aircraft carrier: hull+flat deck+island, ~250x40x30m
# generated by tools/gen_models.py (Task57) - do not hand-edit
mtllib Unit_Carrier.mtl
v -16.0000 0.0000 -125.0000
v 16.0000 0.0000 -125.0000
v -16.0000 14.0000 -125.0000
v 16.0000 14.0000 -125.0000
v -16.0000 0.0000 125.0000
v 16.0000 0.0000 125.0000
v -16.0000 14.0000 125.0000
v 16.0000 14.0000 125.0000
v -20.0000 14.0000 -120.0000
v 20.0000 14.0000 -120.0000
v -20.0000 15.5000 -120.0000
v 20.0000 15.5000 -120.0000
v -20.0000 14.0000 120.0000
v 20.0000 14.0000 120.0000
v -20.0000 15.5000 120.0000
v 20.0000 15.5000 120.0000
v 10.0000 15.5000 -55.0000
v 18.0000 15.5000 -55.0000
v 10.0000 25.5000 -55.0000
v 18.0000 25.5000 -55.0000
v 10.0000 15.5000 -25.0000
v 18.0000 15.5000 -25.0000
v 10.0000 25.5000 -25.0000
v 18.0000 25.5000 -25.0000
v 14.6000 25.0000 -40.0000
v 14.6000 29.0000 -40.0000
v 14.3000 25.0000 -40.5196
v 14.3000 29.0000 -40.5196
v 13.7000 25.0000 -40.5196
v 13.7000 29.0000 -40.5196
v 13.4000 25.0000 -40.0000
v 13.4000 29.0000 -40.0000
v 13.7000 25.0000 -39.4804
v 13.7000 29.0000 -39.4804
v 14.3000 25.0000 -39.4804
v 14.3000 29.0000 -39.4804
usemtl Mat
f 1 3 4 2
f 5 6 8 7
f 1 5 7 3
f 2 4 8 6
f 1 2 6 5
f 3 7 8 4
f 9 11 12 10
f 13 14 16 15
f 9 13 15 11
f 10 12 16 14
f 9 10 14 13
f 11 15 16 12
f 17 19 20 18
f 21 22 24 23
f 17 21 23 19
f 18 20 24 22
f 17 18 22 21
f 19 23 24 20
f 35 33 31 29 27 25
f 26 28 30 32 34 36
f 27 28 26 25
f 29 30 28 27
f 31 32 30 29
f 33 34 32 31
f 35 36 34 33
f 25 26 36 35
